<svg width="290" height="591" fill="none" xmlns="http://www.w3.org/2000/svg"><path d="M287.51 151.183h1.027c.567 0 1.026.461 1.026 1.031v67.345c0 .569-.459 1.03-1.026 1.03h-1.027v-69.406zM2.053 235.021H1.026a1.03 1.03 0 01-1.027-1.031v-40.545c0-.569.46-1.031 1.027-1.031h1.027v42.607z" fill="#C1C1C1"/><path d="M2.053 178.671H1.026a1.03 1.03 0 01-1.027-1.031v-40.545c0-.569.46-1.03 1.027-1.03h1.027v42.606zm0-63.222H1.026a1.03 1.03 0 01-1.027-1.031V94.489c0-.569.46-1.03 1.027-1.03h1.027v21.99z" fill="#D3D3D6"/><path fill-rule="evenodd" clip-rule="evenodd" d="M4.23 30.865c-2.177 6.728-2.177 15.042-2.177 31.67v464.543c0 16.628 0 24.942 2.178 31.67 4.4 13.599 15.021 24.26 28.567 28.678 6.703 2.187 14.985 2.187 31.549 2.187h160.868c16.564 0 24.846 0 31.548-2.187 13.546-4.418 24.167-15.079 28.568-28.678 2.178-6.728 2.178-15.042 2.178-31.67V62.535c0-16.628 0-24.942-2.178-31.67-4.401-13.599-15.022-24.26-28.568-28.679C250.061 0 241.779 0 225.215 0H64.347C47.783 0 39.5 0 32.798 2.186 19.252 6.605 8.632 17.266 4.23 30.865zm70.385-14.029v3.093l.05-.002-.05.345c0 8.16 6.59 14.775 14.718 14.775H200.23c8.128 0 14.717-6.615 14.717-14.775l-.049-.345.049.002v-3.093a3.773 3.773 0 013.765-3.78h8.817c13.784 0 20.676 0 26.173 2.086a32.239 32.239 0 0118.724 18.796c2.077 5.518 2.077 12.437 2.077 26.274v469.189c0 13.837 0 20.756-2.077 26.273a32.239 32.239 0 01-18.724 18.797c-5.497 2.085-12.389 2.085-26.173 2.085H62.033c-13.784 0-20.676 0-26.172-2.085a32.236 32.236 0 01-18.724-18.797c-2.078-5.517-2.078-12.436-2.078-26.273V60.211c0-13.836 0-20.755 2.078-26.273A32.236 32.236 0 0135.86 15.142c5.496-2.085 12.388-2.085 26.172-2.085h8.817a3.772 3.772 0 013.765 3.78z" fill="#D3D3D6"/><path fill-rule="evenodd" clip-rule="evenodd" d="M225.49 1.374H64.074c-16.362 0-24.381.009-30.852 2.12C20.093 7.775 9.8 18.108 5.534 31.288 3.43 37.785 3.423 45.834 3.423 62.26v465.094c0 16.425.008 24.475 2.11 30.97 4.267 13.181 14.56 23.514 27.69 27.796 6.47 2.111 14.489 2.119 30.85 2.119H225.49c16.362 0 24.381-.008 30.851-2.119 13.13-4.282 23.423-14.615 27.689-27.796 2.103-6.495 2.111-14.545 2.111-30.97V62.26c0-16.426-.008-24.475-2.111-30.97-4.266-13.18-14.559-23.514-27.689-27.797-6.47-2.11-14.489-2.119-30.851-2.119zM4.883 31.077c-2.145 6.625-2.145 14.81-2.145 31.183v465.093c0 16.372 0 24.558 2.145 31.183 4.333 13.389 14.79 23.886 28.128 28.237 6.6 2.153 14.754 2.153 31.063 2.153H225.49c16.309 0 24.463 0 31.063-2.153 13.338-4.351 23.795-14.848 28.128-28.237 2.145-6.625 2.145-14.811 2.145-31.183V62.26c0-16.372 0-24.558-2.145-31.183-4.333-13.39-14.79-23.887-28.128-28.237C249.953.687 241.799.687 225.49.687H64.074c-16.31 0-24.464 0-31.063 2.153C19.673 7.19 9.216 17.688 4.883 31.077z" fill="#C1C1C1"/><path fill-rule="evenodd" clip-rule="evenodd" d="M7.487 31.926c-2.01 6.211-2.01 13.886-2.01 29.234v467.292c0 15.349 0 23.024 2.01 29.234 4.063 12.553 13.866 22.394 26.37 26.473 6.187 2.018 13.832 2.018 29.122 2.018h163.606c15.29 0 22.935 0 29.122-2.018 12.504-4.079 22.307-13.92 26.37-26.473 2.01-6.21 2.01-13.885 2.01-29.234V61.16c0-15.348 0-23.023-2.01-29.234-4.063-12.552-13.866-22.393-26.37-26.472-6.187-2.018-13.832-2.018-29.122-2.018H62.979c-15.29 0-22.935 0-29.122 2.018-12.504 4.079-22.307 13.92-26.37 26.472zm67.129-15.09v3.093l.049-.002-.05.345c0 8.16 6.59 14.775 14.718 14.775H200.23c8.128 0 14.718-6.615 14.718-14.775l-.049-.345.048.002v-3.093a3.772 3.772 0 013.765-3.78h8.818c13.784 0 20.676 0 26.172 2.086a32.233 32.233 0 0118.724 18.796c2.077 5.518 2.077 12.437 2.077 26.274v469.189c0 13.837 0 20.756-2.077 26.274a32.234 32.234 0 01-18.724 18.796c-5.496 2.085-12.388 2.085-26.172 2.085H62.033c-13.784 0-20.675 0-26.172-2.085a32.237 32.237 0 01-18.724-18.796c-2.077-5.518-2.077-12.437-2.077-26.274V60.212c0-13.837 0-20.756 2.077-26.274A32.236 32.236 0 0135.86 15.142c5.497-2.085 12.389-2.085 26.172-2.085h8.818a3.772 3.772 0 013.765 3.78z" fill="#D6D8DA"/><path fill="#B2B4B8" d="M226.584 0h4.107v3.436h-4.107zm57.502 59.099h3.423v4.123h-3.423zm-282.033 0h3.423v4.123H2.053zm0 467.292h3.423v4.123H2.053zm282.033 0h3.423v4.123h-3.423zM58.869 586.177h4.107v3.436h-4.107z"/><path fill-rule="evenodd" clip-rule="evenodd" d="M173.875 27.488c3.024 0 5.476-2.462 5.476-5.498s-2.452-5.497-5.476-5.497c-3.025 0-5.477 2.461-5.477 5.497s2.452 5.498 5.477 5.498z" fill="#B2B4B8"/><path fill-rule="evenodd" clip-rule="evenodd" d="M173.874 25.426a3.43 3.43 0 003.423-3.436 3.43 3.43 0 00-3.423-3.436 3.43 3.43 0 00-3.423 3.436 3.43 3.43 0 003.423 3.436z" fill="#D6D8DA"/><path opacity=".4" fill-rule="evenodd" clip-rule="evenodd" d="M173.874 21.304a.686.686 0 00.685-.688.686.686 0 10-1.37 0c0 .38.307.688.685.688z" fill="#636F73"/><path fill-rule="evenodd" clip-rule="evenodd" d="M128.01 21.99c0-1.138.923-2.061 2.061-2.061h29.42a2.062 2.062 0 110 4.123h-29.42a2.061 2.061 0 01-2.061-2.062z" fill="#B2B4B8"/></svg>