<svg width="92" height="92" fill="none" xmlns="http://www.w3.org/2000/svg"><path d="M43.733 44.873c2.784.73 4.176 2.56 4.176 5.484 0 2.072-.771 3.636-2.313 4.693-1.541 1.056-3.447 1.584-5.717 1.584H28.831V35h10.727c4.84 0 7.259 1.788 7.259 5.363 0 2.072-1.028 3.575-3.084 4.51zm-9.892-6.155v5.058h5.075c2.012 0 3.019-.874 3.019-2.62 0-1.626-1.135-2.438-3.405-2.438h-4.689zm5.332 14.26c2.483 0 3.725-.955 3.725-2.864 0-2.072-1.199-3.108-3.597-3.108h-5.46v5.972h5.332zm23.06-14.687h-9.25v-2.133h9.25v2.133zm3.598 10.726c0 .203-.022.467-.065.792H53.883c0 1.3.342 2.295 1.027 2.986.728.69 1.735 1.036 3.02 1.036a4.31 4.31 0 001.413-.244 4.577 4.577 0 001.349-.67c.428-.325.706-.711.835-1.158h3.982C64.31 55.253 61.741 57 57.801 57c-2.57 0-4.625-.752-6.167-2.255-1.498-1.503-2.248-3.473-2.248-5.911 0-2.397.771-4.368 2.313-5.912 1.584-1.584 3.618-2.376 6.102-2.376 2.484 0 4.432.812 5.846 2.437 1.456 1.626 2.184 3.637 2.184 6.034zm-11.948-1.89h7.387c-.214-2.234-1.413-3.351-3.597-3.351-1.071 0-1.949.304-2.634.914-.685.61-1.07 1.422-1.156 2.437z" fill="#fff"/><circle cx="46" cy="46" r="45.5" stroke="#fff"/></svg>