<svg width="58" height="59" fill="none" xmlns="http://www.w3.org/2000/svg"><rect y=".5" width="58" height="58" rx="6" fill="#3B3B46"/><g filter="url(#filter0_d_896_148078)" fill="#fff" stroke="#fff" stroke-width=".5"><path d="M22.753 26.247l2.956 2.587-6.034 5.53a.437.437 0 10.591.646l6.106-5.596 1.903 1.665a.437.437 0 00.576 0l1.903-1.665 6.106 5.596a.44.44 0 00.706-.173.437.437 0 00-.115-.472l-6.034-5.53 5.934-5.193a.439.439 0 00-.093-.722.437.437 0 00-.483.063l-8.212 7.185-4.83-4.226a5.711 5.711 0 10-.98.305zm-6.003-5.56a4.812 4.812 0 119.624 0 4.812 4.812 0 01-9.623 0z"/><path d="M39.063 36.875a.438.438 0 00.437-.438v-14a1.314 1.314 0 00-1.313-1.312H28.51a.438.438 0 000 .875h9.677a.438.438 0 01.438.438V36H25.5a.439.439 0 00-.257.084l-4.118 2.994v-2.64a.438.438 0 00-.438-.438h-1.75a.438.438 0 01-.437-.438v-8.81a.437.437 0 00-.875 0v8.81a1.314 1.314 0 001.313 1.313h1.312v3.063a.438.438 0 00.695.353l4.697-3.416h13.42z"/><path d="M40.812 23.75h-.437a.438.438 0 000 .875h.437a.438.438 0 01.438.438v13.125a.438.438 0 01-.438.437h-1.75a.438.438 0 00-.437.438v2.682l-4.57-3.046a.438.438 0 00-.243-.074h-8.947a.437.437 0 000 .875h8.815l5.14 3.426a.439.439 0 00.68-.364V39.5h1.312a1.314 1.314 0 001.313-1.313V25.063a1.314 1.314 0 00-1.313-1.313z"/></g><defs><filter id="filter0_d_896_148078" x="10" y="14" width="38" height="38" filterUnits="userSpaceOnUse" color-interpolation-filters="sRGB"><feFlood flood-opacity="0" result="BackgroundImageFix"/><feColorMatrix in="SourceAlpha" values="0 0 0 0 0 0 0 0 0 0 0 0 0 0 0 0 0 0 127 0" result="hardAlpha"/><feOffset dy="4"/><feGaussianBlur stdDeviation="2"/><feComposite in2="hardAlpha" operator="out"/><feColorMatrix values="0 0 0 0 0 0 0 0 0 0 0 0 0 0 0 0 0 0 0.25 0"/><feBlend in2="BackgroundImageFix" result="effect1_dropShadow_896_148078"/><feBlend in="SourceGraphic" in2="effect1_dropShadow_896_148078" result="shape"/></filter></defs></svg>