<svg width="58" height="59" fill="none" xmlns="http://www.w3.org/2000/svg"><rect y=".5" width="58" height="58" rx="6" fill="#3B3B46"/><path d="M36.313 30a.438.438 0 00-.438.438v7.437h-14V19.062h4.412a2.625 2.625 0 005.177 0h4.411v8.75a.438.438 0 00.875 0V17.75A1.752 1.752 0 0035 16H22.75A1.752 1.752 0 0021 17.75V40.5a1.752 1.752 0 001.75 1.75H35a1.752 1.752 0 001.75-1.75V30.437a.438.438 0 00-.438-.437zM22.75 16.875H35a.876.876 0 01.875.875v.438h-4.813a.438.438 0 00-.437.437 1.75 1.75 0 01-3.5 0 .438.438 0 00-.438-.438h-4.812v-.437a.876.876 0 01.875-.875zM35 41.375H22.75a.876.876 0 01-.875-.875v-1.75h14v1.75a.876.876 0 01-.875.875v0z" fill="#fff" stroke="#fff" stroke-width=".5"/><path d="M28.875 19.5a.875.875 0 100-1.75.875.875 0 000 1.75zm.875 20.125H28a.438.438 0 000 .875h1.75a.438.438 0 000-.875zm-.875-13.562a1.75 1.75 0 100 3.499 1.75 1.75 0 000-3.5zm0 2.625a.874.874 0 110-1.75.874.874 0 010 1.75v0z" fill="#fff" stroke="#fff" stroke-width=".5"/></svg>