<svg width="26" height="26" fill="none" xmlns="http://www.w3.org/2000/svg"><path d="M19.871 13.565a.406.406 0 00-.406.407v6.906h-13V3.409h4.096a2.437 2.437 0 004.807 0h4.097v8.125a.406.406 0 10.812 0V2.19A1.627 1.627 0 0018.652.565H7.277A1.627 1.627 0 005.652 2.19v21.125a1.627 1.627 0 001.625 1.625h11.375a1.627 1.627 0 001.625-1.625v-9.343a.407.407 0 00-.406-.407zM7.277 1.378h11.375a.813.813 0 01.813.812v.407h-4.469a.406.406 0 00-.406.406 1.625 1.625 0 01-3.25 0 .407.407 0 00-.406-.406h-4.47V2.19a.813.813 0 01.813-.812zm11.375 22.75H7.277a.813.813 0 01-.812-.813V21.69h13v1.625a.813.813 0 01-.813.813v0z" fill="#FF5C39" stroke="#FF5C39" stroke-width=".5"/><path d="M12.965 3.815a.812.812 0 100-1.624.812.812 0 000 1.624zm.812 18.688h-1.625a.406.406 0 000 .812h1.625a.406.406 0 100-.812zM12.965 9.91a1.626 1.626 0 100 3.25 1.626 1.626 0 000-3.25zm0 2.437a.813.813 0 110-1.625.813.813 0 010 1.625v0z" fill="#FF5C39" stroke="#FF5C39" stroke-width=".5"/></svg>