<svg width="58" height="59" fill="none" xmlns="http://www.w3.org/2000/svg"><rect y=".5" width="58" height="58" rx="6" fill="#3B3B46"/><path d="M29.005 40.986a11.941 11.941 0 01-8.472-3.51 11.94 11.94 0 01-3.51-8.472 11.94 11.94 0 013.51-8.472 11.941 11.941 0 018.472-3.51 11.941 11.941 0 018.472 3.51 11.941 11.941 0 013.51 8.472 11.941 11.941 0 01-3.51 8.472 11.941 11.941 0 01-8.472 3.51zm0-23.12c-6.142 0-11.138 4.997-11.138 11.138 0 6.142 4.996 11.138 11.138 11.138 6.141 0 11.137-4.996 11.137-11.138 0-6.141-4.996-11.137-11.137-11.137z" fill="#fff" stroke="#fff" stroke-width=".5"/><path d="M29.004 21.221a.422.422 0 01-.422-.422v-4.877a.422.422 0 01.844 0v4.877a.422.422 0 01-.422.422zM20.8 29.418h-4.878a.422.422 0 010-.844h4.877a.422.422 0 010 .843zM28.996 42.5a.422.422 0 01-.422-.422v-4.877a.422.422 0 01.844 0v4.877a.422.422 0 01-.422.422zm13.083-13.074H37.2a.422.422 0 010-.843h4.878a.422.422 0 010 .843z" fill="#fff"/><path d="M28.943 25.489a1.75 1.75 0 100 3.5 1.75 1.75 0 000-3.5zm0 2.625a.875.875 0 110-1.75.875.875 0 010 1.75z" fill="#fff" stroke="#fff" stroke-width=".5"/><path d="M32.306 23.873a4.755 4.755 0 00-7.348 5.959l3.306 5.075a.81.81 0 001.357 0l3.307-5.075a4.755 4.755 0 00-.622-5.959zm-.112 5.481l-3.251 4.992-3.252-4.992a3.899 3.899 0 01.508-4.862 3.882 3.882 0 015.488 0 3.899 3.899 0 01.507 4.862z" fill="#fff" stroke="#fff" stroke-width=".5"/></svg>