<svg width="26" height="26" fill="none" xmlns="http://www.w3.org/2000/svg"><path d="M7.586 10.614l2.562 2.242-5.23 4.793a.379.379 0 10.512.56l5.292-4.85 1.649 1.443a.38.38 0 00.5 0l1.649-1.443 5.291 4.85a.381.381 0 00.536-.024.379.379 0 00-.023-.535l-5.23-4.794 5.143-4.5a.38.38 0 10-.499-.57l-7.117 6.226-4.186-3.662a4.95 4.95 0 10-.85.264zM2.383 5.796a4.17 4.17 0 118.342 0 4.17 4.17 0 01-8.342 0z" fill="#FF5C39" stroke="#FF5C39" stroke-width=".5"/><path d="M21.72 19.825a.379.379 0 00.379-.38V7.313a1.139 1.139 0 00-1.137-1.137h-8.388a.38.38 0 100 .758h8.388a.38.38 0 01.379.38v11.754H9.966a.38.38 0 00-.223.072l-3.569 2.595v-2.288a.38.38 0 00-.38-.38H4.279a.38.38 0 01-.379-.379v-7.636a.38.38 0 10-.758 0v7.636a1.139 1.139 0 001.137 1.138h1.138v2.654a.379.379 0 00.602.307l4.07-2.961H21.72z" fill="#FF5C39" stroke="#FF5C39" stroke-width=".5"/><path d="M23.237 8.45h-.38a.38.38 0 000 .759h.38a.38.38 0 01.38.379v11.375a.38.38 0 01-.38.379H21.72a.38.38 0 00-.379.379v2.325l-3.96-2.64a.379.379 0 00-.21-.064H9.415a.38.38 0 100 .758h7.64l4.454 2.97a.379.379 0 00.59-.316V22.1h1.137a1.139 1.139 0 001.137-1.137V9.588a1.139 1.139 0 00-1.137-1.138z" fill="#FF5C39" stroke="#FF5C39" stroke-width=".5"/></svg>