<svg width="144" height="692" fill="none" xmlns="http://www.w3.org/2000/svg"><g clip-path="url(#clip0_1192_10636)"><path d="M84.233 42.753c-11.73 0-21.24-9.57-21.24-21.377C62.993 9.571 72.503 0 84.233 0c11.73 0 21.24 9.57 21.24 21.376 0 11.806-9.51 21.377-21.24 21.377z" fill="#C8C8C8"/><path d="M80.474 89.482c-19.096 0-34.577-15.58-34.577-34.799 0-19.218 15.48-34.799 34.577-34.799 19.096 0 34.577 15.58 34.577 34.8 0 19.218-15.48 34.798-34.577 34.798z" fill="url(#paint0_linear_1192_10636)" fill-opacity=".8"/><path d="M76.853 137.55c-25.098 0-45.443-20.477-45.443-45.736 0-25.26 20.345-45.736 45.443-45.736s45.444 20.477 45.444 45.736c0 25.259-20.346 45.736-45.444 45.736z" fill="url(#paint1_linear_1192_10636)" fill-opacity=".7"/><path d="M68.326 253.534c-25.098 0-45.444-20.476-45.444-45.735s20.346-45.736 45.444-45.736c25.098 0 45.444 20.477 45.444 45.736 0 25.259-20.346 45.735-45.444 45.735z" fill="url(#paint2_linear_1192_10636)" fill-opacity=".8"/><path d="M68.326 604.506c-25.098 0-45.444-20.476-45.444-45.735s20.346-45.736 45.444-45.736c25.098 0 45.444 20.477 45.444 45.736 0 25.259-20.346 45.735-45.444 45.735z" fill="url(#paint3_linear_1192_10636)" fill-opacity=".7"/><path d="M68.11 191.89c-19.095 0-34.576-15.58-34.576-34.798 0-19.219 15.48-34.799 34.577-34.799 19.096 0 34.577 15.58 34.577 34.799 0 19.218-15.481 34.798-34.577 34.798z" fill="url(#paint4_linear_1192_10636)" fill-opacity=".7"/><path d="M61.545 415.597c-33.555 0-60.757-27.376-60.757-61.146 0-33.771 27.202-61.147 60.757-61.147 33.554 0 60.756 27.376 60.756 61.147 0 33.77-27.202 61.146-60.756 61.146z" fill="url(#paint5_linear_1192_10636)" fill-opacity=".7"/><path d="M70.992 154.143c-10.912 0-19.758-8.902-19.758-19.885 0-10.982 8.846-19.885 19.758-19.885 10.912 0 19.758 8.903 19.758 19.885 0 10.983-8.846 19.885-19.758 19.885z" fill="url(#paint6_linear_1192_10636)" fill-opacity=".8"/><path d="M63.062 283.361c-12.822 0-23.216-10.46-23.216-23.364 0-12.905 10.394-23.365 23.216-23.365 12.821 0 23.215 10.46 23.215 23.365 0 12.904-10.394 23.364-23.215 23.364z" fill="url(#paint7_linear_1192_10636)" fill-opacity=".7"/><path d="M67.796 535.902c-12.822 0-23.216-10.461-23.216-23.365 0-12.904 10.394-23.365 23.216-23.365 12.822 0 23.216 10.461 23.216 23.365 0 12.904-10.394 23.365-23.216 23.365z" fill="url(#paint8_linear_1192_10636)" fill-opacity=".8"/><path d="M64.955 331.086c-19.097 0-34.577-15.579-34.577-34.798s15.48-34.799 34.577-34.799c19.096 0 34.576 15.58 34.576 34.799s-15.48 34.798-34.576 34.798z" fill="url(#paint9_linear_1192_10636)" fill-opacity=".8"/><path d="M72.056 628.368c-19.096 0-34.577-15.58-34.577-34.799S52.96 558.77 72.056 558.77c19.096 0 34.577 15.58 34.577 34.799s-15.48 34.799-34.577 34.799z" fill="url(#paint10_linear_1192_10636)" fill-opacity=".8"/><path d="M82.388 692c-10.64 0-19.264-8.68-19.264-19.388 0-10.708 8.625-19.388 19.264-19.388 10.64 0 19.264 8.68 19.264 19.388 0 10.708-8.624 19.388-19.264 19.388z" fill="url(#paint11_linear_1192_10636)" fill-opacity=".8"/><path d="M79.717 665.155c-8.73 0-15.806-7.122-15.806-15.908s7.076-15.908 15.806-15.908 15.806 7.122 15.806 15.908-7.076 15.908-15.806 15.908z" fill="url(#paint12_linear_1192_10636)" fill-opacity=".8"/><path d="M63.986 450.397c-25.098 0-45.444-20.476-45.444-45.736 0-25.259 20.346-45.735 45.444-45.735 25.098 0 45.444 20.476 45.444 45.735 0 25.26-20.346 45.736-45.444 45.736z" fill="url(#paint13_linear_1192_10636)" fill-opacity=".8"/><path d="M63.308 513.035c-29.736 0-53.841-24.261-53.841-54.187 0-29.927 24.105-54.187 53.84-54.187 29.736 0 53.841 24.26 53.841 54.187 0 29.926-24.105 54.187-53.84 54.187z" fill="url(#paint14_linear_1192_10636)" fill-opacity=".7"/><path d="M79.156 688.701C52.16 421.852 51.144 269.35 79.144 3.284 79.338 1.439 80.9 0 82.754 0c2.157 0 3.832 1.917 3.602 4.062-28.452 265.413-27.66 417.067.016 683.888.222 2.141-1.452 4.05-3.604 4.05-1.861 0-3.424-1.447-3.612-3.299z" fill="#3B3B46"/><path d="M81.184 19.884c-4.092 0-7.409-3.338-7.409-7.457 0-4.118 3.317-7.457 7.41-7.457 4.091 0 7.409 3.339 7.409 7.457 0 4.119-3.317 7.457-7.41 7.457z" fill="#383647"/><path d="M82.687 15.928H81.24v-7.26l-2.137.758V8.153l3.4-1.299h.185v9.075z" fill="#fff"/><path d="M78.817 45.736c-4.092 0-7.409-3.338-7.409-7.457 0-4.118 3.317-7.457 7.41-7.457 4.091 0 7.409 3.339 7.409 7.457s-3.318 7.457-7.41 7.457z" fill="#383647"/><path d="M81.323 43.426h-5.81v-1.071l2.879-3.394c.415-.5.71-.917.884-1.25a2.16 2.16 0 00.267-1.014c0-.445-.117-.804-.35-1.078-.23-.273-.54-.41-.932-.41-.466 0-.828.154-1.086.461-.257.308-.385.73-.385 1.264h-1.442c0-.569.118-1.08.356-1.533a2.588 2.588 0 011.026-1.065c.447-.252.962-.378 1.543-.378.839 0 1.5.229 1.982.686.487.453.73 1.082.73 1.886 0 .466-.122.956-.368 1.47-.241.508-.639 1.088-1.193 1.738l-2.112 2.444h4.011v1.244z" fill="#fff"/><path d="M82.722 88.987c0-4.093-3.338-7.41-7.456-7.41-4.119 0-7.457 3.317-7.457 7.41 0 4.092 3.338 7.409 7.457 7.409 4.118 0 7.456-3.317 7.456-7.41z" fill="#383647"/><path d="M74.01 88.275h.915c.462-.004.827-.127 1.095-.367.273-.24.409-.589.409-1.044 0-.44-.114-.779-.34-1.02-.223-.244-.566-.366-1.028-.366-.404 0-.736.12-.996.36-.26.237-.39.547-.39.93h-1.502c0-.472.121-.902.364-1.29.248-.389.59-.69 1.027-.905.442-.22.935-.33 1.479-.33.899 0 1.604.232 2.115.697.516.46.774 1.1.774 1.924 0 .413-.13.803-.39 1.17a2.423 2.423 0 01-.996.823c.495.173.87.446 1.126.817.26.371.39.814.39 1.329 0 .827-.279 1.485-.835 1.975-.553.49-1.28.734-2.184.734-.866 0-1.576-.236-2.128-.709-.553-.472-.83-1.101-.83-1.886h1.504c0 .405.132.734.396.987.268.254.627.38 1.076.38.466 0 .833-.126 1.102-.38.268-.253.402-.62.402-1.101 0-.485-.14-.859-.421-1.12-.28-.262-.697-.393-1.25-.393h-.884v-1.215z" fill="#fff"/><path d="M70.532 141.458c-4.092 0-7.41-3.339-7.41-7.457s3.318-7.457 7.41-7.457c4.092 0 7.41 3.339 7.41 7.457s-3.318 7.457-7.41 7.457z" fill="#383647"/><path d="M72.096 134.874h1.02v1.267h-1.02v2.108h-1.37v-2.108H67.18l-.04-.962 3.541-6.399h1.415v6.094zm-3.518 0h2.148v-3.955l-.101.208-2.047 3.747z" fill="#fff"/><path d="M74.832 169.52c0-4.092-3.339-7.409-7.457-7.409s-7.457 3.317-7.457 7.409 3.339 7.409 7.457 7.409 7.457-3.317 7.457-7.409z" fill="#383647"/><path d="M64.583 169.278l.495-4.708h4.904v1.347h-3.637l-.25 2.232a2.769 2.769 0 011.429-.371c.87 0 1.544.284 2.025.852.485.569.728 1.335.728 2.297 0 .95-.268 1.707-.803 2.27-.535.561-1.269.841-2.201.841-.836 0-1.53-.241-2.082-.724-.547-.488-.844-1.13-.89-1.926h1.473c.059.454.218.803.477 1.046.26.24.598.36 1.016.36.468 0 .832-.172 1.09-.513.264-.343.396-.809.396-1.399 0-.569-.144-1.018-.433-1.347-.288-.334-.685-.5-1.191-.5-.276 0-.51.038-.703.115-.192.073-.4.218-.627.437l-1.216-.309z" fill="#fff"/><path d="M65.009 217.741c-4.092 0-7.41-3.338-7.41-7.456 0-4.119 3.318-7.457 7.41-7.457 4.092 0 7.409 3.338 7.409 7.457 0 4.118-3.317 7.456-7.41 7.456z" fill="#383647"/><path d="M66.475 205.412v1.283h-.187c-.845.014-1.52.252-2.025.716-.505.463-.805 1.121-.9 1.973.484-.524 1.103-.786 1.857-.786.8 0 1.429.29 1.888.868.464.58.696 1.326.696 2.241 0 .946-.271 1.711-.814 2.299-.538.583-1.246.875-2.124.875-.903 0-1.636-.343-2.2-1.028-.558-.685-.838-1.583-.838-2.695v-.53c0-1.629.385-2.907 1.155-3.83.775-.923 1.887-1.386 3.336-1.386h.156zm-1.622 4.438a1.57 1.57 0 00-.913.287 1.676 1.676 0 00-.602.766v.472c0 .69.14 1.24.422 1.648.282.404.646.606 1.093.606.448 0 .802-.173 1.063-.517.26-.345.39-.798.39-1.359 0-.563-.132-1.02-.397-1.373a1.257 1.257 0 00-1.056-.53z" fill="#fff"/><path d="M63.036 265.898c-4.092 0-7.41-3.338-7.41-7.457 0-4.118 3.318-7.457 7.41-7.457 4.092 0 7.41 3.339 7.41 7.457 0 4.119-3.318 7.457-7.41 7.457z" fill="#383647"/><path d="M66.07 254.656l-3.447 8.59h-1.51l3.44-8.2h-4.46v-1.268h5.977v.878z" fill="#fff"/><path d="M63.036 303.745c-4.092 0-7.41-3.338-7.41-7.457 0-4.118 3.318-7.457 7.41-7.457 4.092 0 7.41 3.339 7.41 7.457 0 4.119-3.318 7.457-7.41 7.457z" fill="#383647"/><path d="M65.697 298.712c0-.451-.115-.854-.344-1.209a2.413 2.413 0 00-.94-.829c.476-.224.842-.529 1.096-.918a2.31 2.31 0 00.389-1.316c0-.81-.272-1.454-.815-1.931-.543-.472-1.265-.709-2.167-.709-.906 0-1.633.239-2.18.715-.543.478-.814 1.119-.814 1.925 0 .493.13.936.388 1.329.26.393.622.694 1.09.905a2.422 2.422 0 00-.933.829 2.207 2.207 0 00-.338 1.209c0 .785.25 1.407.751 1.867.501.46 1.178.69 2.03.69.856 0 1.535-.23 2.036-.69.5-.46.751-1.082.751-1.867zm-1.322-4.197c0 .456-.135.823-.407 1.102-.267.282-.622.424-1.065.424-.442 0-.797-.14-1.064-.418-.264-.278-.395-.648-.395-1.108 0-.451.13-.811.388-1.081.264-.271.625-.406 1.084-.406.46 0 .816.131 1.071.393.26.261.389.626.389 1.094zm-.194 4.14c0 .401-.114.73-.344.988-.23.261-.539.391-.927.391-.389 0-.695-.123-.921-.373-.225-.245-.338-.58-.338-1.006 0-.422.112-.757.338-1.007.23-.248.539-.373.927-.373s.695.125.92.373c.23.25.345.585.345 1.007z" fill="#fff"/><path d="M62.247 359.121c-4.092 0-7.41-3.338-7.41-7.457 0-4.118 3.318-7.457 7.41-7.457 4.092 0 7.41 3.339 7.41 7.457 0 4.119-3.318 7.457-7.41 7.457z" fill="#383647"/><path d="M63.701 352.287c-.512.55-1.11.825-1.795.825-.806 0-1.448-.285-1.926-.856-.479-.576-.718-1.33-.718-2.263 0-.613.121-1.168.365-1.666.243-.499.59-.886 1.039-1.164.45-.277.97-.415 1.562-.415.923 0 1.656.35 2.197 1.048.542.699.813 1.634.813 2.804v.435c0 1.678-.374 2.958-1.121 3.84-.748.882-1.862 1.329-3.344 1.342h-.183v-1.285h.22c.903-.012 1.596-.231 2.079-.658.482-.43.753-1.092.812-1.987zm-1.473-.389c.306 0 .594-.09.862-.269.269-.178.477-.426.624-.741v-.607c0-.685-.139-1.237-.416-1.655-.277-.417-.636-.626-1.077-.626-.44 0-.793.186-1.058.556-.26.366-.39.83-.39 1.393 0 .584.132 1.054.397 1.412a1.25 1.25 0 001.058.537z" fill="#fff"/><path d="M62.642 409.318c-4.093 0-7.41-3.338-7.41-7.457 0-4.118 3.318-7.457 7.41-7.457 4.092 0 7.409 3.339 7.409 7.457 0 4.119-3.317 7.457-7.41 7.457z" fill="#383647"/><path d="M61.13 405.653h-1.331v-6.165l-1.963.643v-1.081l3.123-1.103h.17v7.706zm6.267-3.233c0 1.104-.216 1.938-.648 2.5-.43.559-1.084.839-1.963.839-.866 0-1.518-.273-1.958-.818-.436-.548-.66-1.359-.67-2.431v-1.33c0-1.104.214-1.932.643-2.484.432-.552 1.09-.828 1.974-.828.876 0 1.528.269 1.957.807.433.538.654 1.344.665 2.415v1.33zm-1.336-1.435c0-.72-.103-1.248-.308-1.582-.205-.337-.531-.506-.978-.506-.437 0-.757.159-.963.479-.205.317-.313.813-.324 1.488v1.74c0 .717.104 1.253.313 1.604.21.352.537.528.984.528.43 0 .746-.162.952-.486.205-.327.313-.837.324-1.529v-1.736z" fill="#fff"/><path d="M65.009 469.475c-4.092 0-7.41-3.339-7.41-7.457 0-4.119 3.318-7.457 7.41-7.457 4.092 0 7.409 3.338 7.409 7.457 0 4.118-3.317 7.457-7.41 7.457z" fill="#383647"/><path d="M63.995 465.227h-1.598v-6.313l-2.358.659v-1.107l3.75-1.129h.206v7.89zm5.605 0h-1.598v-6.313l-2.357.659v-1.107l3.75-1.129h.205v7.89z" fill="#fff"/><path d="M67.376 520.468c-4.092 0-7.41-3.338-7.41-7.457 0-4.118 3.318-7.457 7.41-7.457 4.092 0 7.41 3.339 7.41 7.457 0 4.119-3.318 7.457-7.41 7.457z" fill="#383647"/><path d="M65.382 517.148h-1.308v-6.249l-1.93.652v-1.095l3.07-1.118h.168v7.81zm6.324 0h-5.292v-.892l2.622-2.828c.378-.417.647-.765.805-1.043a1.68 1.68 0 00.243-.845c0-.37-.106-.669-.319-.897-.209-.229-.491-.342-.848-.342-.425 0-.755.128-.99.385-.234.256-.35.607-.35 1.052h-1.314c0-.474.108-.899.324-1.277a2.26 2.26 0 01.935-.888c.407-.21.876-.315 1.406-.315.764 0 1.365.19 1.805.572.443.378.665.902.665 1.571 0 .39-.112.797-.335 1.225-.22.424-.582.907-1.087 1.448l-1.924 2.038h3.654v1.036z" fill="#fff"/><path d="M70.138 563.893c-4.092 0-7.41-3.339-7.41-7.457 0-4.119 3.318-7.457 7.41-7.457 4.092 0 7.409 3.338 7.409 7.457 0 4.118-3.317 7.457-7.41 7.457z" fill="#383647"/><path d="M68.69 559.87h-1.341v-6.166l-1.978.643v-1.081l3.147-1.102h.171v7.706zm2.614-4.426h.82c.413-.003.74-.105.98-.306.244-.2.366-.49.366-.87 0-.365-.102-.649-.305-.849-.2-.204-.506-.306-.92-.306-.361 0-.659.1-.891.3a.968.968 0 00-.35.776h-1.346c0-.393.11-.752.327-1.076.222-.324.528-.575.92-.754a3.113 3.113 0 011.324-.274c.805 0 1.437.193 1.895.58.461.383.692.918.692 1.603 0 .345-.116.67-.349.976a2.14 2.14 0 01-.892.685c.443.145.78.372 1.008.681.233.31.35.679.35 1.107 0 .69-.25 1.239-.749 1.647-.494.408-1.146.611-1.955.611-.776 0-1.41-.197-1.906-.591-.495-.394-.742-.917-.742-1.572h1.346c0 .338.118.613.355.824.24.211.561.316.964.316.417 0 .746-.105.986-.316.24-.211.36-.517.36-.919 0-.403-.126-.715-.377-.933-.251-.218-.624-.327-1.119-.327h-.792v-1.013z" fill="#fff"/><path d="M74.477 603.731c-4.092 0-7.409-3.338-7.409-7.456 0-4.119 3.317-7.457 7.41-7.457 4.092 0 7.409 3.338 7.409 7.457 0 4.118-3.317 7.456-7.41 7.456z" fill="#383647"/><path d="M72.804 599.587h-1.29v-6.313l-1.905.658v-1.107l3.03-1.129h.165v7.891zm5.401-2.803h.966v1.053h-.966v1.75H76.91v-1.75h-3.355l-.037-.799 3.349-5.314h1.338v5.06zm-3.327 0h2.032V593.5l-.096.173-1.936 3.111z" fill="#fff"/><path d="M79.497 657.402c-4.092 0-7.41-3.339-7.41-7.457 0-4.119 3.318-7.457 7.41-7.457 4.092 0 7.41 3.338 7.41 7.457 0 4.118-3.318 7.457-7.41 7.457z" fill="#383647"/><path d="M77.913 653.307H76.6v-6.227l-1.936.649v-1.092l3.08-1.113h.169v7.783zm1.388-3.846l.428-3.91h4.242v1.118h-3.146l-.217 1.854a2.472 2.472 0 011.236-.308c.753 0 1.337.235 1.752.708.42.472.63 1.108.63 1.907 0 .789-.232 1.417-.695 1.886-.463.466-1.097.698-1.903.698-.724 0-1.324-.201-1.801-.602-.474-.405-.73-.938-.77-1.599h1.274c.051.377.188.667.412.869.225.199.518.299.88.299.404 0 .719-.143.943-.426.228-.285.342-.672.342-1.162 0-.473-.125-.845-.375-1.119-.25-.277-.593-.415-1.03-.415a1.72 1.72 0 00-.608.095c-.166.061-.347.182-.542.363l-1.052-.256z" fill="#fff"/><path d="M81.864 681.663c-4.092 0-7.41-3.339-7.41-7.457s3.318-7.457 7.41-7.457c4.092 0 7.41 3.339 7.41 7.457s-3.318 7.457-7.41 7.457z" fill="#383647"/><path d="M80.137 677.911h-1.315v-6.219l-1.94.649v-1.09l3.087-1.113h.168v7.773zm5.144-7.784v1.07h-.163c-.738.011-1.329.209-1.77.596-.442.386-.705.934-.788 1.644.423-.436.965-.654 1.624-.654.7 0 1.25.241 1.652.723.405.483.608 1.105.608 1.867 0 .788-.237 1.426-.712 1.916-.47.486-1.09.729-1.858.729-.79 0-1.43-.286-1.923-.857-.489-.571-.733-1.319-.733-2.245v-.442c0-1.358.337-2.422 1.01-3.192.678-.769 1.65-1.155 2.918-1.155h.135zm-1.417 3.698c-.29 0-.556.08-.8.24a1.408 1.408 0 00-.526.638v.394c0 .575.123 1.032.37 1.373.246.337.564.505.956.505.39 0 .7-.144.928-.431.229-.287.343-.665.343-1.133 0-.468-.116-.85-.348-1.144a1.118 1.118 0 00-.923-.442z" fill="#fff"/><path d="M26.865 88.893v1.986h-1.397v-1.582c0-.463-.07-.838-.211-1.125a1.4 1.4 0 00-.615-.633 2.022 2.022 0 00-.932-.202 1.51 1.51 0 00-.809.228c-.246.147-.442.375-.588.686-.153.31-.229.706-.229 1.186 0 .364.064.695.193.994.13.299.31.536.545.712.229.175.507.263.835.263v2.628a3.14 3.14 0 01-1.512-.36 3.466 3.466 0 01-1.142-1.002 4.687 4.687 0 01-.72-1.477 6.188 6.188 0 01-.247-1.757c0-.721.08-1.372.237-1.952.153-.58.381-1.078.686-1.494a3.077 3.077 0 011.134-.958c.45-.223.975-.334 1.573-.334.44 0 .853.1 1.24.299.386.2.726.483 1.019.853.293.369.524.811.694 1.327.164.515.246 1.087.246 1.714zm-.764 1.986v-1.986c0-.698.073-1.316.22-1.855.146-.545.36-1.005.64-1.38.282-.38.63-.668 1.047-.861.41-.2.882-.299 1.415-.299.598 0 1.128.123 1.59.37.464.24.856.582 1.178 1.028.323.439.566.96.73 1.564.164.598.246 1.257.246 1.978 0 .574-.07 1.145-.21 1.713a5.242 5.242 0 01-.669 1.547 3.41 3.41 0 01-1.151 1.108c-.469.275-1.032.413-1.688.413v-2.646c.31 0 .595-.09.853-.272.252-.182.454-.434.606-.756a2.65 2.65 0 00.22-1.108c0-.486-.076-.899-.229-1.239-.152-.345-.36-.606-.624-.782a1.555 1.555 0 00-.887-.272c-.346 0-.639.046-.88.14a1.43 1.43 0 00-.588.413 1.645 1.645 0 00-.343.677c-.07.264-.105.571-.105.923v1.582H26.1zm-3.71-13.535L33 80.824v2.804l-12.797-4.755v-1.784l2.189.255zM33 74.452l-10.608 3.49-2.189.28v-1.801L33 71.64v2.812zm-4.764.158h2.066v6.76h-2.066v-6.76zm-8.033-6.802H33v2.636H20.203v-2.636zm0-7.541l7.515 4.904v3.225l-2.347.335v-2.154l-5.168-3.111v-3.2zM33 62.982l-5.722 3.586-1.88-1.828L33 59.854v3.128zm-10.608-9.369L33 57.093v2.804l-12.797-4.754v-1.785l2.189.255zM33 50.722L22.392 54.21l-2.189.281V52.69L33 47.91v2.812zm-4.764.158h2.066v6.759h-2.066v-6.76zm-1.37-8.939v1.987h-1.398v-1.582c0-.463-.07-.838-.211-1.125a1.4 1.4 0 00-.615-.633 2.022 2.022 0 00-.932-.202 1.506 1.506 0 00-1.398.914c-.152.31-.228.706-.228 1.186 0 .364.064.695.193.994.13.298.31.536.545.711.229.176.507.264.835.264v2.628a3.14 3.14 0 01-1.512-.36 3.465 3.465 0 01-1.142-1.002 4.686 4.686 0 01-.72-1.477 6.188 6.188 0 01-.247-1.758c0-.72.08-1.37.237-1.95.153-.58.381-1.079.686-1.495a3.078 3.078 0 011.134-.958c.45-.223.975-.334 1.573-.334.44 0 .853.1 1.24.299.386.2.726.483 1.019.852.293.37.524.812.694 1.328a5.63 5.63 0 01.246 1.713zm-.765 1.987V41.94c0-.697.073-1.315.22-1.854.146-.545.36-1.005.64-1.38a2.7 2.7 0 011.047-.861c.41-.2.882-.3 1.415-.3.598 0 1.128.124 1.59.37.464.24.856.583 1.178 1.028.323.44.566.961.73 1.565.164.597.246 1.257.246 1.977 0 .575-.07 1.146-.21 1.714a5.243 5.243 0 01-.669 1.547 3.41 3.41 0 01-1.151 1.108c-.469.275-1.032.413-1.688.413v-2.646c.31 0 .595-.09.853-.272.252-.182.454-.434.606-.756a2.65 2.65 0 00.22-1.108c0-.486-.076-.9-.229-1.239-.152-.346-.36-.606-.624-.782a1.555 1.555 0 00-.887-.273c-.346 0-.639.047-.88.141-.24.094-.436.232-.588.413a1.644 1.644 0 00-.343.677c-.07.264-.105.571-.105.923v1.582H26.1zm-5.898-8.411V32.87h3.929c.562 0 1.002-.085 1.318-.255.317-.176.54-.44.668-.79.123-.358.185-.8.185-1.328a14.658 14.658 0 00-.105-1.547 24.771 24.771 0 00-.133-.826 4.526 4.526 0 00-.175-.66h2.056c.059.177.114.396.167.66.053.264.1.54.14.826a14.569 14.569 0 01.106 1.547c0 1.02-.146 1.904-.44 2.654-.292.75-.75 1.333-1.37 1.75-.627.41-1.433.615-2.417.615h-3.929zm0-7.498v-2.636H33v2.637H20.203zm8.649-7.461l-8.649-5.142v-2.637H33v2.637h-8.648L33 20.558v2.636H20.203v-2.636h8.649zm-8.649-12.71H33v2.637H20.203V7.85zm0-7.54l7.515 4.904v3.226l-2.347.333V6.618l-5.168-3.111v-3.2zM33 3.023L27.278 6.61l-1.88-1.828L33-.105v3.128zm85.203 54.22H131v2.628h-12.797v-2.628zm0-3.674v-2.232l9.396-3.287-9.396-3.287V42.53L131 47.153v1.793l-12.797 4.623zm0 1.204V52.55l9.158-.404H131v2.627h-12.797zm0-11.223v-2.233H131v2.637h-3.639l-9.158-.404zm2.189-9.905L131 37.124v2.804l-12.797-4.755V33.39l2.189.255zM131 30.753l-10.608 3.49-2.189.28v-1.801L131 27.94v2.813zm-4.764.158h2.066v6.759h-2.066v-6.76zm-8.033-4.157V21.98c0-.978.147-1.819.44-2.522.293-.709.726-1.254 1.3-1.635.575-.38 1.281-.571 2.119-.571.685 0 1.274.117 1.766.352a3.31 3.31 0 011.222.975c.322.416.58.905.773 1.468l.44.835v4.148l-2.057.018v-3.085c0-.463-.082-.847-.246-1.151a1.613 1.613 0 00-.686-.686 2.109 2.109 0 00-1.019-.237c-.41 0-.765.076-1.064.228a1.544 1.544 0 00-.685.695c-.158.31-.237.7-.237 1.168v2.136H131v2.637h-12.797zM131 19.6l-5.704 2.918-.018-2.787 5.599-2.953H131V19.6zm-12.797-7.181H131v2.628h-12.797v-2.628zm9.448-9.132c-.228 0-.433.035-.615.106a1.17 1.17 0 00-.51.369 3.267 3.267 0 00-.465.764c-.153.328-.311.753-.475 1.275-.188.58-.399 1.13-.633 1.652a6.796 6.796 0 01-.817 1.371 3.692 3.692 0 01-1.099.932c-.416.223-.899.334-1.45.334a2.998 2.998 0 01-1.45-.352 3.327 3.327 0 01-1.125-.984 4.666 4.666 0 01-.73-1.494 6.761 6.761 0 01-.255-1.907c0-.944.17-1.767.51-2.47.34-.703.806-1.248 1.398-1.635.591-.393 1.268-.589 2.03-.589v2.62a1.97 1.97 0 00-.985.237 1.604 1.604 0 00-.676.703c-.164.31-.246.703-.246 1.177 0 .458.07.838.211 1.143.134.305.319.533.553.686.229.152.487.228.774.228.216 0 .413-.053.589-.158.175-.111.339-.275.492-.492.152-.217.296-.484.43-.8a11.5 11.5 0 00.396-1.099c.211-.697.448-1.31.712-1.837.264-.533.559-.978.888-1.336.328-.357.7-.627 1.116-.808a3.5 3.5 0 011.415-.273c.556 0 1.054.109 1.494.326.439.216.811.53 1.116.94.305.41.536.9.694 1.468.159.568.238 1.204.238 1.907 0 .633-.082 1.257-.246 1.872a5.685 5.685 0 01-.765 1.679 3.85 3.85 0 01-1.301 1.195c-.527.299-1.151.448-1.872.448V7.84c.399 0 .736-.062 1.011-.185.275-.123.498-.296.668-.518.17-.229.293-.498.369-.809.076-.316.114-.662.114-1.037 0-.457-.064-.832-.193-1.125-.129-.299-.308-.519-.536-.66a1.406 1.406 0 00-.774-.219z" fill="#383647"/></g><defs><linearGradient id="paint0_linear_1192_10636" x1="58.946" y1="24.479" x2="109.135" y2="74.039" gradientUnits="userSpaceOnUse"><stop stop-color="#FF9F50"/><stop offset="1" stop-color="#FF4523"/></linearGradient><linearGradient id="paint1_linear_1192_10636" x1="38.806" y1="61.267" x2="115.346" y2="117.83" gradientUnits="userSpaceOnUse"><stop stop-color="#FF9F50"/><stop offset="1" stop-color="#FF4523"/></linearGradient><linearGradient id="paint2_linear_1192_10636" x1="34.266" y1="171.148" x2="104.607" y2="239.873" gradientUnits="userSpaceOnUse"><stop stop-color="#FF9F50"/><stop offset="1" stop-color="#FF4523"/></linearGradient><linearGradient id="paint3_linear_1192_10636" x1="39.366" y1="520.441" x2="109.46" y2="584.439" gradientUnits="userSpaceOnUse"><stop stop-color="#8CA9FF"/><stop offset="1" stop-color="#5E31F9"/></linearGradient><linearGradient id="paint4_linear_1192_10636" x1="42.221" y1="132.681" x2="96.44" y2="177.278" gradientUnits="userSpaceOnUse"><stop stop-color="#FF9F50"/><stop offset="1" stop-color="#FF4523"/></linearGradient><linearGradient id="paint5_linear_1192_10636" x1="19.988" y1="313.91" x2="112.798" y2="388.222" gradientUnits="userSpaceOnUse"><stop stop-color="#FF5FC1"/><stop offset="1" stop-color="#9467F4"/></linearGradient><linearGradient id="paint6_linear_1192_10636" x1="58.334" y1="118.076" x2="88.333" y2="144.154" gradientUnits="userSpaceOnUse"><stop stop-color="#FF9F50"/><stop offset="1" stop-color="#FF4523"/></linearGradient><linearGradient id="paint7_linear_1192_10636" x1="47.319" y1="239.238" x2="81.045" y2="271.659" gradientUnits="userSpaceOnUse"><stop stop-color="#6DF0CA"/><stop offset="1" stop-color="#48A5FF"/></linearGradient><linearGradient id="paint8_linear_1192_10636" x1="52.011" y1="493.492" x2="87.949" y2="522.814" gradientUnits="userSpaceOnUse"><stop stop-color="#8CA9FF"/><stop offset="1" stop-color="#5E31F9"/></linearGradient><linearGradient id="paint9_linear_1192_10636" x1="38.957" y1="278.116" x2="94.127" y2="316.143" gradientUnits="userSpaceOnUse"><stop stop-color="#6DF0CA"/><stop offset="1" stop-color="#48A5FF"/></linearGradient><linearGradient id="paint10_linear_1192_10636" x1="48.136" y1="569.604" x2="98.509" y2="616.9" gradientUnits="userSpaceOnUse"><stop stop-color="#8CA9FF"/><stop offset="1" stop-color="#5E31F9"/></linearGradient><linearGradient id="paint11_linear_1192_10636" x1="69.961" y1="657.853" x2="98.339" y2="684.971" gradientUnits="userSpaceOnUse"><stop stop-color="#FEDB60"/><stop offset="1" stop-color="#F69272"/></linearGradient><linearGradient id="paint12_linear_1192_10636" x1="68.327" y1="638.721" x2="91.119" y2="657.045" gradientUnits="userSpaceOnUse"><stop stop-color="#FEDB60"/><stop offset="1" stop-color="#F79272"/></linearGradient><linearGradient id="paint13_linear_1192_10636" x1="29.575" y1="372.536" x2="106.061" y2="423.976" gradientUnits="userSpaceOnUse"><stop stop-color="#FF5FC1"/><stop offset="1" stop-color="#9467F4"/></linearGradient><linearGradient id="paint14_linear_1192_10636" x1="22.639" y1="422.935" x2="105.17" y2="487.873" gradientUnits="userSpaceOnUse"><stop stop-color="#8CA9FF"/><stop offset="1" stop-color="#5E31F9"/></linearGradient><clipPath id="clip0_1192_10636"><path fill="#fff" transform="matrix(-1 0 0 1 144 0)" d="M0 0h144v692H0z"/></clipPath></defs></svg>