<svg width="1682" height="353" fill="none" xmlns="http://www.w3.org/2000/svg"><g clip-path="url(#clip0_1192_10534)"><path d="M103.917 206.485c0-28.756-23.263-52.068-51.959-52.068C23.263 154.417 0 177.729 0 206.485c0 28.756 23.262 52.067 51.958 52.067 28.696 0 51.959-23.311 51.959-52.067z" fill="#C8C8C8"/><path d="M217.499 197.274c0-46.812-37.87-84.761-84.584-84.761-46.714 0-84.583 37.949-84.583 84.761s37.87 84.761 84.583 84.761c46.714 0 84.584-37.949 84.584-84.761z" fill="url(#paint0_linear_1192_10534)" fill-opacity=".8"/><path d="M334.333 188.4c0-61.524-49.771-111.4-111.166-111.4C161.771 77 112 126.876 112 188.4c0 61.525 49.771 111.4 111.167 111.4 61.395 0 111.166-49.875 111.166-111.4z" fill="url(#paint1_linear_1192_10534)" fill-opacity=".7"/><path d="M616.251 167.493c0-61.524-49.771-111.4-111.166-111.4-61.396 0-111.167 49.876-111.167 111.4 0 61.525 49.771 111.4 111.167 111.4 61.395 0 111.166-49.875 111.166-111.4z" fill="url(#paint2_linear_1192_10534)" fill-opacity=".8"/><path d="M1469.33 167.493c0-61.524-49.77-111.4-111.16-111.4-61.4 0-111.17 49.876-111.17 111.4 0 61.525 49.77 111.4 111.17 111.4 61.39 0 111.16-49.875 111.16-111.4z" fill="url(#paint3_linear_1192_10534)" fill-opacity=".7"/><path d="M466.417 166.966c0-46.812-37.87-84.76-84.584-84.76-46.714 0-84.583 37.948-84.583 84.76 0 46.813 37.869 84.761 84.583 84.761s84.584-37.948 84.584-84.761z" fill="url(#paint4_linear_1192_10534)" fill-opacity=".7"/><path d="M1010.16 150.871c0-82.256-66.538-148.937-148.621-148.937-82.083 0-148.625 66.681-148.625 148.937 0 82.256 66.542 148.937 148.625 148.937s148.621-66.681 148.621-148.937z" fill="url(#paint5_linear_1192_10534)" fill-opacity=".7"/><path d="M374.667 174.03c0-26.75-21.64-48.435-48.334-48.435-26.693 0-48.333 21.685-48.333 48.435 0 26.749 21.64 48.434 48.333 48.434 26.694 0 48.334-21.685 48.334-48.434z" fill="url(#paint6_linear_1192_10534)" fill-opacity=".8"/><path d="M688.747 154.59c0-31.431-25.426-56.91-56.791-56.91s-56.792 25.479-56.792 56.91c0 31.431 25.427 56.911 56.792 56.911 31.365 0 56.791-25.48 56.791-56.911z" fill="url(#paint7_linear_1192_10534)" fill-opacity=".7"/><path d="M1302.58 166.196c0-31.431-25.42-56.911-56.79-56.911-31.36 0-56.79 25.48-56.79 56.911s25.43 56.911 56.79 56.911c31.37 0 56.79-25.48 56.79-56.911z" fill="url(#paint8_linear_1192_10534)" fill-opacity=".8"/><path d="M804.753 159.23c0-46.813-37.87-84.761-84.584-84.761-46.714 0-84.583 37.948-84.583 84.761 0 46.812 37.869 84.76 84.583 84.76s84.584-37.948 84.584-84.76z" fill="url(#paint9_linear_1192_10534)" fill-opacity=".8"/><path d="M1527.33 176.638c0-46.812-37.86-84.761-84.58-84.761-46.71 0-84.58 37.949-84.58 84.761s37.87 84.761 84.58 84.761c46.72 0 84.58-37.949 84.58-84.761z" fill="url(#paint10_linear_1192_10534)" fill-opacity=".8"/><path d="M1682 201.964c0-26.081-21.1-47.224-47.12-47.224-26.03 0-47.13 21.143-47.13 47.224 0 26.081 21.1 47.224 47.13 47.224 26.02 0 47.12-21.143 47.12-47.224z" fill="url(#paint11_linear_1192_10534)" fill-opacity=".8"/><path d="M1616.75 195.422c0-21.4-17.31-38.748-38.67-38.748-21.35 0-38.66 17.348-38.66 38.748s17.31 38.748 38.66 38.748c21.36 0 38.67-17.348 38.67-38.748z" fill="url(#paint12_linear_1192_10534)" fill-opacity=".8"/><path d="M1094.75 156.855c0-61.525-49.77-111.4-111.165-111.4-61.396 0-111.167 49.875-111.167 111.4 0 61.524 49.771 111.4 111.167 111.4 61.395 0 111.165-49.876 111.165-111.4z" fill="url(#paint13_linear_1192_10534)" fill-opacity=".8"/><path d="M1247 155.196c0-72.893-58.97-131.985-131.71-131.985-72.74 0-131.708 59.092-131.708 131.985 0 72.893 58.968 131.985 131.708 131.985S1247 228.089 1247 155.196z" fill="url(#paint14_linear_1192_10534)" fill-opacity=".7"/><path d="M0 200.261v5.818c0 3.571 3.18 6.342 6.73 5.958 648.11-70.208 1017.01-68.252 1668.56.026 3.54.371 6.71-2.398 6.71-5.96v-5.82c0-3.077-2.39-5.662-5.46-5.975-651.05-66.52-1021.971-69.029-1671.11-.02-3.05.325-5.43 2.905-5.43 5.973z" fill="#3B3B46"/><path d="M48.332 199.015c0-10.031-8.115-18.163-18.125-18.163s-18.125 8.132-18.125 18.163 8.115 18.163 18.125 18.163 18.125-8.132 18.125-18.163z" fill="#383647"/><path d="M32.047 209.422h-3.521v-17.798l-5.194 1.858v-3.121l8.264-3.183h.451v22.244z" fill="#fff"/><path d="M111.168 193.212c0-10.031-8.115-18.163-18.125-18.163s-18.125 8.132-18.125 18.163c0 10.032 8.115 18.163 18.125 18.163s18.125-8.131 18.125-18.163z" fill="#383647"/><path d="M101.31 203.641H87.189v-2.627l6.996-8.318c1.01-1.227 1.726-2.249 2.149-3.067.433-.828.65-1.656.65-2.485 0-1.09-.285-1.971-.852-2.641-.558-.671-1.313-1.007-2.264-1.007-1.135 0-2.015.378-2.64 1.132-.625.755-.938 1.788-.938 3.098h-3.505c0-1.394.288-2.647.865-3.758a6.325 6.325 0 012.496-2.611c1.087-.618 2.337-.927 3.75-.927 2.039 0 3.645.561 4.818 1.682 1.183 1.111 1.774 2.653 1.774 4.624 0 1.142-.298 2.343-.894 3.601-.587 1.247-1.553 2.668-2.9 4.261l-5.135 5.992h9.751v3.051z" fill="#fff"/><path d="M234.418 184.508c0-10.031-8.115-18.163-18.125-18.163s-18.125 8.132-18.125 18.163c0 10.032 8.115 18.163 18.125 18.163s18.125-8.131 18.125-18.163z" fill="#383647"/><path d="M213.239 182.768h2.225c1.123-.01 2.01-.31 2.662-.9.661-.589.992-1.443.992-2.56 0-1.075-.276-1.908-.827-2.498-.541-.6-1.373-.899-2.496-.899-.982 0-1.789.294-2.421.884-.632.579-.947 1.339-.947 2.281h-3.654c0-1.159.296-2.214.887-3.165.602-.952 1.434-1.692 2.496-2.219 1.073-.538 2.271-.807 3.594-.807 2.185 0 3.899.569 5.142 1.707 1.253 1.127 1.88 2.699 1.88 4.716 0 1.014-.316 1.971-.948 2.871a5.91 5.91 0 01-2.42 2.017c1.202.424 2.115 1.091 2.736 2.001.632.91.948 1.996.948 3.258 0 2.028-.677 3.641-2.03 4.841-1.344 1.2-3.113 1.8-5.308 1.8-2.105 0-3.829-.579-5.173-1.738-1.343-1.158-2.014-2.7-2.014-4.623h3.653c0 .993.321 1.799.963 2.42.651.621 1.523.931 2.616.931 1.133 0 2.025-.31 2.676-.931.652-.621.978-1.52.978-2.7 0-1.189-.341-2.105-1.023-2.746-.681-.641-1.694-.962-3.037-.962h-2.15v-2.979z" fill="#fff"/><path d="M343.832 172.903c0-10.031-8.115-18.163-18.125-18.163s-18.125 8.132-18.125 18.163 8.115 18.163 18.125 18.163 18.125-8.132 18.125-18.163z" fill="#383647"/><path d="M329.307 175.25h2.48v3.107h-2.48v5.166h-3.33v-5.166h-8.619l-.096-2.359 8.605-15.686h3.44v14.938zm-8.551 0h5.221v-9.694l-.247.51-4.974 9.184z" fill="#fff"/><path d="M430.168 165.166c0-10.031-8.115-18.163-18.125-18.163s-18.125 8.132-18.125 18.163 8.115 18.163 18.125 18.163 18.125-8.132 18.125-18.163z" fill="#383647"/><path d="M405.256 164.57l1.204-11.543h11.919v3.303h-8.84l-.61 5.472c1.027-.609 2.185-.911 3.475-.911 2.114 0 3.755.696 4.923 2.091 1.179 1.394 1.768 3.27 1.768 5.628 0 2.329-.65 4.185-1.951 5.567-1.3 1.375-3.083 2.061-5.349 2.061-2.032 0-3.719-.592-5.06-1.776-1.331-1.197-2.053-2.77-2.165-4.719h3.582c.142 1.112.528 1.967 1.159 2.564.629.587 1.452.882 2.469.882 1.137 0 2.021-.422 2.652-1.259.64-.84.96-1.982.96-3.429 0-1.394-.351-2.494-1.052-3.302-.701-.818-1.666-1.226-2.896-1.226-.671 0-1.239.094-1.707.282-.467.178-.975.535-1.524 1.07l-2.957-.755z" fill="#fff"/><path d="M529.25 159.363c0-10.031-8.115-18.163-18.125-18.163S493 149.332 493 159.363s8.115 18.163 18.125 18.163 18.125-8.132 18.125-18.163z" fill="#383647"/><path d="M514.821 147.286v3.146h-.453c-2.053.032-3.694.616-4.922 1.753-1.228 1.136-1.958 2.749-2.189 4.837 1.178-1.284 2.682-1.925 4.514-1.925 1.943 0 3.473.71 4.59 2.127 1.128 1.421 1.691 3.25 1.691 5.494 0 2.317-.659 4.194-1.977 5.634-1.309 1.43-3.03 2.145-5.164 2.145-2.195 0-3.976-.841-5.345-2.52-1.359-1.679-2.039-3.881-2.039-6.606v-1.299c0-3.994.936-7.125 2.809-9.389 1.882-2.263 4.585-3.397 8.108-3.397h.377zm-3.94 10.878a3.79 3.79 0 00-2.22.705 4.105 4.105 0 00-1.465 1.876v1.159c0 1.691.342 3.038 1.027 4.039.685.991 1.57 1.486 2.658 1.486 1.087 0 1.947-.424 2.581-1.267.634-.846.952-1.958.952-3.333 0-1.379-.323-2.5-.967-3.366-.644-.865-1.499-1.299-2.566-1.299z" fill="#fff"/><path d="M646.301 154.527c0-10.031-8.115-18.163-18.125-18.163s-18.125 8.132-18.125 18.163c0 10.032 8.115 18.163 18.125 18.163s18.125-8.131 18.125-18.163z" fill="#383647"/><path d="M635.611 145.186l-8.378 21.059h-3.671l8.364-20.102h-10.84v-3.109h14.525v2.152z" fill="#fff"/><path d="M738.293 154.527c0-10.031-8.115-18.163-18.125-18.163s-18.125 8.132-18.125 18.163c0 10.032 8.115 18.163 18.125 18.163s18.125-8.131 18.125-18.163z" fill="#383647"/><path d="M727.542 148.879c0 1.107-.279 2.095-.838 2.965-.558.858-1.319 1.535-2.283 2.031 1.157.55 2.045 1.298 2.664 2.252.629.95.944 2.026.944 3.226 0 1.985-.66 3.564-1.979 4.732-1.32 1.159-3.076 1.738-5.268 1.738-2.203 0-3.969-.584-5.299-1.753-1.319-1.17-1.979-2.742-1.979-4.717 0-1.21.314-2.295.944-3.258.629-.963 1.512-1.701 2.649-2.22-.954-.496-1.71-1.173-2.269-2.031-.548-.87-.822-1.858-.822-2.965 0-1.923.609-3.449 1.827-4.576 1.218-1.129 2.863-1.691 4.933-1.691 2.081 0 3.731.562 4.949 1.691 1.218 1.127 1.827 2.653 1.827 4.576zm-3.213 10.288c0-1.117-.33-2.016-.99-2.701-.649-.691-1.512-1.039-2.588-1.039s-1.938.343-2.588 1.025c-.64.682-.959 1.588-.959 2.715 0 1.107.314 1.99.944 2.652.639.663 1.517.995 2.634.995 1.116 0 1.984-.323 2.603-.963.63-.64.944-1.535.944-2.684zm-.472-10.148c0-.983-.279-1.79-.837-2.42-.558-.641-1.31-.961-2.254-.961s-1.69.303-2.238.914c-.548.602-.822 1.423-.822 2.467 0 1.036.274 1.857.822 2.468.558.609 1.31.914 2.254.914s1.69-.305 2.238-.914c.558-.611.837-1.432.837-2.468z" fill="#fff"/><path d="M872.891 152.593c0-10.031-8.115-18.163-18.125-18.163-10.011 0-18.125 8.132-18.125 18.163s8.114 18.163 18.125 18.163c10.01 0 18.125-8.132 18.125-18.163z" fill="#383647"/><path d="M857.853 154.571c-1.245 1.347-2.699 2.021-4.362 2.021-1.959 0-3.52-.698-4.684-2.097-1.163-1.412-1.744-3.26-1.744-5.547 0-1.503.296-2.865.887-4.086.592-1.222 1.434-2.172 2.526-2.853 1.092-.678 2.357-1.016 3.795-1.016 2.245 0 4.026.856 5.342 2.568 1.316 1.713 1.975 4.005 1.975 6.875v1.066c0 4.113-.909 7.251-2.725 9.413-1.816 2.161-4.525 3.257-8.127 3.289h-.444v-3.149h.536c2.194-.029 3.877-.567 5.051-1.613 1.173-1.054 1.831-2.677 1.974-4.871zm-3.582-.955c.745 0 1.444-.219 2.097-.659.653-.436 1.158-1.043 1.515-1.816v-1.487c0-1.681-.336-3.033-1.01-4.057-.673-1.024-1.545-1.535-2.617-1.535-1.071 0-1.928.454-2.571 1.362-.633.899-.949 2.036-.949 3.415 0 1.431.321 2.584.964 3.462.643.876 1.5 1.315 2.571 1.315z" fill="#fff"/><path d="M994.902 153.56c0-10.031-8.114-18.163-18.125-18.163-10.01 0-18.125 8.132-18.125 18.163 0 10.032 8.115 18.163 18.125 18.163 10.011 0 18.125-8.131 18.125-18.163z" fill="#383647"/><path d="M973.048 162.911h-3.234v-15.113l-4.771 1.576v-2.65l7.591-2.703h.414v18.89zm15.235-7.925c0 2.707-.526 4.75-1.577 6.129-1.042 1.371-2.633 2.055-4.771 2.055-2.103 0-3.689-.668-4.758-2.004-1.06-1.345-1.604-3.333-1.63-5.96v-3.259c0-2.707.521-4.736 1.563-6.091 1.052-1.352 2.651-2.028 4.798-2.028 2.13 0 3.715.66 4.758 1.977 1.051 1.32 1.59 3.294 1.617 5.922v3.259zm-3.248-3.518c0-1.766-.249-3.059-.748-3.878-.499-.827-1.292-1.241-2.379-1.241-1.06 0-1.84.391-2.339 1.176-.499.776-.762 1.992-.788 3.646v4.267c0 1.758.254 3.07.761 3.931.508.862 1.306 1.294 2.393 1.294 1.042 0 1.813-.398 2.312-1.19.499-.802.762-2.053.788-3.75v-4.255z" fill="#fff"/><path d="M1141.12 159.363c0-10.031-8.11-18.163-18.12-18.163-10.01 0-18.13 8.132-18.13 18.163s8.12 18.163 18.13 18.163 18.12-8.132 18.12-18.163z" fill="#383647"/><path d="M1119.2 168.576h-3.88V153.1l-5.73 1.615v-2.714l9.12-2.767h.49v19.342zm13.63 0h-3.88V153.1l-5.73 1.615v-2.714l9.11-2.767h.5v19.342z" fill="#fff"/><path d="M1265.07 165.166c0-10.031-8.11-18.163-18.12-18.163-10.01 0-18.13 8.132-18.13 18.163s8.12 18.163 18.13 18.163 18.12-8.132 18.12-18.163z" fill="#383647"/><path d="M1243.66 173.731h-3.18v-15.319l-4.69 1.598v-2.686l7.47-2.739h.4v19.146zm15.37 0h-12.86v-2.188l6.37-6.933c.92-1.022 1.58-1.875 1.96-2.556.39-.689.59-1.379.59-2.07 0-.909-.26-1.642-.77-2.201-.51-.56-1.2-.839-2.07-.839-1.03 0-1.83.314-2.4.944-.57.628-.85 1.489-.85 2.581h-3.2c0-1.163.27-2.205.79-3.132a5.544 5.544 0 012.27-2.176c.99-.514 2.13-.772 3.42-.772 1.86 0 3.32.466 4.39 1.401 1.08.927 1.61 2.212 1.61 3.853 0 .954-.27 1.953-.81 3.002-.53 1.038-1.41 2.223-2.64 3.551l-4.68 4.994h8.88v2.541z" fill="#fff"/><path d="M1370.62 171.936c0-10.031-8.12-18.163-18.13-18.163s-18.12 8.132-18.12 18.163 8.11 18.163 18.12 18.163c10.01 0 18.13-8.132 18.13-18.163z" fill="#383647"/><path d="M1347.95 181.386h-3.26v-15.113l-4.8 1.576v-2.65l7.65-2.703h.41v18.89zm6.36-10.848h1.99c1.01-.008 1.8-.259 2.38-.75.6-.49.89-1.201.89-2.132 0-.897-.25-1.591-.74-2.082-.48-.501-1.23-.75-2.23-.75-.88 0-1.61.245-2.17.736-.57.482-.85 1.116-.85 1.902h-3.27c0-.965.26-1.845.79-2.638.54-.794 1.29-1.409 2.24-1.849.96-.448 2.03-.672 3.22-.672 1.95 0 3.49.474 4.6 1.421 1.12.939 1.68 2.251 1.68 3.932 0 .845-.28 1.641-.84 2.391a5.224 5.224 0 01-2.17 1.68c1.07.355 1.89.911 2.45 1.669.56.76.85 1.664.85 2.715 0 1.69-.61 3.035-1.82 4.035-1.2 1-2.79 1.499-4.75 1.499-1.89 0-3.43-.483-4.64-1.448-1.2-.966-1.8-2.249-1.8-3.854h3.27c0 .829.29 1.501.86 2.019.59.517 1.37.776 2.35.776 1.01 0 1.81-.259 2.39-.776.59-.518.88-1.267.88-2.251 0-.99-.31-1.754-.92-2.288-.61-.535-1.51-.802-2.72-.802h-1.92v-2.483z" fill="#fff"/><path d="M1467.45 182.574c0-10.031-8.12-18.163-18.13-18.163s-18.12 8.132-18.12 18.163 8.11 18.163 18.12 18.163c10.01 0 18.13-8.132 18.13-18.163z" fill="#383647"/><path d="M1443.93 192.037h-3.14v-15.476l-4.63 1.614v-2.713l7.37-2.768h.4v19.343zm13.13-6.871h2.34v2.58h-2.34v4.291h-3.15v-4.291h-8.15l-.1-1.958 8.14-13.027h3.26v12.405zm-8.09 0h4.94v-8.05l-.24.423-4.7 7.627z" fill="#fff"/><path d="M1597.9 194.879c0-10.031-8.11-18.163-18.12-18.163-10.01 0-18.13 8.132-18.13 18.163 0 10.032 8.12 18.163 18.13 18.163s18.12-8.131 18.12-18.163z" fill="#383647"/><path d="M1574.9 204.158h-3.19v-15.267l-4.71 1.593v-2.677l7.49-2.73h.41v19.081zm3.37-9.429l1.04-9.586h10.31v2.742h-7.65l-.52 4.545c.89-.506 1.89-.757 3-.757 1.83 0 3.25.578 4.26 1.737 1.02 1.158 1.53 2.716 1.53 4.674 0 1.934-.56 3.475-1.69 4.623-1.12 1.142-2.66 1.712-4.62 1.712-1.76 0-3.22-.491-4.38-1.475-1.15-.994-1.78-2.3-1.87-3.919h3.09c.13.923.46 1.633 1.01 2.129.54.488 1.25.733 2.13.733.99 0 1.75-.35 2.3-1.046.55-.697.83-1.646.83-2.847 0-1.159-.31-2.072-.91-2.743-.61-.679-1.44-1.018-2.51-1.018-.58 0-1.07.078-1.47.234-.41.148-.85.445-1.32.889l-2.56-.627z" fill="#fff"/><path d="M1656.87 200.682c0-10.031-8.11-18.163-18.12-18.163-10.01 0-18.12 8.132-18.12 18.163s8.11 18.163 18.12 18.163c10.01 0 18.12-8.132 18.12-18.163z" fill="#383647"/><path d="M1634.71 209.605h-3.19v-15.246l-4.72 1.591v-2.673l7.51-2.727h.4v19.055zm12.51-19.082v2.622h-.4c-1.79.027-3.23.514-4.3 1.461-1.08.947-1.71 2.291-1.92 4.031 1.03-1.07 2.35-1.604 3.95-1.604 1.7 0 3.04.591 4.02 1.773.98 1.183 1.47 2.708 1.47 4.577 0 1.932-.57 3.495-1.73 4.695-1.14 1.192-2.64 1.788-4.51 1.788-1.92 0-3.48-.701-4.68-2.1-1.18-1.399-1.78-3.234-1.78-5.504v-1.083c0-3.329.82-5.938 2.46-7.824 1.64-1.886 4.01-2.832 7.09-2.832h.33zm-3.45 9.066c-.7 0-1.35.195-1.94.587-.58.391-1.01.912-1.28 1.564v.965c0 1.41.3 2.532.9 3.366.6.826 1.37 1.239 2.32 1.239.95 0 1.71-.353 2.26-1.056.56-.705.83-1.632.83-2.778 0-1.149-.28-2.084-.84-2.805-.57-.721-1.31-1.082-2.25-1.082z" fill="#fff"/><path d="M7.898 114.82H5.25v-1.863h2.11c.617 0 1.117-.094 1.5-.281a1.87 1.87 0 00.843-.821c.18-.351.27-.765.27-1.242 0-.39-.102-.75-.305-1.078-.195-.328-.5-.59-.914-.785-.414-.203-.941-.305-1.582-.305-.484 0-.926.086-1.324.258a2.289 2.289 0 00-.95.727c-.234.304-.351.675-.351 1.113H1.043c0-.75.16-1.422.48-2.016a4.624 4.624 0 011.336-1.523 6.25 6.25 0 011.97-.961 8.24 8.24 0 012.343-.328c.96 0 1.828.105 2.601.316.774.203 1.438.508 1.993.914.554.407.98.91 1.277 1.512.297.602.445 1.301.445 2.098 0 .586-.133 1.136-.398 1.652a4.155 4.155 0 01-1.137 1.359c-.492.391-1.082.7-1.77.926-.687.219-1.449.328-2.285.328zm-2.648-1.019h2.648c.93 0 1.754.097 2.473.293.727.195 1.34.48 1.84.855.508.375.89.84 1.148 1.395.266.547.399 1.176.399 1.886 0 .797-.164 1.504-.492 2.122a4.463 4.463 0 01-1.371 1.57c-.586.43-1.282.754-2.086.973-.797.218-1.676.328-2.637.328a9.458 9.458 0 01-2.285-.282 6.991 6.991 0 01-2.063-.89 4.552 4.552 0 01-1.476-1.535c-.368-.625-.551-1.375-.551-2.25h3.527c0 .414.121.793.364 1.136.242.336.578.606 1.007.809.43.195.922.293 1.477.293.648 0 1.2-.102 1.652-.305.461-.203.809-.48 1.043-.832.242-.359.363-.754.363-1.183 0-.461-.062-.852-.187-1.172a1.903 1.903 0 00-.55-.785 2.182 2.182 0 00-.903-.457 4.791 4.791 0 00-1.23-.141H5.25v-1.828zm18.047-4.946L18.657 123h-3.739l6.34-17.062h2.379l-.34 2.917zM27.152 123L22.5 108.855l-.375-2.917h2.402L30.902 123h-3.75zm-.21-6.352v2.754H17.93v-2.754h9.011zm9.07-10.71V123h-3.516v-17.062h3.516zm10.054 0l-6.539 10.019h-4.3l-.446-3.129h2.871l4.149-6.89h4.265zM42.446 123l-4.782-7.629 2.438-2.508L46.617 123h-4.172zm12.492-14.145L50.297 123h-3.738l6.34-17.062h2.378l-.34 2.917zM58.792 123l-4.652-14.145-.375-2.917h2.402L62.543 123h-3.75zm-.211-6.352v2.754H49.57v-2.754h9.012zM70.5 114.82h-2.648v-1.863h2.109c.617 0 1.117-.094 1.5-.281a1.87 1.87 0 00.844-.821c.18-.351.27-.765.27-1.242 0-.39-.102-.75-.306-1.078-.195-.328-.5-.59-.913-.785-.415-.203-.942-.305-1.583-.305a3.31 3.31 0 00-1.324.258 2.29 2.29 0 00-.949.727c-.234.304-.352.675-.352 1.113h-3.503c0-.75.16-1.422.48-2.016a4.623 4.623 0 011.336-1.523 6.252 6.252 0 011.969-.961 8.24 8.24 0 012.343-.328c.961 0 1.829.105 2.602.316.773.203 1.438.508 1.992.914.555.407.98.91 1.277 1.512.297.602.446 1.301.446 2.098 0 .586-.133 1.136-.399 1.652a4.155 4.155 0 01-1.136 1.359 5.66 5.66 0 01-1.77.926c-.687.219-1.45.328-2.285.328zm-2.648-1.019H70.5c.93 0 1.754.097 2.473.293.726.195 1.34.48 1.84.855.507.375.89.84 1.148 1.395.266.547.398 1.176.398 1.886 0 .797-.164 1.504-.492 2.122a4.464 4.464 0 01-1.37 1.57c-.587.43-1.282.754-2.087.973-.797.218-1.676.328-2.637.328a9.457 9.457 0 01-2.285-.282 6.991 6.991 0 01-2.062-.89 4.552 4.552 0 01-1.477-1.535c-.367-.625-.55-1.375-.55-2.25h3.527c0 .414.12.793.363 1.136.242.336.578.606 1.008.809.43.195.922.293 1.476.293.649 0 1.2-.102 1.653-.305.46-.203.808-.48 1.043-.832.242-.359.363-.754.363-1.183 0-.461-.063-.852-.188-1.172a1.903 1.903 0 00-.55-.785 2.182 2.182 0 00-.903-.457 4.791 4.791 0 00-1.23-.141h-2.11v-1.828zm11.214-7.863h3.528v5.238c0 .75.113 1.336.34 1.758a1.92 1.92 0 001.054.89c.477.164 1.067.246 1.77.246a18.96 18.96 0 002.063-.14c.382-.055.75-.114 1.1-.176a6.16 6.16 0 00.88-.234v2.742a7.461 7.461 0 01-.88.222 19.8 19.8 0 01-1.1.188 18.96 18.96 0 01-2.063.141c-1.36 0-2.54-.196-3.54-.586-1-.391-1.777-1-2.331-1.829-.547-.835-.82-1.91-.82-3.222v-5.238zm9.996 0h3.516V123h-3.516v-17.062zm9.95 11.531l6.855-11.531h3.516V123h-3.516v-11.531L99.012 123h-3.516v-17.062h3.516v11.531zm16.945-11.531V123h-3.516v-17.062h3.516zm10.055 0l-6.539 10.019h-4.301l-.445-3.129h2.871l4.148-6.89h4.266zM122.391 123l-4.782-7.629 2.438-2.508L126.563 123h-4.172zM5.262 295.938V313H1.758v-17.062h3.504zm4.898 0h2.977l4.383 12.527 4.382-12.527h2.977L18.715 313h-2.39l-6.165-17.062zm-1.605 0h2.965l.539 12.21V313H8.555v-17.062zm14.965 0h2.976V313h-3.515v-4.852l.538-12.21zm13.207 2.917L32.086 313h-3.738l6.34-17.062h2.378l-.34 2.917zM40.582 313l-4.652-14.145-.375-2.917h2.402L44.332 313h-3.75zm-.21-6.352v2.754h-9.013v-2.754h9.012zm5.542-10.71h6.363c1.305 0 2.426.195 3.364.585.945.391 1.672.969 2.18 1.735.507.765.761 1.707.761 2.824 0 .914-.156 1.699-.469 2.356a4.408 4.408 0 01-1.3 1.628 6.747 6.747 0 01-1.958 1.032l-1.113.586h-5.531l-.023-2.743H52.3c.617 0 1.129-.109 1.535-.328a2.15 2.15 0 00.914-.914c.21-.39.316-.844.316-1.359 0-.547-.101-1.02-.304-1.418a2.053 2.053 0 00-.926-.914c-.414-.211-.934-.317-1.559-.317H49.43V313h-3.516v-17.062zM55.454 313l-3.892-7.605 3.715-.024 3.938 7.465V313h-3.762zm9.573-17.062V313h-3.504v-17.062h3.504zm12.176 12.597a2.27 2.27 0 00-.14-.82 1.55 1.55 0 00-.493-.68c-.242-.211-.582-.418-1.02-.621a14.474 14.474 0 00-1.698-.633 21.626 21.626 0 01-2.204-.843 9.08 9.08 0 01-1.828-1.09 4.91 4.91 0 01-1.242-1.465c-.297-.555-.445-1.199-.445-1.934 0-.711.156-1.355.469-1.933a4.45 4.45 0 011.312-1.5c.563-.422 1.227-.746 1.992-.973a9.006 9.006 0 012.543-.34c1.258 0 2.356.227 3.293.68.938.453 1.664 1.074 2.18 1.863.523.789.785 1.692.785 2.707h-3.492c0-.5-.106-.937-.317-1.312a2.142 2.142 0 00-.937-.903c-.414-.218-.938-.328-1.57-.328-.61 0-1.118.094-1.524.281-.406.18-.71.426-.914.739a1.815 1.815 0 00-.305 1.031c0 .289.07.551.211.785.149.234.368.453.657.656.289.203.644.395 1.066.575.422.179.91.355 1.465.527.93.281 1.746.598 2.45.949.71.352 1.304.746 1.78 1.184a4.4 4.4 0 011.079 1.488c.242.555.363 1.184.363 1.887 0 .742-.145 1.406-.434 1.992a4.09 4.09 0 01-1.254 1.488c-.547.406-1.199.715-1.957.926-.758.211-1.605.316-2.543.316a9.636 9.636 0 01-2.496-.328 7.568 7.568 0 01-2.238-1.019 5.141 5.141 0 01-1.594-1.735c-.398-.703-.597-1.535-.597-2.496h3.527c0 .532.082.981.246 1.348.164.367.394.664.691.891.305.226.664.39 1.078.492.422.101.883.152 1.383.152.61 0 1.11-.086 1.5-.258.399-.172.692-.41.88-.715.195-.304.292-.648.292-1.031z" fill="#383647"/></g><defs><linearGradient id="paint0_linear_1192_10534" x1="59.5" y1="144.5" x2="181" y2="266.5" gradientUnits="userSpaceOnUse"><stop stop-color="#FF9F50"/><stop offset="1" stop-color="#FF4523"/></linearGradient><linearGradient id="paint1_linear_1192_10534" x1="148.918" y1="95.13" x2="287.918" y2="281.63" gradientUnits="userSpaceOnUse"><stop stop-color="#FF9F50"/><stop offset="1" stop-color="#FF4523"/></linearGradient><linearGradient id="paint2_linear_1192_10534" x1="416" y1="84" x2="584.5" y2="255" gradientUnits="userSpaceOnUse"><stop stop-color="#FF9F50"/><stop offset="1" stop-color="#FF4523"/></linearGradient><linearGradient id="paint3_linear_1192_10534" x1="1265" y1="96.5" x2="1422" y2="267" gradientUnits="userSpaceOnUse"><stop stop-color="#8CA9FF"/><stop offset="1" stop-color="#5E31F9"/></linearGradient><linearGradient id="paint4_linear_1192_10534" x1="322.5" y1="103.5" x2="432" y2="235.5" gradientUnits="userSpaceOnUse"><stop stop-color="#FF9F50"/><stop offset="1" stop-color="#FF4523"/></linearGradient><linearGradient id="paint5_linear_1192_10534" x1="763" y1="49" x2="945.5" y2="275" gradientUnits="userSpaceOnUse"><stop stop-color="#FF5FC1"/><stop offset="1" stop-color="#9467F4"/></linearGradient><linearGradient id="paint6_linear_1192_10534" x1="287" y1="143" x2="351" y2="216" gradientUnits="userSpaceOnUse"><stop stop-color="#FF9F50"/><stop offset="1" stop-color="#FF4523"/></linearGradient><linearGradient id="paint7_linear_1192_10534" x1="581.5" y1="116" x2="661" y2="198" gradientUnits="userSpaceOnUse"><stop stop-color="#6DF0CA"/><stop offset="1" stop-color="#48A5FF"/></linearGradient><linearGradient id="paint8_linear_1192_10534" x1="1199.5" y1="127.5" x2="1271.5" y2="215" gradientUnits="userSpaceOnUse"><stop stop-color="#8CA9FF"/><stop offset="1" stop-color="#5E31F9"/></linearGradient><linearGradient id="paint9_linear_1192_10534" x1="676" y1="95.5" x2="769.5" y2="230" gradientUnits="userSpaceOnUse"><stop stop-color="#6DF0CA"/><stop offset="1" stop-color="#48A5FF"/></linearGradient><linearGradient id="paint10_linear_1192_10534" x1="1384.5" y1="118" x2="1500.5" y2="240.5" gradientUnits="userSpaceOnUse"><stop stop-color="#8CA9FF"/><stop offset="1" stop-color="#5E31F9"/></linearGradient><linearGradient id="paint11_linear_1192_10534" x1="1599" y1="171.5" x2="1665.5" y2="240.5" gradientUnits="userSpaceOnUse"><stop stop-color="#FEDB60"/><stop offset="1" stop-color="#F69272"/></linearGradient><linearGradient id="paint12_linear_1192_10534" x1="1552.5" y1="167.5" x2="1597.5" y2="223" gradientUnits="userSpaceOnUse"><stop stop-color="#FEDB60"/><stop offset="1" stop-color="#F79272"/></linearGradient><linearGradient id="paint13_linear_1192_10534" x1="905.5" y1="72.5" x2="1032" y2="259" gradientUnits="userSpaceOnUse"><stop stop-color="#FF5FC1"/><stop offset="1" stop-color="#9467F4"/></linearGradient><linearGradient id="paint14_linear_1192_10534" x1="1028" y1="55.5" x2="1187.5" y2="256.5" gradientUnits="userSpaceOnUse"><stop stop-color="#8CA9FF"/><stop offset="1" stop-color="#5E31F9"/></linearGradient><clipPath id="clip0_1192_10534"><path fill="#fff" transform="matrix(0 -1 1 0 0 353)" d="M0 0h353v1682H0z"/></clipPath></defs></svg>