<svg width="54" height="54" fill="none" xmlns="http://www.w3.org/2000/svg"><g clip-path="url(#clip0_502_3848)" fill="#3B3B46"><path d="M52.313 6.75h-6.75a.844.844 0 100 1.688h5.906V33.75H43.03V.844A.843.843 0 0042.188 0H11.811a.844.844 0 00-.843.844V33.75H2.53V8.437h5.906a.844.844 0 100-1.687h-6.75a.844.844 0 00-.843.844v33.75a.844.844 0 00.844.843h19.406v3.376h-9.282a.844.844 0 00-.754.466l-3.375 6.75A.844.844 0 008.438 54h37.124a.843.843 0 00.755-1.221l-3.375-6.75a.843.843 0 00-.755-.467h-9.28v-3.374h19.406a.844.844 0 00.843-.844V7.594a.843.843 0 00-.843-.844zM12.656 1.687h28.688V33.75h-2.532V14.344a.844.844 0 00-.843-.844h-5.063a.844.844 0 00-.843.844V33.75h-1.688v-13.5a.844.844 0 00-.844-.844H24.47a.844.844 0 00-.844.844v13.5h-1.688v-8.438a.844.844 0 00-.843-.843H16.03a.844.844 0 00-.843.843v8.438h-2.532V1.687zM37.125 33.75H33.75V15.187h3.375V33.75zm-8.438 0h-3.375V21.094h3.375V33.75zm-8.437 0h-3.375v-7.594h3.375v7.594zm23.947 18.563H9.803l2.531-5.063h8.604a2.527 2.527 0 01-2.375 1.688.844.844 0 100 1.687h16.875a.844.844 0 100-1.688 2.527 2.527 0 01-2.376-1.687h8.604l2.531 5.063zM31.22 46.406a4.196 4.196 0 00.846 2.532h-10.13a4.2 4.2 0 00.846-2.532v-4.218h8.438v4.218zM51.47 40.5H2.53v-5.063h48.94V40.5z"/><path d="M28.688 37.125h-3.375a.844.844 0 100 1.688h3.375a.844.844 0 100-1.688zm-6.75-19.406a6.738 6.738 0 005.325-10.883l1.774-1.774h1.338a.844.844 0 000-1.687h-1.688a.844.844 0 00-.596.247L26.07 5.643a6.746 6.746 0 10-4.133 12.076zm2.778-9.529a.843.843 0 001.193 0l.15-.15a5.01 5.01 0 01.865 2.085h-1.731a3.37 3.37 0 00-2.412-2.411V5.982a5.029 5.029 0 012.085.865l-.15.15a.844.844 0 000 1.193zm-2.779 1.091a1.688 1.688 0 110 3.375 1.688 1.688 0 010-3.375zm-.843-3.299v1.732a3.368 3.368 0 104.099 4.098h1.731a5.06 5.06 0 11-5.83-5.83z"/><path d="M37.969 6.75h-6.75a.844.844 0 000 1.688h6.75a.844.844 0 000-1.688zm-5.063-1.687h5.063a.844.844 0 000-1.688h-5.063a.844.844 0 000 1.688zm5.063 5.062h-6.75a.844.844 0 000 1.688h6.75a.844.844 0 000-1.688z"/></g><defs><clipPath id="clip0_502_3848"><path fill="#fff" d="M0 0h54v54H0z"/></clipPath></defs></svg>