<svg width="54" height="54" fill="none" xmlns="http://www.w3.org/2000/svg"><path d="M7.28 12.949a.965.965 0 000 1.93h3.25a.965.965 0 000-1.93H7.28zm15.12.965a.965.965 0 00-.963-.965h-3.25a.965.965 0 000 1.93h3.25a.965.965 0 00.964-.965zm5.815-.965a.965.965 0 000 1.93h10.183a.965.965 0 000-1.93H28.215z" fill="#FF5C39"/><path fill-rule="evenodd" clip-rule="evenodd" d="M3.684 35.273h28.002a.964.964 0 010 1.93h-.964a3.694 3.694 0 000 7.38.964.964 0 010 1.93H15.843a.965.965 0 010-1.93 3.694 3.694 0 003.505-3.69c0-1.967-1.54-3.59-3.505-3.69H3.703A3.704 3.704 0 010 33.508v-22.44a3.713 3.713 0 013.703-3.705h39.16a3.713 3.713 0 013.703 3.705v7.187a.965.965 0 11-1.93 0v-7.187a1.784 1.784 0 00-1.773-1.776H3.703a1.774 1.774 0 00-1.774 1.776v22.44c0 .971.784 1.76 1.755 1.765zm16.2 9.31h6.75a5.79 5.79 0 010-7.38h-6.75a5.79 5.79 0 010 7.38z" fill="#FF5C39"/><path d="M18.437 21.4a.964.964 0 00-1.35-.126L14.291 23.6a.965.965 0 000 1.486l2.796 2.325a.965.965 0 00.618.222.964.964 0 00.732-.348.965.965 0 00-.115-1.311l-1.929-1.592 1.929-1.583a.965.965 0 00.115-1.398zm11.041-.126a.965.965 0 10-1.235 1.486l1.929 1.582-1.929 1.592a.965.965 0 00.617 1.698.965.965 0 00.618-.222l2.786-2.325a.965.965 0 00.348-.743.965.965 0 00-.348-.742l-2.786-2.326zm-7.685 7.516c.102.013.206.013.308 0a.964.964 0 00.965-.656l2.304-6.985a.965.965 0 10-1.822-.608l-2.334 7.024a.965.965 0 00.579 1.225z" fill="#FF5C39"/><path fill-rule="evenodd" clip-rule="evenodd" d="M51.251 28.452c.076.186.253.31.453.318A2.46 2.46 0 0154 31.211v.705a2.46 2.46 0 01-2.295 2.44.511.511 0 00-.453.319.502.502 0 00.097.55c.846.971.8 2.431-.106 3.347l-.492.492a2.448 2.448 0 01-3.356.106.53.53 0 00-.868.358 2.45 2.45 0 01-2.44 2.305h-.694a2.46 2.46 0 01-2.449-2.305.521.521 0 00-.868-.358 2.439 2.439 0 01-3.346-.106l-.492-.492a2.442 2.442 0 01-.106-3.347.521.521 0 00-.357-.869 2.46 2.46 0 01-2.304-2.44v-.705a2.46 2.46 0 012.304-2.44.52.52 0 00.357-.869 2.442 2.442 0 01.106-3.348l.492-.501a2.458 2.458 0 013.346-.106c.147.14.364.178.55.096a.511.511 0 00.318-.453 2.46 2.46 0 012.45-2.296h.694a2.45 2.45 0 012.44 2.296.501.501 0 00.327.453.5.5 0 00.54-.087 2.448 2.448 0 013.356.106l.492.483a2.47 2.47 0 01.106 3.357.502.502 0 00-.097.55zm.329 3.975a.511.511 0 00.491-.511l-.01-.705a.511.511 0 00-.491-.511 2.46 2.46 0 01-1.688-4.071.521.521 0 000-.714l-.491-.492a.52.52 0 00-.714 0 2.448 2.448 0 01-4.06-1.689.53.53 0 00-.52-.492h-.695a.52.52 0 00-.52.492 2.45 2.45 0 01-4.07 1.689.52.52 0 00-.713 0l-.492.492a.521.521 0 000 .714 2.46 2.46 0 01-1.716 4.07.52.52 0 00-.492.512v.705a.52.52 0 00.492.51 2.459 2.459 0 011.687 4.072.521.521 0 000 .714l.492.492a.52.52 0 00.713 0 2.439 2.439 0 011.62-.608c.33-.003.659.06.965.184a2.45 2.45 0 011.504 2.112.53.53 0 00.52.492h.724a.53.53 0 00.52-.492 2.45 2.45 0 014.06-1.688.52.52 0 00.714 0l.492-.492a.53.53 0 000-.714 2.451 2.451 0 011.678-4.071z" fill="#FF5C39"/><path fill-rule="evenodd" clip-rule="evenodd" d="M39.83 29.946a4.224 4.224 0 018.124 1.612 4.222 4.222 0 01-7.21 2.998 4.227 4.227 0 01-.914-4.61zm1.783 2.498a2.295 2.295 0 002.127 1.41 2.305 2.305 0 002.285-2.296 2.296 2.296 0 10-4.412.886z" fill="#FF5C39"/></svg>