<svg width="54" height="54" fill="none" xmlns="http://www.w3.org/2000/svg"><path fill-rule="evenodd" clip-rule="evenodd" d="M35.256 0h12.432A6.325 6.325 0 0154 6.318v8.584a6.325 6.325 0 01-6.312 6.318H35.256a6.325 6.325 0 01-6.313-6.318V6.318A6.325 6.325 0 0135.256 0zm0 19.29h12.432a4.387 4.387 0 004.385-4.388V6.317a4.387 4.387 0 00-4.385-4.388H35.256a4.387 4.387 0 00-4.385 4.388v8.585a4.39 4.39 0 004.385 4.388z" fill="#3B3B46"/><path fill-rule="evenodd" clip-rule="evenodd" d="M37.974 5.788l7.864 3.954c.318.16.521.483.53.84a.965.965 0 01-.53.858l-7.864 3.935a1.021 1.021 0 01-.434.106.964.964 0 01-.964-.964v-7.87a.965.965 0 011.398-.86zm.529 2.45v4.745l4.742-2.373-4.742-2.373z" fill="#3B3B46"/><path d="M46.917 37.212a4.745 4.745 0 00-2.89 4.312H43.4a.964.964 0 000 1.929h.674v3.858a.964.964 0 101.928 0v-3.858h.713a.964.964 0 000-1.93h-.713a2.826 2.826 0 011.715-2.536.965.965 0 00-.751-1.775h-.049z" fill="#3B3B46"/><path fill-rule="evenodd" clip-rule="evenodd" d="M41.915 34.04h6.824A5.274 5.274 0 0154 39.306v6.829a5.274 5.274 0 01-5.26 5.265h-6.824a5.274 5.274 0 01-5.262-5.266v-6.83a5.274 5.274 0 015.262-5.265zm6.823 15.432a3.336 3.336 0 003.335-3.337v-6.83a3.339 3.339 0 00-3.335-3.337h-6.823a3.333 3.333 0 00-3.334 3.338v6.829a3.336 3.336 0 003.334 3.337h6.823zM13.051 24.828H6.305a5.312 5.312 0 01-5.31-5.305V12.77a5.312 5.312 0 015.31-5.305h6.746c2.928 0 5.3 2.375 5.3 5.305v6.752a5.303 5.303 0 01-5.3 5.305zM6.305 9.404a3.384 3.384 0 00-3.383 3.376v6.752a3.384 3.384 0 003.383 3.375h6.746a3.374 3.374 0 003.373-3.375V12.78a3.375 3.375 0 00-3.373-3.376H6.305z" fill="#3B3B46"/><path fill-rule="evenodd" clip-rule="evenodd" d="M13.524 16.147a3.857 3.857 0 01-3.855 3.858 3.857 3.857 0 01-3.855-3.858 3.856 3.856 0 013.855-3.858 3.856 3.856 0 013.855 3.858zm-1.928 0a1.928 1.928 0 10-3.856-.002 1.928 1.928 0 003.856.002z" fill="#3B3B46"/><circle cx="13.919" cy="11.893" fill="#3B3B46" r=".964"/><path d="M33.145 31.955a.963.963 0 00-1.224-.463l-4.414 2.006a.965.965 0 00.761 1.698l4.414-2.006a.965.965 0 00.463-1.235zm-6.428-4.465l-1.205 3.212c-.16.478.075 1 .54 1.196a.963.963 0 001.205-.54l1.204-3.212a.965.965 0 00-1.744-.656zm6.206 10.503l-3.19-1.196a.964.964 0 00-1.194.54.964.964 0 00.54 1.205l3.19 1.196a.963.963 0 00.703 0 .906.906 0 00.491-.52.964.964 0 00-.54-1.225z" fill="#3B3B46"/><path fill-rule="evenodd" clip-rule="evenodd" d="M25.503 38.967a3.3 3.3 0 00.886-3.926 3.334 3.334 0 00-3.527-1.929l-2.178-4.823a.964.964 0 00-1.58-.192l-1.928 2.401a19.587 19.587 0 01-7.218 5.614l-6.554 2.97a5.785 5.785 0 00-2.89 7.66 5.707 5.707 0 003.228 3.018 5.778 5.778 0 004.413-.145l1.552-.704 3.951 4.254a2.581 2.581 0 002.959.608l2.226-1.013a.964.964 0 00.27-1.514l-4.626-4.495.28-.126a19.636 19.636 0 018.827-1.697l3.142.154c.146 0 .29-.03.424-.087a.906.906 0 00.386-.328.965.965 0 00.077-.906l-2.12-4.794zm-.81-3.154a1.45 1.45 0 010 1.138l-.067.145-.964-2.112c.454.1.836.407 1.032.83zM4.434 48.07a3.852 3.852 0 003-.133l.934-.405a7.017 7.017 0 01-3.141-2.498 7.509 7.509 0 01-1.244-4.09 3.908 3.908 0 00-1.734 5.064 3.856 3.856 0 002.184 2.062zm12.463 3.571l-.963.444a.742.742 0 01-.848-.164l-3.518-3.8 1.185-.54 4.144 4.06zm-2.728-6.752a21.09 21.09 0 019.57-1.804l1.62.067-1.87-4.138-2.005-4.417-1.87-4.138-.963 1.215a21.542 21.542 0 01-7.903 6.154l-4.876 2.209a6.09 6.09 0 00.906 3.945 6.176 6.176 0 004.182 2.363l1.6-.733 1.494-.675.115-.048z" fill="#3B3B46"/><path d="M45.703 31.165a.686.686 0 00.192 0 .965.965 0 00.964-.772c.274-1.343.413-2.71.414-4.08a21.752 21.752 0 00-.154-2.498.97.97 0 10-1.927.231 18.198 18.198 0 01-.231 5.96.966.966 0 00.742 1.159zM20.549 9.123c.112 0 .223-.02.328-.057a18.3 18.3 0 014-.965 17.565 17.565 0 012.139-.125.964.964 0 000-1.929 21.66 21.66 0 00-2.362.135 19.82 19.82 0 00-4.423 1.032.964.964 0 00.318 1.87v.04zM7.741 26.795a.963.963 0 00-.896 1.032 20.27 20.27 0 001.233 5.623.964.964 0 00.906.627.964.964 0 00.906-1.302 17.983 17.983 0 01-1.118-5.083.965.965 0 00-1.03-.897z" fill="#3B3B46"/></svg>