<svg width="96" height="96" fill="none" xmlns="http://www.w3.org/2000/svg"><path d="M47.57 22.885H18.335a1.443 1.443 0 01-1.443-1.443v-7.021a4.032 4.032 0 014.028-4.028h4.247a1.443 1.443 0 010 2.886H20.92c-.63 0-1.142.512-1.142 1.142v5.578h26.35v-5.578c0-.63-.513-1.142-1.142-1.142h-4.248a1.443 1.443 0 110-2.886h4.248a4.032 4.032 0 014.027 4.028v7.021c0 .797-.646 1.443-1.443 1.443z" fill="#FF5C39"/><path d="M62.462 90.103H3.443A1.443 1.443 0 012 88.66V16.548c0-.797.646-1.443 1.443-1.443h14.892a1.443 1.443 0 010 2.886H4.886v69.226H61.02v-9.24a1.443 1.443 0 112.887 0V88.66c0 .797-.647 1.443-1.444 1.443zm.001-60.34a1.443 1.443 0 01-1.443-1.443V17.99H47.57a1.443 1.443 0 110-2.886h14.893c.797 0 1.443.646 1.443 1.443V28.32c0 .797-.646 1.443-1.443 1.443zm-21.725-13.4h-15.57a1.443 1.443 0 01-1.443-1.443V8.646A2.649 2.649 0 0126.37 6h13.166a2.649 2.649 0 012.645 2.646v6.274c0 .797-.646 1.443-1.443 1.443zm-14.127-2.886h12.684v-4.59H26.611v4.59z" fill="#FF5C39"/><path d="M43.021 36.8H25.372a1.443 1.443 0 110-2.886h17.65a1.443 1.443 0 010 2.886zM13.63 38.105c-.369 0-.738-.141-1.02-.423l-2.252-2.253a1.443 1.443 0 112.04-2.04l1.233 1.232 4.198-4.198a1.443 1.443 0 012.04 2.04l-5.218 5.22a1.439 1.439 0 01-1.02.422zm22.203 12.69h-10.46a1.443 1.443 0 010-2.886h10.46a1.443 1.443 0 110 2.886zM13.63 52.1c-.382 0-.75-.152-1.02-.423l-2.253-2.253a1.443 1.443 0 012.041-2.04l1.233 1.232 4.198-4.198a1.443 1.443 0 012.04 2.041l-5.218 5.218c-.27.271-.638.423-1.02.423zm24.094 12.69H25.372a1.443 1.443 0 010-2.886h12.352a1.443 1.443 0 110 2.886zM13.63 66.095c-.369 0-.738-.141-1.02-.423l-2.253-2.253a1.443 1.443 0 112.041-2.04l1.233 1.232 4.198-4.198a1.443 1.443 0 112.04 2.04l-5.218 5.22a1.438 1.438 0 01-1.02.422zm28.35 12.69H25.372a1.443 1.443 0 010-2.886H41.98a1.443 1.443 0 110 2.886zM13.63 80.09c-.382 0-.75-.153-1.02-.423l-2.253-2.254a1.443 1.443 0 012.041-2.04l1.233 1.233 4.198-4.198a1.443 1.443 0 112.04 2.04l-5.218 5.219c-.27.27-.638.422-1.02.422z" fill="#FF5C39"/><path d="M60.455 79.5c-3.557 0-7.008-.697-10.258-2.072a26.261 26.261 0 01-8.376-5.647 26.261 26.261 0 01-7.718-18.633 26.263 26.263 0 017.718-18.634 26.262 26.262 0 0118.634-7.718 26.262 26.262 0 0118.634 7.718 26.262 26.262 0 017.717 18.634 26.26 26.26 0 01-7.718 18.634 26.26 26.26 0 01-8.376 5.646A26.188 26.188 0 0160.454 79.5zm0-49.818c-12.94 0-23.466 10.527-23.466 23.466 0 12.939 10.526 23.466 23.466 23.466 12.939 0 23.465-10.527 23.465-23.466 0-12.94-10.526-23.466-23.465-23.466z" fill="#FF5C39"/><path d="M60.454 71.13a17.865 17.865 0 01-12.715-5.267 17.864 17.864 0 01-5.266-12.715c0-4.804 1.87-9.32 5.266-12.716a17.864 17.864 0 0112.715-5.266c4.804 0 9.32 1.87 12.715 5.267a17.864 17.864 0 015.267 12.715c0 4.803-1.87 9.319-5.267 12.715a17.864 17.864 0 01-12.715 5.266zm0-33.078c-4.032 0-7.823 1.57-10.674 4.421a14.997 14.997 0 00-4.421 10.675c0 4.032 1.57 7.823 4.421 10.674a14.997 14.997 0 0010.674 4.421c4.033 0 7.824-1.57 10.675-4.421a14.996 14.996 0 004.42-10.674 15 15 0 00-4.42-10.675 14.996 14.996 0 00-10.675-4.42z" fill="#FF5C39"/><path d="M60.455 62.76a9.573 9.573 0 01-3.682-.723 9.566 9.566 0 01-3.115-2.092 9.57 9.57 0 01-2.092-3.115 9.573 9.573 0 01-.723-3.682 9.57 9.57 0 01.723-3.682 9.567 9.567 0 012.092-3.115 9.568 9.568 0 013.115-2.092 9.572 9.572 0 013.682-.723c1.284 0 2.523.243 3.681.723a9.568 9.568 0 013.115 2.092 9.568 9.568 0 012.093 3.115 9.571 9.571 0 01.723 3.682 9.572 9.572 0 01-.724 3.682 9.566 9.566 0 01-2.092 3.115 9.567 9.567 0 01-3.115 2.092 9.57 9.57 0 01-3.681.723zm0-16.338a6.7 6.7 0 00-2.578.504 6.695 6.695 0 00-2.178 1.466 6.697 6.697 0 00-1.467 2.178 6.7 6.7 0 00-.503 2.578c0 .903.17 1.77.503 2.577.334.807.828 1.54 1.467 2.179a6.693 6.693 0 002.178 1.466 6.7 6.7 0 002.578.504 6.7 6.7 0 002.577-.504 6.692 6.692 0 002.178-1.466 6.694 6.694 0 001.467-2.179 6.7 6.7 0 00.503-2.577 6.7 6.7 0 00-.503-2.578 6.696 6.696 0 00-1.466-2.178 6.697 6.697 0 00-2.179-1.466 6.7 6.7 0 00-2.577-.504z" fill="#FF5C39"/><path d="M60.455 54.59a1.443 1.443 0 01-1.02-2.463l23.464-23.464a1.443 1.443 0 012.041 2.04L61.475 54.169a1.439 1.439 0 01-1.02.423z" fill="#FF5C39"/><path d="M83.92 31.126a1.443 1.443 0 01-1.44-1.528l.263-4.471c.02-.353.17-.686.42-.936l4.52-4.52a1.443 1.443 0 012.462 1.105l-.168 2.85 2.85-.168a1.443 1.443 0 011.105 2.461l-4.52 4.521c-.25.25-.584.4-.936.42l-4.471.264a1.42 1.42 0 01-.085.002zm4.47-1.706h.001zm-2.799-3.576l-.135 2.303 2.302-.135 1.45-1.45-.682.04A1.44 1.44 0 0187 25.078l.04-.682-1.449 1.449z" fill="#FF5C39"/></svg>