<svg width="96" height="96" fill="none" xmlns="http://www.w3.org/2000/svg"><path d="M66.623 84H30.377C29.067 84 28 82.614 28 80.91V20.09c0-1.703 1.067-3.09 2.378-3.09h6.356c.788 0 1.427.83 1.427 1.855s-.639 1.856-1.427 1.856h-5.88v59.578h35.291V20.711h-5.88c-.787 0-1.426-.83-1.426-1.856 0-1.024.639-1.855 1.427-1.855h6.357C67.933 17 69 18.387 69 20.09v60.82c0 1.704-1.067 3.09-2.377 3.09zm0-63.29z" fill="#FF5C39"/><path d="M60.54 23H36.46c-.806 0-1.46-.808-1.46-1.806V10.438C35 7.99 36.61 6 38.589 6h3.499c.806 0 1.46.808 1.46 1.806 0 .997-.654 1.805-1.46 1.805h-3.499c-.368 0-.668.371-.668.826v8.952h21.158v-8.951c0-.456-.3-.827-.668-.827h-3.499c-.806 0-1.46-.808-1.46-1.805 0-.998.654-1.806 1.46-1.806h3.5C60.39 6 62 7.99 62 10.438v10.756c0 .998-.654 1.806-1.46 1.806z" fill="#FF5C39"/><path d="M70.75 89.716h-44.5c-1.867 0-3.387-1.931-3.387-4.305V15.214c0-2.374 1.52-4.306 3.388-4.306h10.27c.802 0 1.453.827 1.453 1.847s-.65 1.847-1.453 1.847H26.25c-.266 0-.482.275-.482.612v70.197c0 .337.216.611.482.611h44.498c.266 0 .481-.274.481-.611V15.213c0-.337-.216-.611-.48-.611H60.48c-.803 0-1.454-.827-1.454-1.847s.65-1.847 1.453-1.847h10.27c1.868 0 3.388 1.931 3.388 4.305v70.198c0 2.374-1.52 4.305-3.388 4.305zM93.547 54.18h-15.16a1.453 1.453 0 110-2.907h15.16a1.453 1.453 0 010 2.906z" fill="#FF5C39"/><path d="M89.614 57.395a1.453 1.453 0 01-.917-2.581l2.544-2.065-2.6-2.11a1.453 1.453 0 111.83-2.257l3.991 3.239a1.453 1.453 0 010 2.256L90.53 57.07c-.27.219-.593.325-.915.325zm-9.006-12.823a1.453 1.453 0 01-1.028-2.48l10.72-10.72a1.453 1.453 0 112.055 2.056l-10.72 10.719a1.449 1.449 0 01-1.027.425z" fill="#FF5C39"/><path d="M90.82 38.908a1.453 1.453 0 01-1.447-1.604l.34-3.257-3.332.346a1.453 1.453 0 01-.3-2.89l5.112-.532a1.453 1.453 0 011.596 1.596l-.525 5.039a1.453 1.453 0 01-1.443 1.302zm.506 35.581c-.371 0-.743-.142-1.027-.426L79.58 63.343a1.453 1.453 0 112.055-2.054l10.719 10.719a1.453 1.453 0 01-1.028 2.48z" fill="#FF5C39"/><path d="M91.31 74.506c-.05 0-.1-.003-.15-.008l-5.039-.524a1.453 1.453 0 01.301-2.891l3.258.339-.347-3.332a1.453 1.453 0 012.891-.3l.532 5.112a1.453 1.453 0 01-1.445 1.604zm-72.698-20.35H3.453a1.453 1.453 0 010-2.906h15.16a1.453 1.453 0 110 2.906z" fill="#FF5C39"/><path d="M7.443 57.372c-.322 0-.646-.106-.915-.325l-3.99-3.238a1.453 1.453 0 010-2.257l3.932-3.193a1.453 1.453 0 111.832 2.257L5.76 52.68l2.6 2.11a1.453 1.453 0 01-.916 2.582zm-1.77 17.11a1.453 1.453 0 01-1.028-2.48l10.72-10.72a1.453 1.453 0 112.054 2.055L6.701 74.057a1.449 1.449 0 01-1.028.425z" fill="#FF5C39"/><path d="M5.656 74.466a1.453 1.453 0 01-1.445-1.604l.525-5.038a1.453 1.453 0 012.89.3l-.339 3.258 3.332-.347a1.453 1.453 0 11.3 2.89l-5.112.533c-.05.005-.1.008-.15.008zm10.736-29.9a1.45 1.45 0 01-1.028-.426L4.646 33.422A1.453 1.453 0 016.7 31.367l10.72 10.718a1.453 1.453 0 01-1.028 2.481z" fill="#FF5C39"/><path d="M6.22 38.943a1.453 1.453 0 01-1.444-1.303l-.532-5.113a1.453 1.453 0 011.596-1.595l5.039.524a1.453 1.453 0 11-.301 2.89l-3.258-.338.347 3.331a1.453 1.453 0 01-1.447 1.604zm48.66-9.658H42.12a1.454 1.454 0 01-1.454-1.454v-5.883a2.667 2.667 0 012.664-2.665h10.34a2.667 2.667 0 012.664 2.665v5.883c0 .803-.65 1.454-1.453 1.454zm-11.307-2.907h9.854V22.19h-9.854v4.188zm18.499 16.135H44.298a1.453 1.453 0 010-2.906h17.774a1.453 1.453 0 010 2.906zm-25.636.873c-.372 0-.744-.142-1.028-.425L33.9 41.45a1.453 1.453 0 112.055-2.054l.48.481 2.468-2.467a1.453 1.453 0 112.055 2.056l-3.495 3.494a1.448 1.448 0 01-1.027.425zm25.636 8.499H44.298a1.453 1.453 0 010-2.906h17.774a1.453 1.453 0 110 2.906zm-25.636.874c-.386 0-.755-.153-1.028-.426L33.9 50.825a1.453 1.453 0 112.055-2.056l.48.482 2.468-2.468a1.453 1.453 0 012.055 2.056l-3.495 3.494a1.452 1.452 0 01-1.027.426zm25.636 8.497H44.298a1.453 1.453 0 110-2.906h17.774a1.453 1.453 0 010 2.906zm-25.636.874c-.372 0-.744-.142-1.028-.425l-1.508-1.51a1.453 1.453 0 112.055-2.054l.48.481 2.468-2.467a1.453 1.453 0 112.055 2.055l-3.495 3.495a1.448 1.448 0 01-1.027.425zm25.636 8.498H44.298a1.453 1.453 0 010-2.906h17.774a1.453 1.453 0 110 2.906zm-25.636.874c-.372 0-.744-.142-1.028-.425l-1.508-1.51a1.453 1.453 0 012.055-2.054l.48.48 2.468-2.466a1.453 1.453 0 012.055 2.055l-3.495 3.495a1.448 1.448 0 01-1.027.425z" fill="#FF5C39"/></svg>