<svg width="96" height="96" fill="none" xmlns="http://www.w3.org/2000/svg"><path d="M68.26 92H27.746c-.82 0-1.589-.321-2.165-.905a3.024 3.024 0 01-.88-2.176c.046-3.899.325-11.168 1.69-16.042.423-1.504.935-2.733 1.614-3.869.575-.961 2.232-3.375 5.191-5.04a13.198 13.198 0 017.08-1.693c.286.013.562.11.793.279l6.755 4.927 7.143-4.948c.225-.156.49-.245.764-.258a13.196 13.196 0 017.08 1.692c2.967 1.67 4.619 4.082 5.192 5.042.678 1.135 1.19 2.364 1.612 3.868 1.366 4.874 1.645 12.143 1.69 16.042.01.82-.302 1.593-.879 2.176A3.023 3.023 0 0168.26 92zm-20.31-2.918h20.31a.123.123 0 00.09-.038c.038-.038.037-.078.037-.09-.043-3.757-.306-10.737-1.582-15.29-.355-1.264-.758-2.239-1.308-3.159a11.502 11.502 0 00-4.118-3.995 10.284 10.284 0 00-5.057-1.33h-.052l-7.637 5.29a1.46 1.46 0 01-1.69-.02l-7.225-5.27h-.034c-1.322 0-3.152.259-5.056 1.33-2.35 1.323-3.663 3.235-4.119 3.996-.55.92-.953 1.894-1.307 3.159-1.276 4.552-1.539 11.532-1.582 15.288 0 .035.012.066.036.091a.12.12 0 00.09.038H47.95z" fill="#FF5C39"/><path d="M35.361 92a1.46 1.46 0 01-1.459-1.46V78.273a1.46 1.46 0 012.918 0V90.54A1.46 1.46 0 0135.361 92zm25.285 0a1.46 1.46 0 01-1.46-1.46V78.273a1.46 1.46 0 012.92 0V90.54a1.46 1.46 0 01-1.46 1.46zM48.064 62.81c-3.104 0-6.013-1.33-8.193-3.742-2.142-2.371-3.321-5.514-3.321-8.85v-4.703c0-.622.395-1.176.982-1.379.555-.194 2.195-.915 3.082-1.898a1.44 1.44 0 011.984-.17c.078.058 1.27.926 3.316 1.364 2.827.605 5.878.15 9.069-1.353a1.458 1.458 0 011.68.314c.444.463 1.412 1.38 2.222 1.88.43.266.693.736.693 1.242v4.703c0 3.336-1.18 6.479-3.321 8.85-2.18 2.413-5.09 3.741-8.193 3.741zm-8.596-16.318v3.727c0 5.333 3.856 9.672 8.596 9.672s8.596-4.34 8.596-9.672v-3.935a16.522 16.522 0 01-1.368-1.15c-4.373 1.822-7.919 1.627-10.18 1.11a12.901 12.901 0 01-3.243-1.201c-.828.66-1.732 1.141-2.4 1.449z" fill="#FF5C39"/><path d="M38.01 46.975a1.46 1.46 0 01-1.34-.88c-.557-1.29-.642-2.657-.717-3.863-.062-.984-.139-2.209.15-3.414.252-1.057.87-2.177 1.89-3.424.16-.194.325-.383.493-.564 2.74-2.93 7.236-4.08 8.11-4.282 1.712-.393 3.351-.533 4.872-.416 1.072.083 1.98.232 2.777.456 1.12.314 2 .922 2.542 1.76.27.417.431.836.574 1.206.118.305.23.593.357.744.193.228.456.436.761.676.349.276.745.588 1.107.997.866.978 1.845 2.613 1.995 4.271.14 1.55-.465 2.886-1.008 3.877l-.09.175c-.924 1.783-1.13 2.069-1.378 2.296a1.46 1.46 0 01-2.087-2.033c.08-.123.297-.494.873-1.606.062-.119.106-.203.123-.233.511-.934.715-1.616.661-2.212-.07-.762-.593-1.832-1.273-2.6-.19-.214-.453-.421-.73-.64-.375-.296-.8-.631-1.182-1.084-.445-.526-.67-1.108-.85-1.577-.102-.26-.197-.508-.304-.672-.188-.292-.581-.452-.878-.535-.612-.172-1.336-.288-2.215-.356-1.226-.094-2.57.023-3.994.35-2.012.463-4.956 1.639-6.629 3.429-.125.135-.25.278-.37.423-.9 1.1-1.209 1.832-1.309 2.252-.187.78-.128 1.723-.075 2.554.063 1.016.128 2.065.483 2.886a1.46 1.46 0 01-1.338 2.039zm19.125-2.538l-.002.002.002-.002zM42.016 66.51a1.46 1.46 0 01-1.32-2.079c.278-.592.75-1.78.782-3.063.013-.494-.047-.712-.157-1.108a19.728 19.728 0 01-.079-.288 1.46 1.46 0 012.824-.738c.022.086.045.168.067.246.134.485.286 1.034.262 1.963-.046 1.815-.682 3.427-1.057 4.227a1.46 1.46 0 01-1.322.84zm11.868.009c-.53 0-1.04-.29-1.3-.793-.762-1.486-1.185-3.04-1.223-4.496a5.696 5.696 0 01.177-1.64 1.46 1.46 0 112.828.717 2.785 2.785 0 00-.087.85c.033 1.287.509 2.47.902 3.236a1.46 1.46 0 01-1.297 2.126zM92.27 86.538H69.736a1.46 1.46 0 010-2.919h22.35c-.04-3.053-.263-8.507-1.263-12.077-.28-.994-.595-1.76-1.026-2.48a8.99 8.99 0 00-3.217-3.12 8 8 0 00-3.894-1.038L76.6 69.122a1.46 1.46 0 01-1.69-.02l-5.755-4.197a8.001 8.001 0 00-3.876 1.037 8.654 8.654 0 00-1.36.952 1.459 1.459 0 11-1.893-2.222c.57-.485 1.183-.914 1.822-1.273a10.91 10.91 0 015.864-1.401c.285.013.56.11.791.278l5.288 3.856 5.596-3.877c.225-.156.49-.245.763-.258a10.906 10.906 0 015.863 1.401c2.45 1.379 3.818 3.374 4.292 4.168.56.938.983 1.952 1.33 3.188 1.11 3.964 1.337 9.855 1.374 13.014a2.72 2.72 0 01-.792 1.957 2.72 2.72 0 01-1.947.813z" fill="#FF5C39"/><path d="M86.127 86.538a1.46 1.46 0 01-1.459-1.46v-9.895a1.46 1.46 0 012.918 0v9.896a1.46 1.46 0 01-1.459 1.459zM75.978 62.991c-2.584 0-5.005-1.104-6.817-3.11-1.775-1.965-2.752-4.567-2.752-7.328V48.76c0-.622.394-1.176.982-1.38.427-.15 1.694-.706 2.369-1.453.52-.577 1.38-.66 1.982-.172.076.056 1.006.721 2.592 1.055 2.21.465 4.6.102 7.105-1.078a1.46 1.46 0 011.682.317c.253.267 1.061 1.053 1.734 1.469.43.266.693.736.693 1.242v3.794c0 2.76-.977 5.362-2.752 7.326-1.812 2.006-4.233 3.111-6.818 3.111zm-6.651-13.265v2.828c0 4.146 2.984 7.52 6.651 7.52 3.668 0 6.652-3.374 6.652-7.52V49.52a13.535 13.535 0 01-.881-.739c-2.075.843-3.93 1.144-5.52 1.144-2.379 0-4.165-.673-5.217-1.215a9.97 9.97 0 01-1.685 1.015z" fill="#FF5C39"/><path d="M67.868 50.219a1.46 1.46 0 01-1.34-.88c-.469-1.085-.542-2.264-.601-3.21-.05-.813-.114-1.825.128-2.837.214-.897.731-1.838 1.581-2.876.13-.158.268-.316.411-.47 2.208-2.362 5.674-3.302 6.683-3.534 1.41-.324 2.76-.439 4.015-.342.88.068 1.63.19 2.294.377.971.272 1.736.804 2.212 1.538.233.362.375.73.49 1.026.078.203.167.433.239.518.137.162.339.322.573.506.29.23.62.49.93.84.728.822 1.552 2.201 1.679 3.606.12 1.323-.39 2.452-.846 3.287l-.073.14c-.734 1.416-.918 1.697-1.17 1.928a1.46 1.46 0 01-2.1-2.018c.067-.107.24-.407.679-1.252l.104-.2c.383-.7.538-1.2.5-1.621-.05-.552-.453-1.366-.958-1.936-.137-.154-.33-.306-.553-.483-.312-.246-.667-.526-.994-.913-.389-.46-.58-.954-.733-1.351-.076-.197-.147-.383-.218-.491-.08-.124-.28-.239-.548-.314-.478-.134-1.044-.224-1.73-.277-.962-.074-2.017.019-3.139.276-1.583.364-3.897 1.285-5.203 2.683-.1.106-.196.216-.285.325-.694.848-.928 1.395-1.002 1.706-.14.588-.094 1.326-.053 1.977.05.795.1 1.616.367 2.233a1.46 1.46 0 01-1.338 2.039zm15.085-2.372zm.151-.166l-.001.001.001-.001zM71.1 65.977a1.46 1.46 0 01-1.32-2.08c.214-.457.579-1.373.604-2.358.01-.355-.03-.497-.116-.81a14.514 14.514 0 01-.065-.238 1.459 1.459 0 112.824-.736l.053.196c.113.41.242.874.222 1.664-.038 1.44-.5 2.71-.88 3.522a1.46 1.46 0 01-1.322.84zm9.574.007a1.46 1.46 0 01-1.3-.793c-.643-1.255-.985-2.516-1.017-3.748a4.862 4.862 0 01.15-1.399 1.46 1.46 0 012.83.716c-.04.153-.07.304-.063.608.026.985.393 1.898.697 2.49a1.459 1.459 0 01-1.297 2.126zM26.27 86.538H3.738a2.719 2.719 0 01-1.947-.813 2.72 2.72 0 01-.79-1.956c.035-3.16.262-9.05 1.373-13.014.347-1.237.77-2.25 1.33-3.189.474-.794 1.84-2.789 4.292-4.168a10.906 10.906 0 015.863-1.4c.285.013.56.11.791.278l5.288 3.856 5.596-3.877c.225-.156.49-.245.763-.258a10.909 10.909 0 015.864 1.4c.639.36 1.252.789 1.822 1.274a1.46 1.46 0 11-1.893 2.222 8.642 8.642 0 00-1.36-.952 8 8 0 00-3.895-1.037l-6.088 4.218a1.46 1.46 0 01-1.69-.021l-5.755-4.196a8.002 8.002 0 00-3.875 1.037 8.991 8.991 0 00-3.217 3.12c-.431.721-.747 1.486-1.026 2.48-1 3.57-1.223 9.024-1.264 12.078h22.35a1.46 1.46 0 010 2.918z" fill="#FF5C39"/><path d="M9.88 86.538a1.46 1.46 0 01-1.459-1.46v-9.895a1.46 1.46 0 012.918 0v9.896a1.46 1.46 0 01-1.459 1.459zm10.247-23.547c-2.585 0-5.006-1.104-6.818-3.11-1.775-1.965-2.752-4.567-2.752-7.328V48.76c0-.622.394-1.176.982-1.38.428-.15 1.694-.706 2.37-1.453.52-.577 1.38-.66 1.981-.171.077.056 1.007.72 2.592 1.054 2.21.465 4.601.102 7.106-1.078a1.458 1.458 0 011.68.316c.254.268 1.062 1.054 1.735 1.47.431.265.693.736.693 1.242v3.793c0 2.76-.977 5.363-2.751 7.327-1.812 2.007-4.234 3.111-6.818 3.111zm-6.652-13.265v2.828c0 4.146 2.984 7.52 6.652 7.52 3.667 0 6.651-3.374 6.651-7.52V49.52a13.623 13.623 0 01-.88-.738c-2.076.843-3.93 1.144-5.52 1.144-2.38 0-4.166-.673-5.218-1.215a9.952 9.952 0 01-1.685 1.015z" fill="#FF5C39"/><path d="M12.017 50.219a1.46 1.46 0 01-1.34-.88c-.47-1.085-.543-2.264-.602-3.21-.05-.813-.114-1.825.128-2.837.214-.897.732-1.838 1.582-2.876a9.84 9.84 0 01.41-.47c2.208-2.362 5.674-3.302 6.683-3.534 1.41-.324 2.76-.439 4.015-.342.88.068 1.63.19 2.294.377.971.272 1.736.804 2.212 1.538.233.361.376.73.49 1.026.078.203.167.433.24.518.136.162.338.322.572.506.29.23.62.49.93.84.728.822 1.552 2.201 1.679 3.606.12 1.323-.39 2.452-.846 3.287l-.074.142c-.733 1.415-.917 1.695-1.17 1.925a1.46 1.46 0 01-2.1-2.018c.077-.118.257-.436.68-1.25.053-.103.09-.175.105-.201.383-.7.537-1.2.499-1.621-.05-.552-.453-1.366-.958-1.936-.137-.154-.33-.306-.553-.483-.312-.246-.667-.526-.994-.913-.389-.46-.58-.954-.733-1.351-.076-.197-.147-.383-.217-.491-.08-.124-.28-.239-.549-.314-.478-.134-1.043-.224-1.73-.277-.962-.074-2.017.019-3.139.276-1.583.364-3.896 1.285-5.203 2.683-.1.106-.195.216-.285.326-.693.847-.927 1.394-1.002 1.705-.14.587-.094 1.326-.053 1.977.05.795.1 1.616.367 2.233a1.46 1.46 0 01-1.338 2.039zM27.1 47.847zm.151-.166l-.001.001.001-.001zM15.247 65.977a1.46 1.46 0 01-1.32-2.08c.215-.457.58-1.373.605-2.358.01-.355-.03-.497-.117-.81a15.58 15.58 0 01-.064-.238 1.46 1.46 0 012.824-.736l.053.196c.113.41.242.874.221 1.664-.037 1.44-.499 2.71-.88 3.522a1.46 1.46 0 01-1.322.84zm9.575.007c-.53 0-1.041-.29-1.3-.793-.643-1.255-.986-2.515-1.018-3.748a4.865 4.865 0 01.15-1.399 1.46 1.46 0 012.83.716c-.039.153-.07.305-.062.608.025.985.393 1.898.697 2.49a1.46 1.46 0 01-1.297 2.126z" fill="#FF5C39"/><path d="M18.763 39.404a1.46 1.46 0 01-1.46-1.46v-5.86a2.44 2.44 0 012.438-2.437h5.231a23.557 23.557 0 012.467-5.951l-3.7-3.7a2.44 2.44 0 010-3.447l5.113-5.114a2.44 2.44 0 013.447 0l3.7 3.7a23.546 23.546 0 015.952-2.467v-5.23A2.44 2.44 0 0144.388 5h7.232a2.44 2.44 0 012.436 2.437v5.231a23.557 23.557 0 015.952 2.468l3.7-3.7a2.422 2.422 0 011.724-.714c.65 0 1.263.253 1.723.714l5.114 5.113c.46.46.713 1.072.713 1.723a2.42 2.42 0 01-.713 1.723l-3.7 3.7a23.539 23.539 0 012.467 5.952h5.23a2.44 2.44 0 012.438 2.438v5.43a1.46 1.46 0 11-2.919 0v-4.95H69.88a1.46 1.46 0 01-1.429-1.16 20.682 20.682 0 00-2.953-7.126 1.46 1.46 0 01.19-1.83l4.177-4.177-4.433-4.433-4.178 4.177a1.46 1.46 0 01-1.83.19 20.7 20.7 0 00-7.125-2.954 1.46 1.46 0 01-1.16-1.428V7.918h-6.27v5.906a1.46 1.46 0 01-1.16 1.428 20.684 20.684 0 00-7.125 2.954 1.46 1.46 0 01-1.831-.19l-4.177-4.177-4.434 4.433 4.178 4.177a1.46 1.46 0 01.189 1.83 20.696 20.696 0 00-2.953 7.125 1.459 1.459 0 01-1.428 1.161h-5.906v5.38a1.46 1.46 0 01-1.459 1.459z" fill="#FF5C39"/></svg>