<svg width="96" height="96" fill="none" xmlns="http://www.w3.org/2000/svg"><path d="M29.73 73.528c-.55 0-1.1-.098-1.626-.294a4.637 4.637 0 01-2.871-5.512l5.16-20.027.093-13.788-2.614 1.836-.603 7.246a4.152 4.152 0 01-1.59 2.929 4.153 4.153 0 01-3.232.81 4.133 4.133 0 01-2.57-1.534 4.132 4.132 0 01-.865-2.864l.718-9.412a4.625 4.625 0 011.903-3.4l8.695-6.291a7.32 7.32 0 019.409.683l6.843 6.652 9.217.631c.048.004.095.01.143.017a4.43 4.43 0 013.7 4.38 4.44 4.44 0 01-5 4.407l-9.016-.384a1.427 1.427 0 01-.146-.014 4.577 4.577 0 01-1.736-.626l-2.22-1.354.068 5.09 7.683 3.534a3.559 3.559 0 012.054 3.46l-.704 10.24a4.385 4.385 0 01-1.59 3.103 4.388 4.388 0 01-3.342.99 4.416 4.416 0 01-3.908-4.447l.07-6.164-3.096-1.261-4.52 17.858a4.652 4.652 0 01-4.506 3.506zm2.225-43.872a1.448 1.448 0 011.45 1.46l-.114 16.778a1.49 1.49 0 01-.046.352l-5.205 20.2a1.744 1.744 0 001.08 2.072c.471.177.977.145 1.423-.088.446-.234.76-.632.883-1.12l4.93-19.473a1.45 1.45 0 011.952-.987l5.554 2.262c.551.225.909.764.902 1.36l-.082 7.15a1.523 1.523 0 001.348 1.534c.419.05.828-.072 1.153-.341.324-.27.519-.65.548-1.07l.703-10.24a.645.645 0 00-.371-.628l-8.517-3.916a1.45 1.45 0 01-.843-1.298l-.113-8.629a1.45 1.45 0 012.204-1.256l4.458 2.72c.18.11.375.184.58.222l8.998.383c.05.002.099.007.147.014a1.52 1.52 0 001.231-.36c.344-.298.533-.712.533-1.167a1.54 1.54 0 00-1.226-1.51l-9.663-.662a1.45 1.45 0 01-.911-.407l-7.225-7.023a4.425 4.425 0 00-5.688-.412l-8.695 6.291a1.728 1.728 0 00-.712 1.271l-.718 9.413a1.236 1.236 0 001.03 1.319c.347.059.692-.027.97-.243s.447-.528.477-.879l.659-7.922c.036-.428.26-.82.612-1.066l5.471-3.841c.249-.175.54-.263.833-.263zm4.708-8.564c-3.687 0-6.688-3-6.688-6.688 0-3.688 3-6.688 6.688-6.688 3.688 0 6.689 3 6.689 6.688 0 3.688-3 6.688-6.689 6.688zm0-10.477a3.793 3.793 0 00-3.788 3.789c0 2.089 1.7 3.788 3.788 3.788 2.09 0 3.79-1.7 3.79-3.788 0-2.09-1.7-3.79-3.79-3.79zm.359 84.159H25.918a3.265 3.265 0 01-3.262-3.261V79.488a3.265 3.265 0 013.262-3.261h11.104a3.265 3.265 0 013.261 3.261v12.025a3.265 3.265 0 01-3.261 3.261zM25.918 79.126c-.2 0-.363.162-.363.362v12.025c0 .2.163.362.363.362h11.104c.2 0 .362-.162.362-.362V79.488c0-.2-.163-.362-.362-.362H25.918z" fill="#FF5C39"/><path d="M51.749 94.775H40.645a3.265 3.265 0 01-3.261-3.262v-23.01a3.265 3.265 0 013.261-3.262H51.75a3.265 3.265 0 013.262 3.261v23.01a3.267 3.267 0 01-3.262 3.263zM40.645 68.14c-.2 0-.362.162-.362.362v23.01c0 .2.163.363.362.363H51.75c.2 0 .363-.163.363-.363v-23.01c0-.2-.163-.362-.363-.362H40.645z" fill="#FF5C39"/><path d="M66.477 94.774H55.373a3.265 3.265 0 01-3.262-3.261V57.848a3.265 3.265 0 013.262-3.261h11.104a3.265 3.265 0 013.261 3.261v33.665a3.265 3.265 0 01-3.261 3.261zM55.373 57.486c-.2 0-.362.162-.362.362v33.665c0 .2.162.362.362.362h11.104c.2 0 .362-.162.362-.362V57.848c0-.2-.162-.362-.362-.362H55.373zm2.832-12.073c-.8 0-1.45-.649-1.45-1.45V3.45a1.45 1.45 0 112.9 0v40.514c0 .8-.65 1.45-1.45 1.45z" fill="#FF5C39"/><path d="M76.378 22.81H58.205c-.8 0-1.45-.65-1.45-1.45V6.54c0-.8.65-1.45 1.45-1.45h18.173a1.45 1.45 0 01.926 2.565L69.73 13.95l7.574 6.294a1.45 1.45 0 01-.926 2.564zm-16.723-2.9h12.71l-5.83-4.845a1.45 1.45 0 010-2.23l5.83-4.844h-12.71v11.92z" fill="#FF5C39"/></svg>