<svg width="96" height="96" fill="none" xmlns="http://www.w3.org/2000/svg"><path d="M68.38 96H35.131c-2.206 0-4-1.794-4-4V76.683a2.77 2.77 0 00-2.768-2.768h-6.188a5.761 5.761 0 01-4.792-2.558c-.964-1.436-.986-3.345-.058-4.863.32-.522.36-1.03.126-1.6a2.821 2.821 0 00-.475-.765c-.94-.94-1.388-2.24-1.26-3.658a.379.379 0 00-.057-.22c-.485-.817-.607-1.728-.371-2.66h-2.78a4.333 4.333 0 01-3.63-1.958 4.333 4.333 0 01-.358-4.11l6.482-15.011c.146-.337.223-.686.231-1.037a36.212 36.212 0 0110.9-25.113A36.186 36.186 0 0151.532 0c4.9 0 9.656.96 14.133 2.854a36.184 36.184 0 0111.54 7.78 36.188 36.188 0 017.782 11.541 36.082 36.082 0 012.853 14.133c0 8.9-3.251 17.46-9.155 24.105A24.972 24.972 0 0072.38 77.02V92c0 2.206-1.794 4-4 4zM19.097 62.008c.964.963 2.369 3.466.787 6.05-.319.523-.323 1.162-.01 1.628a2.766 2.766 0 002.301 1.229h6.188a5.774 5.774 0 015.768 5.767V92c0 .551.449 1 1 1h33.25c.55 0 1-.449 1-1V77.019a27.97 27.97 0 017.061-18.598 33.258 33.258 0 008.398-22.113C84.84 17.942 69.898 3 51.532 3c-17.958 0-32.895 14.6-33.3 32.543a5.749 5.749 0 01-.476 2.158l-6.482 15.012c-.183.423-.143.887.11 1.272.254.385.663.606 1.124.606h4.321a2.002 2.002 0 011.665 3.122c-.301.447-.387.785-.256 1.005.366.616.527 1.314.465 2.018-.047.535.085.963.394 1.272z" fill="#FF5C39"/><path d="M66.098 22.444c-1.9-1.571-4.338-2.435-6.867-2.435-2.92 0-5.747 1.162-7.754 3.19-.361.365-.7.757-1.017 1.183-2.458-3.272-6.566-4.95-10.628-4.208-3.371.612-6.022 2.464-7.872 5.502-2.612 4.29-2.825 8.426-.632 12.296 1.173 2.071 2.694 4.089 4.65 6.169 3.586 3.81 7.829 7.427 13.355 11.378.353.254.732.382 1.126.382.607 0 1.018-.308 1.221-.458 4.986-3.56 8.904-6.843 12.328-10.334 1.913-1.949 4.083-4.343 5.67-7.335.68-1.278 1.455-2.998 1.41-4.963-.103-4.229-1.78-7.716-4.99-10.367zm.982 13.951c-1.413 2.66-3.407 4.855-5.172 6.653-3.167 3.23-6.788 6.285-11.454 9.655-5.078-3.674-9.01-7.048-12.332-10.582-1.794-1.906-3.179-3.738-4.235-5.602-1.673-2.95-1.487-5.912.586-9.314 1.395-2.291 3.375-3.684 5.886-4.14a8.042 8.042 0 011.448-.132c2.977 0 5.613 1.644 7.102 4.499l.253.477c.26.487.794.764 1.322.777a1.47 1.47 0 001.295-.823c.523-1.066 1.093-1.894 1.789-2.598 1.459-1.472 3.523-2.317 5.663-2.317 1.846 0 3.619.625 4.994 1.762 2.557 2.113 3.84 4.786 3.922 8.168.028 1.276-.523 2.492-1.067 3.517z" fill="#FF5C39"/></svg>