<svg width="96" height="96" fill="none" xmlns="http://www.w3.org/2000/svg"><g clip-path="url(#clip0_632_4087)" fill="#FF5C39"><path d="M66.182 96H4.37a3.894 3.894 0 01-2.789-1.165A3.893 3.893 0 01.45 92.033c.068-5.911.489-16.927 2.552-24.287.624-2.229 1.382-4.048 2.384-5.726.846-1.415 3.284-4.972 7.655-7.432a19.405 19.405 0 0110.413-2.49c.294.014.578.114.816.288l10.723 7.82 11.32-7.842c.232-.16.504-.252.786-.265a19.408 19.408 0 0110.413 2.49c4.367 2.457 6.808 6.015 7.654 7.43 1.003 1.678 1.76 3.497 2.385 5.727 2.063 7.36 2.484 18.376 2.552 24.288a3.895 3.895 0 01-1.134 2.802A3.893 3.893 0 0166.182 96zm-30.808-3.003h30.808a.91.91 0 00.652-.273.913.913 0 00.266-.657c-.066-5.763-.47-16.483-2.44-23.51-.559-1.994-1.198-3.535-2.071-4.997-.724-1.21-2.81-4.25-6.55-6.355a16.412 16.412 0 00-8.38-2.12l-11.834 8.197a1.501 1.501 0 01-1.74-.02l-11.21-8.178c-2.13-.038-5.18.33-8.361 2.121-3.743 2.107-5.827 5.146-6.55 6.355-.873 1.463-1.512 3.004-2.07 4.996-1.97 7.029-2.375 17.748-2.44 23.512a.911.911 0 00.264.656.911.911 0 00.653.273h31.003z"/><path d="M15.989 96c-.83 0-1.502-.672-1.502-1.502V75.782a1.502 1.502 0 113.004 0v18.716c0 .83-.673 1.502-1.502 1.502zm38.576 0c-.83 0-1.502-.672-1.502-1.502V75.782a1.502 1.502 0 013.004 0v18.716c0 .83-.673 1.502-1.502 1.502zM35.369 51.465c-2.293 0-4.516-.496-6.608-1.476-2.009-.94-3.81-2.284-5.354-3.993-3.147-3.484-4.88-8.106-4.88-13.015v-7.177c0-.64.406-1.21 1.01-1.419.031-.01 3.243-1.145 5.004-3.095a1.488 1.488 0 012.042-.174c.083.063 1.98 1.48 5.273 2.201 4.493.985 9.33.278 14.378-2.1a1.506 1.506 0 011.731.327c.194.202 1.94 2 3.533 2.983a1.5 1.5 0 01.712 1.277v7.177c0 4.908-1.733 9.53-4.88 13.015-1.544 1.709-3.345 3.052-5.354 3.993a15.47 15.47 0 01-6.607 1.476zM21.53 26.821v6.16c0 8.536 6.208 15.481 13.839 15.481 7.63 0 13.838-6.945 13.838-15.481v-6.373c-1.03-.732-2.005-1.612-2.658-2.238-2.814 1.221-5.62 1.979-8.355 2.255-2.464.248-4.876.109-7.166-.415-2.377-.544-4.14-1.395-5.189-2.004-1.473 1.268-3.228 2.145-4.309 2.615z"/><path d="M20.03 27.306a1.504 1.504 0 01-1.38-.906c-.798-1.846-.925-3.866-1.037-5.648-.09-1.454-.204-3.264.21-4.996.359-1.505 1.255-3.118 2.74-4.933.235-.287.479-.566.725-.828 4.032-4.315 10.704-6.02 12-6.318 2.538-.583 4.966-.791 7.216-.618 1.582.122 2.922.34 4.097.67 1.538.43 2.736 1.255 3.465 2.382.371.574.604 1.176.81 1.707.21.546.393 1.018.666 1.342.341.404.79.757 1.265 1.132.534.421 1.086.857 1.597 1.434 1.245 1.406 2.65 3.747 2.864 6.101.197 2.167-.672 4.078-1.451 5.5l-.153.293c-1.392 2.687-1.663 3.036-1.942 3.292a1.501 1.501 0 01-2.12-2.123c.132-.188.484-.791 1.396-2.55.107-.207.155-.3.185-.355.574-1.048 1.218-2.427 1.094-3.785-.138-1.528-1.165-3.302-2.121-4.382-.334-.377-.76-.712-1.21-1.067-.544-.43-1.16-.916-1.697-1.551-.6-.71-.906-1.5-1.175-2.199-.168-.434-.326-.844-.53-1.158-.41-.636-1.18-.96-1.754-1.121-.983-.276-2.133-.461-3.516-.568-1.947-.15-4.071.036-6.313.55-3.168.73-7.815 2.592-10.48 5.443-.201.215-.4.443-.594.679-1.174 1.435-1.895 2.69-2.143 3.728-.31 1.296-.216 2.791-.133 4.111.1 1.612.205 3.279.796 4.644a1.501 1.501 0 01-1.378 2.098zm29.665-2.61h-.001.001zM26.142 57.111a1.502 1.502 0 01-1.359-2.139c.448-.956 1.208-2.873 1.262-4.964.022-.86-.092-1.275-.266-1.902a30.602 30.602 0 01-.117-.43 1.502 1.502 0 012.906-.758c.035.135.07.263.105.386.2.724.408 1.473.374 2.782-.068 2.637-.997 4.991-1.544 6.16a1.502 1.502 0 01-1.361.865zm18.106.013c-.544 0-1.07-.298-1.336-.816-.777-1.514-1.718-3.878-1.787-6.546-.027-1.064.102-1.737.246-2.306a1.502 1.502 0 012.912.736c-.109.43-.173.83-.156 1.493.054 2.102.822 4.016 1.456 5.251a1.502 1.502 0 01-1.334 2.188zM92.546 96H78.358a4.009 4.009 0 01-4.004-4.004V7.004A4.009 4.009 0 0178.358 3h14.188a4.009 4.009 0 014.004 4.004v84.992A4.008 4.008 0 0192.546 96zM78.358 6.003c-.552 0-1.001.45-1.001 1.001v84.992c0 .552.45 1 1.001 1h14.188a1 1 0 001-1V7.004a1 1 0 00-1-1H78.358z"/><path d="M88.913 89.046H81.99a1.502 1.502 0 010-3.004h6.922a1.502 1.502 0 110 3.004zm0-6.194H81.99a1.501 1.501 0 110-3.003h6.922a1.502 1.502 0 010 3.003zm0-6.193H81.99a1.501 1.501 0 110-3.004h6.922a1.502 1.502 0 010 3.004zm0-6.194H81.99a1.502 1.502 0 010-3.003h6.922a1.502 1.502 0 110 3.003zm0-6.195H81.99a1.502 1.502 0 010-3.002h6.922a1.502 1.502 0 110 3.003zm0-37.16H81.99a1.502 1.502 0 010-3.004h6.922a1.502 1.502 0 110 3.003zm0-6.195H81.99a1.502 1.502 0 010-3.003h6.922a1.502 1.502 0 110 3.003zm-3.461 33.892c-.83 0-1.502-.672-1.502-1.501V35.07a1.502 1.502 0 013.003 0v18.235c0 .83-.672 1.502-1.501 1.502z"/><path d="M81.583 41.373a1.502 1.502 0 01-1.165-2.448l3.896-4.8a1.502 1.502 0 012.332 0l3.84 4.731a1.501 1.501 0 11-2.332 1.893l-2.674-3.295-2.73 3.364a1.5 1.5 0 01-1.167.555z"/></g><defs><clipPath id="clip0_632_4087"><path fill="#fff" d="M0 0h96v96H0z"/></clipPath></defs></svg>