<svg width="24" height="24" fill="none" xmlns="http://www.w3.org/2000/svg"><g clip-path="url(#clip0_688_91385)"><path d="M17.175 7.57c.3-.3.3-.797 0-1.11-.3-.3-.796-.3-1.109 0l-8.205 8.205a2.527 2.527 0 000 3.561 2.527 2.527 0 003.561 0l8.596-8.596c.078-.04.157-.091.235-.156 1.148-1.148 4.2-4.2 1.265-7.135-1.122-1.122-2.465-1.553-3.887-1.24-1.16.248-2.36.992-3.56 2.192l-9.314 9.313c-1.109 1.109-1.696 2.648-1.63 4.33.065 1.605.73 3.17 1.839 4.279C6.074 22.322 7.614 22.961 9.205 23h.13c1.592 0 3.053-.6 4.135-1.683l9.183-9.183c.3-.3.3-.795 0-1.108-.3-.3-.795-.3-1.109 0l-9.183 9.183c-.808.808-1.917 1.239-3.13 1.226a4.634 4.634 0 01-3.157-1.33c-1.76-1.762-1.852-4.749-.208-6.392l9.313-9.314c.965-.965 1.93-1.578 2.778-1.76.9-.196 1.71.065 2.453.821.73.73.939 1.409.678 2.23-.183.588-.6 1.24-1.305 2.023-.052.039-.117.078-.156.117l-9.3 9.3a.96.96 0 01-1.344 0 .96.96 0 010-1.343l8.192-8.218z" fill="#3B3B46"/></g><defs><clipPath id="clip0_688_91385"><path fill="#fff" transform="translate(2 1)" d="M0 0h22v22H0z"/></clipPath></defs></svg>