<svg width="208" height="72" fill="none" xmlns="http://www.w3.org/2000/svg"><path d="M.115 56.27c1.037-1.156 5.415-1.792 5.415-2.949V4.107c0-1.157-4.493-1.793-5.53-2.95h19.7c-1.037 1.157-5.587 1.793-5.587 2.95V53.32c0 1.157 4.492 1.793 5.53 2.95H.114z" fill="#fff"/><path d="M4.608 66.796c0-2.082 1.498-5.32 5.242-5.32 3.686 0 5.242 3.296 5.242 5.32 0 1.966-1.556 5.205-5.242 5.205-3.63 0-5.242-3.123-5.242-5.205z" fill="#FF5C39"/><path d="M25.23 56.27V20.877c0-1.041-.116-1.62-.807-2.371l-.692-.694 8.353-2.024c.921.925 1.497 2.024 1.67 3.296v.463c2.016-2.602 4.436-4.222 9.85-4.222 5.184 0 9.447 1.446 12.039 4.858 2.823-3.412 7.027-4.858 12.5-4.858 10.771 0 14.573 7.634 14.573 14.227V56.27h-8.583V29.552c0-4.28-2.016-8.675-7.949-8.675-6.278 0-7.949 4.164-7.949 8.675V56.27H49.71V29.552c0-4.28-2.189-8.675-8.122-8.675-6.279 0-7.834 4.164-7.834 8.675V56.27H25.23zm79.376-40.945c9.446 0 16.186 4.395 16.186 11.798v17.696c.057 1.215.057 2.834.345 4.222.116.752.404 1.561.864 2.198.634.867 1.556 1.445 2.65 1.33 1.152-.058 2.247-.694 3.226-1.215v4.395c-1.959.637-3.975.984-5.991.984-4.205 0-6.739-1.851-8.064-4.396-2.362 2.43-6.048 4.511-10.311 4.511-10.195 0-15.61-4.395-15.61-12.144 0-6.362 4.608-9.774 11.924-11.74a41.725 41.725 0 015.357-1.041c.518-.116 2.419-.463 4.204-.868.231-.058 2.535-.694 2.65-.81.115-.057.173-.115.231-.115 0-.983-.058-1.966-.116-3.007-.115-4.164-1.555-7.287-7.373-7.287-2.765 0-6.048 1.388-7.891 3.065l-.461.463c-.288.289-.576.636-.864.925l-.864 1.041-3.341-6.072c.173-.116.346-.174.518-.29.23-.173.461-.289.75-.462a24.027 24.027 0 0111.981-3.18zm7.661 19.027c-1.728.983-4.781 1.793-6.625 2.313-6.393 1.62-9.274 2.776-9.274 8.212 0 3.47 3.169 7.055 7.719 7.055 3.053 0 5.991-1.677 7.604-3.7.288-.348.518-.695.518-1.042l.058-12.838zm21.081 21.918V21.802c0-.694 0-1.156-.057-1.793-.058-.925-.749-1.56-1.383-2.197l8.295-2.024a6.028 6.028 0 011.44 2.313c.173.578.23 1.157.23 1.735 2.535-2.313 6.279-4.51 10.369-4.51 2.937 0 6.739 2.081 6.739 5.377 0 2.14-1.555 3.875-3.686 3.875-4.148 0-3.456-4.221-5.876-4.221-3.341 0-7.546 3.354-7.546 5.898V56.27h-8.525zm39.975-40.482c.231.636.403 1.041.403 1.793v38.69h-8.525V19.2c0-1.794-.576-2.198-1.613-3.413h9.735zm-9.274-10.525c0-2.024 1.613-5.263 5.3-5.263 3.629 0 5.241 3.296 5.241 5.263 0 1.966-1.67 5.32-5.241 5.32-3.687 0-5.3-3.296-5.3-5.32zm14.574 46.843l3.399-6.361c.172.173.748.867.864 1.04 2.361 2.95 5.76 5.437 10.253 5.437 4.781 0 7.085-1.967 7.085-5.552 0-1.446-1.037-2.43-2.88-3.47-.922-.578-2.016-1.099-3.168-1.62-1.152-.578-2.42-1.098-3.687-1.676-5.184-2.372-10.599-5.61-10.599-12.319 0-4.395 2.247-9.195 7.949-11.335 1.671-.636 3.399-.925 5.3-.925 4.896 0 9.043 1.33 12.73 3.586.057.058.461.231.518.289l-3.283 6.072c-.173-.173-.691-.867-.864-1.04-2.131-2.372-5.415-4.454-9.101-4.454-3.456 0-5.472 2.718-5.472 5.379 0 2.486 1.152 4.163 2.937 5.436.864.694 1.959 1.272 3.111 1.793 1.152.578 2.419 1.098 3.686 1.677C202.528 36.26 208 38.747 208 45.745c0 6.245-6.855 10.988-14.861 10.988-5.645 0-9.965-1.793-13.998-4.338-.057-.058-.46-.231-.518-.289z" fill="#fff"/></svg>