<svg width="18" height="18" fill="none" xmlns="http://www.w3.org/2000/svg"><path d="M6.681 3.298v-.514a.384.384 0 00-.384-.384H3.832a.384.384 0 00-.384.384v.513H1.801v1.345h1.647v.608c0 .212.172.384.384.384h2.465a.384.384 0 00.384-.384v-.608h10.096V3.298H6.68zm4.225 4.538a.384.384 0 00-.384-.384H8.057a.384.384 0 00-.384.384v.561H1.8v1.344h5.872v.561c0 .212.172.384.384.384h2.465a.384.384 0 00.384-.384v-.56h5.871V8.396h-5.87l-.001-.56zm4.223 5.1a.384.384 0 00-.384-.384H12.28a.384.384 0 00-.384.384v.56H1.801v1.345h10.095v.56c0 .213.172.385.384.385h2.465a.384.384 0 00.384-.384v-.561h1.648v-1.344h-1.648v-.561z" fill="#313148"/></svg>