<svg width="92" height="92" fill="none" xmlns="http://www.w3.org/2000/svg"><circle cx="46" cy="46" r="45.5" stroke="#fff"/><path d="M40.842 40.904c1.412-1.411 3.114-2.117 5.106-2.117 1.993 0 3.674.706 5.044 2.117 1.411 1.37 2.117 3.051 2.117 5.044 0 1.993-.706 3.695-2.117 5.106-1.37 1.37-3.051 2.055-5.044 2.055-1.992 0-3.694-.685-5.106-2.055-1.37-1.411-2.055-3.113-2.055-5.106 0-1.992.685-3.674 2.055-5.044zm1.806 8.344c.913.914 2.013 1.37 3.3 1.37s2.387-.456 3.3-1.37c.914-.913 1.37-2.013 1.37-3.3s-.456-2.387-1.37-3.3c-.913-.913-2.013-1.37-3.3-1.37s-2.387.457-3.3 1.37c-.913.913-1.37 2.013-1.37 3.3s.457 2.387 1.37 3.3zM54.54 37.355c.332.29.498.664.498 1.12 0 .457-.166.852-.498 1.184a1.42 1.42 0 01-1.12.498c-.457 0-.852-.166-1.184-.498a1.616 1.616 0 01-.498-1.183c0-.457.166-.83.498-1.12a1.616 1.616 0 011.183-.5c.457 0 .83.167 1.121.5zm5.293 2.864c.041 1.121.062 3.03.062 5.73 0 2.697-.02 4.607-.062 5.728-.125 2.532-.893 4.504-2.304 5.915-1.37 1.37-3.321 2.097-5.853 2.18-1.121.083-3.03.124-5.729.124-2.698 0-4.608-.041-5.729-.124-2.532-.125-4.483-.872-5.853-2.242a6.007 6.007 0 01-1.307-1.744 10.228 10.228 0 01-.748-1.93c-.124-.623-.187-1.349-.187-2.18-.083-1.12-.124-3.03-.124-5.728s.041-4.629.124-5.79c.125-2.492.872-4.422 2.242-5.792 1.37-1.411 3.321-2.18 5.853-2.304 1.121-.041 3.03-.062 5.73-.062 2.697 0 4.607.02 5.728.062 2.532.125 4.483.893 5.853 2.304 1.411 1.37 2.18 3.321 2.304 5.853zm-2.989 13.948c.125-.332.228-.747.311-1.245.083-.54.146-1.162.187-1.868.042-.747.063-1.349.063-1.806v-6.6c0-.457-.021-1.038-.063-1.744a17.624 17.624 0 00-.187-1.868c-.083-.54-.186-.975-.31-1.307-.5-1.287-1.392-2.18-2.678-2.678-.333-.124-.768-.228-1.308-.311a17.624 17.624 0 00-1.868-.187 30.784 30.784 0 00-1.744-.062h-6.6c-.457 0-1.059.02-1.806.062a20.07 20.07 0 00-1.868.187 6.783 6.783 0 00-1.245.311c-1.287.498-2.18 1.39-2.678 2.678-.124.332-.228.768-.311 1.307a17.487 17.487 0 00-.187 1.868 30.784 30.784 0 00-.062 1.744v7.472c.041.623.083 1.162.124 1.62.042.414.104.85.187 1.307.083.456.166.83.25 1.12.539 1.287 1.431 2.18 2.677 2.678.332.125.747.228 1.245.311.54.083 1.162.146 1.868.187.747.042 1.328.063 1.744.063h6.662c.457 0 1.038-.021 1.744-.063.747-.041 1.37-.104 1.868-.187.54-.083.975-.186 1.307-.31 1.287-.54 2.18-1.433 2.678-2.678z" fill="#fff"/></svg>