<svg width="92" height="92" fill="none" xmlns="http://www.w3.org/2000/svg"><path d="M38.227 59.896h-5.791V41.278h5.79v18.618zm-2.864-21.171c-.914 0-1.703-.332-2.367-.996-.664-.664-.996-1.453-.996-2.367 0-.913.332-1.702.996-2.366.664-.664 1.453-.996 2.366-.996.582 0 1.121.145 1.62.436a3 3 0 011.245 1.245c.332.498.498 1.059.498 1.681 0 .582-.166 1.142-.498 1.682-.29.498-.706.913-1.245 1.245a3.158 3.158 0 01-1.62.436zm24.533 21.171h-5.79v-9.091c0-.706-.022-1.266-.063-1.681a7.396 7.396 0 00-.311-1.495c-.166-.58-.478-1.017-.934-1.307-.416-.29-.976-.436-1.682-.436-1.37 0-2.304.436-2.802 1.307-.456.872-.685 2.035-.685 3.488v9.215h-5.79V41.278h5.604v2.553h.062c.415-.83 1.1-1.536 2.055-2.117.954-.623 2.096-.934 3.424-.934 1.412 0 2.574.228 3.487.685.955.415 1.66 1.058 2.118 1.93.498.83.83 1.744.996 2.74.207.996.311 2.18.311 3.55v10.211z" fill="#fff"/><circle cx="46" cy="46" r="45.5" stroke="#fff"/></svg>