<svg width="156" height="54" fill="none" xmlns="http://www.w3.org/2000/svg"><path d="M.086 42.151c.778-.864 4.061-1.34 4.061-2.204V3.16C4.147 2.296.777 1.82 0 .956h14.775c-.778.865-4.19 1.34-4.19 2.205v36.786c0 .864 3.37 1.34 4.147 2.204H.086z" fill="#3B3B46"/><path d="M3.456 50.018c0-1.556 1.123-3.977 3.931-3.977 2.765 0 3.932 2.464 3.932 3.977 0 1.47-1.167 3.89-3.932 3.89-2.721 0-3.93-2.333-3.93-3.89z" fill="#FF5C39"/><path d="M18.922 42.151V15.696c0-.778-.086-1.21-.605-1.772l-.518-.519 6.264-1.513c.691.692 1.123 1.513 1.253 2.464v.346c1.512-1.945 3.326-3.156 7.387-3.156 3.889 0 7.085 1.081 9.03 3.631 2.116-2.55 5.27-3.63 9.374-3.63 8.079 0 10.93 5.705 10.93 10.633v19.971H55.6v-19.97c0-3.2-1.512-6.485-5.962-6.485-4.709 0-5.961 3.112-5.961 6.484v19.971h-6.394v-19.97c0-3.2-1.642-6.485-6.092-6.485-4.709 0-5.875 3.112-5.875 6.484v19.971h-6.394zm59.532-30.605c7.085 0 12.14 3.286 12.14 8.819v13.227c.043.908.043 2.118.259 3.156.086.562.302 1.167.648 1.642.475.649 1.166 1.08 1.987.995.864-.044 1.685-.52 2.42-.908v3.285c-1.47.475-2.982.735-4.494.735-3.154 0-5.054-1.383-6.048-3.285-1.771 1.815-4.536 3.371-7.733 3.371-7.647 0-11.708-3.285-11.708-9.077 0-4.755 3.456-7.306 8.943-8.775a31.387 31.387 0 014.018-.779c.389-.086 1.814-.345 3.154-.648.172-.043 1.9-.519 1.987-.605.086-.043.13-.087.173-.087 0-.734-.044-1.47-.087-2.247-.086-3.113-1.166-5.447-5.53-5.447-2.073 0-4.536 1.038-5.918 2.291l-.346.346c-.216.216-.432.475-.648.692l-.648.778-2.506-4.54c.13-.086.26-.129.39-.215.172-.13.345-.216.56-.346a18.069 18.069 0 018.987-2.378zM84.2 25.768c-1.297.735-3.586 1.34-4.969 1.73-4.795 1.21-6.955 2.074-6.955 6.137 0 2.594 2.376 5.274 5.789 5.274 2.29 0 4.493-1.254 5.703-2.767.216-.259.388-.518.388-.778l.044-9.596zm15.811 16.383V16.388c0-.519 0-.865-.043-1.34-.043-.692-.562-1.167-1.037-1.643l6.221-1.513c.475.476.864 1.08 1.08 1.73.13.431.173.864.173 1.296 1.901-1.729 4.709-3.372 7.776-3.372 2.204 0 5.055 1.556 5.055 4.02 0 1.6-1.167 2.897-2.765 2.897-3.111 0-2.592-3.156-4.407-3.156-2.505 0-5.659 2.507-5.659 4.41V42.15h-6.394zm29.982-30.259c.172.476.302.778.302 1.34v28.92h-6.394v-27.71c0-1.34-.432-1.642-1.21-2.55h7.302zm-6.956-7.867c0-1.513 1.21-3.934 3.975-3.934 2.721 0 3.931 2.464 3.931 3.934 0 1.47-1.253 3.977-3.931 3.977-2.765 0-3.975-2.464-3.975-3.977zm10.93 35.014l2.549-4.755c.13.13.562.648.648.778 1.771 2.204 4.32 4.063 7.69 4.063 3.586 0 5.314-1.47 5.314-4.15 0-1.08-.778-1.815-2.16-2.593-.691-.432-1.512-.822-2.376-1.21-.864-.433-1.815-.822-2.765-1.254-3.888-1.773-7.949-4.193-7.949-9.207 0-3.286 1.685-6.874 5.962-8.473 1.252-.476 2.548-.692 3.974-.692 3.672 0 6.783.995 9.548 2.68.043.044.345.173.388.217l-2.462 4.538c-.13-.13-.518-.648-.648-.778-1.599-1.772-4.061-3.328-6.826-3.328-2.592 0-4.104 2.032-4.104 4.02 0 1.859.864 3.112 2.203 4.063.648.519 1.469.951 2.333 1.34.864.433 1.815.822 2.765 1.254 3.845 1.643 7.949 3.501 7.949 8.732 0 4.668-5.141 8.213-11.146 8.213-4.234 0-7.474-1.34-10.498-3.242-.043-.043-.345-.173-.389-.216z" fill="#3B3B46"/></svg>