<svg width="291" height="101" fill="none" xmlns="http://www.w3.org/2000/svg"><path d="M.66 78.666c1.446-1.608 7.55-2.492 7.55-4.099V6.183c0-1.607-6.264-2.491-7.71-4.098h27.466c-1.445 1.607-7.79 2.49-7.79 4.098v68.384c0 1.608 6.264 2.492 7.71 4.099H.66z" fill="#3B3B46"/><path d="M6.925 93.29c0-2.893 2.088-7.393 7.308-7.393 5.14 0 7.308 4.58 7.308 7.393 0 2.733-2.168 7.233-7.308 7.233-5.06 0-7.308-4.34-7.308-7.233z" fill="#FF5C39"/><path d="M35.676 78.665V29.486c0-1.446-.161-2.25-1.125-3.294l-.964-.965 11.645-2.812c1.285 1.286 2.089 2.813 2.33 4.58v.643c2.81-3.616 6.184-5.866 13.733-5.866 7.228 0 13.17 2.01 16.785 6.75 3.935-4.74 9.797-6.75 17.427-6.75 15.018 0 20.319 10.607 20.319 19.768v37.125h-11.967V41.54c0-5.946-2.811-12.053-11.083-12.053-8.753 0-11.082 5.785-11.082 12.053v37.125H69.808V41.54c0-5.946-3.052-12.053-11.324-12.053-8.754 0-10.922 5.785-10.922 12.053v37.125H35.676zm110.667-56.893c13.171 0 22.568 6.107 22.568 16.393v24.589c.08 1.688.08 3.938.482 5.867.16 1.044.562 2.17 1.204 3.053.884 1.205 2.169 2.009 3.695 1.848 1.606-.08 3.132-.964 4.497-1.687v6.107c-2.731.884-5.542 1.366-8.352 1.366-5.863 0-9.397-2.572-11.244-6.107-3.293 3.375-8.433 6.268-14.375 6.268-14.215 0-21.765-6.107-21.765-16.875 0-8.84 6.425-13.58 16.625-16.313a58.376 58.376 0 017.469-1.447c.722-.16 3.373-.642 5.862-1.205.321-.08 3.534-.964 3.694-1.125.161-.08.241-.16.322-.16 0-1.367-.081-2.733-.161-4.18-.161-5.785-2.168-10.124-10.28-10.124-3.855 0-8.432 1.928-11.002 4.259l-.643.643c-.401.401-.803.884-1.204 1.285l-1.205 1.447-4.658-8.438c.241-.16.482-.24.723-.402.321-.24.642-.401 1.044-.642 4.818-2.733 10.44-4.42 16.704-4.42zm10.682 26.438c-2.41 1.366-6.666 2.49-9.236 3.214-8.914 2.25-12.93 3.857-12.93 11.41 0 4.822 4.417 9.804 10.762 9.804 4.256 0 8.352-2.33 10.601-5.143.401-.482.722-.964.722-1.446l.081-17.84zm29.393 30.455V30.772c0-.964 0-1.607-.08-2.491-.08-1.286-1.044-2.17-1.928-3.054l11.565-2.812a8.377 8.377 0 012.008 3.214c.241.804.321 1.607.321 2.41 3.534-3.213 8.754-6.267 14.456-6.267 4.096 0 9.396 2.893 9.396 7.473 0 2.973-2.168 5.384-5.139 5.384-5.783 0-4.819-5.866-8.192-5.866-4.658 0-10.521 4.66-10.521 8.196v41.706h-11.886zm55.735-56.25c.321.884.562 1.446.562 2.491v53.76h-11.886v-51.51c0-2.491-.803-3.053-2.249-4.741h13.573zM229.223 7.79c0-2.813 2.248-7.313 7.388-7.313 5.06 0 7.309 4.58 7.309 7.313 0 2.732-2.329 7.393-7.309 7.393-5.14 0-7.388-4.58-7.388-7.393zm20.319 65.09l4.738-8.84c.241.241 1.044 1.205 1.205 1.446 3.292 4.099 8.031 7.554 14.295 7.554 6.666 0 9.878-2.732 9.878-7.714 0-2.01-1.445-3.375-4.015-4.822-1.285-.803-2.811-1.526-4.418-2.25-1.606-.803-3.373-1.526-5.139-2.33-7.228-3.295-14.778-7.795-14.778-17.116 0-6.107 3.133-12.777 11.083-15.75 2.329-.884 4.739-1.286 7.389-1.286 6.826 0 12.609 1.848 17.749 4.982.08.08.642.322.722.402l-4.577 8.437c-.241-.24-.964-1.205-1.205-1.446-2.972-3.295-7.549-6.188-12.689-6.188-4.819 0-7.63 3.777-7.63 7.474 0 3.455 1.607 5.785 4.096 7.553 1.205.965 2.731 1.768 4.337 2.492 1.606.803 3.373 1.526 5.14 2.33C282.87 50.86 290.5 54.317 290.5 64.04c0 8.679-9.557 15.268-20.72 15.268-7.871 0-13.894-2.491-19.516-6.027-.08-.08-.642-.321-.722-.402z" fill="#3B3B46"/></svg>