<svg width="96" height="96" fill="none" xmlns="http://www.w3.org/2000/svg"><g clip-path="url(#clip0_113_154)" fill="#FF5C39"><path d="M26.581 38.563l10.135 8.868-20.69 18.963a1.5 1.5 0 002.028 2.212l20.933-19.187 6.524 5.709a1.5 1.5 0 001.978 0l6.524-5.709 20.933 19.187a1.5 1.5 0 102.027-2.212L56.285 47.432l20.347-17.803a1.501 1.501 0 00-1.975-2.258L46.5 52.005 29.942 37.517a19.581 19.581 0 10-3.36 1.046zM6 19.5A16.5 16.5 0 1122.5 36 16.519 16.519 0 016 19.5z"/><path d="M82.5 75a1.5 1.5 0 001.5-1.5v-48a4.504 4.504 0 00-4.5-4.5H46.32a1.5 1.5 0 100 3H79.5a1.5 1.5 0 011.5 1.5V72H36c-.317 0-.626.1-.882.287L21 82.554V73.5a1.5 1.5 0 00-1.5-1.5h-6a1.5 1.5 0 01-1.5-1.5V40.29a1.5 1.5 0 10-3 0V70.5a4.505 4.505 0 004.5 4.5H18v10.5a1.5 1.5 0 002.382 1.213L36.488 75H82.5z"/><path d="M88.5 30H87a1.5 1.5 0 000 3h1.5a1.5 1.5 0 011.5 1.5v45a1.5 1.5 0 01-1.5 1.5h-6a1.5 1.5 0 00-1.5 1.5v9.198L65.332 81.252A1.502 1.502 0 0064.5 81H33.825a1.5 1.5 0 000 3h30.22l17.623 11.748A1.5 1.5 0 0084 94.5V84h4.5a4.504 4.504 0 004.5-4.5v-45a4.504 4.504 0 00-4.5-4.5z"/></g><defs><clipPath id="clip0_113_154"><path fill="#fff" d="M0 0h96v96H0z"/></clipPath></defs></svg>