<svg width="40" height="40" fill="none" xmlns="http://www.w3.org/2000/svg"><circle cx="20" cy="20" r="20" fill="url(#paint0_radial_178_33160)"/><path d="M20 7.083c-7.527 0-13.333 5.538-13.333 12.957 0 3.872 1.56 7.259 4.194 9.57.43.43.322.646.43 3.119 0 .591.483 1.021 1.075 1.021.107 0 .269 0 .43-.054 2.796-1.236 2.85-1.344 3.333-1.236 8.226 2.258 17.205-3.01 17.205-12.42 0-7.419-5.807-12.956-13.334-12.956zm8.011 10l-3.925 6.183c-.322.538-1.075.968-1.666.968-.377 0-.914-.215-1.237-.43l-3.118-2.312c-.108-.107-.323-.161-.484-.161a1.02 1.02 0 00-.484.161l-4.193 3.172c-.592.43-1.29-.269-.914-.86l3.924-6.183c.323-.537 1.076-.914 1.667-.914.376 0 .914.161 1.236.377l3.119 2.311c.107.108.322.162.484.162.161 0 .376-.054.483-.162l4.194-3.172c.591-.43 1.29.27.914.86z" fill="#fff"/><defs><radialGradient id="paint0_radial_178_33160" cx="0" cy="0" r="1" gradientUnits="userSpaceOnUse" gradientTransform="matrix(23.67842 -36.59047 36.5903 23.6783 7.7 39.786)"><stop stop-color="#09F"/><stop offset=".61" stop-color="#A033FF"/><stop offset=".935" stop-color="#FF5280"/><stop offset="1" stop-color="#FF7061"/></radialGradient></defs></svg>