<svg width="42" height="42" fill="none" xmlns="http://www.w3.org/2000/svg"><g clip-path="url(#clip0_1950_323348)" fill="#FF5C39" stroke="#FF5C39" stroke-width=".5"><path d="M22.969 22.313a.656.656 0 00-.657.656v11.156h-21V5.906H7.93a3.937 3.937 0 007.765 0h6.617v13.125a.656.656 0 101.313 0V3.938A2.627 2.627 0 0021 1.312H2.625A2.628 2.628 0 000 3.938v34.126a2.628 2.628 0 002.625 2.624H21a2.627 2.627 0 002.625-2.624V22.968a.656.656 0 00-.656-.657zM2.625 2.625H21a1.314 1.314 0 011.313 1.313v.656h-7.22a.656.656 0 00-.655.656 2.625 2.625 0 01-5.25 0 .656.656 0 00-.657-.656H1.312v-.657a1.314 1.314 0 011.313-1.312zM21 39.375H2.625a1.313 1.313 0 01-1.313-1.313v-2.624h21v2.624A1.314 1.314 0 0121 39.376z"/><path d="M11.813 6.563a1.312 1.312 0 100-2.625 1.312 1.312 0 000 2.624zm1.312 30.187H10.5a.656.656 0 100 1.313h2.625a.656.656 0 100-1.313zm-1.312-20.344a2.625 2.625 0 100 5.251 2.625 2.625 0 000-5.25zm0 3.938a1.313 1.313 0 110-2.626 1.313 1.313 0 010 2.626z"/></g><defs><clipPath id="clip0_1950_323348"><path fill="#fff" d="M0 0h42v42H0z"/></clipPath></defs></svg>