<svg width="42" height="42" fill="none" xmlns="http://www.w3.org/2000/svg"><path d="M32.156 22.313a.656.656 0 00-.656.656v11.156h-21V5.906h6.617a3.937 3.937 0 007.766 0H31.5v13.125a.656.656 0 101.313 0V3.938a2.627 2.627 0 00-2.626-2.626H11.813a2.628 2.628 0 00-2.624 2.625v34.126a2.628 2.628 0 002.624 2.624h18.376a2.627 2.627 0 002.625-2.624V22.968a.656.656 0 00-.657-.657zM11.813 2.625h18.374A1.314 1.314 0 0131.5 3.938v.656h-7.219a.656.656 0 00-.656.656 2.625 2.625 0 01-5.25 0 .656.656 0 00-.656-.656H10.5v-.657a1.313 1.313 0 011.313-1.312zm18.374 36.75H11.813a1.314 1.314 0 01-1.312-1.313v-2.624h21v2.624a1.314 1.314 0 01-1.313 1.313z" fill="#fff" stroke="#fff"/><path d="M21 6.563a1.312 1.312 0 100-2.625 1.312 1.312 0 000 2.624zm1.313 30.187h-2.625a.656.656 0 100 1.313h2.625a.656.656 0 100-1.313zM21 16.406a2.625 2.625 0 100 5.251 2.625 2.625 0 000-5.25zm0 3.938a1.313 1.313 0 110-2.626 1.313 1.313 0 010 2.626z" fill="#fff" stroke="#fff"/></svg>