<svg width="157" height="67" fill="none" xmlns="http://www.w3.org/2000/svg"><g clip-path="url(#clip0_113_167)"><path d="M72.416 30.347H51.024S49.897 44.3 62.197 55.842C73.4 66.351 86.85 65.457 86.85 65.457V44.746c-7.068 0-14.435-5.85-14.435-14.399z" fill="#F4B500"/><path d="M84.747 18.035V1.488s-11.85-.643-20.99 8.948c-7.163 7.411-7.8 16.759-7.8 16.759s13.268 2.47 16.451 3.152c-.086-6.98 5.406-12.312 12.34-12.312z" fill="#4481F6"/><path d="M55.964 27.195s-.284 1.702-.118 3.153h16.57l-16.452-3.153z" fill="#3566C5"/><path d="M84.748 18.035l3.19-11.434s-2.064-.266-3.19-.14v11.574z" fill="#AF362B"/><path d="M84.748 18.035s10.235-.211 10.708 10.744h11.188s1.009-17.888-18.705-22.177a7143.949 7143.949 0 01-3.191 11.433z" fill="#DB4533"/><path d="M86.86 44.746l3.852-8.525s4.547-2.148 4.752-7.45c1.473.643 5.019 2.102 6.642 2.816-.355 2.729-4.018 12.845-15.247 13.159z" fill="#CCC"/><path d="M90.712 36.221s-1.615 1.098-3.853.91v7.615l3.853-8.525zm4.744-7.45h7.036s.166 1.02-.394 2.816c-1.473-.636-6.642-2.816-6.642-2.816z" fill="#B7B7B7"/></g><defs><clipPath id="clip0_113_167"><path fill="#fff" transform="translate(51 1.48)" d="M0 0h55.652v64H0z"/></clipPath></defs></svg>