<svg width="158" height="67" fill="none" xmlns="http://www.w3.org/2000/svg"><path d="M120.555 16.408h2.574v16.038h-2.574V16.408zm6.154 15.322a5.23 5.23 0 01-2.003-1.948 5.29 5.29 0 01-.724-2.723 5.454 5.454 0 01.714-2.794 5.073 5.073 0 011.921-1.903 5.364 5.364 0 012.671-.687 4.486 4.486 0 013.132 1.081 6.216 6.216 0 011.683 2.346l.256.611-7.521 2.978c.233.501.617.924 1.102 1.215.486.29 1.052.436 1.624.417a3.342 3.342 0 001.59-.396 3.184 3.184 0 001.181-1.093l1.917 1.224a6.094 6.094 0 01-1.811 1.651 5.315 5.315 0 01-2.877.735 5.762 5.762 0 01-2.855-.714zm4.752-6.833a1.69 1.69 0 00-.789-.825 2.65 2.65 0 00-1.299-.316c-.48.01-.949.136-1.364.366a2.971 2.971 0 00-1.151 1.082 2.985 2.985 0 00-.425 1.693l5.028-2zm-17.715 12.364c-1.269 0-2.322-.291-3.158-.874-.824-.583-1.377-1.275-1.661-2.075l2.086-.874c.216.542.56.976 1.032 1.301.486.34 1.053.509 1.701.509.945 0 1.68-.285 2.207-.854.54-.556.809-1.343.809-2.36v-.956h-.121c-.337.488-.79.875-1.356 1.16-.554.27-1.195.406-1.924.406a4.581 4.581 0 01-2.409-.671c-.742-.447-1.336-1.078-1.782-1.892-.432-.827-.648-1.77-.648-2.827 0-1.058.216-1.993.648-2.807.446-.827 1.04-1.464 1.782-1.912a4.48 4.48 0 012.409-.692c.716 0 1.357.143 1.924.428a3.552 3.552 0 011.356 1.16h.121v-1.262h2.126v9.804c0 1.126-.216 2.081-.648 2.868a4.27 4.27 0 01-1.822 1.81c-.769.407-1.66.61-2.672.61zm.02-6.65c.54 0 1.039-.13 1.498-.387a2.919 2.919 0 001.094-1.16c.27-.515.404-1.118.404-1.81 0-1.058-.29-1.878-.87-2.461-.567-.597-1.276-.895-2.126-.895a2.93 2.93 0 00-1.518.407 2.778 2.778 0 00-1.094 1.139c-.27.502-.405 1.105-.405 1.81 0 .705.135 1.309.405 1.81.27.502.635.889 1.094 1.16.459.257.965.386 1.518.386zm-11.765 1.836c-1.049 0-1.989-.229-2.82-.685a5.06 5.06 0 01-1.942-1.917c-.463-.809-.695-1.709-.695-2.7 0-.991.232-1.891.695-2.7a4.923 4.923 0 011.942-1.897c.831-.47 1.771-.704 2.82-.704 1.05 0 1.99.234 2.821.704a5.057 5.057 0 011.941 1.917c.464.808.695 1.702.695 2.68 0 .991-.231 1.891-.695 2.7a5.057 5.057 0 01-1.941 1.917c-.831.456-1.771.684-2.821.684zm0-1.976c.573 0 1.104-.13 1.595-.392.49-.274.878-.658 1.164-1.154.3-.508.45-1.102.45-1.78 0-.678-.15-1.265-.45-1.76a2.895 2.895 0 00-1.164-1.135 3.219 3.219 0 00-1.595-.411c-.572 0-1.103.137-1.594.41a3.05 3.05 0 00-1.185 1.135c-.286.496-.43 1.083-.43 1.761 0 .678.144 1.272.43 1.78.3.496.695.88 1.185 1.154a3.343 3.343 0 001.594.392zm-11.935 1.976c-1.049 0-1.989-.229-2.82-.685a5.059 5.059 0 01-1.942-1.917c-.463-.809-.695-1.709-.695-2.7 0-.991.232-1.891.695-2.7a4.922 4.922 0 011.942-1.897c.831-.47 1.771-.704 2.82-.704 1.05 0 1.99.234 2.82.704a5.058 5.058 0 011.942 1.917c.464.808.695 1.702.695 2.68 0 .991-.231 1.891-.695 2.7a5.059 5.059 0 01-1.941 1.917c-.831.456-1.772.684-2.82.684zm0-1.976c.573 0 1.104-.13 1.594-.392.491-.274.88-.658 1.165-1.154.3-.508.45-1.102.45-1.78 0-.678-.15-1.265-.45-1.76a2.895 2.895 0 00-1.165-1.135 3.216 3.216 0 00-1.594-.411c-.572 0-1.103.137-1.594.41a3.05 3.05 0 00-1.185 1.135c-.286.496-.43 1.083-.43 1.761 0 .678.144 1.272.43 1.78.3.496.695.88 1.185 1.154a3.34 3.34 0 001.594.392zm-14.202 1.976c-1.583 0-3.043-.364-4.378-1.093a8.5 8.5 0 01-3.19-2.987c-.777-1.278-1.165-2.697-1.165-4.257 0-1.56.388-2.972 1.165-4.235a8.441 8.441 0 013.19-3.01c1.335-.728 2.795-1.092 4.378-1.092 1.258 0 2.43.216 3.517.647 1.087.43 1.995 1.032 2.725 1.805l-1.817 1.739a5.515 5.515 0 00-1.956-1.338c-.745-.312-1.576-.468-2.492-.468a6.353 6.353 0 00-3.004.736 5.709 5.709 0 00-2.236 2.095c-.559.907-.838 1.947-.838 3.12 0 1.175.28 2.215.838 3.122a5.709 5.709 0 002.236 2.095 6.4 6.4 0 003.027.735c.994 0 1.825-.14 2.492-.423a6.357 6.357 0 001.793-1.137c.342-.327.63-.735.862-1.226a4.99 4.99 0 00.489-1.605h-5.659v-2.229h8.128c.077.416.116.847.116 1.293 0 1.01-.163 1.984-.489 2.92a6.116 6.116 0 01-1.56 2.407c-1.568 1.59-3.626 2.386-6.172 2.386zm-3.63 4.996h1.958l5.546 14.422h-1.896l-1.468-3.968h-6.301l-1.468 3.968h-1.897l5.526-14.422zm3.548 8.843l-1.937-5.197-.591-1.551h-.082l-.57 1.551-1.938 5.197h5.118zm5.138-4.694h1.651v1.511h.082c.285-.51.74-.94 1.366-1.29a3.92 3.92 0 011.998-.543c1.25 0 2.202.363 2.855 1.088.666.711.999 1.685.999 2.92v6.587h-1.733V45.54c0-.953-.231-1.645-.694-2.074-.462-.43-1.094-.645-1.896-.645a2.6 2.6 0 00-1.509.463 3.14 3.14 0 00-1.02 1.229 3.511 3.511 0 00-.366 1.571v5.781h-1.734V41.592zm14.246 10.596c-.761 0-1.441-.148-2.04-.444-.597-.295-1.06-.698-1.386-1.208a3.284 3.284 0 01-.489-1.773c0-1.087.415-1.933 1.244-2.538.829-.617 1.876-.926 3.14-.926.625 0 1.203.067 1.733.201.544.134.959.289 1.244.463v-.624c0-.766-.272-1.377-.816-1.833-.543-.47-1.23-.705-2.06-.705-.584 0-1.12.127-1.61.383-.49.241-.877.584-1.162 1.027l-1.305-.967a4.168 4.168 0 011.672-1.45c.72-.35 1.516-.524 2.385-.524 1.414 0 2.522.37 3.324 1.108.816.725 1.223 1.719 1.223 2.981v6.506h-1.651v-1.47h-.082c-.299.497-.747.92-1.345 1.269-.599.349-1.271.523-2.019.523zm.163-1.511c.585 0 1.128-.148 1.631-.443a3.38 3.38 0 001.203-1.189c.3-.497.449-1.04.449-1.631a4.31 4.31 0 00-1.203-.524 5.53 5.53 0 00-1.509-.202c-.952 0-1.672.195-2.161.585a1.861 1.861 0 00-.714 1.51c0 .564.217 1.02.652 1.37.435.35.986.524 1.652.524zm7.238-13.234h1.734v14.422h-1.734V37.443zm7.073 13.777l-4.302-9.627h1.876l3.262 7.634h.041l3.14-7.634h1.876l-6.423 14.623h-1.794l2.324-4.995zm11.29.807c-.422 0-.816-.068-1.183-.202a2.7 2.7 0 01-.897-.544 2.482 2.482 0 01-.612-.886c-.136-.336-.204-.745-.204-1.229v-6.022h-1.815v-1.551h1.815v-2.901h1.733v2.9h2.529v1.552h-2.529v5.6c0 .563.109.98.327 1.248.258.296.632.443 1.121.443.394 0 .775-.114 1.142-.342v1.672a2.667 2.667 0 01-.632.201c-.204.04-.469.06-.795.06zm4.182-12.328c-.34 0-.633-.12-.877-.362a1.174 1.174 0 01-.367-.867c0-.335.122-.617.367-.846.244-.241.537-.362.877-.362.339 0 .632.12.876.362.245.229.367.51.367.846 0 .336-.122.625-.367.867a1.16 1.16 0 01-.876.362zm-.857 1.894h1.713v10.272h-1.713V41.592zm8.64 10.595c-1.006 0-1.91-.236-2.712-.706a5.104 5.104 0 01-1.876-1.953c-.449-.833-.673-1.766-.673-2.8 0-1.034.224-1.968.673-2.8a4.924 4.924 0 011.876-1.954c.802-.47 1.706-.705 2.712-.705 1.128 0 2.073.262 2.834.786a4.186 4.186 0 011.652 2.054l-1.57.645c-.259-.631-.646-1.108-1.163-1.43-.503-.336-1.114-.504-1.835-.504-.612 0-1.182.168-1.713.504-.53.322-.958.778-1.284 1.37-.313.59-.469 1.268-.469 2.034 0 .765.156 1.443.469 2.034a3.756 3.756 0 001.284 1.39 3.241 3.241 0 001.713.483c.734 0 1.366-.167 1.896-.503.531-.336.925-.813 1.183-1.43l1.55.644a4.52 4.52 0 01-1.713 2.055c-.775.524-1.72.785-2.834.785zm9.642 0c-1.114 0-2.045-.256-2.793-.766-.748-.524-1.278-1.188-1.591-1.994l1.55-.685c.258.618.639 1.094 1.142 1.43a3.046 3.046 0 001.692.504c.653 0 1.21-.128 1.672-.383.463-.268.694-.644.694-1.128 0-.43-.184-.772-.551-1.027-.367-.269-.945-.497-1.733-.685l-1.264-.322c-.829-.202-1.509-.544-2.039-1.028-.53-.483-.796-1.108-.796-1.873 0-.59.177-1.108.531-1.551.367-.457.849-.806 1.447-1.047a5.12 5.12 0 011.937-.363c.911 0 1.72.195 2.427.584.72.39 1.23.933 1.529 1.632l-1.509.685c-.462-.914-1.284-1.37-2.467-1.37-.571 0-1.074.134-1.509.403-.421.255-.632.584-.632.987 0 .376.15.685.449.926.299.229.747.417 1.345.564l1.509.383c1.02.255 1.788.638 2.304 1.148.517.497.775 1.108.775 1.833a2.69 2.69 0 01-.55 1.672c-.367.47-.863.833-1.489 1.088-.625.255-1.318.383-2.08.383z" fill="#5F6368"/><path d="M56.495 12.476v40.097c0 2.513-2.062 4.55-4.606 4.55H39.505V12.476c0-2.512 2.063-4.549 4.607-4.549h7.777c2.544 0 4.606 2.037 4.606 4.55z" fill="url(#paint0_linear_162_12839)"/><path d="M39.506 23.556v33.566H11.31c-2.544 0-4.606-2.036-4.606-4.55v-7.517c0-2.513 2.062-4.55 4.606-4.55h11.206V28.106c0-2.513 2.062-4.55 4.606-4.55h12.383z" fill="#FFC720"/><path d="M56.495 12.477v27.862l-16.99-16.783v-11.08c0-2.512 2.063-4.549 4.606-4.549h7.779c2.543 0 4.605 2.037 4.605 4.55z" fill="url(#paint1_linear_162_12839)"/><defs><linearGradient id="paint0_linear_162_12839" x1="39.505" y1="32.525" x2="56.495" y2="32.525" gradientUnits="userSpaceOnUse"><stop stop-color="#E9710B"/><stop offset="1" stop-color="#F37900"/></linearGradient><linearGradient id="paint1_linear_162_12839" x1="39.506" y1="18.156" x2="56.495" y2="18.156" gradientUnits="userSpaceOnUse"><stop stop-color="#F37F09"/><stop offset="1" stop-color="#F57C00"/></linearGradient></defs></svg>