<svg width="158" height="67" fill="none" xmlns="http://www.w3.org/2000/svg"><path d="M60.919 36.324h6.083c1.01 0 1.944.227 2.802.682a5.216 5.216 0 012.045 1.918c.522.808.782 1.725.782 2.752 0 1.026-.26 1.952-.782 2.776a5.277 5.277 0 01-2.045 1.894 5.897 5.897 0 01-2.802.681H63.04v7.37h-2.12V36.325zm6.134 8.659c.673 0 1.262-.16 1.767-.48.522-.32.925-.732 1.212-1.237a3.18 3.18 0 00.429-1.59c0-.556-.143-1.086-.43-1.59a3.41 3.41 0 00-1.211-1.237c-.505-.32-1.094-.48-1.767-.48h-4.014v6.614h4.014zm12.571 9.819c-1.228 0-2.33-.295-3.307-.884a6.243 6.243 0 01-2.297-2.423c-.538-1.043-.807-2.213-.807-3.509 0-1.245.252-2.39.757-3.433a6.326 6.326 0 012.196-2.499c.942-.622 2.036-.934 3.281-.934 1.263 0 2.356.286 3.282.859a5.448 5.448 0 012.12 2.322c.505.993.758 2.129.758 3.408 0 .252-.026.47-.076.656H75.358c.05.976.286 1.8.707 2.474.42.673.95 1.178 1.59 1.514a4.426 4.426 0 002.045.505c1.649 0 2.92-.774 3.811-2.322l1.818.883a6.444 6.444 0 01-2.272 2.474c-.942.606-2.087.909-3.433.909zm3.71-8.204a4.178 4.178 0 00-.454-1.615c-.269-.539-.698-.993-1.287-1.364-.572-.37-1.296-.555-2.17-.555-1.01 0-1.869.328-2.576.984-.69.64-1.144 1.49-1.363 2.55h7.85zm4.531-5.074h2.146v5.831h.1l5.428-5.83h2.7v.1l-5.805 6.008 6.058 6.664v.1h-2.625l-5.755-6.486h-.101v6.487h-2.146V41.524zM101.214 54.6c-.438 0-.825-.067-1.161-.202l.025-1.919c.269.085.555.127.858.127.387 0 .682-.127.884-.379.201-.27.336-.698.403-1.287.085-.606.127-1.447.127-2.524v-6.892h10.627v12.874h-2.121v-10.93h-6.411v5.629c0 1.986-.295 3.4-.884 4.24-.589.842-1.371 1.263-2.347 1.263zm18.708.202c-.942 0-1.784-.185-2.524-.556-.741-.37-1.313-.875-1.717-1.514-.404-.656-.606-1.397-.606-2.221 0-1.364.514-2.424 1.54-3.181 1.027-.774 2.323-1.161 3.888-1.161.774 0 1.489.084 2.145.252.673.169 1.187.362 1.54.58v-.782c0-.959-.337-1.725-1.01-2.297-.673-.589-1.523-.883-2.549-.883a4.2 4.2 0 00-1.994.48 3.549 3.549 0 00-1.439 1.287l-1.616-1.212c.505-.774 1.195-1.38 2.07-1.817.892-.438 1.877-.657 2.954-.657 1.75 0 3.121.463 4.114 1.389 1.01.908 1.515 2.154 1.515 3.736v8.153h-2.045v-1.843h-.101c-.37.623-.926 1.153-1.666 1.59-.74.438-1.573.657-2.499.657zm.202-1.893c.724 0 1.397-.185 2.019-.556a4.215 4.215 0 001.49-1.489 3.93 3.93 0 00.555-2.045c-.404-.269-.9-.488-1.489-.656a6.77 6.77 0 00-1.868-.252c-1.178 0-2.07.244-2.676.732-.589.488-.883 1.119-.883 1.893 0 .707.269 1.279.807 1.716.539.438 1.22.657 2.045.657zm8.816-11.385h2.549l4.544 8.658h.076l4.544-8.658h2.574v12.874h-2.145v-7.093l.101-2.423h-.101l-4.241 7.9h-1.515l-4.266-7.9h-.101l.101 2.423v7.093h-2.12V41.524zm21.192 13.278c-.942 0-1.784-.185-2.524-.556-.74-.37-1.313-.875-1.716-1.514-.404-.656-.606-1.397-.606-2.221 0-1.364.513-2.424 1.539-3.181 1.027-.774 2.323-1.161 3.888-1.161.774 0 1.489.084 2.145.252.674.169 1.187.362 1.54.58v-.782c0-.959-.336-1.725-1.009-2.297-.674-.589-1.523-.883-2.55-.883-.724 0-1.388.16-1.994.48a3.549 3.549 0 00-1.439 1.287l-1.615-1.212c.504-.774 1.194-1.38 2.069-1.817.892-.438 1.877-.657 2.954-.657 1.75 0 3.121.463 4.114 1.389 1.01.908 1.515 2.154 1.515 3.736v8.153h-2.045v-1.843h-.101c-.37.623-.925 1.153-1.666 1.59-.74.438-1.573.657-2.499.657zm.202-1.893c.724 0 1.397-.185 2.02-.556a4.212 4.212 0 001.489-1.489 3.93 3.93 0 00.555-2.045c-.404-.269-.9-.488-1.489-.656a6.77 6.77 0 00-1.868-.252c-1.178 0-2.07.244-2.676.732-.589.488-.883 1.119-.883 1.893 0 .707.269 1.279.808 1.716.538.438 1.22.657 2.044.657z" fill="#5F6368"/><path d="M69.845 27.265c-2.812 0-5.511-1.1-7.518-3.065a10.69 10.69 0 01-3.212-7.44 10.69 10.69 0 013.178-7.504 10.744 10.744 0 017.552-3.1 10.117 10.117 0 017.253 2.91l-2.031 2.038a7.413 7.413 0 00-5.222-2.064 7.71 7.71 0 00-5.245 2.355 7.672 7.672 0 000 10.644 7.71 7.71 0 005.245 2.354 7.144 7.144 0 005.359-2.113 6.11 6.11 0 001.583-3.63H69.82v-2.96h9.758c.11.62.165 1.248.162 1.877a9.509 9.509 0 01-2.492 6.738 9.66 9.66 0 01-7.403 2.959z" fill="#4285F4"/><path d="M95.144 20.489a6.812 6.812 0 01-1.141 3.798 6.837 6.837 0 01-3.066 2.525 6.858 6.858 0 01-7.464-1.464 6.82 6.82 0 01-1.495-7.44 6.829 6.829 0 012.52-3.067 6.854 6.854 0 013.804-1.152 6.746 6.746 0 014.862 1.956 6.71 6.71 0 011.98 4.844zm-2.991 0a3.843 3.843 0 00-1.012-2.923 3.865 3.865 0 00-4.389-.917 3.864 3.864 0 00-2.102 2.273 3.845 3.845 0 00-.2 1.567 3.845 3.845 0 001.013 2.922 3.864 3.864 0 002.839 1.24 3.873 3.873 0 002.84-1.24 3.853 3.853 0 001.01-2.922z" fill="#EA4335"/><path d="M110.659 20.49a6.812 6.812 0 01-1.15 3.8 6.84 6.84 0 01-3.076 2.519 6.858 6.858 0 01-7.467-1.494 6.81 6.81 0 01-1.457-7.456 6.83 6.83 0 012.542-3.054 6.856 6.856 0 013.816-1.127 6.733 6.733 0 014.839 1.975 6.695 6.695 0 011.953 4.837zm-2.991 0a3.825 3.825 0 00-1.045-2.856 3.853 3.853 0 00-4.323-.89 3.847 3.847 0 00-2.094 2.21 3.846 3.846 0 00-.227 1.536 3.845 3.845 0 001.045 2.856 3.847 3.847 0 002.8 1.204 3.858 3.858 0 002.799-1.204 3.842 3.842 0 001.045-2.856z" fill="#FBBC05"/><path d="M125.452 14.087v12.207c0 4.973-2.966 7.074-6.468 7.074a6.519 6.519 0 01-3.636-1.088 6.496 6.496 0 01-2.408-2.928l2.605-1.081a3.741 3.741 0 003.439 2.424c2.244 0 3.639-1.392 3.639-3.99v-.982h-.062a4.638 4.638 0 01-3.589 1.541 6.825 6.825 0 01-4.631-2.09 6.79 6.79 0 010-9.408 6.825 6.825 0 014.631-2.09 4.714 4.714 0 013.589 1.517h.112v-1.106h2.779zm-2.629 6.402a3.816 3.816 0 00-.935-2.848 3.844 3.844 0 00-2.704-1.304 3.963 3.963 0 00-2.733 1.302 3.936 3.936 0 00-1.006 2.85 3.906 3.906 0 001.017 2.82 3.91 3.91 0 002.722 1.27 3.805 3.805 0 003.454-2.585c.163-.484.225-.996.185-1.505z" fill="#4285F4"/><path d="M131.347 6.878v19.978h-2.991V6.878h2.991z" fill="#34A853"/><path d="M143.548 22.714l2.318 1.504a6.777 6.777 0 01-5.683 3.009 6.684 6.684 0 01-4.803-1.948 6.636 6.636 0 01-1.952-4.79 6.464 6.464 0 013.878-6.26 6.49 6.49 0 012.54-.54 6.33 6.33 0 013.6 1.238 6.304 6.304 0 012.233 3.076l.311.77-9.11 3.73a3.462 3.462 0 003.303 2.063 3.92 3.92 0 003.365-1.852zm-7.154-2.486l6.094-2.486a2.66 2.66 0 00-2.492-1.442 3.748 3.748 0 00-2.641 1.223 3.726 3.726 0 00-.961 2.742v-.037z" fill="#EA4335"/><path d="M19.937 13.608L3.37 42.305l14.35 8.284 16.568-28.696-14.35-8.285z" fill="#FBBC04"/><path d="M50.856 42.302l-16.57-28.697a8.285 8.285 0 00-14.35 8.283l16.57 28.697a8.287 8.287 0 0011.316 3.033 8.287 8.287 0 003.034-11.316z" fill="#4285F4"/><path d="M10.546 54.728a8.283 8.283 0 100-16.566 8.283 8.283 0 000 16.566z" fill="#34A853"/></svg>