<svg width="158" height="67" fill="none" xmlns="http://www.w3.org/2000/svg"><g clip-path="url(#clip0_101_466)"><path fill="#fff" d="M46.5 1.48h64v64h-64z"/><path d="M106.418 1.48h-55.83A4.087 4.087 0 0046.5 5.568v55.825a4.09 4.09 0 004.088 4.088h55.83a4.091 4.091 0 004.088-4.088V5.563a4.094 4.094 0 00-4.088-4.083zm-30.86 36.07c0 1.776-.166 3.296-.506 4.547-.34 1.252-.852 2.253-1.531 3.04a6.012 6.012 0 01-2.557 1.704c-1.019.363-2.205.542-3.558.542-1.192 0-2.264-.19-3.23-.56a6.75 6.75 0 01-4.017-4.136 9.4 9.4 0 01-.548-3.319v-.799h3.832c0 3.57 1.323 5.358 3.97 5.358.679 0 1.275-.078 1.81-.239a2.777 2.777 0 001.348-.917c.37-.447.643-1.067.834-1.871.19-.805.286-1.848.286-3.14V17.783h3.88l-.012 19.767zm21.402 5.8a6.448 6.448 0 01-1.68 2.115 8.05 8.05 0 01-2.659 1.412c-1.043.334-2.21.5-3.504.5-5.727 0-8.749-2.258-9.059-6.786h3.767c.018 2.556 1.77 3.837 5.25 3.837.775 0 1.466-.083 2.056-.256.596-.167 1.09-.405 1.484-.703a2.92 2.92 0 001.216-2.39 2.722 2.722 0 00-.232-1.21c-.155-.31-.46-.578-.906-.816a9.826 9.826 0 00-1.86-.691 108.77 108.77 0 00-3.11-.852 39.03 39.03 0 01-3.225-.93 7.683 7.683 0 01-2.229-1.12 4.055 4.055 0 01-1.293-1.627c-.28-.65-.417-1.466-.417-2.45 0-.863.185-1.668.548-2.413a5.676 5.676 0 011.58-1.93c.679-.543 1.507-.966 2.473-1.276a10.67 10.67 0 013.242-.464c5.536 0 8.355 1.966 8.439 5.905h-3.707c-.131-1.966-1.615-2.956-4.452-2.956-.632 0-1.21.066-1.752.191a4.802 4.802 0 00-1.4.542 2.73 2.73 0 00-.93.87 2.18 2.18 0 00-.328 1.198c0 .411.053.751.155 1.013.101.268.345.513.739.74.387.226.965.452 1.728.672.763.221 1.806.495 3.129.817 1.275.31 2.39.626 3.331.96.936.333 1.717.732 2.348 1.203a4.33 4.33 0 011.389 1.716c.298.674.453 1.52.453 2.533a5.79 5.79 0 01-.584 2.646z" fill="#3A4393"/></g><defs><clipPath id="clip0_101_466"><path fill="#fff" transform="translate(46.5 1.48)" d="M0 0h64v64H0z"/></clipPath></defs></svg>