<svg width="157" height="67" fill="none" xmlns="http://www.w3.org/2000/svg"><g clip-path="url(#clip0_101_448)"><path fill="#fff" d="M-.5 17.48h157v32H-.5z"/><path d="M15.099 34.233c0 2.448-.697 4.51-2.096 6.178-1.46 1.748-3.356 2.626-5.678 2.626-2.328 0-4.218-.877-5.678-2.626-1.4-1.669-2.102-3.73-2.102-6.178 0-2.454.703-4.514 2.102-6.177 1.476-1.732 3.372-2.598 5.678-2.598 2.322 0 4.218.866 5.678 2.598 1.399 1.662 2.096 3.723 2.096 6.177zm-4.623 0c0-1.108-.254-2.044-.763-2.8-.569-.86-1.365-1.287-2.388-1.287s-1.82.427-2.389 1.287c-.514.756-.768 1.692-.768 2.8 0 1.103.254 2.05.768 2.829.57.86 1.366 1.288 2.389 1.288 1.023 0 1.82-.428 2.388-1.288.509-.78.763-1.726.763-2.829zm21.337 0c0 2.287-.63 4.284-1.897 5.993-1.354 1.87-3.101 2.811-5.225 2.811-1.498 0-2.77-.456-3.809-1.356 0 .207.022.71.066 1.513.045.807.066 1.465.066 1.985 0 2.87-.818 4.301-2.454 4.301-.67 0-1.216-.248-1.653-.739-.432-.496-.647-1.092-.647-1.795V28.281c0-.681.22-1.27.663-1.766.442-.491.99-.739 1.643-.739.983 0 1.702.513 2.156 1.535.967-1.235 2.289-1.853 3.964-1.853 2.129 0 3.87.923 5.23 2.777 1.261 1.715 1.897 3.712 1.897 5.998zm-4.623 0c0-1.108-.259-2.044-.768-2.8-.57-.86-1.366-1.287-2.389-1.287-1.022 0-1.819.427-2.388 1.287-.509.756-.763 1.692-.763 2.8 0 1.103.254 2.05.763 2.829.57.86 1.366 1.288 2.388 1.288 1.023 0 1.82-.428 2.39-1.288.508-.78.767-1.726.767-2.829zm21.442-.519c0 .808-.183 1.362-.548 1.674-.364.306-.934.462-1.702.462h-8.344c0 .924.415 1.633 1.244 2.13.67.387 1.488.584 2.455.584.753 0 1.654-.261 2.71-.774 1.056-.52 1.735-.774 2.03-.774.535 0 .988.202 1.364.617.37.41.559.907.559 1.479 0 1.321-.945 2.35-2.837 3.088a12.192 12.192 0 01-4.406.837c-2.41 0-4.357-.837-5.844-2.505-1.488-1.668-2.234-3.764-2.234-6.299 0-2.413.774-4.474 2.322-6.194 1.542-1.721 3.462-2.581 5.75-2.581 2.129 0 3.91.814 5.336 2.442 1.426 1.628 2.145 3.568 2.145 5.814zm-4.622-1.213c-.022-.739-.349-1.408-.979-2.015-.63-.606-1.299-.906-2.007-.906-.73 0-1.41.3-2.04.906-.63.607-.946 1.276-.946 2.015h5.972zm20.153 7.684c0 .705-.216 1.299-.647 1.796-.437.49-.984.74-1.653.74-1.614 0-2.422-1.34-2.422-4.013 0-.514.033-1.322.1-2.436.072-1.11.105-1.923.105-2.437 0-2.835-.88-4.255-2.632-4.255-1.753 0-2.626 1.42-2.626 4.255 0 .514.027 1.328.077 2.437.055 1.114.083 1.922.083 2.436 0 2.673-.796 4.012-2.388 4.012-.67 0-1.217-.248-1.648-.74-.437-.496-.653-1.09-.653-1.795v-11.91c0-.699.216-1.292.653-1.772.431-.485.984-.727 1.653-.727 1.106 0 1.874.513 2.306 1.535.746-1.235 2.067-1.853 3.958-1.853 1.753 0 3.146.485 4.17 1.449 1.044 1.034 1.564 2.453 1.564 4.26v9.018zm14.502-.513c0 1.09-.679 1.956-2.04 2.592a7.924 7.924 0 01-3.433.773c-2.328 0-4.219-.877-5.678-2.626-1.4-1.669-2.101-3.73-2.101-6.178 0-2.454.713-4.526 2.145-6.223 1.432-1.703 3.306-2.552 5.634-2.552 1.344 0 2.5.208 3.462.618 1.342.554 2.01 1.42 2.01 2.598 0 .594-.175 1.12-.53 1.576-.353.45-.807.681-1.36.681-.376 0-.918-.133-1.625-.392-.707-.266-1.271-.393-1.686-.393-1.1 0-1.957.41-2.571 1.23-.57.738-.857 1.685-.857 2.857 0 1.103.254 2.039.769 2.795.569.883 1.37 1.322 2.393 1.322.454 0 1.073-.139 1.863-.422.791-.277 1.361-.421 1.715-.421.514 0 .956.23 1.332.681.37.456.558.946.558 1.484zm16.803.513c0 .705-.215 1.299-.647 1.796-.436.49-.989.74-1.66.74-1.005 0-1.723-.515-2.155-1.537-.967 1.236-2.289 1.853-3.964 1.853-2.145 0-3.903-.94-5.264-2.811-1.239-1.71-1.862-3.706-1.862-5.993 0-2.286.624-4.283 1.862-5.998 1.383-1.854 3.135-2.777 5.264-2.777 1.675 0 2.997.618 3.964 1.854.432-1.023 1.15-1.536 2.156-1.536.653 0 1.2.248 1.643.739.442.496.663 1.079.663 1.76v11.91zm-4.622-5.952c0-1.108-.254-2.044-.763-2.8-.592-.86-1.388-1.287-2.388-1.287-1.023 0-1.82.427-2.39 1.287-.513.756-.767 1.692-.767 2.8 0 1.103.248 2.05.74 2.829.587.86 1.394 1.288 2.417 1.288 1.022 0 1.818-.428 2.388-1.288.509-.78.763-1.726.763-2.829zm16.416-6.275c0 1.033-.481 1.743-1.444 2.13-.889.312-1.775.63-2.659.958-.968.578-1.449 1.651-1.449 3.21v5.929c0 .705-.221 1.299-.651 1.796a2.13 2.13 0 01-1.66.74c-.674 0-1.227-.25-1.658-.74-.438-.497-.653-1.091-.653-1.796v-11.91c0-.699.215-1.292.647-1.772.437-.485.99-.727 1.66-.727 1.105 0 1.873.513 2.304 1.535.99-1.235 2.052-1.853 3.196-1.853.652 0 1.211.248 1.676.739.458.496.691 1.085.691 1.76zm12.058.22c0 1.073-.403 1.748-1.204 2.037-.394.145-1.218.22-2.473.22v9.75c0 .705-.221 1.299-.651 1.796a2.13 2.13 0 01-1.66.74 2.14 2.14 0 01-1.648-.74c-.441-.497-.663-1.091-.663-1.796v-9.75c-.951 0-1.642-.128-2.078-.375-.597-.347-.892-.976-.892-1.883 0-.906.305-1.524.919-1.853.414-.243 1.1-.37 2.051-.37v-2.066c0-2.43.768-3.643 2.311-3.643 1.538 0 2.311 1.212 2.311 3.643v2.067c1.255 0 2.079.075 2.473.219.801.288 1.204.959 1.204 2.003zm37.135-2.933c-.013-1.481-2.635-2.154-9.424-2.154-15.928 0-19.969-.71-24.294-5.462 1.819 2.853 2.814 8.204 19.651 7.938 17.566-.282 6.849 4.73 3.731 10.392 5.623-5.24 10.319-8.695 10.336-10.692v-.021zm-22.383 15.217a2.573 2.573 0 01-.705 1.776 2.356 2.356 0 01-1.7.736c-1.333 0-2.411-1.126-2.411-2.511 0-.331.062-.659.183-.964.121-.306.299-.583.523-.817a2.4 2.4 0 01.782-.545c.292-.127.606-.192.923-.192 1.327 0 2.405 1.126 2.405 2.517zm10.969 0a2.57 2.57 0 01-.705 1.776 2.354 2.354 0 01-1.7.736c-1.332 0-2.41-1.126-2.41-2.511 0-.331.062-.658.183-.964a2.53 2.53 0 01.522-.817c.224-.233.49-.419.782-.545.293-.127.606-.192.923-.192 1.328 0 2.405 1.126 2.405 2.517z" fill="#4285F4"/></g><defs><clipPath id="clip0_101_448"><path fill="#fff" transform="translate(-.5 17.48)" d="M0 0h157v32H0z"/></clipPath></defs></svg>