<svg width="157" height="67" fill="none" xmlns="http://www.w3.org/2000/svg"><g clip-path="url(#clip0_101_423)"><path fill="#fff" d="M47.5 1.48h61.888v64H47.5z"/><path d="M109.243 16.082a.994.994 0 01.035.26v13.654a.994.994 0 01-.5.864L97.32 37.458v13.078a.997.997 0 01-.497.863L72.906 65.17c-.055.031-.114.051-.174.072-.022.008-.044.021-.067.028a1.002 1.002 0 01-.51 0c-.028-.008-.053-.023-.079-.033-.055-.02-.112-.037-.164-.067L48 51.4a.997.997 0 01-.5-.864V9.574c0-.09.012-.177.035-.261.007-.029.025-.055.035-.084.018-.052.036-.105.063-.154.019-.032.046-.058.069-.088.028-.04.054-.081.088-.116.029-.029.066-.05.098-.075.036-.03.069-.062.11-.085l11.957-6.886a.998.998 0 01.996 0l11.956 6.886h.003c.04.024.073.056.11.084.032.025.068.047.096.075.035.036.06.077.09.117.021.03.05.056.067.088.029.05.045.102.065.154.01.03.027.055.035.085.022.085.034.172.034.26v25.584l9.964-5.738V16.341c0-.087.012-.175.035-.259.008-.03.024-.056.034-.084.02-.052.038-.106.065-.154.019-.033.046-.059.067-.089.03-.04.055-.08.09-.116.029-.028.065-.05.097-.074.037-.03.07-.062.11-.086l11.959-6.885a.996.996 0 01.995 0l11.956 6.885c.043.025.075.056.112.085.031.024.068.047.096.074.035.036.06.077.09.117.022.03.049.056.067.089.029.048.045.102.065.154.011.028.027.055.034.085zm-1.958 13.338V18.066l-4.184 2.41-5.78 3.328v11.354l9.965-5.738h-.001zM95.329 49.96V38.597l-5.686 3.248-16.237 9.268v11.469L95.33 49.96zM49.493 11.297v38.661l21.92 12.623V51.116l-11.451-6.483-.004-.002-.005-.003c-.039-.022-.071-.054-.107-.082-.031-.025-.067-.044-.095-.072l-.002-.004c-.032-.03-.055-.07-.082-.104-.025-.034-.055-.062-.075-.097l-.001-.004c-.023-.037-.036-.082-.052-.124-.017-.038-.038-.073-.048-.112v-.002c-.012-.047-.015-.097-.02-.145-.004-.038-.014-.075-.014-.112V17.036l-5.78-3.33-4.184-2.407v-.001zm10.961-7.46l-9.962 5.736 9.96 5.736 9.96-5.737-9.96-5.734h.002zm5.181 35.795l5.78-3.327V11.298l-4.185 2.409-5.78 3.329v25.008l4.185-2.41zm30.69-29.026l-9.96 5.736 9.96 5.735 9.96-5.737-9.96-5.734zm-.996 13.197l-5.78-3.329-4.185-2.409V29.42l5.78 3.328 4.185 2.41V23.804zM72.409 49.39l14.61-8.343 7.303-4.169-9.953-5.731-11.46 6.599-10.445 6.014 9.944 5.63z" fill="#EA4335"/></g><defs><clipPath id="clip0_101_423"><path fill="#fff" transform="translate(47.5 1.48)" d="M0 0h61.888v64H0z"/></clipPath></defs></svg>