<svg width="157" height="67" fill="none" xmlns="http://www.w3.org/2000/svg"><g clip-path="url(#clip0_101_545)"><path fill="#fff" d="M46 1.48h65.778v64H46z"/><path d="M57.648 1.48h42.482c6.44 0 11.648 5.197 11.648 11.624v40.752c0 6.428-5.208 11.625-11.648 11.625H57.648C51.208 65.48 46 60.284 46 53.857V13.103C46 6.677 51.207 1.48 57.648 1.48z" fill="#00005B"/><path d="M72.42 39.771H62.226l-2.083 6.455a.48.48 0 01-.52.383H54.47c-.302 0-.384-.165-.302-.493l8.825-25.244c.083-.274.165-.52.275-.848a9.5 9.5 0 00.164-1.778c-.027-.137.082-.273.22-.3h7.096c.192 0 .329.081.356.218l10.004 27.898c.082.3 0 .437-.274.437h-5.728c-.192.027-.384-.11-.439-.3l-2.247-6.565v.137zm-8.605-5.443h6.961a38.834 38.834 0 00-.63-1.969 81.994 81.994 0 01-.74-2.352c-.274-.848-.521-1.669-.795-2.516a59.218 59.218 0 01-.74-2.435c-.22-.765-.411-1.477-.603-2.133h-.055a33.535 33.535 0 01-.932 3.528c-.41 1.313-.822 2.68-1.26 4.048-.357 1.395-.795 2.68-1.206 3.83zm33.437 2.982h-8.688c.11.847.383 1.695.85 2.434a4.343 4.343 0 002 1.64 8.54 8.54 0 003.508.684c.96-.027 1.919-.109 2.85-.3.85-.11 1.672-.329 2.44-.63.137-.109.219-.054.219.22v4.184c0 .11-.027.219-.055.328a.633.633 0 01-.192.192 11.73 11.73 0 01-2.74.82 18.56 18.56 0 01-3.892.328c-2.083 0-3.837-.328-5.262-.957a9.225 9.225 0 01-3.454-2.598 10.03 10.03 0 01-1.89-3.583 13.932 13.932 0 01-.576-3.993c0-1.477.219-2.927.685-4.35a11.154 11.154 0 012.055-3.746 9.93 9.93 0 013.317-2.598c1.288-.63 2.823-.848 4.577-.848a9.918 9.918 0 014.248.848 7.55 7.55 0 012.878 2.188c.712.93 1.288 1.969 1.644 3.118.356 1.094.521 2.215.521 3.336 0 .657-.028 1.231-.055 1.75-.055.52-.082.903-.11 1.15-.027.191-.191.355-.383.355-.165 0-.466.027-.905.055a12.99 12.99 0 01-1.59.082c-.63 0-1.288-.11-2-.11zm-8.688-3.994h5.783c.712 0 1.233 0 1.562-.027.22-.027.438-.082.63-.219v-.273c0-.356-.055-.684-.164-1.012a3.627 3.627 0 00-3.563-2.517 3.86 3.86 0 00-3.645 2.079 5.66 5.66 0 00-.603 1.97z" fill="#99F"/></g><defs><clipPath id="clip0_101_545"><path fill="#fff" transform="translate(46 1.48)" d="M0 0h65.778v64H0z"/></clipPath></defs></svg>