<svg width="157" height="66" fill="none" xmlns="http://www.w3.org/2000/svg"><path d="M50.964 52.113c-1.014 0-1.944-.308-2.79-.924-.845-.616-1.425-1.48-1.739-2.59L47.903 48c.205.773.586 1.407 1.141 1.902a2.846 2.846 0 001.957.742c.748 0 1.382-.199 1.902-.597.519-.41.779-.967.779-1.667 0-.604-.224-1.099-.67-1.485-.435-.399-1.154-.767-2.156-1.105l-.816-.29c-.917-.326-1.666-.755-2.246-1.286-.58-.532-.87-1.269-.87-2.21 0-.617.17-1.184.508-1.703a3.6 3.6 0 011.413-1.269c.604-.314 1.28-.47 2.029-.47.748 0 1.4.138 1.956.416.556.278.997.616 1.323 1.015.338.398.573.79.706 1.177l-1.45.616c-.12-.447-.398-.851-.832-1.214-.423-.362-.985-.543-1.685-.543-.664 0-1.232.187-1.703.561-.471.375-.706.846-.706 1.413 0 .508.199.924.597 1.25.399.314 1.003.61 1.812.888l.851.29c1.1.398 1.957.9 2.573 1.503.616.592.923 1.401.923 2.428 0 .833-.217 1.534-.652 2.101a3.73 3.73 0 01-1.612 1.25 5.283 5.283 0 01-2.01.399zm6.043-13.26h1.54v3.822l-.073 1.268h.072c.254-.471.653-.864 1.196-1.178a3.62 3.62 0 011.812-.47c1.123 0 1.98.331 2.572.996.592.652.888 1.521.888 2.608v5.924h-1.54v-5.688c0-.834-.211-1.45-.634-1.848-.423-.399-.972-.598-1.649-.598-.483 0-.93.145-1.34.435a3.22 3.22 0 00-.96 1.123c-.23.459-.345.936-.345 1.431v5.145h-1.54v-12.97zm14.3 13.26c-.905 0-1.72-.218-2.445-.652a4.628 4.628 0 01-1.703-1.776c-.398-.748-.597-1.576-.597-2.481 0-.906.199-1.733.597-2.482a4.643 4.643 0 011.703-1.776c.725-.434 1.54-.652 2.446-.652.906 0 1.72.218 2.445.652a4.496 4.496 0 011.685 1.776 5.08 5.08 0 01.616 2.482c0 .905-.205 1.733-.616 2.481a4.496 4.496 0 01-1.685 1.776c-.724.434-1.54.652-2.445.652zm0-1.395c.569 0 1.094-.139 1.577-.417.495-.29.888-.7 1.177-1.232.302-.53.453-1.153.453-1.865 0-.713-.15-1.335-.453-1.866a3.002 3.002 0 00-1.177-1.214 3.008 3.008 0 00-1.576-.435c-.568 0-1.1.145-1.594.435a3.124 3.124 0 00-1.196 1.214c-.29.531-.435 1.153-.435 1.866 0 .712.145 1.334.435 1.865.302.532.7.942 1.196 1.232a3.206 3.206 0 001.594.417zm6.193-8.134h1.467v1.377h.073c.278-.471.694-.864 1.25-1.178a3.75 3.75 0 011.902-.489c.821 0 1.57.212 2.246.634a4.406 4.406 0 011.594 1.758c.387.748.58 1.588.58 2.518 0 .942-.193 1.787-.58 2.536a4.436 4.436 0 01-1.594 1.739 4.154 4.154 0 01-2.246.634c-.7 0-1.334-.157-1.902-.471-.556-.326-.972-.719-1.25-1.178h-.073l.073 1.268v4.004H77.5V42.584zm4.51 8.134a2.82 2.82 0 001.504-.435c.472-.29.846-.7 1.124-1.232.29-.543.434-1.16.434-1.847 0-.689-.145-1.299-.434-1.83-.278-.544-.653-.96-1.124-1.25a2.822 2.822 0 00-3.007 0c-.47.29-.845.7-1.123 1.232-.278.531-.417 1.147-.417 1.848 0 .7.14 1.316.417 1.847.278.532.652.942 1.123 1.232.471.29.972.435 1.504.435zm5.959-8.134h1.467v1.377h.073c.277-.471.694-.864 1.25-1.178a3.75 3.75 0 011.902-.489c.82 0 1.57.212 2.246.634a4.406 4.406 0 011.594 1.758c.387.748.58 1.588.58 2.518 0 .942-.193 1.787-.58 2.536a4.436 4.436 0 01-1.594 1.739 4.154 4.154 0 01-2.246.634c-.7 0-1.335-.157-1.902-.471-.556-.326-.973-.719-1.25-1.178h-.073l.073 1.268v4.004h-1.54V42.584zm4.51 8.134a2.82 2.82 0 001.504-.435c.471-.29.846-.7 1.123-1.232.29-.543.435-1.16.435-1.847 0-.689-.145-1.299-.435-1.83-.277-.544-.652-.96-1.123-1.25a2.822 2.822 0 00-3.007 0c-.471.29-.845.7-1.123 1.232-.278.531-.417 1.147-.417 1.848 0 .7.139 1.316.417 1.847.278.532.652.942 1.123 1.232.47.29.972.435 1.504.435zm7.025-9.837c-.302 0-.561-.108-.779-.326a1.063 1.063 0 01-.326-.779c0-.302.109-.555.326-.76.218-.218.477-.327.78-.327.301 0 .561.109.778.326.218.206.326.46.326.761 0 .302-.108.562-.326.78a1.025 1.025 0 01-.779.325zm-.76 1.703h1.521v9.239h-1.522v-9.239zm3.76 0h1.467v1.359h.073c.253-.46.658-.846 1.213-1.16a3.454 3.454 0 011.776-.489c1.111 0 1.956.326 2.536.979.592.64.888 1.515.888 2.626v5.924h-1.54v-5.688c0-.858-.206-1.48-.616-1.866-.411-.387-.972-.58-1.685-.58-.495 0-.942.14-1.34.417a2.809 2.809 0 00-.906 1.105 3.18 3.18 0 00-.326 1.413v5.199h-1.54v-9.239zm13.943 13.442c-1.087 0-1.987-.254-2.699-.761-.701-.507-1.172-1.117-1.413-1.83l1.394-.598c.206.532.544.96 1.015 1.287.483.338 1.051.507 1.703.507.954 0 1.69-.278 2.21-.833.531-.556.797-1.341.797-2.355V50.41h-.073c-.302.471-.73.857-1.286 1.16-.543.29-1.165.434-1.866.434a4.09 4.09 0 01-2.192-.616c-.652-.41-1.171-.984-1.558-1.72-.386-.737-.579-1.577-.579-2.519 0-.93.193-1.763.579-2.5.387-.748.906-1.328 1.558-1.739a4.09 4.09 0 012.192-.616c.701 0 1.323.151 1.866.453.556.29.984.676 1.286 1.16h.073v-1.323h1.467v8.877c0 1.485-.41 2.614-1.232 3.387-.821.785-1.902 1.178-3.242 1.178zm0-5.417a2.79 2.79 0 001.503-.416 2.9 2.9 0 001.087-1.196c.278-.52.417-1.135.417-1.848 0-.724-.139-1.346-.417-1.866-.265-.519-.628-.912-1.087-1.177a2.79 2.79 0 00-1.503-.417 2.89 2.89 0 00-1.522.417 3.03 3.03 0 00-1.105 1.195c-.266.52-.399 1.136-.399 1.848 0 .713.133 1.335.399 1.866.278.52.646.918 1.105 1.196.459.265.966.398 1.522.398zm14.09-11.757h1.739l4.928 12.971h-1.685l-1.304-3.569h-5.598l-1.304 3.569h-1.685l4.909-12.97zm3.152 7.953l-1.721-4.674-.525-1.395h-.072l-.508 1.395-1.721 4.674h4.547zm8.393 5.308c-.821 0-1.57-.212-2.246-.634a4.482 4.482 0 01-1.576-1.74c-.387-.748-.58-1.593-.58-2.535 0-.93.193-1.77.58-2.519.386-.748.912-1.334 1.576-1.757a4.152 4.152 0 012.246-.634c.713 0 1.347.163 1.902.49.556.313.979.706 1.268 1.177h.073l-.073-1.286v-3.823h1.54v12.971h-1.467v-1.359h-.073c-.289.46-.712.852-1.268 1.178-.555.314-1.189.47-1.902.47zm.181-1.395a2.76 2.76 0 001.504-.435c.471-.29.845-.7 1.123-1.232.29-.531.435-1.147.435-1.847s-.145-1.317-.435-1.848a3.09 3.09 0 00-1.123-1.232 2.82 2.82 0 00-3.007 0c-.471.29-.852.706-1.141 1.25-.278.531-.417 1.141-.417 1.83 0 .688.139 1.304.417 1.847.289.532.67.942 1.141 1.232.471.29.972.435 1.503.435zm9.759 1.395c-.991 0-1.818-.23-2.482-.689a3.862 3.862 0 01-1.413-1.793l1.377-.616c.229.556.567.984 1.014 1.286.459.302.96.453 1.504.453.579 0 1.075-.115 1.485-.344.411-.242.616-.58.616-1.014 0-.387-.163-.695-.489-.924-.326-.242-.839-.447-1.54-.616l-1.123-.29c-.737-.181-1.34-.49-1.811-.924-.471-.435-.707-.996-.707-1.685 0-.531.157-.996.471-1.395.326-.41.755-.724 1.286-.942a4.503 4.503 0 011.721-.326c.809 0 1.528.175 2.156.526.64.35 1.093.839 1.359 1.467l-1.341.616c-.411-.821-1.141-1.232-2.192-1.232-.507 0-.954.12-1.34.362-.375.23-.562.526-.562.888 0 .338.133.616.398.833.266.206.665.375 1.196.508l1.341.344c.905.23 1.588.573 2.047 1.032.459.447.688.997.688 1.649 0 .567-.163 1.069-.489 1.503-.326.423-.767.75-1.322.979a4.8 4.8 0 01-1.848.344zM56.554 30.716a10.676 10.676 0 01-7.47-3.045 10.623 10.623 0 01-3.192-7.393 10.623 10.623 0 013.158-7.457 10.676 10.676 0 017.504-3.08 10.053 10.053 0 017.208 2.89l-2.019 2.026a7.366 7.366 0 00-5.189-2.05 7.662 7.662 0 00-5.211 2.34 7.624 7.624 0 000 10.576 7.662 7.662 0 005.211 2.34 7.1 7.1 0 005.325-2.1 6.07 6.07 0 001.573-3.608H56.53v-2.94h9.696c.11.616.164 1.24.161 1.866a9.448 9.448 0 01-2.477 6.695 9.599 9.599 0 01-7.356 2.94zm25.14-6.733a6.77 6.77 0 01-1.134 3.774 6.795 6.795 0 01-3.046 2.509 6.815 6.815 0 01-7.417-1.454 6.766 6.766 0 01-1.485-7.394 6.786 6.786 0 012.504-3.048 6.811 6.811 0 013.78-1.144 6.7 6.7 0 014.831 1.944 6.668 6.668 0 011.967 4.813zm-2.972 0a3.82 3.82 0 00-1.005-2.904 3.837 3.837 0 00-2.822-1.233 3.848 3.848 0 00-2.821 1.233 3.826 3.826 0 00-1.005 2.904 3.82 3.82 0 001.005 2.904 3.839 3.839 0 002.821 1.232 3.848 3.848 0 002.822-1.232 3.826 3.826 0 001.005-2.904zm18.389.001a6.77 6.77 0 01-1.143 3.776 6.794 6.794 0 01-3.056 2.503 6.814 6.814 0 01-7.42-1.485 6.775 6.775 0 01-1.447-7.408 6.786 6.786 0 012.525-3.036 6.811 6.811 0 013.792-1.12 6.689 6.689 0 014.808 1.963 6.657 6.657 0 011.941 4.807zm-2.972 0a3.808 3.808 0 00-1.038-2.838 3.826 3.826 0 00-2.782-1.196 3.835 3.835 0 00-2.782 1.196 3.816 3.816 0 00-1.038 2.838 3.807 3.807 0 001.038 2.838 3.827 3.827 0 002.782 1.196 3.835 3.835 0 002.782-1.196 3.814 3.814 0 001.038-2.838zm17.672-6.363v12.13c0 4.942-2.947 7.03-6.427 7.03a6.477 6.477 0 01-3.613-1.082 6.45 6.45 0 01-2.393-2.909l2.588-1.074a3.72 3.72 0 003.418 2.409c2.229 0 3.616-1.384 3.616-3.966v-.976h-.062a4.61 4.61 0 01-3.566 1.532 6.782 6.782 0 01-4.602-2.076 6.748 6.748 0 010-9.35 6.782 6.782 0 014.602-2.075 4.68 4.68 0 013.566 1.507h.111v-1.1h2.762zm-2.613 6.362a3.804 3.804 0 00-3.616-4.126 3.933 3.933 0 00-2.716 1.294 3.908 3.908 0 00-.999 2.832 3.858 3.858 0 001.011 2.802 3.876 3.876 0 002.704 1.262 3.787 3.787 0 002.676-1.264 3.759 3.759 0 00.94-2.8zm8.47-13.524v19.85h-2.972V10.46h2.972zm12.123 15.735l2.304 1.495a6.735 6.735 0 01-5.647 2.99 6.645 6.645 0 01-4.772-1.936 6.6 6.6 0 01-1.94-4.76 6.42 6.42 0 013.853-6.22 6.446 6.446 0 012.524-.537 6.288 6.288 0 013.577 1.23 6.264 6.264 0 012.219 3.056l.309.766-9.052 3.706a3.439 3.439 0 003.282 2.05 3.897 3.897 0 003.343-1.84zm-7.108-2.47l6.056-2.471a2.633 2.633 0 00-2.477-1.433 3.724 3.724 0 00-2.625 1.216 3.692 3.692 0 00-.954 2.725v-.037z" fill="#5F6368"/><path fill-rule="evenodd" clip-rule="evenodd" d="M33.663 22.546a2.992 2.992 0 100-5.985 2.992 2.992 0 000 5.985zm-21.198-.913l9.18-9.18c.7-.7 1.672-1.128 2.742-1.128h13.615a3.877 3.877 0 013.89 3.89V28.83a3.8 3.8 0 01-1.148 2.742l-9.166 9.174-19.113-19.114z" fill="#4285F4"/><path fill-rule="evenodd" clip-rule="evenodd" d="M31.579 40.746L20.267 52.07c-.72.7-1.692 1.148-2.762 1.148a3.882 3.882 0 01-2.743-1.148L1.147 38.455A3.803 3.803 0 010 35.712c0-1.09.447-2.062 1.147-2.762l11.318-11.317 19.114 19.113z" fill="#34A853"/><path fill-rule="evenodd" clip-rule="evenodd" d="M7.754 45.061l-6.607-6.607A3.802 3.802 0 010 35.712c0-1.09.447-2.062 1.147-2.762l11.318-11.317 9.359 9.359-14.07 14.07z" fill="#FBBC05"/><path fill-rule="evenodd" clip-rule="evenodd" d="M40.548 12.267a3.876 3.876 0 00-2.546-.942H24.387c-1.07 0-2.042.428-2.743 1.128l-9.18 9.18 9.36 9.359 9.532-9.533a2.992 2.992 0 014.213-4.213l4.98-4.979z" fill="#EA4335"/><path d="M21.819 38.13a6.078 6.078 0 100-12.155 6.078 6.078 0 000 12.156z" fill="#4285F4"/><path fill-rule="evenodd" clip-rule="evenodd" d="M30.1 30.264h-8.084v3.469h4.653c-.434 2.203-2.248 3.468-4.653 3.468-2.84 0-5.127-2.367-5.127-5.305 0-2.937 2.287-5.304 5.127-5.304 1.222 0 2.326.449 3.194 1.183l2.523-2.611c-1.538-1.387-3.51-2.244-5.717-2.244-4.811 0-8.676 3.998-8.676 8.976 0 4.978 3.865 8.977 8.676 8.977 4.337 0 8.28-3.264 8.28-8.976 0-.53-.078-1.102-.197-1.633z" fill="#fff"/></svg>