<svg width="157" height="66" fill="none" xmlns="http://www.w3.org/2000/svg"><path d="M60.24 40.005h3.413c.479 0 .926.11 1.342.332.425.221.762.527 1.01.917s.372.828.372 1.315c0 .46-.12.863-.359 1.209-.23.345-.544.61-.943.797v.053c.478.16.868.434 1.169.824.301.39.452.845.452 1.368 0 .514-.133.979-.399 1.395a2.671 2.671 0 01-1.05.956c-.433.23-.903.346-1.407.346h-3.6v-9.512zm3.413 4.118c.32 0 .598-.075.837-.226.248-.15.439-.34.572-.57.133-.24.199-.484.199-.732 0-.239-.066-.473-.2-.704a1.498 1.498 0 00-.544-.584 1.45 1.45 0 00-.81-.226h-2.352v3.042h2.299zm.253 4.318c.319 0 .602-.08.85-.24a1.61 1.61 0 00.585-.61 1.524 1.524 0 000-1.554 1.585 1.585 0 00-.598-.612 1.653 1.653 0 00-.89-.24h-2.498v3.256h2.55zm4.031-5.7h1.13v3.813l-.054 1.276h.053l3.653-5.088h1.116v6.775H72.72v-3.813l.053-1.275h-.053l-3.654 5.088h-1.129V42.74zm7.032 5.753h.704c.212-.222.39-.629.531-1.222a7.86 7.86 0 00.226-1.913v-2.617h5.34v5.752h1.01v3.042h-1.076v-2.02h-5.66v2.02H74.97v-3.042zm5.686 0v-4.73h-3.122v1.688c0 .575-.062 1.129-.186 1.66a5.393 5.393 0 01-.492 1.382h3.8zm6.275 1.235a3.302 3.302 0 01-1.74-.465 3.285 3.285 0 01-1.21-1.275 3.975 3.975 0 01-.425-1.847c0-.655.133-1.257.399-1.806.274-.55.66-.988 1.156-1.316.495-.327 1.071-.491 1.727-.491.664 0 1.24.15 1.727.452.487.292.859.7 1.115 1.222.266.522.399 1.12.399 1.793 0 .133-.013.248-.04.346h-5.354c.027.513.15.947.372 1.302.222.354.5.62.837.797.346.177.704.265 1.076.265.868 0 1.537-.407 2.006-1.222l.957.465c-.293.55-.691.983-1.196 1.302-.496.319-1.098.478-1.806.478zm1.952-4.317a2.2 2.2 0 00-.239-.85 1.804 1.804 0 00-.677-.718c-.301-.195-.682-.292-1.143-.292-.531 0-.983.173-1.355.518-.363.337-.602.784-.717 1.342h4.131zm5.571 4.317a3.392 3.392 0 01-3.042-1.78 3.812 3.812 0 01-.438-1.82c0-.664.146-1.27.438-1.82a3.393 3.393 0 013.042-1.78c.665 0 1.262.16 1.794.478.531.32.943.753 1.235 1.302.301.55.452 1.156.452 1.82 0 .664-.15 1.271-.452 1.82-.292.55-.704.983-1.235 1.302a3.418 3.418 0 01-1.794.478zm0-1.023c.417 0 .802-.102 1.156-.305.363-.213.651-.514.864-.904.221-.39.332-.845.332-1.368 0-.522-.111-.978-.332-1.368-.213-.39-.5-.687-.864-.89a2.206 2.206 0 00-1.156-.32c-.416 0-.806.107-1.169.32a2.29 2.29 0 00-.877.89c-.212.39-.318.846-.318 1.368 0 .523.106.979.319 1.368.22.39.513.691.876.904a2.36 2.36 0 001.17.305zm7.561-5.965h1.076v1.01h.053c.204-.345.51-.633.917-.863a2.74 2.74 0 011.395-.359c.602 0 1.151.155 1.647.465.496.31.886.74 1.169 1.289.284.549.425 1.164.425 1.846 0 .69-.141 1.31-.425 1.86a3.25 3.25 0 01-1.169 1.275 3.045 3.045 0 01-1.647.465c-.514 0-.979-.115-1.395-.345-.407-.24-.713-.527-.917-.864h-.053l.053.93v2.936h-1.129v-9.645zm3.308 5.965c.39 0 .757-.106 1.103-.319a2.26 2.26 0 00.823-.903 2.83 2.83 0 00.319-1.355c0-.505-.106-.952-.319-1.342a2.242 2.242 0 00-.823-.916 2.071 2.071 0 00-2.206 0c-.345.212-.62.513-.823.903-.204.39-.306.841-.306 1.355s.102.965.306 1.355c.203.39.478.691.823.904a2.07 2.07 0 001.103.318zm7.568 1.023a3.304 3.304 0 01-1.741-.465 3.296 3.296 0 01-1.209-1.275 3.971 3.971 0 01-.425-1.847c0-.655.133-1.257.399-1.806.274-.55.66-.988 1.156-1.316.496-.327 1.071-.491 1.727-.491.664 0 1.24.15 1.727.452.487.292.859.7 1.116 1.222.265.522.398 1.12.398 1.793 0 .133-.013.248-.04.346h-5.353c.026.513.15.947.372 1.302.221.354.5.62.836.797.346.177.705.265 1.077.265.867 0 1.536-.407 2.006-1.222l.956.465a3.39 3.39 0 01-1.196 1.302c-.496.319-1.098.478-1.806.478zm1.953-4.317a2.201 2.201 0 00-.24-.85 1.797 1.797 0 00-.677-.718c-.301-.195-.682-.292-1.143-.292a1.92 1.92 0 00-1.355.518c-.363.337-.602.784-.717 1.342h4.132zm2.384-2.67h1.129v3.068h.053l2.856-3.069h1.422v.054l-3.056 3.161 3.189 3.508v.053h-1.382l-3.029-3.414h-.053v3.414h-1.129V42.74zm7.025 6.881c-.23 0-.434-.035-.611-.106l.013-1.01c.142.044.292.067.452.067.203 0 .358-.067.465-.2.106-.142.177-.367.212-.677.045-.32.067-.762.067-1.329v-3.627h5.592v6.776h-1.115v-5.753h-3.375v2.963c0 1.045-.155 1.789-.465 2.232-.31.443-.721.664-1.235.664zm9.846.106c-.496 0-.939-.097-1.329-.292a2.199 2.199 0 01-.903-.797 2.182 2.182 0 01-.319-1.17c0-.716.27-1.274.81-1.673.541-.407 1.223-.611 2.046-.611.408 0 .784.044 1.129.133.355.088.625.19.811.305v-.412c0-.504-.177-.907-.532-1.208-.354-.31-.801-.465-1.341-.465-.381 0-.731.084-1.05.252-.319.16-.571.385-.757.678l-.85-.638a2.717 2.717 0 011.089-.957c.469-.23.987-.345 1.554-.345.921 0 1.643.243 2.166.73.531.479.797 1.134.797 1.967v4.29h-1.076v-.97h-.053c-.195.329-.488.608-.877.838-.39.23-.828.345-1.315.345zm.106-.996c.381 0 .735-.097 1.063-.292a2.22 2.22 0 00.783-.784c.195-.328.293-.686.293-1.076a2.796 2.796 0 00-.784-.346 3.562 3.562 0 00-.983-.132c-.62 0-1.089.128-1.408.385-.31.257-.465.589-.465.996 0 .372.141.673.425.904.283.23.642.345 1.076.345zm4.64-5.991h1.341l2.392 4.556h.039l2.392-4.556h1.355v6.775h-1.13v-3.733l.054-1.276h-.054l-2.231 4.158h-.797l-2.246-4.158h-.053l.053 1.276v3.733h-1.115V42.74zm11.153 6.987c-.496 0-.939-.097-1.329-.292a2.199 2.199 0 01-.903-.797 2.182 2.182 0 01-.319-1.17c0-.716.27-1.274.81-1.673.541-.407 1.223-.611 2.046-.611.408 0 .784.044 1.129.133.355.088.625.19.811.305v-.412c0-.504-.177-.907-.532-1.208-.354-.31-.801-.465-1.341-.465-.381 0-.731.084-1.05.252-.319.16-.571.385-.757.678l-.85-.638a2.717 2.717 0 011.089-.957c.469-.23.987-.345 1.554-.345.921 0 1.643.243 2.166.73.531.479.797 1.134.797 1.967v4.29h-1.076v-.97h-.053c-.195.329-.488.608-.877.838-.39.23-.828.345-1.315.345zm.106-.996c.381 0 .735-.097 1.063-.292a2.22 2.22 0 00.783-.784c.195-.328.293-.686.293-1.076a2.796 2.796 0 00-.784-.346 3.562 3.562 0 00-.983-.132c-.62 0-1.089.128-1.408.385-.31.257-.465.589-.465.996 0 .372.141.673.425.904.283.23.642.345 1.076.345zm-80.7-14.394a10.676 10.676 0 01-7.47-3.045A10.624 10.624 0 0158.74 23.9a10.623 10.623 0 013.158-7.457 10.675 10.675 0 017.505-3.08 10.053 10.053 0 017.207 2.89l-2.02 2.027a7.366 7.366 0 00-5.188-2.05 7.662 7.662 0 00-5.212 2.34 7.624 7.624 0 000 10.576 7.662 7.662 0 005.212 2.34 7.098 7.098 0 005.325-2.1 6.07 6.07 0 001.572-3.608h-6.922v-2.94h9.696c.11.616.164 1.24.161 1.866a9.449 9.449 0 01-2.477 6.695 9.597 9.597 0 01-7.355 2.94zm25.138-6.733a6.77 6.77 0 01-1.134 3.774 6.794 6.794 0 01-3.046 2.509 6.814 6.814 0 01-7.417-1.455 6.776 6.776 0 01-1.485-7.393 6.786 6.786 0 012.504-3.047 6.81 6.81 0 013.78-1.145 6.704 6.704 0 014.831 1.944 6.67 6.67 0 011.967 4.813zm-2.972 0a3.821 3.821 0 00-1.005-2.904 3.839 3.839 0 00-2.822-1.233 3.847 3.847 0 00-2.82 1.233 3.827 3.827 0 00-1.006 2.904 3.82 3.82 0 001.005 2.904 3.839 3.839 0 002.821 1.232 3.847 3.847 0 002.822-1.232 3.827 3.827 0 001.005-2.904zm18.391.001a6.79 6.79 0 01-4.2 6.279 6.815 6.815 0 01-7.42-1.485 6.766 6.766 0 01-1.448-7.409 6.787 6.787 0 012.527-3.035 6.81 6.81 0 013.791-1.12 6.692 6.692 0 014.808 1.963 6.64 6.64 0 011.942 4.807zm-2.973 0a3.812 3.812 0 00-2.305-3.722 3.838 3.838 0 00-4.297.884 3.825 3.825 0 00-1.038 2.838 3.807 3.807 0 001.038 2.838 3.825 3.825 0 002.782 1.196 3.838 3.838 0 002.782-1.196 3.812 3.812 0 001.038-2.838zm17.672-6.363v12.13c0 4.942-2.948 7.03-6.427 7.03a6.478 6.478 0 01-3.614-1.082 6.457 6.457 0 01-2.393-2.909l2.589-1.074a3.708 3.708 0 003.418 2.409c2.229 0 3.616-1.384 3.616-3.966v-.976h-.062a4.609 4.609 0 01-3.567 1.532 6.779 6.779 0 01-4.601-2.076 6.744 6.744 0 010-9.35 6.78 6.78 0 014.601-2.075 4.677 4.677 0 013.567 1.507h.111v-1.1h2.762zm-2.613 6.362a3.786 3.786 0 00-.176-1.51 3.786 3.786 0 00-.753-1.32 3.823 3.823 0 00-2.687-1.296 3.94 3.94 0 00-2.716 1.294 3.903 3.903 0 00-.999 2.832 3.876 3.876 0 003.715 4.064 3.787 3.787 0 002.676-1.264 3.765 3.765 0 00.94-2.8zm8.47-13.524v19.85h-2.972v-19.85h2.972zm12.123 15.735l2.304 1.495a6.735 6.735 0 01-5.647 2.99 6.635 6.635 0 01-4.772-1.936 6.598 6.598 0 01-1.94-4.76 6.42 6.42 0 013.853-6.22 6.45 6.45 0 012.524-.537 6.289 6.289 0 013.577 1.23 6.264 6.264 0 012.219 3.056l.31.766-9.053 3.706a3.448 3.448 0 003.282 2.05 3.898 3.898 0 003.343-1.84zm-7.108-2.47l6.056-2.47a2.642 2.642 0 00-2.477-1.433 3.722 3.722 0 00-2.625 1.215 3.71 3.71 0 00-.954 2.725v-.037z" fill="#5F6368"/><path d="M52.057 20.228a6.492 6.492 0 00-4.591-4.576c-4.053-1.082-20.293-1.082-20.293-1.082s-16.24 0-20.288 1.082a6.492 6.492 0 00-4.592 4.576c-1.085 4.035-1.085 12.458-1.085 12.458s0 8.423 1.085 12.457a6.492 6.492 0 004.592 4.576c4.048 1.082 20.288 1.082 20.288 1.082s16.24 0 20.288-1.082a6.492 6.492 0 004.592-4.576c1.085-4.034 1.085-12.457 1.085-12.457s0-8.423-1.081-12.458z" fill="#EA4335"/><path d="M21.979 40.448l13.496-7.762-13.496-7.763v15.525z" fill="#fff"/></svg>