<svg width="158" height="67" fill="none" xmlns="http://www.w3.org/2000/svg"><g clip-path="url(#clip0_101_530)"><path fill="#fff" d="M58 1.48h42.72v64H58z"/><path d="M68.682 65.48c5.894 0 10.678-4.778 10.678-10.666V44.147H68.682c-5.894 0-10.678 4.779-10.678 10.667S62.788 65.48 68.682 65.48z" fill="#0ACF83"/><path d="M58.004 33.48c0-5.887 4.784-10.666 10.678-10.666H79.36v21.333H68.682c-5.894 0-10.678-4.778-10.678-10.666z" fill="#A259FF"/><path d="M58.004 12.147c0-5.888 4.784-10.667 10.678-10.667H79.36v21.334H68.682c-5.894 0-10.678-4.779-10.678-10.667z" fill="#F24E1E"/><path d="M79.36 1.48h10.678c5.894 0 10.677 4.78 10.677 10.667 0 5.888-4.783 10.667-10.677 10.667H79.36V1.48z" fill="#FF7262"/><path d="M100.715 33.48c0 5.888-4.783 10.667-10.677 10.667-5.894 0-10.678-4.779-10.678-10.667s4.784-10.666 10.678-10.666c5.894 0 10.677 4.778 10.677 10.666z" fill="#1ABCFE"/></g><defs><clipPath id="clip0_101_530"><path fill="#fff" transform="translate(58 1.48)" d="M0 0h42.72v64H0z"/></clipPath></defs></svg>