<svg width="157" height="67" fill="none" xmlns="http://www.w3.org/2000/svg"><g clip-path="url(#clip0_101_481)"><path fill="#fff" d="M17.5 1.48h122.182v64H17.5z"/><path d="M78.59 65.107c33.74 0 61.092-14.243 61.092-31.813S112.33 1.48 78.591 1.48C44.85 1.48 17.5 15.724 17.5 33.294s27.351 31.813 61.09 31.813z" fill="#F47D04"/><path fill-rule="evenodd" clip-rule="evenodd" d="M34.656 52.13l6.695-33.906h15.481c6.695.419 10.043 3.767 10.043 9.628 0 10.047-7.95 15.907-15.064 15.488H44.28l-1.674 8.79h-7.95zm11.297-15.068l2.093-12.559h5.44c2.928 0 5.02 1.256 5.02 3.767-.418 7.117-3.766 8.373-7.531 8.792h-5.021zM65.32 43.34l6.695-33.906h7.95l-1.674 8.79h7.532c6.695.419 9.206 3.767 8.369 7.954L91.26 43.34h-8.368l2.93-15.488c.417-2.093.417-3.349-2.511-3.349h-6.277L73.27 43.34h-7.95zm25.407 8.79l6.695-33.906h15.481c6.696.419 10.043 3.767 10.043 9.628 0 10.047-7.95 15.907-15.064 15.488h-7.531l-1.674 8.79h-7.95zm11.297-15.068l2.092-12.559h5.44c2.929 0 5.021 1.256 5.021 3.767-.418 7.117-3.766 8.373-7.531 8.792h-5.022z" fill="#fff"/></g><defs><clipPath id="clip0_101_481"><path fill="#fff" transform="translate(17.5 1.48)" d="M0 0h122.182v64H0z"/></clipPath></defs></svg>