<svg width="157" height="66" fill="none" xmlns="http://www.w3.org/2000/svg"><path d="M24.907 6.782a26.845 26.845 0 012.234-.083c13.592.497 24.51 11.306 25.053 24.785V51.84c-.02 3.685-3.048 6.646-6.743 6.626-3.382-.518-5.971-3.251-6.284-6.626V31.485c-.564-7.103-6.827-12.424-13.988-11.865-.084 0-.167.02-.25.02" fill="#FBBC04"/><path d="M52.194 51.983c0 3.562-2.923 6.46-6.514 6.46-3.59 0-6.514-2.898-6.514-6.46 0-3.561 2.923-6.46 6.514-6.46s6.514 2.899 6.514 6.46z" fill="#4285F4"/><path d="M25.283 58.238c3.695.041 6.722-2.878 6.764-6.543v-.042c-.104-3.561-3.11-6.377-6.701-6.274h-.147c-7.119-.538-12.485-6.667-11.983-13.748v-.104c.522-6.378 5.636-11.41 12.067-11.885 3.59.145 6.618-2.63 6.764-6.191v-.104c-.041-3.665-3.069-6.626-6.764-6.585h-.46C10.982 7.404.084 18.668 0 32.417v.104c0 16.13 14.26 25.738 24.886 25.738h.397v-.021z" fill="#EA4335"/><path d="M76.936 29.573c-5.857 0-10.64-4.656-10.702-10.454.078-5.797 4.845-10.453 10.702-10.453a10.136 10.136 0 017.244 2.883l-1.98 2.004a7.485 7.485 0 00-5.2-2.035c-4.175 0-7.571 3.361-7.571 7.494v.107c-.063 4.133 3.287 7.54 7.461 7.587H77a7.198 7.198 0 005.343-2.082 5.895 5.895 0 001.557-3.593h-6.963V18.18h9.705c.109.586.171 1.187.156 1.789a9.391 9.391 0 01-2.508 6.676c-1.9 1.973-4.596 3.037-7.353 2.93zm24.877-6.722c.141 3.67-2.741 6.753-6.433 6.892-3.707.139-6.823-2.714-6.963-6.368v-.524c-.14-3.67 2.742-6.754 6.433-6.892 3.708-.14 6.823 2.713 6.963 6.368v.524zm-2.928 0c.202-2.066-1.34-3.886-3.412-4.086a3.78 3.78 0 00-4.128 3.377 5.38 5.38 0 000 .709c-.202 2.066 1.34 3.885 3.412 4.086a3.78 3.78 0 004.128-3.377 5.38 5.38 0 000-.71zm17.961 0c.156 3.67-2.726 6.753-6.418 6.907-3.708.155-6.823-2.698-6.979-6.352v-.555c-.156-3.67 2.726-6.754 6.418-6.908 3.708-.154 6.823 2.699 6.979 6.353v.555zm-2.944 0c.202-2.066-1.324-3.886-3.412-4.086a3.77 3.77 0 00-4.128 3.377 5.596 5.596 0 000 .709c-.202 2.066 1.324 3.885 3.412 4.086a3.77 3.77 0 004.128-3.377 2.716 2.716 0 000-.71zm17.571-6.337v12.119c0 4.98-2.96 7.015-6.465 7.015a6.501 6.501 0 01-6.028-3.962l2.601-1.126a3.78 3.78 0 003.396 2.405c2.275 0 3.63-1.372 3.63-3.947v-.971h-.109a4.687 4.687 0 01-3.583 1.542c-3.754 0-6.792-3.022-6.792-6.738 0-3.716 3.038-6.723 6.792-6.723a4.705 4.705 0 013.583 1.511h.14v-1.125c.016-.016 2.835 0 2.835 0zm-2.617 6.352c.171-2.081-1.386-3.916-3.489-4.101h-.109c-2.166.077-3.864 1.88-3.786 4.024v.077a3.854 3.854 0 003.692 4.04h.078c2.088-.093 3.708-1.866 3.614-3.932v-.108zm7.851-13.476v19.767h-2.991V9.39h2.991zm11.761 15.681l2.275 1.526a6.8 6.8 0 01-5.671 2.976c-3.629.047-6.605-2.837-6.651-6.43v-.308c0-4.009 2.804-6.738 6.324-6.738 2.664.077 4.985 1.789 5.811 4.287l.311.755-9.082 3.747a3.49 3.49 0 003.303 2.035 3.938 3.938 0 003.38-1.85zm-7.134-2.42l6.075-2.498a2.618 2.618 0 00-2.524-1.419c-2.056.092-3.645 1.804-3.567 3.84 0 .015 0 .045.016.076z" fill="#5F6368"/><path fill-rule="evenodd" clip-rule="evenodd" d="M66.234 54.87L73.1 36.875h2.649l6.864 17.995h-2.586l-1.755-4.882h-7.648L68.82 54.87h-2.586zm5.157-7.036h6.05l-2.978-8.123h-.094l-2.978 8.123zm17.647 7.44c-1.614 0-2.993-.636-4.169-1.892-1.175-1.255-1.755-2.82-1.755-4.68 0-1.86.58-3.426 1.755-4.681 1.175-1.256 2.555-1.892 4.169-1.892.956 0 1.802.202 2.555.605.752.403 1.316.899 1.692 1.503h.094l-.094-1.705v-5.657h2.336V54.87h-2.242v-1.705h-.094c-.376.605-.94 1.1-1.692 1.504-.753.403-1.599.604-2.555.604zm.392-2.124c1.097 0 2.037-.403 2.805-1.21.768-.805 1.16-1.89 1.16-3.238 0-1.349-.392-2.434-1.16-3.24-.768-.806-1.708-1.209-2.805-1.209-1.082 0-2.022.403-2.79 1.224-.784.806-1.175 1.892-1.175 3.225 0 1.333.391 2.418 1.175 3.223.768.822 1.708 1.225 2.79 1.225zm9.34 1.72V36.875h2.336l6.332 10.959h.094l6.331-10.959h2.336V54.87h-2.336V44.191l.094-3.023h-.094l-5.689 9.874h-1.379l-5.689-9.873h-.094l.094 3.022v10.68h-2.335zm21.66-10.834c1.207-1.255 2.743-1.891 4.608-1.891 1.865 0 3.401.62 4.608 1.875 1.207 1.256 1.802 2.806 1.802 4.681 0 1.876-.595 3.441-1.802 4.681-1.207 1.256-2.743 1.876-4.608 1.876-1.865 0-3.401-.62-4.608-1.876-1.207-1.255-1.802-2.805-1.802-4.68 0-1.876.595-3.426 1.802-4.666zm1.724 7.92c.815.806 1.771 1.21 2.868 1.21s2.053-.404 2.853-1.225c.799-.806 1.207-1.891 1.207-3.224 0-1.333-.408-2.418-1.207-3.224-.8-.806-1.756-1.224-2.853-1.224-1.097 0-2.053.403-2.852 1.224-.799.806-1.207 1.891-1.207 3.224 0 1.333.408 2.418 1.191 3.24zm17.883 3.317c-.956 0-1.803-.201-2.555-.604-.752-.403-1.316-.9-1.693-1.504h-.094v1.705h-2.241V36.875h2.335v5.673l-.094 1.705h.094c.377-.605.941-1.1 1.693-1.504.752-.403 1.599-.604 2.555-.604 1.614 0 2.993.636 4.169 1.891 1.175 1.255 1.755 2.821 1.755 4.681 0 1.86-.58 3.425-1.755 4.68-1.176 1.24-2.555 1.876-4.169 1.876zm-.376-2.123c1.081 0 2.021-.403 2.789-1.225.784-.805 1.176-1.89 1.176-3.223 0-1.334-.392-2.419-1.176-3.224-.783-.806-1.708-1.225-2.789-1.225-1.098 0-2.038.403-2.806 1.209-.768.806-1.16 1.891-1.16 3.24 0 1.348.392 2.433 1.16 3.239.768.806 1.708 1.209 2.806 1.209z" fill="#5F6368"/></svg>