<svg width="158" height="67" fill="none" xmlns="http://www.w3.org/2000/svg"><g clip-path="url(#clip0_101_408)"><path fill="#fff" d="M46.5 1.48h64v64h-64z"/><path d="M51.049 33.48c0 10.866 6.315 20.256 15.471 24.706L53.426 22.308a27.35 27.35 0 00-2.377 11.172zm45.983-1.386c0-3.392-1.218-5.742-2.263-7.57-1.392-2.262-2.696-4.177-2.696-6.438 0-2.523 1.914-4.872 4.61-4.872.121 0 .237.015.356.021A27.353 27.353 0 0078.5 6.03c-9.59 0-18.028 4.92-22.937 12.373.644.02 1.252.033 1.767.033 2.871 0 7.316-.348 7.316-.348 1.48-.088 1.654 2.086.176 2.26 0 0-1.487.176-3.142.262l9.996 29.735 6.009-18.017-4.278-11.718a50.218 50.218 0 01-2.879-.262c-1.479-.087-1.305-2.348.174-2.261 0 0 4.533.348 7.23.348 2.872 0 7.317-.348 7.317-.348 1.48-.087 1.655 2.086.176 2.261 0 0-1.49.175-3.142.262l9.92 29.51 2.738-9.15c1.187-3.797 2.09-6.525 2.09-8.875z" fill="#4285F4"/><path d="M78.982 35.88l-8.236 23.934a27.434 27.434 0 0016.87-.437 2.336 2.336 0 01-.195-.378L78.982 35.88zm23.606-15.57c.118.873.185 1.813.185 2.822 0 2.786-.52 5.917-2.087 9.833L92.3 57.208c8.162-4.759 13.651-13.6 13.651-23.728a27.299 27.299 0 00-3.363-13.17z" fill="#4285F4"/><path d="M78.5 1.48c-17.644 0-32 14.355-32 32 0 17.646 14.355 32.001 32 32.001 17.644 0 32.002-14.354 32.002-32.001 0-17.645-14.358-32-32.002-32zm0 62.534c-16.835 0-30.533-13.698-30.533-30.534 0-16.835 13.697-30.532 30.533-30.532 16.835 0 30.532 13.697 30.532 30.532 0 16.836-13.697 30.534-30.532 30.534z" fill="#4285F4"/></g><defs><clipPath id="clip0_101_408"><path fill="#fff" transform="translate(46.5 1.48)" d="M0 0h64v64H0z"/></clipPath></defs></svg>