<svg width="157" height="67" fill="none" xmlns="http://www.w3.org/2000/svg"><g clip-path="url(#clip0_101_520)"><path d="M56.637 1.487h42.439c6.434 0 11.636 5.196 11.636 11.622v40.743c0 6.426-5.202 11.622-11.636 11.622h-42.44C50.203 65.474 45 60.278 45 53.852V13.11c0-6.426 5.202-11.622 11.637-11.622z" fill="#001E36"/><path d="M59.785 46.36V18.222c0-.191.082-.3.274-.3.465 0 .904 0 1.533-.028.657-.027 1.342-.027 2.081-.055.74-.027 1.533-.027 2.382-.054.849-.028 1.67-.028 2.492-.028 2.245 0 4.107.274 5.64.848a9.78 9.78 0 013.67 2.242 8.706 8.706 0 011.998 3.118c.41 1.148.63 2.324.63 3.554 0 2.352-.548 4.294-1.643 5.825a9.379 9.379 0 01-4.409 3.336c-1.861.684-3.915.93-6.16.93-.657 0-1.095 0-1.369-.028-.274-.027-.657-.027-1.177-.027v8.778c.027.191-.11.355-.302.383h-5.311c-.22 0-.329-.11-.329-.356zm5.969-23.161v9.188c.383.027.74.054 1.068.054h1.451a10.24 10.24 0 003.149-.492c.876-.246 1.642-.765 2.245-1.449.575-.684.849-1.613.849-2.817a4.496 4.496 0 00-.63-2.433 3.969 3.969 0 00-1.917-1.559c-1.013-.41-2.108-.574-3.23-.547-.712 0-1.342 0-1.862.028-.548-.028-.931 0-1.123.027zm31.816 7.52a9.7 9.7 0 00-2.629-.93c-1.013-.219-2.026-.355-3.066-.355a5.515 5.515 0 00-1.643.191 1.406 1.406 0 00-.849.547 1.448 1.448 0 00-.219.738c0 .246.11.492.274.711.246.3.575.547.93.738.63.329 1.288.63 1.945.903a19.847 19.847 0 014.216 1.996 6.366 6.366 0 012.163 2.27c.439.875.658 1.832.63 2.816a6.356 6.356 0 01-1.068 3.637 6.86 6.86 0 01-3.066 2.434c-1.342.574-2.985.875-4.956.875-1.26 0-2.492-.11-3.724-.356a11.052 11.052 0 01-2.793-.875c-.191-.11-.328-.3-.3-.52v-4.757c0-.082.027-.192.109-.246.082-.055.164-.028.246.027a11.732 11.732 0 003.395 1.34c1.04.273 2.136.41 3.231.41 1.04 0 1.78-.137 2.273-.383a1.27 1.27 0 00.739-1.148c0-.383-.219-.739-.657-1.094-.438-.356-1.342-.766-2.683-1.285a16.76 16.76 0 01-3.888-1.97 7.084 7.084 0 01-2.081-2.324 5.86 5.86 0 01-.63-2.789c0-1.175.329-2.297.93-3.308a6.747 6.747 0 012.876-2.516c1.287-.656 2.902-.957 4.846-.957 1.123 0 2.273.082 3.395.246.822.11 1.616.328 2.355.629.11.027.219.137.274.246.027.11.055.219.055.328v4.457c0 .11-.055.22-.137.274-.247.054-.384.054-.493 0z" fill="#31A8FF"/></g><defs><clipPath id="clip0_101_520"><path fill="#fff" transform="translate(8 1.48)" d="M0 0h140v64H0z"/></clipPath></defs></svg>