<svg width="96" height="96" fill="none" xmlns="http://www.w3.org/2000/svg"><path d="M73.5 51a1.5 1.5 0 00-1.5 1.5V78H24V13.5h15.125a9 9 0 0017.75 0H72v30a1.5 1.5 0 103 0V9a6.006 6.006 0 00-6-6H27a6.007 6.007 0 00-6 6v78a6.007 6.007 0 006 6h42a6.006 6.006 0 006-6V52.5a1.5 1.5 0 00-1.5-1.5zM27 6h42a3.003 3.003 0 013 3v1.5H55.5A1.5 1.5 0 0054 12a6 6 0 11-12 0 1.5 1.5 0 00-1.5-1.5H24V9a3.003 3.003 0 013-3zm42 84H27a3.003 3.003 0 01-3-3v-6h48v6a3.003 3.003 0 01-3 3z" fill="#FF5C39"/><path d="M48 15a3 3 0 100-6 3 3 0 000 6zm3 69h-6a1.5 1.5 0 100 3h6a1.5 1.5 0 100-3zm-3-46.5a6 6 0 106 6 6.007 6.007 0 00-6-6zm0 9a3 3 0 110-5.999 3 3 0 010 5.999z" fill="#FF5C39"/></svg>