<svg width="224" height="67" fill="none" xmlns="http://www.w3.org/2000/svg"><g clip-path="url(#clip0_1880_313230)"><path fill="#fff" d="M0 0h224v67H0z"/><path d="M209 .42H0v67h209v-67z" fill="#fff"/><path d="M17.485.927H0v66.124h17.485V.927z" fill="#FF5C39"/><path d="M29.332 58.813v-4.22h.819c.2-.208.372-.434.517-.677.145-.243.27-.53.378-.863a8.02 8.02 0 00.28-1.227c.077-.486.146-1.072.205-1.758l.333-3.886h6.238v8.412h1.509v4.218h-1.509V56h-7.261v2.813h-1.509zm2.532-4.22h4.73v-7.005H33.27l-.256 2.48a27.74 27.74 0 01-.396 2.691c-.158.767-.41 1.379-.754 1.835zm13.738 1.611c-.887 0-1.664-.21-2.333-.632-.665-.422-1.185-1.012-1.56-1.77-.37-.76-.556-1.646-.556-2.66 0-1.023.185-1.915.556-2.678.375-.763.895-1.355 1.56-1.777.669-.422 1.446-.633 2.333-.633.886 0 1.662.21 2.326.633.67.422 1.19 1.014 1.56 1.777.375.763.563 1.655.563 2.678 0 1.014-.188 1.9-.563 2.66-.37.758-.89 1.348-1.56 1.77-.664.422-1.44.633-2.326.633zm0-1.355c.673 0 1.227-.172 1.662-.517.434-.346.756-.8.965-1.362a5.213 5.213 0 00.313-1.828c0-.656-.104-1.268-.313-1.835a3.093 3.093 0 00-.965-1.374c-.435-.35-.989-.524-1.662-.524-.674 0-1.227.175-1.662.524a3.09 3.09 0 00-.965 1.374 5.266 5.266 0 00-.314 1.835c0 .656.105 1.266.314 1.828.208.563.53 1.017.965 1.362.434.345.988.517 1.662.517zM52.353 56v-9.818h4.014c1.057 0 1.897.238 2.519.716.622.477.933 1.108.933 1.892 0 .596-.177 1.059-.53 1.387-.354.324-.808.543-1.362.658a2.8 2.8 0 011.055.384c.345.204.63.486.856.843.226.354.34.789.34 1.305 0 .502-.129.952-.384 1.348-.256.396-.622.71-1.1.94-.477.23-1.048.345-1.713.345h-4.628zm1.432-1.38h3.196c.52 0 .927-.124 1.221-.371.294-.248.441-.584.441-1.01 0-.508-.147-.906-.44-1.196-.295-.294-.702-.44-1.222-.44h-3.196v3.016zm0-4.322h2.583c.404 0 .752-.055 1.041-.166.29-.115.512-.277.665-.486a1.23 1.23 0 00.237-.754c0-.413-.173-.737-.518-.972-.345-.238-.82-.358-1.425-.358h-2.583v2.736zm12.664 5.907c-.886 0-1.664-.211-2.333-.633-.664-.422-1.184-1.012-1.56-1.77-.37-.76-.555-1.646-.555-2.66 0-1.023.185-1.915.556-2.678.375-.763.895-1.355 1.56-1.777.668-.422 1.446-.633 2.332-.633.887 0 1.662.21 2.327.633.67.422 1.189 1.014 1.56 1.777.375.763.562 1.655.562 2.678 0 1.014-.187 1.9-.562 2.66-.371.758-.89 1.348-1.56 1.77-.665.422-1.44.633-2.327.633zm0-1.356c.674 0 1.228-.172 1.662-.517.435-.346.757-.8.965-1.362a5.213 5.213 0 00.314-1.828c0-.656-.105-1.268-.314-1.835a3.092 3.092 0 00-.965-1.374c-.434-.35-.988-.524-1.662-.524-.673 0-1.227.175-1.662.524-.434.35-.756.808-.965 1.374a5.266 5.266 0 00-.313 1.835c0 .656.105 1.266.313 1.828.21.563.53 1.017.965 1.362.435.345.99.517 1.662.517zM72.332 56v-1.406h.358c.294 0 .539-.058.735-.173.196-.12.353-.326.473-.62.123-.298.217-.712.281-1.24.068-.533.117-1.21.147-2.033l.179-4.346h6.545V56h-1.508v-8.412h-3.605l-.154 3.503a15.903 15.903 0 01-.217 2.128c-.106.61-.27 1.121-.492 1.535a2.254 2.254 0 01-.87.933c-.362.209-.816.313-1.361.313h-.511zm12.79-6.264h2.813c1.15 0 2.03.292 2.64.876.609.583.914 1.323.914 2.218 0 .588-.137 1.122-.41 1.604-.272.477-.673.859-1.201 1.144-.529.281-1.176.422-1.943.422h-4.117v-9.818h1.509v8.412h2.608c.596 0 1.086-.158 1.47-.473.383-.316.575-.72.575-1.215 0-.52-.192-.944-.575-1.272-.384-.328-.874-.492-1.47-.492h-2.813v-1.406zm15.234.665v1.406h-5.42V50.4h5.42zm-5.063-4.22V56h-1.508v-9.818h1.508zm6.214 0V56h-1.509v-9.818h1.509zm4.059 3.555h2.812c1.151 0 2.031.292 2.64.876.609.583.914 1.323.914 2.218 0 .588-.136 1.122-.409 1.604a2.968 2.968 0 01-1.202 1.144c-.528.281-1.176.422-1.943.422h-4.116v-9.818h1.508v8.412h2.608c.597 0 1.087-.158 1.47-.473a1.5 1.5 0 00.575-1.215c0-.52-.191-.944-.575-1.272-.383-.328-.873-.492-1.47-.492h-2.812v-1.406zM113.492 56v-9.818H115V56h-1.508zm5.395-9.818l2.352 4.014 2.352-4.014h1.739l-3.171 4.909L125.33 56h-1.739l-2.352-3.81-2.352 3.81h-1.739l3.119-4.91-3.119-4.908h1.739zM132.545 56v-9.818h1.508v4.27h.997l3.529-4.27h1.943l-3.963 4.73L140.573 56h-1.943l-3.222-4.142h-1.355V56h-1.508zm8.798 0v-1.406h.358c.294 0 .539-.058.735-.173.196-.12.354-.326.473-.62.124-.298.218-.712.282-1.24.068-.533.117-1.21.147-2.033l.179-4.346h6.545V56h-1.508v-8.412h-3.605l-.154 3.503a15.841 15.841 0 01-.217 2.128c-.107.61-.271 1.121-.492 1.535a2.26 2.26 0 01-.87.933c-.362.209-.816.313-1.361.313h-.512zm12.995-2.224l4.731-7.594h1.738V56h-1.508v-7.594L154.594 56h-1.764v-9.818h1.508v7.594zm13.349 2.428c-.946 0-1.762-.208-2.449-.626a4.203 4.203 0 01-1.578-1.764c-.367-.759-.55-1.64-.55-2.646s.183-1.892.55-2.66c.37-.77.886-1.372 1.546-1.802.665-.435 1.441-.652 2.327-.652.512 0 1.017.085 1.515.256.499.17.953.447 1.362.83.409.38.735.883.978 1.51.243.626.364 1.397.364 2.313v.64h-7.568v-1.305h6.034c0-.554-.111-1.048-.333-1.483a2.5 2.5 0 00-.933-1.029c-.4-.251-.873-.377-1.419-.377-.601 0-1.121.15-1.559.447a2.94 2.94 0 00-1.004 1.151c-.234.473-.352.98-.352 1.521v.87c0 .741.128 1.37.384 1.885.26.512.62.902 1.08 1.17.46.264.995.396 1.605.396.396 0 .754-.055 1.073-.166.324-.115.603-.285.838-.511a2.33 2.33 0 00.543-.857l1.458.41a3.241 3.241 0 01-.774 1.303c-.362.371-.81.66-1.342.87-.533.204-1.132.306-1.796.306zm12.931-5.803v1.406h-5.421V50.4h5.421zm-5.063-4.22V56h-1.508v-9.818h1.508zm6.213 0V56h-1.508v-9.818h1.508zm1.419 1.407v-1.406h7.978v1.406h-3.222V56h-1.509v-8.412h-3.247zm13.657 8.617c-.886 0-1.664-.211-2.333-.633-.665-.422-1.185-1.012-1.56-1.77-.371-.76-.556-1.646-.556-2.66 0-1.023.185-1.915.556-2.678.375-.763.895-1.355 1.56-1.777.669-.422 1.447-.633 2.333-.633.886 0 1.662.21 2.327.633.669.422 1.189 1.014 1.559 1.777.375.763.563 1.655.563 2.678 0 1.014-.188 1.9-.563 2.66-.37.758-.89 1.348-1.559 1.77-.665.422-1.441.633-2.327.633zm0-1.356c.673 0 1.227-.172 1.662-.517.435-.346.756-.8.965-1.362a5.208 5.208 0 00.313-1.828c0-.656-.104-1.268-.313-1.835a3.091 3.091 0 00-.965-1.374c-.435-.35-.989-.524-1.662-.524-.673 0-1.227.175-1.662.524-.435.35-.756.808-.965 1.374a5.261 5.261 0 00-.313 1.835c0 .656.104 1.266.313 1.828.209.563.53 1.017.965 1.362.435.345.989.517 1.662.517zM203.596 56v-9.818h4.014c1.057 0 1.896.238 2.518.716.622.477.933 1.108.933 1.892 0 .596-.176 1.059-.53 1.387-.354.324-.808.543-1.362.658.363.051.714.18 1.055.384.345.204.631.486.857.843.225.354.338.789.338 1.305 0 .502-.127.952-.383 1.348-.256.396-.622.71-1.1.94-.477.23-1.048.345-1.713.345h-4.627zm1.431-1.38h3.196c.52 0 .927-.124 1.221-.371.294-.248.441-.584.441-1.01 0-.508-.147-.906-.441-1.196-.294-.294-.701-.44-1.221-.44h-3.196v3.016zm0-4.322h2.583c.405 0 .752-.055 1.042-.166.289-.115.511-.277.664-.486a1.23 1.23 0 00.237-.754c0-.413-.173-.737-.518-.972-.345-.238-.82-.358-1.425-.358h-2.583v2.736zM39.307 10.25c1.197 0 2.348.2 3.454.602a7.957 7.957 0 012.978 1.92c.878.88 1.572 2.046 2.08 3.5.514 1.448.776 3.224.783 5.33 0 1.977-.223 3.743-.67 5.296-.44 1.545-1.072 2.86-1.898 3.943-.826 1.083-1.822 1.909-2.989 2.477-1.166.56-2.47.841-3.909.841-1.553 0-2.924-.3-4.113-.898-1.19-.606-2.148-1.428-2.875-2.466a7.678 7.678 0 01-1.307-3.522h4.852c.19.848.587 1.507 1.193 1.977.606.462 1.356.693 2.25.693 1.515 0 2.667-.659 3.455-1.977.788-1.326 1.185-3.14 1.193-5.443h-.159a5.57 5.57 0 01-1.41 1.761 6.56 6.56 0 01-2.033 1.125 7.273 7.273 0 01-2.42.398c-1.372 0-2.595-.322-3.671-.966a6.93 6.93 0 01-2.546-2.66c-.62-1.128-.931-2.416-.931-3.863-.008-1.56.352-2.95 1.08-4.17.726-1.22 1.742-2.175 3.045-2.864 1.31-.697 2.833-1.042 4.568-1.034zm.034 3.864c-.765 0-1.447.181-2.046.545a4.024 4.024 0 00-1.409 1.466c-.34.613-.507 1.3-.5 2.057 0 .765.167 1.454.5 2.068a3.99 3.99 0 001.387 1.454c.59.357 1.265.534 2.022.534a3.897 3.897 0 002.841-1.193 4.19 4.19 0 00.853-1.307 4.046 4.046 0 00.306-1.568 4.187 4.187 0 00-.522-2.022 3.994 3.994 0 00-1.41-1.478 3.759 3.759 0 00-2.022-.556zm21.17 20.045c-1.606 0-3.038-.295-4.295-.886-1.25-.591-2.242-1.406-2.977-2.444-.735-1.037-1.118-2.227-1.148-3.568h4.773c.053.902.431 1.633 1.136 2.194.705.56 1.542.84 2.511.84.773 0 1.455-.17 2.046-.511a3.658 3.658 0 001.398-1.443c.34-.621.51-1.334.51-2.137 0-.818-.173-1.537-.522-2.159a3.695 3.695 0 00-1.42-1.454c-.606-.349-1.3-.527-2.08-.534-.682 0-1.344.14-1.988.42-.637.28-1.133.663-1.49 1.148l-4.374-.784 1.102-12.273h14.228v4.023H57.75l-.602 5.83h.136c.41-.576 1.027-1.054 1.852-1.433.826-.378 1.75-.568 2.773-.568 1.402 0 2.652.33 3.75.989a7.12 7.12 0 012.602 2.716c.637 1.144.951 2.462.944 3.954.007 1.569-.356 2.963-1.091 4.182-.728 1.212-1.747 2.167-3.057 2.864-1.303.69-2.818 1.034-4.546 1.034zm24.864-4.682V28.25c0-.932.197-1.788.59-2.568a4.685 4.685 0 011.74-1.887c.765-.477 1.697-.716 2.795-.716 1.114 0 2.05.235 2.807.705a4.505 4.505 0 011.727 1.886c.394.78.591 1.64.591 2.58v1.227a5.7 5.7 0 01-.59 2.58 4.6 4.6 0 01-1.74 1.875c-.765.477-1.697.716-2.795.716-1.114 0-2.05-.239-2.807-.716a4.622 4.622 0 01-1.727-1.875 5.687 5.687 0 01-.591-2.58zm3.307-1.227v1.227c0 .538.129 1.046.386 1.523.265.477.743.716 1.432.716.69 0 1.16-.235 1.41-.705.257-.47.386-.98.386-1.534V28.25c0-.553-.122-1.068-.364-1.546-.243-.477-.72-.716-1.432-.716-.682 0-1.155.24-1.42.716a3.131 3.131 0 00-.398 1.546zm-15.25-12.091v-1.227c0-.94.2-1.8.602-2.58a4.684 4.684 0 011.739-1.886c.765-.47 1.69-.705 2.773-.705 1.12 0 2.06.235 2.818.705a4.604 4.604 0 011.727 1.886c.394.78.59 1.64.59 2.58v1.227c0 .94-.2 1.8-.602 2.58a4.597 4.597 0 01-1.738 1.874c-.758.463-1.69.694-2.795.694-1.107 0-2.042-.235-2.807-.705a4.72 4.72 0 01-1.728-1.875 5.707 5.707 0 01-.58-2.568zm3.33-1.227v1.227c0 .553.128 1.064.386 1.534.265.47.73.705 1.398.705.696 0 1.17-.235 1.42-.705.258-.47.386-.981.386-1.534v-1.227c0-.553-.12-1.069-.363-1.546-.243-.477-.724-.716-1.444-.716-.674 0-1.14.243-1.397.728a3.225 3.225 0 00-.387 1.534zm-1.83 18.909l16-23.273h2.977l-16 23.273h-2.977z" fill="#3B3B46"/></g><defs><clipPath id="clip0_1880_313230"><path fill="#fff" d="M0 0h224v67H0z"/></clipPath></defs></svg>