<svg width="165" height="66" fill="none" xmlns="http://www.w3.org/2000/svg"><path fill="#fff" d="M0 0h165v66H0z"/><path d="M20.383 24.703c0 1.543.34 2.727.784 3.444.583.939 1.452 1.337 2.338 1.337 1.143 0 2.189-.283 4.204-3.058 1.614-2.225 3.516-5.348 4.796-7.306l2.167-3.317c1.506-2.303 3.249-4.864 5.247-6.6C41.549 7.788 43.309 7 45.08 7c2.973 0 5.805 1.716 7.973 4.934 2.372 3.525 3.523 7.965 3.523 12.546 0 2.724-.539 4.726-1.456 6.307-.886 1.529-2.613 3.056-5.519 3.056v-4.36c2.488 0 3.109-2.276 3.109-4.882 0-3.713-.87-7.833-2.784-10.778-1.359-2.088-3.12-3.364-5.057-3.364-2.096 0-3.782 1.574-5.677 4.38-1.008 1.492-2.042 3.309-3.203 5.36l-1.278 2.255c-2.569 4.535-3.22 5.568-4.503 7.273-2.25 2.985-4.173 4.116-6.703 4.116-3 0-4.899-1.294-6.074-3.245-.96-1.59-1.431-3.675-1.431-6.051l4.383.156z" fill="#0081FB"/><path d="M19.455 12.242C21.465 9.157 24.365 7 27.69 7c1.926 0 3.84.568 5.84 2.194 2.187 1.778 4.518 4.705 7.427 9.53l1.042 1.731c2.518 4.177 3.95 6.326 4.788 7.34 1.078 1.3 1.833 1.689 2.814 1.689 2.487 0 3.108-2.277 3.108-4.883l3.867-.12c0 2.723-.54 4.724-1.457 6.306-.886 1.529-2.613 3.056-5.518 3.056-1.806 0-3.407-.39-5.176-2.053-1.36-1.276-2.95-3.543-4.174-5.58l-3.639-6.055c-1.826-3.039-3.5-5.304-4.47-6.33-1.043-1.104-2.384-2.436-4.523-2.436-1.731 0-3.201 1.21-4.432 3.061l-3.732-2.208z" fill="url(#paint0_linear_1129_267615)"/><path d="M27.62 11.39c-1.731 0-3.202 1.21-4.432 3.06-1.74 2.616-2.805 6.511-2.805 10.253 0 1.543.34 2.727.784 3.444l-3.736 2.451C16.47 29.008 16 26.923 16 24.547c0-4.322 1.19-8.826 3.456-12.305C21.465 9.157 24.365 7 27.69 7l-.071 4.39z" fill="url(#paint1_linear_1129_267615)"/><path d="M65.096 7.849h5.07l8.62 15.532L87.407 7.85h4.96v25.52H88.23V13.81l-7.56 13.545h-3.88L69.23 13.81v19.56h-4.135V7.85zm40.23 9.516c-2.966 0-4.752 2.223-5.18 4.976h10.066c-.207-2.836-1.849-4.976-4.886-4.976zm-9.28 6.545c0-5.793 3.759-10.01 9.352-10.01 5.502 0 8.787 4.163 8.787 10.319v1.131h-14.039c.498 2.995 2.493 5.013 5.711 5.013 2.566 0 4.171-.78 5.692-2.206l2.197 2.68c-2.07 1.896-4.703 2.99-8.036 2.99-6.055 0-9.664-4.398-9.664-9.917zm23.154-6.18h-3.807v-3.373h3.807V8.78h3.99v5.578h5.784v3.373h-5.784v8.55c0 2.918.937 3.955 3.24 3.955 1.051 0 1.654-.09 2.544-.237v3.336a11.93 11.93 0 01-3.313.456c-4.308 0-6.461-2.345-6.461-7.037V17.73zm26.577 3.28c-.802-2.015-2.59-3.5-5.217-3.5-3.415 0-5.601 2.414-5.601 6.345 0 3.832 2.013 6.362 5.437 6.362 2.693 0 4.614-1.56 5.381-3.5V21.01zm3.99 12.36h-3.917v-2.66c-1.095 1.566-3.087 3.116-6.314 3.116-5.19 0-8.659-4.327-8.659-9.971 0-5.698 3.552-9.955 8.879-9.955 2.633 0 4.698 1.049 6.094 2.9v-2.443h3.917v19.014zM23.66 53.102c.639.177 1.14.5 1.507.968.366.458.55 1.04.55 1.748 0 .948-.362 1.676-1.083 2.186-.712.51-1.752.765-3.122.765h-5.24V47.84h4.926c1.255 0 2.222.25 2.902.75.69.5 1.036 1.191 1.036 2.076 0 .573-.136 1.067-.408 1.483a2.55 2.55 0 01-1.067.953zm-5.82-3.997v3.497h3.217c.805 0 1.422-.146 1.85-.437.44-.302.66-.74.66-1.312 0-.572-.22-1.004-.66-1.295-.428-.302-1.045-.453-1.85-.453H17.84zm3.609 8.4c.889 0 1.558-.146 2.008-.438.45-.291.675-.749.675-1.373 0-1.218-.895-1.827-2.683-1.827H17.84v3.638h3.609zm14.227-7.01v8.274h-1.428V57.52c-.303.427-.706.76-1.208 1a3.78 3.78 0 01-1.616.343c-1.108 0-1.982-.302-2.62-.906-.638-.614-.957-1.514-.957-2.7v-4.763h1.506v4.59c0 .802.194 1.41.58 1.827.388.406.942.61 1.664.61.795 0 1.422-.24 1.883-.719.46-.479.69-1.155.69-2.03v-4.278h1.506zm5.252 8.368c-.68 0-1.334-.089-1.961-.266-.628-.187-1.12-.421-1.475-.702l.628-1.187c.366.26.81.469 1.333.625a5.51 5.51 0 001.585.234c1.318 0 1.977-.375 1.977-1.124a.727.727 0 00-.267-.593 1.619 1.619 0 00-.675-.313c-.261-.072-.638-.15-1.13-.234a11.462 11.462 0 01-1.647-.359 2.534 2.534 0 01-1.082-.687c-.304-.323-.455-.775-.455-1.358 0-.75.313-1.348.941-1.796.628-.458 1.47-.687 2.526-.687.554 0 1.109.068 1.663.203.554.136 1.01.318 1.365.547l-.643 1.186c-.68-.437-1.48-.655-2.4-.655-.639 0-1.125.104-1.46.312-.334.208-.502.484-.502.827 0 .27.094.484.282.64.189.157.419.271.69.344.283.073.676.156 1.178.25.669.114 1.208.24 1.615.374.419.125.774.344 1.067.656.293.312.44.75.44 1.312 0 .75-.325 1.348-.973 1.795-.638.437-1.512.656-2.62.656zm5.475-8.369h1.506v8.275h-1.506v-8.275zm.753-1.592c-.293 0-.539-.094-.737-.281a.932.932 0 01-.283-.687c0-.27.094-.5.283-.687.198-.198.444-.297.737-.297a.98.98 0 01.722.281.86.86 0 01.298.672c0 .28-.1.52-.298.718a.98.98 0 01-.722.28zm8.069 1.514c1.056 0 1.893.307 2.51.921.627.604.941 1.494.941 2.67v4.762H57.17v-4.59c0-.802-.194-1.405-.58-1.811-.388-.406-.942-.609-1.664-.609-.815 0-1.459.24-1.93.718-.47.469-.705 1.145-.705 2.03v4.262h-1.506v-8.275h1.443v1.25a2.933 2.933 0 011.224-.984c.523-.23 1.114-.344 1.773-.344zm13.8 4.263c0 .114-.011.265-.032.452h-6.746c.094.729.413 1.317.957 1.765.554.437 1.24.655 2.055.655.994 0 1.794-.333 2.4-.999l.832.968a3.63 3.63 0 01-1.412 1c-.554.228-1.177.343-1.867.343-.879 0-1.658-.177-2.338-.53a3.957 3.957 0 01-1.584-1.515c-.366-.646-.55-1.374-.55-2.186 0-.802.178-1.525.534-2.17a3.883 3.883 0 011.49-1.5c.639-.364 1.355-.546 2.15-.546.795 0 1.5.182 2.118.547a3.671 3.671 0 011.459 1.499c.356.645.533 1.384.533 2.217zm-4.111-2.998c-.722 0-1.328.219-1.82.656-.481.437-.764 1.01-.847 1.717h5.334c-.084-.697-.371-1.265-.863-1.702-.481-.447-1.083-.671-1.804-.671zm8.587 7.182c-.68 0-1.334-.089-1.962-.266-.627-.187-1.119-.421-1.474-.702l.627-1.187c.366.26.81.469 1.334.625a5.509 5.509 0 001.584.234c1.318 0 1.977-.375 1.977-1.124a.727.727 0 00-.267-.593 1.619 1.619 0 00-.674-.313c-.262-.072-.638-.15-1.13-.234a11.462 11.462 0 01-1.647-.359 2.534 2.534 0 01-1.083-.687c-.303-.323-.455-.775-.455-1.358 0-.75.314-1.348.942-1.796.627-.458 1.47-.687 2.526-.687a6.99 6.99 0 011.663.203c.554.136 1.009.318 1.364.547l-.643 1.186c-.68-.437-1.48-.655-2.4-.655-.638 0-1.124.104-1.46.312-.334.208-.501.484-.501.827 0 .27.094.484.282.64.189.157.419.271.69.344.283.073.675.156 1.177.25.67.114 1.208.24 1.616.374.418.125.774.344 1.067.656.293.312.44.75.44 1.312 0 .75-.325 1.348-.973 1.795-.638.437-1.512.656-2.62.656zm7.859 0c-.68 0-1.334-.089-1.961-.266-.628-.187-1.12-.421-1.475-.702l.628-1.187c.366.26.81.469 1.333.625a5.509 5.509 0 001.585.234c1.318 0 1.977-.375 1.977-1.124a.727.727 0 00-.267-.593 1.619 1.619 0 00-.675-.313c-.261-.072-.638-.15-1.13-.234a11.462 11.462 0 01-1.647-.359 2.534 2.534 0 01-1.082-.687c-.303-.323-.455-.775-.455-1.358 0-.75.314-1.348.941-1.796.628-.458 1.47-.687 2.526-.687a6.99 6.99 0 011.663.203c.555.136 1.01.318 1.365.547l-.643 1.186c-.68-.437-1.48-.655-2.4-.655-.639 0-1.125.104-1.46.312-.334.208-.502.484-.502.827 0 .27.094.484.283.64.188.157.418.271.69.344.282.073.675.156 1.177.25.67.114 1.208.24 1.616.374a2.36 2.36 0 011.066.656c.293.312.44.75.44 1.312 0 .75-.325 1.348-.973 1.795-.638.437-1.511.656-2.62.656zM95.551 47.84c1.423 0 2.542.338 3.358 1.015.815.677 1.223 1.608 1.223 2.795 0 1.186-.408 2.118-1.223 2.794-.816.677-1.935 1.015-3.358 1.015h-2.714v3.31h-1.569V47.84h4.283zm-.047 6.26c.994 0 1.752-.207 2.275-.624.523-.426.784-1.035.784-1.826 0-.791-.261-1.395-.784-1.811-.523-.427-1.281-.64-2.275-.64h-2.667V54.1h2.667zm9.665-3.684c1.15 0 2.029.281 2.635.843.618.562.926 1.4.926 2.514v4.996h-1.428v-1.093c-.251.385-.612.682-1.082.89-.46.198-1.009.297-1.647.297-.931 0-1.679-.224-2.244-.672-.554-.447-.831-1.035-.831-1.764 0-.728.266-1.311.8-1.748.533-.448 1.38-.672 2.541-.672h2.385v-.296c0-.646-.188-1.14-.565-1.484-.376-.343-.931-.515-1.663-.515-.491 0-.973.083-1.443.25a3.63 3.63 0 00-1.193.64l-.627-1.124a4.458 4.458 0 011.537-.78 6.303 6.303 0 011.899-.282zm-.345 7.292c.575 0 1.072-.125 1.49-.375.418-.26.722-.625.91-1.093v-1.155h-2.322c-1.276 0-1.914.426-1.914 1.28 0 .416.162.744.486.983.325.24.774.36 1.35.36zm8.137-5.824a2.56 2.56 0 011.161-1.093c.512-.25 1.135-.375 1.867-.375v1.452a2.963 2.963 0 00-.345-.015c-.816 0-1.459.244-1.93.733-.46.48-.69 1.166-.69 2.061v4.122h-1.507v-8.275h1.444v1.39zm9.896 6.401a2.336 2.336 0 01-.815.437c-.325.094-.659.14-1.005.14-.836 0-1.485-.223-1.945-.67-.46-.448-.69-1.088-.69-1.92v-4.544h-1.412v-1.234h1.412v-1.81h1.506v1.81h2.385v1.234h-2.385v4.48c0 .448.11.792.329 1.031.23.24.555.36.973.36.46 0 .852-.13 1.177-.391l.47 1.077zm6.261-7.869c1.056 0 1.893.307 2.51.921.628.604.942 1.494.942 2.67v4.762h-1.507v-4.59c0-.802-.193-1.405-.58-1.811-.387-.406-.941-.609-1.663-.609-.816 0-1.459.24-1.93.718-.47.469-.706 1.145-.706 2.03v4.262h-1.506v-8.275h1.443v1.25a2.942 2.942 0 011.224-.984c.523-.23 1.114-.344 1.773-.344zm13.8 4.263c0 .114-.011.265-.032.452h-6.746c.094.729.413 1.317.957 1.765.555.437 1.24.655 2.055.655.994 0 1.794-.333 2.401-.999l.831.968c-.376.437-.847.77-1.412 1-.554.228-1.176.343-1.867.343-.878 0-1.657-.177-2.337-.53a3.96 3.96 0 01-1.585-1.515c-.366-.646-.549-1.374-.549-2.186 0-.802.178-1.525.534-2.17a3.878 3.878 0 011.49-1.5c.638-.364 1.354-.546 2.149-.546.795 0 1.501.182 2.118.547a3.667 3.667 0 011.459 1.499c.356.645.534 1.384.534 2.217zm-4.111-2.998c-.721 0-1.328.219-1.82.656-.481.437-.763 1.01-.847 1.717h5.334c-.083-.697-.371-1.265-.862-1.702-.482-.447-1.083-.671-1.805-.671zm7.645.203a2.57 2.57 0 011.161-1.093c.513-.25 1.135-.375 1.867-.375v1.452a2.94 2.94 0 00-.345-.015c-.816 0-1.459.244-1.93.733-.46.48-.69 1.166-.69 2.061v4.122h-1.506v-8.275h1.443v1.39z" fill="#192830"/><defs><linearGradient id="paint0_linear_1129_267615" x1="24.607" y1="23.443" x2="52.545" y2="24.86" gradientUnits="userSpaceOnUse"><stop stop-color="#0064E1"/><stop offset=".4" stop-color="#0064E1"/><stop offset=".83" stop-color="#0073EE"/><stop offset="1" stop-color="#0082FB"/></linearGradient><linearGradient id="paint1_linear_1129_267615" x1="22.35" y1="26.535" x2="22.35" y2="16.276" gradientUnits="userSpaceOnUse"><stop stop-color="#0082FB"/><stop offset="1" stop-color="#0064E0"/></linearGradient></defs></svg>