<svg width="224" height="66" fill="none" xmlns="http://www.w3.org/2000/svg"><g clip-path="url(#clip0_1880_313202)"><path fill="#fff" d="M0 0h224v66H0z"/><path d="M192.249 0H0v66.124h192.249V0z" fill="#fff"/><path d="M17.485.086H0V66.21h17.485V.086z" fill="#FF5C39"/><path d="M30.38 58.682v-13.5h1.458v1.56h.179c.11-.171.264-.388.46-.652.2-.269.486-.508.857-.716.375-.214.882-.32 1.521-.32.827 0 1.556.207 2.186.62.63.413 1.123 1 1.477 1.758.353.758.53 1.653.53 2.684 0 1.04-.177 1.941-.53 2.704-.354.759-.844 1.347-1.47 1.764-.627.414-1.35.62-2.167.62-.631 0-1.136-.104-1.515-.313-.38-.213-.671-.453-.876-.722a9.653 9.653 0 01-.473-.677h-.128v5.19h-1.508zm1.484-8.591c0 .741.108 1.395.326 1.962.217.563.534 1.004.952 1.323.418.316.929.473 1.534.473.63 0 1.157-.166 1.579-.498.426-.337.746-.788.959-1.355a5.318 5.318 0 00.326-1.905c0-.69-.107-1.313-.32-1.867-.209-.558-.526-.999-.952-1.323-.422-.328-.953-.492-1.592-.492-.614 0-1.13.156-1.547.467-.417.306-.733.737-.946 1.29-.213.55-.32 1.192-.32 1.925zm13.474 5.114c-.886 0-1.664-.211-2.333-.633-.665-.422-1.185-1.012-1.56-1.77-.37-.76-.556-1.646-.556-2.66 0-1.023.186-1.915.556-2.678.375-.763.895-1.355 1.56-1.777.669-.422 1.447-.633 2.333-.633.886 0 1.662.21 2.327.633.669.422 1.189 1.014 1.56 1.777.374.763.562 1.655.562 2.678 0 1.014-.188 1.9-.563 2.66-.37.758-.89 1.348-1.56 1.77-.664.422-1.44.633-2.326.633zm0-1.356c.673 0 1.227-.172 1.662-.517.435-.346.756-.8.965-1.362a5.213 5.213 0 00.313-1.828c0-.656-.104-1.268-.313-1.835A3.092 3.092 0 0047 46.933c-.435-.35-.989-.524-1.662-.524-.673 0-1.227.175-1.662.524-.434.35-.756.808-.965 1.374a5.266 5.266 0 00-.313 1.835c0 .656.104 1.266.313 1.828.209.563.53 1.017.965 1.362.435.345.989.517 1.662.517zM52.09 55v-9.818h1.508v4.27h.997l3.529-4.27h1.943l-3.963 4.73L60.118 55h-1.943l-3.222-4.142h-1.355V55H52.09zm9.668 0v-9.818h1.508V55h-1.508zm.767-11.455c-.294 0-.548-.1-.761-.3a.965.965 0 01-.313-.722c0-.282.104-.522.313-.723.213-.2.467-.3.76-.3.295 0 .546.1.755.3.213.2.32.442.32.723a.956.956 0 01-.32.722c-.209.2-.46.3-.754.3zM66.029 55v-9.818h4.014c1.057 0 1.897.238 2.519.716.622.477.933 1.108.933 1.892 0 .596-.177 1.059-.53 1.387-.354.324-.808.543-1.362.658a2.8 2.8 0 011.055.384c.345.204.63.486.856.843.226.354.339.789.339 1.305 0 .502-.128.952-.383 1.348-.256.396-.623.71-1.1.94-.477.23-1.048.345-1.713.345h-4.628zm1.432-1.38h3.196c.52 0 .927-.124 1.22-.371.295-.248.442-.584.442-1.01 0-.508-.147-.906-.441-1.196-.294-.294-.701-.44-1.221-.44h-3.196v3.016zm0-4.322h2.582c.405 0 .752-.055 1.042-.166.29-.115.512-.277.665-.486a1.23 1.23 0 00.237-.754c0-.413-.173-.737-.518-.972-.345-.238-.82-.358-1.426-.358h-2.582v2.736zm12.69 8.514v-4.218h.818c.2-.21.373-.435.518-.678.145-.243.27-.53.377-.863.11-.336.204-.745.281-1.227.077-.486.145-1.072.205-1.758l.332-3.886h6.239v8.412h1.508v4.218h-1.508V55h-7.262v2.813h-1.508zm2.531-4.218h4.73v-7.006h-3.324l-.255 2.48a27.802 27.802 0 01-.397 2.691c-.157.767-.409 1.379-.754 1.835zm13.738 1.61c-.886 0-1.664-.21-2.333-.632-.665-.422-1.185-1.012-1.56-1.77-.37-.76-.556-1.646-.556-2.66 0-1.023.186-1.915.556-2.678.375-.763.895-1.355 1.56-1.777.669-.422 1.447-.633 2.333-.633.886 0 1.662.21 2.327.633.669.422 1.189 1.014 1.559 1.777.375.763.563 1.655.563 2.678 0 1.014-.188 1.9-.563 2.66-.37.758-.89 1.348-1.56 1.77-.664.422-1.44.633-2.326.633zm0-1.355c.673 0 1.227-.172 1.662-.517.435-.346.756-.8.965-1.362a5.213 5.213 0 00.313-1.828c0-.656-.104-1.268-.313-1.835a3.092 3.092 0 00-.965-1.374c-.435-.35-.989-.524-1.662-.524-.673 0-1.227.175-1.662.524-.434.35-.756.808-.965 1.374a5.266 5.266 0 00-.313 1.835c0 .656.104 1.266.313 1.828.209.563.53 1.017.965 1.362.435.345.989.517 1.662.517zm10.74 1.356c-.92 0-1.713-.218-2.378-.652-.664-.435-1.176-1.034-1.534-1.797-.358-.762-.537-1.634-.537-2.614 0-.997.184-1.877.55-2.64.371-.767.887-1.366 1.547-1.796.665-.435 1.44-.652 2.327-.652.69 0 1.312.128 1.866.383a3.577 3.577 0 011.362 1.074c.353.46.573.997.658 1.611h-1.508c-.115-.447-.371-.844-.767-1.189-.392-.35-.921-.524-1.586-.524-.588 0-1.103.154-1.547.46-.438.303-.782.731-1.029 1.285-.243.55-.364 1.195-.364 1.937 0 .758.119 1.419.358 1.981.243.563.584 1 1.023 1.31.443.312.963.467 1.559.467.392 0 .748-.068 1.068-.204.319-.137.59-.333.812-.588a2.27 2.27 0 00.473-.92h1.508a3.488 3.488 0 01-.633 1.565 3.53 3.53 0 01-1.323 1.1c-.545.268-1.18.403-1.905.403zm6.066-.205v-9.818h4.015c1.056 0 1.896.238 2.518.716.622.477.933 1.108.933 1.892 0 .596-.177 1.059-.53 1.387-.354.324-.808.543-1.362.658.362.051.714.18 1.055.384.345.204.631.486.856.843.226.354.339.789.339 1.305 0 .502-.128.952-.383 1.348-.256.396-.622.71-1.1.94-.477.23-1.048.345-1.713.345h-4.628zm1.432-1.38h3.196c.52 0 .927-.124 1.221-.371.294-.248.441-.584.441-1.01 0-.508-.147-.906-.441-1.196-.294-.294-.701-.44-1.221-.44h-3.196v3.016zm0-4.322h2.583c.404 0 .752-.055 1.041-.166a1.47 1.47 0 00.665-.486 1.23 1.23 0 00.237-.754c0-.413-.173-.737-.518-.972-.345-.238-.82-.358-1.425-.358h-2.583v2.736zM123.334 55v-9.818h1.508V55h-1.508zm.767-11.455c-.294 0-.548-.1-.761-.3a.964.964 0 01-.313-.722c0-.282.104-.522.313-.723.213-.2.467-.3.761-.3s.545.1.754.3c.213.2.32.442.32.723a.957.957 0 01-.32.722c-.209.2-.46.3-.754.3zm2.456 14.267v-4.218h.818c.2-.21.373-.435.518-.678.145-.243.271-.53.377-.863a7.88 7.88 0 00.281-1.227c.077-.486.145-1.072.205-1.758l.332-3.886h6.239v8.412h1.508v4.218h-1.508V55h-7.261v2.813h-1.509zm2.531-4.218h4.73v-7.006h-3.324l-.255 2.48a28.124 28.124 0 01-.396 2.691c-.158.767-.41 1.379-.755 1.835zm10.721 5.088c-.255 0-.483-.022-.684-.064a1.807 1.807 0 01-.415-.115l.383-1.33c.367.094.691.128.972.103.281-.026.531-.152.748-.378.221-.221.424-.581.607-1.08l.281-.767-3.63-9.87h1.636l2.71 7.825h.103l2.71-7.824h1.636l-4.167 11.25c-.188.507-.42.927-.697 1.26a2.614 2.614 0 01-.965.747 2.981 2.981 0 01-1.228.243zM39.818 33.318a10.52 10.52 0 01-3.466-.602c-1.106-.394-2.098-1.034-2.977-1.92-.879-.887-1.576-2.061-2.09-3.523-.509-1.462-.762-3.258-.762-5.387.007-1.954.23-3.7.67-5.238.447-1.546 1.083-2.856 1.91-3.932.833-1.076 1.829-1.894 2.988-2.455 1.159-.568 2.458-.852 3.898-.852 1.553 0 2.924.303 4.113.91 1.19.598 2.144 1.412 2.864 2.442a7.427 7.427 0 011.318 3.466h-4.852c-.19-.81-.587-1.447-1.193-1.909-.606-.462-1.356-.693-2.25-.693-1.515 0-2.667.66-3.455 1.977-.78 1.319-1.178 3.11-1.193 5.375h.159a5.41 5.41 0 011.41-1.761 6.429 6.429 0 012.033-1.125 7.34 7.34 0 012.42-.398c1.38 0 2.607.326 3.682.977a6.93 6.93 0 012.546 2.66c.621 1.128.932 2.42.932 3.875 0 1.575-.368 2.977-1.103 4.204-.727 1.227-1.746 2.19-3.056 2.886-1.303.69-2.819 1.03-4.546 1.023zm-.023-3.863c.758 0 1.436-.182 2.035-.546a3.883 3.883 0 001.409-1.477c.34-.621.511-1.318.511-2.091 0-.773-.17-1.466-.511-2.08a3.847 3.847 0 00-1.387-1.465c-.59-.364-1.265-.546-2.022-.546a3.9 3.9 0 00-1.58.318 3.967 3.967 0 00-1.261.886 4.262 4.262 0 00-.841 1.319 4.078 4.078 0 00-.307 1.58c0 .75.17 1.435.511 2.056a4.09 4.09 0 001.41 1.489c.598.37 1.276.556 2.033.556zm19.17 0V13.363h4.07v16.09h-4.07zm-6.01-6.012v-4.068h16.09v4.068h-16.09z" fill="#3B3B46"/></g><defs><clipPath id="clip0_1880_313202"><path fill="#fff" d="M0 0h224v66H0z"/></clipPath></defs></svg>