<svg width="224" height="66" fill="none" xmlns="http://www.w3.org/2000/svg"><g clip-path="url(#clip0_1880_313222)"><path fill="#fff" d="M0 0h224v66H0z"/><path d="M192.249.21H0v66.124h192.249V.21z" fill="#fff"/><path d="M17.485.297H0V66.42h17.485V.297z" fill="#FF5C39"/><path d="M34.37 55.415c-.921 0-1.714-.217-2.378-.652a4.25 4.25 0 01-1.535-1.796c-.358-.763-.537-1.634-.537-2.614 0-.998.184-1.878.55-2.64.37-.767.887-1.366 1.547-1.797.665-.434 1.44-.652 2.327-.652.69 0 1.312.128 1.866.384a3.574 3.574 0 011.362 1.074c.353.46.573.997.658 1.61h-1.508c-.116-.447-.371-.843-.767-1.188-.392-.35-.92-.524-1.586-.524-.588 0-1.103.153-1.547.46-.439.302-.782.73-1.029 1.285-.243.55-.364 1.195-.364 1.936 0 .759.12 1.42.358 1.982.243.562.584 1 1.023 1.31.443.311.963.467 1.56.467.391 0 .747-.068 1.067-.205.32-.136.59-.332.812-.588.221-.255.379-.562.473-.92h1.508a3.495 3.495 0 01-.633 1.566c-.332.46-.773.827-1.323 1.1-.545.268-1.18.402-1.905.402zm5.292-8.617v-1.406h7.977v1.406h-3.221v8.412h-1.509v-8.412h-3.247zM49.84 55.21v-9.818h4.014c1.057 0 1.896.239 2.518.716.623.477.934 1.108.934 1.892 0 .597-.177 1.06-.531 1.387-.354.324-.807.544-1.361.659a2.8 2.8 0 011.054.383c.345.205.63.486.857.844.226.354.338.788.338 1.304 0 .503-.127.952-.383 1.349-.256.396-.622.71-1.1.94-.477.23-1.048.344-1.712.344H49.84zm1.431-1.38h3.197c.52 0 .926-.124 1.22-.371.294-.247.441-.584.441-1.01 0-.507-.147-.905-.44-1.195-.295-.294-.702-.441-1.221-.441H51.27v3.017zm0-4.321h2.583c.405 0 .752-.056 1.042-.166.29-.116.511-.277.664-.486.158-.213.237-.465.237-.755a1.11 1.11 0 00-.518-.971c-.345-.239-.82-.358-1.425-.358h-2.582v2.736zm12.665 5.906c-.887 0-1.664-.21-2.333-.633-.665-.422-1.185-1.012-1.56-1.77-.37-.759-.556-1.645-.556-2.66 0-1.022.185-1.915.556-2.678.375-.763.895-1.355 1.56-1.777.669-.422 1.446-.633 2.333-.633.886 0 1.662.211 2.326.633.67.422 1.19 1.014 1.56 1.777.375.763.563 1.656.563 2.678 0 1.015-.188 1.901-.563 2.66-.37.758-.89 1.348-1.56 1.77-.664.422-1.44.633-2.326.633zm0-1.355c.673 0 1.227-.173 1.662-.518.434-.345.756-.799.965-1.361a5.213 5.213 0 00.313-1.828c0-.657-.104-1.268-.313-1.835a3.093 3.093 0 00-.965-1.374c-.435-.35-.989-.524-1.662-.524-.674 0-1.227.174-1.662.524-.435.35-.757.807-.965 1.374a5.265 5.265 0 00-.314 1.834c0 .657.105 1.266.314 1.829.208.562.53 1.016.965 1.361.434.345.988.518 1.662.518zm6.751 4.832v-13.5h1.458v1.56h.179c.11-.17.264-.388.46-.652.2-.268.486-.507.856-.716.375-.213.882-.32 1.522-.32.826 0 1.555.207 2.186.62.63.414 1.123 1 1.476 1.758.354.759.53 1.654.53 2.685 0 1.04-.176 1.941-.53 2.704-.353.758-.843 1.346-1.47 1.764-.626.413-1.349.62-2.167.62-.63 0-1.135-.104-1.515-.313-.379-.213-.67-.454-.875-.722a9.679 9.679 0 01-.473-.678h-.128v5.19h-1.509zm1.483-8.59c0 .74.109 1.395.326 1.962.218.562.535 1.003.953 1.323.417.315.929.473 1.534.473.63 0 1.157-.166 1.579-.499.426-.336.745-.788.958-1.355a5.318 5.318 0 00.326-1.905c0-.69-.106-1.312-.32-1.866-.208-.558-.525-1-.952-1.323-.421-.328-.952-.492-1.591-.492-.614 0-1.13.155-1.547.466-.418.307-.733.737-.946 1.291-.213.55-.32 1.191-.32 1.924zm13.603 5.113c-.947 0-1.763-.209-2.449-.626a4.205 4.205 0 01-1.578-1.765c-.367-.758-.55-1.64-.55-2.646s.183-1.892.55-2.659c.37-.771.886-1.372 1.546-1.803.665-.434 1.44-.652 2.327-.652a4.67 4.67 0 011.515.256c.499.17.953.448 1.362.831.409.38.735.882.978 1.509.242.626.364 1.397.364 2.313v.64H82.27v-1.304h6.034c0-.554-.111-1.049-.333-1.483a2.504 2.504 0 00-.933-1.03c-.4-.25-.873-.377-1.419-.377-.6 0-1.12.15-1.56.448a2.95 2.95 0 00-1.003 1.15 3.38 3.38 0 00-.352 1.522v.87c0 .74.128 1.37.384 1.885.26.511.62.901 1.08 1.17.46.264.995.396 1.605.396.396 0 .754-.056 1.073-.166.324-.115.603-.286.838-.512.234-.23.415-.515.543-.856l1.457.409a3.23 3.23 0 01-.773 1.304 3.8 3.8 0 01-1.342.87c-.533.204-1.132.306-1.796.306zm12.93-5.804v1.406h-5.42v-1.406h5.42zm-5.062-4.219v9.818h-1.508v-9.818h1.508zm6.213 0v9.818h-1.508v-9.818h1.508zm4.264 7.594l4.73-7.594h1.738v9.818h-1.508v-7.593l-4.705 7.593h-1.764v-9.818h1.509v7.594zm10.356-7.594l2.353 4.014 2.352-4.014h1.739l-3.171 4.91 3.171 4.908h-1.739l-2.352-3.81-2.353 3.81h-1.738l3.119-4.909-3.119-4.909h1.738zm17.647 10.023c-.92 0-1.713-.217-2.378-.652a4.255 4.255 0 01-1.534-1.796c-.358-.763-.537-1.634-.537-2.614 0-.998.184-1.878.55-2.64.371-.767.886-1.366 1.547-1.797.665-.434 1.44-.652 2.327-.652.69 0 1.312.128 1.866.384a3.578 3.578 0 011.362 1.074c.353.46.573.997.658 1.61h-1.508c-.116-.447-.371-.843-.768-1.188-.392-.35-.92-.524-1.585-.524-.588 0-1.103.153-1.547.46-.439.302-.782.73-1.029 1.285-.243.55-.364 1.195-.364 1.936 0 .759.119 1.42.358 1.982.243.562.584 1 1.023 1.31.443.311.963.467 1.559.467.392 0 .748-.068 1.068-.205.319-.136.59-.332.812-.588.221-.255.379-.562.473-.92h1.508a3.488 3.488 0 01-.633 1.566 3.53 3.53 0 01-1.323 1.1c-.545.268-1.18.402-1.905.402zm8.956.026a3.987 3.987 0 01-1.694-.352 2.905 2.905 0 01-1.208-1.03c-.299-.45-.448-.996-.448-1.636 0-.562.111-1.018.332-1.367.222-.354.518-.631.889-.831.371-.2.78-.35 1.227-.448a14.97 14.97 0 011.362-.243c.596-.076 1.08-.134 1.451-.172.375-.043.647-.113.818-.211.175-.098.262-.269.262-.512v-.05c0-.631-.173-1.121-.518-1.47-.341-.35-.858-.525-1.553-.525-.72 0-1.285.158-1.694.473-.409.315-.697.652-.863 1.01l-1.432-.511c.256-.597.597-1.062 1.023-1.394.43-.337.899-.57 1.406-.703a5.846 5.846 0 011.509-.205c.315 0 .677.039 1.086.115a3.48 3.48 0 011.196.454c.388.23.709.578.965 1.042.256.465.384 1.087.384 1.867v6.468h-1.509v-1.33h-.077a2.638 2.638 0 01-.511.685c-.239.243-.556.45-.952.62-.397.17-.88.256-1.451.256zm.23-1.356c.596 0 1.099-.117 1.508-.351.414-.235.725-.537.933-.908.213-.37.32-.76.32-1.17v-1.38c-.064.076-.205.147-.422.21a6.81 6.81 0 01-.741.16 34.01 34.01 0 01-1.445.192 5.755 5.755 0 00-1.099.25c-.337.11-.61.279-.819.505-.204.221-.306.524-.306.907 0 .524.194.92.581 1.19.392.263.889.395 1.49.395zm8.531-1.099l4.731-7.594h1.738v9.818h-1.508v-7.593l-4.705 7.593h-1.764v-9.818h1.508v7.594zm3.733-10.866h1.407c0 .69-.239 1.255-.716 1.693-.478.44-1.125.659-1.943.659-.806 0-1.447-.22-1.924-.659-.473-.439-.71-1.003-.71-1.694h1.406c0 .333.092.625.275.876.188.252.505.377.953.377.447 0 .767-.125.958-.377.196-.251.294-.543.294-.875zm4.163 4.678v-1.406h7.977v1.406h-3.221v8.412h-1.509v-8.412h-3.247zm10.178 8.412v-9.818h1.508v9.818h-1.508zm.767-11.454c-.294 0-.548-.1-.761-.3a.968.968 0 01-.313-.723c0-.281.105-.522.313-.722.213-.2.467-.3.761-.3s.545.1.754.3c.213.2.32.44.32.722a.957.957 0 01-.32.723c-.209.2-.46.3-.754.3zm3.504 11.454v-9.818h4.015c1.056 0 1.896.239 2.518.716.622.477.933 1.108.933 1.892 0 .597-.177 1.06-.53 1.387-.354.324-.808.544-1.362.659.362.05.714.179 1.055.383.345.205.631.486.857.844.225.354.338.788.338 1.304 0 .503-.128.952-.383 1.349-.256.396-.622.71-1.1.94-.477.23-1.048.344-1.713.344h-4.628zm1.432-1.38h3.196c.52 0 .927-.124 1.221-.371.294-.247.441-.584.441-1.01 0-.507-.147-.905-.441-1.195-.294-.294-.701-.441-1.221-.441h-3.196v3.017zm0-4.321h2.583c.404 0 .752-.056 1.042-.166.289-.116.511-.277.664-.486.158-.213.237-.465.237-.755 0-.413-.173-.737-.518-.971-.345-.239-.82-.358-1.425-.358h-2.583v2.736zM41.011 9.938V33.21h-4.92V14.608h-.136l-5.33 3.341v-4.364l5.761-3.647h4.625zm14.657 23.784c-1.955-.008-3.637-.489-5.046-1.443-1.401-.955-2.48-2.338-3.239-4.148-.75-1.81-1.12-3.989-1.113-6.534 0-2.538.375-4.7 1.125-6.489.758-1.788 1.837-3.148 3.238-4.08 1.41-.939 3.088-1.408 5.035-1.408s3.62.47 5.022 1.409c1.41.939 2.493 2.303 3.25 4.09.758 1.78 1.133 3.94 1.125 6.478 0 2.553-.378 4.735-1.136 6.545-.75 1.81-1.826 3.193-3.227 4.148-1.402.955-3.08 1.432-5.034 1.432zm0-4.08c1.333 0 2.397-.67 3.193-2.011.795-1.341 1.19-3.352 1.182-6.034 0-1.765-.182-3.235-.546-4.41-.356-1.174-.864-2.056-1.523-2.647a3.32 3.32 0 00-2.306-.886c-1.326 0-2.387.662-3.182 1.988-.796 1.326-1.197 3.31-1.205 5.955 0 1.788.178 3.28.534 4.477.364 1.19.875 2.083 1.534 2.682.66.59 1.432.886 2.319.886zm22.03 4.08c-1.954-.008-3.635-.489-5.045-1.443-1.401-.955-2.48-2.338-3.238-4.148-.75-1.81-1.121-3.989-1.114-6.534 0-2.538.375-4.7 1.125-6.489.758-1.788 1.837-3.148 3.239-4.08 1.409-.939 3.087-1.408 5.034-1.408 1.947 0 3.621.47 5.023 1.409 1.409.939 2.492 2.303 3.25 4.09.757 1.78 1.132 3.94 1.125 6.478 0 2.553-.38 4.735-1.137 6.545-.75 1.81-1.825 3.193-3.227 4.148-1.402.955-3.08 1.432-5.034 1.432zm0-4.08c1.334 0 2.399-.67 3.194-2.011.796-1.341 1.19-3.352 1.182-6.034 0-1.765-.182-3.235-.546-4.41-.356-1.174-.863-2.056-1.522-2.647a3.321 3.321 0 00-2.307-.886c-1.326 0-2.386.662-3.182 1.988-.795 1.326-1.197 3.31-1.204 5.955 0 1.788.177 3.28.534 4.477.363 1.19.875 2.083 1.534 2.682.659.59 1.431.886 2.318.886zm19.862.023v-16.09h4.068v16.09H97.56zm-6.012-6.011v-4.069h16.091v4.069h-16.09z" fill="#3B3B46"/></g><defs><clipPath id="clip0_1880_313222"><path fill="#fff" d="M0 0h224v66H0z"/></clipPath></defs></svg>