<svg width="165" height="66" fill="none" xmlns="http://www.w3.org/2000/svg"><path fill="#fff" d="M0 0h165v66H0z"/><path d="M125.408 16.164h2.542v15.798h-2.542V16.164zm6.076 15.092a5.16 5.16 0 01-1.977-1.918 5.2 5.2 0 01-.715-2.683 5.359 5.359 0 01.705-2.752 5 5 0 011.897-1.875 5.304 5.304 0 012.637-.677 4.436 4.436 0 013.092 1.066 6.126 6.126 0 011.662 2.31l.253.602-7.426 2.934c.23.493.609.91 1.088 1.196.48.287 1.039.43 1.603.411a3.307 3.307 0 001.57-.39 3.132 3.132 0 001.166-1.077l1.893 1.206a6.013 6.013 0 01-1.788 1.627 5.26 5.26 0 01-2.841.723 5.701 5.701 0 01-2.819-.703zm4.692-6.73a1.665 1.665 0 00-.779-.814 2.62 2.62 0 00-1.282-.311c-.474.01-.937.134-1.347.361-.473.25-.865.619-1.136 1.066a2.925 2.925 0 00-.42 1.667l4.964-1.97zm-17.491 12.18c-1.253 0-2.292-.288-3.118-.862-.813-.575-1.359-1.256-1.64-2.044l2.06-.861c.213.534.553.961 1.019 1.282.48.334 1.039.5 1.679.5.933 0 1.659-.28 2.179-.84.533-.548.799-1.323.799-2.325v-.942h-.119c-.333.481-.78.862-1.339 1.142-.547.267-1.18.401-1.9.401-.853 0-1.646-.22-2.378-.661-.733-.44-1.32-1.062-1.76-1.863-.426-.815-.64-1.744-.64-2.786s.214-1.963.64-2.765c.44-.815 1.027-1.442 1.76-1.883a4.427 4.427 0 012.378-.681c.707 0 1.34.14 1.9.42.559.28 1.006.662 1.339 1.143h.119v-1.243h2.099v9.658c0 1.109-.213 2.05-.64 2.825a4.21 4.21 0 01-1.799 1.783c-.759.401-1.639.602-2.638.602zm.02-6.553c.533 0 1.026-.126 1.479-.38a2.875 2.875 0 001.08-1.142c.267-.508.399-1.102.399-1.784 0-1.042-.286-1.85-.859-2.424-.56-.588-1.26-.882-2.099-.882a2.9 2.9 0 00-1.499.401 2.743 2.743 0 00-1.08 1.122c-.267.494-.4 1.089-.4 1.783 0 .695.133 1.29.4 1.784s.627.875 1.08 1.142c.453.254.953.38 1.499.38zm-11.616 1.809c-1.036 0-1.964-.224-2.785-.674a4.998 4.998 0 01-1.917-1.889c-.457-.796-.686-1.683-.686-2.659 0-.976.229-1.863.686-2.66a4.863 4.863 0 011.917-1.869c.821-.462 1.749-.693 2.785-.693s1.965.23 2.785.693a4.988 4.988 0 011.916 1.889c.459.796.687 1.676.687 2.64 0 .976-.228 1.863-.687 2.66a4.988 4.988 0 01-1.916 1.888c-.82.45-1.749.674-2.785.674zm0-1.946c.565 0 1.09-.128 1.575-.385a3 3 0 001.149-1.137c.296-.501.444-1.086.444-1.754 0-.668-.148-1.246-.444-1.734a2.864 2.864 0 00-1.149-1.118 3.187 3.187 0 00-1.575-.405c-.565 0-1.089.135-1.574.405-.484.257-.874.63-1.17 1.118-.283.488-.424 1.066-.424 1.734 0 .668.141 1.253.424 1.754.296.488.686.867 1.17 1.137a3.31 3.31 0 001.574.385zm-11.783 1.946c-1.036 0-1.964-.224-2.785-.674a4.988 4.988 0 01-1.917-1.889c-.457-.796-.686-1.683-.686-2.659 0-.976.229-1.863.686-2.66a4.854 4.854 0 011.917-1.869c.82-.462 1.749-.693 2.785-.693s1.964.23 2.785.693a4.993 4.993 0 011.917 1.889c.457.796.686 1.676.686 2.64 0 .976-.229 1.863-.686 2.66a4.993 4.993 0 01-1.917 1.888c-.821.45-1.75.674-2.785.674zm0-1.946c.565 0 1.09-.128 1.574-.385a2.99 2.99 0 001.15-1.137c.296-.501.444-1.086.444-1.754 0-.668-.148-1.246-.444-1.734a2.855 2.855 0 00-1.15-1.118 3.181 3.181 0 00-1.574-.405c-.565 0-1.09.135-1.574.405-.484.257-.875.63-1.17 1.118-.283.488-.424 1.066-.424 1.734 0 .668.14 1.253.423 1.754.296.488.686.867 1.17 1.137a3.308 3.308 0 001.575.385zm-14.023 1.946c-1.564 0-3.005-.358-4.323-1.076a8.383 8.383 0 01-3.15-2.942c-.767-1.26-1.15-2.657-1.15-4.194s.383-2.928 1.15-4.172a8.327 8.327 0 013.15-2.965c1.318-.717 2.76-1.075 4.323-1.075 1.241 0 2.399.212 3.472.636 1.073.425 1.97 1.018 2.69 1.779l-1.794 1.713a5.446 5.446 0 00-1.931-1.318c-.736-.307-1.556-.46-2.46-.46a6.284 6.284 0 00-2.967.724 5.633 5.633 0 00-2.207 2.064c-.552.893-.828 1.917-.828 3.074 0 1.156.276 2.181.828 3.074a5.632 5.632 0 002.207 2.064c.92.483 1.917.725 2.99.725.98 0 1.8-.14 2.46-.418a6.28 6.28 0 001.77-1.12c.338-.322.621-.724.851-1.207.245-.483.406-1.01.483-1.581H81.26v-2.196h8.024c.077.41.115.834.115 1.274 0 .995-.16 1.954-.483 2.876a6.023 6.023 0 01-1.54 2.372c-1.548 1.566-3.58 2.35-6.093 2.35zm-3.585 4.922h1.933l5.476 14.207h-1.873l-1.45-3.909h-6.22l-1.45 3.91h-1.872l5.456-14.208zm3.503 8.711l-1.912-5.12-.584-1.527h-.08l-.564 1.528-1.913 5.12H81.2zm5.072-4.624h1.631v1.489h.08c.283-.503.732-.927 1.35-1.27a3.878 3.878 0 011.972-.536c1.235 0 2.175.357 2.82 1.071.657.701.986 1.66.986 2.877v6.489H93.4v-6.23c0-.94-.228-1.621-.684-2.044-.456-.424-1.08-.635-1.872-.635-.55 0-1.047.152-1.49.456-.43.304-.765.708-1.007 1.21a3.452 3.452 0 00-.362 1.548v5.695h-1.712V40.97zm14.067 10.437c-.752 0-1.423-.145-2.013-.436-.59-.291-1.047-.688-1.37-1.19a3.229 3.229 0 01-.482-1.747c0-1.071.409-1.905 1.228-2.5.818-.608 1.852-.913 3.1-.913.617 0 1.188.066 1.711.199.537.132.947.284 1.228.456v-.615c0-.754-.268-1.356-.805-1.806-.537-.463-1.215-.694-2.033-.694-.577 0-1.108.126-1.59.377a2.82 2.82 0 00-1.148 1.012l-1.289-.953a4.114 4.114 0 011.651-1.428c.712-.344 1.497-.516 2.356-.516 1.395 0 2.489.364 3.281 1.091.805.715 1.208 1.693 1.208 2.937v6.409h-1.631v-1.449h-.08c-.295.49-.738.907-1.329 1.25-.59.344-1.255.516-1.993.516zm.161-1.488c.577 0 1.114-.145 1.611-.436a3.344 3.344 0 001.188-1.171c.295-.49.442-1.025.442-1.607a4.262 4.262 0 00-1.187-.516 5.476 5.476 0 00-1.49-.199c-.94 0-1.651.192-2.134.576-.47.383-.705.88-.705 1.488 0 .556.215 1.005.644 1.35.43.343.973.515 1.631.515zm7.147-13.036h1.712V51.09h-1.712V36.884zm6.982 13.572l-4.247-9.484h1.852l3.221 7.52h.04l3.101-7.52h1.852l-6.342 14.405h-1.771l2.294-4.92zm11.148.794c-.416 0-.805-.066-1.168-.199a2.672 2.672 0 01-.885-.535 2.45 2.45 0 01-.605-.873c-.134-.331-.201-.735-.201-1.21v-5.934h-1.792v-1.527h1.792v-2.858h1.711v2.858h2.497v1.527h-2.497v5.517c0 .555.108.965.323 1.23.255.29.624.436 1.107.436.389 0 .765-.112 1.127-.337v1.647a2.62 2.62 0 01-.624.198c-.201.04-.463.06-.785.06zm4.13-12.144a1.19 1.19 0 01-.866-.357 1.155 1.155 0 01-.362-.853c0-.33.12-.608.362-.833a1.19 1.19 0 01.866-.357c.335 0 .624.119.865.357.242.225.362.502.362.833 0 .33-.12.615-.362.853a1.148 1.148 0 01-.865.357zm-.846 1.866h1.691v10.12h-1.691v-10.12zm8.529 10.436c-.993 0-1.886-.231-2.678-.694a5.029 5.029 0 01-1.852-1.925c-.443-.82-.665-1.74-.665-2.758s.222-1.938.665-2.758a4.852 4.852 0 011.852-1.925c.792-.463 1.685-.694 2.678-.694 1.114 0 2.047.258 2.798.774a4.127 4.127 0 011.631 2.024l-1.55.635c-.256-.622-.638-1.092-1.148-1.41-.497-.33-1.1-.495-1.812-.495a3.11 3.11 0 00-1.691.496 3.54 3.54 0 00-1.268 1.349c-.309.582-.463 1.25-.463 2.004s.154 1.422.463 2.004a3.697 3.697 0 001.268 1.37 3.204 3.204 0 001.691.475c.725 0 1.349-.165 1.872-.496.524-.33.913-.8 1.168-1.408l1.53.635a4.451 4.451 0 01-1.691 2.024c-.765.516-1.698.773-2.798.773zm9.521 0c-1.1 0-2.019-.25-2.758-.754-.738-.516-1.262-1.17-1.571-1.964l1.531-.675c.254.609.63 1.078 1.127 1.41.511.33 1.067.495 1.671.495.644 0 1.194-.126 1.651-.377.457-.264.685-.635.685-1.11 0-.424-.182-.762-.544-1.013-.363-.264-.933-.49-1.711-.675l-1.248-.317c-.819-.198-1.49-.536-2.014-1.012-.523-.476-.785-1.091-.785-1.845 0-.582.174-1.092.524-1.528.362-.45.838-.794 1.429-1.032a5.062 5.062 0 011.912-.357c.899 0 1.698.192 2.396.575.711.384 1.215.92 1.51 1.607l-1.49.675c-.456-.9-1.268-1.35-2.436-1.35-.564 0-1.06.133-1.49.398-.415.251-.624.575-.624.972 0 .37.148.675.444.913.295.225.737.41 1.328.555l1.49.377c1.007.252 1.765.629 2.274 1.131.511.49.766 1.092.766 1.806 0 .622-.181 1.17-.543 1.647-.363.463-.853.82-1.471 1.071-.617.252-1.301.377-2.053.377z" fill="#5F6368"/><path d="M62.16 12.29v39.5c0 2.475-2.037 4.481-4.548 4.481H45.385V12.29c0-2.475 2.037-4.48 4.548-4.48h7.679c2.511-.001 4.548 2.005 4.548 4.48z" fill="url(#paint0_linear_1129_267677)"/><path d="M45.386 23.205V56.27H17.548c-2.512 0-4.548-2.006-4.548-4.482v-7.405c0-2.476 2.036-4.482 4.548-4.482h11.064V27.687c0-2.476 2.035-4.482 4.548-4.482h12.226z" fill="#FFC720"/><path d="M62.16 12.29v27.447L45.384 23.204V12.29c0-2.475 2.036-4.481 4.547-4.481h7.68c2.51 0 4.547 2.006 4.547 4.481z" fill="url(#paint1_linear_1129_267677)"/><defs><linearGradient id="paint0_linear_1129_267677" x1="45.385" y1="32.04" x2="62.16" y2="32.04" gradientUnits="userSpaceOnUse"><stop stop-color="#E9710B"/><stop offset="1" stop-color="#F37900"/></linearGradient><linearGradient id="paint1_linear_1129_267677" x1="45.385" y1="17.884" x2="62.159" y2="17.884" gradientUnits="userSpaceOnUse"><stop stop-color="#F37F09"/><stop offset="1" stop-color="#F57C00"/></linearGradient></defs></svg>