<svg width="165" height="66" fill="none" xmlns="http://www.w3.org/2000/svg"><path d="M165 0H0v66h165V0z" fill="#fff"/><path d="M17.462.086H0v65.913h17.462V.086z" fill="#4285F4"/><path d="M34.712 57.175h-3.417V30.564h9.024a8.374 8.374 0 015.846 2.25 7.69 7.69 0 012.488 5.667 7.7 7.7 0 01-2.488 5.667 8.373 8.373 0 01-5.846 2.25h-5.607v10.777zm0-14.046h5.76a4.44 4.44 0 003.456-1.452 4.59 4.59 0 000-6.393 4.406 4.406 0 00-3.456-1.452h-5.76v9.297zM56.64 57.77a7.155 7.155 0 01-4.8-1.672 5.557 5.557 0 01-1.92-4.423 5.487 5.487 0 012.304-4.672 9.321 9.321 0 015.674-1.683 9.694 9.694 0 014.934 1.116v-.53a4.053 4.053 0 00-1.392-3.21 4.902 4.902 0 00-3.37-1.212 5.235 5.235 0 00-2.697.712 3.67 3.67 0 00-1.651 1.923l-3.11-1.337a6.948 6.948 0 012.486-3.028 7.893 7.893 0 014.896-1.394 8.43 8.43 0 015.76 2.038 7.326 7.326 0 012.294 5.768v11.008h-3.264v-2.528h-.144a6.725 6.725 0 01-6 3.124zm.557-3.124a5.555 5.555 0 003.84-1.577 4.904 4.904 0 001.728-3.74 6.713 6.713 0 00-4.34-1.192 5.648 5.648 0 00-3.705 1.077 3.238 3.238 0 00-1.267 2.529 2.445 2.445 0 001.114 2.095 4.584 4.584 0 002.63.808zm15.965-15.68v2.97h.144a4.709 4.709 0 012.208-2.518 7.095 7.095 0 013.543-.914c.41.004.82.03 1.228.077v3.346a13.57 13.57 0 00-1.372-.077 5.755 5.755 0 00-4.032 1.413 5.038 5.038 0 00-1.575 3.923v9.989H69.89v-18.21h3.273zm18.701 18.507a5.283 5.283 0 01-4.335-1.505 5.297 5.297 0 01-1.53-4.331v-9.556H82.81v-3.115h3.188V33.39h3.417v5.576h4.454v3.115h-4.454v9.296c0 1.98.816 2.971 2.448 2.971a3.595 3.595 0 001.555-.298l1.19 2.932a6.808 6.808 0 01-2.745.49zm8.715-18.508v2.519h.144a6.152 6.152 0 012.343-2.212 6.778 6.778 0 013.417-.903 6.429 6.429 0 015.156 2.076 8.269 8.269 0 011.776 5.577v11.152h-3.408V46.54c0-3.365-1.498-5.057-4.493-5.057a4.176 4.176 0 00-3.447 1.692 6.155 6.155 0 00-1.344 3.922v10.076h-3.407v-18.21h3.263zm25.087 18.805a8.76 8.76 0 01-6.72-2.759 9.728 9.728 0 01-2.553-6.94 10.054 10.054 0 012.505-6.846 8.125 8.125 0 016.394-2.884 8.38 8.38 0 016.48 2.634 10.01 10.01 0 012.429 7.095v.625h-14.4a6.202 6.202 0 001.843 4.355 5.58 5.58 0 003.945 1.596 4.89 4.89 0 004.973-3.124l3.043 1.269a8.22 8.22 0 01-2.88 3.547 8.533 8.533 0 01-5.059 1.433zm4.896-11.892a4.804 4.804 0 00-1.421-2.98 5.107 5.107 0 00-3.916-1.414 4.891 4.891 0 00-3.303 1.193 6.052 6.052 0 00-1.92 3.201h10.56zm10.167 11.297h-3.447V38.966h3.264v2.971h.144a4.722 4.722 0 012.141-2.452 6.112 6.112 0 013.13-.961 6.47 6.47 0 012.563.452l-1.296 3.192a5.208 5.208 0 00-1.824-.26 4.46 4.46 0 00-3.283 1.471 5.298 5.298 0 00-1.431 3.846l.039 9.95z" fill="#757575"/><path d="M39.072 24.468a8.26 8.26 0 01-5.79-2.37 8.284 8.284 0 01-2.475-5.754c.02-2.182.9-4.268 2.448-5.804a8.26 8.26 0 015.817-2.397 7.766 7.766 0 015.587 2.25l-1.564 1.576a5.698 5.698 0 00-4.023-1.596 5.93 5.93 0 00-4.04 1.821 5.946 5.946 0 000 8.232 5.929 5.929 0 004.04 1.82 5.485 5.485 0 004.128-1.634 4.733 4.733 0 001.22-2.807h-5.367v-2.288h7.517c.085.48.127.965.125 1.452a7.37 7.37 0 01-1.92 5.21 7.439 7.439 0 01-5.703 2.289z" fill="#4285F4"/><path d="M58.558 19.228a5.284 5.284 0 01-3.24 4.89 5.263 5.263 0 01-5.75-1.131 5.28 5.28 0 013.72-9.017 5.176 5.176 0 013.746 1.513 5.192 5.192 0 011.524 3.745zm-2.304 0a2.984 2.984 0 00-1.772-2.969 2.972 2.972 0 00-4.007 1.758 2.986 2.986 0 00-.154 1.211 2.986 2.986 0 001.773 2.97 2.972 2.972 0 004.007-1.758c.134-.389.186-.802.153-1.212z" fill="#EA4335"/><path d="M70.511 19.228a5.283 5.283 0 01-3.255 4.886 5.263 5.263 0 01-5.752-1.155 5.281 5.281 0 013.776-9 5.17 5.17 0 014.857 3.246c.259.642.386 1.33.374 2.023zm-2.303 0a2.973 2.973 0 00-1.788-2.897 2.963 2.963 0 00-3.96 1.71c-.14.379-.199.783-.176 1.187a2.973 2.973 0 002.962 3.14 2.962 2.962 0 002.786-1.953c.139-.38.199-.784.175-1.187z" fill="#FBBC05"/><path d="M81.907 14.277v9.44c0 3.846-2.284 5.47-4.982 5.47a5.006 5.006 0 01-4.656-3.104l2.006-.837a2.884 2.884 0 002.65 1.875c1.728 0 2.803-1.077 2.803-3.086v-.76h-.048a3.57 3.57 0 01-2.765 1.192 5.247 5.247 0 01-3.567-1.615 5.263 5.263 0 013.567-8.893 3.616 3.616 0 012.765 1.173h.087v-.855h2.14zm-2.025 4.95a2.965 2.965 0 00-1.66-2.919 2.956 2.956 0 00-1.143-.291 3.04 3.04 0 00-2.712 2.032c-.133.378-.19.778-.168 1.179a3.022 3.022 0 001.733 2.881c.36.169.75.264 1.147.282a2.923 2.923 0 002.66-1.999c.126-.375.174-.77.143-1.164z" fill="#4285F4"/><path d="M86.448 8.7v15.45h-2.303V8.7h2.303z" fill="#34A853"/><path d="M95.845 20.949l1.785 1.163a5.225 5.225 0 01-4.377 2.327 5.13 5.13 0 01-3.7-1.506 5.144 5.144 0 01-1.503-3.705 5.007 5.007 0 011.35-3.687 4.992 4.992 0 013.594-1.572 4.863 4.863 0 014.493 3.336l.24.596-7.018 2.885a2.672 2.672 0 002.544 1.595 3.01 3.01 0 002.592-1.432zm-5.51-1.923l4.694-1.923a2.046 2.046 0 00-1.92-1.115 2.875 2.875 0 00-2.62 1.931 2.89 2.89 0 00-.154 1.136v-.029z" fill="#EA4335"/></svg>