<svg width="107" height="107" fill="none" xmlns="http://www.w3.org/2000/svg"><g clip-path="url(#clip0_665_53101)"><path d="M23.555 43.728c12.923 0 23.443 10.51 23.443 23.443 0 12.932-10.51 23.443-23.443 23.443C10.63 90.614.112 80.104.112 67.17L0 63.886C0 37.927 21.034 17 46.886 17v13.362c-8.982 0-17.307 3.503-23.662 9.853a38.77 38.77 0 00-3.396 3.834 21.474 21.474 0 013.727-.326l.004-.004-.004.009zm60.252 0c12.924 0 23.443 10.51 23.443 23.443 0 12.932-10.51 23.443-23.443 23.443-12.924 0-23.443-10.51-23.443-23.443l-.112-3.285C60.252 37.927 81.287 17 107.138 17v13.362c-8.87 0-17.307 3.503-23.662 9.853-1.21 1.211-2.297 2.409-3.284 3.834a20.236 20.236 0 013.62-.326l-.005-.004v.009z" fill="#EBEBED"/></g><defs><clipPath id="clip0_665_53101"><path fill="#fff" d="M0 0h107v107H0z"/></clipPath></defs></svg>