<svg width="100" height="20" fill="none" xmlns="http://www.w3.org/2000/svg"><path fill="#fff" d="M0 0h100v20H0z"/><path d="M9.063 2.505c.324-.866 1.55-.866 1.874 0l1.3 3.477a1 1 0 00.893.649l3.709.162c.924.04 1.303 1.206.579 1.782l-2.906 2.31a1 1 0 00-.34 1.05l.991 3.578c.247.891-.744 1.612-1.515 1.101l-3.096-2.049a1 1 0 00-1.104 0l-3.096 2.05c-.771.51-1.762-.21-1.515-1.102l.992-3.577a1 1 0 00-.341-1.05L2.582 8.575c-.723-.576-.345-1.742.58-1.782l3.708-.162a1 1 0 00.893-.649l1.3-3.477zm20 0c.324-.866 1.55-.866 1.874 0l1.3 3.477a1 1 0 00.893.649l3.709.162c.924.04 1.303 1.206.579 1.782l-2.906 2.31a1 1 0 00-.34 1.05l.991 3.578c.247.891-.744 1.612-1.515 1.101l-3.096-2.049a1 1 0 00-1.104 0l-3.096 2.05c-.771.51-1.762-.21-1.515-1.102l.992-3.577a1 1 0 00-.341-1.05l-2.906-2.311c-.724-.576-.345-1.742.58-1.782l3.708-.162a1 1 0 00.893-.649l1.3-3.477zm20 0c.324-.866 1.55-.866 1.874 0l1.3 3.477a1 1 0 00.893.649l3.709.162c.924.04 1.303 1.206.579 1.782l-2.906 2.31a1 1 0 00-.34 1.05l.991 3.578c.247.891-.744 1.612-1.515 1.101l-3.096-2.049a1 1 0 00-1.104 0l-3.096 2.05c-.771.51-1.762-.21-1.515-1.102l.992-3.577a1 1 0 00-.341-1.05l-2.906-2.311c-.724-.576-.345-1.742.58-1.782l3.708-.162a1 1 0 00.893-.649l1.3-3.477zm20 0c.324-.866 1.55-.866 1.874 0l1.3 3.477a1 1 0 00.893.649l3.709.162c.924.04 1.302 1.206.579 1.782l-2.906 2.31a1 1 0 00-.34 1.05l.991 3.578c.247.891-.744 1.612-1.515 1.101l-3.096-2.049a1 1 0 00-1.104 0l-3.096 2.05c-.771.51-1.762-.21-1.515-1.102l.992-3.577a1 1 0 00-.341-1.05l-2.906-2.311c-.724-.576-.345-1.742.58-1.782l3.708-.162a1 1 0 00.893-.649l1.3-3.477zm20 0c.324-.866 1.55-.866 1.874 0l1.3 3.477a1 1 0 00.893.649l3.709.162c.924.04 1.302 1.206.579 1.782l-2.906 2.31a1 1 0 00-.34 1.05l.991 3.578c.247.891-.744 1.612-1.515 1.101l-3.096-2.049a1 1 0 00-1.104 0l-3.096 2.05c-.771.51-1.762-.21-1.515-1.102l.992-3.577a1 1 0 00-.341-1.05l-2.906-2.311c-.723-.576-.345-1.742.58-1.782l3.708-.162a1 1 0 00.893-.649l1.3-3.477z"/></svg>