<svg width="96" height="96" fill="none" xmlns="http://www.w3.org/2000/svg"><path d="M94.5 9A1.5 1.5 0 0096 7.5v-6A1.5 1.5 0 0094.5 0h-93A1.5 1.5 0 000 1.5v6A1.5 1.5 0 001.5 9H6v54H1.5A1.5 1.5 0 000 64.5v6A1.5 1.5 0 001.5 72h24.573l-10.5 21H7.5a1.5 1.5 0 100 3h81a1.5 1.5 0 100-3h-8.073l-10.5-21H94.5a1.5 1.5 0 001.5-1.5v-6a1.5 1.5 0 00-1.5-1.5H90V9h4.5zM3 3h90v3H3V3zm15.927 90l10.5-21h4.146l-10.5 21h-4.146zM46.5 72v6.276a4.5 4.5 0 103 0V72h9.573l10.5 21H26.427l10.5-21H46.5zm1.5 9a1.5 1.5 0 110 3 1.5 1.5 0 010-3zm29.073 12h-4.146l-10.5-21h4.146l10.5 21zM93 69H3v-3h90v3zm-6-6H9V9h78v54z" fill="#FF5C39"/><path d="M50.56 32.56L57 26.121l6.44 6.44a1.501 1.501 0 002.12 0L78 20.12v2.38a1.5 1.5 0 003 0v-6a1.506 1.506 0 00-1.5-1.5h-6a1.5 1.5 0 100 3h2.379L64.5 29.379l-6.44-6.44a1.499 1.499 0 00-2.12 0l-7.5 7.5a1.5 1.5 0 002.12 2.121z" fill="#FF5C39"/><path d="M46.5 57h36a1.5 1.5 0 100-3H81V28.5a1.5 1.5 0 10-3 0V54h-4.5V33a1.5 1.5 0 10-3 0v21H66V39a1.5 1.5 0 10-3 0v15h-4.5V34.5a1.5 1.5 0 10-3 0V54H51V39a1.5 1.5 0 10-3 0v15h-1.5a1.5 1.5 0 100 3zM42 48H15a1.5 1.5 0 100 3h27a1.5 1.5 0 100-3zm-15 6H15a1.5 1.5 0 100 3h12a1.5 1.5 0 100-3zm-9.347-21.321c.594 0 1.155.094 1.686.283.53.186 1 .48 1.407.88.41.401.732.925.964 1.571.235.643.355 1.422.358 2.337.003.835-.1 1.586-.313 2.252-.209.663-.509 1.228-.9 1.695a3.895 3.895 0 01-1.402 1.074 4.374 4.374 0 01-1.82.368c-.752 0-1.413-.144-1.983-.432a3.6 3.6 0 01-1.362-1.164 3.36 3.36 0 01-.592-1.625h2.725c.066.308.212.532.437.67.225.137.484.205.776.205.583 0 1.009-.252 1.277-.756.272-.507.41-1.183.413-2.029h-.06c-.13.312-.325.579-.586.8a2.804 2.804 0 01-.915.513 3.38 3.38 0 01-1.104.179c-.613 0-1.15-.138-1.61-.413a2.923 2.923 0 01-1.08-1.138c-.258-.484-.389-1.034-.392-1.65-.004-.723.167-1.356.512-1.9a3.475 3.475 0 011.437-1.268c.613-.301 1.322-.452 2.127-.452zm.02 2.088c-.275 0-.52.063-.735.189a1.38 1.38 0 00-.503.512c-.119.215-.177.46-.174.73.004.273.065.516.184.732.123.215.289.386.497.512.213.126.456.189.731.189a1.353 1.353 0 001.01-.408 1.416 1.416 0 00.402-1.024 1.49 1.49 0 00-.189-.731 1.378 1.378 0 00-1.223-.701zm10.022 8.511c-.925-.003-1.724-.217-2.396-.64-.673-.425-1.192-1.037-1.557-1.835-.364-.8-.545-1.757-.541-2.874.003-1.12.185-2.072.546-2.854.365-.782.882-1.377 1.552-1.785.672-.407 1.471-.611 2.396-.611.924 0 1.723.206 2.396.616.673.408 1.192 1.003 1.556 1.785.365.782.545 1.732.542 2.849 0 1.124-.182 2.085-.547 2.883-.364.8-.883 1.41-1.556 1.835-.67.42-1.466.631-2.391.631zm0-2.247c.477 0 .868-.248 1.173-.745.308-.501.46-1.287.458-2.357 0-.7-.07-1.271-.21-1.715-.139-.444-.33-.773-.576-.985a1.244 1.244 0 00-.845-.323c-.477 0-.867.242-1.169.726-.301.484-.455 1.25-.462 2.297-.003.713.065 1.3.204 1.76.14.457.331.795.577 1.014.248.219.532.328.85.328zm11.618.06v-.537c0-.43.093-.829.279-1.193.189-.365.462-.658.82-.88.358-.222.794-.333 1.308-.333.527 0 .97.11 1.327.328.361.219.635.51.82.875.186.364.279.766.279 1.203v.537c0 .43-.095.828-.284 1.193a2.18 2.18 0 01-.82.88c-.361.222-.802.333-1.322.333s-.96-.11-1.318-.333a2.19 2.19 0 01-.815-.88 2.63 2.63 0 01-.274-1.193zm1.73-.537v.537c0 .189.047.376.14.562.096.182.275.273.537.273.275 0 .455-.09.541-.268a1.25 1.25 0 00.135-.567v-.537c0-.199-.042-.391-.124-.577-.083-.185-.267-.278-.552-.278-.262 0-.441.093-.537.278-.093.186-.14.378-.14.577zm-7.06-5.29v-.537c0-.437.095-.838.284-1.203.192-.364.468-.656.825-.875.358-.219.791-.328 1.298-.328.527 0 .97.11 1.328.328.36.219.634.51.82.875.185.365.278.766.278 1.203v.537c0 .438-.094.837-.283 1.198-.186.362-.46.65-.82.865-.362.216-.803.324-1.323.324-.52 0-.96-.11-1.317-.329a2.164 2.164 0 01-.816-.87 2.6 2.6 0 01-.273-1.188zm1.75-.537v.537c0 .2.047.388.14.567.093.179.265.268.517.268.275 0 .456-.09.542-.268a1.25 1.25 0 00.134-.567v-.537a1.4 1.4 0 00-.124-.576c-.083-.186-.267-.279-.552-.279-.262 0-.437.096-.527.288-.086.19-.13.378-.13.567zM34.83 43l7-10.182h1.412L36.24 43h-1.412z" fill="#FF5C39"/></svg>