<svg width="96" height="96" fill="none" xmlns="http://www.w3.org/2000/svg"><path d="M88.5 5.945h-81a7.544 7.544 0 00-5.3 2.18 7.406 7.406 0 00-2.2 5.25v68.367a7.406 7.406 0 002.2 5.252 7.544 7.544 0 005.3 2.18h81a7.544 7.544 0 005.3-2.18 7.405 7.405 0 002.2-5.252V13.376a7.406 7.406 0 00-2.2-5.252 7.544 7.544 0 00-5.3-2.179zm-81 2.973h81a4.526 4.526 0 013.18 1.307A4.443 4.443 0 0193 13.376v4.459H40.5c-.398 0-.78.157-1.06.435a1.48 1.48 0 00-.44 1.051 7.405 7.405 0 01-2.2 5.252 7.544 7.544 0 01-5.3 2.18H3V13.375a4.443 4.443 0 011.32-3.151A4.526 4.526 0 017.5 8.918zm81 77.284h-81a4.527 4.527 0 01-3.18-1.307A4.443 4.443 0 013 81.743V29.725h28.5a10.574 10.574 0 006.87-2.543 10.394 10.394 0 003.523-6.374H93v60.935a4.443 4.443 0 01-1.32 3.152 4.526 4.526 0 01-3.18 1.307z" fill="#FF5C39"/><path d="M10.5 23.78c.89 0 1.76-.262 2.5-.751a4.468 4.468 0 001.658-2.002 4.42 4.42 0 00.256-2.576 4.446 4.446 0 00-1.232-2.282 4.514 4.514 0 00-2.304-1.22 4.539 4.539 0 00-2.6.253 4.49 4.49 0 00-2.02 1.642A4.43 4.43 0 006 19.321a4.443 4.443 0 001.32 3.152 4.526 4.526 0 003.18 1.307zm0-5.945c.297 0 .587.087.833.25.247.164.44.396.553.668a1.473 1.473 0 01-.325 1.62 1.504 1.504 0 01-1.635.321 1.497 1.497 0 01-.673-.547 1.477 1.477 0 01.187-1.876 1.509 1.509 0 011.06-.436zM21 23.78c.89 0 1.76-.262 2.5-.751a4.468 4.468 0 001.657-2.002 4.42 4.42 0 00.256-2.576 4.446 4.446 0 00-1.231-2.282 4.514 4.514 0 00-2.304-1.22 4.539 4.539 0 00-2.6.253 4.491 4.491 0 00-2.02 1.642 4.43 4.43 0 00-.758 2.477 4.443 4.443 0 001.32 3.152A4.526 4.526 0 0021 23.78zm0-5.945c.297 0 .587.087.833.25.247.164.44.396.553.668a1.473 1.473 0 01-.325 1.62 1.504 1.504 0 01-1.635.321 1.497 1.497 0 01-.673-.547 1.477 1.477 0 01.187-1.876 1.509 1.509 0 011.06-.436zm10.5 5.945c.89 0 1.76-.262 2.5-.751a4.468 4.468 0 001.657-2.002 4.42 4.42 0 00.257-2.576 4.446 4.446 0 00-1.232-2.282 4.514 4.514 0 00-2.304-1.22 4.539 4.539 0 00-2.6.253 4.491 4.491 0 00-2.02 1.642A4.43 4.43 0 0027 19.321a4.443 4.443 0 001.32 3.152 4.526 4.526 0 003.18 1.307zm0-5.945c.297 0 .587.087.833.25.247.164.44.396.553.668a1.473 1.473 0 01-.325 1.62 1.504 1.504 0 01-1.635.321 1.497 1.497 0 01-.673-.547 1.477 1.477 0 01.187-1.876 1.509 1.509 0 011.06-.436zm24-2.972h24c.398 0 .78-.157 1.06-.436a1.48 1.48 0 000-2.102 1.507 1.507 0 00-1.06-.435h-24c-.398 0-.78.157-1.06.435a1.48 1.48 0 000 2.102c.28.279.662.436 1.06.436zm28.5 0h3c.398 0 .78-.157 1.06-.436a1.48 1.48 0 000-2.102A1.507 1.507 0 0087 11.89h-3c-.398 0-.78.157-1.06.435a1.48 1.48 0 000 2.102c.28.279.662.436 1.06.436zM45 41.615H12a4.526 4.526 0 00-3.18 1.307 4.443 4.443 0 00-1.32 3.152v23.78a4.443 4.443 0 001.32 3.15A4.526 4.526 0 0012 74.313h33a4.526 4.526 0 003.18-1.307 4.443 4.443 0 001.32-3.152v-23.78a4.443 4.443 0 00-1.32-3.15 4.526 4.526 0 00-3.18-1.31zm-33 2.972h33c.398 0 .779.157 1.06.436s.44.656.44 1.05v12.761l-7.94-7.866a1.5 1.5 0 00-1.06-.436 1.512 1.512 0 00-1.06.436L25.5 61.807l-4.94-4.894a1.498 1.498 0 00-1.06-.436 1.51 1.51 0 00-1.06.436l-7.94 7.866V46.074c0-.395.159-.772.44-1.05a1.509 1.509 0 011.06-.437zM45 71.34H12c-.398 0-.779-.157-1.06-.435a1.481 1.481 0 01-.44-1.05v-.871l9-8.918 9.44 9.353a1.508 1.508 0 002.102-.018 1.48 1.48 0 00.018-2.084l-3.439-3.408L37.5 54.12l9 8.918v6.815c0 .394-.159.772-.44 1.05a1.509 1.509 0 01-1.06.436zm33-14.863H55.5c-.398 0-.78.157-1.06.436a1.48 1.48 0 000 2.102c.28.278.662.435 1.06.435H78c.398 0 .78-.157 1.06-.436a1.48 1.48 0 000-2.101 1.507 1.507 0 00-1.06-.436zm0 7.431H55.5c-.398 0-.78.157-1.06.436a1.48 1.48 0 000 2.102c.28.278.662.435 1.06.435H78c.398 0 .78-.157 1.06-.435a1.48 1.48 0 000-2.102 1.507 1.507 0 00-1.06-.436zm0 7.432H55.5c-.398 0-.78.156-1.06.435a1.48 1.48 0 000 2.102c.28.279.662.435 1.06.435H78c.398 0 .78-.156 1.06-.435a1.48 1.48 0 000-2.102A1.507 1.507 0 0078 71.34zm0-22.294H55.5c-.398 0-.78.157-1.06.435a1.48 1.48 0 000 2.102c.28.279.662.435 1.06.435H78c.398 0 .78-.156 1.06-.435a1.48 1.48 0 000-2.102 1.507 1.507 0 00-1.06-.435zm9-7.431H55.5c-.398 0-.78.156-1.06.435a1.48 1.48 0 000 2.102c.28.279.662.435 1.06.435H87c.398 0 .78-.156 1.06-.435a1.48 1.48 0 000-2.102 1.507 1.507 0 00-1.06-.435z" fill="#FF5C39"/><path d="M25.5 56.477c.89 0 1.76-.261 2.5-.751a4.468 4.468 0 001.657-2.001 4.42 4.42 0 00.256-2.576 4.447 4.447 0 00-1.231-2.283 4.538 4.538 0 00-4.904-.966 4.492 4.492 0 00-2.02 1.641A4.43 4.43 0 0021 52.02a4.443 4.443 0 001.32 3.15 4.525 4.525 0 003.18 1.308zm0-5.945c.297 0 .587.088.833.25.247.164.44.396.553.668a1.473 1.473 0 01-.325 1.62 1.505 1.505 0 01-1.635.322 1.496 1.496 0 01-.673-.548 1.477 1.477 0 01.187-1.876 1.509 1.509 0 011.06-.436zM87 49.046h-4.5c-.398 0-.78.157-1.06.435a1.48 1.48 0 000 2.102c.28.279.662.435 1.06.435H87c.398 0 .78-.156 1.06-.435a1.48 1.48 0 000-2.102 1.507 1.507 0 00-1.06-.435zm0 7.431h-4.5c-.398 0-.78.157-1.06.436a1.48 1.48 0 000 2.102c.28.278.662.435 1.06.435H87c.398 0 .78-.157 1.06-.436a1.48 1.48 0 000-2.101 1.507 1.507 0 00-1.06-.436zm0 7.431h-4.5c-.398 0-.78.157-1.06.436a1.48 1.48 0 000 2.102c.28.278.662.435 1.06.435H87c.398 0 .78-.157 1.06-.435a1.48 1.48 0 000-2.102 1.507 1.507 0 00-1.06-.436zm0 7.432h-4.5c-.398 0-.78.156-1.06.435a1.48 1.48 0 000 2.102c.28.279.662.435 1.06.435H87c.398 0 .78-.156 1.06-.435a1.48 1.48 0 000-2.102A1.507 1.507 0 0087 71.34z" fill="#FF5C39"/></svg>