<svg width="96" height="96" fill="none" xmlns="http://www.w3.org/2000/svg"><path d="M85.5 7.5h-15V5.25a5.25 5.25 0 10-10.5 0V7.5H49.5V5.25a5.25 5.25 0 10-10.5 0V7.5H28.5V5.25a5.25 5.25 0 10-10.5 0V7.5h-7.5A7.509 7.509 0 003 15v67.5A1.5 1.5 0 004.5 84h75a1.5 1.5 0 001.5-1.5V15a4.5 4.5 0 119 0v78H12a1.5 1.5 0 100 3h79.5a1.5 1.5 0 001.5-1.5V15a7.509 7.509 0 00-7.5-7.5zM63 5.25a2.25 2.25 0 014.5 0V7.5H63V5.25zm-21 0a2.25 2.25 0 014.5 0V7.5H42V5.25zm-21 0a2.25 2.25 0 014.5 0V7.5H21V5.25zM10.5 10.5H18v5.25a5.25 5.25 0 1010.5 0V15a1.5 1.5 0 10-3 0v.75a2.25 2.25 0 01-4.5 0V10.5h18v5.25a5.25 5.25 0 1010.5 0V15a1.5 1.5 0 10-3 0v.75a2.25 2.25 0 01-4.5 0V10.5h18v5.25a5.25 5.25 0 1010.5 0V15a1.5 1.5 0 10-3 0v.75a2.25 2.25 0 01-4.5 0V10.5h16.504A7.894 7.894 0 0078 15v9H6v-9a4.505 4.505 0 014.5-4.5zM6 81V27h72v54H6z" fill="#FF5C39"/><path d="M12 90h73.5a1.5 1.5 0 001.5-1.5V15a1.5 1.5 0 10-3 0v72H12a1.5 1.5 0 100 3z" fill="#FF5C39"/><path d="M50.86 46.53a1.501 1.501 0 001.973.78l5.802-2.51a1.5 1.5 0 10-1.19-2.755l-5.804 2.511a1.502 1.502 0 00-.78 1.974zm.503-4.56l3.581-4.993a1.499 1.499 0 10-2.437-1.749l-3.581 4.994a1.5 1.5 0 002.437 1.749zm9.255 8.12l-6.092-.808a1.5 1.5 0 10-.394 2.973l6.092.81a1.5 1.5 0 10.394-2.974zM37.59 68.318a9.83 9.83 0 01-3.26-.58c-1.061-.386-2.016-1.01-2.864-1.874-.849-.872-1.523-2.027-2.023-3.466-.5-1.447-.746-3.239-.739-5.375 0-1.993.213-3.77.637-5.33.424-1.56 1.034-2.879 1.83-3.954.795-1.084 1.753-1.91 2.874-2.478 1.13-.568 2.39-.852 3.785-.852 1.462 0 2.757.288 3.886.864 1.136.575 2.053 1.363 2.75 2.363A7.481 7.481 0 0145.76 51h-4.147c-.212-.894-.648-1.606-1.307-2.136-.652-.538-1.477-.807-2.477-.807-1.614 0-2.856.7-3.728 2.102-.863 1.402-1.299 3.326-1.306 5.773h.159a5.835 5.835 0 011.443-1.716 6.596 6.596 0 012-1.102 7.074 7.074 0 012.375-.398c1.363 0 2.587.326 3.67.977a7.084 7.084 0 012.591 2.693c.636 1.137.95 2.44.943 3.91.008 1.53-.34 2.905-1.045 4.125a7.587 7.587 0 01-2.943 2.863c-1.258.697-2.724 1.042-4.398 1.034zm-.022-3.409c.826 0 1.565-.2 2.216-.602a4.362 4.362 0 001.546-1.625c.378-.682.564-1.447.556-2.296.008-.833-.174-1.587-.545-2.261a4.156 4.156 0 00-1.511-1.602c-.644-.394-1.38-.591-2.205-.591-.614 0-1.186.117-1.716.352s-.992.56-1.386.977c-.394.41-.705.887-.932 1.432a4.68 4.68 0 00-.341 1.727 4.7 4.7 0 00.568 2.24 4.363 4.363 0 001.534 1.636c.652.408 1.39.613 2.216.613z" fill="#FF5C39"/></svg>