<svg width="96" height="96" fill="none" xmlns="http://www.w3.org/2000/svg"><g clip-path="url(#clip0_65_44061)" fill="#FF5C39"><path d="M19.5 60.091v9.762H15V31.211h7.5c.398 0 .78-.157 1.06-.435a1.48 1.48 0 000-2.102 1.507 1.507 0 00-1.06-.435h-9c-.398 0-.78.156-1.06.435a1.48 1.48 0 00-.44 1.05V71.34a1.498 1.498 0 001.5 1.487h69c.398 0 .78-.157 1.06-.436a1.48 1.48 0 00.44-1.05V29.724a1.48 1.48 0 00-.44-1.051 1.507 1.507 0 00-1.06-.435h-9c-.398 0-.78.156-1.06.435a1.48 1.48 0 000 2.102c.28.278.662.435 1.06.435H81v38.642h-4.5V60.09a10.286 10.286 0 00-2.043-6.188 10.445 10.445 0 00-5.37-3.755L69 50.121V25.266a20.71 20.71 0 00-6.15-14.713A21.099 21.099 0 0048 4.46a21.099 21.099 0 00-14.85 6.094A20.71 20.71 0 0027 25.266v24.855l-.088.026a10.445 10.445 0 00-5.369 3.755 10.287 10.287 0 00-2.043 6.189zm54 0v9.762h-6.07a11.479 11.479 0 00-2.93-6.537v-2.38a1.48 1.48 0 00-.44-1.051 1.507 1.507 0 00-2.12 0 1.48 1.48 0 00-.44 1.05v2.973c0 .394.158.772.44 1.051a8.564 8.564 0 012.462 4.894H31.597a8.565 8.565 0 012.463-4.894 1.484 1.484 0 00.44-1.05v-2.973a1.48 1.48 0 00-.44-1.051 1.507 1.507 0 00-2.12 0 1.48 1.48 0 00-.44 1.05v2.381a11.478 11.478 0 00-2.93 6.537H22.5v-9.762a7.349 7.349 0 011.46-4.42 7.462 7.462 0 013.834-2.683l12.064-3.678a10.044 10.044 0 003.573 3.022 10.145 10.145 0 009.138 0 10.044 10.044 0 003.573-3.022l12.064 3.678a7.462 7.462 0 013.834 2.683 7.349 7.349 0 011.46 4.42zM42 42.978a11.982 11.982 0 006 1.61c2.109 0 4.18-.556 6-1.61v4.15a7.022 7.022 0 01-2.565 2.433 7.1 7.1 0 01-6.87 0A7.022 7.022 0 0142 47.129v-4.15zm15-10.457a11.505 11.505 0 01-3.776.888 4.017 4.017 0 00-1.83-2.014 4.072 4.072 0 00-2.704-.398 4.046 4.046 0 00-2.342 1.4 3.98 3.98 0 00-.904 2.558c.008.93.343 1.83.947 2.542a4.048 4.048 0 002.364 1.362 4.073 4.073 0 002.699-.443 4.014 4.014 0 001.795-2.044 14.726 14.726 0 003.152-.504 8.936 8.936 0 01-3.994 4.6 9.066 9.066 0 01-6.04 1 9.011 9.011 0 01-5.286-3.064A8.862 8.862 0 0139 32.697v-9.332a19.446 19.446 0 008.408 1.901H55.5c.398 0 .779.157 1.06.436s.44.656.44 1.05v5.769zm-6.469 2.41a1.015 1.015 0 01-.636.943 1.04 1.04 0 01-1.124-.221 1.02 1.02 0 01-.224-1.114 1.025 1.025 0 01.953-.63c.273 0 .535.108.729.3.193.19.302.45.302.721zM30 25.265c0-4.73 1.896-9.266 5.272-12.611A18.085 18.085 0 0148 7.43c4.774 0 9.352 1.88 12.728 5.224A17.752 17.752 0 0166 25.266v23.94l-9-2.744v-5.927a11.766 11.766 0 002.964-7.14v-.002c.014-.231.036-.46.036-.696v-5.945a4.443 4.443 0 00-1.32-3.151 4.526 4.526 0 00-3.18-1.307h-8.092c-3.23.003-6.39-.945-9.076-2.723a1.51 1.51 0 00-2.119.473c-.14.23-.213.494-.213.763v11.89c0 2.888 1.068 5.676 3 7.838v5.927l-9 2.744v-23.94z"/><path d="M94.5 75.798H90V23.78a1.48 1.48 0 00-.44-1.051 1.507 1.507 0 00-1.06-.435h-15c-.398 0-.78.156-1.06.435a1.48 1.48 0 000 2.102c.28.279.662.435 1.06.435H87v50.532H9V25.266h13.5c.398 0 .78-.156 1.06-.435a1.48 1.48 0 000-2.102 1.507 1.507 0 00-1.06-.435h-15c-.398 0-.78.156-1.06.435a1.48 1.48 0 00-.44 1.05V75.8H1.5c-.398 0-.78.156-1.06.435a1.48 1.48 0 00-.44 1.05v8.918a4.443 4.443 0 001.32 3.151 4.526 4.526 0 003.18 1.308h87a4.526 4.526 0 003.18-1.308A4.443 4.443 0 0096 86.202v-8.918a1.48 1.48 0 00-.44-1.05 1.507 1.507 0 00-1.06-.436zm-18.927 2.973l-1.5 2.972H21.927l-1.5-2.972h55.146zM91.5 87.688h-87c-.398 0-.779-.157-1.06-.436a1.481 1.481 0 01-.44-1.05v-1.486h7.5c.398 0 .78-.157 1.06-.436a1.48 1.48 0 000-2.102 1.507 1.507 0 00-1.06-.435H3v-2.972h14.073l2.585 5.123a1.493 1.493 0 001.342.822h54a1.51 1.51 0 001.342-.822l2.585-5.123H93v2.972h-7.5c-.398 0-.78.157-1.06.436a1.48 1.48 0 000 2.101c.28.28.662.436 1.06.436H93v1.486c0 .394-.159.772-.44 1.05a1.509 1.509 0 01-1.06.436z"/></g><defs><clipPath id="clip0_65_44061"><path fill="#fff" d="M0 0h96v95.119H0z"/></clipPath></defs></svg>