<svg width="96" height="96" fill="none" xmlns="http://www.w3.org/2000/svg"><g clip-path="url(#clip0_328_56950)"><path d="M48 12a1.5 1.5 0 001.5-1.5v-9a1.5 1.5 0 10-3 0v9A1.5 1.5 0 0048 12zm-25.456 9.665a1.5 1.5 0 002.121-2.121l-6.363-6.363a1.5 1.5 0 00-2.121 2.12l6.363 6.364zM13.5 43.5h-9a1.5 1.5 0 100 3h9a1.5 1.5 0 100-3zm9.044 24.835l-6.363 6.363a1.5 1.5 0 002.121 2.121l6.363-6.363a1.5 1.5 0 10-2.12-2.121zM77.698 13.18l-6.363 6.364a1.5 1.5 0 102.12 2.121l6.364-6.363a1.5 1.5 0 00-2.121-2.121zM91.5 43.5h-9a1.5 1.5 0 100 3h9a1.5 1.5 0 100-3zM73.456 68.335a1.502 1.502 0 00-2.462.478 1.5 1.5 0 00.34 1.643l6.364 6.363a1.5 1.5 0 002.121-2.12l-6.363-6.364z" fill="#FF5C39"/><path d="M48 15a30.034 30.034 0 00-30 30 29.703 29.703 0 009.163 21.545 13.729 13.729 0 014.337 9.907V85.5A1.5 1.5 0 0033 87h4.62a10.486 10.486 0 0020.76 0H63a1.5 1.5 0 001.5-1.5v-9.048a13.729 13.729 0 014.338-9.907A29.704 29.704 0 0078 45a30.034 30.034 0 00-30-30zm0 78a7.512 7.512 0 01-7.349-6h14.698A7.512 7.512 0 0148 93zm-13.5-9v-4.5h27V84h-27zm32.254-19.614A16.701 16.701 0 0061.5 76.452v.048h-27v-.048a16.702 16.702 0 00-5.254-12.066A26.722 26.722 0 0121 45a27 27 0 0154 0 26.721 26.721 0 01-8.246 19.386z" fill="#FF5C39"/><path d="M50.527 33.332H50.2v-1.594c0-.46-.18-.903-.498-1.229A1.681 1.681 0 0048.5 30c-.45 0-.883.183-1.202.51a1.758 1.758 0 00-.498 1.228v1.594h-.327a6.39 6.39 0 00-4.288 1.66 6.665 6.665 0 00-2.136 4.15 6.734 6.734 0 001.088 4.554 6.475 6.475 0 003.766 2.675l1.897.485v7.335h-.327a3.043 3.043 0 01-2.172-.921 3.183 3.183 0 01-.901-2.22v-.335c0-.461-.18-.903-.498-1.23a1.681 1.681 0 00-1.202-.508c-.45 0-.883.183-1.202.509A1.758 1.758 0 0040 50.715v.334a6.702 6.702 0 001.898 4.678 6.409 6.409 0 004.575 1.94h.327v1.595c0 .46.18.903.498 1.229.319.326.751.509 1.202.509.45 0 .883-.183 1.202-.51.319-.325.498-.767.498-1.228v-1.594h.327a6.39 6.39 0 004.288-1.66 6.665 6.665 0 002.136-4.15 6.734 6.734 0 00-1.088-4.554 6.475 6.475 0 00-3.766-2.675l-1.897-.485V36.81h.327a3.043 3.043 0 012.172.921c.576.59.9 1.388.901 2.22v.335c0 .461.18.903.498 1.23.319.325.751.508 1.202.508.45 0 .883-.183 1.202-.509.319-.326.498-.768.498-1.229v-.334a6.702 6.702 0 00-1.898-4.678 6.409 6.409 0 00-4.575-1.94zm.745 14.669a3.074 3.074 0 011.788 1.27 3.197 3.197 0 01-.497 4.132 3.035 3.035 0 01-2.036.788H50.2v-6.465l1.072.275zM46.8 43.273l-1.071-.275a3.074 3.074 0 01-1.788-1.269 3.197 3.197 0 01.496-4.132 3.035 3.035 0 012.036-.79h.327v6.466z" fill="#FF5C39"/><circle cx="48.5" cy="45.5" r="20" stroke="#FF5C39" stroke-width="3"/></g><defs><clipPath id="clip0_328_56950"><path fill="#fff" d="M0 0h96v96H0z"/></clipPath></defs></svg>