<svg width="96" height="96" fill="none" xmlns="http://www.w3.org/2000/svg"><path d="M48 13.376a34.728 34.728 0 00-19.167 5.76 34.254 34.254 0 00-12.707 15.342 33.892 33.892 0 00-1.963 19.75 34.087 34.087 0 009.442 17.503 34.6 34.6 0 0017.664 9.355 34.797 34.797 0 0019.934-1.945 34.434 34.434 0 0015.483-12.59A33.961 33.961 0 0082.5 47.559c-.01-9.062-3.648-17.751-10.116-24.16C65.916 16.991 57.147 13.386 48 13.376zm0 65.394c-6.23 0-12.32-1.83-17.5-5.26a31.275 31.275 0 01-11.602-14.007 30.944 30.944 0 01-1.793-18.032 31.123 31.123 0 018.621-15.981 31.59 31.59 0 0116.129-8.542 31.771 31.771 0 0118.2 1.776A31.44 31.44 0 0174.19 30.22a31.007 31.007 0 015.31 17.34 31.102 31.102 0 01-9.237 22.059C64.358 75.469 56.351 78.76 48 78.77z" fill="#FF5C39"/><path d="M89.91 27.591a1.488 1.488 0 00-.858-.757 1.516 1.516 0 00-1.613.416 1.483 1.483 0 00-.377 1.074c.011.195.061.386.147.562A42.21 42.21 0 0191.5 47.56a42.804 42.804 0 01-7.268 23.862 43.398 43.398 0 01-19.388 15.882 43.858 43.858 0 01-25.02 2.585 43.62 43.62 0 01-22.28-11.575 41.527 41.527 0 01-3.626-4.002H19.5c.398 0 .78-.157 1.06-.435a1.48 1.48 0 000-2.102 1.507 1.507 0 00-1.06-.436h-9c-.398 0-.78.157-1.06.436a1.48 1.48 0 00-.44 1.05v8.918c0 .394.158.772.44 1.051a1.507 1.507 0 002.12 0 1.48 1.48 0 00.44-1.05v-5.05a44.183 44.183 0 003.45 3.747A46.629 46.629 0 0039.266 92.81a46.883 46.883 0 0026.743-2.767A46.39 46.39 0 0086.73 73.064 45.757 45.757 0 0094.5 47.56a45.151 45.151 0 00-4.59-19.969zM4.5 47.56a42.805 42.805 0 017.268-23.863A43.398 43.398 0 0131.157 7.816a43.858 43.858 0 0125.02-2.586 43.619 43.619 0 0122.279 11.575 41.502 41.502 0 013.626 4.002H76.5c-.398 0-.78.157-1.06.436a1.48 1.48 0 000 2.101c.28.28.662.436 1.06.436h9c.398 0 .78-.157 1.06-.436a1.48 1.48 0 00.44-1.05v-8.918a1.48 1.48 0 00-.44-1.05 1.507 1.507 0 00-2.12 0 1.48 1.48 0 00-.44 1.05v5.05a44.15 44.15 0 00-3.45-3.748A46.628 46.628 0 0056.735 2.31a46.884 46.884 0 00-26.743 2.768A46.391 46.391 0 009.269 22.054 45.758 45.758 0 001.5 47.56a45.15 45.15 0 004.59 19.968 1.509 1.509 0 002.768-.159c.13-.372.107-.78-.067-1.136a42.208 42.208 0 01-4.29-18.673z" fill="#FF5C39"/><path d="M64.712 29.89a34.774 34.774 0 003.296-2.03 1.476 1.476 0 00.329-2.055 1.512 1.512 0 00-2.066-.368 31.762 31.762 0 01-2.64 1.652 32.89 32.89 0 00-3.601-6.514 1.493 1.493 0 00-.979-.602 1.513 1.513 0 00-1.12.263 1.491 1.491 0 00-.603.973 1.473 1.473 0 00.272 1.11 29.886 29.886 0 013.337 6.128A31.539 31.539 0 0149.5 31.154V19.321a1.48 1.48 0 00-.44-1.05 1.507 1.507 0 00-2.12 0 1.48 1.48 0 00-.44 1.05v11.833a31.539 31.539 0 01-11.437-2.707 29.886 29.886 0 013.337-6.129 1.48 1.48 0 00-.852-2.353 1.516 1.516 0 00-1.15.199 1.496 1.496 0 00-.427.411 32.892 32.892 0 00-3.602 6.514c-.9-.51-1.785-1.05-2.64-1.652a1.51 1.51 0 00-2.066.368 1.475 1.475 0 00.33 2.055 34.75 34.75 0 003.296 2.03 54.377 54.377 0 00-2.741 16.184H19.5c-.398 0-.78.156-1.06.435a1.48 1.48 0 000 2.102c.28.278.662.435 1.06.435h9.048a54.375 54.375 0 002.74 16.183 34.77 34.77 0 00-3.296 2.03 1.476 1.476 0 00-.33 2.055 1.51 1.51 0 002.066.368 31.806 31.806 0 012.64-1.651 32.897 32.897 0 003.603 6.513 1.495 1.495 0 00.98.618 1.515 1.515 0 001.132-.261 1.493 1.493 0 00.604-.984A1.473 1.473 0 0038.4 72.8a29.884 29.884 0 01-3.336-6.128A31.536 31.536 0 0146.5 63.965v11.833c0 .394.158.772.44 1.051a1.507 1.507 0 002.12 0 1.48 1.48 0 00.44-1.05V63.964a31.539 31.539 0 0111.437 2.708A29.886 29.886 0 0157.6 72.8a1.479 1.479 0 00.867 2.317 1.516 1.516 0 001.134-.18c.168-.102.313-.236.429-.394a32.9 32.9 0 003.602-6.514c.9.51 1.786 1.05 2.64 1.652a1.512 1.512 0 002.066-.368 1.476 1.476 0 00-.329-2.054 34.774 34.774 0 00-3.296-2.03 54.38 54.38 0 002.74-16.184H76.5c.398 0 .78-.157 1.06-.435a1.48 1.48 0 000-2.102 1.507 1.507 0 00-1.06-.435h-9.048a54.379 54.379 0 00-2.74-16.184zm-2.734 1.35a52.165 52.165 0 012.474 14.834H49.5V34.127a34.547 34.547 0 0012.478-2.886zm-27.956 0A34.546 34.546 0 0046.5 34.127v11.947H31.548a52.156 52.156 0 012.474-14.833zm0 32.638a52.154 52.154 0 01-2.474-14.832H46.5v11.947a34.546 34.546 0 00-12.478 2.886zm27.956 0A34.546 34.546 0 0049.5 60.993V49.046h14.952a52.163 52.163 0 01-2.474 14.833z" fill="#FF5C39"/></svg>