<svg width="96" height="96" fill="none" xmlns="http://www.w3.org/2000/svg"><g clip-path="url(#clip0_324_3472)" fill="#FF5C39"><path d="M93 12H81a1.5 1.5 0 100 3h10.5v45h-15V1.5A1.5 1.5 0 0075 0H21a1.5 1.5 0 00-1.5 1.5V60h-15V15H15a1.5 1.5 0 100-3H3a1.5 1.5 0 00-1.5 1.5v60A1.5 1.5 0 003 75h34.5v6H21a1.5 1.5 0 00-1.342.829l-6 12A1.501 1.501 0 0015 96h66a1.5 1.5 0 001.342-2.171l-6-12A1.502 1.502 0 0075 81H58.5v-6H93a1.5 1.5 0 001.5-1.5v-60A1.5 1.5 0 0093 12zM22.5 3h51v57H69V25.5a1.5 1.5 0 00-1.5-1.5h-9a1.5 1.5 0 00-1.5 1.5V60h-3V36a1.5 1.5 0 00-1.5-1.5h-9A1.5 1.5 0 0042 36v24h-3V45a1.5 1.5 0 00-1.5-1.5h-9A1.5 1.5 0 0027 45v15h-4.5V3zM66 60h-6V27h6v33zm-15 0h-6V37.5h6V60zm-15 0h-6V46.5h6V60zm42.573 33H17.427l4.5-9h15.297A4.492 4.492 0 0133 87a1.5 1.5 0 100 3h30a1.5 1.5 0 100-3 4.492 4.492 0 01-4.224-3h15.297l4.5 9zM55.5 82.5a7.46 7.46 0 001.504 4.5H38.996a7.46 7.46 0 001.504-4.5V75h15v7.5zm36-10.5h-87v-9h87v9z"/><path d="M51 66h-6a1.5 1.5 0 100 3h6a1.5 1.5 0 100-3zM39 31.5a11.98 11.98 0 009.468-19.346L51.62 9H54a1.5 1.5 0 000-3h-3a1.5 1.5 0 00-1.061.44l-3.593 3.593A11.993 11.993 0 1039 31.5zm4.94-16.94a1.499 1.499 0 002.12 0l.268-.267A8.94 8.94 0 0147.865 18h-3.078a5.991 5.991 0 00-4.287-4.287v-3.078a8.94 8.94 0 013.707 1.537l-.267.267a1.5 1.5 0 000 2.121zM39 16.5a3 3 0 110 6 3 3 0 010-6zm-1.5-5.865v3.078A5.988 5.988 0 1044.787 21h3.078A8.996 8.996 0 1137.5 10.635z"/><path d="M67.5 12h-12a1.5 1.5 0 100 3h12a1.5 1.5 0 100-3zm-9-3h9a1.5 1.5 0 000-3h-9a1.5 1.5 0 000 3zm9 9h-12a1.5 1.5 0 100 3h12a1.5 1.5 0 100-3z"/></g><defs><clipPath id="clip0_324_3472"><path fill="#fff" d="M0 0h96v96H0z"/></clipPath></defs></svg>