<svg width="96" height="97" fill="none" xmlns="http://www.w3.org/2000/svg"><path d="M83.7 59.636a19.22 19.22 0 00-8.886-16.213 1.744 1.744 0 00-2.403.51 1.72 1.72 0 00.512 2.388c5.865 3.727 8.591 10.826 6.716 17.49a8.782 8.782 0 01-5.206 2.655 4.368 4.368 0 01-3.229-1.431 1.741 1.741 0 00-2.464 0 1.717 1.717 0 000 2.432 7.71 7.71 0 005.588 2.449h.209a10.955 10.955 0 006.091-2.415c.7 1.793 1.06 3.7 1.06 5.623-.01 7.96-5.945 14.684-13.885 15.73a19.137 19.137 0 003.94-11.625 1.73 1.73 0 00-1.736-1.725 1.73 1.73 0 00-1.736 1.725c0 4.728-2.118 9.21-5.78 12.229l-.19.138c-.313.258-.66.5-1.007.742l-.295.19c-.3.209-.613.4-.937.568l-.451.242-.833.397-.608.258-.711.259-.747.224-.625.173-.85.19h-.538l-.955.137h-1.457a16.004 16.004 0 01-12.566-6.054 1.741 1.741 0 00-1.736-.62 16.116 16.116 0 01-8.59-.5 18.227 18.227 0 006.23-5.917 1.718 1.718 0 00-.572-2.275 1.743 1.743 0 00-2.326.395 15.07 15.07 0 01-7.95 6.106h-.208a16.068 16.068 0 01-14.464-2.106 15.855 15.855 0 01-6.692-12.917c-.018-5.903 3.284-11.32 8.556-14.04a1.722 1.722 0 00.92-1.724 13.868 13.868 0 01-.104-1.725 15.746 15.746 0 016.094-12.517 15.958 15.958 0 0113.691-2.868c1.111 1.397 3.16 4.57 2.673 6.899-.092.45.002.92.26 1.301.257.382.657.647 1.111.734h.33a1.733 1.733 0 001.736-1.38c.694-3.45-1.267-6.899-2.638-8.83a16.35 16.35 0 0113.971-1.726c.376.133.787.133 1.163 0a15.706 15.706 0 015.206-.896 1.73 1.73 0 001.736-1.725 1.73 1.73 0 00-1.736-1.725 19.396 19.396 0 00-5.883.897 19.974 19.974 0 00-17.252 3.001 19.583 19.583 0 00-16.55 3.75 19.324 19.324 0 00-7.314 15.223v1.07C1.93 57.29-1.617 66.152.705 74.498c2.322 8.346 9.944 14.14 18.658 14.183h.33a20.111 20.111 0 005.293-.794 19.665 19.665 0 0012.635 2.225 19.422 19.422 0 0014.561 6.537h1.736l.972-.12.798-.121c.33 0 .642-.121.938-.207.281-.053.56-.122.833-.207l.85-.259.937-.345c.226-.086.451-.155.66-.259.523-.21 1.034-.451 1.527-.724a19.293 19.293 0 002.794-1.811h1.389c10.741-.01 19.446-8.66 19.456-19.335a18.775 18.775 0 00-2.066-8.624c.45-1.63.683-3.312.695-5.002z" fill="#FF5C39"/><path d="M26.74 46.097a1.74 1.74 0 00-2.274.914 18.87 18.87 0 00-1.528 7.52 19.259 19.259 0 002.569 9.624 1.744 1.744 0 003.017.006 1.722 1.722 0 00.003-1.73 15.832 15.832 0 01-.868-14.075 1.72 1.72 0 00-.92-2.26z" fill="#FF5C39"/><path fill-rule="evenodd" clip-rule="evenodd" d="M92.448 17.223a1.735 1.735 0 011.735 1.19 1.72 1.72 0 01-.66 2.036l-43.91 31.046a1.743 1.743 0 01-2.619-.736 1.717 1.717 0 01.38-1.886l21.938-21.801h-9.701a1.736 1.736 0 01-1.597-1.052 1.717 1.717 0 01.382-1.88L82.016.493A1.744 1.744 0 0184.26.336c.686.5.904 1.422.516 2.175L77.14 17.223h15.308zM74.71 26.485l-10.22 10.16 22.56-15.973H74.347a1.738 1.738 0 01-1.486-.827 1.716 1.716 0 01-.059-1.691l3.836-7.382-12.844 12.763h9.685a1.736 1.736 0 011.614 1.07 1.717 1.717 0 01-.382 1.88z" fill="#FF5C39"/><path d="M49.51 73.193c.01-8.817 7.2-15.962 16.072-15.972a1.73 1.73 0 001.736-1.724 1.73 1.73 0 00-1.736-1.725c-10.789.01-19.533 8.699-19.542 19.42a1.73 1.73 0 001.735 1.726 1.73 1.73 0 001.736-1.725z" fill="#FF5C39"/></svg>