<svg width="96" height="96" fill="none" xmlns="http://www.w3.org/2000/svg"><path d="M13.07 23.22a1.709 1.709 0 000 3.418h5.756a1.709 1.709 0 000-3.418h-5.757zm26.783 1.709c0-.944-.765-1.709-1.708-1.709h-5.757a1.708 1.708 0 000 3.418h5.757c.943 0 1.708-.765 1.708-1.71zm10.299-1.709a1.709 1.709 0 000 3.418H68.19a1.708 1.708 0 000-3.418H50.152z" fill="#FF5C39"/><path fill-rule="evenodd" clip-rule="evenodd" d="M6.697 62.766h49.605a1.709 1.709 0 010 3.418h-1.709a6.544 6.544 0 00-6.208 6.536 6.544 6.544 0 006.209 6.537 1.709 1.709 0 010 3.418H28.236a1.709 1.709 0 010-3.418 6.544 6.544 0 006.208-6.537 6.544 6.544 0 00-6.208-6.536H6.732a6.56 6.56 0 01-6.56-6.546v-39.75a6.578 6.578 0 016.56-6.563h69.367a6.578 6.578 0 016.56 6.562V32.62a1.709 1.709 0 11-3.417 0V19.887a3.16 3.16 0 00-3.143-3.144H6.732a3.142 3.142 0 00-3.143 3.144v39.751a3.128 3.128 0 003.108 3.128zm28.697 16.491h11.957a10.258 10.258 0 010-13.073H35.394a10.258 10.258 0 010 13.073z" fill="#FF5C39"/><path d="M32.833 38.19a1.708 1.708 0 00-2.392-.222l-4.953 4.119c-.39.325-.616.807-.615 1.316-.001.508.224.99.614 1.316l4.954 4.118c.307.255.694.394 1.093.393a1.71 1.71 0 001.299-.615 1.71 1.71 0 00-.206-2.324l-3.416-2.82 3.416-2.803a1.71 1.71 0 00.206-2.478zm19.556-.222a1.71 1.71 0 10-2.186 2.632l3.416 2.803-3.416 2.82a1.71 1.71 0 001.093 3.007c.399.001.786-.138 1.093-.393l4.936-4.118a1.71 1.71 0 00.615-1.316 1.71 1.71 0 00-.614-1.316l-4.937-4.119zM38.776 51.281c.182.024.365.024.547 0a1.708 1.708 0 001.708-1.162l4.083-12.373a1.71 1.71 0 00-1.959-2.345 1.709 1.709 0 00-1.27 1.268l-4.133 12.442a1.71 1.71 0 001.024 2.17z" fill="#FF5C39"/><path fill-rule="evenodd" clip-rule="evenodd" d="M90.96 50.683c.133.33.447.55.802.564a4.357 4.357 0 014.066 4.324v1.247a4.357 4.357 0 01-4.066 4.324.905.905 0 00-.803.564.889.889 0 00.171.974 4.36 4.36 0 01-.188 5.93l-.87.872a4.337 4.337 0 01-5.945.188.939.939 0 00-1.537.632 4.34 4.34 0 01-4.322 4.084h-1.23a4.356 4.356 0 01-4.338-4.084.923.923 0 00-1.538-.632 4.32 4.32 0 01-5.927-.188l-.871-.872a4.325 4.325 0 01-.188-5.93.923.923 0 00-.632-1.538 4.357 4.357 0 01-4.083-4.324v-1.247a4.357 4.357 0 014.083-4.324.922.922 0 00.632-1.538 4.325 4.325 0 01.188-5.93l.87-.889a4.354 4.354 0 015.928-.188c.26.25.645.317.974.171a.906.906 0 00.564-.803 4.357 4.357 0 014.338-4.068h1.23a4.34 4.34 0 014.322 4.068.89.89 0 00.58.803.888.888 0 00.957-.154 4.337 4.337 0 015.944.188l.871.855a4.376 4.376 0 01.188 5.947.89.89 0 00-.17.974zm.58 7.041a.906.906 0 00.872-.906l-.017-1.247a.906.906 0 00-.871-.906 4.36 4.36 0 01-2.99-7.212.923.923 0 000-1.264l-.87-.872a.922.922 0 00-1.265 0 4.337 4.337 0 01-7.19-2.99.94.94 0 00-.923-.872h-1.23a.922.922 0 00-.922.871 4.337 4.337 0 01-7.208 2.99.922.922 0 00-1.265.001l-.87.872a.923.923 0 000 1.264 4.36 4.36 0 01-3.041 7.212.923.923 0 00-.872.906v1.247a.923.923 0 00.872.906 4.36 4.36 0 012.99 7.212.923.923 0 00-.001 1.265l.871.871a.922.922 0 001.264 0 4.32 4.32 0 012.87-1.076 4.424 4.424 0 011.708.324 4.34 4.34 0 012.665 3.743.94.94 0 00.922.872h1.281a.94.94 0 00.922-.872 4.34 4.34 0 017.192-2.99.922.922 0 001.264 0l.87-.872a.94.94 0 000-1.265 4.343 4.343 0 012.973-7.212z" fill="#FF5C39"/><path fill-rule="evenodd" clip-rule="evenodd" d="M70.727 53.33a7.482 7.482 0 0114.39 2.856 7.485 7.485 0 01-4.61 6.93 7.48 7.48 0 01-8.161-1.62 7.488 7.488 0 01-1.619-8.166zm3.159 4.424a4.065 4.065 0 003.768 2.5 4.084 4.084 0 004.048-4.068 4.064 4.064 0 00-6.946-2.87 4.069 4.069 0 00-.87 4.438z" fill="#FF5C39"/></svg>