<svg width="121" height="34" fill="none" xmlns="http://www.w3.org/2000/svg"><g clip-path="url(#clip0_63_43217)"><path d="M31.386-.02h5.55v34.08h-5.55V-.02zm24.858 23.28c0 5.28-4.344 5.76-5.792 5.76-3.379 0-3.862-3.12-3.862-4.8v-13.2h-5.55v12.96c0 3.12.965 6 2.896 7.68 1.69 1.68 3.861 2.4 6.516 2.4 1.93 0 4.344-.48 5.792-1.92v1.92h5.551V11.02h-5.55v12.24zM72.655 2.62h-5.55v8.4H63v5.28h4.103v17.76h5.551V16.3h4.103v-5.28h-4.103v-8.4zm21.48 24.48c-1.207.96-2.896 1.68-4.586 1.68-3.861 0-6.516-2.88-6.516-6.72s2.655-6.48 6.516-6.48c1.69 0 3.38.48 4.586 1.68l.724.72 3.861-3.6-.965-.72a12.414 12.414 0 00-8.206-3.12c-6.757 0-11.825 5.04-11.825 11.76s5.068 11.76 11.825 11.76c3.138 0 6.034-1.2 8.206-3.12l.965-.72-3.861-3.84-.724.72zm24.134-14.16c-1.689-1.68-3.379-2.4-6.034-2.4-1.93 0-3.861.48-5.309 1.92V-.02h-5.551v34.08h5.551V21.34c0-5.28 3.62-5.76 5.068-5.76 3.379 0 3.138 3.12 3.138 4.8v13.44h5.55v-13.2c0-3.12-.724-6-2.413-7.68z" fill="#5A5A6A"/><path d="M89.308 26.14c2.132 0 3.861-1.72 3.861-3.84s-1.729-3.84-3.861-3.84c-2.133 0-3.862 1.72-3.862 3.84s1.73 3.84 3.862 3.84z" fill="#EF4335"/><path d="M23.663 25.66c-1.93 1.92-4.827 3.12-7.965 3.12-6.033 0-10.377-4.8-10.377-11.28 0-6.48 4.344-11.28 10.619-11.28 2.896 0 5.792 1.2 7.964 3.36l.724.72 3.62-3.6-.724-.72c-3.137-3.12-7.24-4.8-11.584-4.8C6.769.94.01 8.14.01 17.5S6.77 34.06 15.7 34.06c4.344 0 8.688-1.68 11.584-4.8l.724-.72-3.62-3.6-.724.72z" fill="#5A5A6A"/></g><defs><clipPath id="clip0_63_43217"><path fill="#fff" transform="translate(.011)" d="M0 0h120.619v34H0z"/></clipPath></defs></svg>