<svg width="163" height="56" fill="none" xmlns="http://www.w3.org/2000/svg"><g clip-path="url(#clip0_63_43175)"><path fill="#fff" d="M0 0h162.602v56H0z"/><path d="M162.602 0H0v55.927h162.602V0z" fill="#fff"/><path d="M14.789.073H0V56h14.789V.073z" fill="#4285F4"/><path d="M29.398 48.512h-2.894v-22.58h7.642a7.084 7.084 0 014.951 1.91 6.526 6.526 0 012.108 4.808 6.545 6.545 0 01-2.108 4.809 7.085 7.085 0 01-4.95 1.909h-4.749v9.144zm0-11.918h4.878a3.753 3.753 0 002.927-1.232 3.898 3.898 0 000-5.424 3.732 3.732 0 00-2.927-1.232h-4.878v7.888zm18.569 12.423a6.052 6.052 0 01-4.065-1.419 4.713 4.713 0 01-1.626-3.752 4.663 4.663 0 011.951-3.965 7.884 7.884 0 014.805-1.427 8.196 8.196 0 014.179.946v-.449a3.445 3.445 0 00-1.179-2.724 4.146 4.146 0 00-2.853-1.028 4.42 4.42 0 00-2.285.604c-.645.36-1.14.938-1.398 1.631L42.86 36.3a5.894 5.894 0 012.106-2.57 6.674 6.674 0 014.146-1.182 7.132 7.132 0 014.879 1.73 6.218 6.218 0 011.943 4.894v9.34H53.17v-2.146h-.122a5.698 5.698 0 01-2.184 2.014 5.675 5.675 0 01-2.897.637zm.472-2.65a4.7 4.7 0 003.252-1.338 4.159 4.159 0 001.463-3.174 5.676 5.676 0 00-3.675-1.011 4.777 4.777 0 00-3.138.913 2.748 2.748 0 00-1.073 2.146 2.077 2.077 0 00.943 1.778c.655.452 1.433.69 2.228.685zM61.96 33.062v2.52h.122a3.993 3.993 0 011.87-2.137 6 6 0 013-.775 9.89 9.89 0 011.04.066v2.838a11.49 11.49 0 00-1.162-.065 4.868 4.868 0 00-3.415 1.2 4.274 4.274 0 00-1.333 3.327v8.476h-2.895v-15.45h2.773zm15.837 15.703a4.465 4.465 0 01-3.671-1.277 4.496 4.496 0 01-1.296-3.675v-8.108h-2.7v-2.643h2.7V28.33h2.894v4.73h3.772v2.644h-3.772v7.888c0 1.68.691 2.52 2.073 2.52a3.04 3.04 0 001.317-.252l1.009 2.488c-.739.298-1.53.44-2.326.416zm7.383-15.704v2.137h.121a5.21 5.21 0 011.984-1.876 5.733 5.733 0 012.894-.767 5.43 5.43 0 014.366 1.762 7.022 7.022 0 011.504 4.731v9.463h-2.886v-9.022c0-2.855-1.268-4.29-3.805-4.29a3.535 3.535 0 00-2.919 1.435 5.224 5.224 0 00-1.138 3.328v8.549h-2.886V33.06h2.764zm21.243 15.956a7.408 7.408 0 01-5.691-2.34 8.264 8.264 0 01-2.162-5.89 8.54 8.54 0 012.122-5.808 6.884 6.884 0 015.414-2.448 7.085 7.085 0 015.488 2.236 8.502 8.502 0 012.057 6.02v.53h-12.195a5.267 5.267 0 001.561 3.695 4.723 4.723 0 003.341 1.354 4.135 4.135 0 002.546-.622 4.159 4.159 0 001.666-2.029l2.577 1.077a6.976 6.976 0 01-2.439 3.01 7.219 7.219 0 01-4.285 1.215zm4.147-10.09a4.085 4.085 0 00-1.203-2.529 4.32 4.32 0 00-3.318-1.2 4.137 4.137 0 00-2.796 1.012 5.13 5.13 0 00-1.626 2.717h8.943zm8.609 9.585h-2.918v-15.45h2.764v2.52h.122a4 4 0 011.813-2.08 5.164 5.164 0 012.65-.815 5.482 5.482 0 012.171.383l-1.097 2.708a4.404 4.404 0 00-1.545-.22 3.766 3.766 0 00-2.781 1.248 4.495 4.495 0 00-1.211 3.263l.032 8.443z" fill="#757575"/><path d="M33.09 20.76a6.988 6.988 0 01-4.905-2.01 7.034 7.034 0 01-2.096-4.883 7.035 7.035 0 012.074-4.924 6.988 6.988 0 014.926-2.034 6.566 6.566 0 014.732 1.909l-1.325 1.338A4.82 4.82 0 0033.089 8.8a5.017 5.017 0 00-3.421 1.545 5.05 5.05 0 000 6.985 5.017 5.017 0 003.421 1.545 4.636 4.636 0 003.496-1.387 4.02 4.02 0 001.033-2.382h-4.545v-1.941h6.366c.072.406.108.819.106 1.231a6.26 6.26 0 01-1.626 4.422 6.3 6.3 0 01-4.83 1.941z" fill="#4285F4"/><path d="M49.593 16.315a4.49 4.49 0 01-.744 2.492 4.466 4.466 0 01-2 1.657 4.449 4.449 0 01-4.87-.96 4.482 4.482 0 01-.974-4.883 4.47 4.47 0 011.643-2.012 4.452 4.452 0 012.482-.756 4.376 4.376 0 013.172 1.284 4.405 4.405 0 011.291 3.178zm-1.95 0a2.537 2.537 0 00-.66-1.918 2.52 2.52 0 00-1.853-.814 2.512 2.512 0 00-1.852.814 2.529 2.529 0 00-.66 1.918 2.536 2.536 0 00.66 1.918 2.518 2.518 0 002.863.601 2.518 2.518 0 001.371-1.491c.114-.33.158-.68.13-1.028z" fill="#EA4335"/><path d="M59.715 16.314a4.49 4.49 0 01-.75 2.494 4.45 4.45 0 01-6.878.672 4.484 4.484 0 01-.95-4.892 4.475 4.475 0 011.658-2.005 4.453 4.453 0 012.49-.739 4.37 4.37 0 013.156 1.296 4.4 4.4 0 011.274 3.174zm-1.95 0a2.527 2.527 0 00-1.515-2.458 2.505 2.505 0 00-2.82.584 2.521 2.521 0 00-.682 1.874 2.528 2.528 0 001.514 2.458 2.506 2.506 0 003.354-1.45c.117-.322.168-.665.148-1.008z" fill="#FBBC05"/><path d="M69.367 12.114v8.01c0 3.263-1.935 4.642-4.22 4.642a4.234 4.234 0 01-2.372-.714 4.255 4.255 0 01-1.571-1.921l1.7-.71a2.447 2.447 0 002.243 1.59c1.463 0 2.374-.913 2.374-2.618v-.644h-.04a3.024 3.024 0 01-2.342 1.011 4.44 4.44 0 01-3.021-1.37 4.47 4.47 0 010-6.175 4.44 4.44 0 013.02-1.37 3.057 3.057 0 012.342.995h.073v-.726h1.814zm-1.716 4.2a2.52 2.52 0 00-1.405-2.476 2.499 2.499 0 00-.969-.248 2.57 2.57 0 00-1.783.854 2.588 2.588 0 00-.656 1.87 2.57 2.57 0 00.663 1.851 2.554 2.554 0 001.776.833 2.474 2.474 0 002.254-1.696c.106-.317.147-.653.12-.987z" fill="#4285F4"/><path d="M73.212 7.382V20.49H71.26V7.38h1.951z" fill="#34A853"/><path d="M81.171 17.775l1.512.987a4.427 4.427 0 01-3.707 1.974 4.338 4.338 0 01-3.133-1.278 4.366 4.366 0 01-1.273-3.143 4.254 4.254 0 011.144-3.129 4.228 4.228 0 013.043-1.334 4.114 4.114 0 012.348.813 4.135 4.135 0 011.457 2.018l.203.506-5.943 2.447a2.265 2.265 0 002.154 1.354 2.546 2.546 0 002.195-1.215zm-4.666-1.632l3.975-1.631a1.735 1.735 0 00-1.626-.946 2.431 2.431 0 00-1.723.802 2.448 2.448 0 00-.626 1.8v-.025z" fill="#EA4335"/></g><defs><clipPath id="clip0_63_43175"><path fill="#fff" d="M0 0h162.602v56H0z"/></clipPath></defs></svg>