<svg width="114" height="34" fill="none" xmlns="http://www.w3.org/2000/svg"><g clip-path="url(#clip0_63_43227)"><path d="M31.165 21.473c-1.85 0-3.584-.783-5.16-2.057l.384-1.8.017-.066c.341-1.916 1.425-5.131 4.76-5.131 2.5 0 4.534 2.032 4.534 4.531a4.547 4.547 0 01-4.535 4.523zm0-13.643c-4.26 0-7.56 2.765-8.902 7.313-2.051-3.074-3.602-6.764-4.51-9.87h-4.585v11.919A4.274 4.274 0 018.9 21.456a4.274 4.274 0 01-4.268-4.264V5.272H.047v11.92c-.017 4.88 3.96 8.887 8.844 8.887 4.885 0 8.862-4.006 8.862-8.887v-2c.892 1.858 1.983 3.732 3.309 5.398l-2.81 13.193h4.694l2.034-9.57c1.784 1.141 3.834 1.858 6.185 1.858 5.027 0 9.12-4.115 9.12-9.138 0-5.014-4.093-9.103-9.12-9.103z" fill="#6FDA44"/><path d="M54.28 8.346l2.96 11.919 3.26-11.92h3.884l-5.01 17.226H55.49l-3.075-11.995-3.068 11.986H45.46L40.45 8.338h3.885l3.26 11.919 2.958-11.92h3.727v.01-.001zm19.398-.517c-5.043 0-9.127 4.09-9.127 9.12 0 5.04 4.093 9.121 9.127 9.121 5.044 0 9.137-4.08 9.137-9.12 0-5.04-4.093-9.12-9.137-9.12zm0 14.493a5.363 5.363 0 110-10.728 5.362 5.362 0 015.369 5.364c0 2.957-2.4 5.364-5.369 5.364zm20.232-10.12a4.717 4.717 0 00-4.718 4.714v8.646h-3.91V8.346h3.91v2.649s1.667-2.658 5.093-2.658h1.2v3.865H93.91zm13.121 4.082c2.775-1.566 4.659-4.54 4.659-7.947h-3.909a5.21 5.21 0 01-5.21 5.206h-.525V.033h-3.91v25.53h3.91V17.45h.467c.383 0 .883.25 1.108.558l5.552 7.554h4.685l-6.827-9.278z" fill="#5A5A6A"/></g><defs><clipPath id="clip0_63_43227"><path fill="#fff" d="M0 0h113.88v34H0z"/></clipPath></defs></svg>