<svg width="56" height="34" fill="none" xmlns="http://www.w3.org/2000/svg"><g clip-path="url(#clip0_63_43230)"><path d="M16.915 0c1.622 0 3.1.143 4.436.429 1.336.285 2.48.754 3.435 1.404a6.537 6.537 0 012.218 2.596c.525 1.08.787 2.413.787 4 0 1.714-.39 3.143-1.169 4.285-.78 1.143-1.932 2.08-3.458 2.81 2.099.603 3.665 1.66 4.699 3.167 1.033 1.508 1.55 3.326 1.55 5.452 0 1.714-.333 3.199-1.002 4.453a8.667 8.667 0 01-2.694 3.07c-1.13.795-2.418 1.382-3.864 1.763a17.464 17.464 0 01-4.46.571H.886V0h16.028zm-.954 13.762c1.336 0 2.432-.317 3.291-.952s1.288-1.667 1.288-3.095c0-.794-.143-1.445-.429-1.953a3.17 3.17 0 00-1.145-1.19 4.843 4.843 0 00-1.646-.596 10.968 10.968 0 00-1.932-.166H8.376v7.953h7.585zm.429 14.429c.731 0 1.431-.072 2.099-.215a5.16 5.16 0 001.765-.714 3.597 3.597 0 001.216-1.358c.302-.57.453-1.3.453-2.19 0-1.745-.493-2.991-1.478-3.738-.986-.746-2.29-1.12-3.912-1.12H8.376v9.334h8.014zm22.449-.714c1.017.985 2.48 1.476 4.388 1.476 1.367 0 2.544-.34 3.53-1.024.986-.682 1.59-1.404 1.813-2.167h5.962c-.953 2.953-2.417 5.064-4.388 6.334C48.172 33.366 45.786 34 42.988 34c-1.94 0-3.69-.31-5.247-.928-1.559-.62-2.879-1.5-3.96-2.643-1.08-1.143-1.916-2.507-2.504-4.095-.589-1.587-.882-3.333-.882-5.238 0-1.841.301-3.555.906-5.143.604-1.587 1.462-2.96 2.576-4.12a12.146 12.146 0 013.983-2.737c1.543-.667 3.252-1 5.128-1 2.1 0 3.928.405 5.487 1.214 1.557.81 2.838 1.898 3.84 3.262 1.001 1.365 1.724 2.921 2.17 4.666.446 1.747.604 3.572.478 5.477H37.169c.095 2.19.651 3.778 1.67 4.762zm7.656-12.953c-.811-.888-2.044-1.333-3.697-1.333-1.081 0-1.98.183-2.695.547-.716.366-1.288.818-1.718 1.358a4.974 4.974 0 00-.906 1.714 7.725 7.725 0 00-.31 1.619h11.02c-.319-1.715-.883-3.016-1.694-3.905zM36.012 1.726H49.78v3.811H36.012v-3.81z" fill="#1769FF"/></g><defs><clipPath id="clip0_63_43230"><path fill="#fff" transform="translate(.88)" d="M0 0h54.132v34H0z"/></clipPath></defs></svg>