<svg width="141" height="56" fill="none" xmlns="http://www.w3.org/2000/svg"><g clip-path="url(#clip0_1075_267465)"><path fill="#fff" d="M.603.177h140v55.646h-140z"/><path d="M6.556 18.526c0 1.6.352 2.827.811 3.57.603.973 1.502 1.385 2.418 1.385 1.181 0 2.262-.292 4.345-3.17 1.67-2.305 3.636-5.542 4.959-7.571l2.24-3.438c1.557-2.388 3.359-5.042 5.424-6.84C28.44.992 30.26.176 32.09.176c3.073 0 6 1.779 8.242 5.115 2.452 3.653 3.642 8.255 3.642 13.004 0 2.823-.557 4.897-1.505 6.536C41.553 26.417 39.767 28 36.763 28v-4.519c2.572 0 3.214-2.36 3.214-5.06 0-3.849-.899-8.12-2.878-11.172-1.405-2.164-3.225-3.487-5.228-3.487-2.167 0-3.91 1.632-5.869 4.54-1.042 1.546-2.11 3.43-3.311 5.555l-1.322 2.338c-2.655 4.7-3.328 5.771-4.655 7.538C14.387 26.827 12.4 28 9.784 28c-3.102 0-5.064-1.342-6.28-3.363-.991-1.648-1.479-3.81-1.479-6.273l4.531.162z" fill="#0081FB"/><path d="M5.598 5.61C7.675 2.414 10.673.178 14.11.178c1.991 0 3.97.589 6.038 2.274 2.261 1.843 4.671 4.877 7.678 9.878l1.078 1.795c2.602 4.329 4.083 6.556 4.95 7.606 1.114 1.35 1.894 1.751 2.908 1.751 2.572 0 3.214-2.36 3.214-5.06l3.997-.125c0 2.823-.557 4.897-1.506 6.536-.915 1.584-2.7 3.167-5.704 3.167-1.867 0-3.521-.405-5.35-2.128-1.407-1.323-3.051-3.672-4.316-5.785l-3.762-6.275c-1.888-3.15-3.62-5.498-4.621-6.561-1.078-1.144-2.464-2.525-4.676-2.525-1.79 0-3.31 1.255-4.582 3.173L5.598 5.611z" fill="url(#paint0_linear_1075_267465)"/><path d="M14.039 4.726c-1.79 0-3.31 1.255-4.583 3.173-1.798 2.711-2.9 6.749-2.9 10.627 0 1.6.352 2.827.811 3.57l-3.862 2.54c-.992-1.647-1.48-3.809-1.48-6.272 0-4.48 1.232-9.148 3.573-12.753C7.675 2.413 10.673.177 14.11.177l-.072 4.55z" fill="url(#paint1_linear_1075_267465)"/><path d="M52.782 1.057h5.242l8.911 16.1 8.914-16.1h5.127v26.454H76.7V7.236l-7.816 14.04h-4.011l-7.815-14.04v20.275h-4.276V1.057zm41.592 9.863c-3.067 0-4.913 2.305-5.356 5.158h10.407c-.214-2.94-1.912-5.158-5.051-5.158zm-9.595 6.784c0-6.004 3.886-10.374 9.669-10.374 5.688 0 9.084 4.314 9.084 10.695v1.172H89.018c.515 3.105 2.578 5.196 5.904 5.196 2.654 0 4.312-.808 5.885-2.287l2.271 2.778c-2.14 1.965-4.862 3.099-8.308 3.099-6.26 0-9.99-4.558-9.99-10.279zm23.937-6.405h-3.935V7.803h3.935V2.021h4.126v5.782h5.979V11.3h-5.979v8.861c0 3.026.969 4.1 3.349 4.1 1.087 0 1.71-.093 2.63-.245v3.458a12.31 12.31 0 01-3.425.472c-4.453 0-6.68-2.43-6.68-7.294V11.3zm27.477 3.4c-.829-2.089-2.677-3.627-5.393-3.627-3.531 0-5.791 2.501-5.791 6.575 0 3.973 2.081 6.595 5.621 6.595 2.784 0 4.77-1.617 5.563-3.629V14.7zm4.125 12.812h-4.05v-2.76c-1.132 1.625-3.192 3.232-6.528 3.232-5.365 0-8.951-4.486-8.951-10.336 0-5.905 3.672-10.317 9.179-10.317 2.722 0 4.858 1.086 6.3 3.005V7.803h4.05v19.708zM9.945 47.961c.66.184 1.179.518 1.557 1.004.379.474.568 1.079.568 1.812 0 .982-.373 1.737-1.12 2.266-.735.528-1.81.793-3.227.793H2.306V42.508h5.093c1.297 0 2.297.259 3 .777.714.518 1.07 1.235 1.07 2.152 0 .593-.14 1.106-.421 1.537-.27.432-.638.76-1.103.987zM3.928 43.82v3.625h3.325c.832 0 1.47-.152 1.914-.454.454-.312.68-.766.68-1.359s-.226-1.041-.68-1.343c-.444-.313-1.082-.47-1.914-.47H3.928zm3.73 8.706c.92 0 1.611-.151 2.076-.453.465-.302.698-.777.698-1.424 0-1.263-.925-1.894-2.774-1.894h-3.73v3.77h3.73zm14.709-7.266v8.577H20.89V52.54c-.313.442-.73.788-1.248 1.036a3.9 3.9 0 01-1.671.356c-1.146 0-2.049-.313-2.709-.939-.66-.636-.989-1.57-.989-2.8V45.26h1.557v4.758c0 .83.2 1.461.6 1.893.4.42.973.631 1.72.631.821 0 1.47-.248 1.946-.744.476-.497.713-1.198.713-2.104V45.26h1.558zm5.43 8.674a7.418 7.418 0 01-2.028-.275c-.65-.194-1.157-.437-1.525-.729l.649-1.23c.378.27.838.486 1.378.648a5.684 5.684 0 001.639.243c1.362 0 2.043-.389 2.043-1.166a.754.754 0 00-.275-.614 1.67 1.67 0 00-.698-.324c-.27-.076-.66-.156-1.168-.243-.692-.108-1.26-.232-1.703-.372a2.618 2.618 0 01-1.119-.712c-.313-.334-.47-.804-.47-1.408 0-.777.324-1.397.973-1.861.649-.475 1.52-.712 2.611-.712.573 0 1.146.07 1.72.21.573.14 1.043.33 1.41.567l-.664 1.23c-.703-.454-1.53-.68-2.482-.68-.66 0-1.162.108-1.508.324-.346.215-.52.501-.52.857 0 .28.098.502.293.664.194.162.432.28.713.356.292.075.698.162 1.217.259.692.118 1.249.248 1.67.388.433.13.8.356 1.103.68.303.323.454.777.454 1.36 0 .776-.335 1.396-1.005 1.86-.66.453-1.563.68-2.709.68zm5.66-8.674h1.557v8.577h-1.558V45.26zm.778-1.65c-.303 0-.557-.098-.762-.292a.967.967 0 01-.292-.712c0-.28.097-.518.292-.712.205-.205.46-.308.762-.308.303 0 .551.097.746.292a.892.892 0 01.308.696c0 .29-.102.539-.308.744a1.011 1.011 0 01-.746.291zm8.341 1.569c1.093 0 1.958.318 2.596.955.648.625.973 1.548.973 2.767v4.936h-1.557v-4.758c0-.83-.2-1.456-.6-1.877-.4-.42-.974-.631-1.72-.631-.843 0-1.508.248-1.995.744-.486.486-.73 1.187-.73 2.104v4.418h-1.557V45.26h1.492v1.294a3.035 3.035 0 011.266-1.019c.54-.237 1.151-.356 1.832-.356zm14.267 4.418c0 .119-.01.275-.032.47h-6.975c.098.754.427 1.364.99 1.828.573.453 1.281.68 2.124.68 1.028 0 1.855-.346 2.482-1.036l.86 1.003c-.39.453-.876.798-1.46 1.036-.573.237-1.217.356-1.93.356-.909 0-1.714-.184-2.417-.55a4.096 4.096 0 01-1.638-1.57c-.379-.669-.568-1.424-.568-2.266 0-.83.184-1.58.552-2.25a4.02 4.02 0 011.54-1.553c.66-.377 1.4-.566 2.222-.566.822 0 1.552.189 2.19.566a3.8 3.8 0 011.509 1.554c.367.669.551 1.435.551 2.298zm-4.25-3.107c-.746 0-1.373.226-1.88.68-.498.453-.79 1.046-.877 1.78h5.515c-.087-.723-.384-1.311-.892-1.764-.498-.464-1.12-.696-1.866-.696zm8.878 7.444a7.418 7.418 0 01-2.028-.275c-.648-.194-1.157-.437-1.524-.729l.648-1.23c.379.27.839.486 1.38.648a5.67 5.67 0 001.637.243c1.363 0 2.044-.389 2.044-1.166a.754.754 0 00-.276-.614 1.67 1.67 0 00-.697-.324c-.27-.076-.66-.156-1.168-.243-.692-.108-1.26-.232-1.703-.372a2.618 2.618 0 01-1.12-.712c-.313-.334-.47-.804-.47-1.408 0-.777.325-1.397.974-1.861.648-.475 1.519-.712 2.61-.712.574 0 1.147.07 1.72.21.573.14 1.044.33 1.411.567l-.665 1.23c-.703-.454-1.53-.68-2.481-.68-.66 0-1.163.108-1.509.324-.346.215-.519.501-.519.857 0 .28.098.502.292.664.195.162.433.28.714.356.292.075.697.162 1.216.259.692.118 1.25.248 1.67.388.434.13.801.356 1.104.68.303.323.454.777.454 1.36 0 .776-.335 1.396-1.006 1.86-.66.453-1.562.68-2.708.68zm8.125 0a7.418 7.418 0 01-2.027-.275c-.65-.194-1.157-.437-1.525-.729l.649-1.23c.378.27.838.486 1.379.648.54.162 1.086.243 1.638.243 1.362 0 2.043-.389 2.043-1.166a.754.754 0 00-.275-.614 1.67 1.67 0 00-.698-.324c-.27-.076-.66-.156-1.168-.243-.692-.108-1.26-.232-1.703-.372a2.618 2.618 0 01-1.119-.712c-.313-.334-.47-.804-.47-1.408 0-.777.324-1.397.973-1.861.649-.475 1.52-.712 2.611-.712.573 0 1.147.07 1.72.21.573.14 1.043.33 1.41.567l-.664 1.23c-.703-.454-1.53-.68-2.482-.68-.66 0-1.162.108-1.508.324-.346.215-.52.501-.52.857 0 .28.098.502.293.664.194.162.432.28.713.356.292.075.698.162 1.217.259.692.118 1.249.248 1.67.388.433.13.8.356 1.103.68.303.323.454.777.454 1.36 0 .776-.335 1.396-1.005 1.86-.66.453-1.563.68-2.709.68zm14.671-11.425c1.471 0 2.628.35 3.471 1.052.844.701 1.266 1.666 1.266 2.896s-.422 2.196-1.266 2.897c-.843.701-2 1.052-3.47 1.052H81.46v3.43h-1.62V42.509h4.427zm-.048 6.49c1.027 0 1.81-.217 2.352-.648.54-.443.81-1.074.81-1.894 0-.82-.27-1.445-.81-1.877-.541-.442-1.325-.663-2.352-.663H81.46v5.081h2.758zm9.991-3.82c1.19 0 2.098.291 2.725.874.638.582.957 1.45.957 2.605v5.179h-1.476v-1.133c-.26.4-.632.707-1.119.922-.476.205-1.043.308-1.703.308-.962 0-1.736-.232-2.32-.696-.573-.464-.86-1.074-.86-1.829 0-.755.277-1.359.828-1.812.551-.464 1.427-.696 2.628-.696h2.465v-.307c0-.67-.195-1.182-.584-1.538-.39-.356-.962-.534-1.72-.534a4.42 4.42 0 00-1.491.26 3.732 3.732 0 00-1.233.663l-.649-1.166a4.603 4.603 0 011.59-.809 6.493 6.493 0 011.962-.291zm-.357 7.557c.595 0 1.109-.13 1.541-.388.433-.27.746-.647.941-1.133v-1.197h-2.4c-1.32 0-1.98.442-1.98 1.327 0 .431.168.771.504 1.02.335.247.8.371 1.394.371zm8.413-6.036a2.65 2.65 0 011.2-1.133c.53-.259 1.173-.388 1.93-.388v1.505a3.034 3.034 0 00-.357-.016c-.843 0-1.508.253-1.995.76-.475.497-.713 1.209-.713 2.136v4.273h-1.557V45.26h1.492v1.44zm10.231 6.635a2.421 2.421 0 01-.843.453 3.71 3.71 0 01-1.038.146c-.865 0-1.536-.232-2.011-.696-.476-.464-.714-1.127-.714-1.99v-4.71h-1.46V45.26h1.46v-1.877h1.557v1.877h2.465v1.278h-2.465v4.645c0 .464.114.82.341 1.068.238.248.573.372 1.005.372.476 0 .882-.135 1.217-.405l.486 1.117zm6.473-8.156c1.092 0 1.957.318 2.595.955.649.625.973 1.548.973 2.767v4.936h-1.557v-4.758c0-.83-.2-1.456-.6-1.877-.4-.42-.973-.631-1.719-.631-.844 0-1.509.248-1.995.744-.487.486-.73 1.187-.73 2.104v4.418h-1.557V45.26h1.492v1.294a3.03 3.03 0 011.265-1.019c.541-.237 1.152-.356 1.833-.356zm14.266 4.418c0 .119-.01.275-.032.47h-6.974c.097.754.427 1.364.989 1.828.573.453 1.281.68 2.125.68 1.027 0 1.854-.346 2.481-1.036l.86 1.003a3.752 3.752 0 01-1.46 1.036c-.573.237-1.216.356-1.93.356-.908 0-1.714-.184-2.417-.55a4.092 4.092 0 01-1.638-1.57c-.378-.669-.568-1.424-.568-2.266 0-.83.184-1.58.552-2.25a4.015 4.015 0 011.541-1.553c.659-.377 1.4-.566 2.222-.566.822 0 1.552.189 2.189.566a3.802 3.802 0 011.509 1.554c.368.669.551 1.435.551 2.298zm-4.249-3.107c-.746 0-1.373.226-1.882.68-.497.453-.789 1.046-.875 1.78h5.514c-.086-.723-.384-1.311-.892-1.764-.497-.464-1.119-.696-1.865-.696zm7.904.21a2.65 2.65 0 011.2-1.133c.53-.259 1.173-.388 1.93-.388v1.505a3.045 3.045 0 00-.357-.016c-.843 0-1.508.253-1.995.76-.476.497-.714 1.209-.714 2.136v4.273h-1.557V45.26h1.493v1.44z" fill="#192830"/></g><defs><linearGradient id="paint0_linear_1075_267465" x1="10.924" y1="17.221" x2="39.807" y2="18.681" gradientUnits="userSpaceOnUse"><stop stop-color="#0064E1"/><stop offset=".4" stop-color="#0064E1"/><stop offset=".83" stop-color="#0073EE"/><stop offset="1" stop-color="#0082FB"/></linearGradient><linearGradient id="paint1_linear_1075_267465" x1="8.59" y1="20.425" x2="8.59" y2="9.791" gradientUnits="userSpaceOnUse"><stop stop-color="#0082FB"/><stop offset="1" stop-color="#0064E0"/></linearGradient><clipPath id="clip0_1075_267465"><path fill="#fff" transform="translate(.603 .177)" d="M0 0h140v55.646H0z"/></clipPath></defs></svg>