<svg width="54" height="54" fill="none" xmlns="http://www.w3.org/2000/svg"><circle cx="27" cy="27" r="26" stroke="#3B3B46" stroke-width="2"/><path d="M22.648 22.7c1.19-1.19 2.627-1.786 4.308-1.786s3.1.596 4.256 1.787c1.19 1.155 1.786 2.574 1.786 4.255s-.595 3.117-1.786 4.308c-1.156 1.156-2.575 1.734-4.256 1.734s-3.117-.578-4.308-1.734c-1.156-1.19-1.734-2.627-1.734-4.308s.578-3.1 1.734-4.255zm1.524 7.04c.77.771 1.698 1.157 2.784 1.157 1.086 0 2.014-.386 2.785-1.156.77-.77 1.156-1.699 1.156-2.785s-.386-2.014-1.156-2.784c-.77-.77-1.699-1.156-2.785-1.156s-2.014.385-2.784 1.156c-.77.77-1.156 1.698-1.156 2.784 0 1.086.385 2.014 1.156 2.785zm10.035-10.034c.28.245.42.56.42.945 0 .386-.14.719-.42.999a1.2 1.2 0 01-.946.42c-.385 0-.718-.14-.998-.42-.28-.28-.42-.613-.42-.998 0-.386.14-.701.42-.946.28-.28.613-.42.998-.42s.7.14.946.42zm4.465 2.417c.035.945.053 2.556.053 4.833s-.018 3.888-.053 4.834c-.105 2.136-.753 3.8-1.944 4.991-1.155 1.156-2.802 1.769-4.938 1.839-.946.07-2.557.105-4.834.105-2.276 0-3.888-.035-4.833-.105-2.137-.105-3.783-.736-4.939-1.892a5.068 5.068 0 01-1.103-1.47 8.63 8.63 0 01-.63-1.63 9.466 9.466 0 01-.158-1.838c-.07-.946-.105-2.557-.105-4.834 0-2.276.034-3.905.105-4.886.105-2.102.735-3.73 1.891-4.886 1.156-1.19 2.802-1.839 4.939-1.944.945-.035 2.556-.053 4.833-.053s3.888.018 4.834.053c2.136.105 3.783.753 4.938 1.944 1.191 1.156 1.84 2.802 1.944 4.939zM36.151 33.89c.105-.28.192-.63.262-1.05.07-.456.123-.981.158-1.577.035-.63.052-1.138.052-1.523v-5.568a25.9 25.9 0 00-.052-1.471 14.848 14.848 0 00-.158-1.577 5.688 5.688 0 00-.262-1.103c-.42-1.086-1.174-1.839-2.26-2.26a5.693 5.693 0 00-1.103-.262c-.42-.07-.946-.122-1.576-.157a25.984 25.984 0 00-1.471-.053h-5.569c-.386 0-.893.018-1.524.053-.595.035-1.12.087-1.576.157-.42.07-.77.158-1.05.263-1.087.42-1.84 1.173-2.26 2.26-.105.28-.193.647-.263 1.102-.07.42-.122.946-.157 1.577a25.981 25.981 0 00-.053 1.47v6.306c.035.526.07.981.105 1.366a13.977 13.977 0 00.368 2.05c.455 1.085 1.208 1.838 2.26 2.258.28.106.63.193 1.05.263.455.07.98.123 1.576.158.63.035 1.12.052 1.471.052h5.622c.385 0 .875-.017 1.47-.052a14.857 14.857 0 001.577-.158c.455-.07.823-.157 1.103-.262 1.086-.456 1.84-1.209 2.26-2.26z" fill="#3B3B46"/></svg>