<svg width="54" height="54" fill="none" xmlns="http://www.w3.org/2000/svg"><path d="M40.491 19.919c.104.405.19.913.26 1.521.104.61.174 1.218.208 1.827.035.575.052 1.116.052 1.623.035.507.052.93.052 1.268v.457c0 3.043-.19 5.292-.572 6.746a3.523 3.523 0 01-.936 1.522c-.451.44-.989.744-1.613.913-.66.17-1.908.305-3.746.406-1.838.068-3.52.118-5.047.152h-2.29c-5.93 0-9.624-.186-11.081-.558-1.353-.372-2.203-1.183-2.55-2.435-.173-.642-.312-1.521-.416-2.637-.069-1.15-.121-2.114-.156-2.892v-1.217c0-3.01.191-5.242.573-6.696a3.497 3.497 0 01.936-1.573c.451-.44.989-.744 1.613-.913.659-.17 1.908-.288 3.746-.355 1.838-.101 3.52-.17 5.047-.203h2.289c5.931 0 9.625.186 11.082.558a3.63 3.63 0 011.613.913c.45.44.763.964.936 1.573zM23.946 30.774l7.44-4.16-7.44-4.108v8.268z" fill="#3B3B46"/><circle cx="27" cy="27" r="26" stroke="#3B3B46" stroke-width="2"/></svg>