<svg width="54" height="54" fill="none" xmlns="http://www.w3.org/2000/svg"><path d="M20.441 38.725h-4.886v-15.71h4.886v15.71zm-2.416-17.863c-.771 0-1.436-.28-1.997-.84-.56-.561-.84-1.227-.84-1.997 0-.771.28-1.436.84-1.997.56-.56 1.226-.84 1.997-.84.49 0 .945.122 1.366.367.455.245.805.596 1.05 1.051.28.42.42.893.42 1.419 0 .49-.14.963-.42 1.418-.245.42-.595.77-1.05 1.05-.42.246-.876.369-1.366.369zm20.7 17.863h-4.886v-7.67c0-.596-.018-1.069-.053-1.42a6.247 6.247 0 00-.262-1.26c-.14-.49-.403-.858-.788-1.104-.35-.245-.824-.367-1.42-.367-1.155 0-1.943.367-2.363 1.103-.386.735-.578 1.716-.578 2.942v7.776h-4.886v-15.71h4.728v2.155h.053c.35-.7.928-1.296 1.733-1.786.806-.526 1.77-.788 2.89-.788 1.191 0 2.172.192 2.942.577.806.35 1.401.894 1.787 1.63.42.7.7 1.47.84 2.31.175.841.263 1.84.263 2.995v8.617z" fill="#3B3B46"/><circle cx="27" cy="27" r="26" stroke="#3B3B46" stroke-width="2"/></svg>