<svg width="54" height="54" fill="none" xmlns="http://www.w3.org/2000/svg"><path d="M24.548 25.975c2.53.665 3.796 2.327 3.796 4.986 0 1.884-.701 3.306-2.103 4.266-1.401.96-3.133 1.44-5.197 1.44H11V17h9.752c4.4 0 6.599 1.625 6.599 4.875 0 1.884-.934 3.25-2.803 4.1zm-8.993-5.596v4.599h4.613c1.83 0 2.745-.794 2.745-2.382 0-1.478-1.032-2.216-3.095-2.216h-4.263zm4.847 12.964c2.258 0 3.387-.868 3.387-2.603 0-1.884-1.09-2.826-3.27-2.826h-4.964v5.43h4.847zm20.964-13.351h-8.409v-1.94h8.41v1.94zm3.27 9.75c0 .185-.02.425-.058.72H33.775c0 1.183.311 2.087.934 2.715.662.628 1.577.942 2.745.942.428 0 .856-.074 1.284-.221a4.156 4.156 0 001.227-.61c.389-.295.642-.646.759-1.052h3.62C43.254 35.412 40.92 37 37.337 37c-2.336 0-4.205-.683-5.606-2.05-1.363-1.366-2.044-3.158-2.044-5.374 0-2.179.7-3.97 2.102-5.374 1.44-1.44 3.29-2.16 5.548-2.16s4.03.738 5.314 2.216c1.323 1.477 1.985 3.305 1.985 5.484zm-10.861-1.717h6.715c-.194-2.031-1.285-3.047-3.27-3.047-.973 0-1.771.277-2.394.83-.623.555-.974 1.294-1.051 2.217z" fill="#3B3B46"/><circle cx="27" cy="27" r="26" stroke="#3B3B46" stroke-width="2"/></svg>