<svg width="41" height="40" fill="none" xmlns="http://www.w3.org/2000/svg"><path d="M20.5 0C9.452 0 .5 8.952.5 20s8.952 20 20 20 20-8.952 20-20-8.952-20-20-20zm9.758 13.71l-3.226 15.483c-.242 1.13-.887 1.371-1.855.888l-5-3.71-2.419 2.339c-.242.242-.484.483-.968.483l.323-5.08 9.274-8.387c.403-.323-.08-.565-.645-.242L14.29 22.742 9.371 21.21c-1.048-.323-1.048-1.13.242-1.613l19.274-7.42c.887-.322 1.694.242 1.371 1.533z" fill="url(#paint0_linear_544_126717)"/><defs><linearGradient id="paint0_linear_544_126717" x1="14.894" y1="-18.517" x2="-12.442" y2="25.68" gradientUnits="userSpaceOnUse"><stop stop-color="#34B0DF"/><stop offset="1" stop-color="#1E88D3"/></linearGradient></defs></svg>