<svg width="321" height="222" fill="none" xmlns="http://www.w3.org/2000/svg"><g clip-path="url(#clip0_92_5945)" fill="#3B3B46"><path d="M69.525 89.774c.188 1.784-1.034 3.474-2.914 3.661L28.439 98.13c-1.787.188-3.48-1.032-3.667-2.91l-.094-.845c-.188-1.783 1.034-3.473 2.914-3.661l38.172-4.694c1.787-.188 3.48 1.033 3.667 2.91l.094.845zm-7.992 10.233c.188 1.783-1.034 3.473-2.914 3.661l-22.565 2.722c-1.787.188-3.479-1.032-3.667-2.91l-.094-.845c-.188-1.783 1.034-3.473 2.915-3.661l22.564-2.723c1.787-.187 3.48 1.033 3.667 2.91l.094.846zm-.094 9.294c.188 1.783-1.034 3.473-2.915 3.661l-22.564 2.722c-1.787.188-3.48-1.032-3.667-2.91l-.094-.845c-.188-1.783 1.034-3.473 2.914-3.661l22.565-2.722c1.787-.188 3.479 1.032 3.667 2.91l.094.845zm-.188 9.294c.188 1.784-1.034 3.473-2.915 3.661l-22.564 2.723c-1.787.188-3.48-1.033-3.667-2.911l-.094-.844c-.188-1.784 1.034-3.474 2.914-3.662l22.565-2.722c1.786-.188 3.479 1.033 3.667 2.91l.094.845zm7.616 8.355c.188 1.784-1.035 3.474-2.915 3.661l-38.172 4.694c-1.787.188-3.479-1.032-3.667-2.91l-.094-.845c-.188-1.783 1.034-3.473 2.915-3.661l38.172-4.694c1.786-.188 3.479 1.033 3.667 2.91l.094.845zm47.243-4.163c0 2.242-1.824 3.924-4.21 3.924H83.975c-2.385 0-4.21-1.402-4.21-3.924V95.605c0-2.242 1.684-3.363 3.368-3.363 1.544 0 3.368.84 3.368 3.363v25.501h8.14V95.605c0-2.242 1.683-3.363 3.367-3.363 1.824 0 3.368 1.121 3.368 3.363v25.501h8.139V95.605c0-2.242 1.684-3.363 3.368-3.363 1.824 0 3.367 1.121 3.367 3.363v27.182h-.14zm25.82-30.545c2.526 0 4.209 1.541 4.209 3.923v27.463c0 1.822-1.543 3.083-3.367 3.083-1.683 0-3.368-1.121-3.368-3.363V97.987h-12.349v25.641c0 1.822-1.543 3.083-3.367 3.083-1.825 0-3.368-1.121-3.368-3.363V96.165c0-2.382 1.684-3.923 4.21-3.923h17.4zm26.382 2.943c.139-.56.561-2.943 3.367-2.943 1.123 0 3.509.7 3.509 3.083 0 3.082-1.545 16.814-14.454 31.105-.702.701-1.263 1.401-2.806 1.401-2.386 0-3.509-1.681-3.509-3.082 0-1.121.561-1.822.982-2.382 1.123-1.401 1.685-1.681 3.649-4.203-8.56-7.567-11.086-18.636-11.086-22.84 0-2.381 1.965-3.082 3.227-3.082 2.948 0 3.509 2.102 3.789 3.503.562 3.503 1.824 11.349 7.579 16.814 4.209-6.025 5.05-13.591 5.753-17.374zm21.609-2.943c4.771 0 7.157 4.064 9.402 9.248 2.245 5.184 5.333 16.954 5.333 21.578 0 3.222-2.246 3.783-3.509 3.783-2.665 0-3.228-2.242-3.368-3.083-.701-3.923-.561-9.388-4.63-19.896-1.825-4.764-2.667-5.885-3.789-5.885h-.421c-1.685 0-2.947 3.643-3.789 5.885-3.649 9.948-4.21 17.094-4.631 19.896-.14.841-.702 3.083-3.367 3.083-1.825 0-3.509-1.121-3.509-3.783 0-3.924 2.527-14.432 5.333-21.578 3.649-9.108 6.875-9.248 9.542-9.248h1.403zm23.717 9.248c14.032 1.121 20.487 8.267 20.487 14.572 0 4.063-2.526 10.649-11.787 10.649h-11.227c-1.824 0-4.21-.561-4.21-3.924V95.605c0-2.242 1.545-3.363 3.369-3.363 1.824 0 3.368 1.121 3.368 3.363v5.885zm7.858 19.616c3.649 0 5.472-2.242 5.472-4.624 0-4.203-5.472-8.547-13.47-8.967v13.591h7.998zm21.469-20.177c1.403.14 2.947.421 4.491.981 4.63-1.681 5.894-5.184 7.016-7.426.702-1.401 1.403-2.242 3.227-2.242 1.965 0 3.368 1.121 3.368 3.083 0 3.222-3.648 8.126-7.437 9.948 6.596 4.624 9.682 13.171 9.682 17.935 0 2.242-.982 3.783-3.367 3.783-2.807 0-3.228-2.242-3.368-3.083-1.263-6.025-3.648-15.973-13.471-17.234v16.814c0 2.242-1.544 3.363-3.368 3.363-1.123 0-3.368-.561-3.368-3.643V95.605c0-2.242 1.684-3.363 3.368-3.363 1.824 0 3.368 1.121 3.368 3.223v5.464h-.141zm45.747 21.158c-1.123-6.165-6.876-10.789-14.454-10.789-1.964 4.624-2.245 7.846-3.227 12.47-.14.701-.561 2.943-3.368 2.943-1.684 0-3.369-.981-3.369-3.083 0-5.184 5.895-22.558 11.368-29.704.842-.981 1.683-2.242 4.069-2.242 2.105 0 3.087.98 4.069 2.102 3.93 4.763 10.244 18.915 11.788 27.042.841 4.764-1.403 5.885-3.228 5.885-.982 0-2.806-.281-3.368-2.803l-.28-1.821zm-12.771-15.693c.984 0 5.473.28 9.543 3.363-1.123-3.083-2.806-6.866-5.753-10.93-.842 1.262-2.386 3.784-3.79 7.567z"/></g><defs><clipPath id="clip0_92_5945"><path fill="#fff" transform="translate(24 86)" d="M0 0h272v50H0z"/></clipPath></defs></svg>