<svg width="321" height="222" fill="none" xmlns="http://www.w3.org/2000/svg"><path fill-rule="evenodd" clip-rule="evenodd" d="M49.45 133.632l.011.009.011.009c2.77 2.321 5.83 4.04 9.174 5.067 3.227.99 6.783 1.446 10.608 1.446 3.837 0 7.494-.677 10.923-2.064l.03-.012.03-.013c3.478-1.463 6.389-3.584 8.587-6.4a16.168 16.168 0 002.908-5.728v4.95c0 2.25.814 4.354 2.479 6.037l.09.091.096.086c1.797 1.621 4.041 2.367 6.394 2.367 2.354 0 4.495-.804 6.231-2.287l.049-.041.047-.043c1.821-1.647 2.803-3.805 2.803-6.21v-11.595h13.722v11.595c0 2.327.895 4.46 2.641 6.127l.047.044.048.043c1.726 1.557 3.89 2.367 6.25 2.367 2.351 0 4.636-.716 6.466-2.367l.048-.043.047-.044c1.746-1.667 2.641-3.8 2.641-6.127V91.232c0-2.244-.782-4.42-2.57-6.127-1.819-1.737-4.143-2.453-6.488-2.453a9.286 9.286 0 00-6.281 2.397c-1.875 1.625-2.849 3.793-2.849 6.183v11.389h-13.722V91.232c0-2.31-.887-4.454-2.688-6.102-1.701-1.603-3.877-2.478-6.299-2.478-2.407 0-4.704.775-6.513 2.478-1.802 1.648-2.689 3.792-2.689 6.102v25.033c-.414-1.635-1.064-3.169-2.003-4.555-1.802-2.704-4.42-4.677-7.568-6.016-2.946-1.317-6.647-2.287-10.944-3.004-3.425-.604-5.43-1.301-6.435-1.879a1.182 1.182 0 01-.213-.16.246.246 0 01-.05-.06c-.004-.008-.078-.136-.078-.507a.74.74 0 01.017-.18.102.102 0 01.012-.03.474.474 0 01.075-.09c.054-.055.152-.14.316-.246l.012-.007.012-.008c.622-.408 1.926-.877 4.44-.877 1.043 0 2.45.246 4.289.933l.055.02.057.02c1.985.686 3.217 1.352 3.92 1.894l.064.05.066.047a8 8 0 004.702 1.496 8.737 8.737 0 006.13-2.453l.046-.045.045-.045c1.554-1.571 2.478-3.566 2.478-5.831 0-3.002-1.596-5.373-3.776-7.041-2.284-1.817-5.024-3.186-8.104-4.185-3.153-1.038-6.488-1.54-9.971-1.54-3.9 0-7.571.665-10.945 2.072-3.443 1.39-6.295 3.506-8.404 6.367-2.196 2.93-3.221 6.338-3.221 10.023 0 4.954 1.7 9.325 5.4 12.616 3.562 3.168 8.52 4.927 14.268 5.73 3.971.567 6.218 1.346 7.293 2.013l.034.022.035.02c.424.253.557.442.6.513.035.058.104.194.111.509-.07.082-.27.284-.74.558l-.021.013-.022.013c-1.058.631-2.476 1.047-4.46 1.047-2.064 0-3.62-.286-4.779-.722-1.27-.479-2.727-1.305-4.366-2.596l-.027-.021-.027-.021a8.659 8.659 0 00-5.319-1.786c-2.438 0-4.6.924-6.247 2.566-1.606 1.554-2.524 3.555-2.524 5.808 0 2.88 1.47 5.211 3.485 6.922zm-1.644-6.922c0 2.259 1.14 4.142 2.867 5.608l.014.011c2.6 2.179 5.442 3.769 8.522 4.714 3.01.924 6.37 1.362 10.045 1.362 3.605 0 7.016-.635 10.204-1.925l.019-.007.018-.007c3.217-1.354 5.864-3.294 7.853-5.844 2.1-2.675 3.138-5.775 3.138-9.196 0-3.371-.68-6.371-2.307-8.767-1.58-2.373-3.898-4.142-6.782-5.366-2.747-1.229-6.28-2.168-10.506-2.873-3.517-.619-5.792-1.368-7.082-2.116-.824-.499-1.209-1.121-1.209-2.22 0-.783.288-1.393 1.23-2.002l.014-.009c1.044-.684 2.765-1.185 5.482-1.185 1.334 0 2.974.313 4.959 1.054l.033.013.034.011c2.091.723 3.53 1.47 4.45 2.18l.039.029.04.029a6.1 6.1 0 003.597 1.145c1.87 0 3.52-.692 4.827-1.94l.028-.026.027-.027c1.258-1.272 1.976-2.844 1.976-4.624 0-2.352-1.237-4.26-3.1-5.68-2.08-1.657-4.615-2.936-7.535-3.883-2.947-.97-6.078-1.446-9.375-1.446-3.681 0-7.102.628-10.218 1.93-3.158 1.273-5.732 3.192-7.63 5.769-1.95 2.6-2.881 5.642-2.881 9.006 0 4.546 1.544 8.422 4.814 11.33 3.186 2.834 7.735 4.502 13.282 5.277 4.05.578 6.616 1.403 8.027 2.279l.02.012.022.013c1.156.69 1.576 1.47 1.576 2.568 0 .499-.201 1.176-1.622 2.003l-.013.008-.013.007c-1.402.837-3.173 1.315-5.436 1.315-2.236 0-4.032-.309-5.455-.845-1.49-.562-3.112-1.496-4.862-2.875l-.016-.013-.017-.012a6.762 6.762 0 00-4.168-1.402c-1.923 0-3.613.72-4.927 2.035-1.289 1.243-2.003 2.809-2.003 4.582zm90.025 9.122l.029-.025.028-.027c1.392-1.33 2.102-3.012 2.102-4.884V91.232c0-1.84-.632-3.549-2.031-4.884-1.417-1.353-3.243-1.939-5.186-1.939-1.927 0-3.642.685-5.033 1.933-1.49 1.286-2.257 2.98-2.257 4.89v13.147H108.08V91.232c0-1.861-.705-3.542-2.13-4.841-1.366-1.291-3.084-1.982-5.016-1.982-1.98 0-3.8.63-5.23 1.981-1.426 1.3-2.13 2.98-2.13 4.842v39.664c0 1.826.65 3.491 1.975 4.83l.054.055.057.051c1.424 1.284 3.201 1.887 5.13 1.887a7.559 7.559 0 005.004-1.839l.029-.025.029-.025c1.457-1.318 2.228-3.015 2.228-4.934v-13.352h17.403v13.352c0 1.872.71 3.554 2.103 4.884l.028.027.028.025c1.381 1.245 3.092 1.887 4.987 1.887 1.947 0 3.759-.585 5.202-1.887zm107.123-22.052l2.973-6.712 3.034 6.712h-6.007zm2.778-1.758l.213-.48.217.48h-.43z" fill="#3B3B46"/><path fill-rule="evenodd" clip-rule="evenodd" d="M187.942 85.13c-1.204 1.102-1.999 2.425-2.394 3.872-.384-1.494-1.198-2.866-2.479-3.986-1.737-1.612-3.935-2.364-6.249-2.364h-24.076c-2.437 0-4.671.855-6.417 2.522-1.752 1.673-2.57 3.808-2.57 6.058v39.664c0 2.25.814 4.354 2.478 6.037l.091.091.095.086c1.763 1.59 3.967 2.367 6.323 2.367h24.076c2.253 0 4.437-.691 6.197-2.25 1.299-1.119 2.148-2.502 2.539-4.03.373 1.372 1.095 2.643 2.176 3.736l.091.091.095.086c1.763 1.59 3.967 2.367 6.323 2.367h23.358c2.127 0 4.192-.616 5.897-1.997l.034.034.06.058c1.779 1.699 4.06 2.248 6.129 2.248a8.618 8.618 0 004.903-1.505l.024-.016.023-.016a8.763 8.763 0 003.131-3.966l2.507-5.614h15.344l2.527 5.614.008.018c.639 1.44 1.602 2.763 2.972 3.791l.06.045.062.043a8.79 8.79 0 005.093 1.606c2.303 0 4.346-.845 5.957-2.293l.051-.045.049-.047c1.752-1.673 2.57-3.808 2.57-6.058 0-1.165-.275-2.255-.666-3.225l-.025-.062-17.674-40.199a8.284 8.284 0 00-3.345-4.002 8.78 8.78 0 00-4.725-1.509c-1.92-.137-3.793.316-5.426 1.388-1.586 1.04-2.693 2.468-3.377 4.083l-16.127 36.981c-1.702-1.48-3.816-2.173-6.036-2.173h-14.156V91.232c0-2.31-.887-4.454-2.688-6.102-1.701-1.603-3.877-2.478-6.299-2.478-2.407 0-4.705.775-6.514 2.478zm-5.37 25.522c0-2.291-.876-4.451-2.737-6.079-1.737-1.611-3.935-2.364-6.249-2.364h-11.64v-2.877h14.874c2.19 0 4.397-.603 6.208-2.128l.055-.047.054-.049a7.942 7.942 0 002.117-3.02v34.207c-.453-1.123-1.169-2.126-2.089-2.978-1.72-1.689-3.947-2.521-6.345-2.521h-14.874v-3.906h11.64c2.19 0 4.397-.604 6.207-2.129l.056-.047.054-.048c1.809-1.626 2.669-3.754 2.669-6.014zm-34.998 25.074l.054.055.057.051c1.403 1.265 3.147 1.887 5.058 1.887h24.077c1.85 0 3.572-.561 4.954-1.789 1.458-1.251 2.191-2.908 2.191-4.759 0-1.812-.769-3.385-2.102-4.611-1.357-1.343-3.107-2.006-5.043-2.006h-16.715v-7.422h13.481c1.831 0 3.577-.499 4.989-1.689l.033-.028.033-.029c1.411-1.268 2.09-2.921 2.09-4.734 0-1.849-.698-3.531-2.16-4.8-1.368-1.278-3.099-1.885-4.985-1.885h-13.481v-6.393h16.715c1.831 0 3.577-.499 4.989-1.689l.033-.028.033-.029c1.411-1.268 2.09-2.92 2.09-4.733 0-1.85-.698-3.531-2.159-4.8-1.369-1.279-3.1-1.886-4.986-1.886h-24.077c-1.96 0-3.722.678-5.114 2.008-1.378 1.315-2.031 2.99-2.031 4.815v39.664c0 1.826.651 3.491 1.976 4.83zm41.497 0l.054.055.057.051c1.403 1.265 3.147 1.887 5.058 1.887h23.358c1.863 0 3.597-.569 4.983-1.815l.004-.003a6.839 6.839 0 001.118-1.287 5.647 5.647 0 001.118 1.645l.034.035.036.035c1.336 1.275 3.088 1.733 4.828 1.733 1.397 0 2.7-.405 3.833-1.177l.014-.01.014-.01a6.997 6.997 0 002.513-3.206l2.997-6.714h17.774l3.011 6.69.004.009c.536 1.212 1.325 2.281 2.416 3.1l.036.027.037.026a6.892 6.892 0 004.005 1.265c1.803 0 3.403-.653 4.695-1.815l.031-.027.029-.028c1.377-1.315 2.031-2.99 2.031-4.816 0-.9-.213-1.773-.544-2.593l-.015-.037-17.675-40.202a6.515 6.515 0 00-2.669-3.2 6.884 6.884 0 00-3.784-1.208c-1.534-.119-3.004.236-4.29 1.08-1.259.827-2.154 1.967-2.717 3.303l-17.343 39.77a6.224 6.224 0 00-1.538-1.988c-1.368-1.278-3.1-1.884-4.986-1.884h-15.996V91.232c0-1.861-.705-3.542-2.131-4.841-1.365-1.291-3.083-1.982-5.015-1.982-1.981 0-3.8.63-5.231 1.981-1.426 1.3-2.13 2.98-2.13 4.842v39.664c0 1.826.651 3.491 1.976 4.83z" fill="#3B3B46"/><path fill-rule="evenodd" clip-rule="evenodd" d="M51.9 131.008l-.004-.004c-1.438-1.221-2.249-2.657-2.249-4.294 0-1.293.51-2.425 1.482-3.357.98-.988 2.2-1.502 3.607-1.502a4.87 4.87 0 013.019 1.016l.01.008c1.861 1.466 3.648 2.51 5.358 3.155 1.688.636 3.725.968 6.13.968 2.544 0 4.668-.541 6.412-1.582l.009-.005c1.783-1.039 2.505-2.21 2.505-3.505 0-1.738-.779-3.065-2.442-4.058l-.014-.008c-1.748-1.085-4.63-1.955-8.76-2.544-5.347-.746-9.486-2.324-12.297-4.824-2.84-2.525-4.228-5.906-4.228-10.045 0-3.042.837-5.718 2.541-7.988 1.687-2.292 3.982-4.015 6.856-5.171 2.86-1.197 6.028-1.787 9.49-1.787 3.112 0 6.04.448 8.78 1.351 2.761.895 5.092 2.084 6.967 3.582 1.547 1.174 2.423 2.618 2.423 4.318 0 1.294-.51 2.444-1.473 3.417l-.01.009-.008.009c-.979.934-2.168 1.424-3.526 1.424a4.202 4.202 0 01-2.493-.794l-.013-.01-.013-.009c-1.137-.877-2.783-1.706-4.981-2.465l-.023-.008c-2.13-.796-4.003-1.175-5.63-1.175-2.917 0-5.056.533-6.522 1.493l-.005.003c-1.4.905-2.039 2.038-2.039 3.458 0 1.678.687 2.876 2.08 3.714 1.58.92 4.126 1.719 7.727 2.352 4.155.692 7.521 1.6 10.066 2.742 2.622 1.109 4.641 2.675 5.998 4.717 1.373 2.018 2.015 4.65 2.015 7.817 0 3.061-.92 5.787-2.77 8.143-1.781 2.283-4.165 4.044-7.123 5.288l-.012.005c-2.947 1.192-6.112 1.785-9.486 1.785-3.525 0-6.69-.42-9.481-1.277-2.816-.864-5.44-2.324-7.872-4.362zm84.677 3.538l-.01.008c-1.056.953-2.395 1.407-3.938 1.407-1.43 0-2.687-.473-3.722-1.407l-.01-.008-.009-.009c-1.039-.992-1.564-2.224-1.564-3.641v-15.11h-21.085v15.11c0 1.433-.561 2.669-1.653 3.657l-.01.009-.009.008a5.669 5.669 0 01-3.777 1.391c-1.505 0-2.816-.46-3.866-1.407l-.019-.017-.018-.018c-.984-.996-1.473-2.221-1.473-3.623V91.232c0-1.413.522-2.63 1.573-3.581 1.051-1 2.393-1.484 3.947-1.484 1.443 0 2.702.505 3.732 1.484 1.051.952 1.573 2.168 1.573 3.581v14.904h21.085V91.232c0-1.43.559-2.65 1.663-3.597 1.07-.965 2.345-1.468 3.786-1.468 1.542 0 2.869.454 3.885 1.424 1.009.964 1.491 2.204 1.491 3.641v39.664c0 1.417-.524 2.649-1.563 3.641l-.009.009zm12.353-.009l-.018-.018c-.985-.996-1.473-2.221-1.473-3.623V91.232c0-1.402.489-2.615 1.491-3.572 1.039-.992 2.329-1.493 3.813-1.493h24.077c1.459 0 2.723.461 3.722 1.406 1.062.911 1.583 2.113 1.583 3.522 0 1.367-.498 2.543-1.512 3.453l-.011.01-.011.01c-1.013.853-2.298 1.249-3.771 1.249h-18.556v9.908h15.322c1.458 0 2.723.461 3.722 1.405 1.062.912 1.582 2.113 1.582 3.522 0 1.367-.498 2.543-1.511 3.454l-.011.01-.011.009c-1.014.854-2.298 1.249-3.771 1.249h-15.322v10.938h18.556c1.476 0 2.746.495 3.741 1.492 1.019.926 1.564 2.061 1.564 3.367 0 1.379-.533 2.557-1.593 3.462-1.004.897-2.265 1.328-3.712 1.328h-24.077c-1.467 0-2.751-.466-3.794-1.407l-.019-.017zm72.39.087c-1.006.903-2.27 1.337-3.722 1.337H194.24c-1.467 0-2.751-.466-3.794-1.407l-.019-.017-.018-.018c-.985-.996-1.473-2.221-1.473-3.623V91.232c0-1.413.522-2.63 1.573-3.581 1.051-1 2.393-1.484 3.947-1.484 1.443 0 2.702.505 3.732 1.484 1.05.951 1.573 2.168 1.573 3.581v34.942h17.837c1.459 0 2.723.462 3.722 1.406 1.063.911 1.583 2.113 1.583 3.522 0 1.383-.535 2.576-1.583 3.522zm49.572-5.222l.005.012c.27.67.421 1.327.421 1.962 0 1.402-.489 2.616-1.491 3.573l-.01.009-.01.009c-.974.875-2.13 1.337-3.434 1.337a4.994 4.994 0 01-2.916-.925l-.013-.009-.012-.009c-.811-.608-1.425-1.422-1.859-2.405l-.001-.003-3.496-7.766h-20.202l-3.491 7.818c-.392 1.007-1.02 1.833-1.892 2.443l-.009.006a4.815 4.815 0 01-2.763.85c-1.411 0-2.633-.366-3.526-1.218l-.012-.012-.011-.012c-.819-.841-1.181-1.945-1.181-3.205 0-.51.089-1.03.255-1.557l.013-.043 17.909-41.067.003-.006c.443-1.055 1.125-1.908 2.056-2.52.94-.616 2.005-.872 3.154-.771a4.99 4.99 0 012.843.906c.932.564 1.595 1.376 1.992 2.395l17.678 40.208zm-22.981-26.807l-5.735 12.943h11.585l-5.85-12.943z" fill="#3B3B46"/></svg>