<svg width="321" height="222" fill="none" xmlns="http://www.w3.org/2000/svg"><path d="M33.76 120.035l5.32-19.388h4.402l-7.52 25.788H31.56l-5.32-19.764-5.318 19.764H16.52L9 100.459h4.402l5.319 19.388 5.319-19.388h4.402l5.319 19.576zm36.684-6.588c0 7.529-5.503 13.553-12.656 13.553-7.153 0-12.655-6.024-12.655-13.553 0-7.529 5.502-13.741 12.655-13.741 7.337.188 12.656 6.4 12.656 13.741zm-4.035 0c0-5.459-3.852-9.788-8.438-9.788-4.768.188-8.62 4.517-8.62 9.788s3.852 9.6 8.437 9.6c4.769 0 8.62-4.141 8.62-9.6zm42.552 12.988h-4.219v-16.753c0-3.388-2.017-5.835-5.502-5.835-3.302 0-5.503 2.447-5.503 5.835v16.753h-4.035v-16.753c0-3.388-2.2-5.835-5.502-5.835-3.302 0-5.503 2.447-5.503 5.835v16.753H74.48v-16.564c0-5.647 4.035-9.977 9.72-9.977 3.486 0 6.053 1.694 7.52 4.33 1.468-2.636 4.036-4.33 7.52-4.33 5.687 0 9.722 4.33 9.722 9.977v16.564zm29.163-8.094c-1.835 5.459-6.053 8.659-11.922 8.659-7.154 0-12.839-5.835-12.839-13.553 0-7.529 5.685-13.553 12.655-13.553 6.42 0 12.839 5.459 12.656 14.682h-21.093c.55 5.459 4.585 8.471 8.804 8.471 3.485 0 6.053-1.694 7.52-4.706h4.219zm-4.036-7.529c-1.1-4.141-4.402-6.965-8.07-6.965-3.485 0-7.153 2.635-8.253 6.965h16.323zm13.206 15.623h-4.035v-15.811c0-6.589 4.585-10.73 10.455-10.73 6.052 0 10.454 4.33 10.454 10.73v15.811h-4.035v-16c0-3.953-2.568-6.588-6.419-6.588-3.852 0-6.42 2.824-6.42 6.588v16zm41.085.565c-6.052 0-10.638-3.388-11.188-8.847h4.218c.551 3.012 3.485 4.894 6.97 4.894 3.852 0 6.236-1.882 6.236-4.141 0-1.882-.734-3.2-6.786-3.953-6.054-.941-9.904-2.447-9.904-7.341 0-3.765 3.117-7.718 9.904-7.718 5.869 0 9.721 3.012 10.271 8.094h-4.219c-.55-2.823-2.935-4.141-6.052-4.141-3.302 0-5.685 1.694-5.685 3.577 0 1.882 1.466 2.447 6.418 3.388 5.503.941 10.271 2.07 10.271 7.906-.183 5.082-4.402 8.282-10.454 8.282zm38.884-8.659C225.429 123.8 221.21 127 215.341 127c-7.153 0-12.839-5.835-12.839-13.553 0-7.529 5.686-13.553 12.656-13.553 6.602 0 12.838 5.459 12.655 14.682h-21.092c.55 5.459 4.585 8.471 8.804 8.471 3.484 0 6.052-1.694 7.519-4.706h4.219zm-4.036-7.529c-1.1-4.141-4.402-6.965-8.069-6.965-3.485 0-7.154 2.635-8.254 6.965h16.323zM243.954 127c-6.971 0-12.656-6.024-12.656-13.553 0-7.529 5.685-13.553 12.656-13.553 5.685 0 10.088 3.388 11.738 8.659h-4.402c-1.467-2.824-4.036-4.706-7.336-4.706-4.585 0-8.437 4.329-8.437 9.788 0 5.271 3.852 9.6 8.437 9.6 3.3 0 5.869-1.882 7.336-4.706h4.402c-1.65 5.083-6.053 8.471-11.738 8.471zm27.144-26.918v3.953c-4.769-.376-7.886 1.883-7.886 6.965v15.435h-4.035V111c-.183-7.906 5.319-11.859 11.921-10.918zm25.496 18.259C294.759 123.8 290.54 127 284.671 127c-7.152 0-12.838-5.835-12.838-13.553 0-7.529 5.686-13.553 12.655-13.553 6.42 0 12.839 5.459 12.656 14.682h-21.277c.55 5.459 4.585 8.471 8.804 8.471 3.485 0 6.052-1.694 7.521-4.706h4.402zm-3.852-7.529c-1.1-4.141-4.402-6.965-8.071-6.965-3.485 0-7.152 2.635-8.254 6.965h16.325zM312 126.435c-5.869.753-9.904-2.823-9.904-9.411V95h4.035v5.459h5.686v4.141h-5.686v12.424c0 4.517 2.75 5.647 5.869 5.458v3.953zM168.754 104.6V95h4.035v9.6h-4.035z" fill="#3B3B46"/></svg>