<svg width="321" height="222" fill="none" xmlns="http://www.w3.org/2000/svg"><path fill-rule="evenodd" clip-rule="evenodd" d="M278.309 104.713l.29 2.799h-.293l.003-2.799zm-2.8-16.087l-4.027-.006.004-.015-9.783.01c-.199.948-.416 1.9-.584 2.852-.586 3.575-1.111 7.154-1.911 10.692l-.035-13.52-9.428-.009.051 18.95-.414.007-.961 2.603-1.02-.922-1.525-.881c-1.473-.58-2.894-.786-4.464-.872l-.036-18.894-7.86.012v-.012l-6.537.027c-.993.092-1.99.137-2.966.343-.998.226-1.879.548-2.796.99l-.887.573-.817.758-.677.84-.562.9-.477.953a25.03 25.03 0 00-.98 2.875 15.726 15.726 0 00-1.212-3.492 12.157 12.157 0 00-1.134-1.687l-.786-.776a11.44 11.44 0 00-1.48-1.001c-.867-.414-1.7-.677-2.641-.856-.779-.143-1.56-.206-2.355-.255l-9.478-.2.139 19.021-.412.008-.239.657-.124-19.672-9.432.009.043 6.768a15.502 15.502 0 00-.772-1.954 12.021 12.021 0 00-1.125-1.694l-.81-.808-.908-.672-1.068-.566a12.033 12.033 0 00-2.658-.704c-1.498-.223-3.003-.203-4.517-.205l-4.259-.301v.126l-15.356.009.001 3.381c-.78-1.046-1.956-1.852-3.179-2.38-1.611-.692-3.338-.918-5.091-.992l-8.37-.025-.01 3.647-1.335-3.648-15.939.016.005 4.44-1.597-4.437-15.938-.072-.09 18.884-.938-.003-3.433 9.084 4.328.019-.075 15.126 8.642.022c1.524-.064 2.987-.265 4.415-.787.865-.324 1.608-.749 2.357-1.277.953-.813 1.771-1.696 2.365-2.782l.005 4.887 17.124-.013v.001l9.429.019.045-15.245a15.866 15.866 0 003.259-.462l-.217.585 4.252-.005.006 15.124c5.781-.003 11.565-.009 17.343.007 2.45 0 5.004.126 7.408-.31a10.152 10.152 0 002.597-.868 11.47 11.47 0 001.474-1.017l.763-.769.424-.525.648-.993c.362-.727.759-1.479.982-2.255l.042 6.729 9.431-.011-.094-15.017.664-.002.107 15.126c3.145-.061 6.287-.08 9.429-.102l-.002-.128c1.551-.065 3.069-.337 4.498-.914a11.266 11.266 0 001.512-.889l.482-.39.764-.774c.964-1.208 1.669-2.529 2.096-3.991l.262.943.731 1.727.678 1.076.732.843c.451.418.883.766 1.394 1.113l1.042.548c.808.316 1.609.533 2.462.669.868.138 1.739.192 2.614.221l6.935-.013v-.036l6.997-.026c1.218-.059 2.409-.198 3.575-.535a15.084 15.084 0 001.584-.59l.957-.525 1.211-.951c.734-.754 1.367-1.525 1.852-2.446l.013 5.046 9.425.016-.025-9.522.012.011-.003-.803c.622 2.597 1.059 5.234 1.521 7.864l.431 2.449 7.625-.018v.021h9.435l.014-15.12 1.242.001 1.564 15.103 9.676.007-3.252-31.151c-.34-2.384-.866-4.731-1.89-6.942-.33-.697-.739-1.314-1.202-1.937a10.054 10.054 0 00-1.514-1.412 10.6 10.6 0 00-2.527-1.103c-1.273-.354-2.513-.49-3.834-.544l-1.05-.007zm-6.63 13.104l-.008 5.775h-1.231l-1.748 4.675-.138-.256c.47-.895.832-1.821 1.16-2.766.823-2.435 1.435-4.924 1.965-7.428zm-1.263 14.87l1.248.001-.005 4.757a62.972 62.972 0 00-1.243-4.758zm-90.242 6.019l-.811.034-3.781-.012-.696-.11-6.198.004-.004-5.922 11.095.092c.411.051.921.041 1.259.296.779.858.844 2.286.8 3.365-.085.655-.198 1.512-.696 2.019-.255.171-.665.197-.968.234zm-11.604-15.204l-.007-9.584 9.769-.007-.007-.018 2.633.181c.343.443.496 1.168.612 1.718l.168 4.594c-.07.701-.219 1.369-.42 2.046-.084.27-.242.714-.441.931-.359.139-.707.165-1.094.203l-11.213-.064zm22.056 7.056a11.72 11.72 0 00-1.206-2.561c.492-.959.898-1.945 1.171-2.977l.035 5.538zm27.737-2.941l.012.575-.17-.261.158-.314zm16.45 11.243l-4.292.009c-.364-.027-.7-.044-1.055-.128-.569-1.32-.754-2.728-.992-4.126l-.481-6.228.032-5.471 1.191-8.337.216-.494c.389-.142.941-.139 1.327-.157l4.001-.013.021 9.686h-.936l-3.374 9.111 4.33-.006.012 6.154zm-24.329-21.772c.18 1.73.095 3.571-.391 5.248l-.053-7.452c.256.698.365 1.473.444 2.204zm.21 18.781a8.137 8.137 0 01-.195 1.581c-.072.214-.155.539-.293.725l-.033-4.66c.374.775.477 1.505.521 2.354zm33.642 1.699l-.095.204-.01-4.567c.656 1.332.564 2.987.105 4.363zm-127.462-4.379c.649 1.339.546 2.993.077 4.369l-.099.207.022-4.576zm25.496-19.285l-.026 9.667-1.485-.085-6.2.007-.012-9.582 7.723-.007zm-17.249.024l.01 9.676-.863.003-.826 2.227c-.969-.913-2.285-1.537-3.598-1.844a15.912 15.912 0 00-2.92-.403l.046-9.692 8.151.033zm17.184 24.679l-7.519.01-.006-5.924 7.541-.005-.016 5.919zm9.477-15.989l.018-7.58c.105.302.144.676.193.988.094.741.132 1.471.142 2.213.002 1.468-.023 2.94-.353 4.379z" fill="#3B3B46"/><path fill-rule="evenodd" clip-rule="evenodd" d="M277.255 96.048l.574.172c.218.095.424.18.601.342.165.186.279.38.399.6.215.453.373.907.518 1.388.468 1.712.707 3.473.906 5.232l.584 5.658-4.53-.005.015-13.511c.319.021.623.067.933.124zm-1.735-5.496l-4.587-.007-.023 18.884-1.822.001-1.959 5.244 3.778.002-.017 15.129h5.397l.014-15.123 5.077.006 1.562 15.103 5.616.003-3.005-28.87a31.34 31.34 0 00-.774-3.888l-.378-1.207a18.935 18.935 0 00-.688-1.614l-.266-.48-.286-.446-.309-.416-.334-.38-.361-.34-.391-.3-.407-.243-.837-.368a11.607 11.607 0 00-1.855-.49 17.211 17.211 0 00-2.137-.194l-1.008-.006zm-18.239 27.173l-.011-2.985.587.038.37.098.328.153.301.211.281.272.264.331.245.385c.174.332.33.655.476 1 .747 1.896 1.207 3.891 1.621 5.877.452 2.222.824 4.46 1.217 6.693l5.581-.013-.465-2.451c-.642-3.341-1.334-6.669-2.286-9.94a40.74 40.74 0 00-.948-2.785l-.413-.96c-.283-.578-.576-1.171-.983-1.679.936-1.4 1.472-3.022 1.974-4.598.387-1.3.728-2.6 1.044-3.913.605-2.614 1.116-5.238 1.597-7.871.23-1.266.451-2.533.704-3.797l.272-1.257-5.65.006c-.086.412-.173.824-.244 1.235-.36 2.204-.692 4.406-1.085 6.605-.459 2.514-.963 5.025-1.717 7.479-.163.494-.338.979-.531 1.467l-.241.521-.264.457-.288.379-.316.295-.352.212-.417.138-.676.06-.005-2.178h-.006l-.043-16.647-5.389-.005.05 18.915-.998.017-1.934 5.241 2.947.003.04 15.057 5.388.009-.033-12.082.008.007zm-78.359-2.637l.442.211.401.304.353.388.315.483.269.565.215.633.158.682.096.714.035.728-.029.726-.092.705-.154.667-.21.611-.265.539-.31.45-.346.353-.402.27a4.607 4.607 0 01-.731.265 9.8 9.8 0 01-1.059.163l-.875.034-3.984-.012-.689 1.855-.002-1.965-8.037.006-.007-9.774 6.348-.005v-5.348l-6.46.006-.009-13.435 8.937-.006-1.953-5.349-12.474.007.01 18.881-1.452.001-1.951 5.253 3.406-.003.007 15.124 12.378-.007-.002.004c2.239.012 4.477.016 6.711.009l2.184-.109c.477-.061.939-.136 1.405-.233l.844-.24.41-.162.393-.19.375-.219.357-.246.338-.272.614-.62.299-.37.533-.819.451-.905.37-.976.292-1.037.292-1.635c.06-.568.099-1.126.118-1.694a23.799 23.799 0 00-.059-1.712l-.14-1.128a21.031 21.031 0 00-.369-1.64l-.354-1.041-.445-.982-.26-.465-.284-.444-.531-.685.262-.377.305-.512.278-.543.253-.571.434-1.217.345-1.301.258-1.363c.1-.71.177-1.412.234-2.123a38.71 38.71 0 00.054-2.152 39.088 39.088 0 00-.12-2.113l-.176-1.352a26.443 26.443 0 00-.407-1.896l-.367-1.147-.214-.532-.237-.5-.259-.469-.284-.433-.307-.39-.624-.623-.696-.516-.376-.216-.391-.19-.407-.16-.849-.24a18.635 18.635 0 00-1.403-.227l-1.049-.08c-.895-.031-1.796-.026-2.694-.027l-2.163-.153.005 5.307 2.947-.001c.553.01 1.075.043 1.617.125l.607.15c.236.084.42.16.628.292l.167.147.344.442.325.63.282.785c.126.466.227.925.314 1.401.076.522.132 1.042.172 1.571.025.547.034 1.091.025 1.642a25.925 25.925 0 01-.124 1.617l-.163 1.015c-.1.458-.214.9-.358 1.351l-.305.743-.341.575-.346.381-.382.24-.517.199-.637.141-.76.076-3.479.083.009 5.272 3.475.022 1.096.136.578.172zm52.656-24.533l-4.422.018-2.136.198c-.429.08-.845.176-1.267.296-.502.16-.961.345-1.432.578l-.633.41-.584.542-.515.64-.454.726-.403.806-.355.879-.315.947-.276 1.008-.241 1.067-.208 1.116-.178 1.162-.269 2.431-.166 2.533a124.7 124.7 0 00-.083 3.87c.009 1.264.037 2.529.079 3.796.055 1.179.122 2.357.204 3.536.131 1.612.292 3.214.509 4.821.103.658.214 1.311.351 1.966l.308 1.107.382.986.221.449.242.419.265.39.586.676.321.297.339.271.359.244.375.216.393.188.41.161.845.237c.471.094.933.167 1.407.224.538.049 1.071.079 1.608.097l4.875-.009-.017-5.154-3.985.008-.805-.061c-.491-.075-.935-.165-1.388-.373l-.17-.127-.196-.24-.226-.393-.229-.531-.221-.651-.208-.755-.191-.85-.329-1.938-.253-2.192-.174-2.372a114.116 114.116 0 01-.109-3.74c.002-1.252.027-2.498.071-3.747l.151-2.386.232-2.214.312-1.968.184-.867.203-.776.218-.673.228-.555.229-.423.208-.273.192-.16c.232-.127.447-.214.695-.299a7.8 7.8 0 011.003-.188l.833-.041 3.622-.012-.022-5.348zm-25.768 5.324c.395.02.772.054 1.159.11l.605.147c.236.085.421.162.629.293l.169.146.347.44.33.628.286.784c.129.465.234.923.324 1.399.079.522.138 1.041.182 1.569.028.547.04 1.091.034 1.642a25.85 25.85 0 01-.113 1.616l-.158 1.017a15.21 15.21 0 01-.35 1.354l-.301.745-.338.577-.343.383c-.82.599-1.873.658-2.872.68l-.098-13.535.508.005zm.208 18.891c.378.024.728.063 1.097.129.293.075.55.156.825.273l.198.105.403.302.355.386.319.482.272.564.218.632.162.681.101.713.038.728-.025.726-.088.705-.15.668-.208.612-.262.541-.307.453-.345.355-.4.272c-.833.397-1.791.468-2.713.474l-.07-9.808.58.007zm-.476 15.054v-.102c.657-.005 1.31-.012 1.964-.04a24.446 24.446 0 001.537-.151c.458-.078.896-.17 1.341-.285l.416-.135.406-.164.39-.192.375-.22.355-.247.337-.274.615-.623.297-.372.529-.82.445-.903.364-.973a20.02 20.02 0 00.399-1.564c.095-.552.17-1.096.224-1.649.036-.57.052-1.129.05-1.696a24.53 24.53 0 00-.131-1.693 21.007 21.007 0 00-.316-1.652l-.316-1.057-.407-1.005-.499-.94-.288-.442-.534-.679.259-.378.301-.514.276-.545.474-1.169.381-1.264.293-1.336.208-1.389c.074-.717.127-1.425.16-2.141.014-.718.008-1.429-.017-2.146a36.19 36.19 0 00-.191-2.084 29.773 29.773 0 00-.36-1.952l-.336-1.195-.415-1.089-.24-.5-.261-.466-.287-.431-.309-.388-.625-.617-.34-.27-.359-.243-.377-.215-.393-.187-.827-.289c-.447-.11-.887-.196-1.346-.267a24.08 24.08 0 00-1.54-.133l-1.123-.02-6.234-.135.139 18.936-.997.02-1.912 5.249 2.947-.009.106 15.093c1.798-.041 3.597-.037 5.392-.048zm33.929-15.264c.914 0 1.851.071 2.681.453l.399.268.347.354.312.454.267.544.213.619.156.676.095.715.032.734-.032.739-.094.723-.155.691-.213.638-.267.572-.312.485-.35.389-.4.302a4.622 4.622 0 01-.717.308 7.958 7.958 0 01-1.003.189c-.311.023-.623.04-.937.04l-.022-9.893zm-5.403-5.122l-1.528.001-1.944 5.256 3.483-.006.032 15.124 6.301-.015a18.9 18.9 0 001.8-.142c.443-.07.87-.155 1.299-.261.506-.143.975-.309 1.449-.521l.768-.422.469-.336.435-.376.402-.413.367-.444.336-.474.304-.499.274-.524.245-.544.404-1.141.298-1.198.193-1.237.093-1.257-.004-1.261-.102-1.246-.195-1.214-.29-1.166-.384-1.1-.229-.519-.254-.496-.278-.472-.306-.443-.329-.41-.619-.619-.339-.271-.358-.245-.377-.218-.392-.189-.408-.161-.849-.238a19.243 19.243 0 00-1.403-.227 28.664 28.664 0 00-1.608-.1l-1.364-.006-.035-18.859-5.398.009.041 18.88zm-121.317 5.113c.394.024.769.061 1.156.122.301.065.572.14.857.245l.194.09.396.269.345.356.308.456.263.546.209.62.152.676.089.715.028.735-.038.738-.098.723-.16.69-.217.638-.272.57-.316.484-.352.387-.402.299a4.45 4.45 0 01-.719.302l-.64.139c-.434.052-.862.081-1.304.08l.047-9.891.474.011zm-5.842-5.169l-1.529-.006-1.979 5.24 3.483.016-.074 15.125 6.305.022c.606-.016 1.2-.057 1.8-.13a13.807 13.807 0 001.607-.337c.396-.124.77-.262 1.145-.425l.772-.417.472-.334.438-.373.405-.411.37-.442.339-.472.308-.498.278-.521.248-.543.412-1.139.306-1.196.201-1.236.102-1.257.003-1.26-.093-1.247-.187-1.216-.282-1.168-.148-.468 2.934-.001.017 15.123 13.639-.011-.005-5.352-8.038.011-.011-9.777 8.038-.007v-.003l3.529.008-.041 15.124 5.392.011.044-15.218c.643.002 1.282.001 1.921-.021a24.605 24.605 0 001.538-.141c.458-.074.896-.161 1.343-.272l.418-.131.408-.16.392-.189.377-.217.358-.244.34-.271.621-.62.285-.356.264-.391.242-.418.421-.928c.225-.634.413-1.26.552-1.913.178-.916.29-1.826.365-2.752.152-2.18.159-4.373-.074-6.545a23.757 23.757 0 00-.277-1.726 15.066 15.066 0 00-.535-1.849l-.272-.635-.306-.596-.341-.552-.378-.508-.415-.461-.452-.412-.488-.36-.513-.302a12.174 12.174 0 00-.833-.368 11.768 11.768 0 00-1.853-.492 17.115 17.115 0 00-2.135-.197l-6.305-.02-.049 18.882-1.755-.005-1.789 4.769-.007-4.871-8.145.009-.018-13.434 8.937-.008-1.955-5.347-12.476.013.021 18.879-1.453.005-1.708 4.61-.224-.518-.251-.498-.276-.474-.303-.444-.326-.412-.296-.323-.317-.3-.337-.273-.357-.248-.764-.409-.823-.298a16.324 16.324 0 00-1.343-.282 24.55 24.55 0 00-1.538-.15 58.289 58.289 0 00-1.92-.036l.064-13.513 9.032.037-1.926-5.355-12.477-.056-.089 18.882zm40.216.062l.034-13.53c.442.001.87.031 1.305.086.321.06.603.13.909.234l.457.224c.211.145.365.279.54.464l.31.449c.186.362.324.713.436 1.104.407 1.585.416 3.264.387 4.889-.039 1.242-.11 2.489-.419 3.704a6.902 6.902 0 01-.306.83l-.293.496-.318.353-.348.238c-.839.389-1.768.459-2.694.459zm42.683-18.885l.248 39.254 5.393-.006-.246-39.252-5.395.004z" fill="#3B3B46"/><path fill-rule="evenodd" clip-rule="evenodd" d="M275.5 110.205l.016-15.076.212.002c1.281.001 2.279.22 2.993.665.813.482 1.432 2.19 1.858 4.559.238 1.293.39 2.531.526 3.829l.62 6.027-6.225-.006zm.019-18.882l-2.607-.001-1.175-.004-.023 18.881-2.059.001-1.384 3.705 3.442.002-.018 15.128h3.786l.014-15.124 6.612.007 1.562 15.103 3.997.002-2.889-27.824a44.44 44.44 0 00-.205-1.356c-.639-3.703-1.767-6.608-3.613-7.562-1.236-.633-2.837-.955-4.817-.957l-.623-.001zm-24.082 18.928l-1.369 3.711 2.613.003.04 15.076h.014l.024-.001h.005l3.733-.008-.035-13.178.006.005-.007-1.889h.964c1.615-.004 2.546 1.042 3.177 2.366 1.468 3.072 2.422 9.174 3.038 12.69l3.936-.009c-.962-5.095-2.791-14.788-5.153-17.014 2.901-3.246 4.892-17.441 5.624-20.7l-3.777-.004-.222.003c-.309 1.382-1.511 11.003-3.258 15.72-.598 1.608-1.377 3.127-3.377 3.133l-.961.016-.005-2.141h-.007l-.042-16.698-3.779-.003.05 18.902-1.232.02zm-76.861 3.74l2.245.008c1.276 0 2.272.225 2.992.658 2.899 1.752 2.964 8.57-.004 10.125-.722.379-1.747.564-3.07.567l-.826-.002-2.597-.008-1.379 3.709c1.868.009 3.704.004 5.567.002 1.532.002 2.797-.14 3.791-.418a5.003 5.003 0 002.512-1.592c2.926-3.369 3.038-11.644-.509-15.003 3.54-3.951 3.405-15.18.473-18.542a5.054 5.054 0 00-2.517-1.588c-.997-.274-2.261-.411-3.794-.408l-1.586-.001-1.326-.094.004 3.707 1.325-.001h.825c1.323-.001 2.346.184 3.073.558 2.966 1.55 2.93 12.094.032 13.85-.719.439-1.713.663-2.99.664l-2.247.054.006 3.755zm56.199-22.664l-3.231.01c-1.98.009-3.58.33-4.812.971-5.928 3.072-4.355 26.217-3.162 31.426.346 1.477.854 2.601 1.538 3.379a5.02 5.02 0 002.52 1.581c1 .276 2.26.408 3.796.402l3.487-.01-.012-3.613-2.728.013c-1.325.003-2.346-.18-3.074-.553-3.482-1.81-3.636-27.002-.121-29.12.715-.443 1.714-.663 2.988-.669l2.827-.008-.016-3.809zm-26.285 3.784h.039l.826-.008c1.323-.008 2.348.17 3.071.545 2.981 1.534 3.005 12.076.119 13.85-.717.441-1.707.672-2.986.678l-.959.022-.11-15.087zm.137 18.887l.959-.006c1.278-.01 2.273.211 2.998.641 2.911 1.738 3.013 8.554.051 10.127-.715.382-1.739.571-3.06.581l-.826.008-.042-.001-.08-11.35zm-5.043-3.7l-1.353 3.716 2.612-.008.106 15.078.017-.001.023-.001h.004l3.74-.024-.001-.099.04-.001 1.588-.013c1.532-.009 2.795-.154 3.788-.437a5.068 5.068 0 002.506-1.605c2.903-3.384 2.967-11.568-.604-14.911 3.514-3.968 3.313-15.197.36-18.54a5.04 5.04 0 00-2.525-1.573c-.999-.273-2.264-.4-3.796-.39l-5.412-.118.139 18.902-1.232.025zm39.079 3.495l.828-.003c1.323-.002 2.347.182 3.069.557 2.968 1.542 2.935 8.468.041 10.21-.72.435-1.715.664-2.992.666l-.921.002-.025-11.432zm-3.83-22.466l.041 18.881-1.766.001-1.373 3.714 3.147-.005.032 15.123 5.113-.009c1.978-.004 3.577-.325 4.814-.966 4.786-2.475 4.961-12.179 1.714-15.892a5.003 5.003 0 00-2.518-1.586c-1-.276-2.259-.411-3.797-.41l-1.584.002-.029-15.051-.007-3.808-3.787.006zm-123.358 22.436l.83.007c1.319.003 2.344.195 3.065.573 2.956 1.561 2.875 8.483-.031 10.212-.725.428-1.717.65-2.997.646l-.922-.004.055-11.434zm-3.676-22.49l-.089 18.882-1.767-.006-1.397 3.702 3.147.014-.075 15.125 5.117.021c1.976.009 3.579-.304 4.82-.934 4.804-2.446 5.045-12.149 1.82-15.884a5.007 5.007 0 00-2.503-1.6c-.997-.282-2.257-.426-3.792-.431l-1.585-.01.071-15.051 8.703.035-1.371-3.812-11.099-.05zm38.517 18.939l.824.003c1.32.004 2.346-.181 3.068-.555.719-.372 1.249-1.097 1.594-2.189.333-1.082.51-2.715.516-4.874.006-1.95-.154-3.45-.483-4.523-.32-1.07-.848-1.831-1.571-2.265-.716-.442-1.71-.663-2.99-.665l-.92-.005-.038 15.073zm-.055 18.831l-3.781-.007.041-15.125-3.372-.007 1.389-3.705 1.992.006.049-18.882 5.116.011c1.978.008 3.576.329 4.813.966 1.235.639 2.17 1.784 2.805 3.425.633 1.642.951 3.932.942 6.876-.006 2.428-.182 4.385-.517 5.858-.345 1.473-.851 2.599-1.535 3.38a5.031 5.031 0 01-2.52 1.584c-.997.273-2.26.41-3.795.407l-1.583-.007-.044 15.22zm-20.936-37.715l11.099-.012 1.392 3.807-8.609.008.019 14.974 8.146-.009.006 3.81-8.038.006.013 11.318 8.038-.011.003 3.811-12.028.01-.017-15.122h-3.066l1.374-3.708 1.689-.004-.021-18.878zm65.293.001l3.784-.003.236 37.711-3.782.004-.238-37.712zm-31.41 0l11.096-.006 1.391 3.808-8.609.006.01 14.976 6.46-.006v3.807l-6.349.006.008 11.314 8.037-.006.004 3.809-12.029.007-.007-15.125-3.07.003 1.379-3.711 1.689-.001-.01-18.88z" fill="#fff"/><path fill-rule="evenodd" clip-rule="evenodd" d="M274.293 110.75l.018-16.788c.817.008 1.63.004 2.449.061l.952.148a8.26 8.26 0 011.284.442l.232.142a4.887 4.887 0 00-.349-.352l-.654-.4a8.235 8.235 0 00-1.284-.442l-.952-.148c-.819-.057-1.632-.053-2.449-.06l-.019 17.396.772.001zm-4.079 1.391l-.228.609 2.166.001v-.609l-1.938-.001zm2.693 15.128l-.001.611h1.37l.014-15.125 8.205.008-.063-.61-8.913-.009-.014 15.125h-.598zm11.794-.013l.063.61 1.569.001-2.777-26.683c-.291-2.09-.717-4.187-1.649-6.112a8.988 8.988 0 00-.649-1.019 4.42 4.42 0 00-.66-.626 5.35 5.35 0 00-.256-.142c.048.051.097.103.145.158.246.332.451.66.649 1.019.932 1.925 1.358 4.022 1.65 6.112l2.776 26.683-.861-.001zm-20.141.001c.036.203.07.408.105.611l1.465-.003c-.711-3.716-1.464-7.448-2.625-11.061-.425-1.254-.874-2.522-1.631-3.631l-1.022-1.107.851-1.062c.851-1.274 1.328-2.738 1.785-4.176 1.315-4.417 2.118-8.954 2.935-13.477l.165-.894h-.883l-.053.284c-.817 4.523-1.62 9.06-2.935 13.477-.457 1.438-.934 2.902-1.785 4.176l-.851 1.062 1.022 1.107c.757 1.109 1.207 2.377 1.631 3.631 1.162 3.613 1.914 7.345 2.626 11.061l-.8.002zm-9.314-16.533l-.003-1.464h-.006l-.043-16.774h-.769l.041 16.164h.006l.005 2.087.769-.013zm-3.245 1.475l-.225.609 1.342.002-.002-.609-1.115-.002zm1.924 15.071l.002.612 1.36-.003-.039-14.822.003.003-.001-.245h2.227l.736.059.731.193.658.309.064.045-.262-.254-.572-.401-.658-.309-.732-.193-.736-.059h-2.227l.001.244-.003-.002.039 14.822-.591.001zm-80.05.017l-.227.611c1.285 0 2.567.001 3.848-.003.944-.009 1.846-.061 2.773-.214.335-.07.652-.148.975-.249a4.38 4.38 0 001.216-.708c.237-.221.433-.441.632-.688a8.527 8.527 0 00.923-1.738c.153-.435.282-.861.397-1.303.177-.816.285-1.601.342-2.429.018-.51.019-1.01 0-1.518a16.111 16.111 0 00-.353-2.456 15.518 15.518 0 00-.422-1.339 9.817 9.817 0 00-.789-1.515l-.482-.613-.997-1.022.929-1.134.716-1.204.588-1.534a22.38 22.38 0 00.543-2.403c.123-.877.204-1.741.25-2.627a31.64 31.64 0 00-.041-2.649 27.296 27.296 0 00-.321-2.477 17.43 17.43 0 00-.575-2.096 10.543 10.543 0 00-.559-1.187 5.507 5.507 0 00-.604-.778 4.84 4.84 0 00-.731-.567c.217.238.39.468.564.735.218.394.393.776.559 1.187.242.699.423 1.38.575 2.096.148.829.25 1.641.321 2.477.051.888.065 1.762.042 2.649-.047.886-.128 1.75-.251 2.627a22.38 22.38 0 01-.543 2.403l-.588 1.534-.716 1.204-.929 1.134.997 1.021.482.614c.316.494.562.976.79 1.515.162.444.298.881.421 1.339.184.822.295 1.614.354 2.456.018.508.017 1.008 0 1.518a16.688 16.688 0 01-.343 2.429c-.114.442-.244.868-.397 1.303a8.572 8.572 0 01-.922 1.738c-.2.247-.396.466-.633.688-.388.313-.743.52-1.216.708-.323.101-.639.179-.975.249-.927.153-1.829.205-2.772.214-.95.003-1.899.003-2.851.002zm1.884-33.94l.001.607c.492 0 .985 0 1.473.01.656.037 1.261.107 1.9.244l.831.265.412.188.081.052-.056-.064-.379-.332-.417-.266-.412-.188-.83-.265a12.24 12.24 0 00-1.901-.245 51.191 51.191 0 00-.703-.006zm.024 18.886l.001.607c.694.002 1.377.003 2.066.052l.951.148c.454.117.848.248 1.275.433l.401.215-.086-.094-.673-.51-.413-.221a8.36 8.36 0 00-1.275-.434l-.95-.147a21.65 21.65 0 00-1.297-.049zm53.79-19.746l-.768.004.003.883-1.633.005c-.506.013-.99.048-1.495.113a9.35 9.35 0 00-1.341.35l-.837.416-.511.425-.432.568-.347.64-.294.715-.257.793a34.65 34.65 0 00-.603 2.82l-.285 2.198a90.267 90.267 0 00-.265 3.628c-.045 1.282-.07 2.56-.073 3.84.016 1.278.054 2.552.112 3.832a90.99 90.99 0 00.3 3.604c.135 1.061.294 2.112.491 3.167l.442 1.779.264.772.3.697.356.622.449.551.538.401.1.046-.316-.388-.356-.622-.301-.697-.263-.773-.443-1.778a55.914 55.914 0 01-.49-3.166 91.198 91.198 0 01-.3-3.605c-.059-1.28-.096-2.554-.113-3.832.003-1.279.028-2.558.074-3.84.065-1.211.151-2.416.264-3.628l.286-2.198c.166-.954.358-1.88.603-2.82l.257-.793.294-.714.347-.64.432-.57.511-.424.837-.416a9.35 9.35 0 011.341-.35c.505-.065.989-.1 1.495-.113l1.633-.005-.006-1.497zm-7.351 34.07c.139.141.288.278.457.412.24.163.468.295.73.421 1.261.494 2.676.541 4.019.551l2.273-.007-.005-1.3-.769.004.003.686-2.273.007c-1.343-.01-2.757-.057-4.018-.551a5.655 5.655 0 01-.417-.223zm-18.947-32.59c.869-.008 1.738-.023 2.603-.013.821.042 1.544.135 2.332.353l.813.332.098.062-.071-.08-.382-.33-.416-.262-.813-.332c-.788-.218-1.511-.311-2.332-.353-.865-.01-1.734.004-2.603.013l.127 17.414.766-.018-.122-16.785zm.137 18.883c1.067-.007 2.133-.04 3.196.027l.952.143c.456.115.851.244 1.28.426l.414.22.003.002-.097-.105-.676-.507-.415-.22a8.427 8.427 0 00-1.28-.426l-.952-.143c-1.063-.068-2.128-.034-3.196-.027l.096 13.643.767.006-.092-13.039zm1.338 14.952l2.135-.021c1.182-.049 2.371-.137 3.467-.58.266-.13.492-.263.73-.429.438-.355.741-.71 1.055-1.165.285-.473.505-.932.708-1.439.15-.433.277-.857.388-1.296.173-.81.276-1.589.328-2.41.014-.506.012-1.002-.01-1.505a16.087 16.087 0 00-.368-2.434 15.408 15.408 0 00-.43-1.326 9.854 9.854 0 00-.8-1.504l-.486-.609-1.005-1.018.924-1.139c.271-.395.492-.779.707-1.207.221-.509.408-1.009.579-1.536.224-.801.393-1.586.528-2.407.118-.877.194-1.742.235-2.628.017-.886-.002-1.76-.057-2.648a26.96 26.96 0 00-.337-2.474 17 17 0 00-.588-2.092c-.167-.411-.345-.79-.565-1.184a5.673 5.673 0 00-.608-.774 4.78 4.78 0 00-.719-.554c.212.231.382.457.556.718.22.393.398.773.566 1.184.246.697.431 1.376.587 2.091.153.828.262 1.641.337 2.475.056.888.074 1.762.057 2.648a29.579 29.579 0 01-.235 2.628 22.26 22.26 0 01-.528 2.407 16.906 16.906 0 01-.578 1.536c-.216.428-.437.812-.708 1.207l-.924 1.139 1.005 1.017.487.61a9.9 9.9 0 01.799 1.505c.166.44.305.871.43 1.325.188.814.305 1.599.368 2.434.022.503.025.999.01 1.505-.052.821-.155 1.6-.328 2.41-.111.439-.237.863-.387 1.295a9.663 9.663 0 01-.709 1.44 5.229 5.229 0 01-1.055 1.165 5.384 5.384 0 01-.729.429c-1.096.443-2.286.53-3.468.58l-2.134.021-1.23.036v.072l-.604.004.004.615 1.371-.009v-.072l1.229-.036zm-4.593-15.562l-.223.614 1.344-.004-.005-.613-1.116.003zm37.297.401c1.026-.003 2.051-.025 3.073.031.638.065 1.206.162 1.82.333l.828.341.198.133-.265-.269-.704-.474-.828-.341a10.511 10.511 0 00-1.82-.333c-1.022-.057-2.047-.034-3.073-.032l.03 13.742.77.001-.029-13.132zm-3.782-.488l-.226.611 1.874-.002-.002-.612-1.646.003zm2.447 15.119l.002.612 4.245-.011c.981-.032 1.906-.136 2.845-.402.298-.095.581-.201.862-.326l.526-.29c.342-.245.618-.487.906-.783.291-.353.53-.694.764-1.08.233-.442.423-.87.6-1.331.166-.51.3-1.004.416-1.521.13-.738.212-1.451.251-2.194a21.224 21.224 0 00-.039-1.675 17.589 17.589 0 00-.342-2.128c-.132-.486-.28-.948-.458-1.419a10.701 10.701 0 00-.604-1.183 7.22 7.22 0 00-.672-.849 4.72 4.72 0 00-.735-.572c.239.259.435.519.637.811.23.389.421.768.603 1.182.178.471.326.934.459 1.42.159.712.268 1.402.342 2.128.034.56.047 1.11.038 1.674-.039.743-.12 1.457-.251 2.195-.116.517-.25 1.011-.416 1.52-.177.462-.367.89-.599 1.332a8.914 8.914 0 01-.765 1.08 6.617 6.617 0 01-.906.783l-.526.29a8.385 8.385 0 01-.861.326c-.939.266-1.865.369-2.845.401l-3.477.01zm1.331-16.548l-.035-18.246-.77.002.035 18.247.77-.003zm-127.177 1.874c1.026.008 2.052-.004 3.073.059.638.068 1.206.169 1.819.344l.825.345.171.116-.24-.248-.701-.478-.826-.346a10.518 10.518 0 00-1.819-.343c-1.021-.063-2.046-.051-3.073-.059l-.065 13.75.773.003.063-13.143zm-3.78-.5l-.228.605 1.869.008.003-.606-1.644-.007zm2.343 15.134l-.003.607 4.248.014c1.065-.028 2.068-.138 3.08-.454.218-.077.427-.158.634-.249.309-.149.572-.317.846-.51.328-.28.594-.554.866-.879.275-.384.502-.755.721-1.166.213-.467.388-.919.549-1.4a17.63 17.63 0 00.362-1.566c.078-.555.133-1.101.167-1.657l.003-1.119a15.265 15.265 0 00-.491-3.18 13.545 13.545 0 00-.501-1.353l-.413-.762a6.098 6.098 0 00-.878-1.054 4.86 4.86 0 00-.55-.39c.245.259.449.527.658.833l.412.763c.194.448.355.887.502 1.353.284 1.064.43 2.081.49 3.18l-.003 1.119a20.208 20.208 0 01-.167 1.657 17.63 17.63 0 01-.362 1.566c-.16.481-.336.933-.549 1.4-.219.411-.445.782-.721 1.166a7.184 7.184 0 01-.866.879 5.888 5.888 0 01-.845.51 9.099 9.099 0 01-.635.249c-1.012.316-2.014.426-3.08.454l-3.474-.011zm1.45-16.538l.078-16.754 8.211.033-.539-1.497-.552-.003.32.89-8.211-.033-.081 17.359.774.005zm34.822.065l.042-16.782c1.055.005 2.108-.015 3.156.06l.951.15c.459.118.852.251 1.28.439l.413.253-.096-.112-.341-.293-.747-.458a8.139 8.139 0 00-1.28-.44l-.951-.149c-1.048-.075-2.101-.055-3.155-.06l-.044 17.386c.258 0 .516.004.772.006zm-.05 17.126l.044-15.223 3.323.007c1.096-.037 2.164-.118 3.207-.445a4.426 4.426 0 001.224-.705c.228-.212.415-.415.608-.655 1.144-1.687 1.369-3.835 1.508-5.801.047-.82.069-1.64.076-2.464-.011-2.084-.115-4.19-.767-6.196l-.322-.796a8.68 8.68 0 00-.774-1.257l-.594-.598a6.468 6.468 0 00-.505-.342l.328.33c.307.415.542.805.774 1.257l.322.795c.652 2.007.756 4.113.767 6.197a49.29 49.29 0 01-.076 2.464c-.138 1.966-.364 4.114-1.508 5.801-.193.24-.38.443-.607.655a4.48 4.48 0 01-1.224.705c-1.044.327-2.112.408-3.208.445l-3.323-.007-.044 15.223-.593-.001-.002.608 1.366.003zm-3.965-15.741l-.228.608 2.096.005.002-.609-1.87-.004zm-16.873.009l-.226.61h1.793l-.001-.61h-1.566zm2.353 15.119l.001.611 9.612-.007-.001-1.5-.77.002v.888l-8.842.006zm1.573-1.496l-.014-13.018 8.037-.007-.002-1.498-.77.001.001.887-8.037.007.015 13.629.77-.001zm-.126-15.125l-.022-16.675 8.117-.008-.547-1.496-.547.001.323.885-8.116.008.022 17.286.77-.001zm64.034 16.623l.004.611 1.365-.002-.221-35.4h-.767l.218 34.79-.599.001zm-33.964-15.12l-.227.611 1.796-.002-.001-.61-1.568.001zm2.345 15.123l.001.61 9.612-.005-.001-1.498-.77.001v.887l-8.842.005zm1.574-1.498l-.01-13.014 6.35-.006v-1.495h-.771v.885l-6.349.006.009 13.625.771-.001zm-.119-15.12l-.012-16.677 8.117-.005-.547-1.498h-.548l.324.888-8.117.005.013 17.287h.77zM83.533 95.134l1.278 1.476 1.147 1.723.938 1.838.436 1.046.7 2.084.523 2.169.346 2.236.172 2.275v2.287l-.174 2.273-.346 2.234-.521 2.171-.721 2.141-.85 1.899-1.056 1.81-1.28 1.689-1.44 1.399-1.124.816-1.132.68-1.235.623-1.33.57-1.42.519-1.5.466-3.245.789-3.357.57-3.642.391-3.696.192-3.73-.002-3.695-.197-3.64-.394-3.35-.572-1.674-.375-1.571-.417-1.495-.467-1.415-.515-1.329-.569-1.23-.623-1.127-.676-1.015-.736-.95-.847-1.278-1.476-1.146-1.724-.938-1.831-.812-2.089-.608-2.125-.434-2.204-.26-2.26-.085-2.283.086-2.285.26-2.258.435-2.205.61-2.125.811-2.086.938-1.83 1.143-1.72 1.277-1.475.955-.853 1.018-.738 1.131-.68 1.237-.625 1.329-.568 1.418-.52 1.559-.483 3.132-.762 3.413-.58 3.642-.39 3.696-.193 3.729.002 3.696.197 3.638.395 3.409.58 3.13.765 1.553.483 1.415.517 1.329.57 1.23.621 1.13.678 1.013.737.949.847z" fill="#3B3B46"/><path fill-rule="evenodd" clip-rule="evenodd" d="M81.467 96.875l1.098 1.267.998 1.498.834 1.63.375.898.633 1.881.47 1.953.314 2.021.157 2.063v2.076l-.159 2.061-.313 2.021-.47 1.953-.646 1.918-.752 1.677-.926 1.584-1.103 1.453-1.219 1.182-.935.678-.981.589-1.093.551-1.193.51-1.288.47-1.374.426-1.448.382-1.54.344-3.139.532-3.408.365-3.467.18-3.501-.002-3.466-.184-3.407-.369-3.133-.534-1.54-.344-1.447-.383-1.37-.427-1.285-.468-1.191-.509-1.088-.55-.978-.586-.857-.62-.779-.694-1.098-1.266-.998-1.499-.825-1.607-.725-1.863-.546-1.907-.393-1.989-.235-2.047-.078-2.071.079-2.074.236-2.046.393-1.989.547-1.907.726-1.86.824-1.607.995-1.495 1.097-1.265.785-.7.86-.622.981-.59 1.093-.551 1.193-.51 1.288-.47 1.414-.438 2.909-.707 3.178-.539 3.408-.365 3.467-.18 3.5.002 3.467.184 3.406.37 3.174.539 2.907.709 1.41.438 1.284.468 1.192.51 1.089.55.977.586.857.621.779.694zm-.92.906l.991 1.142.912 1.369.777 1.519.339.81.6 1.784.445 1.846.297 1.919.15 1.965v1.977l-.151 1.963-.297 1.919-.445 1.846-.608 1.805-.698 1.558-.851 1.457-.998 1.313-1.082 1.051-.816.591-.893.535-1.014.511-1.123.481-1.226.447-1.318.409-1.397.368-1.484.332-3.066.52-3.334.357-3.398.176-3.434-.002-3.397-.18-3.332-.361-3.062-.522-1.483-.331-1.396-.37-1.315-.41-1.223-.445-1.12-.479-1.01-.51-.89-.534-.76-.549-.668-.595-.99-1.142-.912-1.37-.761-1.483-.68-1.746-.515-1.798-.373-1.886-.223-1.945-.074-1.974.075-1.976.224-1.945.373-1.886.515-1.797.68-1.744.762-1.483.91-1.366.989-1.141.673-.6.763-.553.893-.536 1.014-.512 1.123-.48 1.226-.447 1.345-.417 2.826-.687 3.095-.524 3.334-.358 3.397-.176 3.433.002 3.398.18 3.331.362 3.091.525 2.824.689 1.341.417 1.223.445 1.122.48 1.01.51.89.534.758.55.669.596z" fill="#fff"/><path fill-rule="evenodd" clip-rule="evenodd" d="M64.5 120.278l.094-.229.035-.208.009-.268-.018-.362.178.016.182-.223.156-.257.065-.233-.08-.247-.324-.029.242-.16.215-.309.096-.23.01-.39.19-.373.184-.252-.047-.364-.293-.087.037-.235.073-.474-.047-.392.216-.281.004-.179-.054-.156-.142-.162-.206-.049.07-.292-.054-.216-.23-.2-.293-.085.274-.275.16-.347-.023-.302.58-.516.094-.261-.024-.182-.228-.2.208-.102.157-.315.042-.356.008-.299-.048-.334-.434-.309-.335.159.003.001-2.819 10.157-.156.846-.004.757-.51-.108-.41 1.528-.457-.138-.47.662-.292-.087-.372.064-.553.817-.146-.314-.5-.151-.504.248-.596.625-.375-.292-.291-.089-.288.272-.237.24-.27-.172-.3-.047-.27.008-.361.204-.224-.738-.438-.222-.416-.127-.507-.109-.507.07-.237.241-.169-.408-.24-.118-.402.013-.98.551-.406-.167-.549.057-.505.248.017-.44-.17-.41-.27-.172-.436-.042.029-.305-.158-.27-.189-.146-.25-.077-.484.165-.52-.246-.685-.118-.342-.06.017-.441-.48-.234-.433.136-.6.087-.54-.165-.363.027-.527.152-.33.258.11-.461-.302-.223-.352-.018-.424.094-.392.15-.06.25-.489-.193-.374-.114-.301-.046-.363.024.254-.252.155-.254.152-.35.163-.488.236.117.37-.196.347-.253.214-.274.017-.369-.435-.213.417-.08.46-.292.252-.253.218-.508.454-.389.388-.234.124-.506-.361-.273.175-.291.346-.584.14-.548.445-.251.1-.234.005-.233-.112-.293-.258-.175.246-.351.04-.312-.214-.388-.359-.272.521-.215.4-.371.127-.409 1.067-.37.27-.293.06-.253-.215-.389.344-.021.38-.33.243-.447.168-.391.105-.467-.438-.642.393-.137.178-.194.158-.253.04-.312.341-.02.4-.04.117-.272.01-.469.876-.038.522-.216.201-.467-.15-.311.998.114.291-.234.118-.272.825.076.183-.428 1.473.678.24-.448.602.487.768.426 9.381 4.243c.346-.173.71-.349 1.09-.526v-.003l-.051-.215.209-.1.238-.129.008-.209-.108-.31.539-.251.274-.274.01-.359-.171-.164.654-.183.126-.226.005-.211.536-.161.012-.328 1.09.069.039-.357.498.164.588.083 2.316.127c1.386-.719 3.514-1.975 5.139-2.986.658-.409 1.218-.787 1.632-1.064-3.31.699-6.98 1.058-10.231.631l-3.128 3.737-.232.333-.145.327-.21-.146-.476.577-.182-.15-.339.194-.114-.096-.181-.045-.405.243-.009-.164-.196-.163-.277.009-.387.152-.116-.2-.115-.095-.182.059-.152.057-.09-.126-.128-.079-.124-.049-.202.016.038-.363-.156-.181-.164-.136-.21-.147-.243-.069-.153.056v-.209l-.085-.096-.186-.074-.55.045-.152-.153-.258-.083-.278.008.092-.186v-.21l-.089-.128-.19-.103.07-.126-.02-.149-.057-.1-.099-.081-.25-.024-.19-.208-.289-.186-.143-.091.091-.188-.173-.195-.223-.027-.288-.08-.214-.178-.168-.06-.269-.038-.197.047.136-.176-.095-.156-.155-.078-.21-.041-.207-.014-.075.095-.186-.177-.148-.124-.127-.079-.17-.061.164-.059.119-.078.136-.121.165-.179.086.097.204-.011.206-.042.147-.075.079-.157-.156-.177.203.048.264-.036.162-.058.194-.178.282-.078.218-.024.153-.194-.111-.189.134-.092.268-.184.167-.207.25-.022.088-.081.047-.099.004-.147-.083-.127.178-.103.077-.126-.023-.211-.111-.187.277.01.25-.082.136-.15.553.048.177-.073.077-.096-.024-.21.16.058.235-.068.196-.145.15-.135.135-.18-.077-.365.204.02.119-.05.118-.077.078-.127.157.057.19.062.105-.093.093-.2.404.154.278.01.18-.161-.01-.165.43.246.177-.044.106-.094.36.195.164-.148.539.582.192-.147.182.328.268.335 3.486 3.711c3.129.405 7.335.022 11.26-1.004l.013.038.03.093.01.032.045.193-.192.045c-.534.512-2.538 1.777-5.27 3.171-.695.355-1.42.721-2.152 1.088l4.381.239c.965-1.163 2.266-2.605 3.402-3.821l.118.504a158.118 158.118 0 00-3.193 3.335l.009.001.745 7.39.11.595.184.499-.345.059.12 1.109-.321.025-.131.557-.206.016-.216.138-.145.677-.17-.166-.35.027-.256.294-.218.562-.309-.095-.203.015-.113.252-.09.219-.211-.043-.2.047-.167.074-.177.226-.322-.427-.33-.034-.292.024-.346.058-.3.177-.089.219-.207-.225-.18-.016-.252.111-.476.613-.295-.005-.331.177-.254.293-.1-.293-.207-.226-.213-.042-.284.083-.058-.207-.165-.137-.154-.048-.175.014-.263.234-.389-.03-.458.099-.228.05-.1-.295-.358-.032-.238.202-.355.21-.38.031-.22.109-.295.236-.141.254-.045-.33-.246-.07-.225.079-.243.171-.209.197.025.18-.355-.001-.264.022-.2.046-.22.109z" fill="#fff"/><path fill-rule="evenodd" clip-rule="evenodd" d="M47.86 108.122l-.205-.301.178-.194.23-.368.641-.064.3-.696v-.032l.43-.019.837-.348.245-.564.535.06.598-.476.006-.016.827.077.114-.267 1.427.658.166-.31.088.071.834.463 8.65 3.912-.188.084.913.305-2.677 9.642-.17.922-.001.086-.349-.075-.397 1.483-.283-.085-.468.662-.019-.006-.758.132-.298.441-.603-.183-.808.397-.3.316-.04-.032-.723-.22-.462.434-.441-.069-.292.009-.108-.355-.709-.362-.488-.146-.632-.137-.482.067-.567-.278-.692.022-.858.482-.28-.114-.65.067-.169-.408-.547-.348-.055-.005-.256-.436-.364-.282-.534-.163-.44.149-.377-.177-.598-.104.012-.312-1.036-.504-.612.194-.42.06-.52-.159-.534.04-.268.076-.47-.347-.608-.03-.546.12-.569.218-.2-.061.068-.159.536-.285.446-.327.382-.484.026-.568.224-.142.376-.377.21-.486.313-.268.556-.335.272-1.121-.248-.187.295-.497.098-.385.4-.226.224-.524.009-.46-.176-.46.028-.039.08-.646-.206-.376.462-.429.086-.274.928-.323.473-.515.141-.594.357-.31.307-.564.202-.465.17-.77zm19.119 10.577l-.38.185-.087.071-.34-.097-.478.167-.067.047.054-.089.135-.483-.112-.346.07-.102.16-.388.012-.367.108-.212.295-.404-.126-.978-.168-.049.043-.28-.027-.235.186-.242.011-.475-.125-.367-.197-.224-.129-.516-.168-.147.15-.33-.011-.164.474-.422.194-.534-.053-.421.135-.273.059-.484.01-.378-.092-.632-.183-.13.019-.011.07-.276.397-.213.022-.555.184-.086.513-.513.01-.373.295-.083.27-.482.576-.173.006-.146 1.05.066.023-.219.517.073.626.034-.002.001 6.162.337.696 6.913.101.547-.212.037.114 1.055-.146.011-.143.608-.459.293-.066.306-.36.029-.483.552-.073.19-.539.041-.189.424-.22.051-.05.022-.112-.148-.638-.066-.37.031-.481.079-.26.154-.41-.036-.524.234-.387.496-.156-.002-.299.16-.145-.158-.507-.1-.232-.192-.374-.114-.483.039-.224.198-.224-.017-.259.055-.055-.16-.983-.087-.39.327-.195.118-.354.028zm-7.358-18.356l.007-.193.19-.315-.006-.055.129-.042.042-.048.402.035.454-.184.171-.217.177-.05.301-.224.214-.194.33-.436-.012-.058.309.101.277-.246.069.025.611.025.15-.135.147.085.376-.093.44.238.041-.038.51.548.108-.084.155.194 3.273 3.483-2.884 3.446-.109.157-.115-.081-.449.543-.041-.035-.406.233-.386-.096-.145.088-.166-.138-.601.021-.071.028-.304-.25-.312.106-.048-.03.01-.091-.355-.409-.22-.183-.313-.219-.194-.055-.195-.216-.44-.179-.419.034-.06-.06-.168-.054v-.086l-.227-.322-.025-.191-.169-.295-.321-.261-.202-.02-.088-.096-.058-.038.035-.071-.581-.656-.401-.051-.126-.034-.195-.163-.324-.115-.033-.005-.119-.193-.072-.037.047-.023.093-.186.33-.118.177-.163.1-.028.417-.045.55-.706-.035-.06.021-.015.065-.079.199-.018.319-.292.15-.315z" fill="#3B3B46"/><path fill-rule="evenodd" clip-rule="evenodd" d="M45.355 99.823c.337-.072.466-.297.385-.676l-.052-.244c-.065-.308-.269-.425-.61-.353l-.294.062.27 1.275.3-.064zm1.396 1.1c.06.283.029.539-.094.768-.124.228-.369.382-.735.459l-.925.197-.873-4.104.9-.19c.663-.141 1.052.063 1.169.613l.078.368c.083.391-.043.697-.38.916.443.037.71.265.8.686l.06.287zm-.578.045l-.045-.213c-.084-.395-.303-.556-.657-.48l-.32.068.291 1.367.344-.073c.167-.035.284-.103.353-.202.068-.099.079-.255.034-.467zm1.126.879l-.657-4.143.53-.084.46 2.901.626-3.073.53-.084.657 4.144-.53.084-.458-2.887-.635 3.057-.523.085zm3.073-2.866c.237-.024.405-.09.503-.197.098-.106.133-.287.107-.54-.028-.267-.098-.44-.209-.518a.57.57 0 00-.217-.08 1.145 1.145 0 00-.319-.005l-.229.024.141 1.34.223-.024zm.066.507l-.235.025.193 1.835-.566.06-.438-4.173.813-.085c.809-.085 1.255.266 1.338 1.053.08.771-.287 1.2-1.105 1.285zm2.533-2.65c.475-.041.812.116 1.01.473.198.356.327.876.386 1.559.057.649.005 1.176-.156 1.581s-.45.626-.866.662c-.403.035-.72-.136-.952-.513-.232-.377-.376-.884-.431-1.52a8.85 8.85 0 01-.036-.622 3.82 3.82 0 01.026-.511c.037-.307.138-.562.302-.764.164-.202.403-.318.717-.345zm.044.503c-.255.022-.413.177-.476.464-.062.288-.07.695-.024 1.22.095 1.086.357 1.61.785 1.573.437-.039.608-.6.513-1.686-.046-.526-.125-.925-.236-1.198-.112-.272-.299-.396-.562-.373zm3.294 2.42L56.3 99.5c-.006-.183-.063-.32-.17-.413-.108-.092-.286-.133-.533-.125l-.185.007.05 1.397.216-.007c.434-.015.645-.214.631-.597zm.205-3.099l.018.498-1.182.041.046 1.302.185-.007c.839-.029 1.269.27 1.29.895l.016.427c.009.26-.067.499-.228.717-.16.219-.48.337-.956.353l-.792.028-.146-4.193 1.75-.06zm2.895-.062v4.196h-.562v-3.672h-.76v2.612c0 .434-.065.729-.195.884-.13.156-.384.233-.764.233v-.498c.158 0 .268-.039.33-.118.061-.079.092-.241.092-.489V96.6h1.86zm1.927 2.189l-.035 2.036.568.01.073-4.195-.817-.014c-.375-.006-.658.074-.848.24-.19.168-.29.454-.296.858-.006.302.054.54.179.715.125.175.32.28.589.314l-1.027 2.045.608.01 1.006-2.02zm.006-.333l-.211-.003c-.196-.004-.342-.057-.438-.16-.096-.105-.142-.295-.137-.572.004-.213.049-.367.136-.464.087-.096.23-.142.43-.14l.243.005-.023 1.334zm3.052-1.084c-.158-.102-.366-.16-.625-.173-.236-.012-.408.079-.517.273a1.387 1.387 0 00-.159.36 2.167 2.167 0 00-.073.472l.81.043-.027.529-.81-.042c-.056 1.067.13 1.611.56 1.634.273.014.499-.032.68-.137l-.03.542c-.175.089-.4.126-.677.111-.408-.021-.7-.233-.875-.637-.175-.403-.246-.926-.212-1.568.022-.43.074-.8.154-1.111.08-.311.214-.555.4-.73.186-.176.439-.256.758-.239.31.016.534.069.67.157l-.027.516zm.788 3.688l.32-3.657-.77-.068.046-.521 2.113.184-.045.522-.77-.067-.32 3.657-.574-.05zm3.094-.807l.027-.26c.02-.182-.018-.326-.112-.433-.093-.106-.263-.172-.509-.198l-.184-.019-.147 1.391.216.023c.433.045.669-.123.709-.504zm-.541-3.164l-.189 1.79.185.02c.835.088 1.219.443 1.154 1.065l-.045.425c-.02.187-.077.352-.171.496a.923.923 0 01-.402.334 1.094 1.094 0 01-.577.083l-.96-.1.44-4.173.565.06zm3.21 4.629c-.188.07-.416.083-.685.04-.396-.062-.662-.303-.798-.721a2.692 2.692 0 01-.114-.71c-.01-.264.01-.556.061-.876.035-.218.072-.413.112-.583.04-.17.09-.335.15-.494a1.53 1.53 0 01.477-.687c.207-.161.468-.217.784-.167.31.05.528.125.65.226l-.082.51a1.266 1.266 0 00-.596-.236c-.278-.044-.484.067-.619.332s-.243.659-.326 1.18c-.17 1.076-.043 1.648.382 1.715.27.043.499.021.69-.065l-.086.536zm2.237-1.479l-.424 1.993.557.118.873-4.103-.8-.17c-.367-.078-.66-.054-.879.074-.218.128-.37.39-.454.785-.063.295-.05.54.04.736.088.195.261.335.517.42l-1.397 1.812.593.126 1.374-1.791zm.07-.324l-.207-.044c-.192-.04-.325-.121-.4-.242-.074-.12-.082-.316-.025-.586.044-.209.118-.352.222-.43.104-.078.254-.096.45-.054l.237.05-.278 1.306zm-14.353 2.78c-.158 0-.343.041-.556.121v-.536a1.93 1.93 0 01.562-.102c.75 0 1.125.351 1.125 1.054 0 .229-.057.433-.17.609a.882.882 0 01-.45.368c.477.148.715.485.715 1.009 0 .332-.097.623-.293.874-.196.251-.488.377-.876.377-.247 0-.452-.047-.613-.141v-.555c.132.098.309.147.53.147.452 0 .677-.256.677-.766 0-.205-.055-.364-.166-.479-.102-.124-.27-.186-.504-.186v-.466c.144 0 .28-.06.405-.182.126-.121.189-.294.189-.52 0-.417-.192-.626-.575-.626zm-8.841 15.511v-9.317h-1.309v-1.292h2.65v10.609h-1.341zm6.123-5.749c.42.162.727.487.921.977.194.49.29 1.117.29 1.881 0 .678-.08 1.238-.242 1.68-.161.441-.414.78-.759 1.017-.344.215-.775.323-1.292.323-1.52 0-2.278-1.007-2.278-3.02 0-.807.089-1.442.266-1.905.178-.463.498-.78.961-.953-.754-.409-1.13-1.195-1.13-2.357 0-1.744.732-2.616 2.197-2.616s2.197.872 2.197 2.616c0 .506-.097.977-.29 1.413-.194.436-.475.751-.84.944zm-1.05-3.81c-.625 0-.937.538-.937 1.614 0 .528.072.929.218 1.203.145.275.385.412.72.412.602 0 .904-.538.904-1.615 0-1.076-.302-1.614-.905-1.614zm0 4.488c-.668 0-1.002.711-1.002 2.132 0 .753.073 1.292.216 1.615.142.323.393.484.754.484.35 0 .592-.178.73-.533.137-.355.207-.899.207-1.631 0-.742-.068-1.273-.2-1.59-.132-.318-.366-.477-.705-.477zm5.623-.29c-.722 0-1.083.71-1.083 2.131 0 1.432.345 2.148 1.034 2.148.388 0 .67-.159.848-.477.178-.317.267-.88.267-1.687 0-1.41-.356-2.115-1.066-2.115zm.387-1.179c.582 0 1.056.248 1.422.743.366.495.55 1.275.55 2.341 0 2.411-.776 3.617-2.327 3.617-1.627 0-2.44-1.179-2.44-3.536 0-.452.008-.767.024-.945.016-.177.052-.414.105-.71.054-.296.127-.6.218-.912.092-.313.235-.711.428-1.195.378-.937.922-2.083 1.633-3.44h1.55c-1.163 1.917-1.96 3.445-2.39 4.586.462-.366.872-.549 1.227-.549zm2.327 6.54l2.827-5.619c.496-1.023.743-1.917.743-2.681 0-.431-.067-.74-.201-.928-.135-.189-.375-.283-.72-.283-.258 0-.46.081-.605.242-.146.162-.262.426-.348.792a7.57 7.57 0 00-.097 1.324h-1.34c0-1.271.172-2.188.516-2.753.345-.566.964-.848 1.858-.848 1.605 0 2.408.802 2.408 2.406 0 1.022-.361 2.206-1.083 3.552l-1.882 3.455h2.77v1.341h-4.846zm-10.337 4.481c.239 0 .412-.048.52-.143.11-.096.164-.272.164-.527 0-.268-.051-.447-.154-.536a.573.573 0 00-.207-.103 1.16 1.16 0 00-.317-.038h-.23v1.347h.224zm.013.511h-.236v1.846h-.57v-4.196h.819c.813 0 1.22.396 1.22 1.188 0 .775-.41 1.162-1.233 1.162zm4.068-2.394c.477 0 .798.186.965.558.166.373.249.902.249 1.587 0 .652-.098 1.172-.294 1.561-.196.39-.503.585-.92.585-.405 0-.706-.198-.904-.594-.198-.396-.297-.913-.297-1.552 0-.238.006-.446.019-.622.013-.177.036-.346.07-.508.064-.302.186-.547.367-.734.181-.188.43-.281.745-.281zm0 .504c-.256 0-.427.14-.514.422-.088.281-.131.685-.131 1.213 0 1.09.215 1.634.645 1.634.439 0 .658-.544.658-1.634 0-.528-.044-.932-.131-1.213-.087-.282-.263-.422-.527-.422zm2.924 3.736v-4.196h.569v1.984l.984-1.984h.594l-1.003 1.993 1.003 2.203-.611.002-.967-2.155v2.153h-.569zm5.423-4.196h.568l-.958 3.289a3.065 3.065 0 01-.224.571.705.705 0 01-.294.291 1.167 1.167 0 01-.472.083v-.511a.952.952 0 00.24-.022c.053-.015.102-.056.146-.122a1.14 1.14 0 00.125-.36l-.825-3.219h.57l.536 2.406.588-2.406z" fill="#fff"/></svg>