<svg width="321" height="222" fill="none" xmlns="http://www.w3.org/2000/svg"><g clip-path="url(#clip0_92_5654)" fill="#3B3B46"><path d="M116.788 151.475v-10.621l-4.449 7.607-4.52-7.607v10.621H104.5v-15.071h4.308l3.531 6.172 3.389-6.172h4.379v15.071h-3.319zm9.462-15.07h-3.319v15.07h3.319v-15.07zm1.483 0h11.37v3.157h-4.025v11.913h-3.39v-11.913h-3.955v-3.157zm12.57 14.927v-3.158c.707.143 2.331.431 4.379.431 1.695 0 2.542-.216 2.542-1.221 0-1.076-.706-1.219-3.107-2.368-2.331-1.076-4.096-2.009-4.096-4.593 0-3.157 1.907-4.234 5.579-4.234 1.907 0 3.248.144 4.166.287v3.158c-.847-.072-2.33-.287-4.025-.287-1.977 0-2.401.215-2.401 1.076 0 .861 1.059 1.292 2.684 2.01 2.471 1.148 4.448 2.081 4.448 4.951 0 3.015-1.836 4.378-5.79 4.378a41.354 41.354 0 01-4.379-.43zm12.217-4.952v-9.975h3.319v9.831c0 1.723.989 2.297 2.613 2.297 1.554 0 2.613-.574 2.613-2.297v-9.831h3.319v9.975c0 3.66-2.331 5.311-5.932 5.311-3.602 0-5.932-1.651-5.932-5.311zm14.689-9.975h6.497c3.036 0 4.731 1.148 4.731 3.875 0 2.153-1.2 2.871-2.33 3.301 1.342.431 2.754 1.148 2.754 3.66 0 2.655-1.554 4.234-4.873 4.234h-6.708v-15.07h-.071zm6.003 6.1c1.341 0 1.836-.718 1.836-1.723 0-1.22-.565-1.507-1.836-1.507h-2.684v3.23h2.684zm.211 6.171c1.342 0 1.907-.502 1.907-1.794 0-1.148-.494-1.65-1.765-1.65h-3.037v3.444h2.895zm10.664-12.271h-3.319v15.07h3.319v-15.07zm2.4 14.927v-3.158c.706.143 2.33.431 4.378.431 1.695 0 2.543-.216 2.543-1.221 0-1.076-.707-1.219-3.108-2.368-2.33-1.076-4.095-2.009-4.095-4.593 0-3.157 1.906-4.234 5.578-4.234 1.907 0 3.249.144 4.167.287v3.158c-.848-.072-2.331-.287-4.025-.287-1.978 0-2.401.215-2.401 1.076 0 .861 1.059 1.292 2.683 2.01 2.472 1.148 4.449 2.081 4.449 4.951 0 3.015-1.836 4.378-5.791 4.378a43.242 43.242 0 01-4.378-.43zm20.621.143v-5.956h-5.296v5.956h-3.319v-15.07h3.319v5.956h5.296v-5.956h3.319v15.07h-3.319zm9.392-15.07h-3.319v15.07h3.319v-15.07zm-84.176 35.379v-10.621l-4.449 7.607-4.449-7.607v10.621h-3.39v-15.07h4.308l3.531 6.1 3.46-6.1h4.378v15.07h-3.389zm5.649-7.535c0-5.382 2.048-7.751 6.426-7.751 4.379 0 6.427 2.369 6.427 7.751s-2.048 7.75-6.427 7.75c-4.378 0-6.426-2.368-6.426-7.75zm9.322 0c0-3.086-.495-4.665-2.966-4.665-2.401 0-2.966 1.579-2.966 4.665 0 3.086.494 4.665 2.966 4.665 2.471 0 2.966-1.579 2.966-4.665zm4.025-7.535h11.37v3.157h-4.025v11.913h-3.319v-11.913h-4.026v-3.157zm11.934 7.535c0-5.382 2.048-7.751 6.426-7.751s6.426 2.369 6.426 7.751-2.048 7.75-6.426 7.75-6.426-2.368-6.426-7.75zm9.321 0c0-3.086-.494-4.665-2.965-4.665-2.472 0-2.966 1.579-2.966 4.665 0 3.086.494 4.665 2.966 4.665 2.471 0 2.965-1.579 2.965-4.665zm5.72-7.535h6.003c3.178 0 5.226 1.22 5.226 4.808 0 2.368-1.13 3.875-3.037 4.306l3.672 5.956h-3.884l-3.107-5.382h-1.483v5.382h-3.319v-15.07h-.071zm5.862 6.746c1.483 0 1.977-.79 1.977-1.938s-.494-1.938-1.977-1.938h-2.472v3.876h2.472zm7.345 8.109v-3.157c.706.143 2.33.43 4.378.43 1.695 0 2.542-.215 2.542-1.22 0-1.076-.706-1.22-3.107-2.368-2.33-1.076-4.096-2.009-4.096-4.593 0-3.157 1.907-4.234 5.579-4.234 1.907 0 3.248.144 4.166.287v3.158c-.847-.072-2.33-.287-4.025-.287-1.977 0-2.401.215-2.401 1.004 0 .862 1.06 1.292 2.684 2.01 2.471 1.148 4.449 2.081 4.449 4.952 0 3.014-1.836 4.377-5.791 4.377a17.709 17.709 0 01-4.378-.359zm-16.949-96.595L160.288 50l-14.194 24.974 14.194 25.046 14.265-25.046zm0 50.02h28.389l-14.194-24.974h-28.459l14.264 24.974z"/><path d="M146.094 124.994h-28.388L131.9 100.02h28.388l-14.194 24.974z"/></g><defs><clipPath id="clip0_92_5654"><path fill="#fff" transform="translate(104.5 50)" d="M0 0h112v122H0z"/></clipPath></defs></svg>