<svg width="321" height="222" fill="none" xmlns="http://www.w3.org/2000/svg"><g clip-path="url(#clip0_92_5928)" fill="#3B3B46"><path d="M83.847 112.253c-3.112-1.79-8.571-2.762-13.86-3.704-4.648-.829-9.039-1.606-10.965-3.381-1.694-1.561-1.635-4.032.14-5.505 1.903-1.586 6.153-2.512 11.093-2.415 4.396.087 8.139.998 10.007 2.446 1.763 1.361 2.043 3.417 2.37 5.801l3.515-.368c-.362-2.635-.77-5.617-3.55-7.761-2.516-1.944-6.988-3.116-12.272-3.218-8.787-.174-12.646 2.456-13.616 3.27-3.181 2.654-3.304 7.09-.262 9.893 2.697 2.487 7.619 3.361 12.833 4.287 4.723.839 10.077 1.791 12.617 3.254 1.757 1.008 2.288 2.338 1.722 4.302-.543 1.883-1.822 3.188-4.023 4.103-2.58 1.075-6.807 1.73-10.503 1.627-4.064-.107-6.726-1.095-8.238-1.898-1.693-.9-2.878-2.072-3.62-3.586-.706-1.427-.957-3.023-1.226-4.712l-3.509.43c.286 1.816.59 3.699 1.483 5.515 1.033 2.092 2.727 3.78 5.033 5.008 2.691 1.433 6.136 2.246 9.966 2.348.286.011.572.011.864.011 4.046 0 8.384-.737 11.268-1.939 3.147-1.305 5.144-3.377 5.944-6.149.922-3.218-.216-5.935-3.211-7.659zm61.449-17.235l-17.936 30.808 3.159 1.412 16.324-28.045 16.033 27.922 3.164-1.396-17.632-30.7h-3.112zM247.406 94c-11.543 0-20.931 7.607-20.931 16.959s9.388 16.959 20.931 16.959c11.543 0 20.931-7.607 20.931-16.959S258.949 94 247.406 94zm0 30.813c-9.587 0-17.387-6.216-17.387-13.854 0-7.638 7.8-13.854 17.387-13.854s17.387 6.216 17.387 13.854c0 7.638-7.8 13.854-17.387 13.854zM123.075 96.165c-2.598-1.468-5.64-1.621-9.984-1.693-4.297-.072-10.328-.036-16.178 0l-1.758.01v.246h-.052v32.721h3.65v-14.606c5.096.036 10.199.061 14.087.02 4.542-.051 7.713-.209 10.34-1.851 2.715-1.699 4.525-4.794 4.496-7.695-.035-2.783-1.839-5.591-4.601-7.152zm-1.962 12.324c-1.792 1.121-4.343 1.228-8.331 1.274-3.859.046-8.956.016-14.042-.02V97.562c5.232-.03 10.463-.051 14.281.01 4.28.067 6.469.256 8.133 1.197 1.787 1.008 2.954 2.804 2.972 4.574.017 1.882-1.25 4.046-3.013 5.146zm94.292-13.757h-.018v.634l-.012.394.012 4.497v5.525h.018v21.671h3.649V94.732h-3.649zm-23.471 29.523H176.1l15.455-15.271h.006l12.062-11.894-.006-2.369h-33.069v3.11h3.252v-.01h24.346l-11.321 11.163-16.195 16.002.005 2.374h33.046v-3.105h-11.747z"/></g><defs><clipPath id="clip0_92_5928"><path fill="#fff" transform="translate(52.5 94)" d="M0 0h216v34H0z"/></clipPath></defs></svg>