<svg width="321" height="222" fill="none" xmlns="http://www.w3.org/2000/svg"><g clip-path="url(#clip0_92_5641)" fill="#3B3B46"><path d="M101.003 134.089h6.418v14.949c0 1.375.815 1.93 2.19 1.93h10.933c1.373 0 2.19-.555 2.19-1.93v-14.949h6.415v15.93c0 3.381-2.99 5.943-6.417 5.943H107.42c-3.413 0-6.419-2.576-6.419-5.943v-15.93h.002zm-30.429 15.125h6.386c.106 1.245.86 1.756 2.13 1.756h11.735c1.087 0 1.69-.906 1.69-1.889 0-1.316-.995-2.006-2.28-2.006H77.443c-4.214 0-7.083-1.991-7.083-6.295 0-2.24.907-4.612 2.961-5.813 1.283-.763 2.853-.88 4.334-.88h15.07c3.264 0 5.89 2.24 5.86 5.46v1.157h-6.598c-.06-.996-.664-1.639-1.75-1.639h-11.13c-1.133 0-2.085.555-2.085 1.771 0 1.202.967 1.655 2.07 1.655h13.637c4.41 0 6.69 2.857 6.69 7.015 0 3.981-1.903 6.454-6.162 6.454H76.962c-3.716 0-6.343-1.448-6.373-5.284l-.015-1.462zm151.905-15.125h6.434v14.949c0 1.375.816 1.93 2.189 1.93h10.932c1.373 0 2.189-.555 2.189-1.93v-14.949h6.417v15.93c0 3.365-3.004 5.943-6.417 5.943h-15.314c-3.427 0-6.433-2.562-6.433-5.943l.003-15.93zm-54.139 17.554l-2.522 4.317h-7.127l12.248-21.871h8.381l12.249 21.871h-7.13l-2.522-4.317H168.34zm6.781-12.019l-4.047 7.291h8.11l-4.063-7.291zm-43.521-5.535h19.783c4.243 0 7.384 1.435 7.384 6.046 0 1.992-.813 3.734-2.625 4.716 1.991 1.025 3.125 2.926 3.125 5.121 0 3.09-2.041 5.988-5.467 5.988h-22.2v-21.871zm6.569 16.879h12.202c1.191 0 2.295-.628 2.295-1.888 0-1.245-1.117-1.888-2.295-1.888h-12.202v3.776zm0-8.299h12.202c1.101 0 1.797-.746 1.797-1.786 0-1.039-.68-1.813-1.797-1.813h-12.202v3.599zm54.621-8.58h21.504c4.29 0 6.36 3.397 6.36 7.19 0 2.458-.92 4.757-3.247 5.931 2.266 1.067 3.307 2.751 3.307 5.212v3.541h-6.42v-3.539c0-2.079-1.191-2.826-3.262-2.826h-11.625v6.365h-6.616l-.001-21.874zm6.615 10.527h12.036c1.553 0 2.597-1.347 2.597-2.768 0-1.815-1.39-2.781-3.187-2.781h-11.446v5.549zM79.407 174.999v-2.3H70.36v-10.32h1.252v9.259h6.337v-9.259h1.252v9.259h1.442l-.19 3.361h-1.046zm8.662-2.3v-10.32h8.017v1.062H89.32v3.523h6.053v1.062H89.32v3.612h6.845v1.061h-8.097zm16.207 0v-10.32h1.252v4.585h6.401v-4.585h1.252v10.32h-1.252v-4.644h-6.401v4.644h-1.252zm20.563 0v-9.258h-3.724v-1.062h8.715v1.062h-3.724v9.258h-1.267zm12.936 0v-10.32h4.151c1.268 0 2.277.295 3.027.885.75.59 1.125 1.396 1.125 2.418 0 1.071-.418 1.902-1.252 2.491-.824.59-1.859.885-3.106.885h-2.693v3.641h-1.252zm1.252-4.703h2.741c.919 0 1.653-.206 2.202-.619.56-.423.84-.983.84-1.681 0-.717-.269-1.267-.808-1.651-.528-.393-1.252-.589-2.171-.589h-2.804v4.54zm25.079 4.825l5.255-10.182h1.219l5.255 10.182h-1.4l-1.351-2.672h-6.276l-1.368 2.672h-1.334zm3.212-3.697h5.255l-2.619-5.156-2.636 5.156zm16.392 3.812a4.658 4.658 0 01-1.499-.245l.264-.925c.241.097.582.145 1.021.145.22 0 .417-.029.593-.087.176-.067.385-.24.626-.52.242-.288.439-.678.593-1.169.154-.501.286-1.228.396-2.181.12-.963.181-2.099.181-3.408v-1.834h7.462v10.109h-1.301v-9.07h-4.909v1.098c0 1.367-.066 2.551-.198 3.553-.121 1.001-.285 1.79-.494 2.368-.198.568-.456 1.021-.774 1.358-.308.336-.615.558-.923.664a3.371 3.371 0 01-1.038.144zm18.707-.115v-10.109h1.301v3.913h2.916c1.329 0 2.405.246 3.229.737.834.491 1.252 1.237 1.252 2.238 0 .992-.39 1.777-1.17 2.354-.769.578-1.807.867-3.113.867h-4.415zm1.301-1.04h3.081c.944 0 1.68-.183 2.207-.549.538-.366.807-.9.807-1.603 0-.645-.274-1.136-.823-1.473-.539-.337-1.296-.505-2.274-.505h-2.998v4.13zm20.689 1.415v-1.112c-1.834 0-3.267-.395-4.3-1.184-1.021-.789-1.532-1.849-1.532-3.177 0-1.329.511-2.383 1.532-3.163 1.033-.789 2.466-1.184 4.3-1.184v-.997h1.301v.997c1.834 0 3.262.395 4.283 1.184 1.033.78 1.549 1.834 1.549 3.163 0 1.328-.516 2.388-1.549 3.177-1.021.789-2.449 1.184-4.283 1.184v1.112h-1.301zm0-2.152v-6.628c-1.428 0-2.532.289-3.311.866-.78.568-1.17 1.387-1.17 2.455 0 1.069.39 1.887 1.17 2.455.779.568 1.883.852 3.311.852zm1.301 0c1.428 0 2.532-.284 3.311-.852.78-.568 1.17-1.386 1.17-2.455 0-1.068-.39-1.887-1.17-2.455-.779-.577-1.883-.866-3.311-.866v6.628zm13.203 1.777l5.255-10.182h1.219l5.255 10.182h-1.4l-1.351-2.672h-6.276l-1.367 2.672h-1.335zm3.213-3.697h5.255l-2.62-5.156-2.635 5.156zM161.404 47c17.823 0 36.931 3.067 52.138 11.214 9.876 5.335 19.07 13.419 19.07 23.955 0 12.302-12.445 21.248-24.368 26.484-14.186 6.201-30.951 8.656-46.844 8.656-17.819 0-36.89-3.031-52.101-11.21-9.876-5.335-19.108-13.42-19.108-23.93 0-12.36 12.412-21.273 24.368-26.513C128.787 49.46 145.514 47 161.404 47zm-.151 3.738c-16.572 0-34.432 2.618-48.811 9.932-9.044 4.568-17.974 11.758-17.974 21.308 0 11.218 12.106 19.068 22.928 23.577 13.396 5.522 29.06 7.67 43.857 7.67 16.605 0 34.47-2.625 48.849-9.939 9.006-4.6 17.974-11.754 17.974-21.305 0-11.242-12.073-19.103-22.929-23.572-13.399-5.533-29.063-7.67-43.894-7.67zM98.707 74.216l27.281-3.93 8.21-15.047 8.177 15.048 27.277 3.929-27.277 3.964-8.177 15.08-8.21-15.08-27.281-3.964zm59.972 11.465l12.032-1.784 3.594-6.805 3.595 6.805 12.036 1.784-12.036 1.756-3.595 6.808-3.594-6.808-12.032-1.756zm24.9-18.143l12.031-1.756 3.595-6.833 3.595 6.833 12.031 1.756-12.031 1.788-3.595 6.808-3.599-6.808-12.027-1.788zm-12.868 32.205l11.993-1.756 3.595-6.837 3.633 6.837 12.031 1.756-12.031 1.787-3.633 6.809-3.595-6.809-11.993-1.787zm-36.965 2.459l12.032-1.756 3.632-6.844 3.591 6.844 12.035 1.756-12.035 1.787-3.591 6.809-3.632-6.809-12.032-1.787zm60.504-16.8l11.994-1.792 3.595-6.805 3.632 6.805 12.031 1.792-12.031 1.756-3.637 6.797-3.594-6.801-11.99-1.752z"/></g><defs><clipPath id="clip0_92_5641"><path fill="#fff" transform="translate(.5)" d="M0 0h320v222H0z"/></clipPath></defs></svg>