<svg width="80" height="24" fill="none" xmlns="http://www.w3.org/2000/svg"><path fill="#fff" d="M0 0h80v24H0z"/><path d="M21.893 15.157c-1.3 0-2.518-.552-3.625-1.452l.27-1.27.012-.047c.24-1.352 1-3.622 3.343-3.622a3.196 3.196 0 013.186 3.199c-.006 1.758-1.435 3.192-3.186 3.192zm0-9.63c-2.992 0-5.311 1.952-6.254 5.162-1.44-2.17-2.53-4.774-3.168-6.967h-3.22v8.413a3.01 3.01 0 01-2.999 3.01 3.01 3.01 0 01-2.998-3.01V3.722H.033v8.413C.02 15.581 2.814 18.41 6.246 18.41s6.225-2.828 6.225-6.274v-1.41c.627 1.31 1.394 2.633 2.325 3.81l-1.974 9.312h3.297l1.429-6.755c1.253.805 2.694 1.31 4.345 1.31 3.531 0 6.407-2.904 6.407-6.449 0-3.54-2.876-6.426-6.407-6.426z" fill="#6FDA44"/><path d="M38.132 5.891l2.079 8.414L42.5 5.89h2.728L41.71 18.05h-2.728l-2.16-8.467-2.156 8.461h-2.729l-3.52-12.159h2.73l2.29 8.414 2.078-8.414h2.617v.006zm13.627-.364c-3.543 0-6.413 2.886-6.413 6.438 0 3.557 2.876 6.438 6.413 6.438 3.542 0 6.418-2.881 6.418-6.438S55.3 5.527 51.758 5.527zm0 10.23a3.776 3.776 0 01-3.772-3.786 3.78 3.78 0 013.771-3.787 3.776 3.776 0 013.772 3.787 3.78 3.78 0 01-3.772 3.786zM65.97 8.613a3.322 3.322 0 00-3.314 3.328v6.103H59.91V5.891h2.747v1.87s1.17-1.876 3.578-1.876h.843v2.728H65.97zm9.217 2.881a6.448 6.448 0 003.274-5.609h-2.747a3.669 3.669 0 01-3.66 3.675h-.369V.023H68.94v18.02h2.746v-5.726h.328c.27 0 .621.177.78.394l3.9 5.333h3.29l-4.796-6.55z" fill="#3B3B46"/></svg>