<svg width="40" height="40" fill="none" xmlns="http://www.w3.org/2000/svg"><circle cx="20" cy="20" r="20" fill="#7360F2"/><path d="M29.713 10.486c-.67-.573-3.349-2.551-9.221-2.551 0 0-6.954-.416-10.354 2.707-1.906 1.926-2.576 4.685-2.627 8.172-.052 3.436-.155 9.943 6.027 11.713v2.654s-.052 1.094.67 1.354c.875.26 1.339-.573 2.163-1.458.463-.52 1.082-1.197 1.545-1.77 4.224.365 7.47-.468 7.882-.572.824-.313 5.666-.937 6.439-7.392.824-6.715-.36-10.931-2.524-12.857zm.67 12.337c-.619 5.413-4.585 5.778-5.306 6.038-.31.052-3.143.78-6.749.572 0 0-2.678 3.228-3.502 4.113-.258.26-.567.26-.567-.313v-4.476c-5.203-1.458-4.894-6.976-4.842-9.839.051-2.915.566-5.257 2.163-6.87 2.885-2.656 8.809-2.24 8.809-2.24 4.997 0 7.366 1.563 7.933 2.031 1.854 1.614 2.781 5.414 2.06 10.984zm-7.161-4.165c-.052-1.51-.824-2.342-2.267-2.446-.463 0-.515.676-.051.676 1.082.104 1.597.625 1.7 1.77 0 .469.67.417.618 0zm1.082.573c0 .416.67.468.67 0 .051-2.499-1.546-4.581-4.534-4.79-.463-.051-.515.625-.051.677 2.575.157 3.966 1.926 3.915 4.113zm2.42.676c-.05-4.528-3.09-7.183-6.902-7.235-.412 0-.412.677 0 .677 3.4.052 6.182 2.342 6.233 6.558 0 .469.67.469.67 0zm-.617 5.102c.257-.469.206-.885-.155-1.197-.67-.625-1.597-1.302-2.37-1.718-.566-.313-1.133-.104-1.39.208l-.464.625c-.257.312-.721.26-.721.26-3.451-.885-4.379-4.373-4.379-4.373s0-.468.31-.728l.618-.521c.309-.26.463-.833.154-1.405a7.833 7.833 0 00-.773-1.198c-.257-.416-.927-1.145-.927-1.145-.257-.416-.72-.468-1.185-.208h-.051c-.979.52-2.06 1.614-1.7 2.655 0 0 .258.937 1.34 2.915.514.989 1.081 1.77 1.596 2.446.567.729 1.34 1.51 2.164 2.187 1.648 1.3 4.172 2.654 5.254 2.967h.052c1.03.364 2.112-.73 2.627-1.718v-.052z" fill="#fff"/></svg>