<svg width="120" height="120" fill="none" xmlns="http://www.w3.org/2000/svg"><rect width="120" height="120" rx="60" fill="#fff"/><g clip-path="url(#clip0_682_77603)" fill="#FF5C39"><path d="M65 40a15 15 0 1015 15 15.017 15.017 0 00-15-15zm0 28a13 13 0 1113-13 13.015 13.015 0 01-13 13z"/><path d="M66.192 48H66v-.917a1 1 0 00-2 0V48h-.192a3.808 3.808 0 00-.924 7.501L64 55.78V60h-.192A1.81 1.81 0 0162 58.192V58a1 1 0 00-2 0v.192A3.812 3.812 0 0063.808 62H64v.917a1 1 0 002 0V62h.192a3.807 3.807 0 00.924-7.501L66 54.22V50h.192A1.81 1.81 0 0168 51.808V52a1 1 0 002 0v-.192A3.812 3.812 0 0066.192 48zm.438 8.438A1.808 1.808 0 0166.192 60H66v-3.72l.63.158zM64 53.72l-.63-.157A1.808 1.808 0 0163.808 50H64v3.72z"/><path d="M87 72c-.98 0-1.938.29-2.753.833l-5.145-5.145a18.883 18.883 0 000-25.376l5.145-5.145a5.016 5.016 0 10-1.414-1.414l-5.145 5.145a18.883 18.883 0 00-25.376 0l-5.145-5.145a5.015 5.015 0 10-1.414 1.414l5.145 5.145a18.895 18.895 0 00-2.51 21.886L45 67.587l-2.293-2.293a1 1 0 00-1.414 0l-3 3a1 1 0 000 1.414L39.586 71l-9.636 9.636a6.657 6.657 0 109.414 9.414L49 80.414l1.293 1.293a.998.998 0 001.414 0l3-3a1.001 1.001 0 000-1.414L52.414 75l3.387-3.388a18.896 18.896 0 0021.887-2.51l5.145 5.146A4.995 4.995 0 1087 72zm0-42a3 3 0 110 6 3 3 0 010-6zm-47 3a3 3 0 116 0 3 3 0 01-6 0zm-2.05 55.636a4.657 4.657 0 01-6.586-6.586L41 72.414 47.586 79l-9.636 9.636zM51 79.586L40.414 69 42 67.414 52.586 78 51 79.586zm0-6L46.414 69l3.054-3.054a19.056 19.056 0 004.586 4.586L51 73.586zM48 55a17 17 0 1117 17 17.019 17.019 0 01-17-17zm39 25a3 3 0 110-6 3 3 0 010 6z"/></g><defs><clipPath id="clip0_682_77603"><path fill="#fff" transform="translate(28 28)" d="M0 0h64v64H0z"/></clipPath></defs></svg>