<svg width="120" height="120" fill="none" xmlns="http://www.w3.org/2000/svg"><rect width="120" height="120" rx="60" fill="#fff"/><g clip-path="url(#clip0_682_77612)" fill="#FF5C39"><path d="M90.902 38.47H29.098a.992.992 0 01-.997-.988v-4.594c0-.545.447-.987.997-.987h61.804c.55 0 .997.442.997.987v4.594a.992.992 0 01-.997.987zm-60.807-1.975h59.81v-2.62h-59.81v2.62z"/><path d="M86.957 77.61H33.043a.992.992 0 01-.997-.988v-39.14c0-.546.447-.988.997-.988h53.914c.55 0 .997.442.997.987v39.14a.992.992 0 01-.997.988zM34.04 75.633h51.92V38.47H34.04v37.165z"/><path d="M50.084 90.39a1 1 0 01-.264-.036.986.986 0 01-.698-1.213l3.536-12.78a.998.998 0 011.225-.692.986.986 0 01.698 1.214l-3.536 12.78a.996.996 0 01-.961.726zm19.832 0a.996.996 0 01-.96-.727l-3.537-12.78a.986.986 0 01.698-1.213.998.998 0 011.225.69l3.536 12.78a.986.986 0 01-.962 1.25zM60 33.875a.992.992 0 01-.997-.987v-2.72c0-.546.447-.988.997-.988s.997.442.997.988v2.72a.992.992 0 01-.997.987zM40.557 57.538a1.01 1.01 0 01-.335-.058.985.985 0 01-.604-1.262c1.066-2.957 3.913-4.945 7.084-4.945h.508c3.171 0 6.018 1.988 7.083 4.945a.985.985 0 01-.604 1.262 1 1 0 01-1.274-.598c-.783-2.174-2.875-3.634-5.206-3.634h-.507c-2.33 0-4.423 1.46-5.206 3.634a.997.997 0 01-.939.656z"/><path d="M46.956 53.248c-2.53 0-4.587-2.038-4.587-4.543 0-2.506 2.057-4.544 4.587-4.544 2.529 0 4.587 2.038 4.587 4.544 0 2.505-2.058 4.543-4.587 4.543zm0-7.112c-1.43 0-2.594 1.152-2.594 2.569 0 1.416 1.164 2.568 2.594 2.568s2.593-1.152 2.593-2.568c0-1.417-1.163-2.57-2.593-2.57z"/><path d="M46.956 60.3a9.711 9.711 0 01-6.879-2.822 9.527 9.527 0 01-2.85-6.813 9.526 9.526 0 012.85-6.813 9.711 9.711 0 016.879-2.822 9.711 9.711 0 016.878 2.822 9.526 9.526 0 012.85 6.813 9.526 9.526 0 01-2.85 6.813 9.712 9.712 0 01-6.878 2.823zm0-17.295c-4.265 0-7.735 3.436-7.735 7.66s3.47 7.66 7.735 7.66c4.264 0 7.734-3.436 7.734-7.66s-3.47-7.66-7.734-7.66zm34.819 3.732H61.59a.992.992 0 01-.997-.987c0-.545.446-.987.997-.987h20.185c.551 0 .997.442.997.987a.992.992 0 01-.997.987zm0 4.969H61.59a.992.992 0 01-.997-.988c0-.545.446-.987.997-.987h20.185c.551 0 .997.442.997.987a.992.992 0 01-.997.988zm0 4.862H61.59a.992.992 0 01-.997-.987c0-.545.446-.987.997-.987h20.185c.551 0 .997.442.997.987a.992.992 0 01-.997.987zm-.135 16.505H61.59a.992.992 0 01-.997-.987V60.557c0-.545.446-.987.997-.987.55 0 .996.442.996.987V71.1H81.64c.55 0 .997.442.997.987a.992.992 0 01-.997.987z"/><path d="M61.59 73.073a.999.999 0 01-.642-.23.98.98 0 01-.122-1.392l5.424-6.396a1.003 1.003 0 011.159-.272l2.588 1.109 2.799-3.766a1.003 1.003 0 011.275-.283l3.021 1.611 3.004-3.044a1.004 1.004 0 011.41-.016.98.98 0 01.016 1.397l-3.529 3.575c-.31.315-.794.388-1.185.18l-2.92-1.558-2.756 3.707c-.276.37-.773.504-1.199.321L67.3 66.888l-4.946 5.833a.999.999 0 01-.764.352zm-7.97-7.184H40.29a.992.992 0 01-.996-.987c0-.546.446-.988.996-.988h13.33c.55 0 .996.442.996.988a.992.992 0 01-.996.987zm0 5.327H40.29a.992.992 0 01-.996-.987c0-.545.446-.987.996-.987h13.33c.55 0 .996.442.996.987a.992.992 0 01-.996.987z"/></g><defs><clipPath id="clip0_682_77612"><path fill="#fff" transform="translate(28 29)" d="M0 0h64v61.57H0z"/></clipPath></defs></svg>