<svg width="120" height="120" fill="none" xmlns="http://www.w3.org/2000/svg"><rect width="120" height="120" rx="60" fill="#fff"/><path d="M50.896 91.2h-7.204a.975.975 0 01-.975-.975v-12.03c0-.538.437-.974.975-.974h7.204c.538 0 .975.436.975.975v12.029a.975.975 0 01-.975.975zm-6.229-1.95h5.254V79.17h-5.254v10.08zm43.147 1.95H80.61a.975.975 0 01-.975-.975V78.017c0-.538.437-.975.975-.975h7.204c.538 0 .975.437.975.975v12.208a.975.975 0 01-.975.975zm-6.229-1.95h5.254V78.992h-5.254V89.25zm-6.077 1.95h-7.204a.975.975 0 01-.975-.975V79.843c0-.538.437-.975.975-.975h7.204c.538 0 .975.437.975.975v10.382a.975.975 0 01-.975.975zm-6.229-1.95h5.254v-8.432h-5.254v8.432zm-6.077 1.95h-7.204a.975.975 0 01-.975-.975V72.851c0-.538.437-.975.975-.975h7.204c.538 0 .975.437.975.975v17.374a.975.975 0 01-.975.975zm-6.229-1.95h5.254V73.826h-5.254V89.25zM38.59 91.2h-7.204a.975.975 0 01-.975-.975v-17.92c0-.539.437-.975.975-.975h7.204c.538 0 .975.436.975.975v17.92a.975.975 0 01-.975.975zm-6.229-1.95h5.254V73.28H32.36v15.97zm38.194-15.896a.971.971 0 01-.477-.125l-9.605-5.391a.975.975 0 11.955-1.7l9.605 5.39a.975.975 0 01-.478 1.826zm-24.514-1.427a.97.97 0 01-.526-.155l-9.803-6.307a.975.975 0 011.055-1.64l9.803 6.307a.975.975 0 01-.529 1.795zm2.678.186a.975.975 0 01-.4-1.865l9.458-4.236a.975.975 0 01.797 1.78l-9.457 4.236a.973.973 0 01-.398.085zm24.868 1.748a.975.975 0 01-.39-1.87l8.946-3.893a.975.975 0 11.778 1.788l-8.946 3.894a.97.97 0 01-.388.081z" fill="#FF5C39"/><path d="M84.212 71.068a2.81 2.81 0 01-2.807-2.807 2.81 2.81 0 012.807-2.807 2.81 2.81 0 012.807 2.807 2.81 2.81 0 01-2.807 2.807zm0-3.665a.858.858 0 000 1.715.858.858 0 000-1.715zm-12.306 9.021a2.81 2.81 0 01-2.807-2.807 2.81 2.81 0 012.807-2.808 2.81 2.81 0 012.807 2.808 2.81 2.81 0 01-2.807 2.807zm0-3.665a.858.858 0 000 1.715.858.858 0 000-1.715zM59.6 68.557a2.81 2.81 0 01-2.807-2.807 2.81 2.81 0 012.807-2.807 2.81 2.81 0 012.807 2.807 2.81 2.81 0 01-2.807 2.807zm0-3.665a.858.858 0 000 1.715.858.858 0 000-1.715zM47.294 75.097a2.81 2.81 0 01-2.808-2.807 2.81 2.81 0 012.808-2.807A2.81 2.81 0 0150.1 72.29a2.81 2.81 0 01-2.807 2.807zm0-3.664a.858.858 0 000 1.714.858.858 0 000-1.714zm-12.306-5.319a2.81 2.81 0 01-2.807-2.808 2.81 2.81 0 012.807-2.807 2.81 2.81 0 012.807 2.807 2.81 2.81 0 01-2.807 2.808zm0-3.665a.858.858 0 000 1.715.858.858 0 000-1.715zM59.6 49.153a.975.975 0 01-.975-.975v-.385a.975.975 0 111.95 0v.385a.975.975 0 01-.975.975zm0-7.335a.975.975 0 01-.975-.975v-.384a.975.975 0 111.95 0v.384a.975.975 0 01-.975.975z" fill="#FF5C39"/><path d="M62.283 44.554l-.003-.005c-.229-.335-.575-.612-1.03-.822-.287-.13-.803-.28-1.533-.446-.919-.207-1.099-.359-1.1-.36a.29.29 0 01-.101-.238c0-.127.059-.233.187-.335.106-.086.341-.187.856-.187.386 0 .68.073.848.212.11.09.192.22.24.383a.87.87 0 00.909.628h.007a.879.879 0 00.78-1.113 2.303 2.303 0 00-1.36-1.519 3.745 3.745 0 00-1.459-.27c-.498 0-.96.087-1.374.258a2.193 2.193 0 00-1.029.826 2.118 2.118 0 00-.355 1.175c0 .387.101.743.3 1.058.196.31.489.568.872.77l.006.002c.276.145.734.294 1.362.445.569.136.952.24 1.109.302.239.091.343.18.388.237a.4.4 0 01.082.256c0 .105-.032.2-.098.292-.07.097-.19.179-.358.244a1.962 1.962 0 01-.708.116c-.307 0-.583-.052-.82-.156-.215-.093-.37-.209-.46-.344a1.101 1.101 0 01-.143-.324.886.886 0 00-.927-.648.881.881 0 00-.782 1.083c.07.299.192.58.361.838.277.42.66.74 1.142.947.455.196 1.017.296 1.668.296.53 0 1.018-.1 1.45-.298a2.42 2.42 0 001.052-.885c.247-.381.372-.796.372-1.232 0-.44-.118-.84-.35-1.186z" fill="#FF5C39"/><path d="M61.458 60.324h-3.717a1.48 1.48 0 01-1.477-1.477V56.33a12.327 12.327 0 01-2.798-1.16l-1.78 1.78c-.28.28-.65.433-1.045.433-.395 0-.766-.154-1.045-.433l-2.628-2.628a1.48 1.48 0 010-2.09l1.78-1.78a12.31 12.31 0 01-1.16-2.798H45.07a1.48 1.48 0 01-1.477-1.477V42.46a1.48 1.48 0 011.477-1.478h2.517a12.33 12.33 0 011.16-2.797l-1.78-1.78a1.468 1.468 0 01-.433-1.045c0-.395.154-.766.433-1.045l2.628-2.629c.28-.279.65-.432 1.045-.432.395 0 .766.153 1.045.432l1.78 1.78c.884-.5 1.82-.889 2.797-1.16V29.79a1.48 1.48 0 011.478-1.477h3.717a1.48 1.48 0 011.478 1.477v2.517c.977.27 1.913.658 2.797 1.16l1.78-1.78a1.48 1.48 0 012.09 0l2.629 2.628c.278.279.432.65.432 1.045 0 .395-.153.766-.433 1.045l-1.78 1.78c.502.884.89 1.82 1.16 2.797h2.517a1.48 1.48 0 011.477 1.478v3.717a1.48 1.48 0 01-1.477 1.477H71.61a12.33 12.33 0 01-1.16 2.798l1.78 1.78a1.48 1.48 0 010 2.09l-2.628 2.628a1.48 1.48 0 01-2.09 0l-1.78-1.78c-.884.501-1.82.89-2.797 1.16v2.517a1.48 1.48 0 01-1.478 1.477zm-3.244-1.95h2.772v-2.81c0-.462.323-.86.775-.955a10.423 10.423 0 003.586-1.486.975.975 0 011.223.126l1.988 1.988 1.96-1.96-1.987-1.988a.975.975 0 01-.127-1.223 10.416 10.416 0 001.487-3.586.975.975 0 01.954-.775h2.81v-2.773h-2.81a.975.975 0 01-.954-.775 10.422 10.422 0 00-1.487-3.586.975.975 0 01.127-1.223l1.988-1.988-1.96-1.96-1.989 1.987a.975.975 0 01-1.223.127 10.414 10.414 0 00-3.586-1.487.975.975 0 01-.775-.954v-2.81h-2.772v2.81c0 .462-.324.86-.776.954-1.28.268-2.487.768-3.586 1.487a.975.975 0 01-1.223-.127L50.641 33.4l-1.96 1.96 1.988 1.989a.975.975 0 01.126 1.223 10.414 10.414 0 00-1.486 3.586.975.975 0 01-.955.775h-2.81v2.773h2.81c.462 0 .86.323.955.775.267 1.28.767 2.487 1.486 3.586.253.386.2.896-.126 1.223l-1.989 1.988 1.961 1.96 1.988-1.988a.975.975 0 011.223-.126 10.413 10.413 0 003.586 1.486.975.975 0 01.776.955v2.81zm-.975-25.301z" fill="#FF5C39"/><path d="M59.6 52.272c-4.386 0-7.954-3.568-7.954-7.954 0-4.385 3.568-7.953 7.954-7.953 4.386 0 7.954 3.568 7.954 7.953 0 4.386-3.568 7.954-7.954 7.954zm0-13.957a6.01 6.01 0 00-6.004 6.003 6.01 6.01 0 006.004 6.004 6.01 6.01 0 006.004-6.004 6.01 6.01 0 00-6.004-6.003z" fill="#FF5C39"/></svg>