<svg width="120" height="120" fill="none" xmlns="http://www.w3.org/2000/svg"><rect width="120" height="120" rx="60" fill="#fff"/><g clip-path="url(#clip0_682_77593)" fill="#FF5C39"><path d="M91 81.25h-3V46.736a.98.98 0 00-.293-.697A1.007 1.007 0 0087 45.75H73c-.265 0-.52.104-.707.289a.98.98 0 000 1.394c.187.185.442.29.707.29h13V81.25H34V47.722h13c.265 0 .52-.104.707-.289a.98.98 0 000-1.394A1.007 1.007 0 0047 45.75H33c-.265 0-.52.104-.707.289a.98.98 0 00-.293.697V81.25h-3c-.265 0-.52.104-.707.289a.98.98 0 00-.293.697v5.917c0 .784.317 1.536.88 2.09a3.025 3.025 0 002.12.868h58c.795 0 1.558-.313 2.12-.867a2.941 2.941 0 00.88-2.091v-5.917a.98.98 0 00-.293-.697A1.007 1.007 0 0091 81.25zm-12.618 1.972l-1 1.973H42.618l-1-1.973h36.764zM89 89.14H31c-.265 0-.52-.104-.707-.29a.98.98 0 01-.293-.696v-.986h5c.265 0 .52-.104.707-.29a.98.98 0 000-1.394 1.007 1.007 0 00-.707-.288h-5v-1.973h9.382l1.724 3.4a1.005 1.005 0 00.894.545h36c.186 0 .368-.051.526-.148a.993.993 0 00.368-.397l1.724-3.4H90v1.973h-5c-.265 0-.52.103-.707.288a.98.98 0 000 1.395c.187.185.442.289.707.289h5v.986a.98.98 0 01-.293.697 1.008 1.008 0 01-.707.289z"/><path d="M44 51.667c.265 0 .52-.104.707-.29a.98.98 0 000-1.394 1.007 1.007 0 00-.707-.289h-7c-.265 0-.52.104-.707.29a.98.98 0 00-.293.697v27.61a.98.98 0 00.293.698c.187.185.442.289.707.289h46c.265 0 .52-.104.707-.29a.98.98 0 00.293-.696V50.68a.98.98 0 00-.293-.698 1.007 1.007 0 00-.707-.289h-7c-.265 0-.52.104-.707.29a.98.98 0 000 1.394c.187.185.442.289.707.289h6v25.638H38V51.667h6z"/><path d="M60.744 75.006c.544-.598 3.256-3.675 3.256-5.59a3.912 3.912 0 00-1.172-2.788A4.029 4.029 0 0060 65.471c-1.06 0-2.078.416-2.828 1.156A3.917 3.917 0 0056 69.416c0 1.914 2.712 4.991 3.256 5.589a1 1 0 00.744.327 1.012 1.012 0 00.744-.327zM58 69.416c0-.522.21-1.024.586-1.394a2.014 2.014 0 012.828 0c.375.37.586.872.586 1.395 0 .628-.94 2.096-2 3.403-1.063-1.314-2-2.792-2-3.403zm2-18.736a4.04 4.04 0 002.222-.664 3.957 3.957 0 001.474-1.77 3.897 3.897 0 00.227-2.28 3.928 3.928 0 00-1.095-2.02 4.018 4.018 0 00-2.048-1.079 4.052 4.052 0 00-2.31.225 3.988 3.988 0 00-1.796 1.453A3.905 3.905 0 0056 46.736a3.921 3.921 0 001.173 2.788A4.033 4.033 0 0060 50.68zm0-5.916c.396 0 .782.115 1.111.332.329.217.585.525.737.885a1.948 1.948 0 01-.434 2.15 2.027 2.027 0 01-2.18.428 1.994 1.994 0 01-.897-.727 1.953 1.953 0 01.25-2.49A2.01 2.01 0 0160 44.764z"/><path d="M47.353 50.182a13.798 13.798 0 00-2.962 8.409A13.793 13.793 0 0047.2 67.05a.996.996 0 00.791.394H48a1.011 1.011 0 00.79-.38l4.322-5.484c.34.536.71 1.054 1.108 1.55a.998.998 0 00.78.37h10a1.013 1.013 0 00.78-.37c.399-.496.769-1.014 1.109-1.55l4.321 5.484a.998.998 0 00.79.38h.009a1.01 1.01 0 00.79-.394 13.793 13.793 0 002.81-8.46 13.8 13.8 0 00-2.962-8.408l-2.731-3.46c-.492-7.141-3.836-13.799-9.299-18.512a1.009 1.009 0 00-1.234 0c-5.463 4.714-8.807 11.37-9.299 18.512l-2.731 3.46zm.708 14.592a11.817 11.817 0 01.87-13.38l1.079-1.367c.004 2.69.447 5.36 1.312 7.911.005.014.008.027.014.04a18.5 18.5 0 00.725 1.72l-4 5.076zm6.935-27.899h10.018A24.792 24.792 0 0168 48.708a25.692 25.692 0 01-.971 7.89H52.97a25.689 25.689 0 01-.971-7.89 24.775 24.775 0 012.996-11.833zm9.514 24.653h-9.02a15.494 15.494 0 01-1.762-2.959h12.545a15.492 15.492 0 01-1.763 2.959zm7.429 3.246l-4-5.076c.275-.575.52-1.15.726-1.723.005-.01.006-.02.01-.03a24.716 24.716 0 001.315-7.918l1.079 1.367a11.817 11.817 0 01.87 13.38zM60.002 30.3a25.09 25.09 0 013.842 4.603h-7.678a25.297 25.297 0 013.836-4.603z"/></g><defs><clipPath id="clip0_682_77593"><path fill="#fff" transform="translate(28 28)" d="M0 0h64v63.111H0z"/></clipPath></defs></svg>