<svg width="120" height="120" fill="none" xmlns="http://www.w3.org/2000/svg"><rect width="120" height="120" rx="60" fill="#fff"/><g clip-path="url(#clip0_682_77595)" fill="#FF5C39"><path d="M89.563 79.294H78.83a1.008 1.008 0 110-2.016h10.731a.672.672 0 00.672-.671v-37.47a.673.673 0 00-.671-.672H30.437a.673.673 0 00-.671.672v37.47c0 .37.301.671.672.671h10.731a1.008 1.008 0 110 2.016H30.438a2.69 2.69 0 01-2.688-2.687v-37.47a2.69 2.69 0 012.688-2.688h59.124a2.69 2.69 0 012.688 2.688v37.47a2.69 2.69 0 01-2.688 2.687z"/><path d="M68.854 38.465H51.146a1.008 1.008 0 01-1.008-1.008v-5.36a2.69 2.69 0 012.688-2.688h14.348a2.691 2.691 0 012.688 2.687v5.361c0 .557-.451 1.008-1.008 1.008zm-16.7-2.016h15.692v-4.352a.673.673 0 00-.672-.672H52.826a.673.673 0 00-.672.672v4.352zm24.88 54.141H42.966a2.808 2.808 0 01-2.805-2.804V44.83a2.808 2.808 0 012.805-2.805h34.068a2.808 2.808 0 012.804 2.805v42.958a2.808 2.808 0 01-2.804 2.804zM42.966 44.04a.79.79 0 00-.79.789v42.957a.79.79 0 00.79.79h34.068a.79.79 0 00.789-.77V44.828a.79.79 0 00-.79-.789H42.967z"/><path d="M47 68.262h-.476a1.008 1.008 0 110-2.016H47a1.008 1.008 0 010 2.016zm0 5.608h-.476a1.008 1.008 0 110-2.016H47a1.008 1.008 0 110 2.016zm0 5.608h-.476a1.008 1.008 0 110-2.015H47a1.008 1.008 0 110 2.016zm0 5.609h-.476a1.008 1.008 0 110-2.016H47a1.008 1.008 0 110 2.016zm26.476-16.825h-21.81a1.008 1.008 0 110-2.016h21.81a1.008 1.008 0 010 2.016zm0 5.608h-21.81a1.008 1.008 0 110-2.016h21.81a1.008 1.008 0 110 2.016zm0 5.608h-21.81a1.008 1.008 0 110-2.015h21.81a1.008 1.008 0 110 2.016zm0 5.609h-21.81a1.008 1.008 0 110-2.016h21.81a1.008 1.008 0 110 2.016zm-24.698-23.61a1.008 1.008 0 01-.795-1.626 7.054 7.054 0 015.606-2.745h.474c2.207 0 4.25 1 5.606 2.744a1.008 1.008 0 01-1.59 1.237 5.054 5.054 0 00-4.016-1.966h-.474c-1.58 0-3.044.717-4.015 1.966-.198.256-.496.39-.796.39z"/><path d="M53.826 59.121a4.365 4.365 0 01-4.36-4.36 4.365 4.365 0 014.36-4.36 4.365 4.365 0 014.36 4.36 4.365 4.365 0 01-4.36 4.36zm0-6.704a2.347 2.347 0 00-2.344 2.344 2.347 2.347 0 002.344 2.345 2.347 2.347 0 002.344-2.345 2.347 2.347 0 00-2.344-2.344z"/><path d="M53.826 63.503c-4.582 0-8.31-3.728-8.31-8.31v-.203c0-4.582 3.728-8.31 8.31-8.31 4.582 0 8.31 3.728 8.31 8.31v.203c0 4.582-3.729 8.31-8.31 8.31zm0-14.807a6.301 6.301 0 00-6.294 6.294v.203a6.301 6.301 0 006.294 6.294 6.302 6.302 0 006.294-6.294v-.203a6.301 6.301 0 00-6.294-6.294zm19.65 4.599h-8.59a1.008 1.008 0 110-2.016h8.59a1.008 1.008 0 110 2.016zm0 5.608h-8.59a1.008 1.008 0 110-2.015h8.59a1.008 1.008 0 110 2.015z"/></g><defs><clipPath id="clip0_682_77595"><path fill="#fff" transform="translate(28 29)" d="M0 0h64v62H0z"/></clipPath></defs></svg>