<svg width="92" height="92" fill="none" xmlns="http://www.w3.org/2000/svg"><path d="M61.99 38.607c.123.481.226 1.082.308 1.804.123.721.205 1.443.246 2.164.042.682.062 1.323.062 1.924.041.601.062 1.102.062 1.503v.541c0 3.608-.226 6.273-.678 7.996a4.174 4.174 0 01-1.11 1.804 4.3 4.3 0 01-1.912 1.082c-.781.2-2.26.36-4.44.481-2.178.08-4.172.14-5.98.18h-2.714c-7.03 0-11.408-.22-13.134-.66-1.604-.442-2.61-1.404-3.022-2.887-.205-.761-.37-1.803-.493-3.126A225.236 225.236 0 0129 47.986v-1.443c0-3.567.226-6.212.678-7.936a4.145 4.145 0 011.11-1.864 4.3 4.3 0 011.912-1.082c.78-.2 2.26-.34 4.44-.42 2.178-.12 4.172-.2 5.98-.241h2.714c7.03 0 11.407.22 13.134.661a4.3 4.3 0 011.912 1.082 4.145 4.145 0 011.11 1.864zM42.38 51.473l8.819-4.93-8.818-4.87v9.8z" fill="#fff"/><circle cx="46" cy="46" r="45.5" stroke="#fff"/></svg>