<svg width="290" height="591" viewBox="0 0 290 591" fill="none" xmlns="http://www.w3.org/2000/svg">
<path d="M287.51 151.183H288.537C289.104 151.183 289.563 151.644 289.563 152.214V219.559C289.563 220.128 289.104 220.589 288.537 220.589H287.51V151.183Z" fill="#C1C1C1"/>
<path d="M2.05273 235.021L1.02591 235.021C0.458811 235.021 -0.000911672 234.559 -0.000911623 233.99L-0.000908092 193.445C-0.000908042 192.876 0.458816 192.414 1.02591 192.414L2.05274 192.414L2.05273 235.021Z" fill="#C1C1C1"/>
<path d="M2.05273 178.671L1.02591 178.671C0.458811 178.671 -0.000911672 178.209 -0.000911623 177.64L-0.000908092 137.095C-0.000908042 136.526 0.458816 136.065 1.02591 136.065L2.05274 136.065L2.05273 178.671Z" fill="#D3D3D6"/>
<path d="M2.05273 115.449L1.02591 115.449C0.458815 115.449 -0.00090905 114.987 -0.000909 114.418L-0.000907265 94.4893C-0.000907215 93.92 0.458816 93.4585 1.02591 93.4585L2.05274 93.4585L2.05273 115.449Z" fill="#D3D3D6"/>
<path fill-rule="evenodd" clip-rule="evenodd" d="M4.2305 30.8646C2.05273 37.593 2.05273 45.9069 2.05273 62.5347V527.078C2.05273 543.706 2.05273 552.02 4.2305 558.748C8.63191 572.347 19.2523 583.008 32.7984 587.426C39.5009 589.613 47.7828 589.613 64.3465 589.613H225.215C241.779 589.613 250.061 589.613 256.763 587.426C270.309 583.008 280.93 572.347 285.331 558.748C287.509 552.02 287.509 543.706 287.509 527.078V62.5347C287.509 45.9069 287.509 37.593 285.331 30.8646C280.93 17.2661 270.309 6.60462 256.763 2.18619C250.061 0 241.779 0 225.215 0H64.3465C47.7828 0 39.5009 0 32.7984 2.18619C19.2523 6.60462 8.63191 17.2661 4.2305 30.8646ZM74.6153 16.8363V19.9286L74.6642 19.9271L74.6151 20.2722C74.6151 28.4321 81.2045 35.0469 89.3329 35.0469H200.23C208.358 35.0469 214.947 28.4321 214.947 20.2722L214.898 19.9271L214.947 19.9286V16.8363C214.947 14.7489 216.633 13.0567 218.712 13.0567L227.529 13.0567C241.313 13.0567 248.205 13.0567 253.702 15.1417C262.341 18.419 269.161 25.2653 272.426 33.9382C274.503 39.4561 274.503 46.3747 274.503 60.212V529.401C274.503 543.238 274.503 550.157 272.426 555.674C269.161 564.347 262.341 571.194 253.702 574.471C248.205 576.556 241.313 576.556 227.529 576.556H62.0331C48.2492 576.556 41.3572 576.556 35.8606 574.471C27.221 571.194 20.4011 564.347 17.1365 555.674C15.0595 550.157 15.0595 543.238 15.0595 529.401V60.2119C15.0595 46.3747 15.0595 39.4561 17.1365 33.9382C20.4011 25.2653 27.221 18.419 35.8606 15.1417C41.3572 13.0567 48.2492 13.0567 62.0331 13.0567L70.8503 13.0567C72.9297 13.0567 74.6153 14.7489 74.6153 16.8363Z" fill="#D3D3D6"/>
<path fill-rule="evenodd" clip-rule="evenodd" d="M225.49 1.37445H64.0737C47.7115 1.37445 39.6928 1.38293 33.2225 3.49337C20.0932 7.77585 9.79957 18.1092 5.53359 31.2893C3.43127 37.7846 3.42283 45.8344 3.42283 62.2598V527.353C3.42283 543.778 3.43127 551.828 5.53359 558.323C9.79957 571.504 20.0932 581.837 33.2225 586.119C39.6928 588.23 47.7115 588.238 64.0738 588.238H225.49C241.852 588.238 249.871 588.23 256.341 586.119C269.471 581.837 279.764 571.504 284.03 558.323C286.133 551.828 286.141 543.778 286.141 527.353V62.2599C286.141 45.8344 286.133 37.7846 284.03 31.2893C279.764 18.1092 269.471 7.77585 256.341 3.49337C249.871 1.38293 241.852 1.37445 225.49 1.37445ZM4.88255 31.077C2.73828 37.7019 2.73828 45.8879 2.73828 62.2598V527.353C2.73828 543.725 2.73828 551.911 4.88255 558.536C9.21624 571.925 19.6732 582.422 33.011 586.773C39.6103 588.926 47.7648 588.926 64.0738 588.926H225.49C241.799 588.926 249.953 588.926 256.553 586.773C269.891 582.422 280.348 571.925 284.681 558.536C286.826 551.911 286.826 543.725 286.826 527.353V62.2599C286.826 45.8879 286.826 37.7019 284.681 31.077C280.348 17.6877 269.891 7.19026 256.553 2.83981C249.953 0.687256 241.799 0.687256 225.49 0.687256H64.0737C47.7648 0.687256 39.6103 0.687256 33.011 2.83981C19.6732 7.19026 9.21624 17.6877 4.88255 31.077Z" fill="#C1C1C1"/>
<path fill-rule="evenodd" clip-rule="evenodd" d="M7.48681 31.9264C5.47656 38.1372 5.47656 45.8116 5.47656 61.1604V528.452C5.47656 543.801 5.47656 551.476 7.48681 557.686C11.5496 570.239 21.3531 580.08 33.8572 584.159C40.0441 586.177 47.6889 586.177 62.9786 586.177H226.585C241.875 586.177 249.52 586.177 255.707 584.159C268.211 580.08 278.014 570.239 282.077 557.686C284.087 551.476 284.087 543.801 284.087 528.452V61.1604C284.087 45.8116 284.087 38.1372 282.077 31.9264C278.014 19.3739 268.211 9.5326 255.707 5.45406C249.52 3.43604 241.875 3.43604 226.585 3.43604H62.9786C47.6889 3.43604 40.0441 3.43604 33.8572 5.45406C21.3531 9.5326 11.5496 19.3739 7.48681 31.9264ZM74.6156 16.8363V19.9287L74.6645 19.9272L74.6154 20.2723C74.6154 28.4321 81.2048 35.047 89.3332 35.047H200.23C208.358 35.047 214.948 28.4321 214.948 20.2723L214.899 19.9272L214.947 19.9287V16.8363C214.947 14.7489 216.633 13.0568 218.712 13.0568L227.53 13.0567C241.314 13.0567 248.206 13.0567 253.702 15.1418C262.342 18.419 269.162 25.2653 272.426 33.9383C274.503 39.4562 274.503 46.3748 274.503 60.212V529.401C274.503 543.238 274.503 550.157 272.426 555.675C269.162 564.347 262.342 571.194 253.702 574.471C248.206 576.556 241.314 576.556 227.53 576.556H62.0334C48.2495 576.556 41.3575 576.556 35.8609 574.471C27.2213 571.194 20.4014 564.347 17.1368 555.675C15.0598 550.157 15.0598 543.238 15.0598 529.401V60.212C15.0598 46.3748 15.0598 39.4562 17.1368 33.9383C20.4014 25.2653 27.2213 18.419 35.8609 15.1418C41.3575 13.0567 48.2495 13.0567 62.0334 13.0567L70.8506 13.0568C72.93 13.0568 74.6156 14.7489 74.6156 16.8363Z" fill="#D6D8DA"/>
<rect x="226.584" width="4.10727" height="3.43597" fill="#B2B4B8"/>
<rect x="284.086" y="59.0986" width="3.42279" height="4.12317" fill="#B2B4B8"/>
<rect x="2.05273" y="59.0986" width="3.42274" height="4.12317" fill="#B2B4B8"/>
<rect x="2.05273" y="526.391" width="3.42274" height="4.12317" fill="#B2B4B8"/>
<rect x="284.086" y="526.391" width="3.42279" height="4.12317" fill="#B2B4B8"/>
<rect x="58.8691" y="586.177" width="4.10729" height="3.43597" fill="#B2B4B8"/>
<path fill-rule="evenodd" clip-rule="evenodd" d="M173.875 27.4878C176.899 27.4878 179.351 25.0264 179.351 21.9902C179.351 18.954 176.899 16.4927 173.875 16.4927C170.85 16.4927 168.398 18.954 168.398 21.9902C168.398 25.0264 170.85 27.4878 173.875 27.4878Z" fill="#B2B4B8"/>
<path fill-rule="evenodd" clip-rule="evenodd" d="M173.874 25.4261C175.764 25.4261 177.297 23.8878 177.297 21.9902C177.297 20.0925 175.764 18.5542 173.874 18.5542C171.984 18.5542 170.451 20.0925 170.451 21.9902C170.451 23.8878 171.984 25.4261 173.874 25.4261Z" fill="#D6D8DA"/>
<path opacity="0.4" fill-rule="evenodd" clip-rule="evenodd" d="M173.874 21.3037C174.253 21.3037 174.559 20.9959 174.559 20.6162C174.559 20.2365 174.253 19.9287 173.874 19.9287C173.496 19.9287 173.189 20.2365 173.189 20.6162C173.189 20.9959 173.496 21.3037 173.874 21.3037Z" fill="#636F73"/>
<path fill-rule="evenodd" clip-rule="evenodd" d="M128.01 21.9903C128.01 20.8517 128.933 19.9287 130.071 19.9287H159.491C160.63 19.9287 161.553 20.8517 161.553 21.9903C161.553 23.1289 160.63 24.0519 159.491 24.0519H130.071C128.933 24.0519 128.01 23.1289 128.01 21.9903Z" fill="#B2B4B8"/>
</svg>
