<svg width="92" height="92" viewBox="0 0 92 92" fill="none" xmlns="http://www.w3.org/2000/svg">
<path d="M43.7333 44.8726C46.5169 45.6039 47.9087 47.4321 47.9087 50.3573C47.9087 52.4294 47.1379 53.9935 45.5962 55.0499C44.0545 56.1062 42.1489 56.6343 39.8792 56.6343H28.8306V35H39.558C44.3971 35 46.8167 36.7876 46.8167 40.3629C46.8167 42.4349 45.7889 43.9381 43.7333 44.8726ZM33.841 38.7175V43.7756H38.9156C40.9284 43.7756 41.9347 42.9021 41.9347 41.1551C41.9347 39.53 40.7999 38.7175 38.5302 38.7175H33.841ZM39.1726 52.9778C41.6564 52.9778 42.8983 52.0231 42.8983 50.1136C42.8983 48.0416 41.6992 47.0055 39.3011 47.0055H33.841V52.9778H39.1726ZM62.2333 38.2909H52.9833V36.1579H62.2333V38.2909ZM65.8306 49.0166C65.8306 49.2198 65.8092 49.4838 65.7663 49.8089H53.8827C53.8827 51.109 54.2252 52.1043 54.9104 52.795C55.6384 53.4857 56.6448 53.831 57.9295 53.831C58.4006 53.831 58.8717 53.7498 59.3427 53.5873C59.8566 53.4247 60.3063 53.2013 60.6917 52.9169C61.1199 52.5919 61.3983 52.2059 61.5267 51.759H65.5094C64.3103 55.253 61.7409 57 57.8011 57C55.2316 57 53.1761 56.2484 51.6344 54.7452C50.1355 53.2419 49.3861 51.2715 49.3861 48.8338C49.3861 46.4367 50.157 44.4663 51.6986 42.9224C53.2831 41.3379 55.3173 40.5457 57.8011 40.5457C60.2848 40.5457 62.2333 41.3583 63.6465 42.9834C65.1026 44.6085 65.8306 46.6196 65.8306 49.0166ZM53.8827 47.1274H61.2698C61.0557 44.8929 59.8566 43.7756 57.6726 43.7756C56.602 43.7756 55.7241 44.0803 55.0389 44.6898C54.3537 45.2992 53.9683 46.1117 53.8827 47.1274Z" fill="white"/>
<circle cx="46" cy="46" r="45.5" stroke="white"/>
</svg>
