<svg width="58" height="59" viewBox="0 0 58 59" fill="none" xmlns="http://www.w3.org/2000/svg">
<rect y="0.5" width="58" height="58" rx="6" fill="#3B3B46"/>
<path d="M29.0048 40.9858C27.3876 40.9858 25.8184 40.6689 24.341 40.044C22.9142 39.4405 21.6329 38.5767 20.5327 37.4765C19.4325 36.3763 18.5686 35.095 17.9652 33.6682C17.3403 32.1908 17.0234 30.6216 17.0234 29.0044C17.0234 27.3871 17.3403 25.8179 17.9652 24.3405C18.5686 22.9137 19.4325 21.6324 20.5327 20.5322C21.6329 19.432 22.9142 18.5682 24.341 17.9647C25.8184 17.3398 27.3875 17.0229 29.0048 17.0229C30.6221 17.0229 32.1913 17.3398 33.6687 17.9647C35.0955 18.5682 36.3768 19.432 37.477 20.5322C38.5772 21.6324 39.441 22.9137 40.0445 24.3405C40.6694 25.8179 40.9862 27.3871 40.9862 29.0044C40.9862 30.6216 40.6694 32.1908 40.0445 33.6682C39.441 35.095 38.5772 36.3763 37.477 37.4765C36.3768 38.5767 35.0955 39.4405 33.6687 40.044C32.1913 40.6689 30.6221 40.9858 29.0048 40.9858ZM29.0048 17.8667C22.8635 17.8667 17.8672 22.863 17.8672 29.0043C17.8672 35.1457 22.8635 40.142 29.0048 40.142C35.1462 40.142 40.1425 35.1457 40.1425 29.0043C40.1425 22.863 35.1462 17.8667 29.0048 17.8667Z" fill="white" stroke="white" stroke-width="0.5"/>
<path d="M29.0039 21.2212C28.7709 21.2212 28.582 21.0323 28.582 20.7993V15.9219C28.582 15.6889 28.7709 15.5 29.0039 15.5C29.2369 15.5 29.4258 15.6889 29.4258 15.9219V20.7993C29.4258 21.0323 29.2369 21.2212 29.0039 21.2212Z" fill="white"/>
<path d="M20.7993 29.4175H15.9219C15.6889 29.4175 15.5 29.2286 15.5 28.9956C15.5 28.7626 15.6889 28.5737 15.9219 28.5737H20.7993C21.0323 28.5737 21.2212 28.7626 21.2212 28.9956C21.2212 29.2286 21.0323 29.4175 20.7993 29.4175Z" fill="white"/>
<path d="M28.9961 42.5C28.7631 42.5 28.5742 42.3111 28.5742 42.0781V37.2007C28.5742 36.9677 28.7631 36.7788 28.9961 36.7788C29.2291 36.7788 29.418 36.9677 29.418 37.2007V42.0781C29.418 42.3111 29.2291 42.5 28.9961 42.5Z" fill="white"/>
<path d="M42.0786 29.4263H37.2012C36.9682 29.4263 36.7793 29.2374 36.7793 29.0044C36.7793 28.7714 36.9682 28.5825 37.2012 28.5825H42.0786C42.3116 28.5825 42.5005 28.7714 42.5005 29.0044C42.5005 29.2374 42.3116 29.4263 42.0786 29.4263Z" fill="white"/>
<path d="M28.9434 25.4888C28.5972 25.4888 28.2589 25.5914 27.9711 25.7837C27.6833 25.976 27.459 26.2493 27.3266 26.5691C27.1941 26.8888 27.1595 27.2407 27.227 27.5802C27.2945 27.9196 27.4612 28.2315 27.7059 28.4762C27.9507 28.7209 28.2625 28.8876 28.602 28.9551C28.9414 29.0227 29.2933 28.988 29.6131 28.8556C29.9328 28.7231 30.2061 28.4988 30.3984 28.211C30.5907 27.9232 30.6934 27.5849 30.6934 27.2388C30.6928 26.7748 30.5083 26.33 30.1802 26.0019C29.8521 25.6738 29.4073 25.4893 28.9434 25.4888ZM28.9434 28.1138C28.7703 28.1138 28.6011 28.0625 28.4572 27.9663C28.3133 27.8702 28.2012 27.7335 28.135 27.5736C28.0687 27.4137 28.0514 27.2378 28.0852 27.0681C28.1189 26.8983 28.2023 26.7424 28.3246 26.6201C28.447 26.4977 28.6029 26.4143 28.7727 26.3806C28.9424 26.3468 29.1183 26.3641 29.2782 26.4304C29.4381 26.4966 29.5747 26.6088 29.6709 26.7526C29.767 26.8965 29.8184 27.0657 29.8184 27.2388C29.8181 27.4708 29.7258 27.6932 29.5618 27.8572C29.3977 28.0212 29.1753 28.1135 28.9434 28.1138Z" fill="white" stroke="white" stroke-width="0.5"/>
<path d="M32.3055 23.8734C31.4741 23.0422 30.3642 22.5484 29.1901 22.4874C28.016 22.4263 26.8609 22.8024 25.9477 23.5429C25.0346 24.2835 24.4281 25.336 24.2453 26.4974C24.0626 27.6588 24.3165 28.8468 24.9581 29.8319L28.2642 34.9073C28.3377 35.0202 28.4383 35.113 28.5568 35.1773C28.6753 35.2415 28.808 35.2751 28.9428 35.2751C29.0776 35.2751 29.2102 35.2415 29.3287 35.1773C29.4472 35.113 29.5478 35.0202 29.6214 34.9073L32.9275 29.8319C33.5229 28.918 33.786 27.8273 33.6727 26.7424C33.5595 25.6576 33.0768 24.6447 32.3055 23.8734ZM32.1944 29.3543L28.9428 34.3459L25.6911 29.3543C24.6958 27.8264 24.9093 25.7816 26.1987 24.4921C26.5591 24.1318 26.9869 23.8459 27.4577 23.6509C27.9285 23.4559 28.4332 23.3555 28.9428 23.3555C29.4524 23.3555 29.957 23.4559 30.4279 23.6509C30.8987 23.8459 31.3265 24.1318 31.6868 24.4921C32.9763 25.7816 33.1897 27.8264 32.1944 29.3543Z" fill="white" stroke="white" stroke-width="0.5"/>
</svg>
