<svg width="26" height="26" viewBox="0 0 26 26" fill="none" xmlns="http://www.w3.org/2000/svg">
<path d="M19.8711 13.5654C19.7633 13.5654 19.66 13.6082 19.5838 13.6844C19.5076 13.7606 19.4648 13.8639 19.4648 13.9717V20.8779H6.46484V3.40918H10.5613C10.6571 3.97737 10.951 4.49325 11.3911 4.86528C11.8311 5.23731 12.3886 5.44144 12.9648 5.44144C13.5411 5.44144 14.0986 5.23731 14.5386 4.86528C14.9786 4.49325 15.2726 3.97737 15.3684 3.40918H19.4648V11.5342C19.4648 11.6419 19.5076 11.7453 19.5838 11.8214C19.66 11.8976 19.7633 11.9404 19.8711 11.9404C19.9788 11.9404 20.0822 11.8976 20.1584 11.8214C20.2345 11.7453 20.2773 11.6419 20.2773 11.5342V2.19043C20.2769 1.75959 20.1055 1.34653 19.8009 1.04188C19.4962 0.737231 19.0832 0.565881 18.6523 0.56543H7.27734C6.84652 0.565914 6.43347 0.737274 6.12883 1.04192C5.82419 1.34656 5.65283 1.7596 5.65234 2.19043V23.3154C5.65283 23.7463 5.82419 24.1593 6.12883 24.4639C6.43347 24.7686 6.84652 24.9399 7.27734 24.9404H18.6523C19.0832 24.94 19.4962 24.7686 19.8009 24.464C20.1055 24.1593 20.2769 23.7463 20.2773 23.3154V13.9717C20.2773 13.8639 20.2345 13.7606 20.1584 13.6844C20.0822 13.6082 19.9788 13.5654 19.8711 13.5654ZM7.27734 1.37793H18.6523C18.8678 1.37818 19.0743 1.46386 19.2266 1.61618C19.3789 1.7685 19.4646 1.97502 19.4648 2.19043V2.59668H14.9961C14.8883 2.59668 14.785 2.63948 14.7088 2.71567C14.6326 2.79185 14.5898 2.89519 14.5898 3.00293C14.5898 3.43391 14.4186 3.84723 14.1139 4.15198C13.8091 4.45672 13.3958 4.62793 12.9648 4.62793C12.5339 4.62793 12.1205 4.45672 11.8158 4.15198C11.511 3.84723 11.3398 3.43391 11.3398 3.00293C11.3398 2.89519 11.297 2.79185 11.2209 2.71567C11.1447 2.63948 11.0413 2.59668 10.9336 2.59668H6.46484V2.19043C6.46506 1.97501 6.55073 1.76847 6.70306 1.61614C6.85538 1.46382 7.06192 1.37814 7.27734 1.37793ZM18.6523 24.1279H7.27734C7.06192 24.1277 6.85538 24.042 6.70306 23.8897C6.55073 23.7374 6.46506 23.5309 6.46484 23.3154V21.6904H19.4648V23.3154C19.4646 23.5308 19.3789 23.7374 19.2266 23.8897C19.0743 24.042 18.8678 24.1277 18.6523 24.1279V24.1279Z" fill="#FF5C39" stroke="#FF5C39" stroke-width="0.5"/>
<path d="M12.9648 3.81543C13.4136 3.81543 13.7773 3.45166 13.7773 3.00293C13.7773 2.5542 13.4136 2.19043 12.9648 2.19043C12.5161 2.19043 12.1523 2.5542 12.1523 3.00293C12.1523 3.45166 12.5161 3.81543 12.9648 3.81543Z" fill="#FF5C39" stroke="#FF5C39" stroke-width="0.5"/>
<path d="M13.7773 22.5029H12.1523C12.0446 22.5029 11.9413 22.5457 11.8651 22.6219C11.7889 22.6981 11.7461 22.8014 11.7461 22.9092C11.7461 23.0169 11.7889 23.1203 11.8651 23.1964C11.9413 23.2726 12.0446 23.3154 12.1523 23.3154H13.7773C13.8851 23.3154 13.9884 23.2726 14.0646 23.1964C14.1408 23.1203 14.1836 23.0169 14.1836 22.9092C14.1836 22.8014 14.1408 22.6981 14.0646 22.6219C13.9884 22.5457 13.8851 22.5029 13.7773 22.5029Z" fill="#FF5C39" stroke="#FF5C39" stroke-width="0.5"/>
<path d="M12.9648 9.90918C12.6435 9.90918 12.3293 10.0045 12.062 10.183C11.7948 10.3616 11.5865 10.6154 11.4635 10.9123C11.3405 11.2092 11.3084 11.536 11.3711 11.8512C11.4338 12.1664 11.5885 12.456 11.8158 12.6832C12.0431 12.9105 12.3326 13.0653 12.6478 13.128C12.963 13.1907 13.2898 13.1585 13.5867 13.0355C13.8836 12.9125 14.1374 12.7042 14.316 12.437C14.4945 12.1698 14.5898 11.8556 14.5898 11.5342C14.5894 11.1034 14.418 10.6903 14.1134 10.3857C13.8087 10.081 13.3957 9.90966 12.9648 9.90918ZM12.9648 12.3467C12.8041 12.3467 12.6471 12.299 12.5134 12.2097C12.3798 12.1205 12.2757 11.9936 12.2142 11.8451C12.1527 11.6966 12.1366 11.5333 12.168 11.3757C12.1993 11.2181 12.2767 11.0733 12.3903 10.9597C12.504 10.846 12.6487 10.7686 12.8063 10.7373C12.9639 10.7059 13.1273 10.722 13.2758 10.7835C13.4242 10.845 13.5511 10.9492 13.6404 11.0828C13.7297 11.2164 13.7773 11.3735 13.7773 11.5342C13.7771 11.7496 13.6915 11.9561 13.5391 12.1085C13.3868 12.2608 13.1803 12.3465 12.9648 12.3467V12.3467Z" fill="#FF5C39" stroke="#FF5C39" stroke-width="0.5"/>
</svg>
