<svg width="26" height="26" viewBox="0 0 26 26" fill="none" xmlns="http://www.w3.org/2000/svg">
<path d="M7.58575 10.6143L10.1475 12.8561L4.91782 17.6495C4.88111 17.6831 4.85138 17.7237 4.83034 17.7688C4.8093 17.8139 4.79736 17.8628 4.79519 17.9125C4.79302 17.9623 4.80067 18.012 4.81771 18.0588C4.83475 18.1056 4.86084 18.1485 4.89448 18.1852C4.92813 18.222 4.96868 18.2517 5.01382 18.2727C5.05895 18.2938 5.10779 18.3057 5.15754 18.3079C5.20729 18.31 5.25698 18.3024 5.30378 18.2854C5.35057 18.2683 5.39355 18.2422 5.43027 18.2086L10.7217 13.3585L12.3708 14.8017C12.44 14.8623 12.5288 14.8957 12.6207 14.8957C12.7127 14.8957 12.8015 14.8623 12.8707 14.8017L14.5199 13.3587L19.8112 18.2086C19.8479 18.2422 19.8909 18.2683 19.9377 18.2854C19.9845 18.3024 20.0342 18.31 20.084 18.3079C20.1337 18.3057 20.1825 18.2938 20.2277 18.2727C20.2728 18.2517 20.3134 18.222 20.347 18.1852C20.3807 18.1485 20.4067 18.1056 20.4238 18.0588C20.4408 18.012 20.4485 17.9623 20.4463 17.9125C20.4441 17.8628 20.4322 17.8139 20.4111 17.7688C20.3901 17.7237 20.3604 17.6831 20.3237 17.6495L15.0942 12.8562L20.2374 8.35616C20.2749 8.32339 20.3056 8.28355 20.3277 8.23893C20.3498 8.1943 20.3628 8.14576 20.3662 8.09608C20.3695 8.0464 20.363 7.99654 20.3471 7.94937C20.3312 7.90219 20.3061 7.85861 20.2733 7.82112C20.2405 7.78363 20.2007 7.75297 20.1561 7.73087C20.1115 7.70878 20.0629 7.69569 20.0132 7.69236C19.9635 7.68902 19.9137 7.69551 19.8665 7.71144C19.8193 7.72737 19.7758 7.75244 19.7383 7.78522L12.6207 14.0122L8.43528 10.3499C9.61299 9.86347 10.5577 8.94156 11.0729 7.77609C11.588 6.61063 11.6338 5.29141 11.2008 4.093C10.7678 2.8946 9.88934 1.90935 8.74823 1.34231C7.60712 0.775276 6.29129 0.670147 5.07462 1.0488C3.85796 1.42746 2.83418 2.26073 2.21639 3.37518C1.5986 4.48963 1.43439 5.7994 1.75794 7.03187C2.08148 8.26434 2.86786 9.32456 3.95339 9.99185C5.03892 10.6591 6.33998 10.8821 7.58575 10.6143ZM2.38324 5.79569C2.38324 4.97078 2.62786 4.16439 3.08616 3.4785C3.54445 2.79261 4.19585 2.25802 4.95797 1.94234C5.72009 1.62666 6.5587 1.54406 7.36777 1.705C8.17683 1.86593 8.92 2.26316 9.5033 2.84646C10.0866 3.42977 10.4838 4.17294 10.6448 4.982C10.8057 5.79106 10.7231 6.62968 10.4074 7.3918C10.0917 8.15392 9.55716 8.80531 8.87127 9.26361C8.18538 9.72191 7.37899 9.96652 6.55408 9.96652C5.44829 9.96527 4.38815 9.52544 3.60624 8.74353C2.82433 7.96162 2.3845 6.90148 2.38324 5.79569Z" fill="#FF5C39" stroke="#FF5C39" stroke-width="0.5"/>
<path d="M21.7198 19.8248C21.8204 19.8248 21.9168 19.7849 21.9879 19.7137C22.059 19.6426 22.099 19.5462 22.099 19.4456V7.3123C22.0986 7.01072 21.9787 6.72159 21.7654 6.50834C21.5522 6.29509 21.263 6.17514 20.9615 6.1748H12.5743C12.4737 6.1748 12.3773 6.21475 12.3062 6.28586C12.2351 6.35697 12.1951 6.45341 12.1951 6.55397C12.1951 6.65453 12.2351 6.75098 12.3062 6.82208C12.3773 6.89319 12.4737 6.93314 12.5743 6.93314H20.9615C21.062 6.9332 21.1584 6.97317 21.2295 7.04426C21.3006 7.11535 21.3406 7.21176 21.3406 7.3123V19.0665H9.96563C9.88553 19.0666 9.80751 19.092 9.74271 19.139L6.17396 21.7343V19.4456C6.17396 19.3451 6.13401 19.2486 6.0629 19.1775C5.9918 19.1064 5.89535 19.0665 5.79479 19.0665H4.27813C4.17758 19.0664 4.08117 19.0264 4.01008 18.9553C3.93899 18.8843 3.89902 18.7878 3.89896 18.6873V11.0509C3.89896 10.9503 3.85901 10.8539 3.7879 10.7828C3.7168 10.7117 3.62035 10.6717 3.51979 10.6717C3.41923 10.6717 3.32279 10.7117 3.25168 10.7828C3.18057 10.8539 3.14062 10.9503 3.14062 11.0509V18.6873C3.14096 18.9889 3.26091 19.278 3.47416 19.4913C3.68741 19.7045 3.97654 19.8245 4.27813 19.8248H5.41563V22.479C5.41565 22.5489 5.435 22.6174 5.47156 22.677C5.50811 22.7367 5.56043 22.785 5.62273 22.8167C5.68504 22.8485 5.75491 22.8623 5.82461 22.8568C5.89432 22.8513 5.96114 22.8267 6.0177 22.7856L10.0889 19.8248H21.7198Z" fill="#FF5C39" stroke="#FF5C39" stroke-width="0.5"/>
<path d="M23.2369 8.4502H22.8577C22.7572 8.4502 22.6607 8.49014 22.5896 8.56125C22.5185 8.63236 22.4786 8.7288 22.4786 8.82936C22.4786 8.92992 22.5185 9.02637 22.5896 9.09747C22.6607 9.16858 22.7572 9.20853 22.8577 9.20853H23.2369C23.3374 9.20859 23.4339 9.24856 23.5049 9.31965C23.576 9.39074 23.616 9.48715 23.6161 9.5877V20.9627C23.616 21.0632 23.576 21.1596 23.5049 21.2307C23.4339 21.3018 23.3374 21.3418 23.2369 21.3419H21.7202C21.6197 21.3419 21.5232 21.3818 21.4521 21.4529C21.381 21.524 21.3411 21.6205 21.3411 21.721V24.046L17.3806 21.4056C17.3183 21.364 17.2451 21.3419 17.1702 21.3419H9.41628C9.31571 21.3419 9.21927 21.3818 9.14817 21.4529C9.07706 21.524 9.03711 21.6205 9.03711 21.721C9.03711 21.8216 9.07706 21.918 9.14817 21.9891C9.21927 22.0602 9.31571 22.1002 9.41628 22.1002H17.0555L21.5099 25.0698C21.567 25.1079 21.6334 25.1298 21.7019 25.1331C21.7705 25.1364 21.8386 25.121 21.8991 25.0886C21.9596 25.0563 22.0102 25.0081 22.0455 24.9492C22.0808 24.8903 22.0994 24.823 22.0994 24.7544V22.1002H23.2369C23.5385 22.0999 23.8276 21.9799 24.0409 21.7667C24.2541 21.5534 24.3741 21.2643 24.3744 20.9627V9.5877C24.3741 9.28611 24.2541 8.99698 24.0409 8.78373C23.8276 8.57048 23.5385 8.45053 23.2369 8.4502Z" fill="#FF5C39" stroke="#FF5C39" stroke-width="0.5"/>
</svg>
