<svg width="58" height="59" viewBox="0 0 58 59" fill="none" xmlns="http://www.w3.org/2000/svg">
<rect y="0.5" width="58" height="58" rx="6" fill="#3B3B46"/>
<path d="M36.3125 30C36.1965 30 36.0852 30.0461 36.0031 30.1281C35.9211 30.2102 35.875 30.3215 35.875 30.4375V37.875H21.875V19.0625H26.2865C26.3897 19.6744 26.7063 20.23 27.1801 20.6306C27.654 21.0313 28.2545 21.2511 28.875 21.2511C29.4955 21.2511 30.096 21.0313 30.5699 20.6306C31.0437 20.23 31.3603 19.6744 31.4635 19.0625H35.875V27.8125C35.875 27.9285 35.9211 28.0398 36.0031 28.1219C36.0852 28.2039 36.1965 28.25 36.3125 28.25C36.4285 28.25 36.5398 28.2039 36.6219 28.1219C36.7039 28.0398 36.75 27.9285 36.75 27.8125V17.75C36.7495 17.286 36.565 16.8412 36.2369 16.5131C35.9088 16.185 35.464 16.0005 35 16H22.75C22.286 16.0005 21.8412 16.1851 21.5131 16.5131C21.1851 16.8412 21.0005 17.286 21 17.75V40.5C21.0005 40.964 21.1851 41.4088 21.5131 41.7369C21.8412 42.0649 22.286 42.2495 22.75 42.25H35C35.464 42.2495 35.9088 42.065 36.2369 41.7369C36.565 41.4088 36.7495 40.964 36.75 40.5V30.4375C36.75 30.3215 36.7039 30.2102 36.6219 30.1281C36.5398 30.0461 36.4285 30 36.3125 30ZM22.75 16.875H35C35.232 16.8753 35.4544 16.9675 35.6184 17.1316C35.7825 17.2956 35.8747 17.518 35.875 17.75V18.1875H31.0625C30.9465 18.1875 30.8352 18.2336 30.7531 18.3156C30.6711 18.3977 30.625 18.509 30.625 18.625C30.625 19.0891 30.4406 19.5342 30.1124 19.8624C29.7842 20.1906 29.3391 20.375 28.875 20.375C28.4109 20.375 27.9658 20.1906 27.6376 19.8624C27.3094 19.5342 27.125 19.0891 27.125 18.625C27.125 18.509 27.0789 18.3977 26.9969 18.3156C26.9148 18.2336 26.8035 18.1875 26.6875 18.1875H21.875V17.75C21.8752 17.518 21.9675 17.2956 22.1315 17.1315C22.2956 16.9675 22.518 16.8752 22.75 16.875ZM35 41.375H22.75C22.518 41.3748 22.2956 41.2825 22.1315 41.1185C21.9675 40.9544 21.8752 40.732 21.875 40.5V38.75H35.875V40.5C35.8747 40.732 35.7825 40.9544 35.6184 41.1184C35.4544 41.2825 35.232 41.3747 35 41.375V41.375Z" fill="white" stroke="white" stroke-width="0.5"/>
<path d="M28.875 19.5C29.3582 19.5 29.75 19.1082 29.75 18.625C29.75 18.1418 29.3582 17.75 28.875 17.75C28.3918 17.75 28 18.1418 28 18.625C28 19.1082 28.3918 19.5 28.875 19.5Z" fill="white" stroke="white" stroke-width="0.5"/>
<path d="M29.75 39.625H28C27.884 39.625 27.7727 39.6711 27.6906 39.7531C27.6086 39.8352 27.5625 39.9465 27.5625 40.0625C27.5625 40.1785 27.6086 40.2898 27.6906 40.3719C27.7727 40.4539 27.884 40.5 28 40.5H29.75C29.866 40.5 29.9773 40.4539 30.0594 40.3719C30.1414 40.2898 30.1875 40.1785 30.1875 40.0625C30.1875 39.9465 30.1414 39.8352 30.0594 39.7531C29.9773 39.6711 29.866 39.625 29.75 39.625Z" fill="white" stroke="white" stroke-width="0.5"/>
<path d="M28.875 26.0625C28.5289 26.0625 28.1905 26.1651 27.9028 26.3574C27.615 26.5497 27.3907 26.823 27.2582 27.1428C27.1258 27.4626 27.0911 27.8144 27.1586 28.1539C27.2262 28.4934 27.3928 28.8052 27.6376 29.0499C27.8823 29.2947 28.1941 29.4613 28.5336 29.5289C28.8731 29.5964 29.2249 29.5617 29.5447 29.4293C29.8645 29.2968 30.1378 29.0725 30.3301 28.7847C30.5224 28.497 30.625 28.1586 30.625 27.8125C30.6245 27.3485 30.4399 26.9037 30.1119 26.5756C29.7838 26.2476 29.339 26.063 28.875 26.0625ZM28.875 28.6875C28.7019 28.6875 28.5328 28.6362 28.3889 28.54C28.245 28.4439 28.1328 28.3072 28.0666 28.1473C28.0004 27.9875 27.9831 27.8115 28.0168 27.6418C28.0506 27.4721 28.1339 27.3162 28.2563 27.1938C28.3787 27.0714 28.5346 26.9881 28.7043 26.9543C28.874 26.9206 29.05 26.9379 29.2099 27.0041C29.3697 27.0703 29.5064 27.1825 29.6025 27.3264C29.6987 27.4703 29.75 27.6394 29.75 27.8125C29.7498 28.0445 29.6575 28.2669 29.4935 28.431C29.3294 28.595 29.107 28.6873 28.875 28.6875V28.6875Z" fill="white" stroke="white" stroke-width="0.5"/>
</svg>
