<svg width="58" height="59" viewBox="0 0 58 59" fill="none" xmlns="http://www.w3.org/2000/svg">
<rect y="0.5" width="58" height="58" rx="6" fill="#3B3B46"/>
<g filter="url(#filter0_d_896_148078)">
<path d="M22.7534 26.2473L25.7093 28.8339L19.675 34.3648C19.6326 34.4036 19.5984 34.4504 19.5741 34.5025C19.5498 34.5545 19.536 34.6109 19.5335 34.6683C19.531 34.7257 19.5398 34.783 19.5595 34.837C19.5792 34.891 19.6093 34.9406 19.6481 34.983C19.6869 35.0253 19.7337 35.0596 19.7858 35.0839C19.8379 35.1082 19.8942 35.122 19.9516 35.1245C20.009 35.127 20.0664 35.1181 20.1203 35.0985C20.1743 35.0788 20.2239 35.0487 20.2663 35.0099L26.3718 29.4137L28.2746 31.0788C28.3544 31.1488 28.4569 31.1873 28.563 31.1873C28.6691 31.1873 28.7716 31.1488 28.8514 31.0788L30.7543 29.4139L36.8597 35.0099C36.9021 35.0487 36.9517 35.0788 37.0057 35.0985C37.0596 35.1181 37.117 35.127 37.1744 35.1245C37.2318 35.122 37.2881 35.1082 37.3402 35.0839C37.3923 35.0596 37.4391 35.0253 37.4779 34.983C37.5167 34.9406 37.5468 34.891 37.5665 34.837C37.5862 34.783 37.595 34.7257 37.5925 34.6683C37.59 34.6109 37.5762 34.5545 37.5519 34.5025C37.5276 34.4504 37.4933 34.4036 37.451 34.3648L31.4169 28.8341L37.3515 23.6417C37.3947 23.6039 37.4301 23.5579 37.4556 23.5065C37.4811 23.455 37.4962 23.399 37.5 23.3416C37.5039 23.2843 37.4964 23.2268 37.478 23.1723C37.4596 23.1179 37.4307 23.0676 37.3929 23.0244C37.3551 22.9811 37.3091 22.9457 37.2576 22.9202C37.2061 22.8947 37.1501 22.8796 37.0928 22.8758C37.0355 22.872 36.9779 22.8794 36.9235 22.8978C36.8691 22.9162 36.8188 22.9451 36.7755 22.9829L28.563 30.168L23.7336 25.9422C25.0925 25.3809 26.1826 24.3172 26.777 22.9724C27.3714 21.6277 27.4242 20.1055 26.9246 18.7227C26.425 17.3399 25.4114 16.2031 24.0947 15.5488C22.778 14.8945 21.2598 14.7732 19.8559 15.2102C18.4521 15.6471 17.2708 16.6085 16.558 17.8944C15.8451 19.1803 15.6557 20.6916 16.029 22.1137C16.4023 23.5358 17.3097 24.7591 18.5622 25.5291C19.8147 26.299 21.316 26.5563 22.7534 26.2473ZM16.7505 20.6873C16.7505 19.7355 17.0327 18.8051 17.5616 18.0137C18.0904 17.2222 18.842 16.6054 19.7213 16.2412C20.6007 15.8769 21.5683 15.7816 22.5019 15.9673C23.4354 16.153 24.2929 16.6113 24.966 17.2844C25.639 17.9574 26.0973 18.8149 26.283 19.7485C26.4687 20.682 26.3734 21.6496 26.0092 22.529C25.6449 23.4084 25.0281 24.16 24.2367 24.6888C23.4453 25.2176 22.5148 25.4998 21.563 25.4998C20.2871 25.4984 19.0639 24.9909 18.1616 24.0887C17.2594 23.1865 16.7519 21.9632 16.7505 20.6873Z" fill="white" stroke="white" stroke-width="0.5"/>
<path d="M39.0625 36.875C39.1785 36.875 39.2898 36.8289 39.3719 36.7469C39.4539 36.6648 39.5 36.5535 39.5 36.4375V22.4375C39.4996 22.0895 39.3612 21.7559 39.1152 21.5098C38.8691 21.2638 38.5355 21.1254 38.1875 21.125H28.51C28.394 21.125 28.2827 21.1711 28.2006 21.2531C28.1186 21.3352 28.0725 21.4465 28.0725 21.5625C28.0725 21.6785 28.1186 21.7898 28.2006 21.8719C28.2827 21.9539 28.394 22 28.51 22H38.1875C38.3035 22.0001 38.4148 22.0462 38.4968 22.1282C38.5788 22.2102 38.6249 22.3215 38.625 22.4375V36H25.5C25.4076 36.0001 25.3176 36.0294 25.2428 36.0837L21.125 39.0783V36.4375C21.125 36.3215 21.0789 36.2102 20.9969 36.1281C20.9148 36.0461 20.8035 36 20.6875 36H18.9375C18.8215 35.9999 18.7102 35.9538 18.6282 35.8718C18.5462 35.7898 18.5001 35.6785 18.5 35.5625V26.7512C18.5 26.6352 18.4539 26.5239 18.3719 26.4419C18.2898 26.3598 18.1785 26.3137 18.0625 26.3137C17.9465 26.3137 17.8352 26.3598 17.7531 26.4419C17.6711 26.5239 17.625 26.6352 17.625 26.7512V35.5625C17.6254 35.9105 17.7638 36.2441 18.0098 36.4902C18.2559 36.7362 18.5895 36.8746 18.9375 36.875H20.25V39.9375C20.25 40.0182 20.2724 40.0973 20.3145 40.1661C20.3567 40.2348 20.4171 40.2906 20.489 40.3272C20.5609 40.3638 20.6415 40.3798 20.7219 40.3735C20.8023 40.3672 20.8794 40.3387 20.9447 40.2913L25.6423 36.875H39.0625Z" fill="white" stroke="white" stroke-width="0.5"/>
<path d="M40.8121 23.75H40.3746C40.2586 23.75 40.1473 23.7961 40.0652 23.8781C39.9832 23.9602 39.9371 24.0715 39.9371 24.1875C39.9371 24.3035 39.9832 24.4148 40.0652 24.4969C40.1473 24.5789 40.2586 24.625 40.3746 24.625H40.8121C40.9281 24.6251 41.0394 24.6712 41.1214 24.7532C41.2034 24.8352 41.2495 24.9465 41.2496 25.0625V38.1875C41.2495 38.3035 41.2034 38.4148 41.1214 38.4968C41.0394 38.5788 40.9281 38.6249 40.8121 38.625H39.0621C38.9461 38.625 38.8348 38.6711 38.7527 38.7531C38.6707 38.8352 38.6246 38.9465 38.6246 39.0625V41.7452L34.0548 38.6985C33.9829 38.6506 33.8985 38.625 33.8121 38.625H24.8652C24.7492 38.625 24.6379 38.6711 24.5559 38.7531C24.4738 38.8352 24.4277 38.9465 24.4277 39.0625C24.4277 39.1785 24.4738 39.2898 24.5559 39.3719C24.6379 39.4539 24.7492 39.5 24.8652 39.5H33.6797L38.8194 42.9265C38.8853 42.9704 38.9619 42.9956 39.041 42.9995C39.1201 43.0033 39.1987 42.9856 39.2685 42.9482C39.3384 42.9109 39.3967 42.8552 39.4374 42.7873C39.4781 42.7194 39.4996 42.6417 39.4996 42.5625V39.5H40.8121C41.1601 39.4996 41.4937 39.3612 41.7398 39.1152C41.9858 38.8691 42.1242 38.5355 42.1246 38.1875V25.0625C42.1242 24.7145 41.9858 24.3809 41.7398 24.1348C41.4937 23.8888 41.1601 23.7504 40.8121 23.75Z" fill="white" stroke="white" stroke-width="0.5"/>
</g>
<defs>
<filter id="filter0_d_896_148078" x="10" y="14" width="38" height="38" filterUnits="userSpaceOnUse" color-interpolation-filters="sRGB">
<feFlood flood-opacity="0" result="BackgroundImageFix"/>
<feColorMatrix in="SourceAlpha" type="matrix" values="0 0 0 0 0 0 0 0 0 0 0 0 0 0 0 0 0 0 127 0" result="hardAlpha"/>
<feOffset dy="4"/>
<feGaussianBlur stdDeviation="2"/>
<feComposite in2="hardAlpha" operator="out"/>
<feColorMatrix type="matrix" values="0 0 0 0 0 0 0 0 0 0 0 0 0 0 0 0 0 0 0.25 0"/>
<feBlend mode="normal" in2="BackgroundImageFix" result="effect1_dropShadow_896_148078"/>
<feBlend mode="normal" in="SourceGraphic" in2="effect1_dropShadow_896_148078" result="shape"/>
</filter>
</defs>
</svg>
