<svg width="1682" height="353" viewBox="0 0 1682 353" fill="none" xmlns="http://www.w3.org/2000/svg">
<g clip-path="url(#clip0_1192_10534)">
<path d="M103.917 206.485C103.917 177.729 80.6541 154.417 51.9583 154.417C23.2625 154.417 9.6381e-07 177.729 6.20898e-07 206.485C2.77985e-07 235.241 23.2625 258.552 51.9583 258.552C80.6541 258.552 103.917 235.241 103.917 206.485Z" fill="#C8C8C8"/>
<path d="M217.499 197.274C217.499 150.462 179.629 112.513 132.915 112.513C86.2013 112.513 48.332 150.462 48.332 197.274C48.332 244.086 86.2013 282.035 132.915 282.035C179.629 282.035 217.499 244.086 217.499 197.274Z" fill="url(#paint0_linear_1192_10534)" fill-opacity="0.8"/>
<path d="M334.333 188.4C334.333 126.876 284.562 77.0002 223.167 77.0002C161.771 77.0002 112 126.876 112 188.4C112 249.925 161.771 299.8 223.167 299.8C284.562 299.8 334.333 249.925 334.333 188.4Z" fill="url(#paint1_linear_1192_10534)" fill-opacity="0.7"/>
<path d="M616.251 167.493C616.251 105.969 566.48 56.0933 505.085 56.0933C443.689 56.0933 393.918 105.969 393.918 167.493C393.918 229.018 443.689 278.893 505.085 278.893C566.48 278.893 616.251 229.018 616.251 167.493Z" fill="url(#paint2_linear_1192_10534)" fill-opacity="0.8"/>
<path d="M1469.33 167.493C1469.33 105.969 1419.56 56.0932 1358.17 56.0932C1296.77 56.0932 1247 105.969 1247 167.493C1247 229.018 1296.77 278.893 1358.17 278.893C1419.56 278.893 1469.33 229.018 1469.33 167.493Z" fill="url(#paint3_linear_1192_10534)" fill-opacity="0.7"/>
<path d="M466.417 166.966C466.417 120.154 428.547 82.2055 381.833 82.2055C335.119 82.2055 297.25 120.154 297.25 166.966C297.25 213.779 335.119 251.727 381.833 251.727C428.547 251.727 466.417 213.779 466.417 166.966Z" fill="url(#paint4_linear_1192_10534)" fill-opacity="0.7"/>
<path d="M1010.16 150.871C1010.16 68.6155 943.622 1.93408 861.539 1.93408C779.456 1.93408 712.914 68.6154 712.914 150.871C712.914 233.127 779.456 299.808 861.539 299.808C943.622 299.808 1010.16 233.127 1010.16 150.871Z" fill="url(#paint5_linear_1192_10534)" fill-opacity="0.7"/>
<path d="M374.667 174.03C374.667 147.28 353.027 125.595 326.333 125.595C299.64 125.595 278 147.28 278 174.03C278 200.779 299.64 222.464 326.333 222.464C353.027 222.464 374.667 200.779 374.667 174.03Z" fill="url(#paint6_linear_1192_10534)" fill-opacity="0.8"/>
<path d="M688.747 154.59C688.747 123.159 663.321 97.6795 631.956 97.6795C600.591 97.6795 575.164 123.159 575.164 154.59C575.164 186.021 600.591 211.501 631.956 211.501C663.321 211.501 688.747 186.021 688.747 154.59Z" fill="url(#paint7_linear_1192_10534)" fill-opacity="0.7"/>
<path d="M1302.58 166.196C1302.58 134.765 1277.16 109.285 1245.79 109.285C1214.43 109.285 1189 134.765 1189 166.196C1189 197.627 1214.43 223.107 1245.79 223.107C1277.16 223.107 1302.58 197.627 1302.58 166.196Z" fill="url(#paint8_linear_1192_10534)" fill-opacity="0.8"/>
<path d="M804.753 159.23C804.753 112.417 766.883 74.4687 720.169 74.4687C673.455 74.4687 635.586 112.417 635.586 159.23C635.586 206.042 673.455 243.99 720.169 243.99C766.883 243.99 804.753 206.042 804.753 159.23Z" fill="url(#paint9_linear_1192_10534)" fill-opacity="0.8"/>
<path d="M1527.33 176.638C1527.33 129.826 1489.47 91.8769 1442.75 91.8769C1396.04 91.8769 1358.17 129.826 1358.17 176.638C1358.17 223.45 1396.04 261.399 1442.75 261.399C1489.47 261.399 1527.33 223.45 1527.33 176.638Z" fill="url(#paint10_linear_1192_10534)" fill-opacity="0.8"/>
<path d="M1682 201.964C1682 175.883 1660.9 154.74 1634.88 154.74C1608.85 154.74 1587.75 175.883 1587.75 201.964C1587.75 228.045 1608.85 249.188 1634.88 249.188C1660.9 249.188 1682 228.045 1682 201.964Z" fill="url(#paint11_linear_1192_10534)" fill-opacity="0.8"/>
<path d="M1616.75 195.422C1616.75 174.022 1599.44 156.674 1578.08 156.674C1556.73 156.674 1539.42 174.022 1539.42 195.422C1539.42 216.822 1556.73 234.17 1578.08 234.17C1599.44 234.17 1616.75 216.822 1616.75 195.422Z" fill="url(#paint12_linear_1192_10534)" fill-opacity="0.8"/>
<path d="M1094.75 156.855C1094.75 95.3303 1044.98 45.4548 983.585 45.4548C922.189 45.4548 872.418 95.3303 872.418 156.855C872.418 218.379 922.189 268.255 983.585 268.255C1044.98 268.255 1094.75 218.379 1094.75 156.855Z" fill="url(#paint13_linear_1192_10534)" fill-opacity="0.8"/>
<path d="M1247 155.196C1247 82.3027 1188.03 23.2111 1115.29 23.2111C1042.55 23.2111 983.582 82.3027 983.582 155.196C983.582 228.089 1042.55 287.181 1115.29 287.181C1188.03 287.181 1247 228.089 1247 155.196Z" fill="url(#paint14_linear_1192_10534)" fill-opacity="0.7"/>
<path d="M1.49139e-07 200.261L7.97538e-08 206.079C3.71757e-08 209.65 3.18027 212.421 6.73002 212.037C654.84 141.829 1023.74 143.785 1675.29 212.063C1678.83 212.434 1682 209.665 1682 206.103L1682 200.283C1682 197.206 1679.61 194.621 1676.54 194.308C1025.49 127.788 654.569 125.279 5.43019 194.288C2.38001 194.613 1.85717e-07 197.193 1.49139e-07 200.261Z" fill="#3B3B46"/>
<path d="M48.332 199.015C48.332 188.984 40.2172 180.852 30.207 180.852C20.1969 180.852 12.082 188.984 12.082 199.015C12.082 209.046 20.1969 217.178 30.207 217.178C40.2172 217.178 48.332 209.046 48.332 199.015Z" fill="#383647"/>
<path d="M32.0471 209.422L28.526 209.422L28.526 191.624L23.332 193.482L23.332 190.361L31.596 187.178L32.0471 187.178L32.0471 209.422Z" fill="white"/>
<path d="M111.168 193.212C111.168 183.181 103.053 175.049 93.043 175.049C83.0328 175.049 74.918 183.181 74.918 193.212C74.918 203.244 83.0328 211.375 93.043 211.375C103.053 211.375 111.168 203.244 111.168 193.212Z" fill="#383647"/>
<path d="M101.31 203.641L87.189 203.641L87.189 201.014L94.1847 192.696C95.1943 191.469 95.9108 190.447 96.3339 189.629C96.7666 188.801 96.9831 187.973 96.9831 187.144C96.9831 186.054 96.6993 185.173 96.1319 184.503C95.5743 183.832 94.8194 183.496 93.8675 183.496C92.7327 183.496 91.8528 183.874 91.2277 184.628C90.6028 185.383 90.2901 186.416 90.2901 187.726L86.7852 187.726C86.7852 186.332 87.0735 185.079 87.6505 183.968C88.2372 182.846 89.0689 181.976 90.146 181.357C91.2327 180.739 92.4827 180.43 93.8963 180.43C95.9349 180.43 97.5408 180.991 98.714 182.112C99.8968 183.223 100.488 184.765 100.488 186.736C100.488 187.878 100.19 189.079 99.5939 190.337C99.0072 191.584 98.0407 193.005 96.6945 194.598L91.5594 200.59L101.31 200.59L101.31 203.641Z" fill="white"/>
<path d="M234.418 184.508C234.418 174.477 226.303 166.345 216.293 166.345C206.283 166.345 198.168 174.477 198.168 184.508C198.168 194.54 206.283 202.671 216.293 202.671C226.303 202.671 234.418 194.54 234.418 184.508Z" fill="#383647"/>
<path d="M213.239 182.768L215.464 182.768C216.587 182.758 217.474 182.458 218.126 181.868C218.787 181.279 219.118 180.425 219.118 179.308C219.118 178.233 218.842 177.4 218.291 176.81C217.75 176.21 216.918 175.911 215.795 175.911C214.813 175.911 214.006 176.205 213.374 176.795C212.742 177.374 212.427 178.134 212.427 179.076L208.773 179.076C208.773 177.917 209.069 176.862 209.66 175.911C210.262 174.959 211.094 174.219 212.156 173.692C213.229 173.154 214.427 172.885 215.75 172.885C217.935 172.885 219.649 173.454 220.892 174.592C222.145 175.719 222.772 177.291 222.772 179.308C222.772 180.322 222.456 181.279 221.824 182.179C221.203 183.068 220.396 183.74 219.404 184.196C220.606 184.62 221.519 185.287 222.14 186.197C222.772 187.107 223.088 188.193 223.088 189.455C223.088 191.483 222.411 193.096 221.058 194.296C219.714 195.496 217.945 196.096 215.75 196.096C213.645 196.096 211.921 195.517 210.577 194.358C209.234 193.2 208.563 191.658 208.563 189.735L212.216 189.735C212.216 190.728 212.537 191.534 213.179 192.155C213.83 192.776 214.702 193.086 215.795 193.086C216.928 193.086 217.82 192.776 218.471 192.155C219.123 191.534 219.449 190.635 219.449 189.455C219.449 188.266 219.108 187.35 218.426 186.709C217.745 186.068 216.732 185.747 215.389 185.747L213.239 185.747L213.239 182.768Z" fill="white"/>
<path d="M343.832 172.903C343.832 162.872 335.717 154.74 325.707 154.74C315.697 154.74 307.582 162.872 307.582 172.903C307.582 182.934 315.697 191.066 325.707 191.066C335.717 191.066 343.832 182.934 343.832 172.903Z" fill="#383647"/>
<path d="M329.307 175.25L331.787 175.25L331.787 178.357L329.307 178.357L329.307 183.523L325.977 183.523L325.977 178.357L317.358 178.357L317.262 175.998L325.867 160.312L329.307 160.312L329.307 175.25ZM320.756 175.25L325.977 175.25L325.977 165.556L325.73 166.066L320.756 175.25Z" fill="white"/>
<path d="M430.168 165.166C430.168 155.135 422.053 147.003 412.043 147.003C402.033 147.003 393.918 155.135 393.918 165.166C393.918 175.197 402.033 183.329 412.043 183.329C422.053 183.329 430.168 175.197 430.168 165.166Z" fill="#383647"/>
<path d="M405.256 164.57L406.46 153.027L418.379 153.027L418.379 156.33L409.539 156.33L408.929 161.802C409.956 161.193 411.114 160.891 412.404 160.891C414.518 160.891 416.159 161.587 417.327 162.982C418.506 164.376 419.095 166.252 419.095 168.61C419.095 170.939 418.445 172.795 417.144 174.177C415.844 175.552 414.061 176.238 411.795 176.238C409.763 176.238 408.076 175.646 406.735 174.462C405.404 173.265 404.682 171.692 404.57 169.743L408.152 169.743C408.294 170.855 408.68 171.71 409.311 172.307C409.94 172.894 410.763 173.189 411.78 173.189C412.917 173.189 413.801 172.767 414.432 171.93C415.072 171.09 415.392 169.948 415.392 168.501C415.392 167.107 415.041 166.007 414.34 165.199C413.639 164.381 412.674 163.973 411.444 163.973C410.773 163.973 410.205 164.067 409.737 164.255C409.27 164.433 408.762 164.79 408.213 165.325L405.256 164.57Z" fill="white"/>
<path d="M529.25 159.363C529.25 149.332 521.135 141.2 511.125 141.2C501.115 141.2 493 149.332 493 159.363C493 169.394 501.115 177.526 511.125 177.526C521.135 177.526 529.25 169.394 529.25 159.363Z" fill="#383647"/>
<path d="M514.821 147.286L514.821 150.432L514.368 150.432C512.315 150.464 510.674 151.048 509.446 152.185C508.218 153.321 507.488 154.934 507.257 157.022C508.435 155.738 509.939 155.097 511.771 155.097C513.714 155.097 515.244 155.807 516.361 157.224C517.489 158.645 518.052 160.474 518.052 162.718C518.052 165.035 517.393 166.912 516.075 168.352C514.766 169.782 513.045 170.497 510.911 170.497C508.716 170.497 506.935 169.656 505.566 167.977C504.207 166.298 503.527 164.096 503.527 161.371L503.527 160.072C503.527 156.078 504.463 152.947 506.336 150.683C508.218 148.42 510.921 147.286 514.444 147.286L514.821 147.286ZM510.881 158.164C510.075 158.164 509.335 158.398 508.661 158.869C507.997 159.337 507.508 159.964 507.196 160.745L507.196 161.904C507.196 163.595 507.538 164.942 508.223 165.943C508.908 166.934 509.793 167.429 510.881 167.429C511.968 167.429 512.828 167.005 513.462 166.162C514.096 165.316 514.414 164.204 514.414 162.829C514.414 161.45 514.091 160.329 513.447 159.463C512.803 158.598 511.948 158.164 510.881 158.164Z" fill="white"/>
<path d="M646.301 154.527C646.301 144.496 638.186 136.364 628.176 136.364C618.166 136.364 610.051 144.496 610.051 154.527C610.051 164.559 618.166 172.69 628.176 172.69C638.186 172.69 646.301 164.559 646.301 154.527Z" fill="#383647"/>
<path d="M635.611 145.186L627.233 166.245L623.562 166.245L631.926 146.143L621.086 146.143L621.086 143.034L635.611 143.034L635.611 145.186Z" fill="white"/>
<path d="M738.293 154.527C738.293 144.496 730.178 136.364 720.168 136.364C710.158 136.364 702.043 144.496 702.043 154.527C702.043 164.559 710.158 172.69 720.168 172.69C730.178 172.69 738.293 164.559 738.293 154.527Z" fill="#383647"/>
<path d="M727.542 148.879C727.542 149.986 727.263 150.974 726.704 151.844C726.146 152.702 725.385 153.379 724.421 153.875C725.578 154.425 726.466 155.173 727.085 156.127C727.714 157.077 728.029 158.153 728.029 159.353C728.029 161.338 727.369 162.917 726.05 164.085C724.73 165.244 722.974 165.823 720.782 165.823C718.579 165.823 716.813 165.239 715.483 164.07C714.164 162.9 713.504 161.328 713.504 159.353C713.504 158.143 713.818 157.058 714.448 156.095C715.077 155.132 715.96 154.394 717.097 153.875C716.143 153.379 715.387 152.702 714.828 151.844C714.28 150.974 714.006 149.986 714.006 148.879C714.006 146.956 714.615 145.43 715.833 144.303C717.051 143.174 718.696 142.612 720.766 142.612C722.847 142.612 724.497 143.174 725.715 144.303C726.933 145.43 727.542 146.956 727.542 148.879ZM724.329 159.167C724.329 158.05 723.999 157.151 723.339 156.466C722.69 155.775 721.827 155.427 720.751 155.427C719.675 155.427 718.813 155.77 718.163 156.452C717.523 157.134 717.204 158.04 717.204 159.167C717.204 160.274 717.518 161.157 718.148 161.819C718.787 162.482 719.665 162.814 720.782 162.814C721.898 162.814 722.766 162.491 723.385 161.851C724.015 161.211 724.329 160.316 724.329 159.167ZM723.857 149.019C723.857 148.036 723.578 147.229 723.02 146.599C722.462 145.958 721.71 145.638 720.766 145.638C719.822 145.638 719.076 145.941 718.528 146.552C717.98 147.154 717.706 147.975 717.706 149.019C717.706 150.055 717.98 150.876 718.528 151.487C719.086 152.096 719.838 152.401 720.782 152.401C721.726 152.401 722.472 152.096 723.02 151.487C723.578 150.876 723.857 150.055 723.857 149.019Z" fill="white"/>
<path d="M872.891 152.593C872.891 142.562 864.776 134.43 854.766 134.43C844.755 134.43 836.641 142.562 836.641 152.593C836.641 162.624 844.755 170.756 854.766 170.756C864.776 170.756 872.891 162.624 872.891 152.593Z" fill="#383647"/>
<path d="M857.853 154.571C856.608 155.918 855.154 156.592 853.491 156.592C851.532 156.592 849.971 155.894 848.807 154.495C847.644 153.083 847.063 151.235 847.063 148.948C847.063 147.445 847.359 146.083 847.95 144.862C848.542 143.64 849.384 142.69 850.476 142.009C851.568 141.331 852.833 140.993 854.271 140.993C856.516 140.993 858.297 141.849 859.613 143.561C860.929 145.274 861.588 147.566 861.588 150.436L861.588 151.502C861.588 155.615 860.679 158.753 858.863 160.915C857.047 163.076 854.338 164.172 850.736 164.204L850.292 164.204L850.292 161.055L850.828 161.055C853.022 161.026 854.705 160.488 855.879 159.442C857.052 158.388 857.71 156.765 857.853 154.571ZM854.271 153.616C855.016 153.616 855.715 153.397 856.368 152.957C857.021 152.521 857.526 151.914 857.883 151.141L857.883 149.654C857.883 147.973 857.547 146.621 856.873 145.597C856.2 144.573 855.328 144.062 854.256 144.062C853.185 144.062 852.328 144.516 851.685 145.424C851.052 146.323 850.736 147.46 850.736 148.839C850.736 150.27 851.057 151.423 851.7 152.301C852.343 153.177 853.2 153.616 854.271 153.616Z" fill="white"/>
<path d="M994.902 153.56C994.902 143.529 986.788 135.397 976.777 135.397C966.767 135.397 958.652 143.529 958.652 153.56C958.652 163.592 966.767 171.723 976.777 171.723C986.788 171.723 994.902 163.592 994.902 153.56Z" fill="#383647"/>
<path d="M973.048 162.911L969.814 162.911L969.814 147.798L965.043 149.374L965.043 146.724L972.634 144.021L973.048 144.021L973.048 162.911ZM988.283 154.986C988.283 157.693 987.757 159.736 986.706 161.115C985.664 162.486 984.073 163.17 981.935 163.17C979.832 163.17 978.246 162.502 977.177 161.166C976.117 159.821 975.573 157.833 975.547 155.206L975.547 151.947C975.547 149.24 976.068 147.211 977.11 145.856C978.162 144.504 979.761 143.828 981.908 143.828C984.038 143.828 985.623 144.488 986.666 145.805C987.717 147.125 988.256 149.099 988.283 151.727L988.283 154.986ZM985.035 151.468C985.035 149.702 984.786 148.409 984.287 147.59C983.788 146.763 982.995 146.349 981.908 146.349C980.848 146.349 980.068 146.74 979.569 147.525C979.07 148.301 978.807 149.517 978.781 151.171L978.781 155.438C978.781 157.196 979.035 158.508 979.542 159.369C980.05 160.231 980.848 160.663 981.935 160.663C982.977 160.663 983.748 160.265 984.247 159.473C984.746 158.671 985.009 157.42 985.035 155.723L985.035 151.468Z" fill="white"/>
<path d="M1141.12 159.363C1141.12 149.332 1133.01 141.2 1123 141.2C1112.99 141.2 1104.87 149.332 1104.87 159.363C1104.87 169.394 1112.99 177.526 1123 177.526C1133.01 177.526 1141.12 169.394 1141.12 159.363Z" fill="#383647"/>
<path d="M1119.2 168.576L1115.32 168.576L1115.32 153.1L1109.59 154.715L1109.59 152.001L1118.71 149.234L1119.2 149.234L1119.2 168.576ZM1132.83 168.576L1128.95 168.576L1128.95 153.1L1123.22 154.715L1123.22 152.001L1132.33 149.234L1132.83 149.234L1132.83 168.576Z" fill="white"/>
<path d="M1265.07 165.166C1265.07 155.135 1256.96 147.003 1246.95 147.003C1236.94 147.003 1228.82 155.135 1228.82 165.166C1228.82 175.197 1236.94 183.329 1246.95 183.329C1256.96 183.329 1265.07 175.197 1265.07 165.166Z" fill="#383647"/>
<path d="M1243.66 173.731L1240.48 173.731L1240.48 158.412L1235.79 160.01L1235.79 157.324L1243.26 154.585L1243.66 154.585L1243.66 173.731ZM1259.03 173.731L1246.17 173.731L1246.17 171.543L1252.54 164.61C1253.46 163.588 1254.12 162.735 1254.5 162.054C1254.89 161.365 1255.09 160.675 1255.09 159.984C1255.09 159.075 1254.83 158.342 1254.32 157.783C1253.81 157.223 1253.12 156.944 1252.25 156.944C1251.22 156.944 1250.42 157.258 1249.85 157.888C1249.28 158.516 1249 159.377 1249 160.469L1245.8 160.469C1245.8 159.306 1246.07 158.264 1246.59 157.337C1247.13 156.402 1247.88 155.677 1248.86 155.161C1249.85 154.647 1250.99 154.389 1252.28 154.389C1254.14 154.389 1255.6 154.855 1256.67 155.79C1257.75 156.717 1258.28 158.002 1258.28 159.643C1258.28 160.597 1258.01 161.596 1257.47 162.645C1256.94 163.683 1256.06 164.868 1254.83 166.196L1250.15 171.19L1259.03 171.19L1259.03 173.731Z" fill="white"/>
<path d="M1370.62 171.936C1370.62 161.905 1362.5 153.773 1352.49 153.773C1342.48 153.773 1334.37 161.905 1334.37 171.936C1334.37 181.967 1342.48 190.099 1352.49 190.099C1362.5 190.099 1370.62 181.967 1370.62 171.936Z" fill="#383647"/>
<path d="M1347.95 181.386L1344.69 181.386L1344.69 166.273L1339.89 167.849L1339.89 165.199L1347.54 162.496L1347.95 162.496L1347.95 181.386ZM1354.31 170.538L1356.3 170.538C1357.31 170.53 1358.1 170.279 1358.68 169.788C1359.28 169.298 1359.57 168.587 1359.57 167.656C1359.57 166.759 1359.32 166.065 1358.83 165.574C1358.35 165.073 1357.6 164.824 1356.6 164.824C1355.72 164.824 1354.99 165.069 1354.43 165.56C1353.86 166.042 1353.58 166.676 1353.58 167.462L1350.31 167.462C1350.31 166.497 1350.57 165.617 1351.1 164.824C1351.64 164.03 1352.39 163.415 1353.34 162.975C1354.3 162.527 1355.37 162.303 1356.56 162.303C1358.51 162.303 1360.05 162.777 1361.16 163.724C1362.28 164.663 1362.84 165.975 1362.84 167.656C1362.84 168.501 1362.56 169.297 1362 170.047C1361.44 170.788 1360.72 171.349 1359.83 171.727C1360.9 172.082 1361.72 172.638 1362.28 173.396C1362.84 174.156 1363.13 175.06 1363.13 176.111C1363.13 177.801 1362.52 179.146 1361.31 180.146C1360.11 181.146 1358.52 181.645 1356.56 181.645C1354.67 181.645 1353.13 181.162 1351.92 180.197C1350.72 179.231 1350.12 177.948 1350.12 176.343L1353.39 176.343C1353.39 177.172 1353.68 177.844 1354.25 178.362C1354.84 178.879 1355.62 179.138 1356.6 179.138C1357.61 179.138 1358.41 178.879 1358.99 178.362C1359.58 177.844 1359.87 177.095 1359.87 176.111C1359.87 175.121 1359.56 174.357 1358.95 173.823C1358.34 173.288 1357.44 173.021 1356.23 173.021L1354.31 173.021L1354.31 170.538Z" fill="white"/>
<path d="M1467.45 182.574C1467.45 172.543 1459.33 164.411 1449.32 164.411C1439.31 164.411 1431.2 172.543 1431.2 182.574C1431.2 192.605 1439.31 200.737 1449.32 200.737C1459.33 200.737 1467.45 192.605 1467.45 182.574Z" fill="#383647"/>
<path d="M1443.93 192.037L1440.79 192.037L1440.79 176.561L1436.16 178.175L1436.16 175.462L1443.53 172.694L1443.93 172.694L1443.93 192.037ZM1457.06 185.166L1459.4 185.166L1459.4 187.746L1457.06 187.746L1457.06 192.037L1453.91 192.037L1453.91 187.746L1445.76 187.746L1445.66 185.788L1453.8 172.761L1457.06 172.761L1457.06 185.166ZM1448.97 185.166L1453.91 185.166L1453.91 177.116L1453.67 177.539L1448.97 185.166Z" fill="white"/>
<path d="M1597.9 194.879C1597.9 184.848 1589.79 176.716 1579.78 176.716C1569.77 176.716 1561.65 184.848 1561.65 194.879C1561.65 204.911 1569.77 213.042 1579.78 213.042C1589.79 213.042 1597.9 204.911 1597.9 194.879Z" fill="#383647"/>
<path d="M1574.9 204.158L1571.71 204.158L1571.71 188.891L1567 190.484L1567 187.807L1574.49 185.077L1574.9 185.077L1574.9 204.158ZM1578.27 194.729L1579.31 185.143L1589.62 185.143L1589.62 187.885L1581.97 187.885L1581.45 192.43C1582.34 191.924 1583.34 191.673 1584.45 191.673C1586.28 191.673 1587.7 192.251 1588.71 193.41C1589.73 194.568 1590.24 196.126 1590.24 198.084C1590.24 200.018 1589.68 201.559 1588.55 202.707C1587.43 203.849 1585.89 204.419 1583.93 204.419C1582.17 204.419 1580.71 203.928 1579.55 202.944C1578.4 201.95 1577.77 200.644 1577.68 199.025L1580.77 199.025C1580.9 199.948 1581.23 200.658 1581.78 201.154C1582.32 201.642 1583.03 201.887 1583.91 201.887C1584.9 201.887 1585.66 201.537 1586.21 200.841C1586.76 200.144 1587.04 199.195 1587.04 197.994C1587.04 196.835 1586.73 195.922 1586.13 195.251C1585.52 194.572 1584.69 194.233 1583.62 194.233C1583.04 194.233 1582.55 194.311 1582.15 194.467C1581.74 194.615 1581.3 194.912 1580.83 195.356L1578.27 194.729Z" fill="white"/>
<path d="M1656.87 200.682C1656.87 190.651 1648.76 182.519 1638.75 182.519C1628.74 182.519 1620.63 190.651 1620.63 200.682C1620.63 210.713 1628.74 218.845 1638.75 218.845C1648.76 218.845 1656.87 210.713 1656.87 200.682Z" fill="#383647"/>
<path d="M1634.71 209.605L1631.52 209.605L1631.52 194.359L1626.8 195.95L1626.8 193.277L1634.31 190.55L1634.71 190.55L1634.71 209.605ZM1647.22 190.523L1647.22 193.145L1646.82 193.145C1645.03 193.172 1643.59 193.659 1642.52 194.606C1641.44 195.553 1640.81 196.897 1640.6 198.637C1641.63 197.567 1642.95 197.033 1644.55 197.033C1646.25 197.033 1647.59 197.624 1648.57 198.806C1649.55 199.989 1650.04 201.514 1650.04 203.383C1650.04 205.315 1649.47 206.878 1648.31 208.078C1647.17 209.27 1645.67 209.866 1643.8 209.866C1641.88 209.866 1640.32 209.165 1639.12 207.766C1637.94 206.367 1637.34 204.532 1637.34 202.262L1637.34 201.179C1637.34 197.85 1638.16 195.241 1639.8 193.355C1641.44 191.469 1643.81 190.523 1646.89 190.523L1647.22 190.523ZM1643.77 199.589C1643.07 199.589 1642.42 199.784 1641.83 200.176C1641.25 200.567 1640.82 201.088 1640.55 201.74L1640.55 202.705C1640.55 204.115 1640.85 205.237 1641.45 206.071C1642.05 206.897 1642.82 207.31 1643.77 207.31C1644.72 207.31 1645.48 206.957 1646.03 206.254C1646.59 205.549 1646.86 204.622 1646.86 203.476C1646.86 202.327 1646.58 201.392 1646.02 200.671C1645.45 199.95 1644.71 199.589 1643.77 199.589Z" fill="white"/>
<path d="M7.89844 114.82L5.25 114.82L5.25 112.957L7.35938 112.957C7.97656 112.957 8.47656 112.863 8.85938 112.676C9.24219 112.48 9.52344 112.207 9.70313 111.855C9.88281 111.504 9.97266 111.09 9.97266 110.613C9.97266 110.223 9.87109 109.863 9.66797 109.535C9.47266 109.207 9.16797 108.945 8.75391 108.75C8.33984 108.547 7.8125 108.445 7.17188 108.445C6.6875 108.445 6.24609 108.531 5.84766 108.703C5.44922 108.875 5.13281 109.117 4.89844 109.43C4.66406 109.734 4.54688 110.105 4.54688 110.543L1.04297 110.543C1.04297 109.793 1.20313 109.121 1.52344 108.527C1.85156 107.926 2.29688 107.418 2.85938 107.004C3.42969 106.582 4.08594 106.262 4.82813 106.043C5.57031 105.824 6.35156 105.715 7.17188 105.715C8.13281 105.715 9 105.82 9.77344 106.031C10.5469 106.234 11.2109 106.539 11.7656 106.945C12.3203 107.352 12.7461 107.855 13.043 108.457C13.3398 109.059 13.4883 109.758 13.4883 110.555C13.4883 111.141 13.3555 111.691 13.0898 112.207C12.8242 112.723 12.4453 113.176 11.9531 113.566C11.4609 113.957 10.8711 114.266 10.1836 114.492C9.49609 114.711 8.73438 114.82 7.89844 114.82ZM5.25 113.801L7.89844 113.801C8.82813 113.801 9.65234 113.898 10.3711 114.094C11.0977 114.289 11.7109 114.574 12.2109 114.949C12.7188 115.324 13.1016 115.789 13.3594 116.344C13.625 116.891 13.7578 117.52 13.7578 118.23C13.7578 119.027 13.5938 119.734 13.2656 120.352C12.9453 120.969 12.4883 121.492 11.8945 121.922C11.3086 122.352 10.6133 122.676 9.80859 122.895C9.01172 123.113 8.13281 123.223 7.17188 123.223C6.40625 123.223 5.64453 123.129 4.88672 122.941C4.12891 122.746 3.44141 122.449 2.82422 122.051C2.20703 121.652 1.71484 121.141 1.34766 120.516C0.980469 119.891 0.796875 119.141 0.796875 118.266L4.32422 118.266C4.32422 118.68 4.44531 119.059 4.6875 119.402C4.92969 119.738 5.26563 120.008 5.69531 120.211C6.125 120.406 6.61719 120.504 7.17188 120.504C7.82031 120.504 8.37109 120.402 8.82422 120.199C9.28516 119.996 9.63281 119.719 9.86719 119.367C10.1094 119.008 10.2305 118.613 10.2305 118.184C10.2305 117.723 10.168 117.332 10.043 117.012C9.91797 116.691 9.73438 116.43 9.49219 116.227C9.25 116.016 8.94922 115.863 8.58984 115.77C8.23828 115.676 7.82813 115.629 7.35938 115.629L5.25 115.629L5.25 113.801ZM23.2969 108.855L18.6563 123L14.918 123L21.2578 105.938L23.6367 105.938L23.2969 108.855ZM27.1523 123L22.5 108.855L22.125 105.938L24.5273 105.938L30.9023 123L27.1523 123ZM26.9414 116.648L26.9414 119.402L17.9297 119.402L17.9297 116.648L26.9414 116.648ZM36.0117 105.938L36.0117 123L32.4961 123L32.4961 105.938L36.0117 105.938ZM46.0664 105.938L39.5273 115.957L35.2266 115.957L34.7813 112.828L37.6523 112.828L41.8008 105.938L46.0664 105.938ZM42.4453 123L37.6641 115.371L40.1016 112.863L46.6172 123L42.4453 123ZM54.9375 108.855L50.2969 123L46.5586 123L52.8984 105.938L55.2773 105.938L54.9375 108.855ZM58.793 123L54.1406 108.855L53.7656 105.938L56.168 105.938L62.543 123L58.793 123ZM58.582 116.648L58.582 119.402L49.5703 119.402L49.5703 116.648L58.582 116.648ZM70.5 114.82L67.8516 114.82L67.8516 112.957L69.9609 112.957C70.5781 112.957 71.0781 112.863 71.4609 112.676C71.8438 112.48 72.125 112.207 72.3047 111.855C72.4844 111.504 72.5742 111.09 72.5742 110.613C72.5742 110.223 72.4727 109.863 72.2695 109.535C72.0742 109.207 71.7695 108.945 71.3555 108.75C70.9414 108.547 70.4141 108.445 69.7734 108.445C69.2891 108.445 68.8477 108.531 68.4492 108.703C68.0508 108.875 67.7344 109.117 67.5 109.43C67.2656 109.734 67.1484 110.105 67.1484 110.543L63.6445 110.543C63.6445 109.793 63.8047 109.121 64.125 108.527C64.4531 107.926 64.8984 107.418 65.4609 107.004C66.0313 106.582 66.6875 106.262 67.4297 106.043C68.1719 105.824 68.9531 105.715 69.7734 105.715C70.7344 105.715 71.6016 105.82 72.375 106.031C73.1484 106.234 73.8125 106.539 74.3672 106.945C74.9219 107.352 75.3477 107.855 75.6445 108.457C75.9414 109.059 76.0898 109.758 76.0898 110.555C76.0898 111.141 75.957 111.691 75.6914 112.207C75.4258 112.723 75.0469 113.176 74.5547 113.566C74.0625 113.957 73.4727 114.266 72.7852 114.492C72.0977 114.711 71.3359 114.82 70.5 114.82ZM67.8516 113.801L70.5 113.801C71.4297 113.801 72.2539 113.898 72.9727 114.094C73.6992 114.289 74.3125 114.574 74.8125 114.949C75.3203 115.324 75.7031 115.789 75.9609 116.344C76.2266 116.891 76.3594 117.52 76.3594 118.23C76.3594 119.027 76.1953 119.734 75.8672 120.352C75.5469 120.969 75.0898 121.492 74.4961 121.922C73.9102 122.352 73.2148 122.676 72.4102 122.895C71.6133 123.113 70.7344 123.223 69.7734 123.223C69.0078 123.223 68.2461 123.129 67.4883 122.941C66.7305 122.746 66.043 122.449 65.4258 122.051C64.8086 121.652 64.3164 121.141 63.9492 120.516C63.582 119.891 63.3984 119.141 63.3984 118.266L66.9258 118.266C66.9258 118.68 67.0469 119.059 67.2891 119.402C67.5313 119.738 67.8672 120.008 68.2969 120.211C68.7266 120.406 69.2188 120.504 69.7734 120.504C70.4219 120.504 70.9727 120.402 71.4258 120.199C71.8867 119.996 72.2344 119.719 72.4688 119.367C72.7109 119.008 72.832 118.613 72.832 118.184C72.832 117.723 72.7695 117.332 72.6445 117.012C72.5195 116.691 72.3359 116.43 72.0938 116.227C71.8516 116.016 71.5508 115.863 71.1914 115.77C70.8398 115.676 70.4297 115.629 69.9609 115.629L67.8516 115.629L67.8516 113.801ZM79.0664 105.938L82.5938 105.938L82.5938 111.176C82.5938 111.926 82.707 112.512 82.9336 112.934C83.168 113.355 83.5195 113.652 83.9883 113.824C84.4648 113.988 85.0547 114.07 85.7578 114.07C86.0234 114.07 86.3359 114.059 86.6953 114.035C87.0625 114.012 87.4375 113.977 87.8203 113.93C88.2031 113.875 88.5703 113.816 88.9219 113.754C89.2734 113.684 89.5664 113.605 89.8008 113.52L89.8008 116.262C89.5664 116.34 89.2734 116.414 88.9219 116.484C88.5703 116.555 88.2031 116.617 87.8203 116.672C87.4375 116.719 87.0625 116.754 86.6953 116.777C86.3359 116.801 86.0234 116.813 85.7578 116.813C84.3984 116.813 83.2188 116.617 82.2188 116.227C81.2188 115.836 80.4414 115.227 79.8867 114.398C79.3398 113.563 79.0664 112.488 79.0664 111.176L79.0664 105.938ZM89.0625 105.938L92.5781 105.938L92.5781 123L89.0625 123L89.0625 105.938ZM99.0117 117.469L105.867 105.938L109.383 105.938L109.383 123L105.867 123L105.867 111.469L99.0117 123L95.4961 123L95.4961 105.938L99.0117 105.938L99.0117 117.469ZM115.957 105.938L115.957 123L112.441 123L112.441 105.938L115.957 105.938ZM126.012 105.938L119.473 115.957L115.172 115.957L114.727 112.828L117.598 112.828L121.746 105.938L126.012 105.938ZM122.391 123L117.609 115.371L120.047 112.863L126.563 123L122.391 123Z" fill="#383647"/>
<path d="M5.26172 295.938L5.26172 313L1.75781 313L1.75781 295.938L5.26172 295.938ZM10.1602 295.938L13.1367 295.938L17.5195 308.465L21.9023 295.938L24.8789 295.938L18.7148 313L16.3242 313L10.1602 295.938ZM8.55469 295.938L11.5195 295.938L12.0586 308.148L12.0586 313L8.55469 313L8.55469 295.938ZM23.5195 295.938L26.4961 295.938L26.4961 313L22.9805 313L22.9805 308.148L23.5195 295.938ZM36.7266 298.855L32.0859 313L28.3477 313L34.6875 295.938L37.0664 295.938L36.7266 298.855ZM40.582 313L35.9297 298.855L35.5547 295.938L37.957 295.938L44.332 313L40.582 313ZM40.3711 306.648L40.3711 309.402L31.3594 309.402L31.3594 306.648L40.3711 306.648ZM45.9141 295.938L52.2773 295.938C53.582 295.938 54.7031 296.133 55.6406 296.523C56.5859 296.914 57.3125 297.492 57.8203 298.258C58.3281 299.023 58.582 299.965 58.582 301.082C58.582 301.996 58.4258 302.781 58.1133 303.438C57.8086 304.086 57.375 304.629 56.8125 305.066C56.2578 305.496 55.6055 305.84 54.8555 306.098L53.7422 306.684L48.2109 306.684L48.1875 303.941L52.3008 303.941C52.918 303.941 53.4297 303.832 53.8359 303.613C54.2422 303.395 54.5469 303.09 54.75 302.699C54.9609 302.309 55.0664 301.855 55.0664 301.34C55.0664 300.793 54.9648 300.32 54.7617 299.922C54.5586 299.523 54.25 299.219 53.8359 299.008C53.4219 298.797 52.9023 298.691 52.2773 298.691L49.4297 298.691L49.4297 313L45.9141 313L45.9141 295.938ZM55.4531 313L51.5625 305.395L55.2773 305.371L59.2148 312.836L59.2148 313L55.4531 313ZM65.0273 295.938L65.0273 313L61.5234 313L61.5234 295.938L65.0273 295.938ZM77.2031 308.535C77.2031 308.23 77.1563 307.957 77.0625 307.715C76.9766 307.465 76.8125 307.238 76.5703 307.035C76.3281 306.824 75.9883 306.617 75.5508 306.414C75.1133 306.211 74.5469 306 73.8516 305.781C73.0781 305.531 72.3438 305.25 71.6484 304.938C70.9609 304.625 70.3516 304.262 69.8203 303.848C69.2969 303.426 68.8828 302.938 68.5781 302.383C68.2813 301.828 68.1328 301.184 68.1328 300.449C68.1328 299.738 68.2891 299.094 68.6016 298.516C68.9141 297.93 69.3516 297.43 69.9141 297.016C70.4766 296.594 71.1406 296.27 71.9063 296.043C72.6797 295.816 73.5273 295.703 74.4492 295.703C75.707 295.703 76.8047 295.93 77.7422 296.383C78.6797 296.836 79.4063 297.457 79.9219 298.246C80.4453 299.035 80.707 299.938 80.707 300.953L77.2148 300.953C77.2148 300.453 77.1094 300.016 76.8984 299.641C76.6953 299.258 76.3828 298.957 75.9609 298.738C75.5469 298.52 75.0234 298.41 74.3906 298.41C73.7813 298.41 73.2734 298.504 72.8672 298.691C72.4609 298.871 72.1563 299.117 71.9531 299.43C71.75 299.734 71.6484 300.078 71.6484 300.461C71.6484 300.75 71.7188 301.012 71.8594 301.246C72.0078 301.48 72.2266 301.699 72.5156 301.902C72.8047 302.105 73.1602 302.297 73.582 302.477C74.0039 302.656 74.4922 302.832 75.0469 303.004C75.9766 303.285 76.793 303.602 77.4961 303.953C78.207 304.305 78.8008 304.699 79.2773 305.137C79.7539 305.574 80.1133 306.07 80.3555 306.625C80.5977 307.18 80.7188 307.809 80.7188 308.512C80.7188 309.254 80.5742 309.918 80.2852 310.504C79.9961 311.09 79.5781 311.586 79.0313 311.992C78.4844 312.398 77.832 312.707 77.0742 312.918C76.3164 313.129 75.4688 313.234 74.5313 313.234C73.6875 313.234 72.8555 313.125 72.0352 312.906C71.2148 312.68 70.4688 312.34 69.7969 311.887C69.1328 311.434 68.6016 310.855 68.2031 310.152C67.8047 309.449 67.6055 308.617 67.6055 307.656L71.1328 307.656C71.1328 308.188 71.2148 308.637 71.3789 309.004C71.543 309.371 71.7734 309.668 72.0703 309.895C72.375 310.121 72.7344 310.285 73.1484 310.387C73.5703 310.488 74.0313 310.539 74.5313 310.539C75.1406 310.539 75.6406 310.453 76.0313 310.281C76.4297 310.109 76.7227 309.871 76.9102 309.566C77.1055 309.262 77.2031 308.918 77.2031 308.535Z" fill="#383647"/>
</g>
<defs>
<linearGradient id="paint0_linear_1192_10534" x1="59.5" y1="144.5" x2="181" y2="266.5" gradientUnits="userSpaceOnUse">
<stop stop-color="#FF9F50"/>
<stop offset="1" stop-color="#FF4523"/>
</linearGradient>
<linearGradient id="paint1_linear_1192_10534" x1="148.918" y1="95.1304" x2="287.918" y2="281.63" gradientUnits="userSpaceOnUse">
<stop stop-color="#FF9F50"/>
<stop offset="1" stop-color="#FF4523"/>
</linearGradient>
<linearGradient id="paint2_linear_1192_10534" x1="416" y1="84.0002" x2="584.5" y2="255" gradientUnits="userSpaceOnUse">
<stop stop-color="#FF9F50"/>
<stop offset="1" stop-color="#FF4523"/>
</linearGradient>
<linearGradient id="paint3_linear_1192_10534" x1="1265" y1="96.5002" x2="1422" y2="267" gradientUnits="userSpaceOnUse">
<stop stop-color="#8CA9FF"/>
<stop offset="1" stop-color="#5E31F9"/>
</linearGradient>
<linearGradient id="paint4_linear_1192_10534" x1="322.5" y1="103.5" x2="432" y2="235.5" gradientUnits="userSpaceOnUse">
<stop stop-color="#FF9F50"/>
<stop offset="1" stop-color="#FF4523"/>
</linearGradient>
<linearGradient id="paint5_linear_1192_10534" x1="763" y1="49" x2="945.5" y2="275" gradientUnits="userSpaceOnUse">
<stop stop-color="#FF5FC1"/>
<stop offset="1" stop-color="#9467F4"/>
</linearGradient>
<linearGradient id="paint6_linear_1192_10534" x1="287" y1="143" x2="351" y2="216" gradientUnits="userSpaceOnUse">
<stop stop-color="#FF9F50"/>
<stop offset="1" stop-color="#FF4523"/>
</linearGradient>
<linearGradient id="paint7_linear_1192_10534" x1="581.5" y1="116" x2="661" y2="198" gradientUnits="userSpaceOnUse">
<stop stop-color="#6DF0CA"/>
<stop offset="1" stop-color="#48A5FF"/>
</linearGradient>
<linearGradient id="paint8_linear_1192_10534" x1="1199.5" y1="127.5" x2="1271.5" y2="215" gradientUnits="userSpaceOnUse">
<stop stop-color="#8CA9FF"/>
<stop offset="1" stop-color="#5E31F9"/>
</linearGradient>
<linearGradient id="paint9_linear_1192_10534" x1="676" y1="95.5002" x2="769.5" y2="230" gradientUnits="userSpaceOnUse">
<stop stop-color="#6DF0CA"/>
<stop offset="1" stop-color="#48A5FF"/>
</linearGradient>
<linearGradient id="paint10_linear_1192_10534" x1="1384.5" y1="118" x2="1500.5" y2="240.5" gradientUnits="userSpaceOnUse">
<stop stop-color="#8CA9FF"/>
<stop offset="1" stop-color="#5E31F9"/>
</linearGradient>
<linearGradient id="paint11_linear_1192_10534" x1="1599" y1="171.5" x2="1665.5" y2="240.5" gradientUnits="userSpaceOnUse">
<stop stop-color="#FEDB60"/>
<stop offset="1" stop-color="#F69272"/>
</linearGradient>
<linearGradient id="paint12_linear_1192_10534" x1="1552.5" y1="167.5" x2="1597.5" y2="223" gradientUnits="userSpaceOnUse">
<stop stop-color="#FEDB60"/>
<stop offset="1" stop-color="#F79272"/>
</linearGradient>
<linearGradient id="paint13_linear_1192_10534" x1="905.5" y1="72.5" x2="1032" y2="259" gradientUnits="userSpaceOnUse">
<stop stop-color="#FF5FC1"/>
<stop offset="1" stop-color="#9467F4"/>
</linearGradient>
<linearGradient id="paint14_linear_1192_10534" x1="1028" y1="55.5" x2="1187.5" y2="256.5" gradientUnits="userSpaceOnUse">
<stop stop-color="#8CA9FF"/>
<stop offset="1" stop-color="#5E31F9"/>
</linearGradient>
<clipPath id="clip0_1192_10534">
<rect width="353" height="1682" fill="white" transform="translate(0 353) rotate(-90)"/>
</clipPath>
</defs>
</svg>
