<svg width="144" height="692" viewBox="0 0 144 692" fill="none" xmlns="http://www.w3.org/2000/svg">
<g clip-path="url(#clip0_1192_10636)">
<path d="M84.2327 42.7529C72.5022 42.7529 62.9927 33.1823 62.9927 21.3764C62.9927 9.57056 72.5022 0 84.2327 0C95.9632 0 105.473 9.57056 105.473 21.3764C105.473 33.1823 95.9632 42.7529 84.2327 42.7529Z" fill="#C8C8C8"/>
<path d="M80.4741 89.4822C61.3779 89.4822 45.8974 73.9022 45.8974 54.6834C45.8974 35.4645 61.3779 19.8845 80.4741 19.8845C99.5703 19.8845 115.051 35.4645 115.051 54.6834C115.051 73.9022 99.5703 89.4822 80.4741 89.4822Z" fill="url(#paint0_linear_1192_10636)" fill-opacity="0.8"/>
<path d="M76.8532 137.55C51.7554 137.55 31.4096 117.073 31.4096 91.814C31.4096 66.5549 51.7554 46.0784 76.8532 46.0784C101.951 46.0784 122.297 66.5549 122.297 91.814C122.297 117.073 101.951 137.55 76.8532 137.55Z" fill="url(#paint1_linear_1192_10636)" fill-opacity="0.7"/>
<path d="M68.3259 253.534C43.2281 253.534 22.8823 233.058 22.8823 207.799C22.8823 182.54 43.2281 162.063 68.3259 162.063C93.4237 162.063 113.77 182.54 113.77 207.799C113.77 233.058 93.4237 253.534 68.3259 253.534Z" fill="url(#paint2_linear_1192_10636)" fill-opacity="0.8"/>
<path d="M68.3259 604.506C43.2281 604.506 22.8822 584.03 22.8822 558.771C22.8822 533.512 43.2281 513.035 68.3259 513.035C93.4237 513.035 113.77 533.512 113.77 558.771C113.77 584.03 93.4237 604.506 68.3259 604.506Z" fill="url(#paint3_linear_1192_10636)" fill-opacity="0.7"/>
<path d="M68.1108 191.89C49.0146 191.89 33.5341 176.31 33.5341 157.092C33.5341 137.873 49.0146 122.293 68.1108 122.293C87.207 122.293 102.688 137.873 102.688 157.092C102.688 176.31 87.207 191.89 68.1108 191.89Z" fill="url(#paint4_linear_1192_10636)" fill-opacity="0.7"/>
<path d="M61.5446 415.597C27.9899 415.597 0.788429 388.221 0.788429 354.451C0.788429 320.68 27.9899 293.304 61.5446 293.304C95.0993 293.304 122.301 320.68 122.301 354.451C122.301 388.221 95.0993 415.597 61.5446 415.597Z" fill="url(#paint5_linear_1192_10636)" fill-opacity="0.7"/>
<path d="M70.9919 154.143C60.0798 154.143 51.2338 145.241 51.2338 134.258C51.2338 123.276 60.0798 114.373 70.9919 114.373C81.904 114.373 90.75 123.276 90.75 134.258C90.75 145.241 81.904 154.143 70.9919 154.143Z" fill="url(#paint6_linear_1192_10636)" fill-opacity="0.8"/>
<path d="M63.0616 283.361C50.2398 283.361 39.8458 272.901 39.8458 259.997C39.8458 247.092 50.2398 236.632 63.0616 236.632C75.8833 236.632 86.2773 247.092 86.2773 259.997C86.2773 272.901 75.8833 283.361 63.0616 283.361Z" fill="url(#paint7_linear_1192_10636)" fill-opacity="0.7"/>
<path d="M67.7959 535.902C54.9742 535.902 44.5802 525.441 44.5802 512.537C44.5802 499.633 54.9742 489.172 67.7959 489.172C80.6177 489.172 91.0117 499.633 91.0117 512.537C91.0117 525.441 80.6177 535.902 67.7959 535.902Z" fill="url(#paint8_linear_1192_10636)" fill-opacity="0.8"/>
<path d="M64.9546 331.086C45.8584 331.086 30.3779 315.507 30.3779 296.288C30.3779 277.069 45.8584 261.489 64.9546 261.489C84.0507 261.489 99.5312 277.069 99.5312 296.288C99.5312 315.507 84.0507 331.086 64.9546 331.086Z" fill="url(#paint9_linear_1192_10636)" fill-opacity="0.8"/>
<path d="M72.0561 628.368C52.96 628.368 37.4794 612.788 37.4794 593.569C37.4794 574.35 52.96 558.77 72.0561 558.77C91.1523 558.77 106.633 574.35 106.633 593.569C106.633 612.788 91.1523 628.368 72.0561 628.368Z" fill="url(#paint10_linear_1192_10636)" fill-opacity="0.8"/>
<path d="M82.3882 692C71.7489 692 63.124 683.32 63.124 672.612C63.124 661.904 71.7489 653.224 82.3882 653.224C93.0275 653.224 101.652 661.904 101.652 672.612C101.652 683.32 93.0275 692 82.3882 692Z" fill="url(#paint11_linear_1192_10636)" fill-opacity="0.8"/>
<path d="M79.717 665.155C70.9873 665.155 63.9105 658.033 63.9105 649.247C63.9105 640.461 70.9873 633.339 79.717 633.339C88.4466 633.339 95.5234 640.461 95.5234 649.247C95.5234 658.033 88.4466 665.155 79.717 665.155Z" fill="url(#paint12_linear_1192_10636)" fill-opacity="0.8"/>
<path d="M63.986 450.397C38.8882 450.397 18.5424 429.921 18.5424 404.661C18.5424 379.402 38.8882 358.926 63.986 358.926C89.0839 358.926 109.43 379.402 109.43 404.661C109.43 429.921 89.0839 450.397 63.986 450.397Z" fill="url(#paint13_linear_1192_10636)" fill-opacity="0.8"/>
<path d="M63.3076 513.035C33.5722 513.035 9.4668 488.774 9.4668 458.848C9.4668 428.921 33.5722 404.661 63.3076 404.661C93.0431 404.661 117.148 428.921 117.148 458.848C117.148 488.774 93.0431 513.035 63.3076 513.035Z" fill="url(#paint14_linear_1192_10636)" fill-opacity="0.7"/>
<path d="M79.1563 688.701C52.1602 421.852 51.1436 269.35 79.1443 3.28368C79.3385 1.43856 80.8988 0 82.7541 0C84.911 0 86.5861 1.91719 86.3562 4.06178C57.9036 269.475 58.6955 421.129 86.3718 687.95C86.5938 690.091 84.92 692 82.768 692C80.9068 692 79.3436 690.553 79.1563 688.701Z" fill="#3B3B46"/>
<path d="M81.1845 19.8842C77.0924 19.8842 73.7752 16.5457 73.7752 12.4274C73.7752 8.30902 77.0924 4.97046 81.1845 4.97046C85.2765 4.97046 88.5938 8.30902 88.5938 12.4274C88.5938 16.5457 85.2765 19.8842 81.1845 19.8842Z" fill="#383647"/>
<path d="M82.6871 15.9285H81.2385L81.2385 8.66805L79.1016 9.42576L79.1016 8.15255L82.5015 6.85449H82.6871L82.6871 15.9285Z" fill="white"/>
<path d="M78.8173 45.7361C74.7252 45.7361 71.408 42.3975 71.408 38.2792C71.408 34.1608 74.7252 30.8223 78.8173 30.8223C82.9093 30.8223 86.2266 34.1608 86.2266 38.2792C86.2266 42.3975 82.9093 45.7361 78.8173 45.7361Z" fill="#383647"/>
<path d="M81.3235 43.4263H75.5138L75.5138 42.3549L78.3919 38.9614C78.8073 38.461 79.1021 38.0441 79.2762 37.7105C79.4542 37.3726 79.5433 37.0348 79.5433 36.6969C79.5433 36.2521 79.4265 35.8929 79.193 35.6192C78.9636 35.3455 78.6531 35.2087 78.2614 35.2087C77.7945 35.2087 77.4326 35.3626 77.1754 35.6705C76.9183 35.9785 76.7896 36.3997 76.7896 36.9343H75.3477C75.3477 36.3654 75.4663 35.8544 75.7037 35.4011C75.9451 34.9435 76.2872 34.5885 76.7304 34.3362C77.1774 34.0839 77.6917 33.9578 78.2733 33.9578C79.112 33.9578 79.7727 34.1866 80.2554 34.6442C80.742 35.0974 80.9852 35.7261 80.9852 36.5302C80.9852 36.9963 80.8626 37.486 80.6174 37.9992C80.376 38.5081 79.9784 39.0876 79.4245 39.7376L77.3119 42.1818H81.3235L81.3235 43.4263Z" fill="white"/>
<path d="M82.7224 88.9865C82.7224 84.8944 79.3838 81.5772 75.2655 81.5772C71.1472 81.5772 67.8086 84.8944 67.8086 88.9865C67.8086 93.0785 71.1472 96.3958 75.2655 96.3958C79.3838 96.3958 82.7224 93.0785 82.7224 88.9865Z" fill="#383647"/>
<path d="M74.0098 88.2751L74.9253 88.2751C75.3873 88.2709 75.7522 88.1485 76.0203 87.908C76.2925 87.6674 76.4286 87.3193 76.4286 86.8637C76.4286 86.4248 76.3151 86.0851 76.0884 85.8446C75.8657 85.6 75.5233 85.4776 75.0615 85.4776C74.6573 85.4776 74.3253 85.5979 74.0655 85.8384C73.8056 86.0746 73.6757 86.3848 73.6757 86.7687L72.1725 86.7687C72.1725 86.2961 72.2942 85.8658 72.5375 85.4776C72.785 85.0893 73.1273 84.7877 73.5644 84.5725C74.0057 84.3531 74.4986 84.2434 75.0429 84.2434C75.942 84.2434 76.6472 84.4754 77.1585 84.9396C77.6741 85.3995 77.9318 86.0409 77.9318 86.8637C77.9318 87.2772 77.8019 87.6674 77.5421 88.0346C77.2864 88.3974 76.9545 88.6717 76.5461 88.8574C77.041 89.0304 77.4163 89.3026 77.672 89.6738C77.9318 90.0451 78.0618 90.4882 78.0618 91.003C78.0618 91.83 77.7834 92.4882 77.2267 92.9776C76.674 93.4671 75.9461 93.7119 75.0429 93.7119C74.1769 93.7119 73.4675 93.4756 72.9149 93.003C72.3622 92.5305 72.0859 91.9017 72.0859 91.1169L73.5891 91.1169C73.5891 91.522 73.7212 91.851 73.9851 92.1042C74.2532 92.3575 74.6119 92.484 75.0615 92.484C75.5275 92.484 75.8945 92.3575 76.1626 92.1042C76.4306 91.851 76.5647 91.484 76.5647 91.003C76.5647 90.5177 76.4245 90.1443 76.144 89.8827C75.8636 89.6211 75.4471 89.4903 74.8944 89.4903L74.0098 89.4903L74.0098 88.2751Z" fill="white"/>
<path d="M70.5321 141.458C66.4401 141.458 63.1228 138.119 63.1228 134.001C63.1228 129.883 66.4401 126.544 70.5321 126.544C74.6242 126.544 77.9414 129.883 77.9414 134.001C77.9414 138.119 74.6242 141.458 70.5321 141.458Z" fill="#383647"/>
<path d="M72.0961 134.874H73.1164L73.1164 136.141H72.0961L72.0961 138.249H70.7261L70.7261 136.141H67.1801L67.1406 135.179L70.681 128.78H72.0961L72.0961 134.874ZM68.5782 134.874H70.7261L70.7261 130.919L70.6246 131.127L68.5782 134.874Z" fill="white"/>
<path d="M74.8318 169.52C74.8318 165.428 71.4932 162.111 67.3749 162.111C63.2565 162.111 59.918 165.428 59.918 169.52C59.918 173.612 63.2565 176.929 67.3749 176.929C71.4932 176.929 74.8318 173.612 74.8318 169.52Z" fill="#383647"/>
<path d="M64.583 169.278L65.0784 164.57L69.9818 164.57L69.9818 165.917L66.345 165.917L66.0942 168.149C66.5164 167.901 66.9929 167.778 67.5238 167.778C68.3934 167.778 69.0685 168.062 69.5492 168.63C70.0341 169.199 70.2766 169.965 70.2766 170.927C70.2766 171.877 70.009 172.634 69.474 173.197C68.9389 173.758 68.2052 174.038 67.273 174.038C66.437 174.038 65.743 173.797 65.1912 173.314C64.6437 172.826 64.3468 172.184 64.3008 171.388L65.7743 171.388C65.8329 171.842 65.9918 172.191 66.251 172.434C66.5101 172.674 66.8487 172.794 67.2668 172.794C67.7349 172.794 68.0986 172.622 68.3578 172.281C68.6212 171.938 68.7529 171.472 68.7529 170.882C68.7529 170.313 68.6086 169.864 68.3202 169.535C68.0317 169.201 67.6346 169.035 67.1288 169.035C66.8529 169.035 66.6188 169.073 66.4265 169.15C66.2342 169.223 66.0252 169.368 65.7994 169.587L64.583 169.278Z" fill="white"/>
<path d="M65.0087 217.741C60.9166 217.741 57.5994 214.403 57.5994 210.285C57.5994 206.166 60.9166 202.828 65.0087 202.828C69.1007 202.828 72.418 206.166 72.418 210.285C72.418 214.403 69.1007 217.741 65.0087 217.741Z" fill="#383647"/>
<path d="M66.4746 205.412L66.4746 206.695H66.2883C65.4434 206.709 64.7684 206.947 64.2632 207.411C63.758 207.874 63.4577 208.532 63.3624 209.384C63.847 208.86 64.4661 208.598 65.2198 208.598C66.0191 208.598 66.6486 208.888 67.1083 209.466C67.572 210.046 67.804 210.792 67.804 211.707C67.804 212.653 67.5327 213.418 66.9902 214.006C66.4518 214.589 65.7437 214.881 64.8658 214.881C63.963 214.881 63.2299 214.538 62.6667 213.853C62.1076 213.168 61.8281 212.27 61.8281 211.158L61.8281 210.628C61.8281 208.999 62.2132 207.721 62.9835 206.798C63.758 205.875 64.8699 205.412 66.3193 205.412H66.4746ZM64.8533 209.85C64.522 209.85 64.2176 209.945 63.9402 210.137C63.6669 210.328 63.4659 210.584 63.3376 210.903L63.3376 211.375C63.3376 212.065 63.4784 212.615 63.76 213.023C64.0417 213.427 64.4061 213.629 64.8533 213.629C65.3006 213.629 65.6546 213.456 65.9155 213.112C66.1764 212.767 66.3069 212.314 66.3069 211.753C66.3069 211.19 66.1744 210.733 65.9094 210.38C65.6443 210.027 65.2923 209.85 64.8533 209.85Z" fill="white"/>
<path d="M63.036 265.898C58.944 265.898 55.6267 262.56 55.6267 258.441C55.6267 254.323 58.944 250.984 63.036 250.984C67.1281 250.984 70.4453 254.323 70.4453 258.441C70.4453 262.56 67.1281 265.898 63.036 265.898Z" fill="#383647"/>
<path d="M66.0696 254.656L62.6226 263.246H61.1124L64.5534 255.046H60.0938L60.0938 253.778H66.0696L66.0696 254.656Z" fill="white"/>
<path d="M63.036 303.745C58.944 303.745 55.6268 300.407 55.6268 296.288C55.6268 292.17 58.944 288.831 63.036 288.831C67.1281 288.831 70.4453 292.17 70.4453 296.288C70.4453 300.407 67.1281 303.745 63.036 303.745Z" fill="#383647"/>
<path d="M65.6973 298.712C65.6973 298.261 65.5824 297.858 65.3528 297.503C65.123 297.153 64.8098 296.877 64.4131 296.674C64.8892 296.45 65.2546 296.145 65.5094 295.756C65.7682 295.368 65.8977 294.929 65.8977 294.44C65.8977 293.63 65.6263 292.986 65.0834 292.509C64.5405 292.037 63.8181 291.8 62.916 291.8C62.0098 291.8 61.2832 292.039 60.7362 292.515C60.1933 292.993 59.9219 293.634 59.9219 294.44C59.9219 294.933 60.0512 295.376 60.3102 295.769C60.5691 296.162 60.9324 296.463 61.4001 296.674C61.0076 296.877 60.6964 297.153 60.4668 297.503C60.2413 297.858 60.1285 298.261 60.1285 298.712C60.1285 299.497 60.3791 300.119 60.8802 300.579C61.3814 301.039 62.0579 301.269 62.9098 301.269C63.7659 301.269 64.4445 301.039 64.9456 300.579C65.4467 300.119 65.6973 299.497 65.6973 298.712ZM64.3755 294.515C64.3755 294.971 64.2398 295.338 63.9684 295.617C63.7011 295.899 63.3462 296.041 62.9035 296.041C62.4609 296.041 62.1059 295.901 61.8386 295.623C61.5755 295.345 61.444 294.975 61.444 294.515C61.444 294.064 61.5734 293.704 61.8324 293.434C62.0955 293.163 62.4566 293.028 62.916 293.028C63.3754 293.028 63.7324 293.159 63.9872 293.421C64.2462 293.682 64.3755 294.047 64.3755 294.515ZM64.1814 298.655C64.1814 299.056 64.0665 299.385 63.8368 299.643C63.6072 299.904 63.2981 300.034 62.9098 300.034C62.5214 300.034 62.2145 299.911 61.989 299.661C61.7635 299.416 61.6507 299.081 61.6507 298.655C61.6507 298.233 61.7635 297.898 61.989 297.648C62.2186 297.4 62.5277 297.275 62.916 297.275C63.3044 297.275 63.6113 297.4 63.8368 297.648C64.0665 297.898 64.1814 298.233 64.1814 298.655Z" fill="white"/>
<path d="M62.247 359.121C58.1549 359.121 54.8377 355.783 54.8377 351.664C54.8377 347.546 58.1549 344.207 62.247 344.207C66.339 344.207 69.6562 347.546 69.6562 351.664C69.6562 355.783 66.339 359.121 62.247 359.121Z" fill="#383647"/>
<path d="M63.701 352.287C63.189 352.837 62.5907 353.112 61.9064 353.112C61.1004 353.112 60.4582 352.827 59.9796 352.256C59.501 351.68 59.2617 350.926 59.2617 349.993C59.2617 349.38 59.3835 348.825 59.627 348.327C59.8704 347.828 60.2168 347.441 60.666 347.163C61.1152 346.886 61.6357 346.748 62.2276 346.748C63.1512 346.748 63.8837 347.098 64.4252 347.796C64.9667 348.495 65.2375 349.43 65.2375 350.6V351.035C65.2375 352.713 64.8639 353.993 64.1167 354.875C63.3694 355.757 62.2549 356.204 60.773 356.217H60.5904V354.932H60.8108C61.7134 354.92 62.406 354.701 62.8888 354.274C63.3715 353.844 63.6423 353.182 63.701 352.287ZM62.2276 351.898C62.534 351.898 62.8216 351.808 63.0903 351.629C63.3589 351.451 63.5667 351.203 63.7136 350.888V350.281C63.7136 349.596 63.5751 349.044 63.2981 348.626C63.021 348.209 62.6621 348 62.2213 348C61.7805 348 61.4279 348.186 61.1634 348.556C60.9032 348.922 60.773 349.386 60.773 349.949C60.773 350.533 60.9053 351.003 61.1697 351.361C61.4342 351.719 61.7868 351.898 62.2276 351.898Z" fill="white"/>
<path d="M62.6415 409.318C58.5495 409.318 55.2322 405.98 55.2322 401.861C55.2322 397.743 58.5495 394.404 62.6415 394.404C66.7335 394.404 70.0508 397.743 70.0508 401.861C70.0508 405.98 66.7335 409.318 62.6415 409.318Z" fill="#383647"/>
<path d="M61.1295 405.653H59.7989L59.7989 399.488L57.8359 400.131L57.8359 399.05L60.9591 397.947H61.1295L61.1295 405.653ZM67.3972 402.42C67.3972 403.524 67.181 404.358 66.7485 404.92C66.3196 405.479 65.6653 405.759 64.7855 405.759C63.9205 405.759 63.2679 405.486 62.8281 404.941C62.3919 404.393 62.1683 403.582 62.1573 402.51L62.1573 401.18C62.1573 400.076 62.3717 399.248 62.8006 398.696C63.2331 398.144 63.8911 397.868 64.7745 397.868C65.6506 397.868 66.3031 398.137 66.7319 398.675C67.1645 399.213 67.3862 400.019 67.3972 401.09L67.3972 402.42ZM66.0611 400.985C66.0611 400.265 65.9585 399.737 65.7532 399.403C65.548 399.066 65.2217 398.897 64.7745 398.897C64.3383 398.897 64.0176 399.056 63.8123 399.376C63.607 399.693 63.4989 400.189 63.4879 400.864L63.4879 402.604C63.4879 403.321 63.5923 403.857 63.8013 404.208C64.0102 404.56 64.3383 404.736 64.7855 404.736C65.2144 404.736 65.5314 404.574 65.7367 404.25C65.942 403.923 66.0501 403.413 66.0611 402.721L66.0611 400.985Z" fill="white"/>
<path d="M65.0087 469.475C60.9166 469.475 57.5994 466.136 57.5994 462.018C57.5994 457.899 60.9166 454.561 65.0087 454.561C69.1007 454.561 72.418 457.899 72.418 462.018C72.418 466.136 69.1007 469.475 65.0087 469.475Z" fill="#383647"/>
<path d="M63.9946 465.227H62.3965L62.3965 458.914L60.0391 459.573L60.0391 458.466L63.7899 457.337H63.9946L63.9946 465.227ZM69.6003 465.227H68.0023L68.0023 458.914L65.6449 459.573L65.6449 458.466L69.3956 457.337H69.6003L69.6003 465.227Z" fill="white"/>
<path d="M67.3759 520.468C63.2838 520.468 59.9666 517.13 59.9666 513.011C59.9666 508.893 63.2838 505.554 67.3759 505.554C71.4679 505.554 74.7852 508.893 74.7852 513.011C74.7852 517.13 71.4679 520.468 67.3759 520.468Z" fill="#383647"/>
<path d="M65.3823 517.148H64.0742L64.0742 510.899L62.1445 511.551L62.1445 510.456L65.2147 509.338H65.3823L65.3823 517.148ZM71.7059 517.148H66.4142L66.4142 516.256L69.0357 513.428C69.4141 513.011 69.6826 512.663 69.8411 512.385C70.0033 512.104 70.0843 511.822 70.0843 511.54C70.0843 511.17 69.978 510.871 69.7654 510.643C69.5565 510.414 69.2736 510.301 68.9168 510.301C68.4916 510.301 68.1619 510.429 67.9277 510.686C67.6934 510.942 67.5763 511.293 67.5763 511.738H66.2628C66.2628 511.264 66.371 510.839 66.5872 510.461C66.807 510.079 67.1187 509.784 67.5223 509.573C67.9294 509.363 68.398 509.258 68.9276 509.258C69.6916 509.258 70.2934 509.448 70.7329 509.83C71.1762 510.208 71.3978 510.732 71.3978 511.401C71.3978 511.791 71.2861 512.198 71.0627 512.626C70.8428 513.05 70.4807 513.533 69.9763 514.074L68.052 516.112H71.7059L71.7059 517.148Z" fill="white"/>
<path d="M70.1376 563.893C66.0456 563.893 62.7283 560.554 62.7283 556.436C62.7283 552.317 66.0456 548.979 70.1376 548.979C74.2296 548.979 77.5469 552.317 77.5469 556.436C77.5469 560.554 74.2296 563.893 70.1376 563.893Z" fill="#383647"/>
<path d="M68.6895 559.87H67.3488L67.3488 553.704L65.3711 554.347L65.3711 553.266L68.5177 552.164H68.6895L68.6895 559.87ZM71.3038 555.444H72.1237C72.5373 555.441 72.8642 555.339 73.1042 555.138C73.3479 554.938 73.4698 554.648 73.4698 554.268C73.4698 553.903 73.3683 553.619 73.1652 553.419C72.9658 553.215 72.6592 553.113 72.2456 553.113C71.8836 553.113 71.5863 553.213 71.3537 553.413C71.121 553.61 71.0047 553.869 71.0047 554.189H69.6585C69.6585 553.796 69.7674 553.437 69.9853 553.113C70.2069 552.789 70.5135 552.538 70.9049 552.359C71.3001 552.176 71.7414 552.085 72.2289 552.085C73.034 552.085 73.6656 552.278 74.1235 552.665C74.5852 553.048 74.816 553.583 74.816 554.268C74.816 554.613 74.6997 554.938 74.467 555.244C74.238 555.546 73.9407 555.775 73.5751 555.929C74.0183 556.074 74.3544 556.301 74.5834 556.61C74.816 556.92 74.9324 557.289 74.9324 557.717C74.9324 558.407 74.683 558.956 74.1844 559.364C73.6896 559.772 73.0378 559.975 72.2289 559.975C71.4533 559.975 70.8181 559.778 70.3232 559.384C69.8284 558.99 69.5809 558.467 69.5809 557.812H70.9271C70.9271 558.15 71.0452 558.425 71.2817 558.636C71.5217 558.847 71.843 558.952 72.2456 558.952C72.6628 558.952 72.9916 558.847 73.2316 558.636C73.4717 558.425 73.5917 558.119 73.5917 557.717C73.5917 557.314 73.4662 557.002 73.215 556.784C72.9638 556.566 72.5908 556.457 72.096 556.457H71.3038L71.3038 555.444Z" fill="white"/>
<path d="M74.4774 603.731C70.3854 603.731 67.0681 600.393 67.0681 596.275C67.0681 592.156 70.3854 588.818 74.4774 588.818C78.5695 588.818 81.8867 592.156 81.8867 596.275C81.8867 600.393 78.5695 603.731 74.4774 603.731Z" fill="#383647"/>
<path d="M72.8038 599.587H71.5132L71.5132 593.274L69.6094 593.932L69.6094 592.825L72.6384 591.696H72.8038L72.8038 599.587ZM78.2054 596.784H79.1707L79.1707 597.837H78.2054L78.2054 599.587H76.9096L76.9096 597.837H73.5553L73.518 597.038L76.8669 591.724H78.2054L78.2054 596.784ZM74.8778 596.784H76.9096L76.9096 593.5L76.8136 593.673L74.8778 596.784Z" fill="white"/>
<path d="M79.497 657.402C75.4049 657.402 72.0877 654.063 72.0877 649.945C72.0877 645.826 75.4049 642.488 79.497 642.488C83.589 642.488 86.9062 645.826 86.9062 649.945C86.9062 654.063 83.589 657.402 79.497 657.402Z" fill="#383647"/>
<path d="M77.9129 653.307H76.6003L76.6003 647.08L74.6641 647.729L74.6641 646.637L77.7447 645.524H77.9129L77.9129 653.307ZM79.3009 649.461L79.7293 645.551H83.9706L83.9706 646.669H80.8249L80.6079 648.523C80.9732 648.317 81.3853 648.215 81.8445 648.215C82.5966 648.215 83.1806 648.45 83.5963 648.923C84.0158 649.395 84.2255 650.031 84.2255 650.83C84.2255 651.619 83.9941 652.247 83.5312 652.716C83.0685 653.182 82.4339 653.414 81.6276 653.414C80.9045 653.414 80.3042 653.213 79.8269 652.812C79.3533 652.407 79.0966 651.874 79.0568 651.213H80.3313C80.382 651.59 80.5194 651.88 80.7435 652.082C80.9677 652.281 81.2606 652.381 81.6222 652.381C82.0271 652.381 82.3417 652.238 82.5659 651.955C82.7937 651.67 82.9076 651.283 82.9076 650.793C82.9076 650.32 82.7828 649.948 82.5334 649.674C82.2839 649.397 81.9404 649.259 81.5028 649.259C81.2642 649.259 81.0617 649.291 80.8954 649.354C80.7291 649.415 80.5483 649.536 80.353 649.717L79.3009 649.461Z" fill="white"/>
<path d="M81.8642 681.663C77.7721 681.663 74.4549 678.324 74.4549 674.206C74.4549 670.088 77.7721 666.749 81.8642 666.749C85.9562 666.749 89.2734 670.088 89.2734 674.206C89.2734 678.324 85.9562 681.663 81.8642 681.663Z" fill="#383647"/>
<path d="M80.1371 677.911H78.8223L78.8223 671.692L76.8828 672.341L76.8828 671.251L79.9687 670.138H80.1371L80.1371 677.911ZM85.2815 670.127L85.2815 671.197H85.1185C84.3796 671.208 83.7893 671.406 83.3474 671.793C82.9056 672.179 82.6429 672.727 82.5596 673.437C82.9834 673.001 83.5249 672.783 84.1841 672.783C84.8831 672.783 85.4336 673.024 85.8357 673.506C86.2413 673.989 86.4441 674.611 86.4441 675.373C86.4441 676.161 86.2068 676.799 85.7323 677.289C85.2615 677.775 84.6422 678.018 83.8744 678.018C83.0848 678.018 82.4438 677.732 81.9512 677.161C81.4622 676.59 81.2177 675.842 81.2177 674.916L81.2177 674.474C81.2177 673.116 81.5546 672.052 82.2282 671.282C82.9056 670.513 83.878 670.127 85.1457 670.127H85.2815ZM83.8636 673.825C83.5738 673.825 83.3076 673.905 83.0649 674.065C82.8259 674.224 82.6502 674.437 82.5379 674.703L82.5379 675.097C82.5379 675.672 82.6611 676.129 82.9074 676.47C83.1536 676.807 83.4723 676.975 83.8636 676.975C84.2547 676.975 84.5643 676.831 84.7925 676.544C85.0207 676.257 85.1348 675.879 85.1348 675.411C85.1348 674.943 85.0189 674.561 84.7871 674.267C84.5553 673.973 84.2474 673.825 83.8636 673.825Z" fill="white"/>
<path d="M26.8652 88.8926L26.8652 90.8789L25.4678 90.8789L25.4678 89.2969C25.4678 88.834 25.3975 88.459 25.2568 88.1719C25.1104 87.8848 24.9053 87.6738 24.6416 87.5391C24.3779 87.4043 24.0674 87.3369 23.71 87.3369C23.417 87.3369 23.1475 87.4131 22.9014 87.5654C22.6553 87.7119 22.459 87.9404 22.3125 88.251C22.1602 88.5615 22.084 88.957 22.084 89.4375C22.084 89.8008 22.1484 90.1318 22.2773 90.4307C22.4062 90.7295 22.5879 90.9668 22.8223 91.1426C23.0508 91.3184 23.3291 91.4062 23.6572 91.4062L23.6572 94.0342C23.0947 94.0342 22.5908 93.9141 22.1455 93.6738C21.6943 93.4277 21.3135 93.0937 21.0029 92.6719C20.6865 92.2441 20.4463 91.752 20.2822 91.1953C20.1182 90.6387 20.0361 90.0527 20.0361 89.4375C20.0361 88.7168 20.1152 88.0664 20.2734 87.4863C20.4258 86.9062 20.6543 86.4082 20.959 85.9922C21.2637 85.5762 21.6416 85.2568 22.0928 85.0342C22.5439 84.8115 23.0684 84.7002 23.666 84.7002C24.1055 84.7002 24.5186 84.7998 24.9053 84.999C25.292 85.1982 25.6318 85.4824 25.9248 85.8516C26.2178 86.2207 26.4492 86.6631 26.6191 87.1787C26.7832 87.6943 26.8652 88.2656 26.8652 88.8926ZM26.1006 90.8789L26.1006 88.8926C26.1006 88.1953 26.1738 87.5771 26.3203 87.0381C26.4668 86.4932 26.6807 86.0332 26.9619 85.6582C27.2432 85.2773 27.5918 84.9902 28.0078 84.7969C28.418 84.5977 28.8896 84.498 29.4229 84.498C30.0205 84.498 30.5508 84.6211 31.0137 84.8672C31.4766 85.1074 31.8691 85.4502 32.1914 85.8955C32.5137 86.335 32.7568 86.8564 32.9209 87.46C33.085 88.0576 33.167 88.7168 33.167 89.4375C33.167 90.0117 33.0967 90.583 32.9561 91.1514C32.8096 91.7197 32.5869 92.2354 32.2881 92.6982C31.9893 93.1611 31.6055 93.5303 31.1367 93.8057C30.668 94.0811 30.1055 94.2187 29.4492 94.2187L29.4492 91.5732C29.7598 91.5732 30.0439 91.4824 30.3018 91.3008C30.5537 91.1191 30.7559 90.8672 30.9082 90.5449C31.0547 90.2227 31.1279 89.8535 31.1279 89.4375C31.1279 88.9512 31.0518 88.5381 30.8994 88.1982C30.7471 87.8525 30.5391 87.5918 30.2754 87.416C30.0059 87.2344 29.71 87.1436 29.3877 87.1436C29.042 87.1436 28.749 87.1904 28.5088 87.2842C28.2686 87.3779 28.0723 87.5156 27.9199 87.6973C27.7617 87.8789 27.6475 88.1045 27.5771 88.374C27.5068 88.6377 27.4717 88.9453 27.4717 89.2969L27.4717 90.8789L26.1006 90.8789ZM22.3916 77.3437L33 80.8242L33 83.6279L20.2031 78.873L20.2031 77.0889L22.3916 77.3437ZM33 74.4521L22.3916 77.9414L20.2031 78.2227L20.2031 76.4209L33 71.6396L33 74.4521ZM28.2363 74.6104L30.3018 74.6104L30.3018 81.3691L28.2363 81.3691L28.2363 74.6104ZM20.2031 67.8076L33 67.8076L33 70.4443L20.2031 70.4443L20.2031 67.8076ZM20.2031 60.2666L27.7178 65.1709L27.7178 68.3965L25.3711 68.7305L25.3711 66.5771L20.2031 63.4658L20.2031 60.2666ZM33 62.9824L27.2783 66.5684L25.3975 64.7402L33 59.8535L33 62.9824ZM22.3916 53.6133L33 57.0937L33 59.8975L20.2031 55.1426L20.2031 53.3584L22.3916 53.6133ZM33 50.7217L22.3916 54.2109L20.2031 54.4922L20.2031 52.6904L33 47.9092L33 50.7217ZM28.2363 50.8799L30.3018 50.8799L30.3018 57.6387L28.2363 57.6387L28.2363 50.8799ZM26.8652 41.9414L26.8652 43.9277L25.4678 43.9277L25.4678 42.3457C25.4678 41.8828 25.3975 41.5078 25.2568 41.2207C25.1103 40.9336 24.9053 40.7227 24.6416 40.5879C24.3779 40.4531 24.0674 40.3857 23.71 40.3857C23.417 40.3857 23.1475 40.4619 22.9014 40.6143C22.6553 40.7607 22.459 40.9893 22.3125 41.2998C22.1602 41.6104 22.084 42.0059 22.084 42.4863C22.084 42.8496 22.1484 43.1807 22.2773 43.4795C22.4062 43.7783 22.5879 44.0156 22.8223 44.1914C23.0508 44.3672 23.3291 44.4551 23.6572 44.4551L23.6572 47.083C23.0947 47.083 22.5908 46.9629 22.1455 46.7227C21.6943 46.4766 21.3135 46.1426 21.0029 45.7207C20.6865 45.293 20.4463 44.8008 20.2822 44.2441C20.1182 43.6875 20.0361 43.1016 20.0361 42.4863C20.0361 41.7656 20.1152 41.1152 20.2734 40.5352C20.4258 39.9551 20.6543 39.457 20.959 39.041C21.2637 38.625 21.6416 38.3057 22.0928 38.083C22.5439 37.8604 23.0684 37.749 23.666 37.749C24.1055 37.749 24.5186 37.8486 24.9053 38.0479C25.292 38.2471 25.6318 38.5312 25.9248 38.9004C26.2178 39.2695 26.4492 39.7119 26.6191 40.2275C26.7832 40.7432 26.8652 41.3145 26.8652 41.9414ZM26.1006 43.9277L26.1006 41.9414C26.1006 41.2441 26.1738 40.626 26.3203 40.0869C26.4668 39.542 26.6807 39.082 26.9619 38.707C27.2432 38.3262 27.5918 38.0391 28.0078 37.8457C28.418 37.6465 28.8896 37.5469 29.4228 37.5469C30.0205 37.5469 30.5508 37.6699 31.0137 37.916C31.4766 38.1562 31.8691 38.499 32.1914 38.9443C32.5137 39.3838 32.7568 39.9053 32.9209 40.5088C33.085 41.1064 33.167 41.7656 33.167 42.4863C33.167 43.0605 33.0967 43.6318 32.9561 44.2002C32.8096 44.7686 32.5869 45.2842 32.2881 45.7471C31.9893 46.21 31.6055 46.5791 31.1367 46.8545C30.668 47.1299 30.1055 47.2676 29.4492 47.2676L29.4492 44.6221C29.7598 44.6221 30.0439 44.5312 30.3018 44.3496C30.5537 44.168 30.7559 43.916 30.9082 43.5937C31.0547 43.2715 31.1279 42.9023 31.1279 42.4863C31.1279 42 31.0518 41.5869 30.8994 41.2471C30.7471 40.9014 30.5391 40.6406 30.2754 40.4648C30.0059 40.2832 29.71 40.1924 29.3877 40.1924C29.042 40.1924 28.749 40.2393 28.5088 40.333C28.2686 40.4268 28.0723 40.5645 27.9199 40.7461C27.7617 40.9277 27.6475 41.1533 27.5771 41.4229C27.5068 41.6865 27.4717 41.9941 27.4717 42.3457L27.4717 43.9277L26.1006 43.9277ZM20.2031 35.5166L20.2031 32.8711L24.1318 32.8711C24.6943 32.8711 25.1338 32.7861 25.4502 32.6162C25.7666 32.4404 25.9893 32.1768 26.1182 31.8252C26.2412 31.4678 26.3027 31.0254 26.3027 30.498C26.3027 30.2988 26.2939 30.0645 26.2764 29.7949C26.2588 29.5195 26.2324 29.2383 26.1973 28.9512C26.1562 28.6641 26.1123 28.3887 26.0654 28.125C26.0127 27.8613 25.9541 27.6416 25.8896 27.4658L27.9463 27.4658C28.0049 27.6416 28.0605 27.8613 28.1133 28.125C28.166 28.3887 28.2129 28.6641 28.2539 28.9512C28.2891 29.2383 28.3154 29.5195 28.333 29.7949C28.3506 30.0645 28.3594 30.2988 28.3594 30.498C28.3594 31.5176 28.2129 32.4023 27.9199 33.1523C27.627 33.9023 27.1699 34.4854 26.5488 34.9014C25.9219 35.3115 25.1162 35.5166 24.1318 35.5166L20.2031 35.5166ZM20.2031 28.0195L20.2031 25.3828L33 25.3828L33 28.0195L20.2031 28.0195ZM28.8516 20.5576L20.2031 15.416L20.2031 12.7793L33 12.7793L33 15.416L24.3516 15.416L33 20.5576L33 23.1943L20.2031 23.1943L20.2031 20.5576L28.8516 20.5576ZM20.2031 7.84863L33 7.84863L33 10.4854L20.2031 10.4854L20.2031 7.84863ZM20.2031 0.307617L27.7178 5.21191L27.7178 8.4375L25.3711 8.77148L25.3711 6.61816L20.2031 3.50684L20.2031 0.307617ZM33 3.02344L27.2783 6.60937L25.3975 4.78125L33 -0.105469L33 3.02344Z" fill="#383647"/>
<path d="M118.203 57.2432L131 57.2432L131 59.8711L118.203 59.8711L118.203 57.2432ZM118.203 53.5693L118.203 51.3369L127.599 48.0498L118.203 44.7627L118.203 42.5303L131 47.1533L131 48.9463L118.203 53.5693ZM118.203 54.7734L118.203 52.5498L127.361 52.1455L131 52.1455L131 54.7734L118.203 54.7734ZM118.203 43.5498L118.203 41.3174L131 41.3174L131 43.9541L127.361 43.9541L118.203 43.5498ZM120.392 33.6445L131 37.125L131 39.9287L118.203 35.1738L118.203 33.3896L120.392 33.6445ZM131 30.7529L120.392 34.2422L118.203 34.5234L118.203 32.7217L131 27.9404L131 30.7529ZM126.236 30.9111L128.302 30.9111L128.302 37.6699L126.236 37.6699L126.236 30.9111ZM118.203 26.7539L118.203 21.9814C118.203 21.0029 118.35 20.1621 118.643 19.459C118.936 18.75 119.369 18.2051 119.943 17.8242C120.518 17.4434 121.224 17.2529 122.062 17.2529C122.747 17.2529 123.336 17.3701 123.828 17.6045C124.314 17.833 124.722 18.1582 125.05 18.5801C125.372 18.9961 125.63 19.4854 125.823 20.0479L126.263 20.8828L126.263 25.0312L124.206 25.0488L124.206 21.9639C124.206 21.501 124.124 21.1172 123.96 20.8125C123.796 20.5078 123.567 20.2793 123.274 20.127C122.981 19.9687 122.642 19.8896 122.255 19.8896C121.845 19.8896 121.49 19.9658 121.191 20.1182C120.893 20.2705 120.664 20.502 120.506 20.8125C120.348 21.123 120.269 21.5127 120.269 21.9814L120.269 24.1172L131 24.1172L131 26.7539L118.203 26.7539ZM131 19.5996L125.296 22.5176L125.278 19.7314L130.877 16.7783L131 16.7783L131 19.5996ZM118.203 12.4189L131 12.4189L131 15.0469L118.203 15.0469L118.203 12.4189ZM127.651 3.28711C127.423 3.28711 127.218 3.32227 127.036 3.39258C126.849 3.45703 126.679 3.58008 126.526 3.76172C126.368 3.94336 126.213 4.19824 126.061 4.52637C125.908 4.85449 125.75 5.2793 125.586 5.80078C125.398 6.38086 125.187 6.93164 124.953 7.45312C124.719 7.96875 124.446 8.42578 124.136 8.82422C123.819 9.2168 123.453 9.52734 123.037 9.75586C122.621 9.97852 122.138 10.0898 121.587 10.0898C121.054 10.0898 120.57 9.97266 120.137 9.73828C119.697 9.50391 119.322 9.17578 119.012 8.75391C118.695 8.33203 118.452 7.83398 118.282 7.25977C118.112 6.67969 118.027 6.04395 118.027 5.35254C118.027 4.40918 118.197 3.58594 118.537 2.88281C118.877 2.17969 119.343 1.63477 119.935 1.24805C120.526 0.855469 121.203 0.65918 121.965 0.65918L121.965 3.27832C121.59 3.27832 121.262 3.35742 120.98 3.51562C120.693 3.66797 120.468 3.90234 120.304 4.21875C120.14 4.5293 120.058 4.92187 120.058 5.39648C120.058 5.85352 120.128 6.23437 120.269 6.53906C120.403 6.84375 120.588 7.07227 120.822 7.22461C121.051 7.37695 121.309 7.45312 121.596 7.45312C121.812 7.45312 122.009 7.40039 122.185 7.29492C122.36 7.18359 122.524 7.01953 122.677 6.80273C122.829 6.58594 122.973 6.31934 123.107 6.00293C123.242 5.68652 123.374 5.32031 123.503 4.9043C123.714 4.20703 123.951 3.59473 124.215 3.06738C124.479 2.53418 124.774 2.08887 125.103 1.73145C125.431 1.37402 125.803 1.10449 126.219 0.922851C126.635 0.741211 127.106 0.65039 127.634 0.65039C128.19 0.65039 128.688 0.758789 129.128 0.975586C129.567 1.19238 129.939 1.50586 130.244 1.91602C130.549 2.32617 130.78 2.81543 130.938 3.38379C131.097 3.95215 131.176 4.58789 131.176 5.29102C131.176 5.92383 131.094 6.54785 130.93 7.16309C130.76 7.77832 130.505 8.33789 130.165 8.8418C129.825 9.33984 129.392 9.73828 128.864 10.0371C128.337 10.3359 127.713 10.4854 126.992 10.4854L126.992 7.83984C127.391 7.83984 127.728 7.77832 128.003 7.65527C128.278 7.53223 128.501 7.35937 128.671 7.13672C128.841 6.9082 128.964 6.63867 129.04 6.32812C129.116 6.01172 129.154 5.66602 129.154 5.29102C129.154 4.83398 129.09 4.45898 128.961 4.16602C128.832 3.86719 128.653 3.64746 128.425 3.50684C128.196 3.36035 127.938 3.28711 127.651 3.28711Z" fill="#383647"/>
</g>
<defs>
<linearGradient id="paint0_linear_1192_10636" x1="58.946" y1="24.4792" x2="109.135" y2="74.0394" gradientUnits="userSpaceOnUse">
<stop stop-color="#FF9F50"/>
<stop offset="1" stop-color="#FF4523"/>
</linearGradient>
<linearGradient id="paint1_linear_1192_10636" x1="38.8055" y1="61.267" x2="115.346" y2="117.83" gradientUnits="userSpaceOnUse">
<stop stop-color="#FF9F50"/>
<stop offset="1" stop-color="#FF4523"/>
</linearGradient>
<linearGradient id="paint2_linear_1192_10636" x1="34.2664" y1="171.148" x2="104.607" y2="239.873" gradientUnits="userSpaceOnUse">
<stop stop-color="#FF9F50"/>
<stop offset="1" stop-color="#FF4523"/>
</linearGradient>
<linearGradient id="paint3_linear_1192_10636" x1="39.3656" y1="520.441" x2="109.46" y2="584.439" gradientUnits="userSpaceOnUse">
<stop stop-color="#8CA9FF"/>
<stop offset="1" stop-color="#5E31F9"/>
</linearGradient>
<linearGradient id="paint4_linear_1192_10636" x1="42.2207" y1="132.681" x2="96.4404" y2="177.278" gradientUnits="userSpaceOnUse">
<stop stop-color="#FF9F50"/>
<stop offset="1" stop-color="#FF4523"/>
</linearGradient>
<linearGradient id="paint5_linear_1192_10636" x1="19.9881" y1="313.91" x2="112.798" y2="388.222" gradientUnits="userSpaceOnUse">
<stop stop-color="#FF5FC1"/>
<stop offset="1" stop-color="#9467F4"/>
</linearGradient>
<linearGradient id="paint6_linear_1192_10636" x1="58.3339" y1="118.076" x2="88.3328" y2="144.154" gradientUnits="userSpaceOnUse">
<stop stop-color="#FF9F50"/>
<stop offset="1" stop-color="#FF4523"/>
</linearGradient>
<linearGradient id="paint7_linear_1192_10636" x1="47.3192" y1="239.238" x2="81.0452" y2="271.659" gradientUnits="userSpaceOnUse">
<stop stop-color="#6DF0CA"/>
<stop offset="1" stop-color="#48A5FF"/>
</linearGradient>
<linearGradient id="paint8_linear_1192_10636" x1="52.0106" y1="493.492" x2="87.9493" y2="522.814" gradientUnits="userSpaceOnUse">
<stop stop-color="#8CA9FF"/>
<stop offset="1" stop-color="#5E31F9"/>
</linearGradient>
<linearGradient id="paint9_linear_1192_10636" x1="38.9573" y1="278.116" x2="94.1272" y2="316.143" gradientUnits="userSpaceOnUse">
<stop stop-color="#6DF0CA"/>
<stop offset="1" stop-color="#48A5FF"/>
</linearGradient>
<linearGradient id="paint10_linear_1192_10636" x1="48.136" y1="569.604" x2="98.5092" y2="616.9" gradientUnits="userSpaceOnUse">
<stop stop-color="#8CA9FF"/>
<stop offset="1" stop-color="#5E31F9"/>
</linearGradient>
<linearGradient id="paint11_linear_1192_10636" x1="69.9611" y1="657.853" x2="98.3388" y2="684.971" gradientUnits="userSpaceOnUse">
<stop stop-color="#FEDB60"/>
<stop offset="1" stop-color="#F69272"/>
</linearGradient>
<linearGradient id="paint12_linear_1192_10636" x1="68.3266" y1="638.721" x2="91.1193" y2="657.045" gradientUnits="userSpaceOnUse">
<stop stop-color="#FEDB60"/>
<stop offset="1" stop-color="#F79272"/>
</linearGradient>
<linearGradient id="paint13_linear_1192_10636" x1="29.575" y1="372.536" x2="106.061" y2="423.976" gradientUnits="userSpaceOnUse">
<stop stop-color="#FF5FC1"/>
<stop offset="1" stop-color="#9467F4"/>
</linearGradient>
<linearGradient id="paint14_linear_1192_10636" x1="22.6385" y1="422.935" x2="105.17" y2="487.873" gradientUnits="userSpaceOnUse">
<stop stop-color="#8CA9FF"/>
<stop offset="1" stop-color="#5E31F9"/>
</linearGradient>
<clipPath id="clip0_1192_10636">
<rect width="144" height="692" fill="white" transform="matrix(-1 0 0 1 144 0)"/>
</clipPath>
</defs>
</svg>
