<svg width="54" height="54" viewBox="0 0 54 54" fill="none" xmlns="http://www.w3.org/2000/svg">
<path d="M7.28069 12.9487C6.74813 12.9487 6.31641 13.3807 6.31641 13.9135C6.31641 14.4463 6.74813 14.8783 7.28069 14.8783H10.5303C11.0629 14.8783 11.4946 14.4463 11.4946 13.9135C11.4946 13.3807 11.0629 12.9487 10.5303 12.9487H7.28069Z" fill="#FF5C39"/>
<path d="M22.4009 13.9135C22.4009 13.3807 21.9692 12.9487 21.4366 12.9487H18.1869C17.6544 12.9487 17.2227 13.3807 17.2227 13.9135C17.2227 14.4463 17.6544 14.8783 18.1869 14.8783H21.4366C21.9692 14.8783 22.4009 14.4463 22.4009 13.9135Z" fill="#FF5C39"/>
<path d="M28.2148 12.9487C27.6822 12.9487 27.2505 13.3807 27.2505 13.9135C27.2505 14.4463 27.6822 14.8783 28.2148 14.8783H38.3977C38.9302 14.8783 39.3619 14.4463 39.3619 13.9135C39.3619 13.3807 38.9302 12.9487 38.3977 12.9487H28.2148Z" fill="#FF5C39"/>
<path fill-rule="evenodd" clip-rule="evenodd" d="M3.68358 35.2734H31.6479H31.6865C32.2191 35.2734 32.6508 35.7053 32.6508 36.2382C32.6508 36.771 32.2191 37.2029 31.6865 37.2029H30.7222C28.7584 37.3034 27.2176 38.9258 27.2176 40.8931C27.2176 42.8605 28.7584 44.4829 30.7222 44.5834C31.2548 44.5834 31.6865 45.0153 31.6865 45.5481C31.6865 46.0809 31.2548 46.5129 30.7222 46.5129H15.8433C15.3107 46.5129 14.879 46.0809 14.879 45.5481C14.879 45.0153 15.3107 44.5834 15.8433 44.5834C17.8071 44.4829 19.3478 42.8605 19.3478 40.8931C19.3478 38.9258 17.8071 37.3034 15.8433 37.2029H3.70287C1.66159 37.2029 0.00531582 35.5501 0 33.5079V11.0675C0.00529922 9.02364 1.66003 7.36809 3.70287 7.36279H42.8626C44.9054 7.36809 46.5602 9.02364 46.5655 11.0675V18.255C46.5655 18.7878 46.1337 19.2197 45.6012 19.2197C45.0686 19.2197 44.6369 18.7878 44.6369 18.255V11.0675C44.6316 10.0893 43.8403 9.29759 42.8626 9.29232H3.70287C3.2323 9.29232 2.781 9.47934 2.44825 9.81225C2.11551 10.1452 1.92858 10.5967 1.92858 11.0675V33.5079C1.92856 34.4792 2.71276 35.2681 3.68358 35.2734ZM19.8838 44.5831H26.6338C24.863 42.4419 24.863 39.3438 26.6338 37.2026H19.8838C21.6546 39.3438 21.6546 42.4419 19.8838 44.5831Z" fill="#FF5C39"/>
<path d="M18.4374 21.3995C18.0977 20.9948 17.4958 20.9389 17.0874 21.2741L14.291 23.5992C14.0706 23.7828 13.9434 24.0551 13.9438 24.342C13.9434 24.629 14.0706 24.9012 14.291 25.0849L17.0874 27.41C17.2609 27.5538 17.4793 27.6323 17.7046 27.6319C17.988 27.6295 18.256 27.5025 18.4374 27.2845C18.7497 26.8848 18.6991 26.3113 18.3217 25.9725L16.3931 24.3806L18.3217 22.7984C18.5293 22.6327 18.6593 22.3887 18.6812 22.1239C18.7031 21.8592 18.6149 21.5971 18.4374 21.3995Z" fill="#FF5C39"/>
<path d="M29.4777 21.2744C29.0676 20.9334 28.4589 20.9895 28.118 21.3998C27.7772 21.8101 27.8333 22.4191 28.2434 22.7601L30.172 24.3423L28.2434 25.9342C27.9378 26.1956 27.8264 26.6192 27.9638 26.9972C28.1012 27.3752 28.4586 27.6282 28.8605 27.6322C29.0858 27.6326 29.3042 27.5541 29.4777 27.4103L32.2645 25.0852C32.4849 24.9016 32.6121 24.6293 32.6116 24.3423C32.6121 24.0554 32.4849 23.7831 32.2645 23.5995L29.4777 21.2744Z" fill="#FF5C39"/>
<path d="M21.7928 28.79C21.8952 28.8032 21.999 28.8032 22.1014 28.79C22.5335 28.8126 22.9278 28.5443 23.0657 28.134L25.3703 21.1491C25.5157 20.8143 25.4598 20.4261 25.2259 20.146C24.992 19.8659 24.62 19.7419 24.2649 19.8255C23.9098 19.9092 23.6323 20.1862 23.5478 20.5413L21.2142 27.5647C21.0397 28.0627 21.2975 28.6086 21.7928 28.79Z" fill="#FF5C39"/>
<path fill-rule="evenodd" clip-rule="evenodd" d="M51.2512 28.452C51.3267 28.6379 51.504 28.7624 51.7044 28.7704C52.9906 28.8563 53.9922 29.9215 53.9994 31.2112V31.9155C53.9922 33.2052 52.9906 34.2704 51.7044 34.3563C51.504 34.3643 51.3267 34.4888 51.2512 34.6747C51.169 34.8606 51.2071 35.0778 51.3476 35.2246C52.1942 36.1961 52.1479 37.6565 51.2416 38.5724L50.7498 39.0644C49.8352 39.9819 48.3647 40.0284 47.394 39.1705C47.243 39.0443 47.0345 39.0122 46.8525 39.0871C46.6705 39.1619 46.5449 39.3315 46.5262 39.5275C46.4497 40.8203 45.381 41.8304 44.0865 41.8333H43.3923C42.096 41.8307 41.0243 40.8218 40.943 39.5275C40.9312 39.3277 40.8061 39.1523 40.6211 39.0762C40.4361 39.0001 40.2239 39.0368 40.0751 39.1705C39.1076 40.0271 37.6403 39.9806 36.729 39.0644L36.2372 38.5724C35.3215 37.6606 35.275 36.1926 36.1312 35.2246C36.2649 35.0758 36.3015 34.8634 36.2255 34.6783C36.1494 34.4932 35.9741 34.3681 35.7744 34.3563C34.4843 34.2752 33.4773 33.2087 33.4697 31.9155V31.2112C33.4773 29.918 34.4843 28.8515 35.7744 28.7704C35.9741 28.7586 36.1494 28.6335 36.2255 28.4484C36.3015 28.2633 36.2649 28.0509 36.1312 27.9021C35.275 26.9341 35.3215 25.4661 36.2372 24.5544L36.729 24.0527C37.6444 23.1459 39.1041 23.0996 40.0751 23.9466C40.2219 24.0872 40.4389 24.1253 40.6247 24.043C40.8106 23.9675 40.935 23.7901 40.943 23.5896C41.0291 22.299 42.0995 21.2957 43.3923 21.2935H44.0865C45.3775 21.296 46.4449 22.3006 46.5262 23.5896C46.5332 23.7934 46.6628 23.9726 46.854 24.043C47.0354 24.1235 47.2471 24.0895 47.394 23.9562C48.3647 23.0983 49.8352 23.1448 50.7498 24.0623L51.2416 24.5447C52.1492 25.4638 52.1955 26.9275 51.3476 27.9021C51.2071 28.0489 51.169 28.2661 51.2512 28.452ZM51.5796 32.4268C51.8543 32.4164 52.0716 32.1905 52.0714 31.9155L52.0617 31.2112C52.0619 30.9361 51.8447 30.7102 51.57 30.6999C50.638 30.6368 49.8223 30.0509 49.4645 29.1877C49.1067 28.3245 49.2686 27.3329 49.8825 26.6286C50.071 26.428 50.071 26.1152 49.8825 25.9146L49.3907 25.4226C49.1902 25.2339 48.8776 25.2339 48.6771 25.4226C47.9751 26.0387 46.984 26.2018 46.1218 25.8432C45.2595 25.4846 44.6761 24.6667 44.6174 23.7343C44.5975 23.4601 44.3715 23.2465 44.0967 23.2422H43.4024C43.1258 23.2418 42.8971 23.4579 42.8817 23.7343C42.826 24.6705 42.2409 25.4928 41.375 25.8521C40.509 26.2114 39.5141 26.0446 38.8124 25.4226C38.6119 25.2339 38.2993 25.2339 38.0989 25.4226L37.6071 25.9146C37.4185 26.1152 37.4185 26.428 37.6071 26.6286C38.2233 27.3369 38.3826 28.3345 38.0178 29.1997C37.6531 30.065 36.8278 30.647 35.8906 30.6999C35.6181 30.715 35.4035 30.9381 35.3988 31.2112V31.9155C35.4035 32.1885 35.6181 32.4116 35.8906 32.4268C36.8226 32.4898 37.6383 33.0757 37.9961 33.9389C38.3539 34.8022 38.192 35.7937 37.5781 36.4981C37.3895 36.6987 37.3895 37.0114 37.5781 37.212L38.0699 37.704C38.2704 37.8927 38.583 37.8927 38.7835 37.704C39.2311 37.3102 39.8074 37.094 40.4035 37.0962C40.7339 37.0929 41.0616 37.1552 41.3678 37.2795C42.2312 37.6388 42.8149 38.4585 42.8721 39.3924C42.892 39.6666 43.118 39.8801 43.3928 39.8844H44.116C44.3908 39.8801 44.6168 39.6666 44.6367 39.3924C44.6953 38.4599 45.2788 37.642 46.1411 37.2834C47.0033 36.9248 47.9944 37.0879 48.6964 37.704C48.8969 37.8927 49.2095 37.8927 49.41 37.704L49.9017 37.212C50.0857 37.0096 50.0857 36.7005 49.9017 36.4981C49.2808 35.7974 49.1133 34.804 49.4701 33.9383C49.8268 33.0726 50.6455 32.486 51.5796 32.4268Z" fill="#FF5C39"/>
<path fill-rule="evenodd" clip-rule="evenodd" d="M39.8298 29.9464C40.486 28.3665 42.0297 27.3384 43.7397 27.3423C46.0648 27.3476 47.9483 29.2321 47.9536 31.5583C47.9575 33.2692 46.9299 34.8136 45.3508 35.4701C43.7717 36.1266 41.9527 35.7657 40.7435 34.5559C39.5344 33.3462 39.1736 31.5263 39.8298 29.9464ZM41.613 32.4439C41.9713 33.3016 42.8111 33.8585 43.7402 33.8546C45.0017 33.8441 46.0203 32.8207 46.0255 31.5585C46.0255 30.6289 45.4653 29.791 44.6066 29.4362C43.7478 29.0814 42.7599 29.2796 42.1043 29.9383C41.4487 30.597 41.2547 31.5862 41.613 32.4439Z" fill="#FF5C39"/>
</svg>
