<svg width="54" height="54" viewBox="0 0 54 54" fill="none" xmlns="http://www.w3.org/2000/svg">
<g clip-path="url(#clip0_502_3848)">
<path d="M52.3125 6.75H45.5625C45.3387 6.75 45.1241 6.83889 44.9659 6.99713C44.8076 7.15536 44.7188 7.36997 44.7188 7.59375C44.7188 7.81753 44.8076 8.03214 44.9659 8.19037C45.1241 8.34861 45.3387 8.4375 45.5625 8.4375H51.4688V33.75H43.0312V0.84375C43.0312 0.619974 42.9424 0.405362 42.7841 0.247129C42.6259 0.0888949 42.4113 0 42.1875 0L11.8125 0C11.5887 0 11.3741 0.0888949 11.2159 0.247129C11.0576 0.405362 10.9688 0.619974 10.9688 0.84375V33.75H2.53125V8.4375H8.4375C8.66128 8.4375 8.87589 8.34861 9.03412 8.19037C9.19236 8.03214 9.28125 7.81753 9.28125 7.59375C9.28125 7.36997 9.19236 7.15536 9.03412 6.99713C8.87589 6.83889 8.66128 6.75 8.4375 6.75H1.6875C1.46372 6.75 1.24911 6.83889 1.09088 6.99713C0.932645 7.15536 0.84375 7.36997 0.84375 7.59375V41.3438C0.84375 41.5675 0.932645 41.7821 1.09088 41.9404C1.24911 42.0986 1.46372 42.1875 1.6875 42.1875H21.0938V45.5625H11.8125C11.6558 45.5625 11.5022 45.6061 11.3689 45.6885C11.2356 45.7708 11.1279 45.8887 11.0578 46.0288L7.68277 52.7788C7.61843 52.9075 7.58804 53.0504 7.5945 53.1941C7.60096 53.3378 7.64405 53.4775 7.71967 53.5998C7.79529 53.7222 7.90094 53.8232 8.02657 53.8932C8.15221 53.9633 8.29366 54 8.4375 54H45.5625C45.7063 54 45.8478 53.9633 45.9734 53.8932C46.0991 53.8232 46.2047 53.7222 46.2803 53.5998C46.3559 53.4775 46.399 53.3378 46.4055 53.1941C46.412 53.0504 46.3816 52.9075 46.3172 52.7788L42.9422 46.0288C42.8721 45.8887 42.7644 45.7708 42.6311 45.6885C42.4978 45.6061 42.3442 45.5625 42.1875 45.5625H32.9062V42.1875H52.3125C52.5363 42.1875 52.7509 42.0986 52.9091 41.9404C53.0674 41.7821 53.1562 41.5675 53.1562 41.3438V7.59375C53.1562 7.36997 53.0674 7.15536 52.9091 6.99713C52.7509 6.83889 52.5363 6.75 52.3125 6.75ZM12.6562 1.6875H41.3438V33.75H38.8125V14.3438C38.8125 14.12 38.7236 13.9054 38.5654 13.7471C38.4071 13.5889 38.1925 13.5 37.9688 13.5H32.9062C32.6825 13.5 32.4679 13.5889 32.3096 13.7471C32.1514 13.9054 32.0625 14.12 32.0625 14.3438V33.75H30.375V20.25C30.375 20.0262 30.2861 19.8116 30.1279 19.6534C29.9696 19.4951 29.755 19.4062 29.5312 19.4062H24.4688C24.245 19.4062 24.0304 19.4951 23.8721 19.6534C23.7139 19.8116 23.625 20.0262 23.625 20.25V33.75H21.9375V25.3125C21.9375 25.0887 21.8486 24.8741 21.6904 24.7159C21.5321 24.5576 21.3175 24.4688 21.0938 24.4688H16.0312C15.8075 24.4688 15.5929 24.5576 15.4346 24.7159C15.2764 24.8741 15.1875 25.0887 15.1875 25.3125V33.75H12.6562V1.6875ZM37.125 33.75H33.75V15.1875H37.125V33.75ZM28.6875 33.75H25.3125V21.0938H28.6875V33.75ZM20.25 33.75H16.875V26.1562H20.25V33.75ZM44.1971 52.3125H9.80286L12.3341 47.25H20.9382C20.7649 47.7421 20.4435 48.1685 20.0181 48.4707C19.5927 48.7728 19.0843 48.9359 18.5625 48.9375C18.3387 48.9375 18.1241 49.0264 17.9659 49.1846C17.8076 49.3429 17.7188 49.5575 17.7188 49.7812C17.7188 50.005 17.8076 50.2196 17.9659 50.3779C18.1241 50.5361 18.3387 50.625 18.5625 50.625H35.4375C35.6613 50.625 35.8759 50.5361 36.0341 50.3779C36.1924 50.2196 36.2812 50.005 36.2812 49.7812C36.2812 49.5575 36.1924 49.3429 36.0341 49.1846C35.8759 49.0264 35.6613 48.9375 35.4375 48.9375C34.9157 48.9359 34.4073 48.7728 33.9819 48.4707C33.5565 48.1685 33.2351 47.7421 33.0618 47.25H41.6659L44.1971 52.3125ZM31.2188 46.4062C31.2177 47.3195 31.5147 48.2083 32.0645 48.9375H21.9355C22.4853 48.2083 22.7823 47.3195 22.7812 46.4062V42.1875H31.2188V46.4062ZM51.4688 40.5H2.53125V35.4375H51.4688V40.5Z" fill="#3B3B46"/>
<path d="M28.6875 37.125H25.3125C25.0887 37.125 24.8741 37.2139 24.7159 37.3721C24.5576 37.5304 24.4688 37.745 24.4688 37.9688C24.4688 38.1925 24.5576 38.4071 24.7159 38.5654C24.8741 38.7236 25.0887 38.8125 25.3125 38.8125H28.6875C28.9113 38.8125 29.1259 38.7236 29.2841 38.5654C29.4424 38.4071 29.5312 38.1925 29.5312 37.9688C29.5312 37.745 29.4424 37.5304 29.2841 37.3721C29.1259 37.2139 28.9113 37.125 28.6875 37.125Z" fill="#3B3B46"/>
<path d="M21.9375 17.7188C23.2007 17.7209 24.439 17.3679 25.5112 16.7001C26.5835 16.0324 27.4464 15.0767 28.0016 13.9421C28.5568 12.8075 28.782 11.5397 28.6514 10.2833C28.5208 9.02691 28.0397 7.83253 27.263 6.8364L29.0369 5.0625H30.375C30.5988 5.0625 30.8134 4.97361 30.9717 4.81537C31.1299 4.65714 31.2188 4.44253 31.2188 4.21875C31.2188 3.99497 31.1299 3.78036 30.9717 3.62213C30.8134 3.4639 30.5988 3.375 30.375 3.375H28.6875C28.4638 3.37505 28.2492 3.46397 28.091 3.62222L26.0699 5.64334C25.2216 4.98495 24.2284 4.53857 23.1729 4.34131C22.1173 4.14406 21.03 4.20162 20.0011 4.50922C18.9723 4.81683 18.0318 5.36558 17.2578 6.10985C16.4838 6.85412 15.8986 7.77242 15.5509 8.78839C15.2032 9.80436 15.1031 10.8886 15.2588 11.9511C15.4146 13.0136 15.8217 14.0235 16.4464 14.8969C17.071 15.7703 17.8951 16.4821 18.8502 16.9729C19.8053 17.4637 20.8637 17.7194 21.9375 17.7188ZM24.716 8.19028C24.7943 8.26865 24.8873 8.33083 24.9897 8.37324C25.092 8.41566 25.2017 8.43749 25.3125 8.43749C25.4233 8.43749 25.533 8.41566 25.6354 8.37324C25.7378 8.33083 25.8308 8.26865 25.9091 8.19028L26.0593 8.04001C26.5019 8.6605 26.7976 9.37345 26.9241 10.125H25.1927C25.0416 9.54489 24.7385 9.01559 24.3146 8.5917C23.8907 8.16781 23.3614 7.86468 22.7813 7.71356V5.98219C23.5328 6.10865 24.2458 6.40426 24.8663 6.84669L24.716 6.99697C24.6376 7.07528 24.5754 7.16829 24.5329 7.27067C24.4905 7.37305 24.4686 7.48279 24.4686 7.59362C24.4686 7.70445 24.4905 7.8142 24.5329 7.91658C24.5754 8.01896 24.6376 8.11196 24.716 8.19028ZM21.9375 9.28125C22.2713 9.28125 22.5976 9.38022 22.8751 9.56565C23.1526 9.75107 23.3689 10.0146 23.4966 10.323C23.6243 10.6313 23.6577 10.9706 23.5926 11.298C23.5275 11.6253 23.3668 11.926 23.1308 12.162C22.8948 12.398 22.5941 12.5587 22.2668 12.6238C21.9394 12.6889 21.6001 12.6555 21.2918 12.5278C20.9834 12.4001 20.7199 12.1838 20.5344 11.9063C20.349 11.6288 20.25 11.3025 20.25 10.9688C20.2506 10.5214 20.4285 10.0924 20.7449 9.77607C21.0612 9.45972 21.4901 9.28176 21.9375 9.28125ZM21.0938 5.98219V7.71356C20.5181 7.86118 19.9918 8.15848 19.5682 8.57528C19.1446 8.99208 18.8389 9.51354 18.682 10.0867C18.5251 10.6599 18.5226 11.2644 18.6749 11.8388C18.8271 12.4133 19.1287 12.9372 19.5489 13.3574C19.9691 13.7776 20.493 14.0791 21.0675 14.2314C21.6419 14.3837 22.2464 14.3812 22.8196 14.2243C23.3927 14.0674 23.9142 13.7617 24.331 13.3381C24.7478 12.9145 25.0451 12.3881 25.1927 11.8125H26.9241C26.7697 12.7284 26.3661 13.5841 25.7576 14.2859C25.1492 14.9876 24.3593 15.5083 23.4745 15.791C22.5897 16.0736 21.6442 16.1072 20.7416 15.8881C19.839 15.669 19.0141 15.2057 18.3573 14.549C17.7006 13.8922 17.2373 13.0673 17.0182 12.1647C16.7991 11.2621 16.8327 10.3166 17.1153 9.4318C17.398 8.54702 17.9187 7.75712 18.6204 7.14864C19.3222 6.54017 20.1779 6.13661 21.0938 5.98219Z" fill="#3B3B46"/>
<path d="M37.9688 6.75H31.2188C30.995 6.75 30.7804 6.8389 30.6221 6.99713C30.4639 7.15536 30.375 7.36997 30.375 7.59375C30.375 7.81753 30.4639 8.03214 30.6221 8.19037C30.7804 8.34861 30.995 8.4375 31.2188 8.4375H37.9688C38.1925 8.4375 38.4071 8.34861 38.5654 8.19037C38.7236 8.03214 38.8125 7.81753 38.8125 7.59375C38.8125 7.36997 38.7236 7.15536 38.5654 6.99713C38.4071 6.8389 38.1925 6.75 37.9688 6.75Z" fill="#3B3B46"/>
<path d="M32.9062 5.0625H37.9688C38.1925 5.0625 38.4071 4.97361 38.5654 4.81537C38.7236 4.65714 38.8125 4.44253 38.8125 4.21875C38.8125 3.99497 38.7236 3.78036 38.5654 3.62213C38.4071 3.4639 38.1925 3.375 37.9688 3.375H32.9062C32.6825 3.375 32.4679 3.4639 32.3096 3.62213C32.1514 3.78036 32.0625 3.99497 32.0625 4.21875C32.0625 4.44253 32.1514 4.65714 32.3096 4.81537C32.4679 4.97361 32.6825 5.0625 32.9062 5.0625Z" fill="#3B3B46"/>
<path d="M37.9688 10.125H31.2188C30.995 10.125 30.7804 10.2139 30.6221 10.3721C30.4639 10.5304 30.375 10.745 30.375 10.9688C30.375 11.1925 30.4639 11.4071 30.6221 11.5654C30.7804 11.7236 30.995 11.8125 31.2188 11.8125H37.9688C38.1925 11.8125 38.4071 11.7236 38.5654 11.5654C38.7236 11.4071 38.8125 11.1925 38.8125 10.9688C38.8125 10.745 38.7236 10.5304 38.5654 10.3721C38.4071 10.2139 38.1925 10.125 37.9688 10.125Z" fill="#3B3B46"/>
</g>
<defs>
<clipPath id="clip0_502_3848">
<rect width="54" height="54" fill="white"/>
</clipPath>
</defs>
</svg>
