<svg width="54" height="54" viewBox="0 0 54 54" fill="none" xmlns="http://www.w3.org/2000/svg">
<path fill-rule="evenodd" clip-rule="evenodd" d="M35.2558 0H47.6879C51.172 0.00531149 53.995 2.83075 54.0003 6.31774V14.9022C53.995 18.3891 51.172 21.2146 47.6879 21.2199H35.2558C31.7717 21.2146 28.9487 18.3891 28.9434 14.9022V6.31774C28.9487 2.83075 31.7717 0.00531149 35.2558 0ZM35.2556 19.2904H47.6877C50.1094 19.2904 52.0727 17.3256 52.0727 14.9018V6.31737C52.0727 3.89358 50.1094 1.92871 47.6877 1.92871H35.2556C32.8338 1.92871 30.8706 3.89358 30.8706 6.31737V14.9018C30.8706 16.0657 31.3326 17.182 32.1549 18.005C32.9773 18.8281 34.0926 19.2904 35.2556 19.2904Z" fill="#3B3B46"/>
<path fill-rule="evenodd" clip-rule="evenodd" d="M37.9736 5.78775L45.8376 9.74237C46.1556 9.90262 46.3594 10.2253 46.3677 10.5815C46.3666 10.9447 46.1617 11.2765 45.8376 11.44L37.9736 15.3753C37.8386 15.4422 37.6905 15.4785 37.5399 15.4814C37.0076 15.4814 36.5762 15.0495 36.5762 14.5168V6.64619C36.5772 6.31189 36.7511 6.00195 37.0358 5.82707C37.3204 5.65219 37.6753 5.63731 37.9736 5.78775ZM38.5029 8.2373V12.9828L43.2445 10.6101L38.5029 8.2373Z" fill="#3B3B46"/>
<path d="M46.9174 37.2122C45.1838 37.9474 44.0492 39.6395 44.0262 41.5237H43.3998C42.8675 41.5237 42.436 41.9556 42.436 42.4883C42.436 43.021 42.8675 43.4528 43.3998 43.4528H44.0744V47.311C44.0744 47.8437 44.5059 48.2755 45.0381 48.2755C45.5704 48.2755 46.0018 47.8437 46.0018 47.311V43.4528H46.715C47.2472 43.4528 47.6787 43.021 47.6787 42.4883C47.6787 41.9556 47.2472 41.5237 46.715 41.5237H46.0018C46.0265 40.4144 46.6975 39.4222 47.7173 38.987C48.1858 38.7664 48.3964 38.2148 48.1943 37.7377C47.9923 37.2607 47.4497 37.0286 46.9656 37.2122H46.9174Z" fill="#3B3B46"/>
<path fill-rule="evenodd" clip-rule="evenodd" d="M41.9153 34.0396H48.7385C51.6424 34.0449 53.9951 36.3996 54.0004 39.3059V46.1349C53.9951 49.0412 51.6424 51.396 48.7385 51.4013H41.9153C39.0114 51.396 36.6586 49.0412 36.6533 46.1349V39.3059C36.6586 36.3996 39.0114 34.0449 41.9153 34.0396ZM48.7383 49.4718C50.5799 49.4718 52.0728 47.9777 52.0728 46.1345V39.3056C52.0728 38.4205 51.7215 37.5716 51.0961 36.9457C50.4708 36.3199 49.6226 35.9683 48.7383 35.9683H41.9151C41.0307 35.9683 40.1826 36.3199 39.5572 36.9457C38.9319 37.5716 38.5806 38.4205 38.5806 39.3056V46.1345C38.5806 47.9777 40.0735 49.4718 41.9151 49.4718H48.7383Z" fill="#3B3B46"/>
<path fill-rule="evenodd" clip-rule="evenodd" d="M13.0514 24.8276H6.30527C3.37631 24.8276 1.00043 22.454 0.995117 19.5226V12.7708C1.00043 9.83938 3.37631 7.46582 6.30527 7.46582H13.0514C15.9788 7.46582 18.3519 9.84094 18.3519 12.7708V19.5226C18.3519 22.4524 15.9788 24.8276 13.0514 24.8276ZM6.30453 9.40384C4.44008 9.40383 2.92715 10.9137 2.92184 12.7797V19.5315C2.92715 21.3975 4.44008 22.9074 6.30453 22.9074H13.0506C14.9135 22.9074 16.4237 21.396 16.4237 19.5315V12.7797C16.4237 10.9153 14.9135 9.40384 13.0506 9.40384H6.30453Z" fill="#3B3B46"/>
<path fill-rule="evenodd" clip-rule="evenodd" d="M13.5238 16.1472C13.5238 18.278 11.7979 20.0054 9.66888 20.0054C7.53987 20.0054 5.81396 18.278 5.81396 16.1472C5.81396 14.0164 7.53987 12.2891 9.66888 12.2891C11.7979 12.2891 13.5238 14.0164 13.5238 16.1472ZM11.5961 16.1469C11.5961 15.0815 10.7332 14.2178 9.66867 14.2178C8.60416 14.2178 7.74121 15.0815 7.74121 16.1469C7.74121 17.2123 8.60416 18.0759 9.66867 18.0759C10.7332 18.0759 11.5961 17.2123 11.5961 16.1469Z" fill="#3B3B46"/>
<ellipse cx="13.9188" cy="11.8925" rx="0.963729" ry="0.964288" fill="#3B3B46"/>
<path d="M33.1448 31.9551C32.92 31.5048 32.387 31.3031 31.9208 31.4921L27.507 33.4984C27.1716 33.7747 27.0625 34.2414 27.2403 34.6379C27.4182 35.0345 27.8392 35.2631 28.2683 35.1959L32.6822 33.1897C33.1372 32.9644 33.3396 32.4243 33.1448 31.9551Z" fill="#3B3B46"/>
<path d="M26.7169 27.4898L25.5122 30.7017C25.3517 31.1803 25.587 31.7019 26.0519 31.8977C26.533 32.0644 27.0606 31.8278 27.2566 31.3576L28.4613 28.1457C28.5053 27.7102 28.2508 27.2996 27.8414 27.1457C27.4319 26.9917 26.9703 27.133 26.7169 27.4898Z" fill="#3B3B46"/>
<path d="M32.9235 37.9927L29.7336 36.7969C29.2554 36.6363 28.7343 36.8717 28.5386 37.3369C28.3721 37.8183 28.6084 38.3462 29.0783 38.5423L32.2682 39.738C32.4943 39.8267 32.7456 39.8267 32.9717 39.738C33.2001 39.6393 33.3778 39.451 33.4632 39.2173C33.6418 38.7303 33.4034 38.1892 32.9235 37.9927Z" fill="#3B3B46"/>
<path fill-rule="evenodd" clip-rule="evenodd" d="M25.5026 38.967C26.6539 38.0113 27.0179 36.3996 26.3892 35.0413C25.7764 33.6816 24.3364 32.894 22.862 33.1122L20.6839 28.2895C20.5376 28.0063 20.2608 27.8138 19.9446 27.7752C19.6284 27.7366 19.3135 27.8569 19.1034 28.0966L17.176 30.4983C15.246 32.9132 12.7725 34.8368 9.95764 36.1119L3.40428 39.0827C2.00585 39.7142 0.915479 40.876 0.373226 42.3124C-0.169027 43.7488 -0.118713 45.3419 0.513094 46.7412C1.14043 48.1406 2.30395 49.2287 3.74159 49.7602C5.17406 50.2983 6.76125 50.2463 8.15547 49.6155L9.70707 48.9114L13.6584 53.165C14.4111 53.9837 15.6029 54.2285 16.617 53.7727L18.8432 52.7599C19.1122 52.6227 19.3014 52.3673 19.3544 52.0699C19.4074 51.7724 19.3181 51.4674 19.1131 51.2456L14.4872 46.7508L14.7667 46.6254C17.5387 45.3845 20.5603 44.8034 23.5944 44.9278L26.7362 45.0821C26.8819 45.0822 27.0262 45.0526 27.1602 44.9953C27.3172 44.9249 27.4509 44.8111 27.5457 44.6674C27.7212 44.3971 27.7501 44.0569 27.6228 43.7607L25.5026 38.967ZM24.6939 35.8131C24.8483 36.1767 24.8483 36.5874 24.6939 36.951L24.6264 37.0956L23.6621 34.9839C24.1164 35.0846 24.4978 35.3912 24.6939 35.8131ZM4.43248 48.07C5.40928 48.4334 6.49149 48.3855 7.43246 47.9373L8.36728 47.5322C7.09935 47.0233 6.00744 46.1551 5.22552 45.034C4.42372 43.8202 3.99179 42.3994 3.98231 40.9444C2.15775 41.9082 1.39776 44.1267 2.24759 46.0082C2.6675 46.9628 3.45567 47.7065 4.43248 48.07ZM16.8963 51.6412L15.9326 52.0849C15.644 52.2175 15.303 52.1516 15.0845 51.921L11.5669 48.1207L12.7523 47.5805L16.8963 51.6412ZM14.1685 44.8885C17.1744 43.5489 20.4515 42.9312 23.7384 43.0848L25.3574 43.1523L23.4878 39.0145L21.4832 34.5969L19.6136 30.459L18.6499 31.6743C16.5352 34.3184 13.8279 36.4266 10.7473 37.8281L5.87081 40.0369C5.71422 41.4168 6.03388 42.8088 6.77672 43.9818C7.79534 45.302 9.30369 46.1542 10.9593 46.345L12.5591 45.6119L14.0529 44.9367L14.1685 44.8885Z" fill="#3B3B46"/>
<path d="M45.7025 31.1646C45.7664 31.1737 45.8313 31.1737 45.8952 31.1646C46.3605 31.174 46.766 30.8493 46.859 30.393C47.1327 29.0502 47.2715 27.6834 47.2734 26.313C47.27 25.478 47.2185 24.6439 47.1192 23.8148C47.0553 23.2821 46.572 22.9021 46.0398 22.966C45.5075 23.0299 45.1278 23.5136 45.1917 24.0463C45.2878 24.798 45.3361 25.5551 45.3363 26.313C45.3373 27.554 45.2113 28.7918 44.9604 30.0071C44.9033 30.2593 44.9496 30.5239 45.0891 30.7415C45.2287 30.9591 45.4496 31.1115 45.7025 31.1646Z" fill="#3B3B46"/>
<path d="M20.5489 9.12344C20.6607 9.12331 20.7715 9.10373 20.8766 9.06559C22.1693 8.59485 23.5109 8.27138 24.8761 8.1013C25.586 8.01603 26.3005 7.97417 27.0155 7.97594C27.5478 7.97594 27.9793 7.54421 27.9793 7.01165C27.9793 6.47909 27.5478 6.04736 27.0155 6.04736C26.2266 6.04881 25.4384 6.09388 24.6544 6.18236C23.1452 6.35549 21.661 6.7017 20.2309 7.21415C19.7929 7.37311 19.5313 7.82279 19.6094 8.28235C19.6876 8.7419 20.0831 9.07974 20.5489 9.08487V9.12344Z" fill="#3B3B46"/>
<path d="M7.74108 26.795C7.48524 26.8123 7.24684 26.9309 7.07863 27.1246C6.91043 27.3183 6.82628 27.5711 6.84481 27.8271C6.98638 29.7507 7.40177 31.6443 8.07838 33.4503C8.21953 33.8284 8.58099 34.0786 8.98429 34.0773C9.09916 34.0769 9.21316 34.0574 9.32159 34.0194C9.56235 33.9305 9.75775 33.7492 9.86448 33.5157C9.97121 33.2821 9.98047 33.0156 9.89019 32.7752C9.27305 31.1441 8.89645 29.4317 8.77227 27.692C8.75499 27.436 8.63647 27.1974 8.44294 27.029C8.24941 26.8607 7.99682 26.7765 7.74108 26.795Z" fill="#3B3B46"/>
</svg>
