<svg width="54" height="54" viewBox="0 0 54 54" fill="none" xmlns="http://www.w3.org/2000/svg">
<path d="M47.9339 33.3193C47.9393 29.6567 46.0216 26.2432 42.845 24.2608C42.3839 23.9708 41.7675 24.0981 41.4684 24.5451C41.1692 24.9922 41.3005 25.5898 41.7616 25.8798C45.1208 27.9623 46.682 31.9285 45.6081 35.6514C44.8189 36.4627 43.7663 36.9866 42.6263 37.1355C41.9212 37.1341 41.2495 36.8436 40.7776 36.3356C40.591 36.1532 40.3369 36.0506 40.0719 36.0506C39.8069 36.0506 39.5528 36.1532 39.3662 36.3356C38.9808 36.7115 38.9808 37.3185 39.3662 37.6944C40.1924 38.5594 41.3507 39.0547 42.5667 39.0628H42.6859C43.964 38.9704 45.1819 38.4994 46.1747 37.7137C46.5757 38.7154 46.7813 39.7807 46.781 40.8552C46.7759 45.3025 43.3767 49.0596 38.8295 49.6439C40.2933 47.776 41.0858 45.4947 41.0857 43.1488C41.0857 42.6165 40.6407 42.1851 40.0918 42.1851C39.5428 42.1851 39.0978 42.6165 39.0978 43.1488C39.0982 45.7903 37.885 48.2947 35.788 49.9812L35.6787 50.0583C35.4998 50.2028 35.301 50.3377 35.1022 50.4726L34.9332 50.5786C34.7616 50.6958 34.5824 50.8021 34.3965 50.8967L34.1381 51.0316L33.661 51.2532L33.3131 51.3978L32.9056 51.5423L32.4782 51.6676L32.1204 51.764L31.6334 51.87H31.3252L30.7786 51.947H30.5599C30.3611 51.947 30.1524 51.947 29.9437 51.947C27.1367 51.9502 24.4837 50.7032 22.7476 48.5646C22.5123 48.2737 22.1262 48.1389 21.7536 48.2176C20.1181 48.5613 18.4167 48.4647 16.8337 47.9382C18.2778 47.1279 19.5012 45.9946 20.4019 44.6328C20.6521 44.1912 20.5092 43.6372 20.074 43.3618C19.6388 43.0864 19.0583 43.1826 18.742 43.5824C17.6713 45.1905 16.0647 46.3945 14.1898 46.9938H14.0705C11.2752 47.9206 8.19038 47.4824 5.78668 45.8172C3.38299 44.152 1.9559 41.4645 1.95443 38.6002C1.94427 35.3022 3.83527 32.2751 6.85454 30.756C7.21876 30.5713 7.42814 30.1882 7.38132 29.7923C7.34096 29.4726 7.32104 29.1507 7.32169 28.8286C7.306 26.0994 8.59473 23.517 10.8117 21.8351C13.0287 20.1532 15.924 19.5615 18.6526 20.2327C19.2887 21.0133 20.4615 22.7864 20.1832 24.0874C20.1307 24.3392 20.1841 24.601 20.3315 24.8145C20.4789 25.0281 20.7082 25.1757 20.9684 25.2245H21.1573C21.6371 25.2339 22.0553 24.9095 22.1512 24.4536C22.5488 22.5262 21.4256 20.5989 20.6404 19.5196C23.0184 18.0377 25.9619 17.6832 28.6416 18.5559C28.857 18.6302 29.0922 18.6302 29.3076 18.5559C30.2649 18.2259 31.2733 18.0565 32.2894 18.0548C32.8383 18.0548 33.2833 17.6234 33.2833 17.0912C33.2833 16.5589 32.8383 16.1275 32.2894 16.1275C31.1462 16.1244 30.0095 16.2935 28.9199 16.6286C25.5365 15.6745 21.8881 16.2937 19.0402 18.3054C15.7167 17.5633 12.2257 18.3352 9.56255 20.4008C6.89942 22.4664 5.35644 25.5992 5.37357 28.9057C5.37357 29.1177 5.37357 29.3105 5.37357 29.5032C1.10458 32.0084 -0.925848 36.9601 0.40375 41.6233C1.73335 46.2865 6.09869 49.5239 11.0887 49.5475H11.2776C12.304 49.5322 13.3236 49.3831 14.3091 49.1042C16.5082 50.2957 19.0574 50.7337 21.5449 50.3474C23.6531 52.6715 26.6918 54.0024 29.884 53.9997H30.3313C30.5202 53.9997 30.6991 53.9997 30.878 53.9997L31.4346 53.9322L31.8918 53.8647C32.0806 53.8647 32.2595 53.7973 32.4285 53.7491C32.5897 53.7197 32.7491 53.681 32.9056 53.6335L33.3926 53.4889L33.9294 53.2962C34.0586 53.248 34.1878 53.2095 34.3071 53.1516C34.607 53.0344 34.8991 52.8993 35.1817 52.7469C35.7443 52.4551 36.2797 52.1165 36.782 51.735C37.0404 51.735 37.3087 51.735 37.5771 51.735C43.7284 51.7297 48.7136 46.8963 48.7191 40.9323C48.7251 39.2579 48.3197 37.6062 47.5363 36.114C47.794 35.2032 47.9276 34.2637 47.9339 33.3193Z" fill="#3B3B46"/>
<path d="M15.3131 25.7546C14.808 25.5475 14.2254 25.776 14.011 26.2654C13.4274 27.5935 13.1298 29.0233 13.1363 30.467C13.1345 32.3531 13.6417 34.2069 14.6074 35.8442C14.7849 36.1438 15.1138 36.3287 15.4701 36.3294C15.8264 36.3301 16.1561 36.1464 16.3348 35.8475C16.5136 35.5487 16.5144 35.1801 16.3368 34.8806C14.9176 32.4773 14.7339 29.5703 15.8398 27.017C16.0535 26.5274 15.8178 25.9625 15.3131 25.7546Z" fill="#3B3B46"/>
<path fill-rule="evenodd" clip-rule="evenodd" d="M52.943 9.62297C53.3911 9.60171 53.7984 9.87416 53.9369 10.2879C54.0978 10.706 53.9415 11.1765 53.5592 11.425L28.4127 28.7711C28.2449 28.8889 28.0433 28.9529 27.8362 28.9542C27.4324 28.9564 27.0673 28.7216 26.9124 28.36C26.7576 27.9985 26.8438 27.582 27.1305 27.3063L39.6938 15.1255H34.1377C33.7389 15.1252 33.3789 14.8938 33.2233 14.5377C33.0702 14.1769 33.1565 13.7622 33.442 13.4873L46.9694 0.275381C47.3175 -0.055341 47.8616 -0.092557 48.2542 0.187503C48.6467 0.467563 48.7719 0.98227 48.5498 1.40287L44.1765 9.62297H52.943ZM42.7856 14.798L36.9313 20.474L49.8524 11.5504H42.5768C42.2294 11.5511 41.9069 11.3759 41.7261 11.0884C41.5453 10.8008 41.5324 10.4425 41.6922 10.1435L43.8888 6.01897L36.5337 13.1501H42.0799C42.4847 13.1482 42.8504 13.3845 43.0042 13.7476C43.1573 14.1084 43.071 14.5231 42.7856 14.798Z" fill="#3B3B46"/>
<path d="M28.3541 40.8939C28.3596 35.9677 32.4771 31.9756 37.5579 31.9703C38.1069 31.9703 38.5519 31.5389 38.5519 31.0066C38.5519 30.4744 38.1069 30.043 37.5579 30.043C31.3792 30.0483 26.3717 34.9033 26.3662 40.8939C26.3662 41.4261 26.8112 41.8575 27.3601 41.8575C27.9091 41.8575 28.3541 41.4261 28.3541 40.8939Z" fill="#3B3B46"/>
</svg>
