<svg width="96" height="96" viewBox="0 0 96 96" fill="none" xmlns="http://www.w3.org/2000/svg">
<path d="M29.7309 73.5277C29.1806 73.5277 28.6292 73.4303 28.1036 73.2336C25.8719 72.3982 24.6378 70.0288 25.2328 67.722L30.3927 47.6953L30.4865 33.9074L27.8719 35.7428L27.2687 42.9892C27.1725 44.1419 26.5933 45.2093 25.6794 45.918C24.7654 46.6266 23.5871 46.9219 22.4468 46.7279C21.4269 46.5543 20.5146 46.0098 19.8777 45.1944C19.2409 44.379 18.9334 43.362 19.0121 42.3304L19.7303 32.9177C19.8342 31.557 20.5278 30.318 21.633 29.5184L30.3281 23.2266C33.2205 21.1341 37.1773 21.4213 39.7366 23.9096L46.5804 30.5617L55.7969 31.1934C55.8447 31.1966 55.8923 31.2022 55.9395 31.2103C58.0841 31.5729 59.6407 33.4149 59.6407 35.5901C59.6407 36.8805 59.081 38.1049 58.105 38.9493C57.1496 39.7759 55.891 40.1553 54.6407 39.997L45.6242 39.6126C45.5752 39.6106 45.5265 39.606 45.4781 39.599C44.8603 39.5095 44.2763 39.299 43.742 38.9732L41.5229 37.6189L41.5896 42.7099L49.2734 46.2426C50.6021 46.8531 51.4275 48.244 51.3269 49.7033L50.6232 59.9438C50.5394 61.1637 49.975 62.2655 49.0339 63.0462C48.0928 63.8269 46.9056 64.1778 45.6911 64.0353C43.4372 63.7705 41.7569 61.8591 41.783 59.5891L41.8539 53.4252L38.7573 52.1636L34.237 70.0217C33.9131 71.3009 33.0569 72.3857 31.8878 72.9978C31.216 73.3497 30.4745 73.5277 29.7309 73.5277ZM31.9554 29.6558C32.1857 29.6558 32.4166 29.7106 32.6282 29.8215C33.1088 30.0734 33.4085 30.5726 33.4048 31.1153L33.2906 47.8938C33.2898 48.0125 33.2744 48.1306 33.2448 48.2456L28.0402 68.4458C27.8164 69.3134 28.2805 70.2042 29.1197 70.5184C29.5912 70.6946 30.0966 70.6631 30.5428 70.4295C30.9891 70.1958 31.3029 69.7983 31.4264 69.3101L36.3556 49.8366C36.4585 49.43 36.7326 49.0879 37.1069 48.8987C37.4813 48.7093 37.9192 48.6916 38.3078 48.8499L43.8616 51.1125C44.413 51.3372 44.771 51.8763 44.7641 52.4716L44.682 59.6224C44.673 60.4054 45.2523 61.0646 46.0296 61.1559C46.4487 61.2052 46.8583 61.0841 47.1828 60.8149C47.5073 60.5457 47.7019 60.1658 47.7309 59.745L48.4345 49.5042C48.4527 49.2394 48.3033 48.9874 48.0626 48.8768L39.5465 44.9615C39.0383 44.7279 38.7098 44.2227 38.7025 43.6634L38.5896 35.0341C38.5827 34.5065 38.8629 34.0169 39.3213 33.7556C39.7797 33.4944 40.3439 33.5029 40.7942 33.7778L45.2517 36.4982C45.4315 36.6078 45.6266 36.6823 45.8321 36.7197L54.8305 37.1033C54.8796 37.1054 54.9285 37.11 54.9771 37.117C55.4271 37.1824 55.8641 37.0545 56.208 36.7569C56.552 36.4593 56.7414 36.0449 56.7414 35.5902C56.7414 34.8549 56.2293 34.2292 55.5153 34.0802L45.8519 33.4179C45.5096 33.3944 45.1867 33.2503 44.9406 33.0112L37.7156 25.9885C36.1683 24.484 33.7762 24.3106 32.0275 25.5756L23.3325 31.8673C22.9192 32.1663 22.6599 32.6296 22.6211 33.1384L21.9029 42.551C21.8539 43.1945 22.2967 43.7615 22.9331 43.8697C23.2804 43.9289 23.6247 43.8425 23.9028 43.6269C24.181 43.4112 24.3502 43.0993 24.3795 42.7485L25.039 34.826C25.0747 34.3975 25.2988 34.0069 25.6508 33.7598L31.1224 29.919C31.371 29.7444 31.6626 29.6558 31.9554 29.6558Z" fill="#FF5C39"/>
<path d="M36.6634 21.0917C32.9756 21.0917 29.9753 18.0915 29.9753 14.4037C29.9753 10.7158 32.9756 7.71558 36.6634 7.71558C40.3513 7.71558 43.3515 10.7158 43.3515 14.4037C43.3515 18.0915 40.3513 21.0917 36.6634 21.0917ZM36.6634 10.6148C34.5743 10.6148 32.8745 12.3145 32.8745 14.4037C32.8745 16.4928 34.5743 18.1925 36.6634 18.1925C38.7526 18.1925 40.4523 16.4928 40.4523 14.4037C40.4523 12.3145 38.7526 10.6148 36.6634 10.6148Z" fill="#FF5C39"/>
<path d="M37.0216 94.7744H25.9177C24.1193 94.7744 22.6561 93.3112 22.6561 91.5128V79.4884C22.6561 77.69 24.1193 76.2268 25.9177 76.2268H37.0216C38.8201 76.2268 40.2832 77.69 40.2832 79.4884V91.5128C40.2832 93.3112 38.8201 94.7744 37.0216 94.7744ZM25.9177 79.126C25.7179 79.126 25.5553 79.2885 25.5553 79.4884V91.5128C25.5553 91.7127 25.7179 91.8752 25.9177 91.8752H37.0216C37.2215 91.8752 37.384 91.7127 37.384 91.5128V79.4884C37.384 79.2885 37.2215 79.126 37.0216 79.126H25.9177Z" fill="#FF5C39"/>
<path d="M51.7488 94.7745H40.6455C38.847 94.7745 37.3839 93.3113 37.3839 91.5129V68.5023C37.3839 66.7039 38.847 65.2407 40.6455 65.2407H51.7494C53.5478 65.2407 55.011 66.7039 55.011 68.5023V91.5129C55.0099 93.3117 53.5464 94.7745 51.7488 94.7745ZM40.6455 68.1399C40.4456 68.1399 40.2831 68.3025 40.2831 68.5023V91.5129C40.2831 91.7127 40.4456 91.8753 40.6455 91.8753H51.7488C51.9489 91.8753 52.1118 91.7123 52.1119 91.5119V68.5023C52.1119 68.3025 51.9494 68.1399 51.7495 68.1399H40.6455Z" fill="#FF5C39"/>
<path d="M66.4769 94.7744H55.3729C53.5745 94.7744 52.1113 93.3112 52.1113 91.5128V57.8483C52.1113 56.0499 53.5745 54.5867 55.3729 54.5867H66.4769C68.2753 54.5867 69.7385 56.0499 69.7385 57.8483V91.5128C69.7385 93.3112 68.2753 94.7744 66.4769 94.7744ZM55.3729 57.4859C55.1731 57.4859 55.0105 57.6484 55.0105 57.8483V91.5128C55.0105 91.7126 55.1731 91.8752 55.3729 91.8752H66.4769C66.6768 91.8752 66.8393 91.7126 66.8393 91.5128V57.8483C66.8393 57.6484 66.6768 57.4859 66.4769 57.4859H55.3729Z" fill="#FF5C39"/>
<path d="M58.2051 45.4131C57.4045 45.4131 56.7555 44.7641 56.7555 43.9635V3.4496C56.7555 2.649 57.4045 2 58.2051 2C59.0057 2 59.6547 2.649 59.6547 3.4496V43.9635C59.6547 44.7641 59.0057 45.4131 58.2051 45.4131Z" fill="#FF5C39"/>
<path d="M76.3776 22.8095H58.2051C57.4045 22.8095 56.7555 22.1605 56.7555 21.3599V6.5414C56.7555 5.74079 57.4045 5.0918 58.2051 5.0918H76.3776C76.9883 5.0918 77.5335 5.47449 77.741 6.04883C77.9484 6.62318 77.7738 7.26595 77.3042 7.65626L69.73 13.9507L77.3042 20.2451C77.7738 20.6354 77.9485 21.2781 77.741 21.8525C77.5334 22.4268 76.9883 22.8095 76.3776 22.8095ZM59.6547 19.9103H72.3653L66.5354 15.0655C66.204 14.7901 66.0123 14.3815 66.0123 13.9507C66.0123 13.5198 66.204 13.1112 66.5354 12.8358L72.3653 7.99099H59.6547V19.9103Z" fill="#FF5C39"/>
</svg>
