<svg width="96" height="96" viewBox="0 0 96 96" fill="none" xmlns="http://www.w3.org/2000/svg">
<path d="M68.2605 91.9998H27.7463C26.9262 91.9998 26.1571 91.6786 25.5807 91.0954C25.0042 90.512 24.692 89.7391 24.7016 88.919C24.7465 85.0203 25.0258 77.7515 26.3917 72.8771C26.8135 71.373 27.3259 70.1436 28.0046 69.0081C28.5799 68.0468 30.2365 65.6327 33.1963 63.9671C35.9347 62.4261 38.5579 62.1966 40.2761 62.2752C40.5621 62.2882 40.8379 62.3852 41.0692 62.5539L47.8243 67.4807L54.9666 62.5333C55.192 62.3772 55.4568 62.2877 55.7307 62.2752C57.4491 62.1964 60.0721 62.4261 62.8105 63.9671C65.7777 65.6369 67.4299 68.0493 68.0027 69.009C68.6809 70.1437 69.1933 71.373 69.615 72.877C70.981 77.7513 71.2603 85.0202 71.3052 88.9193C71.3148 89.7392 71.0026 90.5121 70.4261 91.0954C69.8496 91.6786 69.0806 91.9998 68.2605 91.9998ZM47.949 89.0815H68.2605C68.2955 89.0815 68.3259 89.0688 68.3505 89.0439C68.3876 89.0063 68.3872 88.9663 68.3871 88.9532C68.3438 85.1973 68.0807 78.2169 66.805 73.6646C66.4504 72.3996 66.047 71.4252 65.4972 70.5053C65.0437 69.7453 63.7356 67.8364 61.3793 66.5104C59.4748 65.4386 57.6444 65.1799 56.3223 65.1799C56.3049 65.1799 56.2878 65.18 56.2705 65.1801L48.6334 70.4704C48.1229 70.8241 47.4444 70.8158 46.9426 70.4498L39.7175 65.18C39.7065 65.18 39.6956 65.1799 39.6845 65.1799C38.3624 65.1799 36.5322 65.4386 34.6275 66.5104C32.2771 67.8331 30.9645 69.7453 30.5092 70.506C29.9598 71.4252 29.5565 72.3996 29.2017 73.6648C27.926 78.2172 27.663 85.1974 27.6198 88.953C27.6193 88.9885 27.6317 89.019 27.6564 89.044C27.6935 89.0815 27.7332 89.0815 27.7463 89.0815H47.949Z" fill="#FF5C39"/>
<path d="M35.3613 91.9997C34.5554 91.9997 33.9021 91.3464 33.9021 90.5405V78.2726C33.9021 77.4668 34.5554 76.8135 35.3613 76.8135C36.1671 76.8135 36.8204 77.4668 36.8204 78.2726V90.5405C36.8204 91.3464 36.1671 91.9997 35.3613 91.9997Z" fill="#FF5C39"/>
<path d="M60.6461 91.9997C59.8402 91.9997 59.1869 91.3464 59.1869 90.5405V78.2726C59.1869 77.4668 59.8402 76.8135 60.6461 76.8135C61.4519 76.8135 62.1052 77.4668 62.1052 78.2726V90.5405C62.1052 91.3464 61.4519 91.9997 60.6461 91.9997Z" fill="#FF5C39"/>
<path d="M48.064 62.8092C44.9602 62.8092 42.0506 61.4806 39.8713 59.0678C37.7295 56.6967 36.55 53.554 36.55 50.2185V45.5152C36.55 44.8931 36.9445 44.3394 37.5324 44.1361C38.0867 43.942 39.7265 43.2206 40.6144 42.2376C41.1339 41.6625 41.9955 41.5808 42.5977 42.0674C42.676 42.1257 43.8677 42.9937 45.9141 43.432C48.7409 44.0375 51.7921 43.5821 54.9829 42.0788C55.1774 41.9871 55.3898 41.9395 55.6048 41.9395C55.8371 41.9395 56.2835 41.9985 56.6624 42.3933C57.1066 42.8563 58.0747 43.7732 58.8852 44.2733C59.3159 44.5391 59.5781 45.009 59.5781 45.5151V50.2184C59.5781 53.5539 58.3986 56.6966 56.2569 59.0678C54.0775 61.4806 51.1679 62.8092 48.064 62.8092ZM39.4684 46.492V50.2185C39.4684 55.5519 43.3244 59.891 48.064 59.891C52.8037 59.891 56.6597 55.5519 56.6597 50.2185V46.2836C56.1472 45.9026 55.6671 45.4829 55.2917 45.1339C50.9188 46.9558 47.3731 46.7607 45.1128 46.2436C43.6931 45.9188 42.6016 45.4387 41.8689 45.043C41.0413 45.7027 40.1373 46.1843 39.4684 46.492Z" fill="#FF5C39"/>
<path d="M38.0106 46.9746C37.4462 46.9746 36.9089 46.6452 36.6706 46.0943C36.1132 44.8056 36.028 43.4383 35.9528 42.232C35.8912 41.2483 35.8144 40.0233 36.1024 38.8177C36.355 37.7606 36.9733 36.6408 37.993 35.3942C38.1522 35.2002 38.3176 35.011 38.4863 34.8299C41.2253 31.8994 45.7217 30.7491 46.5953 30.5482C48.3076 30.155 49.9472 30.0152 51.4679 30.1324C52.5397 30.2152 53.4481 30.3643 54.2452 30.5879C55.3658 30.9016 56.2451 31.5104 56.787 32.3482C57.0567 32.7654 57.2185 33.1841 57.3612 33.5535C57.479 33.8586 57.5904 34.1468 57.7183 34.2981C57.911 34.5261 58.1743 34.7338 58.4791 34.9743C58.828 35.2496 59.2236 35.5617 59.5864 35.9713C60.452 36.9485 61.4307 38.5837 61.5815 40.2423C61.7216 41.792 61.1163 43.1281 60.5733 44.1192C60.5602 44.1435 60.5277 44.2067 60.4824 44.294C59.5587 46.0769 59.3533 46.3628 59.1047 46.5903C58.5101 47.1343 57.5872 47.0934 57.0431 46.4989C56.5373 45.9461 56.5372 45.1094 57.0175 44.5573C57.0987 44.4342 57.3153 44.0631 57.8913 42.9514C57.9532 42.8321 57.9969 42.7482 58.0135 42.7178C58.5251 41.784 58.7291 41.1021 58.6752 40.5058C58.6058 39.7437 58.0822 38.6744 57.4019 37.9063C57.2117 37.6916 56.9494 37.4846 56.6716 37.2655C56.297 36.9699 55.8723 36.6349 55.4896 36.182C55.045 35.6561 54.8199 35.0735 54.6391 34.6052C54.5382 34.3441 54.4428 34.0973 54.3364 33.9327C54.1479 33.6413 53.7545 33.481 53.4577 33.398C52.846 33.2263 52.122 33.11 51.2434 33.0421C50.0173 32.9476 48.6731 33.0654 47.2491 33.3924C45.2371 33.8551 42.2935 35.0305 40.6203 36.8207C40.4948 36.9555 40.3697 37.0985 40.2505 37.2437C39.35 38.3446 39.0412 39.0762 38.941 39.4957C38.7545 40.2766 38.8135 41.2187 38.8656 42.0499C38.9289 43.0655 38.9943 44.115 39.3493 44.9357C39.6692 45.6754 39.3289 46.5343 38.5893 46.8542C38.4004 46.9359 38.204 46.9746 38.0106 46.9746ZM57.1345 44.4373C57.134 44.4377 57.1335 44.4382 57.1332 44.4386C57.1336 44.4382 57.134 44.4377 57.1345 44.4373Z" fill="#FF5C39"/>
<path d="M42.016 66.5105C41.8086 66.5105 41.598 66.4661 41.3979 66.3723C40.6681 66.0303 40.3538 65.1616 40.6957 64.4318C40.9737 63.8385 41.4451 62.6515 41.4782 61.3678C41.491 60.8744 41.4305 60.6562 41.3207 60.2601C41.2951 60.1678 41.2687 60.0726 41.2423 59.9716C41.0387 59.1919 41.5057 58.3947 42.2853 58.1911C43.0652 57.9873 43.8623 58.4544 44.0659 59.2341C44.0884 59.3204 44.1111 59.4017 44.1329 59.4805C44.2673 59.9652 44.4195 60.5144 44.3955 61.4432C44.3487 63.2577 43.713 64.8703 43.3383 65.6701C43.0901 66.1996 42.5645 66.5105 42.016 66.5105Z" fill="#FF5C39"/>
<path d="M53.8841 66.519C53.3543 66.519 52.8434 66.2297 52.5849 65.7261C51.8219 64.2403 51.3989 62.6856 51.3614 61.2303C51.3423 60.4722 51.4398 59.9756 51.5376 59.5897C51.7356 58.8085 52.5295 58.3358 53.3106 58.5339C54.0918 58.7319 54.5645 59.5257 54.3664 60.3069C54.3142 60.5131 54.2681 60.7331 54.2788 61.1561C54.3119 62.4438 54.7877 63.6273 55.1809 64.3931C55.549 65.11 55.2663 65.9896 54.5494 66.3577C54.3361 66.4671 54.1084 66.519 53.8841 66.519Z" fill="#FF5C39"/>
<path d="M92.2693 86.5377H69.7374C68.9316 86.5377 68.2783 85.8844 68.2783 85.0785C68.2783 84.2726 68.9316 83.6193 69.7374 83.6193H92.0872C92.0462 80.5657 91.8243 75.1123 90.8236 71.5422C90.5448 70.5476 90.2286 69.7828 89.7982 69.0622C89.4438 68.4686 88.421 66.9765 86.5811 65.9414C85.1169 65.1172 83.712 64.9097 82.6871 64.9043L76.599 69.1218C76.0884 69.4756 75.4099 69.4672 74.9082 69.1013L69.1539 64.9049C68.1307 64.9127 66.7341 65.1226 65.2785 65.9419C64.8025 66.2097 64.3446 66.53 63.9172 66.8938C63.3036 67.4164 62.3827 67.3425 61.8602 66.7289C61.3377 66.1154 61.4116 65.1945 62.0251 64.672C62.5952 64.1866 63.2082 63.7582 63.8474 63.3985C66.1175 62.1209 68.2893 61.9317 69.7106 61.998C69.996 62.0113 70.2712 62.1081 70.5022 62.2764L75.7899 66.1322L81.3862 62.2554C81.6112 62.0995 81.8756 62.0101 82.1491 61.9974C83.5713 61.9309 85.7424 62.1203 88.0124 63.3981C90.4627 64.7767 91.8297 66.772 92.3038 67.5658C92.8644 68.5044 93.287 69.5177 93.6337 70.7545C94.7447 74.7184 94.9714 80.6093 95.0077 83.7679C95.0159 84.5058 94.7349 85.2006 94.2164 85.7249C93.6979 86.2491 93.0065 86.5377 92.2693 86.5377Z" fill="#FF5C39"/>
<path d="M86.1274 86.5379C85.3215 86.5379 84.6682 85.8846 84.6682 85.0787V75.1825C84.6682 74.3767 85.3215 73.7234 86.1274 73.7234C86.9333 73.7234 87.5865 74.3767 87.5865 75.1825V85.0787C87.5865 85.8846 86.9333 86.5379 86.1274 86.5379Z" fill="#FF5C39"/>
<path d="M75.9783 62.9914C73.394 62.9914 70.9728 61.8866 69.1606 59.8805C67.386 57.9159 66.4086 55.3139 66.4086 52.5535V48.7598C66.4086 48.1377 66.8029 47.5841 67.3907 47.3807C67.8185 47.2304 69.085 46.6736 69.7599 45.9266C70.2805 45.3504 71.14 45.2663 71.7419 45.7555C71.8178 45.8112 72.7481 46.4762 74.3337 46.8098C76.5442 47.275 78.9349 46.9125 81.4392 45.7325C82.0091 45.4639 82.6874 45.5916 83.1207 46.0492C83.3744 46.3163 84.1822 47.1025 84.8552 47.518C85.2857 47.7838 85.5479 48.2537 85.5479 48.7596V52.5535C85.5479 55.3138 84.5707 57.9159 82.7962 59.8804C80.9841 61.8865 78.5628 62.9914 75.9783 62.9914ZM69.327 49.7261V52.5535C69.327 56.6998 72.3108 60.0731 75.9783 60.0731C79.6458 60.0731 82.6296 56.6998 82.6296 52.5535V49.5207C82.3057 49.2734 82.0035 49.0138 81.749 48.7823C79.6738 49.625 77.8188 49.9262 76.2291 49.9264C73.8505 49.9265 72.0639 49.2526 71.0119 48.7114C70.4307 49.1521 69.8194 49.4895 69.327 49.7261Z" fill="#FF5C39"/>
<path d="M67.8685 50.2188C67.3043 50.2188 66.7669 49.8895 66.5286 49.3386C66.0591 48.2535 65.9859 47.0752 65.927 46.1286C65.8762 45.316 65.813 44.3044 66.0546 43.2918C66.269 42.3946 66.7864 41.4542 67.6364 40.4162C67.7656 40.2583 67.9039 40.1001 68.0471 39.9468C70.2554 37.5841 73.7205 36.6438 74.73 36.4118C76.1396 36.0881 77.4906 35.9732 78.7454 36.0702C79.6247 36.1376 80.3754 36.2609 81.0394 36.4472C82.0103 36.7187 82.7753 37.2508 83.2505 37.9855C83.4843 38.3466 83.6265 38.7149 83.7407 39.0108C83.8191 39.214 83.908 39.4441 83.98 39.5293C84.1171 39.6915 84.3189 39.8508 84.5526 40.035C84.8435 40.2645 85.1732 40.5246 85.4829 40.8744C86.2112 41.6968 87.0347 43.0762 87.1619 44.4813C87.2819 45.8041 86.7728 46.9328 86.3157 47.7682C86.3047 47.7889 86.2785 47.8396 86.2427 47.9088C85.5087 49.3245 85.3245 49.6053 85.0724 49.8356C84.4773 50.379 83.5543 50.3372 83.011 49.7422C82.5108 49.1946 82.5064 48.3693 82.9726 47.8176C83.0405 47.7114 83.2134 47.4112 83.6518 46.5656C83.7047 46.4636 83.7422 46.3919 83.7563 46.3662C84.1395 45.6658 84.2936 45.1653 84.2555 44.7448C84.2056 44.1932 83.8029 43.3792 83.2981 42.8091C83.1613 42.6545 82.9685 42.5025 82.7452 42.3264C82.4326 42.0797 82.0782 41.8002 81.7511 41.413C81.3623 40.9532 81.1716 40.459 81.0183 40.0619C80.9423 39.8651 80.8705 39.6791 80.8005 39.571C80.72 39.4466 80.5203 39.3324 80.2523 39.2574C79.7741 39.1233 79.2082 39.0327 78.5214 38.98C77.5602 38.9057 76.5047 38.9986 75.3833 39.2562C73.7996 39.6201 71.4863 40.5411 70.1797 41.939C70.0805 42.0453 69.9845 42.155 69.8949 42.2645C69.2013 43.1116 68.9673 43.6592 68.8931 43.9697C68.7528 44.5577 68.7989 45.2959 68.8396 45.9471C68.8891 46.7418 68.9402 47.5632 69.2071 48.18C69.5271 48.9196 69.1868 49.7786 68.4472 50.0986C68.2585 50.1802 68.0619 50.2188 67.8685 50.2188ZM82.9532 47.8468C82.9532 47.8468 82.9532 47.8468 82.9531 47.8469C82.9532 47.8468 82.9532 47.8468 82.9532 47.8468ZM83.1042 47.6807C83.1037 47.6812 83.1032 47.6817 83.1027 47.6821C83.1032 47.6817 83.1036 47.6812 83.1042 47.6807Z" fill="#FF5C39"/>
<path d="M71.0997 65.9773C70.8921 65.9773 70.6813 65.9329 70.481 65.8389C69.7514 65.4966 69.4373 64.6278 69.7796 63.8982C69.9944 63.44 70.3588 62.5243 70.3843 61.5392C70.3935 61.1842 70.354 61.0418 70.2676 60.7298C70.2464 60.6535 70.2247 60.5749 70.203 60.4914C69.9997 59.7116 70.467 58.9146 71.2468 58.7114C72.0266 58.5081 72.8236 58.9754 73.0269 59.7552C73.0448 59.8238 73.0627 59.8882 73.08 59.9509C73.1934 60.3604 73.322 60.8247 73.3016 61.6147C73.2644 63.0552 72.8025 64.3255 72.4216 65.1374C72.1735 65.6666 71.648 65.9773 71.0997 65.9773Z" fill="#FF5C39"/>
<path d="M80.6739 65.9841C80.144 65.9841 79.6329 65.6945 79.3744 65.1906C78.731 63.9362 78.3887 62.6755 78.3569 61.4433C78.3403 60.8004 78.4236 60.3752 78.5073 60.0441C78.705 59.2628 79.4987 58.7898 80.2797 58.9872C81.061 59.1848 81.5342 59.9784 81.3366 60.7596C81.2978 60.9129 81.2664 61.0644 81.2743 61.3678C81.2997 62.3532 81.6673 63.2662 81.9711 63.8587C82.339 64.5757 82.0558 65.4551 81.3388 65.8229C81.1256 65.9323 80.898 65.9841 80.6739 65.9841Z" fill="#FF5C39"/>
<path d="M26.2703 86.538H3.73841C3.00117 86.538 2.30965 86.2494 1.79141 85.7253C1.27298 85.201 0.991967 84.5062 1.00017 83.7688C1.03635 80.6098 1.26301 74.719 2.37416 70.7549C2.72083 69.5181 3.14338 68.5049 3.70406 67.5661C4.17792 66.7725 5.54491 64.7773 7.99557 63.3984C10.2654 62.1207 12.4368 61.9312 13.8587 61.9978C14.1442 62.0111 14.4194 62.1079 14.6504 62.2762L19.938 66.132L25.5343 62.2552C25.7594 62.0993 26.0238 62.0098 26.2973 61.9971C27.7191 61.9307 29.8906 62.1202 32.1606 63.3979C32.7996 63.7574 33.4128 64.1859 33.9826 64.6712C34.5961 65.1937 34.6699 66.1146 34.1474 66.7281C33.6249 67.3417 32.704 67.4156 32.0904 66.8929C31.6632 66.5292 31.2053 66.2089 30.7293 65.9412C29.265 65.1169 27.8601 64.9094 26.8352 64.904L20.7471 69.1216C20.2366 69.4752 19.5582 69.4671 19.0563 69.101L13.302 64.9047C12.2788 64.9125 10.882 65.1224 9.42671 65.9415C7.58652 66.9769 6.56383 68.4689 6.2095 69.0623C5.77905 69.783 5.46277 70.5479 5.18401 71.5425C4.18327 75.1127 3.96136 80.5656 3.92038 83.6196H26.2703C27.0762 83.6196 27.7294 84.2729 27.7294 85.0788C27.7294 85.8847 27.0762 86.538 26.2703 86.538Z" fill="#FF5C39"/>
<path d="M9.88018 86.5379C9.0743 86.5379 8.42102 85.8846 8.42102 85.0787V75.1825C8.42102 74.3767 9.0743 73.7234 9.88018 73.7234C10.6861 73.7234 11.3393 74.3767 11.3393 75.1825V85.0787C11.3393 85.8846 10.6861 86.5379 9.88018 86.5379Z" fill="#FF5C39"/>
<path d="M20.1267 62.9914C17.5424 62.9914 15.1211 61.8866 13.309 59.8805C11.5343 57.916 10.557 55.3139 10.557 52.5535V48.7598C10.557 48.1378 10.9513 47.5841 11.5391 47.3808C11.9669 47.2304 13.2334 46.6737 13.9082 45.9266C14.4288 45.3503 15.2885 45.2662 15.8904 45.7556C15.9673 45.812 16.8974 46.4764 18.4821 46.8099C20.6926 47.275 23.0832 46.9125 25.5876 45.7325C25.7821 45.6408 25.9945 45.5933 26.2096 45.5933C26.6097 45.5933 26.9925 45.7579 27.268 46.048C27.5224 46.316 28.3301 47.1025 29.0033 47.5177C29.4341 47.7835 29.6963 48.2535 29.6963 48.7596V52.5534C29.6963 55.3138 28.7191 57.9159 26.9446 59.8804C25.1326 61.8866 22.7112 62.9914 20.1267 62.9914ZM13.4753 49.7261V52.5535C13.4753 56.6998 16.4591 60.0731 20.1267 60.0731C23.7942 60.0731 26.778 56.6999 26.778 52.5535V49.5204C26.455 49.2735 26.1526 49.0137 25.8979 48.782C23.8222 49.6252 21.9675 49.9263 20.3775 49.9264C17.9988 49.9266 16.2122 49.2527 15.1602 48.7114C14.5791 49.1522 13.9679 49.4895 13.4753 49.7261Z" fill="#FF5C39"/>
<path d="M12.0168 50.2189C11.4525 50.2189 10.9152 49.8897 10.6769 49.3388C10.2074 48.2535 10.134 47.0753 10.0751 46.1286C10.0244 45.316 9.96119 44.3043 10.2027 43.2918C10.4171 42.3947 10.9345 41.4543 11.7845 40.4163C11.9138 40.2582 12.0522 40.1 12.1952 39.9468C14.4035 37.5841 17.8686 36.6438 18.8781 36.4118C20.2876 36.0881 21.6385 35.9732 22.8935 36.0702C23.7728 36.1376 24.5236 36.2609 25.1875 36.4472C26.1583 36.7187 26.9233 37.2507 27.3987 37.9854C27.6324 38.3465 27.7746 38.7149 27.8889 39.0108C27.9673 39.2139 28.0561 39.4441 28.1282 39.5293C28.2652 39.6915 28.4671 39.8507 28.7007 40.035C28.9916 40.2645 29.3213 40.5246 29.631 40.8744C30.3593 41.6968 31.1829 43.0764 31.31 44.4814C31.4301 45.8041 30.9209 46.9327 30.4639 47.7682C30.4526 47.7891 30.4263 47.84 30.3904 47.9095C29.6567 49.3245 29.4726 49.6052 29.2207 49.8354C28.6257 50.3789 27.7027 50.3372 27.1592 49.7423C26.6589 49.1946 26.6545 48.3691 27.1209 47.8174C27.197 47.6986 27.3774 47.3806 27.7996 46.5662C27.8528 46.4637 27.8904 46.3917 27.9046 46.3659C28.2876 45.6658 28.4418 45.1653 28.4036 44.7448C28.3537 44.1931 27.9511 43.3792 27.4463 42.8091C27.3094 42.6545 27.1167 42.5025 26.8934 42.3264C26.5807 42.0797 26.2263 41.8002 25.8992 41.413C25.5105 40.9532 25.3197 40.459 25.1664 40.0618C25.0904 39.865 25.0187 39.6791 24.9487 39.571C24.8682 39.4466 24.6684 39.3323 24.4005 39.2574C23.9223 39.1232 23.3565 39.0326 22.6696 38.9799C21.7082 38.9056 20.6528 38.9985 19.5315 39.2561C17.9478 39.62 15.6345 40.5411 14.3279 41.9389C14.2288 42.0452 14.1328 42.155 14.043 42.2646C13.3495 43.1116 13.1156 43.6592 13.0414 43.9696C12.9012 44.5575 12.9472 45.2957 12.9879 45.9471C13.0373 46.7417 13.0885 47.563 13.3554 48.18C13.6754 48.9196 13.3352 49.7785 12.5956 50.0986C12.4067 50.1803 12.2101 50.2189 12.0168 50.2189ZM27.1013 47.8469L27.1013 47.847C27.1013 47.847 27.1013 47.847 27.1013 47.8469ZM27.2523 47.6809C27.2518 47.6813 27.2513 47.6818 27.2508 47.6823C27.2513 47.6818 27.2518 47.6813 27.2523 47.6809Z" fill="#FF5C39"/>
<path d="M15.2473 65.9774C15.0398 65.9774 14.8291 65.9329 14.6288 65.839C13.8992 65.4968 13.585 64.628 13.9272 63.8983C14.1421 63.4401 14.5064 62.5242 14.532 61.5392C14.5412 61.1843 14.5017 61.0419 14.4154 60.7299C14.3942 60.6536 14.3725 60.5749 14.3507 60.4914C14.1475 59.7115 14.6149 58.9146 15.3947 58.7114C16.1745 58.5081 16.9715 58.9755 17.1747 59.7553C17.1926 59.8239 17.2105 59.8884 17.2278 59.9511C17.3412 60.3606 17.4698 60.8248 17.4494 61.6147C17.4121 63.0551 16.9503 64.3254 16.5695 65.1374C16.3212 65.6667 15.7957 65.9774 15.2473 65.9774Z" fill="#FF5C39"/>
<path d="M24.8215 65.9841C24.2916 65.9841 23.7805 65.6946 23.522 65.1907C22.8785 63.9363 22.5362 62.6756 22.5043 61.4433C22.4877 60.8005 22.5711 60.3754 22.6547 60.0442C22.8523 59.2629 23.6458 58.7898 24.427 58.9872C25.2083 59.1847 25.6815 59.9782 25.4841 60.7595C25.4453 60.9128 25.4138 61.0645 25.4217 61.3679C25.4471 62.3533 25.8147 63.2663 26.1185 63.8586C26.4864 64.5757 26.2033 65.4551 25.4862 65.823C25.2731 65.9323 25.0456 65.9841 24.8215 65.9841Z" fill="#FF5C39"/>
<path d="M18.763 39.404C17.9571 39.404 17.3038 38.7507 17.3038 37.9448V32.0845C17.3038 30.7405 18.3972 29.647 19.7412 29.647H24.972C25.5185 27.5582 26.345 25.5644 27.439 23.6957L23.7387 19.9954C22.7885 19.0452 22.7885 17.4989 23.7387 16.5487L28.8525 11.4354C29.8028 10.4852 31.349 10.4853 32.2992 11.4354L35.9993 15.1356C37.8682 14.0412 39.8616 13.2147 41.9508 12.6681V7.43741C41.9508 6.09346 43.044 5 44.3876 5H51.6196C52.9633 5 54.0564 6.0934 54.0564 7.43741V12.6684C56.1463 13.2154 58.1402 14.0421 60.0079 15.1358L63.7081 11.4355C64.1684 10.9753 64.7805 10.7218 65.4315 10.7218C66.0826 10.7218 66.6946 10.9753 67.1549 11.4356L72.2686 16.5486C72.7289 17.0089 72.9823 17.6209 72.9823 18.272C72.9823 18.9231 72.7289 19.5352 72.2686 19.9954L68.5683 23.6957C69.6631 25.5654 70.4896 27.5591 71.0356 29.6471H76.2661C77.61 29.6471 78.7035 30.7405 78.7035 32.0845V37.5144C78.7035 38.3203 78.0502 38.9736 77.2443 38.9736C76.4384 38.9736 75.7851 38.3203 75.7851 37.5144V32.5654H69.8798C69.1888 32.5654 68.5924 32.0806 68.4514 31.4041C67.9214 28.8624 66.9278 26.4653 65.4984 24.2795C65.1203 23.7015 65.1994 22.9375 65.6878 22.4491L69.8648 18.272L65.4315 13.8392L61.2544 18.0164C60.7659 18.5048 60.0017 18.5838 59.4237 18.2056C57.2413 16.7778 54.8442 15.784 52.2988 15.2519C51.6226 15.1106 51.1381 14.5145 51.1381 13.8237V7.91832H44.8692V13.8237C44.8692 14.5146 44.3846 15.1108 43.7082 15.2521C41.1646 15.7831 38.7676 16.7768 36.5836 18.2056C36.0054 18.5838 35.2414 18.5048 34.7529 18.0164L30.5758 13.8392L26.1425 18.272L30.3196 22.4491C30.808 22.9376 30.887 23.7015 30.509 24.2796C29.0805 26.4638 28.087 28.8609 27.5558 31.4045C27.4146 32.0809 26.8184 32.5654 26.1275 32.5654H20.2222V37.9449C20.2222 38.7507 19.5689 39.404 18.763 39.404Z" fill="#FF5C39"/>
</svg>
