<svg width="96" height="96" viewBox="0 0 96 96" fill="none" xmlns="http://www.w3.org/2000/svg">
<path d="M68.3804 96H35.131C32.9254 96 31.131 94.2056 31.131 92V76.6825C31.131 75.1565 29.8895 73.915 28.3635 73.915H22.1754C20.2482 73.915 18.4565 72.9588 17.3826 71.3572C16.4193 69.921 16.3966 68.0118 17.3251 66.4936C17.6443 65.9719 17.6842 65.4634 17.4509 64.8931C17.2686 64.4478 16.9796 64.133 16.9768 64.1303C16.9765 64.1299 16.976 64.1294 16.9756 64.1291C16.036 63.1888 15.5884 61.8897 15.7151 60.471C15.7212 60.4012 15.7011 60.3221 15.6585 60.2503C15.1739 59.434 15.0524 58.5233 15.2878 57.5913H12.5085C11.0411 57.5913 9.68383 56.8592 8.8777 55.6329C8.07164 54.4066 7.93776 52.8704 8.51958 51.5234L15.002 36.5117C15.1475 36.1749 15.2253 35.8262 15.2333 35.4753C15.3415 30.6642 16.3773 26.0073 18.3116 21.6342C20.1827 17.404 22.8143 13.6116 26.1331 10.3622C29.4554 7.10962 33.3066 4.55781 37.5797 2.77781C42.0046 0.934626 46.6987 0 51.5316 0C56.4326 0 61.1878 0.960187 65.6651 2.85394C69.989 4.68269 73.8718 7.3005 77.2058 10.6345C80.5398 13.9685 83.1576 17.8513 84.9865 22.175C86.8802 26.6522 87.8404 31.4073 87.8404 36.3081C87.8404 45.2072 84.589 53.7679 78.6849 60.4131C74.6193 64.9887 72.3804 70.886 72.3804 77.0187V92C72.3804 94.2056 70.586 96 68.3804 96ZM19.0973 62.0081C20.0615 62.9713 21.4656 65.4742 19.8844 68.0589C19.5653 68.5808 19.5613 69.2196 19.8743 69.6862C20.3901 70.4557 21.2503 70.9149 22.1754 70.9149H28.3635C31.5437 70.9149 34.131 73.5022 34.131 76.6824V92C34.131 92.5514 34.5796 93 35.131 93H68.3804C68.9318 93 69.3804 92.5514 69.3804 92V77.0188C69.3804 70.1508 71.8883 63.5458 76.4422 58.4206C81.8578 52.325 84.8404 44.4719 84.8404 36.3082C84.8404 17.942 69.8981 3.00006 51.5316 3.00006C33.5743 3.00006 18.6365 17.5989 18.2326 35.5432C18.2158 36.2823 18.0555 37.0082 17.7562 37.7011L11.2737 52.7129C11.0909 53.1361 11.1313 53.5997 11.3846 53.985C11.6379 54.3703 12.0475 54.5913 12.5085 54.5913H16.8291C17.572 54.5913 18.2503 54.9988 18.5995 55.6546C18.9481 56.3094 18.9075 57.0981 18.4936 57.7132C18.1928 58.1598 18.1068 58.4977 18.2377 58.7181C18.6041 59.3344 18.7652 60.0324 18.7034 60.7358C18.6556 61.2711 18.7882 61.6985 19.0973 62.0081Z" fill="#FF5C39"/>
<path d="M66.0979 22.4443C64.1987 20.873 61.7595 20.0094 59.2312 20.0094C56.3109 20.0094 53.4841 21.1706 51.4767 23.1988C51.1158 23.564 50.7775 23.9559 50.46 24.3816C48.0017 21.1101 43.8943 19.4315 39.8319 20.1738C36.4608 20.7856 33.8105 22.6381 31.9597 25.6761C29.3483 29.9652 29.1346 34.102 31.3281 37.9724C32.5005 40.043 34.0216 42.0608 35.9789 44.1409C39.5637 47.9515 43.8069 51.5683 49.3334 55.5191C49.6864 55.7726 50.0645 55.9007 50.4591 55.9007C51.0665 55.9007 51.4767 55.5935 51.68 55.443C56.6665 51.8824 60.5836 48.6005 64.0083 45.1091C65.9206 43.1605 68.0906 40.7655 69.6775 37.7742C70.3576 36.4962 71.1329 34.7761 71.0871 32.8111C70.985 28.5825 69.3072 25.0946 66.0979 22.4443ZM67.08 36.395C65.667 39.0548 63.6735 41.25 61.9083 43.048C58.7414 46.2772 55.1203 49.3333 50.4539 52.7027C45.3757 49.0288 41.4448 45.6551 38.1221 42.1213C36.3284 40.2152 34.9431 38.3834 33.8866 36.5187C32.2141 33.5682 32.4001 30.6072 34.4733 27.205C35.8681 24.9138 37.8478 23.5207 40.3588 23.0647C40.8399 22.9764 41.3271 22.9332 41.8073 22.9332C44.7838 22.9332 47.4203 24.5772 48.9094 27.4317L49.1621 27.9085C49.4216 28.3956 49.9564 28.6725 50.4842 28.6855C51.0371 28.6751 51.5364 28.3593 51.7795 27.8626C52.3021 26.7966 52.8723 25.9694 53.568 25.2651C55.0268 23.7933 57.0905 22.9479 59.2312 22.9479C61.0768 22.9479 62.8497 23.5735 64.2246 24.7104C66.7824 26.8226 68.0647 29.4962 68.1469 32.8777C68.1754 34.154 67.6243 35.3705 67.08 36.395Z" fill="#FF5C39"/>
</svg>
