<svg width="96" height="96" viewBox="0 0 96 96" fill="none" xmlns="http://www.w3.org/2000/svg">
<path d="M47.5702 22.8853H18.3353C17.5383 22.8853 16.8923 22.2392 16.8923 21.4422V14.4206C16.8923 12.1999 18.6989 10.3933 20.9196 10.3933H25.1675C25.9645 10.3933 26.6106 11.0394 26.6106 11.8364C26.6106 12.6333 25.9645 13.2794 25.1675 13.2794H20.9196C20.2903 13.2794 19.7784 13.7913 19.7784 14.4206V19.9992H46.1272V14.4206C46.1272 13.7913 45.6153 13.2794 44.986 13.2794H40.738C39.941 13.2794 39.295 12.6333 39.295 11.8364C39.295 11.0394 39.941 10.3933 40.738 10.3933H44.986C47.2066 10.3933 49.0133 12.1999 49.0133 14.4206V21.4422C49.0133 22.2392 48.3672 22.8853 47.5702 22.8853Z" fill="#FF5C39"/>
<path d="M62.4624 90.1034H3.44305C2.64606 90.1034 2 89.4573 2 88.6603V16.5483C2 15.7513 2.64606 15.1052 3.44305 15.1052H18.3353C19.1323 15.1052 19.7783 15.7513 19.7783 16.5483C19.7783 17.3453 19.1323 17.9913 18.3353 17.9913H4.88609V87.2173H61.0194V77.9763C61.0194 77.1794 61.6654 76.5333 62.4624 76.5333C63.2594 76.5333 63.9055 77.1794 63.9055 77.9763V88.6603C63.9055 89.4573 63.2594 90.1034 62.4624 90.1034Z" fill="#FF5C39"/>
<path d="M62.4626 29.763C61.6656 29.763 61.0196 29.1169 61.0196 28.3199V17.9913H47.5704C46.7734 17.9913 46.1273 17.3453 46.1273 16.5483C46.1273 15.7513 46.7734 15.1052 47.5704 15.1052H62.4626C63.2596 15.1052 63.9056 15.7513 63.9056 16.5483V28.3199C63.9056 29.1169 63.2596 29.763 62.4626 29.763Z" fill="#FF5C39"/>
<path d="M40.7383 16.3629H25.1678C24.3708 16.3629 23.7247 15.7168 23.7247 14.9198V8.64559C23.7247 7.18679 24.9115 6 26.3703 6H39.5357C40.9945 6 42.1813 7.18679 42.1813 8.64559V14.9198C42.1813 15.7168 41.5352 16.3629 40.7383 16.3629ZM26.6108 13.4768H39.2952V8.88609H26.6108V13.4768Z" fill="#FF5C39"/>
<path d="M43.0214 36.7999H25.3724C24.5754 36.7999 23.9293 36.1538 23.9293 35.3569C23.9293 34.5599 24.5754 33.9138 25.3724 33.9138H43.0214C43.8184 33.9138 44.4645 34.5599 44.4645 35.3569C44.4645 36.1538 43.8184 36.7999 43.0214 36.7999Z" fill="#FF5C39"/>
<path d="M13.6308 38.1047C13.2615 38.1047 12.8922 37.9638 12.6104 37.682L10.3575 35.4291C9.79392 34.8655 9.79392 33.9518 10.3575 33.3883C10.9211 32.8248 11.8347 32.8248 12.3983 33.3883L13.6308 34.6209L17.8288 30.4229C18.3924 29.8593 19.3061 29.8594 19.8696 30.4229C20.4331 30.9864 20.4331 31.9001 19.8696 32.4637L14.6512 37.6821C14.3694 37.9638 14.0001 38.1047 13.6308 38.1047Z" fill="#FF5C39"/>
<path d="M35.8331 50.7953H25.3722C24.5753 50.7953 23.9292 50.1492 23.9292 49.3522C23.9292 48.5552 24.5753 47.9092 25.3722 47.9092H35.8331C36.6301 47.9092 37.2762 48.5552 37.2762 49.3522C37.2762 50.1492 36.6301 50.7953 35.8331 50.7953Z" fill="#FF5C39"/>
<path d="M13.6307 52.1001H13.6306C13.2479 52.1001 12.8808 51.9479 12.6102 51.6772L10.3572 49.4237C9.79375 48.8601 9.79387 47.9464 10.3575 47.3829C10.9211 46.8194 11.8348 46.8196 12.3983 47.3832L13.6308 48.6161L17.8287 44.4182C18.3923 43.8547 19.3059 43.8547 19.8695 44.4182C20.433 44.9818 20.433 45.8955 19.8695 46.459L14.651 51.6774C14.3805 51.9481 14.0134 52.1001 13.6307 52.1001Z" fill="#FF5C39"/>
<path d="M37.7235 64.7897H25.3722C24.5753 64.7897 23.9292 64.1436 23.9292 63.3466C23.9292 62.5496 24.5753 61.9036 25.3722 61.9036H37.7235C38.5205 61.9036 39.1666 62.5496 39.1666 63.3466C39.1666 64.1436 38.5205 64.7897 37.7235 64.7897Z" fill="#FF5C39"/>
<path d="M13.6307 66.0947C13.2614 66.0947 12.8921 65.9539 12.6103 65.6721L10.3574 63.4191C9.7938 62.8556 9.7938 61.9419 10.3574 61.3784C10.9209 60.8148 11.8346 60.8148 12.3981 61.3784L13.6307 62.6109L17.8287 58.4129C18.3923 57.8493 19.3059 57.8493 19.8694 58.4129C20.433 58.9765 20.433 59.8901 19.8694 60.4537L14.651 65.6721C14.3693 65.9539 14 66.0947 13.6307 66.0947Z" fill="#FF5C39"/>
<path d="M41.9805 78.7848H25.3722C24.5753 78.7848 23.9292 78.1387 23.9292 77.3417C23.9292 76.5447 24.5753 75.8987 25.3722 75.8987H41.9805C42.7775 75.8987 43.4236 76.5447 43.4236 77.3417C43.4236 78.1387 42.7775 78.7848 41.9805 78.7848Z" fill="#FF5C39"/>
<path d="M13.6307 80.0895C13.6306 80.0895 13.6306 80.0895 13.6306 80.0895C13.2479 80.0895 12.8808 79.9374 12.6102 79.6668L10.3572 77.4133C9.79374 76.8497 9.79386 75.936 10.3575 75.3725C10.9211 74.809 11.8347 74.8091 12.3983 75.3728L13.6309 76.6057L17.8287 72.4078C18.3923 71.8442 19.3059 71.8442 19.8695 72.4078C20.4331 72.9714 20.4331 73.885 19.8695 74.4485L14.6511 79.667C14.3805 79.9375 14.0134 80.0895 13.6307 80.0895Z" fill="#FF5C39"/>
<path d="M60.4545 79.4996C56.8977 79.4996 53.4465 78.8027 50.1967 77.4282C47.0586 76.1009 44.2405 74.201 41.8209 71.7813C39.4013 69.3617 37.5014 66.5437 36.1741 63.4055C34.7996 60.1558 34.1027 56.7046 34.1027 53.1477C34.1027 49.5909 34.7996 46.1397 36.1741 42.8899C37.5014 39.7518 39.4013 36.9338 41.8209 34.5141C44.2405 32.0945 47.0586 30.1946 50.1967 28.8673C53.4465 27.4928 56.8976 26.7959 60.4545 26.7959C64.0114 26.7959 67.4626 27.4928 70.7123 28.8673C73.8504 30.1946 76.6685 32.0945 79.0881 34.5141C81.5078 36.9338 83.4076 39.7518 84.7349 42.8899C86.1094 46.1396 86.8064 49.5909 86.8064 53.1477C86.8064 56.7046 86.1094 60.1558 84.7349 63.4055C83.4076 66.5436 81.5078 69.3617 79.0881 71.7813C76.6685 74.201 73.8505 76.1009 70.7123 77.4282C67.4626 78.8027 64.0114 79.4996 60.4545 79.4996ZM60.4545 29.682C47.5155 29.682 36.9888 40.2087 36.9888 53.1478C36.9888 66.0868 47.5154 76.6136 60.4545 76.6136C73.3936 76.6136 83.9203 66.0869 83.9203 53.1478C83.9203 40.2087 73.3936 29.682 60.4545 29.682Z" fill="#FF5C39"/>
<path d="M60.4544 71.1292C55.6511 71.1292 51.1355 69.2589 47.7393 65.8627C44.3432 62.4666 42.4728 57.9509 42.4728 53.1476C42.4728 48.3443 44.3431 43.8287 47.7393 40.4325C51.1354 37.0364 55.6511 35.166 60.4544 35.166C65.2578 35.166 69.7733 37.0363 73.1695 40.4325C76.5656 43.8286 78.436 48.3443 78.436 53.1476C78.436 57.9509 76.5657 62.4665 73.1695 65.8627C69.7734 69.2589 65.2578 71.1292 60.4544 71.1292ZM60.4544 38.0522C56.422 38.0522 52.6312 39.6223 49.7801 42.4733C46.9291 45.3243 45.359 49.1152 45.359 53.1476C45.359 57.18 46.9291 60.9709 49.7801 63.8218C52.6312 66.6729 56.422 68.243 60.4544 68.243C64.4868 68.243 68.2777 66.6729 71.1287 63.8218C73.9797 60.9709 75.5499 57.18 75.5499 53.1476C75.5499 49.1152 73.9797 45.3243 71.1287 42.4733C68.2778 39.6223 64.4869 38.0522 60.4544 38.0522Z" fill="#FF5C39"/>
<path d="M60.4546 62.7599C59.1705 62.7599 57.9319 62.5166 56.773 62.0368C55.6143 61.5571 54.5663 60.8532 53.6578 59.9447C52.7494 59.0363 52.0456 57.9882 51.5658 56.8297C51.086 55.6709 50.8428 54.4322 50.8428 53.148C50.8428 51.8637 51.086 50.625 51.5659 49.4663C52.0456 48.3077 52.7495 47.2596 53.6579 46.3512C54.5662 45.4429 55.6143 44.739 56.773 44.2592C57.9317 43.7794 59.1705 43.5361 60.4546 43.5361C61.7388 43.5361 62.9775 43.7794 64.1363 44.2592C65.295 44.739 66.343 45.4429 67.2514 46.3513C68.1598 47.2597 68.8637 48.3077 69.3435 49.4664C69.8233 50.625 70.0665 51.8637 70.0665 53.148C70.0665 54.4323 69.8232 55.6711 69.3434 56.8297C68.8637 57.9883 68.1599 59.0363 67.2514 59.9448C66.3431 60.8532 65.295 61.5571 64.1363 62.0369C62.9783 62.5165 61.7396 62.7599 60.4546 62.7599ZM60.4546 46.4222C59.5513 46.4222 58.6841 46.5915 57.8771 46.9257C57.0705 47.2597 56.3376 47.753 55.6987 48.392C55.0597 49.031 54.5664 49.7639 54.2324 50.5704C53.8982 51.3773 53.7289 52.2446 53.7289 53.148C53.7289 54.0514 53.8982 54.9186 54.2324 55.7255C54.5663 56.532 55.0597 57.265 55.6987 57.9039C56.3377 58.543 57.0705 59.0363 57.8771 59.3702C58.6841 59.7044 59.5513 59.8738 60.4546 59.8738C61.3585 59.8738 62.2256 59.7044 63.0319 59.3703C63.8388 59.0363 64.5716 58.543 65.2105 57.904C65.8496 57.2649 66.343 56.532 66.6768 55.7255C67.011 54.9186 67.1804 54.0514 67.1804 53.148C67.1804 52.2445 67.011 51.3773 66.6769 50.5705C66.3429 49.7639 65.8496 49.031 65.2106 48.392C64.5717 47.7531 63.8387 47.2597 63.0322 46.9257C62.2253 46.5915 61.3581 46.4222 60.4546 46.4222Z" fill="#FF5C39"/>
<path d="M60.4545 54.5908C60.0852 54.5908 59.7159 54.4499 59.4341 54.1682C58.8706 53.6046 58.8706 52.6909 59.4341 52.1274L82.8993 28.6629C83.4629 28.0994 84.3766 28.0993 84.9401 28.6629C85.5036 29.2264 85.5036 30.1401 84.9401 30.7036L61.4749 54.1682C61.1932 54.4499 60.8238 54.5908 60.4545 54.5908Z" fill="#FF5C39"/>
<path d="M83.9198 31.1262C83.5382 31.1262 83.1708 30.975 82.8994 30.7036C82.6079 30.4121 82.455 30.0099 82.4792 29.5984L82.7427 25.1267C82.7634 24.774 82.9129 24.4411 83.1628 24.1911L87.6836 19.6702C88.1074 19.2465 88.7489 19.1289 89.2952 19.3742C89.8418 19.6197 90.1798 20.1773 90.1446 20.7755L89.9767 23.6262L92.8269 23.4583C93.4258 23.4233 93.9827 23.7611 94.2282 24.3077C94.4736 24.8542 94.3558 25.4956 93.9322 25.9192L89.4113 30.4402C89.1614 30.6901 88.8285 30.8396 88.4757 30.8604L84.0047 31.1237C83.9763 31.1254 83.948 31.1262 83.9198 31.1262ZM88.3909 29.4198H88.3915H88.3909ZM85.5915 25.844L85.4558 28.1471L87.7584 28.0115L89.2073 26.5626L88.5256 26.6028C88.1131 26.6272 87.7118 26.4741 87.4204 26.1826C87.1289 25.8911 86.976 25.4889 87.0002 25.0774L87.0404 24.3951L85.5915 25.844Z" fill="#FF5C39"/>
</svg>
