<svg width="96" height="96" viewBox="0 0 96 96" fill="none" xmlns="http://www.w3.org/2000/svg">
<g clip-path="url(#clip0_632_4087)">
<path d="M66.1818 95.9998H35.193C35.1883 95.9998 35.1838 95.9998 35.1792 95.9998H4.3712C3.31517 95.9998 2.32478 95.5862 1.58245 94.8353C0.840122 94.0843 0.438083 93.0892 0.450346 92.0333C0.517853 86.122 0.939037 75.1057 3.00166 67.7459C3.62643 65.517 4.38421 63.6975 5.38637 62.0199C6.23193 60.6048 8.67032 57.048 13.0406 54.5882C17.069 52.3208 20.9271 51.9828 23.4538 52.0987C23.7481 52.1122 24.0318 52.2119 24.2698 52.3855L34.9925 60.2059L46.3127 52.3643C46.5446 52.2037 46.8171 52.1116 47.099 52.0987C49.6252 51.9827 53.4827 52.3208 57.5121 54.5881C61.8793 57.0458 64.3197 60.6037 65.1662 62.0194C66.1687 63.6969 66.9265 65.5165 67.5512 67.746C69.6139 75.1051 70.0351 86.1218 70.1025 92.0336C70.1143 93.0901 69.7118 94.0852 68.9693 94.836C68.2271 95.5865 67.2372 95.9998 66.1818 95.9998ZM35.3738 92.9967H66.1818C66.4286 92.9967 66.6603 92.9 66.834 92.7243C67.0081 92.5483 67.1024 92.315 67.0997 92.0675C67.0339 86.3037 66.6294 75.5843 64.6596 68.5564C64.1011 66.5632 63.4623 65.0224 62.5886 63.5603C61.8653 62.3508 59.7791 59.3098 56.0393 57.2052C52.848 55.4096 49.7881 55.0439 47.6591 55.0849L35.8252 63.2822C35.2999 63.6462 34.6018 63.6377 34.0854 63.2611L22.8743 55.0845C20.745 55.0462 17.6945 55.4148 14.5137 57.2052C10.7712 59.3116 8.68683 62.3511 7.96446 63.5602C7.09069 65.0228 6.45191 66.5638 5.89333 68.5564C3.92355 75.5848 3.51907 86.3039 3.45332 92.0679C3.45044 92.3154 3.54453 92.5484 3.71828 92.7241C3.89202 92.8999 4.12388 92.9967 4.3712 92.9967H35.36C35.3646 92.9967 35.3692 92.9967 35.3738 92.9967Z" fill="#FF5C39"/>
<path d="M15.989 96C15.1597 96 14.4875 95.3277 14.4875 94.4984V75.7816C14.4875 74.9523 15.1597 74.28 15.989 74.28C16.8183 74.28 17.4906 74.9523 17.4906 75.7816V94.4984C17.4906 95.3277 16.8183 96 15.989 96Z" fill="#FF5C39"/>
<path d="M54.5651 95.9999C53.7358 95.9999 53.0635 95.3277 53.0635 94.4984V75.7816C53.0635 74.9523 53.7358 74.28 54.5651 74.28C55.3944 74.28 56.0666 74.9523 56.0666 75.7816V94.4984C56.0666 95.3277 55.3944 95.9999 54.5651 95.9999Z" fill="#FF5C39"/>
<path d="M35.3687 51.4653C33.0761 51.4653 30.8529 50.9686 28.7609 49.989C26.7521 49.0483 24.9509 47.7049 23.4073 45.9961C20.2601 42.5119 18.5269 37.8896 18.5269 32.9806V25.8045C18.5269 25.1643 18.9328 24.5945 19.5378 24.3853C19.5682 24.3747 22.7799 23.2396 24.5405 21.2901C25.0735 20.6998 25.9628 20.6186 26.5829 21.116C26.6656 21.1787 28.5635 22.5963 31.8557 23.3175C36.3494 24.302 41.1868 23.5953 46.2336 21.2172C46.4384 21.1207 46.6621 21.0739 46.8887 21.074C47.1242 21.0764 47.5773 21.1405 47.9649 21.5439C48.1587 21.7457 49.9045 23.5431 51.4977 24.5268C51.9407 24.8003 52.2104 25.2838 52.2104 25.8044V32.9806C52.2104 37.8895 50.4772 42.5118 47.33 45.996C45.7864 47.7049 43.9852 49.0483 41.9764 49.9889C39.8844 50.9686 37.6612 51.4653 35.3687 51.4653ZM21.53 26.8209V32.9806C21.53 41.5172 27.738 48.4622 35.3687 48.4622C42.9993 48.4622 49.2073 41.5172 49.2073 32.9806V26.6078C48.1774 25.8762 47.2017 24.9963 46.5489 24.3704C43.7353 25.5911 40.9296 26.3485 38.1944 26.6245C35.7297 26.8733 33.3184 26.7336 31.0276 26.2096C28.6505 25.6658 26.8879 24.8147 25.8392 24.2059C24.3658 25.4738 22.6113 26.3508 21.53 26.8209Z" fill="#FF5C39"/>
<path d="M20.0294 27.3062C19.4486 27.3062 18.8956 26.9673 18.6504 26.4002C17.8519 24.5535 17.7252 22.5338 17.6135 20.7518C17.5225 19.2975 17.4092 17.4878 17.8231 15.7555C18.1817 14.2514 19.0781 12.6377 20.5634 10.8227C20.7981 10.5359 21.0418 10.2574 21.2878 9.99451C25.3203 5.68044 31.9923 3.97518 33.2888 3.67712C35.8264 3.0939 38.2541 2.88593 40.5043 3.05905C42.086 3.18068 43.426 3.39984 44.6007 3.72905C46.1386 4.15987 47.3371 4.9836 48.0665 6.1112C48.4375 6.68485 48.67 7.28685 48.8752 7.81796C49.0863 8.3644 49.2685 8.83632 49.5422 9.16003C49.8833 9.56351 50.3319 9.91744 50.8068 10.2921C51.3406 10.7133 51.8926 11.1487 52.4039 11.726C53.6486 13.1319 55.0548 15.4731 55.2683 17.8275C55.4645 19.9937 54.5957 21.9047 53.8169 23.3276C53.7942 23.3693 53.7402 23.4738 53.6643 23.6203C52.2717 26.3071 52.0013 26.6563 51.7216 26.912C51.1095 27.4715 50.1598 27.4289 49.6003 26.8168C49.0707 26.2376 49.0806 25.3558 49.6018 24.7886C49.7341 24.6011 50.086 23.998 50.9981 22.2383C51.1048 22.0323 51.1533 21.939 51.1833 21.8841C51.7569 20.8362 52.4005 19.4574 52.2774 18.0985C52.1389 16.5708 51.1118 14.797 50.1555 13.7168C49.8221 13.3403 49.3969 13.0049 48.9468 12.6498C48.4024 12.2204 47.7854 11.7336 47.2487 11.0988C46.6491 10.3895 46.3434 9.59817 46.0737 8.90001C45.906 8.46575 45.7475 8.05551 45.5447 7.74194C45.1335 7.10629 44.3638 6.78139 43.7904 6.62079C42.8073 6.34531 41.6571 6.15968 40.2739 6.05326C38.3265 5.90336 36.2029 6.08867 33.9615 6.60389C30.7925 7.33239 26.1462 9.19463 23.4812 12.0457C23.2797 12.261 23.0801 12.4893 22.8872 12.7248C21.7128 14.1599 20.9917 15.4142 20.7442 16.4526C20.4345 17.7486 20.5281 19.2444 20.6108 20.564C20.7119 22.1758 20.8164 23.8426 21.407 25.2084C21.7361 25.9695 21.3859 26.8534 20.6247 27.1825C20.4305 27.2664 20.2282 27.3062 20.0294 27.3062ZM49.6954 24.6954C49.6949 24.6959 49.6944 24.6963 49.694 24.6967C49.6944 24.6962 49.6949 24.6959 49.6954 24.6954Z" fill="#FF5C39"/>
<path d="M26.142 57.1111C25.9286 57.1111 25.712 57.0654 25.5059 56.9689C24.755 56.617 24.4315 55.723 24.7834 54.9721C25.2315 54.0157 25.9915 52.0989 26.0453 50.0085C26.0675 49.1477 25.9526 48.7332 25.7788 48.1057C25.7408 47.9685 25.7017 47.827 25.6624 47.6768C25.453 46.8744 25.9336 46.0542 26.736 45.8447C27.5383 45.6353 28.3586 46.1158 28.5681 46.9182C28.6034 47.0534 28.6387 47.1806 28.6729 47.3041C28.8736 48.0284 29.081 48.7774 29.0474 50.0858C28.9794 52.7227 28.0504 55.0774 27.5027 56.2463C27.2474 56.7912 26.7065 57.1111 26.142 57.1111Z" fill="#FF5C39"/>
<path d="M44.2485 57.1237C43.7035 57.1237 43.1777 56.826 42.9116 56.3078C42.1345 54.7945 41.1937 52.4303 41.1246 49.7616C41.0978 48.6981 41.2274 48.0248 41.3714 47.4556C41.5748 46.6517 42.3914 46.1649 43.1953 46.3682C43.9993 46.5716 44.4862 47.3882 44.2828 48.1921C44.174 48.622 44.11 49.0216 44.1267 49.6849C44.1811 51.7867 44.9487 53.7007 45.583 54.936C45.9618 55.6737 45.6708 56.5788 44.9331 56.9577C44.7137 57.0704 44.4793 57.1237 44.2485 57.1237Z" fill="#FF5C39"/>
<path d="M92.5458 95.9999H78.3581C76.1502 95.9999 74.3539 94.2036 74.3539 91.9957V7.00437C74.3539 4.79647 76.1502 3.00024 78.3581 3.00024H92.5458C94.7537 3.00024 96.55 4.79647 96.55 7.00437V91.9964C96.55 94.2039 94.7537 95.9999 92.5458 95.9999ZM78.3581 6.00334C77.8061 6.00334 77.357 6.45243 77.357 7.00437V91.9957C77.357 92.5477 77.8061 92.9968 78.3581 92.9968H92.5458C93.0978 92.9968 93.5469 92.548 93.5469 91.9964V7.00437C93.5469 6.45243 93.0978 6.00334 92.5458 6.00334H78.3581Z" fill="#FF5C39"/>
<path d="M88.9127 89.0456H81.9912C81.1619 89.0456 80.4897 88.3733 80.4897 87.544C80.4897 86.7147 81.1619 86.0425 81.9912 86.0425H88.9127C89.742 86.0425 90.4143 86.7147 90.4143 87.544C90.4143 88.3733 89.742 89.0456 88.9127 89.0456Z" fill="#FF5C39"/>
<path d="M88.9127 82.8517H81.9912C81.1619 82.8517 80.4897 82.1795 80.4897 81.3502C80.4897 80.5209 81.1619 79.8486 81.9912 79.8486H88.9127C89.742 79.8486 90.4143 80.5209 90.4143 81.3502C90.4143 82.1795 89.742 82.8517 88.9127 82.8517Z" fill="#FF5C39"/>
<path d="M88.9127 76.6586H81.9912C81.1619 76.6586 80.4897 75.9864 80.4897 75.1571C80.4897 74.3278 81.1619 73.6555 81.9912 73.6555H88.9127C89.742 73.6555 90.4143 74.3278 90.4143 75.1571C90.4143 75.9864 89.742 76.6586 88.9127 76.6586Z" fill="#FF5C39"/>
<path d="M88.9127 70.4648H81.9912C81.1619 70.4648 80.4897 69.7925 80.4897 68.9632C80.4897 68.1339 81.1619 67.4617 81.9912 67.4617H88.9127C89.742 67.4617 90.4143 68.1339 90.4143 68.9632C90.4143 69.7925 89.742 70.4648 88.9127 70.4648Z" fill="#FF5C39"/>
<path d="M88.9127 64.2707H81.9912C81.1619 64.2707 80.4897 63.5984 80.4897 62.7691C80.4897 61.9398 81.1619 61.2676 81.9912 61.2676H88.9127C89.742 61.2676 90.4143 61.9398 90.4143 62.7691C90.4143 63.5984 89.742 64.2707 88.9127 64.2707Z" fill="#FF5C39"/>
<path d="M88.9127 27.1091H81.9912C81.1619 27.1091 80.4897 26.4368 80.4897 25.6075C80.4897 24.7782 81.1619 24.106 81.9912 24.106H88.9127C89.742 24.106 90.4143 24.7782 90.4143 25.6075C90.4143 26.4368 89.742 27.1091 88.9127 27.1091Z" fill="#FF5C39"/>
<path d="M88.9127 20.915H81.9912C81.1619 20.915 80.4897 20.2427 80.4897 19.4134C80.4897 18.5841 81.1619 17.9119 81.9912 17.9119H88.9127C89.742 17.9119 90.4143 18.5841 90.4143 19.4134C90.4143 20.2427 89.742 20.915 88.9127 20.915Z" fill="#FF5C39"/>
<path d="M85.4517 54.8075C84.6224 54.8075 83.9501 54.1352 83.9501 53.3059V35.0709C83.9501 34.2416 84.6224 33.5693 85.4517 33.5693C86.281 33.5693 86.9532 34.2416 86.9532 35.0709V53.3059C86.9532 54.1352 86.281 54.8075 85.4517 54.8075Z" fill="#FF5C39"/>
<path d="M81.583 41.3731C81.2505 41.3731 80.916 41.2632 80.6377 41.0373C79.9938 40.5147 79.8954 39.5691 80.4179 38.9252L84.3139 34.1247C84.5991 33.7734 85.0274 33.5693 85.4799 33.5693C85.9323 33.5693 86.3606 33.7734 86.6457 34.1247L90.4859 38.8564C91.0086 39.5003 90.9101 40.4459 90.2662 40.9685C89.6224 41.4911 88.6767 41.3927 88.1541 40.7488L85.4799 37.4537L82.7498 40.8176C82.4531 41.1833 82.0199 41.3731 81.583 41.3731Z" fill="#FF5C39"/>
</g>
<defs>
<clipPath id="clip0_632_4087">
<rect width="96" height="96" fill="white"/>
</clipPath>
</defs>
</svg>
