<svg width="96" height="96" viewBox="0 0 96 96" fill="none" xmlns="http://www.w3.org/2000/svg">
<path d="M66.6225 84H30.3775C29.0665 84 28 82.6135 28 80.9093V20.0908C28 18.3865 29.0666 17 30.3775 17H36.7341C37.5224 17 38.1614 17.8307 38.1614 18.8554C38.1614 19.8801 37.5224 20.7108 36.7341 20.7108H30.8544V80.2893H66.1455V20.7108H60.2658C59.4776 20.7108 58.8386 19.8801 58.8386 18.8554C58.8386 17.8307 59.4776 17 60.2658 17H66.6225C67.9335 17 69 18.3865 69 20.0907V80.9092C69.0001 82.6135 67.9335 84 66.6225 84ZM66.6225 20.7108H66.6231H66.6225Z" fill="#FF5C39"/>
<path d="M60.5396 23H36.4604C35.6538 23 35 22.1916 35 21.1943V10.4375C35 7.99065 36.61 6 38.589 6H42.0879C42.8945 6 43.5483 6.80843 43.5483 7.80571C43.5483 8.80299 42.8945 9.61142 42.0879 9.61142H38.589C38.2206 9.61142 37.9208 9.98204 37.9208 10.4375V19.3886H59.0792V10.4375C59.0792 9.98204 58.7794 9.61142 58.4111 9.61142H54.9122C54.1056 9.61142 53.4518 8.80299 53.4518 7.80571C53.4518 6.80843 54.1056 6 54.9122 6H58.4111C60.39 6 62 7.99065 62 10.4375V21.1943C62.0001 22.1916 61.3462 23 60.5396 23Z" fill="#FF5C39"/>
<path d="M70.7492 89.7165H26.2509C24.3829 89.7165 22.8633 87.7849 22.8633 85.4108V15.2142C22.8633 12.84 24.3829 10.9085 26.2509 10.9085H36.5208C37.3234 10.9085 37.974 11.7354 37.974 12.7554C37.974 13.7755 37.3234 14.6024 36.5208 14.6024H26.2509C25.9854 14.6024 25.7695 14.8768 25.7695 15.2142V85.4107C25.7695 85.7481 25.9854 86.0225 26.2509 86.0225H70.7491C71.0145 86.0225 71.2304 85.7481 71.2304 85.4107V15.2134C71.2304 14.8761 71.0145 14.6016 70.7491 14.6016H60.4791C59.6766 14.6016 59.026 13.7747 59.026 12.7547C59.026 11.7346 59.6766 10.9077 60.4791 10.9077H70.7491C72.617 10.9077 74.1367 12.8392 74.1367 15.2134V85.4107C74.1367 87.7849 72.617 89.7165 70.7492 89.7165Z" fill="#FF5C39"/>
<path d="M93.5468 54.1794H78.3877C77.5851 54.1794 76.9346 53.5289 76.9346 52.7263C76.9346 51.9238 77.5851 51.2732 78.3877 51.2732H93.5468C94.3493 51.2732 94.9999 51.9238 94.9999 52.7263C94.9999 53.5289 94.3493 54.1794 93.5468 54.1794Z" fill="#FF5C39"/>
<path d="M89.6143 57.3951C89.1916 57.3951 88.7724 57.2115 88.4853 56.8577C87.9795 56.2346 88.0746 55.3195 88.6977 54.8136L91.2408 52.7493L88.6403 50.6389C88.0171 50.1331 87.9219 49.218 88.4276 48.5948C88.9334 47.9717 89.8485 47.8765 90.4717 48.3822L94.4623 51.6209C94.8022 51.8969 94.9997 52.3113 94.9997 52.7492C94.9997 53.1871 94.8023 53.6015 94.4624 53.8775L90.5293 57.0701C90.2599 57.2887 89.9361 57.3951 89.6143 57.3951Z" fill="#FF5C39"/>
<path d="M80.6079 44.5724C80.236 44.5724 79.8642 44.4306 79.5804 44.1469C79.0129 43.5794 79.0129 42.6593 79.5804 42.0918L90.299 31.3726C90.8664 30.8052 91.7866 30.8051 92.3539 31.3726C92.9214 31.9401 92.9215 32.8601 92.354 33.4276L81.6354 44.1468C81.3517 44.4305 80.9798 44.5724 80.6079 44.5724Z" fill="#FF5C39"/>
<path d="M90.8209 38.9084C90.7705 38.9084 90.7198 38.9058 90.6686 38.9005C89.8704 38.8174 89.2907 38.103 89.3737 37.3048L89.7128 34.047L86.3811 34.3934C85.5834 34.4765 84.8686 33.8966 84.7855 33.0984C84.7025 32.3001 85.2823 31.5858 86.0805 31.5028L91.1931 30.9712C91.629 30.9259 92.0613 31.0794 92.371 31.389C92.6806 31.6986 92.834 32.1314 92.7887 32.5669L92.2644 37.6056C92.1867 38.3527 91.5558 38.9084 90.8209 38.9084Z" fill="#FF5C39"/>
<path d="M91.3265 74.4885C90.9546 74.4885 90.5828 74.3466 90.299 74.0628L79.5804 63.3436C79.0129 62.7761 79.0129 61.856 79.5804 61.2886C80.1479 60.7212 81.068 60.7211 81.6354 61.2887L92.354 72.0079C92.9215 72.5754 92.9214 73.4954 92.3539 74.0629C92.0703 74.3466 91.6984 74.4885 91.3265 74.4885Z" fill="#FF5C39"/>
<path d="M91.3105 74.5057C91.2605 74.5057 91.2102 74.5032 91.16 74.4979L86.1212 73.9736C85.3229 73.8905 84.7432 73.176 84.8263 72.3779C84.9094 71.5797 85.6239 70.9997 86.422 71.0829L89.6798 71.422L89.3334 68.0904C89.2504 67.2922 89.8302 66.5778 90.6284 66.4948C91.4269 66.4115 92.141 66.9916 92.2241 67.7898L92.7557 72.9023C92.801 73.3378 92.6475 73.7706 92.3378 74.0802C92.0639 74.354 91.6937 74.5057 91.3105 74.5057Z" fill="#FF5C39"/>
<path d="M18.6122 54.156H3.45312C2.65058 54.156 2 53.5054 2 52.7029C2 51.9003 2.65058 51.2498 3.45312 51.2498H18.6122C19.4148 51.2498 20.0654 51.9003 20.0654 52.7029C20.0654 53.5054 19.4148 54.156 18.6122 54.156Z" fill="#FF5C39"/>
<path d="M7.44286 57.372C7.12111 57.372 6.79737 57.2657 6.52805 57.0472L2.53741 53.8085C2.19744 53.5326 2 53.1181 2 52.6802C2 52.2424 2.19738 51.8279 2.53735 51.5519L6.47047 48.3594C7.09362 47.8536 8.00873 47.9487 8.51447 48.5718C9.02022 49.1949 8.92516 50.11 8.30208 50.6158L5.75899 52.6801L8.35947 54.7905C8.98262 55.2963 9.0778 56.2114 8.57211 56.8346C8.28488 57.1884 7.86559 57.372 7.44286 57.372Z" fill="#FF5C39"/>
<path d="M5.67333 74.4821C5.30145 74.4821 4.92957 74.3402 4.64585 74.0565C4.07835 73.4891 4.07835 72.569 4.64579 72.0016L15.3644 61.2823C15.9319 60.7148 16.8519 60.7148 17.4194 61.2823C17.9869 61.8497 17.9869 62.7698 17.4195 63.3373L6.70087 74.0565C6.41715 74.3402 6.04521 74.4821 5.67333 74.4821Z" fill="#FF5C39"/>
<path d="M5.65642 74.4659C5.2731 74.4659 4.90292 74.3141 4.62901 74.0403C4.31937 73.7307 4.16588 73.2979 4.21117 72.8623L4.73551 67.8236C4.81858 67.0254 5.53315 66.4457 6.33122 66.5287C7.12947 66.6117 7.7092 67.3261 7.62613 68.1244L7.28713 71.382L10.6186 71.0352C11.4166 70.9518 12.1312 71.5318 12.2144 72.33C12.2975 73.1283 11.7177 73.8427 10.9195 73.9258L5.80694 74.458C5.75669 74.4633 5.70638 74.4659 5.65642 74.4659Z" fill="#FF5C39"/>
<path d="M16.392 44.566C16.0201 44.566 15.6482 44.4241 15.3644 44.1404L4.64584 33.4218C4.07834 32.8543 4.07834 31.9342 4.64584 31.3667C5.21335 30.7993 6.13336 30.7993 6.70086 31.3667L17.4195 42.0853C17.987 42.6529 17.987 43.5729 17.4195 44.1404C17.1357 44.4241 16.7639 44.566 16.392 44.566Z" fill="#FF5C39"/>
<path d="M6.21953 38.9428C5.4845 38.9428 4.85366 38.3871 4.77598 37.6399L4.24438 32.5273C4.19909 32.0918 4.35257 31.659 4.66221 31.3494C4.97185 31.0398 5.40445 30.8863 5.84009 30.9316L10.8788 31.456C11.677 31.539 12.2568 32.2534 12.1737 33.0517C12.0906 33.8499 11.376 34.4297 10.578 34.3466L7.32015 34.0076L7.6666 37.3392C7.74961 38.1374 7.16982 38.8518 6.37157 38.9348C6.32053 38.9402 6.26979 38.9428 6.21953 38.9428Z" fill="#FF5C39"/>
<path d="M54.8797 29.2846H42.1195C41.317 29.2846 40.6664 28.634 40.6664 27.8314V21.9475C40.6664 20.4785 41.8615 19.2834 43.3304 19.2834H53.6688C55.1378 19.2834 56.3329 20.4785 56.3329 21.9475V27.8314C56.3329 28.634 55.6823 29.2846 54.8797 29.2846ZM43.5726 26.3783H53.4266V22.1897H43.5726V26.3783Z" fill="#FF5C39"/>
<path d="M62.0725 42.5132H44.2983C43.4958 42.5132 42.8452 41.8626 42.8452 41.0601C42.8452 40.2575 43.4958 39.6069 44.2983 39.6069H62.0725C62.875 39.6069 63.5256 40.2575 63.5256 41.0601C63.5256 41.8626 62.875 42.5132 62.0725 42.5132Z" fill="#FF5C39"/>
<path d="M36.4359 43.3863C36.0639 43.3863 35.6921 43.2445 35.4083 42.9607L33.8995 41.4518C33.332 40.8843 33.332 39.9643 33.8995 39.3968C34.467 38.8293 35.387 38.8293 35.9545 39.3968L36.4359 39.8782L38.9032 37.4114C39.4707 36.8439 40.3907 36.844 40.9582 37.4116C41.5256 37.9791 41.5256 38.8991 40.958 39.4666L37.4632 42.9608C37.1796 43.2445 36.8077 43.3863 36.4359 43.3863Z" fill="#FF5C39"/>
<path d="M62.0725 51.885H44.2983C43.4958 51.885 42.8452 51.2344 42.8452 50.4319C42.8452 49.6293 43.4958 48.9788 44.2983 48.9788H62.0725C62.875 48.9788 63.5256 49.6293 63.5256 50.4319C63.5256 51.2344 62.875 51.885 62.0725 51.885Z" fill="#FF5C39"/>
<path d="M36.4359 52.7589C36.0505 52.7589 35.6809 52.6059 35.4083 52.3333L33.8995 50.8245C33.332 50.257 33.332 49.3369 33.8995 48.7695C34.467 48.202 35.387 48.202 35.9545 48.7695L36.4358 49.2508L38.903 46.7835C39.4705 46.216 40.3906 46.216 40.9581 46.7835C41.5256 47.351 41.5256 48.271 40.9581 48.8385L37.4633 52.3333C37.1909 52.6059 36.8213 52.7589 36.4359 52.7589Z" fill="#FF5C39"/>
<path d="M62.0725 61.2563H44.2983C43.4958 61.2563 42.8452 60.6058 42.8452 59.8032C42.8452 59.0007 43.4958 58.3501 44.2983 58.3501H62.0725C62.875 58.3501 63.5256 59.0007 63.5256 59.8032C63.5256 60.6058 62.875 61.2563 62.0725 61.2563Z" fill="#FF5C39"/>
<path d="M36.4359 62.1301C36.0639 62.1301 35.6921 61.9882 35.4083 61.7045L33.8995 60.1957C33.332 59.6282 33.332 58.7082 33.8995 58.1407C34.467 57.5732 35.387 57.5732 35.9545 58.1407L36.4359 58.6221L38.9032 56.1553C39.4707 55.5878 40.3907 55.5879 40.9582 56.1555C41.5256 56.723 41.5256 57.643 40.958 58.2104L37.4632 61.7046C37.1796 61.9882 36.8077 62.1301 36.4359 62.1301Z" fill="#FF5C39"/>
<path d="M62.0725 70.6284H44.2983C43.4958 70.6284 42.8452 69.9778 42.8452 69.1753C42.8452 68.3727 43.4958 67.7222 44.2983 67.7222H62.0725C62.875 67.7222 63.5256 68.3727 63.5256 69.1753C63.5256 69.9778 62.875 70.6284 62.0725 70.6284Z" fill="#FF5C39"/>
<path d="M36.4359 71.5021C36.064 71.5021 35.6921 71.3602 35.4083 71.0765L33.8995 69.5677C33.332 69.0002 33.332 68.0801 33.8995 67.5126C34.467 66.9451 35.387 66.9451 35.9545 67.5126L36.4358 67.9939L38.903 65.5267C39.4705 64.9592 40.3906 64.9592 40.9581 65.5267C41.5256 66.0942 41.5256 67.0142 40.9581 67.5817L37.4633 71.0765C37.1796 71.3602 36.8078 71.5021 36.4359 71.5021Z" fill="#FF5C39"/>
</svg>
