<svg width="92" height="92" viewBox="0 0 92 92" fill="none" xmlns="http://www.w3.org/2000/svg">
<path d="M53.2787 47.6916H48.8025V59.8962H42.8343V47.6916H38V42.6245H42.8343V38.8106C42.8343 37.3577 43.1327 36.1227 43.7295 35.1056C44.3263 34.0886 45.1619 33.3258 46.2362 32.8173C47.3502 32.2724 48.6234 32 50.0558 32C50.6924 32 51.3688 32.0363 52.085 32.109C52.8012 32.1453 53.3582 32.1998 53.7561 32.2724L54.3529 32.3269V36.6312H51.9657C50.8516 36.6312 50.0359 36.9036 49.5187 37.4485C49.0412 37.957 48.8025 38.5927 48.8025 39.3554V42.6245H54.1142L53.2787 47.6916Z" fill="white"/>
<circle cx="46" cy="46" r="45.5" stroke="white"/>
</svg>
