<svg width="24" height="24" viewBox="0 0 24 24" fill="none" xmlns="http://www.w3.org/2000/svg">
<g clip-path="url(#clip0_688_91385)">
<path d="M17.1747 7.56909C17.4747 7.26906 17.4747 6.77343 17.1747 6.46038C16.8747 6.16035 16.3791 6.16035 16.066 6.46038L7.8614 14.665C6.88311 15.6433 6.88311 17.2477 7.8614 18.226C8.83969 19.2042 10.4441 19.2042 11.4224 18.226L20.0183 9.63003C20.0965 9.5909 20.1748 9.53874 20.2531 9.47351C21.4009 8.32566 24.4532 5.2734 21.5183 2.33853C20.3965 1.21675 19.053 0.786298 17.6313 1.09935C16.4703 1.34717 15.2703 2.09067 14.0703 3.29072L4.75698 12.604C3.64827 13.7127 3.0613 15.252 3.12649 16.9346C3.19172 18.539 3.85696 20.1043 4.96567 21.213C6.07438 22.3217 7.61358 22.9609 9.2049 23C9.24403 23 9.28317 23 9.33533 23C10.9267 23 12.3876 22.4 13.4702 21.3173L22.6531 12.1345C22.9532 11.8344 22.9532 11.3388 22.6531 11.0257C22.3531 10.7257 21.8575 10.7257 21.5444 11.0257L12.3615 20.2086C11.5528 21.0173 10.4441 21.4478 9.23101 21.4347C8.04403 21.4086 6.89614 20.926 6.07438 20.1042C4.31346 18.3433 4.22217 15.3563 5.86569 13.7127L15.179 4.39943C16.1443 3.43417 17.1095 2.82114 17.9573 2.63851C18.8574 2.44285 19.6661 2.70375 20.4096 3.46027C21.1401 4.19075 21.3488 4.86901 21.0879 5.69077C20.9052 6.27775 20.4879 6.92996 19.7835 7.71259C19.7313 7.75172 19.6661 7.79085 19.627 7.82998L10.3267 17.1303C9.96148 17.4955 9.3484 17.4955 8.98319 17.1303C8.61798 16.7651 8.61798 16.152 8.98319 15.7868L17.1747 7.56909Z" fill="#3B3B46"/>
</g>
<defs>
<clipPath id="clip0_688_91385">
<rect width="22" height="22" fill="white" transform="translate(2 1)"/>
</clipPath>
</defs>
</svg>
