<svg width="208" height="72" viewBox="0 0 208 72" fill="none" xmlns="http://www.w3.org/2000/svg">
<path d="M0.11519 56.2706C1.15207 55.114 5.52984 54.4778 5.52984 53.3212V4.10662C5.52984 2.94992 1.03687 2.31382 0 1.15723H19.7C18.6631 2.31382 14.1126 2.94992 14.1126 4.10662V53.3212C14.1126 54.4778 18.6055 55.114 19.6423 56.2706H0.11519Z" fill="white"/>
<path d="M4.60791 66.7961C4.60791 64.7142 6.10555 61.4756 9.84969 61.4756C13.5362 61.4756 15.0915 64.772 15.0915 66.7961C15.0915 68.7624 13.5362 72.001 9.84969 72.001C6.22074 72.001 4.60791 68.8781 4.60791 66.7961Z" fill="#FF5C39"/>
<path d="M25.2291 56.2699V20.877C25.2291 19.836 25.1139 19.2577 24.4226 18.5059C24.1923 18.2746 23.9618 18.0433 23.7314 17.8119L32.0837 15.7878C33.0054 16.7131 33.5814 17.8119 33.7542 19.0842C33.7542 19.1999 33.7542 19.5469 33.7542 19.5469C35.7703 16.9445 38.1896 15.3252 43.6042 15.3252C48.7884 15.3252 53.051 16.771 55.643 20.183C58.4656 16.771 62.6705 15.3252 68.1427 15.3252C78.9143 15.3252 82.7161 22.9589 82.7161 29.5517V56.2699H74.1333V29.5517C74.1333 25.2722 72.1172 20.877 66.1842 20.877C59.9056 20.877 58.2351 25.0409 58.2351 29.5517V56.2699H49.71V29.5517C49.71 25.2722 47.5211 20.877 41.5881 20.877C35.3095 20.877 33.7542 25.0409 33.7542 29.5517V56.2699H25.2291Z" fill="white"/>
<path d="M104.606 15.3252C114.052 15.3252 120.792 19.7204 120.792 27.1228V43.1421C120.792 43.7205 120.792 44.2409 120.792 44.8193C120.849 46.0337 120.849 47.653 121.137 49.041C121.253 49.7928 121.541 50.6024 122.001 51.2386C122.635 52.106 123.557 52.6843 124.651 52.5687C125.803 52.5109 126.898 51.8747 127.877 51.3542V55.7494C125.918 56.3856 123.902 56.7326 121.886 56.7326C117.681 56.7326 115.147 54.8819 113.822 52.3374C111.46 54.7663 107.774 56.8482 103.511 56.8482C93.3155 56.8482 87.9009 52.453 87.9009 44.7036C87.9009 38.3421 92.509 34.9301 99.8245 32.9638C101.61 32.5011 103.338 32.1542 105.182 31.9228C105.7 31.8072 107.601 31.4602 109.386 31.0554C109.617 30.9975 111.921 30.3614 112.036 30.2457C112.151 30.1879 112.209 30.1301 112.267 30.1301C112.267 29.1469 112.209 28.1638 112.151 27.1228C112.036 22.9589 110.596 19.836 104.778 19.836C102.013 19.836 98.7301 21.224 96.8868 22.9011C96.714 23.0746 96.5988 23.1903 96.426 23.3638C96.138 23.6529 95.85 23.9999 95.562 24.2891C95.274 24.6361 94.9859 24.9831 94.6979 25.33L91.357 19.2577C91.5298 19.1421 91.7026 19.0842 91.8754 18.9686C92.1058 18.7951 92.3362 18.6794 92.6243 18.5059C96.0804 16.5396 100.113 15.3252 104.606 15.3252ZM112.267 34.3518C110.539 35.3349 107.486 36.1445 105.642 36.665C99.2485 38.2843 96.3684 39.4409 96.3684 44.8771C96.3684 48.347 99.5365 51.9325 104.087 51.9325C107.14 51.9325 110.078 50.2554 111.691 48.2313C111.979 47.8843 112.209 47.5373 112.209 47.1904L112.267 34.3518Z" fill="white"/>
<path d="M133.348 56.2699V21.8023C133.348 21.1083 133.348 20.6457 133.291 20.0095C133.233 19.0842 132.542 18.4481 131.908 17.8119L140.203 15.7878C140.837 16.424 141.355 17.2336 141.643 18.1011C141.816 18.6794 141.873 19.2577 141.873 19.836C144.408 17.5228 148.152 15.3252 152.242 15.3252C155.179 15.3252 158.981 17.4071 158.981 20.7035C158.981 22.8433 157.426 24.5782 155.295 24.5782C151.147 24.5782 151.839 20.3565 149.419 20.3565C146.078 20.3565 141.873 23.7108 141.873 26.2553V56.2699H133.348Z" fill="white"/>
<path d="M173.323 15.788C173.554 16.4242 173.726 16.829 173.726 17.5808V56.2701H165.201V19.2001C165.201 17.4073 164.625 17.0025 163.588 15.788H173.323ZM164.049 5.2627C164.049 3.2386 165.662 0 169.349 0C172.978 0 174.59 3.2964 174.59 5.2627C174.59 7.229 172.92 10.5832 169.349 10.5832C165.662 10.5832 164.049 7.2868 164.049 5.2627Z" fill="white"/>
<path d="M178.623 52.106L182.022 45.7446C182.194 45.9181 182.77 46.612 182.886 46.7855C185.247 49.7349 188.646 52.2217 193.139 52.2217C197.92 52.2217 200.224 50.2554 200.224 46.6699C200.224 45.2241 199.187 44.2409 197.344 43.2C196.422 42.6217 195.328 42.1012 194.176 41.5807C193.024 41.0024 191.756 40.4819 190.489 39.9036C185.305 37.5325 179.89 34.2939 179.89 27.5855C179.89 23.1903 182.137 18.3903 187.839 16.2505C189.51 15.6143 191.238 15.3252 193.139 15.3252C198.035 15.3252 202.182 16.6553 205.869 18.9107C205.926 18.9686 206.33 19.1421 206.387 19.1999L203.104 25.2722C202.931 25.0987 202.413 24.4047 202.24 24.2312C200.109 21.8602 196.825 19.7782 193.139 19.7782C189.683 19.7782 187.667 22.4963 187.667 25.1565C187.667 27.6433 188.819 29.3204 190.604 30.5927C191.468 31.2867 192.563 31.865 193.715 32.3855C194.867 32.9638 196.134 33.4843 197.401 34.0626C202.528 36.2602 208 38.747 208 45.7446C208 51.9904 201.145 56.7326 193.139 56.7326C187.494 56.7326 183.174 54.9398 179.141 52.3952C179.084 52.3374 178.681 52.1639 178.623 52.106Z" fill="white"/>
</svg>
