<svg width="18" height="18" viewBox="0 0 18 18" fill="none" xmlns="http://www.w3.org/2000/svg">
<path d="M6.68135 3.2976V2.784C6.68135 2.57199 6.50926 2.40004 6.29739 2.40004L3.83231 2.3999C3.6203 2.3999 3.44835 2.572 3.44835 2.78387V3.29747L1.80102 3.2976V4.64157H3.44835V5.24986C3.44835 5.46187 3.62044 5.63383 3.83231 5.63383H6.29739C6.5094 5.63383 6.68135 5.46173 6.68135 5.24986V4.64157H16.7768V3.2976L6.68135 3.2976ZM10.906 7.83634C10.906 7.62433 10.7339 7.45238 10.5221 7.45238H8.057C7.84499 7.45238 7.67303 7.62447 7.67303 7.83634L7.6729 8.39709H1.80113V9.74105H7.67324V10.3021C7.67324 10.5141 7.84534 10.686 8.05721 10.686H10.5223C10.7343 10.686 10.9062 10.5139 10.9062 10.3021V9.74119H16.777V8.39722L10.9062 8.39709L10.906 7.83634ZM15.1294 12.936C15.1294 12.724 14.9573 12.552 14.7454 12.552H12.2802C12.0682 12.552 11.8962 12.7241 11.8962 12.936V13.4969L1.80078 13.4967V14.8407H11.8962V15.4017C11.8962 15.6137 12.0683 15.7857 12.2802 15.7857H14.7452C14.9573 15.7857 15.1292 15.6136 15.1292 15.4017V14.8407H16.7767V13.4967H15.1291L15.1294 12.936Z" fill="#313148"/>
</svg>
