<svg width="92" height="92" viewBox="0 0 92 92" fill="none" xmlns="http://www.w3.org/2000/svg">
<circle cx="46" cy="46" r="45.5" stroke="white"/>
<path d="M40.8421 40.9044C42.2535 39.493 43.9555 38.7872 45.9481 38.7872C47.9407 38.7872 49.6219 39.493 50.9918 40.9044C52.4033 42.2743 53.109 43.9555 53.109 45.9481C53.109 47.9407 52.4033 49.6427 50.9918 51.0541C49.6219 52.424 47.9407 53.109 45.9481 53.109C43.9555 53.109 42.2535 52.424 40.8421 51.0541C39.4722 49.6427 38.7872 47.9407 38.7872 45.9481C38.7872 43.9555 39.4722 42.2743 40.8421 40.9044ZM42.6479 49.2483C43.5612 50.1616 44.6612 50.6182 45.9481 50.6182C47.235 50.6182 48.3351 50.1616 49.2483 49.2483C50.1616 48.3351 50.6182 47.235 50.6182 45.9481C50.6182 44.6612 50.1616 43.5612 49.2483 42.6479C48.3351 41.7346 47.235 41.278 45.9481 41.278C44.6612 41.278 43.5612 41.7346 42.6479 42.6479C41.7346 43.5612 41.278 44.6612 41.278 45.9481C41.278 47.235 41.7346 48.3351 42.6479 49.2483ZM54.5411 37.3551C54.8732 37.6457 55.0393 38.0193 55.0393 38.4759C55.0393 38.9325 54.8732 39.3269 54.5411 39.659C54.2505 39.9911 53.8769 40.1571 53.4203 40.1571C52.9637 40.1571 52.5693 39.9911 52.2372 39.659C51.9051 39.3269 51.7391 38.9325 51.7391 38.4759C51.7391 38.0193 51.9051 37.6457 52.2372 37.3551C52.5693 37.023 52.9637 36.8569 53.4203 36.8569C53.8769 36.8569 54.2505 37.023 54.5411 37.3551ZM59.8339 40.2194C59.8755 41.3402 59.8962 43.2498 59.8962 45.9481C59.8962 48.6464 59.8755 50.556 59.8339 51.6768C59.7094 54.209 58.9414 56.1809 57.53 57.5923C56.1601 58.9622 54.209 59.6886 51.6768 59.7717C50.556 59.8547 48.6464 59.8962 45.9481 59.8962C43.2498 59.8962 41.3402 59.8547 40.2194 59.7717C37.6872 59.6471 35.7361 58.8999 34.3662 57.53C33.8265 57.0319 33.3907 56.4507 33.0586 55.7865C32.7265 55.1223 32.4774 54.4789 32.3113 53.8562C32.1868 53.2335 32.1245 52.507 32.1245 51.6768C32.0415 50.556 32 48.6464 32 45.9481C32 43.2498 32.0415 41.3195 32.1245 40.1571C32.2491 37.6664 32.9963 35.7361 34.3662 34.3662C35.7361 32.9548 37.6872 32.1868 40.2194 32.0623C41.3402 32.0208 43.2498 32 45.9481 32C48.6464 32 50.556 32.0208 51.6768 32.0623C54.209 32.1868 56.1601 32.9548 57.53 34.3662C58.9414 35.7361 59.7094 37.6872 59.8339 40.2194ZM56.8451 54.1675C56.9696 53.8354 57.0734 53.4203 57.1564 52.9222C57.2394 52.3825 57.3017 51.7598 57.3432 51.0541C57.3847 50.3069 57.4055 49.705 57.4055 49.2483C57.4055 48.7917 57.4055 48.1483 57.4055 47.318C57.4055 46.4878 57.4055 46.0311 57.4055 45.9481C57.4055 45.8236 57.4055 45.3669 57.4055 44.5782C57.4055 43.748 57.4055 43.1045 57.4055 42.6479C57.4055 42.1912 57.3847 41.6101 57.3432 40.9044C57.3017 40.1571 57.2394 39.5345 57.1564 39.0363C57.0734 38.4967 56.9696 38.0608 56.8451 37.7287C56.3469 36.4418 55.4544 35.5493 54.1675 35.0511C53.8354 34.9266 53.3995 34.8228 52.8599 34.7398C52.3617 34.6568 51.7391 34.5945 50.9918 34.553C50.2861 34.5115 49.705 34.4907 49.2483 34.4907C48.8332 34.4907 48.1898 34.4907 47.318 34.4907C46.4878 34.4907 46.0311 34.4907 45.9481 34.4907C45.8651 34.4907 45.4084 34.4907 44.5782 34.4907C43.748 34.4907 43.1045 34.4907 42.6479 34.4907C42.1912 34.4907 41.5893 34.5115 40.8421 34.553C40.1364 34.5945 39.5137 34.6568 38.9741 34.7398C38.4759 34.8228 38.0608 34.9266 37.7287 35.0511C36.4418 35.5493 35.5493 36.4418 35.0511 37.7287C34.9266 38.0608 34.8228 38.4967 34.7398 39.0363C34.6568 39.5345 34.5945 40.1571 34.553 40.9044C34.5115 41.6101 34.4907 42.1912 34.4907 42.6479C34.4907 43.063 34.4907 43.7064 34.4907 44.5782C34.4907 45.4084 34.4907 45.8651 34.4907 45.9481C34.4907 46.1142 34.4907 46.5085 34.4907 47.1312C34.4907 47.7124 34.4907 48.2105 34.4907 48.6256C34.4907 48.9993 34.4907 49.4974 34.4907 50.1201C34.5322 50.7428 34.5738 51.2824 34.6153 51.7391C34.6568 52.1542 34.719 52.5901 34.8021 53.0467C34.8851 53.5033 34.9681 53.8769 35.0511 54.1675C35.5908 55.4544 36.4833 56.3469 37.7287 56.8451C38.0608 56.9696 38.4759 57.0734 38.9741 57.1564C39.5137 57.2394 40.1364 57.3017 40.8421 57.3432C41.5893 57.3847 42.1705 57.4055 42.5856 57.4055C43.0422 57.4055 43.6857 57.4055 44.5159 57.4055C45.3877 57.4055 45.8651 57.4055 45.9481 57.4055C46.0726 57.4055 46.5293 57.4055 47.318 57.4055C48.1483 57.4055 48.7917 57.4055 49.2483 57.4055C49.705 57.4055 50.2861 57.3847 50.9918 57.3432C51.7391 57.3017 52.3617 57.2394 52.8599 57.1564C53.3995 57.0734 53.8354 56.9696 54.1675 56.8451C55.4544 56.3054 56.3469 55.4129 56.8451 54.1675Z" fill="white"/>
</svg>
