<svg width="92" height="92" viewBox="0 0 92 92" fill="none" xmlns="http://www.w3.org/2000/svg">
<path d="M38.2268 59.8962H32.4359V41.278H38.2268V59.8962ZM35.3625 38.725C34.4492 38.725 33.6605 38.3929 32.9963 37.7287C32.3321 37.0645 32 36.2758 32 35.3625C32 34.4492 32.3321 33.6605 32.9963 32.9963C33.6605 32.3321 34.4492 32 35.3625 32C35.9437 32 36.4833 32.1453 36.9815 32.4359C37.5211 32.7265 37.9362 33.1416 38.2268 33.6812C38.5589 34.1794 38.725 34.7398 38.725 35.3625C38.725 35.9437 38.5589 36.5041 38.2268 37.0437C37.9362 37.5419 37.5211 37.957 36.9815 38.2891C36.4833 38.5797 35.9437 38.725 35.3625 38.725ZM59.8962 59.8962H54.1053V50.805C54.1053 50.0993 54.0845 49.5389 54.043 49.1238C54.0015 48.6672 53.8977 48.169 53.7316 47.6293C53.5656 47.0482 53.2543 46.6123 52.7976 46.3217C52.3825 46.0311 51.8221 45.8858 51.1164 45.8858C49.7465 45.8858 48.8124 46.3217 48.3143 47.1935C47.8577 48.0652 47.6293 49.2276 47.6293 50.6805V59.8962H41.8384V41.278H47.4425V43.831H47.5048C47.9199 43.0007 48.6049 42.295 49.5597 41.7139C50.5144 41.0912 51.656 40.7798 52.9844 40.7798C54.3958 40.7798 55.5582 41.0081 56.4714 41.4648C57.4262 41.8799 58.1319 42.5233 58.5886 43.3951C59.0867 44.2253 59.4188 45.1386 59.5849 46.1349C59.7924 47.1312 59.8962 48.3143 59.8962 49.6842V59.8962Z" fill="white"/>
<circle cx="46" cy="46" r="45.5" stroke="white"/>
</svg>
