<svg width="156" height="54" viewBox="0 0 156 54" fill="none" xmlns="http://www.w3.org/2000/svg">
<path d="M0.0863926 42.1512C0.864048 41.2867 4.14737 40.8112 4.14737 39.9467V3.16062C4.14737 2.29602 0.777656 1.82057 0 0.956055H14.775C13.9973 1.82057 10.5844 2.29602 10.5844 3.16062V39.9467C10.5844 40.8112 13.9541 41.2867 14.7317 42.1512H0.0863926Z" fill="#3B3B46"/>
<path d="M3.45605 50.0184C3.45605 48.4622 4.57928 46.0415 7.38739 46.0415C10.1523 46.0415 11.3187 48.5054 11.3187 50.0184C11.3187 51.4881 10.1523 53.9088 7.38739 53.9088C4.66567 53.9088 3.45605 51.5746 3.45605 50.0184Z" fill="#FF5C39"/>
<path d="M18.9221 42.151V15.6961C18.9221 14.918 18.8357 14.4858 18.3172 13.9238C18.1444 13.751 17.9716 13.5781 17.7988 13.4051L24.063 11.8922C24.7543 12.5838 25.1863 13.4051 25.3159 14.3561C25.3159 14.4426 25.3159 14.7019 25.3159 14.7019C26.828 12.7568 28.6424 11.5464 32.7034 11.5464C36.5915 11.5464 39.7885 12.6271 41.7325 15.1774C43.8494 12.6271 47.0031 11.5464 51.1073 11.5464C59.186 11.5464 62.0373 17.2523 62.0373 22.1802V42.151H55.6002V22.1802C55.6002 18.9814 54.0882 15.6961 49.6384 15.6961C44.9294 15.6961 43.6766 18.8085 43.6766 22.1802V42.151H37.2827V22.1802C37.2827 18.9814 35.6411 15.6961 31.1913 15.6961C26.4824 15.6961 25.3159 18.8085 25.3159 22.1802V42.151H18.9221Z" fill="#3B3B46"/>
<path d="M78.4538 11.5464C85.5388 11.5464 90.5934 14.8316 90.5934 20.3646V32.3385C90.5934 32.7708 90.5934 33.1598 90.5934 33.5921C90.6366 34.4998 90.6366 35.7102 90.8526 36.7477C90.939 37.3096 91.155 37.9148 91.5006 38.3903C91.9759 39.0386 92.6671 39.4709 93.4879 39.3845C94.352 39.3413 95.1728 38.8657 95.9072 38.4767V41.7619C94.4383 42.2375 92.9263 42.4968 91.4142 42.4968C88.2605 42.4968 86.3596 41.1135 85.366 39.2116C83.5948 41.0271 80.8298 42.5833 77.6329 42.5833C69.9862 42.5833 65.9253 39.298 65.9253 33.5056C65.9253 28.7506 69.3814 26.2003 74.868 24.7306C76.2073 24.3847 77.5033 24.1254 78.8858 23.9525C79.2746 23.8661 80.7002 23.6067 82.0395 23.3041C82.2123 23.2608 83.9404 22.7854 84.0268 22.6989C84.1132 22.6557 84.1564 22.6125 84.1996 22.6125C84.1996 21.8776 84.1564 21.1428 84.1132 20.3646C84.0268 17.2523 82.9467 14.918 78.5834 14.918C76.5097 14.918 74.0472 15.9555 72.6647 17.2091C72.5351 17.3388 72.4487 17.4253 72.3191 17.5549C72.1031 17.771 71.8871 18.0304 71.6711 18.2466C71.4551 18.5059 71.2391 18.7653 71.0231 19.0246L68.5174 14.4858C68.647 14.3994 68.7766 14.3561 68.9062 14.2697C69.079 14.14 69.2518 14.0535 69.4678 13.9238C72.0599 12.4541 75.084 11.5464 78.4538 11.5464ZM84.1996 25.768C82.9035 26.5029 80.6138 27.108 79.2314 27.4971C74.436 28.7074 72.2759 29.572 72.2759 33.6353C72.2759 36.2289 74.652 38.9089 78.0649 38.9089C80.3546 38.9089 82.5579 37.6554 83.7675 36.1424C83.9835 35.8831 84.1564 35.6237 84.1564 35.3644L84.1996 25.768Z" fill="#3B3B46"/>
<path d="M100.011 42.151V16.3878C100.011 15.869 100.011 15.5233 99.968 15.0477C99.9248 14.3561 99.4064 13.8806 98.9312 13.4051L105.152 11.8922C105.627 12.3677 106.016 12.9728 106.232 13.6213C106.362 14.0535 106.405 14.4858 106.405 14.918C108.306 13.189 111.114 11.5464 114.181 11.5464C116.385 11.5464 119.236 13.1025 119.236 15.5665C119.236 17.1659 118.069 18.4627 116.471 18.4627C113.36 18.4627 113.879 15.3071 112.064 15.3071C109.559 15.3071 106.405 17.8143 106.405 19.7162V42.151H100.011Z" fill="#3B3B46"/>
<path d="M129.993 11.8922C130.165 12.3678 130.295 12.6703 130.295 13.2323V42.1511H123.901V14.4427C123.901 13.1026 123.469 12.8 122.691 11.8922H129.993ZM123.037 4.02498C123.037 2.51204 124.247 0.0913086 127.012 0.0913086C129.733 0.0913086 130.943 2.55524 130.943 4.02498C130.943 5.49472 129.69 8.00185 127.012 8.00185C124.247 8.00185 123.037 5.53792 123.037 4.02498Z" fill="#3B3B46"/>
<path d="M133.967 39.0386L136.516 34.2837C136.646 34.4134 137.078 34.9321 137.164 35.0618C138.935 37.2663 141.484 39.1251 144.854 39.1251C148.44 39.1251 150.168 37.6554 150.168 34.9754C150.168 33.8947 149.39 33.1598 148.008 32.3817C147.317 31.9495 146.496 31.5604 145.632 31.1714C144.768 30.7391 143.817 30.3501 142.867 29.9178C138.979 28.1455 134.918 25.7248 134.918 20.7105C134.918 17.4253 136.603 13.8374 140.88 12.238C142.132 11.7625 143.428 11.5464 144.854 11.5464C148.526 11.5464 151.637 12.5406 154.402 14.2264C154.445 14.2697 154.747 14.3994 154.79 14.4426L152.328 18.9814C152.198 18.8517 151.81 18.333 151.68 18.2033C150.081 16.4311 147.619 14.8748 144.854 14.8748C142.262 14.8748 140.75 16.9065 140.75 18.8949C140.75 20.7537 141.614 22.0073 142.953 22.9583C143.601 23.477 144.422 23.9093 145.286 24.2983C146.15 24.7306 147.101 25.1196 148.051 25.5519C151.896 27.1945 156 29.0533 156 34.2837C156 38.9522 150.859 42.4968 144.854 42.4968C140.62 42.4968 137.38 41.1568 134.356 39.2548C134.313 39.2116 134.011 39.0819 133.967 39.0386Z" fill="#3B3B46"/>
</svg>
