<svg width="291" height="101" viewBox="0 0 291 101" fill="none" xmlns="http://www.w3.org/2000/svg">
<path d="M0.660601 78.6656C2.10624 77.0585 8.20986 76.1745 8.20986 74.5673V6.18306C8.20986 4.57581 1.94564 3.69194 0.5 2.08484H27.9663C26.5206 3.69194 20.1761 4.57581 20.1761 6.18306V74.5673C20.1761 76.1745 26.4404 77.0585 27.8859 78.6656H0.660601Z" fill="#3B3B46"/>
<path d="M6.9248 93.2904C6.9248 90.3975 9.01285 85.8975 14.233 85.8975C19.3729 85.8975 21.5413 90.4778 21.5413 93.2904C21.5413 96.0226 19.3729 100.523 14.233 100.523C9.17345 100.523 6.9248 96.1833 6.9248 93.2904Z" fill="#FF5C39"/>
<path d="M35.6756 78.6654V29.4865C35.6756 28.04 35.515 27.2365 34.5512 26.1918C34.23 25.8704 33.9087 25.5491 33.5875 25.2275L45.2325 22.415C46.5175 23.7007 47.3207 25.2275 47.5616 26.9954C47.5616 27.1562 47.5616 27.6383 47.5616 27.6383C50.3725 24.0223 53.7455 21.7722 61.2947 21.7722C68.5226 21.7722 74.4656 23.7812 78.0796 28.5222C82.0148 23.7812 87.8775 21.7722 95.507 21.7722C110.525 21.7722 115.826 32.3793 115.826 41.5401V78.6654H103.859V41.5401C103.859 35.5937 101.048 29.4865 92.7764 29.4865C84.0226 29.4865 81.6936 35.2723 81.6936 41.5401V78.6654H69.8076V41.5401C69.8076 35.5937 66.7558 29.4865 58.4838 29.4865C49.73 29.4865 47.5616 35.2723 47.5616 41.5401V78.6654H35.6756Z" fill="#3B3B46"/>
<path d="M146.343 21.772C159.514 21.772 168.911 27.8792 168.911 38.1649V60.4239C168.911 61.2276 168.911 61.9507 168.911 62.7544C168.991 64.4418 168.991 66.6918 169.393 68.6205C169.553 69.6651 169.955 70.7901 170.597 71.6741C171.481 72.8793 172.766 73.6829 174.292 73.5223C175.898 73.442 177.424 72.5579 178.789 71.8347V77.9419C176.058 78.8259 173.247 79.3081 170.437 79.3081C164.574 79.3081 161.04 76.7365 159.193 73.2009C155.9 76.5759 150.76 79.4687 144.818 79.4687C130.603 79.4687 123.053 73.3615 123.053 62.5936C123.053 53.7542 129.478 49.0132 139.678 46.281C142.167 45.6381 144.577 45.1561 147.147 44.8345C147.869 44.6739 150.52 44.1917 153.009 43.6293C153.33 43.5488 156.543 42.665 156.703 42.5042C156.864 42.4239 156.944 42.3436 157.025 42.3436C157.025 40.9774 156.944 39.6114 156.864 38.1649C156.703 32.3791 154.696 28.0398 146.584 28.0398C142.729 28.0398 138.152 29.9684 135.582 32.2988C135.341 32.5399 135.18 32.7006 134.939 32.9417C134.538 33.3434 134.136 33.8256 133.735 34.2274C133.333 34.7096 132.932 35.1917 132.53 35.6738L127.872 27.2362C128.113 27.0756 128.354 26.9951 128.595 26.8345C128.916 26.5934 129.237 26.4327 129.639 26.1916C134.457 23.4594 140.079 21.772 146.343 21.772ZM157.025 48.2097C154.615 49.5757 150.359 50.7006 147.789 51.4239C138.875 53.6739 134.859 55.281 134.859 62.8347C134.859 67.6562 139.276 72.6382 145.621 72.6382C149.877 72.6382 153.973 70.3079 156.222 67.4954C156.623 67.0132 156.944 66.5311 156.944 66.0491L157.025 48.2097Z" fill="#3B3B46"/>
<path d="M186.418 78.6651V30.772C186.418 29.8077 186.418 29.1649 186.338 28.2809C186.258 26.9951 185.294 26.1113 184.41 25.2273L195.975 22.4148C196.859 23.2988 197.581 24.4237 197.983 25.6291C198.224 26.4327 198.304 27.2362 198.304 28.0398C201.838 24.8256 207.058 21.772 212.76 21.772C216.856 21.772 222.156 24.6648 222.156 29.2452C222.156 32.2185 219.988 34.6291 217.017 34.6291C211.234 34.6291 212.198 28.763 208.825 28.763C204.167 28.763 198.304 33.4239 198.304 36.9595V78.6651H186.418Z" fill="#3B3B46"/>
<path d="M242.153 22.4149C242.474 23.2989 242.715 23.8614 242.715 24.906V78.6653H230.829V27.1561C230.829 24.6649 230.026 24.1025 228.58 22.4149H242.153ZM229.223 7.78988C229.223 4.97737 231.471 0.477295 236.611 0.477295C241.671 0.477295 243.92 5.05768 243.92 7.78988C243.92 10.5221 241.591 15.1828 236.611 15.1828C231.471 15.1828 229.223 10.6024 229.223 7.78988Z" fill="#3B3B46"/>
<path d="M249.542 72.8793L254.28 64.0401C254.521 64.2812 255.324 65.2453 255.485 65.4864C258.777 69.5847 263.516 73.0401 269.78 73.0401C276.446 73.0401 279.658 70.3079 279.658 65.3258C279.658 63.3169 278.213 61.9507 275.643 60.5043C274.358 59.7008 272.832 58.9775 271.225 58.2543C269.619 57.4508 267.852 56.7275 266.086 55.924C258.858 52.6293 251.308 48.1292 251.308 38.8078C251.308 32.7006 254.441 26.031 262.391 23.0577C264.72 22.1737 267.13 21.772 269.78 21.772C276.606 21.772 282.389 23.6202 287.529 26.7541C287.609 26.8345 288.171 27.0756 288.251 27.1559L283.674 35.5934C283.433 35.3524 282.71 34.388 282.469 34.147C279.497 30.8524 274.92 27.9595 269.78 27.9595C264.961 27.9595 262.15 31.7363 262.15 35.4327C262.15 38.8881 263.757 41.2185 266.246 42.9863C267.451 43.9507 268.977 44.7542 270.583 45.4775C272.189 46.281 273.956 47.0043 275.723 47.8078C282.87 50.8614 290.5 54.3168 290.5 64.0401C290.5 72.7187 280.943 79.3081 269.78 79.3081C261.909 79.3081 255.886 76.8169 250.264 73.2812C250.184 73.2009 249.622 72.9598 249.542 72.8793Z" fill="#3B3B46"/>
</svg>
