<svg width="96" height="96" viewBox="0 0 96 96" fill="none" xmlns="http://www.w3.org/2000/svg">
<g clip-path="url(#clip0_113_154)">
<path d="M26.5812 38.5627L36.7156 47.4311L16.0267 66.394C15.8815 66.5271 15.7639 66.6875 15.6807 66.8661C15.5974 67.0446 15.5502 67.2378 15.5416 67.4346C15.533 67.6315 15.5633 67.828 15.6307 68.0132C15.6981 68.1983 15.8013 68.3683 15.9344 68.5135C16.0675 68.6588 16.2279 68.7764 16.4065 68.8596C16.585 68.9429 16.7782 68.9901 16.9751 68.9987C17.1719 69.0073 17.3685 68.977 17.5536 68.9096C17.7387 68.8422 17.9087 68.739 18.054 68.6059L38.9872 49.4189L45.511 55.1279C45.7846 55.3677 46.136 55.5 46.4998 55.5C46.8636 55.5 47.2151 55.3677 47.4886 55.1279L54.0129 49.4195L74.9457 68.6059C75.0909 68.739 75.2609 68.8422 75.4461 68.9096C75.6312 68.977 75.8278 69.0073 76.0246 68.9987C76.2214 68.9901 76.4146 68.9429 76.5932 68.8596C76.7717 68.7764 76.9321 68.6588 77.0653 68.5135C77.1984 68.3683 77.3016 68.1983 77.369 68.0132C77.4364 67.828 77.4667 67.6315 77.4581 67.4346C77.4495 67.2378 77.4023 67.0446 77.319 66.8661C77.2358 66.6875 77.1182 66.5271 76.9729 66.394L56.2848 47.4317L76.6317 29.6293C76.78 29.4996 76.9013 29.342 76.9887 29.1655C77.0761 28.9889 77.1279 28.7969 77.1411 28.6004C77.1543 28.4038 77.1286 28.2066 77.0656 28.02C77.0026 27.8333 76.9034 27.6609 76.7737 27.5126C76.6441 27.3643 76.4865 27.243 76.3099 27.1556C76.1334 27.0682 75.9414 27.0164 75.7448 27.0032C75.5483 26.99 75.3511 27.0157 75.1644 27.0787C74.9778 27.1417 74.8054 27.2409 74.6571 27.3706L46.4998 52.0049L29.9419 37.5167C34.601 35.5922 38.3385 31.9451 40.3763 27.3345C42.4142 22.7239 42.5955 17.505 40.8826 12.764C39.1696 8.02308 35.6943 4.12537 31.18 1.88216C26.6657 -0.361055 21.4602 -0.776952 16.647 0.721033C11.8339 2.21902 7.78376 5.51548 5.33975 9.92429C2.89575 14.3331 2.24612 19.5146 3.52608 24.3903C4.80604 29.266 7.91699 33.4603 12.2114 36.1001C16.5058 38.74 21.6528 39.622 26.5812 38.5627ZM5.99982 19.4999C5.99982 16.2365 6.96753 13.0464 8.78057 10.333C10.5936 7.6196 13.1706 5.50475 16.1855 4.25591C19.2005 3.00706 22.5181 2.6803 25.7188 3.31696C28.9195 3.95362 31.8595 5.52509 34.1671 7.83266C36.4747 10.1402 38.0461 13.0802 38.6828 16.2809C39.3194 19.4816 38.9927 22.7992 37.7438 25.8142C36.495 28.8292 34.3801 31.4061 31.6667 33.2192C28.9533 35.0322 25.7632 35.9999 22.4998 35.9999C18.1253 35.995 13.9313 34.255 10.838 31.1617C7.74477 28.0684 6.00479 23.8745 5.99982 19.4999Z" fill="#FF5C39"/>
<path d="M82.5 75C82.8978 75 83.2794 74.842 83.5607 74.5607C83.842 74.2794 84 73.8978 84 73.5V25.5C83.9987 24.3069 83.5242 23.1631 82.6805 22.3195C81.8369 21.4758 80.6931 21.0013 79.5 21H46.32C45.9222 21 45.5406 21.158 45.2593 21.4393C44.978 21.7206 44.82 22.1022 44.82 22.5C44.82 22.8978 44.978 23.2794 45.2593 23.5607C45.5406 23.842 45.9222 24 46.32 24H79.5C79.8978 24.0002 80.2791 24.1583 80.5604 24.4396C80.8417 24.7209 80.9998 25.1022 81 25.5V72H36C35.6831 72.0004 35.3745 72.1009 35.1181 72.2871L21 82.5541V73.5C21 73.1022 20.842 72.7206 20.5607 72.4393C20.2794 72.158 19.8978 72 19.5 72H13.5C13.1022 71.9998 12.7209 71.8417 12.4396 71.5604C12.1584 71.2791 12.0002 70.8978 12 70.5V40.29C12 39.8922 11.842 39.5106 11.5607 39.2293C11.2794 38.948 10.8978 38.79 10.5 38.79C10.1022 38.79 9.72064 38.948 9.43934 39.2293C9.15804 39.5106 9 39.8922 9 40.29V70.5C9.00131 71.6931 9.47584 72.8369 10.3195 73.6805C11.1631 74.5242 12.3069 74.9987 13.5 75H18V85.5C18.0001 85.7766 18.0767 86.0478 18.2213 86.2836C18.3659 86.5194 18.5728 86.7107 18.8193 86.8362C19.0658 86.9617 19.3422 87.0166 19.618 86.9949C19.8937 86.9731 20.1581 86.8755 20.3819 86.7129L36.4878 75H82.5Z" fill="#FF5C39"/>
<path d="M88.4997 30H86.9997C86.6019 30 86.2204 30.158 85.939 30.4393C85.6577 30.7206 85.4997 31.1022 85.4997 31.5C85.4997 31.8978 85.6577 32.2794 85.939 32.5607C86.2204 32.842 86.6019 33 86.9997 33H88.4997C88.8975 33.0002 89.2789 33.1583 89.5601 33.4396C89.8414 33.7209 89.9995 34.1022 89.9997 34.5V79.5C89.9995 79.8978 89.8414 80.2791 89.5601 80.5604C89.2789 80.8417 88.8975 80.9998 88.4997 81H82.4997C82.1019 81 81.7204 81.158 81.439 81.4393C81.1577 81.7206 80.9997 82.1022 80.9997 82.5V91.6977L65.3318 81.252C65.0853 81.0878 64.7958 81.0001 64.4997 81H33.8247C33.4269 81 33.0454 81.158 32.764 81.4393C32.4827 81.7206 32.3247 82.1022 32.3247 82.5C32.3247 82.8978 32.4827 83.2794 32.764 83.5607C33.0454 83.842 33.4269 84 33.8247 84H64.0457L81.6677 95.748C81.8936 95.8986 82.1561 95.9851 82.4273 95.9982C82.6984 96.0113 82.9681 95.9506 83.2075 95.8225C83.4468 95.6944 83.647 95.5037 83.7865 95.2708C83.926 95.0379 83.9997 94.7715 83.9997 94.5V84H88.4997C89.6928 83.9987 90.8366 83.5242 91.6802 82.6805C92.5239 81.8369 92.9984 80.6931 92.9997 79.5V34.5C92.9984 33.3069 92.5239 32.1631 91.6802 31.3195C90.8366 30.4758 89.6928 30.0013 88.4997 30Z" fill="#FF5C39"/>
</g>
<defs>
<clipPath id="clip0_113_154">
<rect width="96" height="96" fill="white"/>
</clipPath>
</defs>
</svg>
