<svg width="40" height="40" viewBox="0 0 40 40" fill="none" xmlns="http://www.w3.org/2000/svg">
<circle cx="20" cy="20" r="20" fill="url(#paint0_radial_178_33160)"/>
<path d="M20.0003 7.0835C12.4734 7.0835 6.66699 12.6211 6.66699 20.0405C6.66699 23.9115 8.22613 27.2985 10.8605 29.6104C11.2906 30.0405 11.1831 30.2555 11.2906 32.7287C11.2906 33.3201 11.7745 33.7502 12.3659 33.7502C12.4734 33.7502 12.6347 33.7502 12.796 33.6964C15.5917 32.4598 15.6455 32.3523 16.1294 32.4598C24.3552 34.7179 33.3337 29.4491 33.3337 20.0405C33.3337 12.6211 27.5272 7.0835 20.0003 7.0835ZM28.0111 17.0835L24.0863 23.2663C23.7638 23.8039 23.0111 24.234 22.4197 24.234C22.0433 24.234 21.5057 24.019 21.1831 23.8039L18.0648 21.4921C17.9573 21.3846 17.7423 21.3308 17.581 21.3308C17.4734 21.3308 17.2584 21.3846 17.0971 21.4921L12.9036 24.6641C12.3122 25.0942 11.6132 24.3953 11.9896 23.8039L15.9143 17.6211C16.2369 17.0835 16.9896 16.7072 17.581 16.7072C17.9573 16.7072 18.4949 16.8684 18.8175 17.0835L21.9358 19.3953C22.0433 19.5029 22.2584 19.5566 22.4197 19.5566C22.581 19.5566 22.796 19.5029 22.9035 19.3953L27.0971 16.2233C27.6885 15.7932 28.3874 16.4921 28.0111 17.0835Z" fill="white"/>
<defs>
<radialGradient id="paint0_radial_178_33160" cx="0" cy="0" r="1" gradientUnits="userSpaceOnUse" gradientTransform="translate(7.69913 39.786) rotate(-57.0923) scale(43.5836 43.5834)">
<stop stop-color="#0099FF"/>
<stop offset="0.61" stop-color="#A033FF"/>
<stop offset="0.935" stop-color="#FF5280"/>
<stop offset="1" stop-color="#FF7061"/>
</radialGradient>
</defs>
</svg>
