<svg width="42" height="42" viewBox="0 0 42 42" fill="none" xmlns="http://www.w3.org/2000/svg">
<g clip-path="url(#clip0_1950_323348)">
<path d="M22.9688 22.3125C22.7947 22.3125 22.6278 22.3816 22.5047 22.5047C22.3816 22.6278 22.3125 22.7947 22.3125 22.9688V34.125H1.3125V5.90625H7.9298C8.08454 6.82409 8.55944 7.65744 9.27022 8.25841C9.981 8.85939 10.8817 9.18913 11.8125 9.18913C12.7433 9.18913 13.644 8.85939 14.3548 8.25841C15.0656 7.65744 15.5405 6.82409 15.6952 5.90625H22.3125V19.0312C22.3125 19.2053 22.3816 19.3722 22.5047 19.4953C22.6278 19.6184 22.7947 19.6875 22.9688 19.6875C23.1428 19.6875 23.3097 19.6184 23.4328 19.4953C23.5559 19.3722 23.625 19.2053 23.625 19.0312V3.9375C23.6243 3.24153 23.3475 2.57428 22.8553 2.08215C22.3632 1.59003 21.696 1.31323 21 1.3125H2.625C1.92905 1.31328 1.26182 1.59009 0.769708 2.08221C0.277594 2.57432 0.000781629 3.24155 0 3.9375L0 38.0625C0.000781629 38.7585 0.277594 39.4257 0.769708 39.9178C1.26182 40.4099 1.92905 40.6867 2.625 40.6875H21C21.696 40.6868 22.3632 40.41 22.8553 39.9179C23.3475 39.4257 23.6243 38.7585 23.625 38.0625V22.9688C23.625 22.7947 23.5559 22.6278 23.4328 22.5047C23.3097 22.3816 23.1428 22.3125 22.9688 22.3125ZM2.625 2.625H21C21.348 2.6254 21.6816 2.76381 21.9276 3.00986C22.1737 3.25592 22.3121 3.58953 22.3125 3.9375V4.59375H15.0938C14.9197 4.59375 14.7528 4.66289 14.6297 4.78596C14.5066 4.90903 14.4375 5.07595 14.4375 5.25C14.4375 5.94619 14.1609 6.61387 13.6687 7.10616C13.1764 7.59844 12.5087 7.875 11.8125 7.875C11.1163 7.875 10.4486 7.59844 9.95634 7.10616C9.46406 6.61387 9.1875 5.94619 9.1875 5.25C9.1875 5.07595 9.11836 4.90903 8.99529 4.78596C8.87222 4.66289 8.7053 4.59375 8.53125 4.59375H1.3125V3.9375C1.31285 3.58951 1.45124 3.25587 1.69731 3.00981C1.94337 2.76374 2.27701 2.62535 2.625 2.625ZM21 39.375H2.625C2.27701 39.3747 1.94337 39.2363 1.69731 38.9902C1.45124 38.7441 1.31285 38.4105 1.3125 38.0625V35.4375H22.3125V38.0625C22.3121 38.4105 22.1737 38.7441 21.9276 38.9901C21.6816 39.2362 21.348 39.3746 21 39.375Z" fill="#FF5C39" stroke="#FF5C39" stroke-width="0.5"/>
<path d="M11.8125 6.5625C12.5374 6.5625 13.125 5.97487 13.125 5.25C13.125 4.52513 12.5374 3.9375 11.8125 3.9375C11.0876 3.9375 10.5 4.52513 10.5 5.25C10.5 5.97487 11.0876 6.5625 11.8125 6.5625Z" fill="#FF5C39" stroke="#FF5C39" stroke-width="0.5"/>
<path d="M13.125 36.75H10.5C10.326 36.75 10.159 36.8191 10.036 36.9422C9.91289 37.0653 9.84375 37.2322 9.84375 37.4062C9.84375 37.5803 9.91289 37.7472 10.036 37.8703C10.159 37.9934 10.326 38.0625 10.5 38.0625H13.125C13.299 38.0625 13.466 37.9934 13.589 37.8703C13.7121 37.7472 13.7812 37.5803 13.7812 37.4062C13.7812 37.2322 13.7121 37.0653 13.589 36.9422C13.466 36.8191 13.299 36.75 13.125 36.75Z" fill="#FF5C39" stroke="#FF5C39" stroke-width="0.5"/>
<path d="M11.8125 16.4062C11.2933 16.4062 10.7858 16.5602 10.3541 16.8486C9.92245 17.1371 9.586 17.547 9.38732 18.0267C9.18864 18.5064 9.13665 19.0342 9.23794 19.5434C9.33923 20.0526 9.58923 20.5203 9.95635 20.8874C10.3235 21.2545 10.7912 21.5045 11.3004 21.6058C11.8096 21.7071 12.3374 21.6551 12.817 21.4564C13.2967 21.2578 13.7067 20.9213 13.9951 20.4896C14.2835 20.0579 14.4375 19.5504 14.4375 19.0312C14.4367 18.3353 14.1599 17.6681 13.6678 17.176C13.1757 16.6838 12.5085 16.407 11.8125 16.4062ZM11.8125 20.3437C11.5529 20.3437 11.2992 20.2668 11.0833 20.1226C10.8675 19.9783 10.6992 19.7733 10.5999 19.5335C10.5006 19.2937 10.4746 19.0298 10.5252 18.7752C10.5759 18.5206 10.7009 18.2867 10.8844 18.1032C11.068 17.9196 11.3018 17.7946 11.5564 17.744C11.811 17.6933 12.0749 17.7193 12.3148 17.8187C12.5546 17.918 12.7596 18.0862 12.9038 18.3021C13.048 18.5179 13.125 18.7717 13.125 19.0312C13.1247 19.3792 12.9863 19.7129 12.7402 19.9589C12.4941 20.205 12.1605 20.3434 11.8125 20.3437Z" fill="#FF5C39" stroke="#FF5C39" stroke-width="0.5"/>
</g>
<defs>
<clipPath id="clip0_1950_323348">
<rect width="42" height="42" fill="white"/>
</clipPath>
</defs>
</svg>
