<svg width="42" height="42" viewBox="0 0 42 42" fill="none" xmlns="http://www.w3.org/2000/svg">
<path d="M32.1562 22.3125C31.9822 22.3125 31.8153 22.3816 31.6922 22.5047C31.5691 22.6278 31.5 22.7947 31.5 22.9688V34.125H10.5V5.90625H17.1173C17.272 6.82409 17.7469 7.65744 18.4577 8.25841C19.1685 8.85939 20.0692 9.18913 21 9.18913C21.9308 9.18913 22.8315 8.85939 23.5423 8.25841C24.2531 7.65744 24.728 6.82409 24.8827 5.90625H31.5V19.0312C31.5 19.2053 31.5691 19.3722 31.6922 19.4953C31.8153 19.6184 31.9822 19.6875 32.1562 19.6875C32.3303 19.6875 32.4972 19.6184 32.6203 19.4953C32.7434 19.3722 32.8125 19.2053 32.8125 19.0312V3.9375C32.8118 3.24153 32.535 2.57428 32.0428 2.08215C31.5507 1.59003 30.8835 1.31323 30.1875 1.3125H11.8125C11.1165 1.31328 10.4493 1.59009 9.95721 2.08221C9.46509 2.57432 9.18828 3.24155 9.1875 3.9375V38.0625C9.18828 38.7585 9.46509 39.4257 9.95721 39.9178C10.4493 40.4099 11.1165 40.6867 11.8125 40.6875H30.1875C30.8835 40.6868 31.5507 40.41 32.0428 39.9179C32.535 39.4257 32.8118 38.7585 32.8125 38.0625V22.9688C32.8125 22.7947 32.7434 22.6278 32.6203 22.5047C32.4972 22.3816 32.3303 22.3125 32.1562 22.3125ZM11.8125 2.625H30.1875C30.5355 2.6254 30.8691 2.76381 31.1151 3.00986C31.3612 3.25592 31.4996 3.58953 31.5 3.9375V4.59375H24.2812C24.1072 4.59375 23.9403 4.66289 23.8172 4.78596C23.6941 4.90903 23.625 5.07595 23.625 5.25C23.625 5.94619 23.3484 6.61387 22.8562 7.10616C22.3639 7.59844 21.6962 7.875 21 7.875C20.3038 7.875 19.6361 7.59844 19.1438 7.10616C18.6516 6.61387 18.375 5.94619 18.375 5.25C18.375 5.07595 18.3059 4.90903 18.1828 4.78596C18.0597 4.66289 17.8928 4.59375 17.7188 4.59375H10.5V3.9375C10.5003 3.58951 10.6387 3.25587 10.8848 3.00981C11.1309 2.76374 11.4645 2.62535 11.8125 2.625ZM30.1875 39.375H11.8125C11.4645 39.3747 11.1309 39.2363 10.8848 38.9902C10.6387 38.7441 10.5003 38.4105 10.5 38.0625V35.4375H31.5V38.0625C31.4996 38.4105 31.3612 38.7441 31.1151 38.9901C30.8691 39.2362 30.5355 39.3746 30.1875 39.375Z" fill="white" stroke="white"/>
<path d="M21 6.5625C21.7249 6.5625 22.3125 5.97487 22.3125 5.25C22.3125 4.52513 21.7249 3.9375 21 3.9375C20.2751 3.9375 19.6875 4.52513 19.6875 5.25C19.6875 5.97487 20.2751 6.5625 21 6.5625Z" fill="white" stroke="white"/>
<path d="M22.3125 36.75H19.6875C19.5135 36.75 19.3465 36.8191 19.2235 36.9422C19.1004 37.0653 19.0312 37.2322 19.0312 37.4062C19.0312 37.5803 19.1004 37.7472 19.2235 37.8703C19.3465 37.9934 19.5135 38.0625 19.6875 38.0625H22.3125C22.4865 38.0625 22.6535 37.9934 22.7765 37.8703C22.8996 37.7472 22.9688 37.5803 22.9688 37.4062C22.9688 37.2322 22.8996 37.0653 22.7765 36.9422C22.6535 36.8191 22.4865 36.75 22.3125 36.75Z" fill="white" stroke="white"/>
<path d="M21 16.4062C20.4808 16.4062 19.9733 16.5602 19.5416 16.8486C19.11 17.1371 18.7735 17.547 18.5748 18.0267C18.3761 18.5064 18.3242 19.0342 18.4254 19.5434C18.5267 20.0526 18.7767 20.5203 19.1438 20.8874C19.511 21.2545 19.9787 21.5045 20.4879 21.6058C20.9971 21.7071 21.5249 21.6551 22.0045 21.4564C22.4842 21.2578 22.8942 20.9213 23.1826 20.4896C23.471 20.0579 23.625 19.5504 23.625 19.0312C23.6242 18.3353 23.3474 17.6681 22.8553 17.176C22.3632 16.6838 21.696 16.407 21 16.4062ZM21 20.3437C20.7404 20.3437 20.4867 20.2668 20.2708 20.1226C20.055 19.9783 19.8867 19.7733 19.7874 19.5335C19.6881 19.2937 19.6621 19.0298 19.7127 18.7752C19.7634 18.5206 19.8884 18.2867 20.0719 18.1032C20.2555 17.9196 20.4893 17.7946 20.7439 17.744C20.9985 17.6933 21.2624 17.7193 21.5023 17.8187C21.7421 17.918 21.9471 18.0862 22.0913 18.3021C22.2355 18.5179 22.3125 18.7717 22.3125 19.0312C22.3122 19.3792 22.1738 19.7129 21.9277 19.9589C21.6816 20.205 21.348 20.3434 21 20.3437Z" fill="white" stroke="white"/>
</svg>
