<svg width="157" height="66" viewBox="0 0 157 66" fill="none" xmlns="http://www.w3.org/2000/svg">
<path d="M24.9072 6.78205C25.6588 6.71993 26.3895 6.69922 27.1411 6.69922C40.7325 7.19617 51.6515 18.0048 52.1943 31.4845V51.8386C52.1734 55.5243 49.1462 58.4853 45.4508 58.4646C42.0687 57.947 39.4798 55.2137 39.1667 51.8386V31.4845C38.603 24.3823 32.3397 19.0608 25.1786 19.6199C25.0951 19.6199 25.0116 19.6406 24.9281 19.6406" fill="#FBBC04"/>
<path d="M52.1942 51.9832C52.1942 55.5448 49.2713 58.4436 45.6803 58.4436C42.0894 58.4436 39.1665 55.5448 39.1665 51.9832C39.1665 48.4218 42.0894 45.5229 45.6803 45.5229C49.2713 45.5229 52.1942 48.4218 52.1942 51.9832Z" fill="#4285F4"/>
<path d="M25.2828 58.2379C28.9782 58.2793 32.0055 55.3597 32.0472 51.6948C32.0472 51.674 32.0472 51.674 32.0472 51.6533C31.9428 48.0919 28.9364 45.2758 25.3455 45.3794C25.3037 45.3794 25.2411 45.3794 25.1993 45.3794C18.0801 44.841 12.7145 38.712 13.2156 31.6305V31.527C13.7375 25.1495 18.8525 20.1179 25.2828 19.6416C28.8738 19.7866 31.9011 17.012 32.0472 13.4505C32.0472 13.4091 32.0472 13.3884 32.0472 13.347C32.0055 9.68196 28.9782 6.72098 25.2828 6.76239H24.8235C10.9816 7.40428 0.0835106 18.6684 0 32.4173V32.5209C0 48.6509 14.2594 58.2586 24.8862 58.2586H25.2828V58.2379Z" fill="#EA4335"/>
<path d="M76.9362 29.5734C71.079 29.5734 66.2967 24.9169 66.2344 19.1195C66.3123 13.322 71.079 8.66553 76.9362 8.66553C79.6466 8.61928 82.2481 9.66775 84.1797 11.5489L82.2014 13.5533C80.7994 12.2273 78.9301 11.5026 76.9985 11.518C72.8237 11.518 69.4278 14.8793 69.4278 19.0115C69.4278 19.0424 69.4278 19.0732 69.4278 19.1195C69.3655 23.2517 72.7146 26.6592 76.8894 26.7055C76.9206 26.7055 76.9517 26.7055 76.9985 26.7055C78.9924 26.7826 80.924 26.0271 82.3416 24.6239C83.2606 23.6371 83.8058 22.3574 83.8993 21.0314H76.9362V18.1789H86.641C86.75 18.7648 86.8123 19.3662 86.7967 19.9675C86.8746 22.4345 85.9711 24.8244 84.2888 26.6438C82.3883 28.6174 79.6934 29.6813 76.9362 29.5734ZM101.813 22.8508C101.954 26.5205 99.0718 29.6042 95.38 29.743C91.6725 29.8817 88.557 27.0293 88.4168 23.375C88.4168 23.2054 88.4168 23.0204 88.4168 22.8508C88.2766 19.1811 91.1585 16.0974 94.8503 15.9586C98.5578 15.8198 101.673 18.6723 101.813 22.3266C101.813 22.4962 101.813 22.6658 101.813 22.8508ZM98.8849 22.8508C99.0874 20.7847 97.5452 18.9653 95.4734 18.7648C93.386 18.5644 91.5479 20.0908 91.3454 22.1415C91.3298 22.3728 91.3298 22.6041 91.3454 22.8508C91.1429 24.9169 92.685 26.7363 94.7569 26.9368C96.8443 27.1372 98.6824 25.6107 98.8849 23.5601C98.9005 23.3134 98.9005 23.0821 98.8849 22.8508ZM116.846 22.8508C117.002 26.5205 114.12 29.6042 110.428 29.7584C106.72 29.9126 103.605 27.0601 103.449 23.4059C103.449 23.2208 103.449 23.0358 103.449 22.8508C103.293 19.1811 106.175 16.0974 109.867 15.9432C113.575 15.789 116.69 18.6415 116.846 22.2957C116.846 22.4807 116.846 22.6658 116.846 22.8508ZM113.902 22.8508C114.104 20.7847 112.578 18.9653 110.49 18.7648C108.403 18.5644 106.565 20.0754 106.362 22.1415C106.347 22.3728 106.347 22.6195 106.362 22.8508C106.16 24.9169 107.686 26.7363 109.774 26.9368C111.861 27.1372 113.699 25.6262 113.902 23.5601C113.933 23.3288 113.933 23.0821 113.902 22.8508ZM131.473 16.5137V28.6328C131.473 33.6131 128.513 35.6483 125.008 35.6483C122.376 35.6638 119.992 34.0911 118.98 31.6857L121.581 30.5602C122.127 31.9633 123.466 32.9192 124.977 32.9655C127.252 32.9655 128.607 31.5932 128.607 29.0183V28.0469H128.498C127.594 29.0491 126.286 29.6196 124.915 29.5888C121.161 29.5888 118.123 26.5667 118.123 22.8508C118.123 19.1349 121.161 16.1282 124.915 16.1282C126.27 16.0974 127.579 16.637 128.498 17.6393H128.638V16.5137C128.654 16.4983 131.473 16.5137 131.473 16.5137ZM128.856 22.8662C129.027 20.7847 127.47 18.9499 125.367 18.7648C125.336 18.7648 125.289 18.7648 125.258 18.7648C123.092 18.8419 121.394 20.6459 121.472 22.7891C121.472 22.82 121.472 22.8354 121.472 22.8662C121.363 24.994 123.015 26.8134 125.164 26.9059C125.195 26.9059 125.227 26.9059 125.242 26.9059C127.33 26.8134 128.95 25.0403 128.856 22.9741C128.856 22.9433 128.856 22.9125 128.856 22.8662ZM136.707 9.39021V29.1571H133.716V9.39021H136.707ZM148.468 25.0711L150.743 26.5975C149.481 28.4632 147.347 29.5888 145.072 29.5734C141.443 29.6196 138.467 26.7363 138.421 23.1438C138.421 23.0358 138.421 22.9433 138.421 22.8354C138.421 18.8265 141.225 16.0974 144.745 16.0974C147.409 16.1745 149.73 17.886 150.556 20.3838L150.867 21.1393L141.785 24.8861C142.362 26.1658 143.67 26.9676 145.088 26.9213C146.459 26.9368 147.752 26.2275 148.468 25.0711ZM141.334 22.6504L147.409 20.1525C146.942 19.2274 145.945 18.6569 144.885 18.734C142.829 18.8265 141.24 20.538 141.318 22.5733C141.318 22.5887 141.318 22.6195 141.334 22.6504Z" fill="#5F6368"/>
<path fill-rule="evenodd" clip-rule="evenodd" d="M66.2344 54.8704L73.099 36.875H75.7477L82.6123 54.8704H80.0263L78.2709 49.988H70.6227L68.8204 54.8704H66.2344ZM71.3907 47.8335H77.4403L74.4625 39.7115H74.3685L71.3907 47.8335ZM89.038 55.2734C87.4238 55.2734 86.0445 54.6379 84.8691 53.3824C83.6937 52.1269 83.1138 50.5615 83.1138 48.7015C83.1138 46.8415 83.6937 45.276 84.8691 44.0205C86.0445 42.765 87.4238 42.1295 89.038 42.1295C89.9941 42.1295 90.8404 42.331 91.5927 42.734C92.3449 43.137 92.9092 43.633 93.2853 44.2375H93.3793L93.2853 42.5325V36.875H95.6205V54.8704H93.3793V53.1654H93.2853C92.9092 53.7699 92.3449 54.2659 91.5927 54.6689C90.8404 55.0719 89.9941 55.2734 89.038 55.2734ZM89.4298 53.1499C90.5269 53.1499 91.4673 52.7469 92.2352 51.9409C93.0032 51.135 93.395 50.05 93.395 48.7015C93.395 47.353 93.0032 46.268 92.2352 45.462C91.4673 44.656 90.5269 44.253 89.4298 44.253C88.3484 44.253 87.4081 44.656 86.6401 45.4775C85.8565 46.2835 85.4647 47.3685 85.4647 48.7015C85.4647 50.0345 85.8565 51.1195 86.6401 51.9254C87.4081 52.7469 88.3484 53.1499 89.4298 53.1499ZM98.7707 54.8704V36.875H101.106L107.438 47.8335H107.532L113.863 36.875H116.199V54.8704H113.863V44.191L113.957 41.1685H113.863L108.174 51.042H106.795L101.106 41.1685H101.012L101.106 44.191V54.8704H98.7707ZM120.43 44.036C121.637 42.7805 123.173 42.145 125.038 42.145C126.903 42.145 128.439 42.765 129.646 44.0205C130.853 45.276 131.448 46.826 131.448 48.7015C131.448 50.577 130.853 52.1424 129.646 53.3824C128.439 54.6379 126.903 55.2579 125.038 55.2579C123.173 55.2579 121.637 54.6379 120.43 53.3824C119.223 52.1269 118.628 50.577 118.628 48.7015C118.628 46.826 119.223 45.276 120.43 44.036ZM122.154 51.9564C122.969 52.7624 123.925 53.1654 125.022 53.1654C126.119 53.1654 127.075 52.7624 127.875 51.9409C128.674 51.135 129.082 50.05 129.082 48.717C129.082 47.384 128.674 46.299 127.875 45.493C127.075 44.687 126.119 44.2685 125.022 44.2685C123.925 44.2685 122.969 44.6715 122.17 45.493C121.371 46.299 120.963 47.384 120.963 48.717C120.963 50.05 121.371 51.1349 122.154 51.9564ZM140.037 55.2734C139.081 55.2734 138.234 55.0719 137.482 54.6689C136.73 54.2659 136.166 53.7699 135.789 53.1654H135.695V54.8704H133.454V36.875H135.789V42.548L135.695 44.253H135.789C136.166 43.6485 136.73 43.1525 137.482 42.7495C138.234 42.3465 139.081 42.145 140.037 42.145C141.651 42.145 143.03 42.7805 144.206 44.036C145.381 45.2915 145.961 46.857 145.961 48.717C145.961 50.577 145.381 52.1424 144.206 53.3979C143.03 54.6379 141.651 55.2734 140.037 55.2734ZM139.661 53.1499C140.742 53.1499 141.682 52.7469 142.45 51.9254C143.234 51.1195 143.626 50.0345 143.626 48.7015C143.626 47.3685 143.234 46.2835 142.45 45.4775C141.667 44.6715 140.742 44.253 139.661 44.253C138.563 44.253 137.623 44.656 136.855 45.462C136.087 46.268 135.695 47.353 135.695 48.7015C135.695 50.05 136.087 51.135 136.855 51.9409C137.623 52.7469 138.563 53.1499 139.661 53.1499Z" fill="#5F6368"/>
</svg>
