<svg width="157" height="66" viewBox="0 0 157 66" fill="none" xmlns="http://www.w3.org/2000/svg">
<path d="M50.9643 52.1128C49.9498 52.1128 49.0199 51.8049 48.1745 51.1889C47.3291 50.573 46.7495 49.7095 46.4355 48.5984L47.9028 48.0006C48.1081 48.7736 48.4885 49.4076 49.0441 49.9027C49.5996 50.3979 50.2518 50.6455 51.0005 50.6455C51.7493 50.6455 52.3833 50.4462 52.9026 50.0477C53.422 49.6371 53.6816 49.0815 53.6816 48.3811C53.6816 47.7772 53.4582 47.2821 53.0113 46.8956C52.5766 46.4971 51.858 46.1287 50.8556 45.7906L50.0404 45.5007C49.1226 45.1746 48.3738 44.7459 47.7941 44.2145C47.2144 43.6831 46.9246 42.9464 46.9246 42.0044C46.9246 41.3885 47.0936 40.8209 47.4318 40.3016C47.77 39.7702 48.241 39.3475 48.8448 39.0335C49.4486 38.7195 50.125 38.5625 50.8737 38.5625C51.6225 38.5625 52.2746 38.7014 52.8302 38.9792C53.3857 39.2569 53.8265 39.5951 54.1526 39.9936C54.4908 40.3922 54.7263 40.7847 54.8591 41.1711L53.4099 41.7871C53.2891 41.3402 53.0113 40.9356 52.5766 40.5733C52.1539 40.211 51.5923 40.0299 50.8918 40.0299C50.2276 40.0299 49.66 40.2171 49.189 40.5914C48.718 40.9658 48.4825 41.4368 48.4825 42.0044C48.4825 42.5117 48.6818 42.9283 49.0803 43.2544C49.4788 43.5684 50.0827 43.8643 50.8918 44.1421L51.7433 44.4319C52.8423 44.8304 53.6997 45.3316 54.3156 45.9355C54.9316 46.5272 55.2395 47.3364 55.2395 48.3629C55.2395 49.1962 55.0221 49.8967 54.5874 50.4643C54.1647 51.0319 53.6273 51.4486 52.9751 51.7143C52.323 51.98 51.6527 52.1128 50.9643 52.1128ZM57.0066 38.8524H58.5464V42.6747L58.474 43.9428H58.5464C58.8 43.4718 59.1986 43.0793 59.742 42.7653C60.2976 42.4513 60.9014 42.2943 61.5536 42.2943C62.6767 42.2943 63.5342 42.6264 64.126 43.2906C64.7177 43.9428 65.0136 44.8123 65.0136 45.8992V51.823H63.4738V46.1347C63.4738 45.3014 63.2625 44.6855 62.8398 44.287C62.4171 43.8884 61.8676 43.6892 61.1913 43.6892C60.7082 43.6892 60.2614 43.8341 59.8507 44.1239C59.4522 44.4138 59.1322 44.7882 58.8906 45.2471C58.6612 45.706 58.5464 46.1831 58.5464 46.6782V51.823H57.0066V38.8524ZM71.3079 52.1128C70.4021 52.1128 69.5869 51.8954 68.8623 51.4607C68.1377 51.0259 67.5701 50.4341 67.1594 49.6854C66.7609 48.9366 66.5616 48.1093 66.5616 47.2036C66.5616 46.2978 66.7609 45.4705 67.1594 44.7217C67.5701 43.973 68.1377 43.3812 68.8623 42.9464C69.5869 42.5117 70.4021 42.2943 71.3079 42.2943C72.2136 42.2943 73.0288 42.5117 73.7534 42.9464C74.4781 43.3812 75.0396 43.973 75.4382 44.7217C75.8488 45.4705 76.0541 46.2978 76.0541 47.2036C76.0541 48.1093 75.8488 48.9366 75.4382 49.6854C75.0396 50.4341 74.4781 51.0259 73.7534 51.4607C73.0288 51.8954 72.2136 52.1128 71.3079 52.1128ZM71.3079 50.7179C71.8755 50.7179 72.4008 50.5791 72.8839 50.3013C73.3791 50.0114 73.7716 49.6008 74.0614 49.0694C74.3633 48.5381 74.5143 47.9161 74.5143 47.2036C74.5143 46.491 74.3633 45.8691 74.0614 45.3377C73.7716 44.8063 73.3791 44.4017 72.8839 44.1239C72.4008 43.8341 71.8755 43.6892 71.3079 43.6892C70.7403 43.6892 70.2089 43.8341 69.7137 44.1239C69.2186 44.4017 68.8201 44.8063 68.5182 45.3377C68.2283 45.8691 68.0833 46.491 68.0833 47.2036C68.0833 47.9161 68.2283 48.5381 68.5182 49.0694C68.8201 49.6008 69.2186 50.0114 69.7137 50.3013C70.2089 50.5791 70.7403 50.7179 71.3079 50.7179ZM77.5001 42.5841H78.9674V43.9609H79.0399C79.3177 43.4899 79.7343 43.0974 80.2898 42.7834C80.8575 42.4573 81.4915 42.2943 82.192 42.2943C83.0132 42.2943 83.762 42.5056 84.4383 42.9283C85.1146 43.351 85.646 43.9367 86.0324 44.6855C86.4189 45.4343 86.6121 46.2736 86.6121 47.2036C86.6121 48.1456 86.4189 48.9909 86.0324 49.7397C85.646 50.4764 85.1146 51.0561 84.4383 51.4788C83.762 51.9015 83.0132 52.1128 82.192 52.1128C81.4915 52.1128 80.8575 51.9558 80.2898 51.6418C79.7343 51.3157 79.3177 50.9232 79.0399 50.4643H78.9674L79.0399 51.7324V55.7359H77.5001V42.5841ZM82.0108 50.7179C82.5422 50.7179 83.0434 50.573 83.5145 50.2832C83.9855 49.9933 84.3599 49.5827 84.6376 49.0513C84.9275 48.5079 85.0723 47.8919 85.0723 47.2036C85.0723 46.5152 84.9275 45.9053 84.6376 45.3739C84.3599 44.8304 83.9855 44.4138 83.5145 44.1239C83.0434 43.8341 82.5422 43.6892 82.0108 43.6892C81.4795 43.6892 80.9782 43.8341 80.5072 44.1239C80.0362 44.4138 79.6618 44.8244 79.3841 45.3558C79.1063 45.8872 78.9674 46.5031 78.9674 47.2036C78.9674 47.904 79.1063 48.5199 79.3841 49.0513C79.6618 49.5827 80.0362 49.9933 80.5072 50.2832C80.9782 50.573 81.4795 50.7179 82.0108 50.7179ZM87.9688 42.5841H89.4361V43.9609H89.5086C89.7864 43.4899 90.203 43.0974 90.7586 42.7834C91.3262 42.4573 91.9602 42.2943 92.6607 42.2943C93.4819 42.2943 94.2307 42.5056 94.907 42.9283C95.5833 43.351 96.1147 43.9367 96.5011 44.6855C96.8876 45.4343 97.0808 46.2736 97.0808 47.2036C97.0808 48.1456 96.8876 48.9909 96.5011 49.7397C96.1147 50.4764 95.5833 51.0561 94.907 51.4788C94.2307 51.9015 93.4819 52.1128 92.6607 52.1128C91.9602 52.1128 91.3262 51.9558 90.7586 51.6418C90.203 51.3157 89.7864 50.9232 89.5086 50.4643H89.4361L89.5086 51.7324V55.7359H87.9688V42.5841ZM92.4795 50.7179C93.0109 50.7179 93.5121 50.573 93.9831 50.2832C94.4541 49.9933 94.8285 49.5827 95.1063 49.0513C95.3961 48.5079 95.541 47.8919 95.541 47.2036C95.541 46.5152 95.3961 45.9053 95.1063 45.3739C94.8285 44.8304 94.4541 44.4138 93.9831 44.1239C93.5121 43.8341 93.0109 43.6892 92.4795 43.6892C91.9481 43.6892 91.4469 43.8341 90.9759 44.1239C90.5049 44.4138 90.1306 44.8244 89.8528 45.3558C89.575 45.8872 89.4361 46.5031 89.4361 47.2036C89.4361 47.904 89.575 48.5199 89.8528 49.0513C90.1306 49.5827 90.5049 49.9933 90.9759 50.2832C91.4469 50.573 91.9481 50.7179 92.4795 50.7179ZM99.5042 40.8813C99.2024 40.8813 98.9426 40.7726 98.7253 40.5552C98.5079 40.3378 98.3991 40.0782 98.3991 39.7762C98.3991 39.4743 98.5079 39.2207 98.7253 39.0154C98.9426 38.798 99.2024 38.6893 99.5042 38.6893C99.8061 38.6893 100.066 38.798 100.283 39.0154C100.501 39.2207 100.609 39.4743 100.609 39.7762C100.609 40.0782 100.501 40.3378 100.283 40.5552C100.078 40.7726 99.8182 40.8813 99.5042 40.8813ZM98.7433 42.5841H100.265V51.823H98.7433V42.5841ZM102.504 42.5841H103.971V43.9428H104.044C104.297 43.4839 104.702 43.0974 105.257 42.7834C105.813 42.4573 106.405 42.2943 107.033 42.2943C108.144 42.2943 108.989 42.6204 109.569 43.2725C110.161 43.9126 110.457 44.7882 110.457 45.8992V51.823H108.917V46.1347C108.917 45.2773 108.711 44.6553 108.301 44.2689C107.89 43.8824 107.329 43.6892 106.616 43.6892C106.121 43.6892 105.674 43.8281 105.276 44.1058C104.889 44.3836 104.587 44.7519 104.37 45.2109C104.152 45.6577 104.044 46.1287 104.044 46.6239V51.823H102.504V42.5841ZM116.447 56.0257C115.36 56.0257 114.46 55.7721 113.748 55.2649C113.047 54.7577 112.576 54.1478 112.335 53.4352L113.729 52.8374C113.935 53.3688 114.273 53.7976 114.744 54.1236C115.227 54.4618 115.795 54.6309 116.447 54.6309C117.401 54.6309 118.137 54.3531 118.657 53.7976C119.188 53.242 119.454 52.457 119.454 51.4426V50.41H119.381C119.079 50.881 118.651 51.2674 118.095 51.5694C117.552 51.8592 116.93 52.0041 116.229 52.0041C115.432 52.0041 114.702 51.7988 114.037 51.3882C113.385 50.9776 112.866 50.4039 112.479 49.6672C112.093 48.9306 111.9 48.0912 111.9 47.1492C111.9 46.2193 112.093 45.386 112.479 44.6493C112.866 43.9005 113.385 43.3208 114.037 42.9102C114.702 42.4996 115.432 42.2943 116.229 42.2943C116.93 42.2943 117.552 42.4452 118.095 42.7472C118.651 43.037 119.079 43.4235 119.381 43.9066H119.454V42.5841H120.921V51.4607C120.921 52.9461 120.511 54.0753 119.689 54.8482C118.868 55.6332 117.787 56.0257 116.447 56.0257ZM116.447 50.6092C117.002 50.6092 117.503 50.4704 117.95 50.1926C118.409 49.9148 118.772 49.5163 119.037 48.997C119.315 48.4777 119.454 47.8617 119.454 47.1492C119.454 46.4246 119.315 45.8026 119.037 45.2833C118.772 44.764 118.409 44.3715 117.95 44.1058C117.503 43.8281 117.002 43.6892 116.447 43.6892C115.891 43.6892 115.384 43.8281 114.925 44.1058C114.466 44.3836 114.098 44.7821 113.82 45.3014C113.554 45.8207 113.421 46.4367 113.421 47.1492C113.421 47.8617 113.554 48.4837 113.82 49.0151C114.098 49.5344 114.466 49.9329 114.925 50.2107C115.384 50.4764 115.891 50.6092 116.447 50.6092ZM130.537 38.8524H132.276L137.204 51.823H135.519L134.215 48.2542H128.617L127.313 51.823H125.628L130.537 38.8524ZM133.689 46.805L131.968 42.1312L131.443 40.7364H131.371L130.863 42.1312L129.142 46.805H133.689ZM142.082 52.1128C141.261 52.1128 140.512 51.9015 139.836 51.4788C139.172 51.0561 138.646 50.4764 138.26 49.7397C137.873 48.9909 137.68 48.1456 137.68 47.2036C137.68 46.2736 137.873 45.4343 138.26 44.6855C138.646 43.9367 139.172 43.351 139.836 42.9283C140.512 42.5056 141.261 42.2943 142.082 42.2943C142.795 42.2943 143.429 42.4573 143.984 42.7834C144.54 43.0974 144.963 43.4899 145.252 43.9609H145.325L145.252 42.6747V38.8524H146.792V51.823H145.325V50.4643H145.252C144.963 50.9232 144.54 51.3157 143.984 51.6418C143.429 51.9558 142.795 52.1128 142.082 52.1128ZM142.263 50.7179C142.807 50.7179 143.308 50.573 143.767 50.2832C144.238 49.9933 144.612 49.5827 144.89 49.0513C145.18 48.5199 145.325 47.904 145.325 47.2036C145.325 46.5031 145.18 45.8872 144.89 45.3558C144.612 44.8244 144.238 44.4138 143.767 44.1239C143.308 43.8341 142.807 43.6892 142.263 43.6892C141.732 43.6892 141.231 43.8341 140.76 44.1239C140.289 44.4138 139.908 44.8304 139.619 45.3739C139.341 45.9053 139.202 46.5152 139.202 47.2036C139.202 47.8919 139.341 48.5079 139.619 49.0513C139.908 49.5827 140.289 49.9933 140.76 50.2832C141.231 50.573 141.732 50.7179 142.263 50.7179ZM152.022 52.1128C151.031 52.1128 150.204 51.8834 149.54 51.4244C148.876 50.9534 148.405 50.3556 148.127 49.631L149.504 49.0151C149.733 49.5706 150.071 49.9994 150.518 50.3013C150.977 50.6032 151.478 50.7542 152.022 50.7542C152.601 50.7542 153.097 50.6394 153.507 50.41C153.918 50.1684 154.123 49.8303 154.123 49.3955C154.123 49.0091 153.96 48.7011 153.634 48.4716C153.308 48.2301 152.795 48.0248 152.094 47.8557L150.971 47.5659C150.234 47.3847 149.631 47.0767 149.16 46.642C148.689 46.2072 148.453 45.6456 148.453 44.9572C148.453 44.4259 148.61 43.9609 148.924 43.5624C149.25 43.1517 149.679 42.8377 150.21 42.6204C150.742 42.403 151.315 42.2943 151.931 42.2943C152.74 42.2943 153.459 42.4694 154.087 42.8196C154.727 43.1699 155.18 43.659 155.446 44.287L154.105 44.9029C153.694 44.0817 152.964 43.6711 151.913 43.6711C151.406 43.6711 150.959 43.7918 150.573 44.0334C150.198 44.2628 150.011 44.5587 150.011 44.921C150.011 45.2592 150.144 45.5369 150.409 45.7543C150.675 45.9596 151.074 46.1287 151.605 46.2616L152.946 46.6057C153.851 46.8352 154.534 47.1794 154.993 47.6383C155.452 48.0852 155.681 48.6347 155.681 49.2868C155.681 49.8544 155.518 50.3556 155.192 50.7904C154.866 51.2131 154.425 51.5392 153.87 51.7686C153.314 51.9981 152.698 52.1128 152.022 52.1128Z" fill="#5F6368"/>
<path d="M56.5544 30.7157C53.7606 30.7162 51.0782 29.6229 49.0842 27.6708C47.0902 25.7188 45.944 23.0641 45.8921 20.2777C45.9182 17.4742 47.0531 14.7943 49.0498 12.821C51.0466 10.8478 53.7437 9.7408 56.5544 9.74092C57.8881 9.72054 59.2124 9.96568 60.4499 10.462C61.6875 10.9583 62.8133 11.6959 63.7617 12.6314L61.7431 14.6573C60.3508 13.3204 58.4869 12.5838 56.5544 12.6067C54.5796 12.686 52.7121 13.5243 51.3429 14.9462C49.9737 16.368 49.2091 18.263 49.2091 20.2345C49.2091 22.206 49.9737 24.101 51.3429 25.5229C52.7121 26.9447 54.5796 27.783 56.5544 27.8623C57.5396 27.9012 58.5222 27.7345 59.4391 27.3729C60.356 27.0113 61.1872 26.4628 61.8794 25.7623C62.7899 24.7671 63.3432 23.4983 63.4521 22.1553H56.5296V19.2154H66.226C66.3359 19.8311 66.3897 20.4553 66.387 21.0807C66.4691 23.5493 65.5803 25.9521 63.9103 27.7758C62.9647 28.76 61.8193 29.5314 60.5507 30.0384C59.2822 30.5454 57.9197 30.7764 56.5544 30.7157Z" fill="#5F6368"/>
<path d="M81.6939 23.9827C81.6988 25.325 81.3042 26.6386 80.5601 27.7571C79.8161 28.8755 78.756 29.7486 77.5142 30.2657C76.2723 30.7827 74.9046 30.9206 73.5842 30.6617C72.2637 30.4028 71.05 29.7589 70.0967 28.8115C69.1434 27.864 68.4935 26.6557 68.2291 25.3395C67.9648 24.0234 68.098 22.6585 68.6118 21.4179C69.1257 20.1773 69.997 19.1167 71.1156 18.3704C72.2341 17.6242 73.5496 17.2258 74.8952 17.2258C75.7901 17.2108 76.6788 17.3752 77.5088 17.7092C78.3388 18.0431 79.0932 18.5399 79.7272 19.17C80.3612 19.8001 80.8619 20.5507 81.1997 21.3774C81.5376 22.2041 81.7056 23.09 81.6939 23.9827ZM78.7218 23.9827C78.7643 23.4556 78.697 22.9255 78.524 22.4257C78.351 21.9258 78.0761 21.4672 77.7166 21.0786C77.3571 20.6899 76.9209 20.3798 76.4353 20.1677C75.9497 19.9556 75.4253 19.846 74.8952 19.846C74.3651 19.846 73.8408 19.9556 73.3552 20.1677C72.8696 20.3798 72.4334 20.6899 72.0739 21.0786C71.7144 21.4672 71.4395 21.9258 71.2665 22.4257C71.0935 22.9255 71.0262 23.4556 71.0687 23.9827C71.0262 24.5098 71.0935 25.0399 71.2665 25.5397C71.4395 26.0396 71.7144 26.4982 72.0739 26.8868C72.4334 27.2754 72.8696 27.5856 73.3552 27.7977C73.8408 28.0098 74.3651 28.1193 74.8952 28.1193C75.4253 28.1193 75.9497 28.0098 76.4353 27.7977C76.9209 27.5856 77.3571 27.2754 77.7166 26.8868C78.0761 26.4982 78.351 26.0396 78.524 25.5397C78.697 25.0399 78.7643 24.5098 78.7218 23.9827Z" fill="#5F6368"/>
<path d="M97.1114 23.984C97.1138 25.3279 96.7159 26.6422 95.9681 27.7601C95.2204 28.878 94.1565 29.7491 92.9115 30.2628C91.6666 30.7765 90.2967 30.9097 88.9757 30.6454C87.6547 30.3811 86.4423 29.7312 85.4923 28.7783C84.5422 27.8255 83.8974 26.6125 83.6397 25.2934C83.382 23.9743 83.523 22.6086 84.0448 21.3696C84.5666 20.1306 85.4457 19.0742 86.5705 18.3344C87.6953 17.5947 89.0151 17.205 90.3623 17.2148C91.2545 17.2047 92.1397 17.3733 92.9656 17.7104C93.7914 18.0475 94.5411 18.5463 95.1703 19.1774C95.7995 19.8085 96.2955 20.559 96.6289 21.3846C96.9623 22.2102 97.1263 23.0941 97.1114 23.984ZM94.1393 23.984C94.1689 23.4653 94.0921 22.9461 93.9135 22.4581C93.7349 21.97 93.4583 21.5235 93.1006 21.1458C92.743 20.7682 92.3118 20.4673 91.8335 20.2617C91.3552 20.0561 90.8398 19.95 90.319 19.95C89.7981 19.95 89.2828 20.0561 88.8045 20.2617C88.3262 20.4673 87.895 20.7682 87.5373 21.1458C87.1797 21.5235 86.9031 21.97 86.7245 22.4581C86.5458 22.9461 86.469 23.4653 86.4986 23.984C86.469 24.5027 86.5458 25.022 86.7245 25.51C86.9031 25.998 87.1797 26.4446 87.5373 26.8222C87.895 27.1999 88.3262 27.5008 88.8045 27.7064C89.2828 27.912 89.7981 28.0181 90.319 28.0181C90.8398 28.0181 91.3552 27.912 91.8335 27.7064C92.3118 27.5008 92.743 27.1999 93.1006 26.8222C93.4583 26.4446 93.7349 25.998 93.9135 25.51C94.0921 25.022 94.1689 24.5027 94.1393 23.984Z" fill="#5F6368"/>
<path d="M111.811 17.6213V29.7516C111.811 34.6927 108.864 36.7803 105.384 36.7803C104.099 36.7862 102.841 36.4098 101.771 35.6991C100.701 34.9884 99.8678 33.9757 99.3778 32.7903L101.966 31.7157C102.227 32.4132 102.693 33.0161 103.303 33.4458C103.912 33.8754 104.638 34.1119 105.384 34.1244C107.613 34.1244 109 32.7409 109 30.1592V29.1834H108.938C108.491 29.6823 107.94 30.0778 107.324 30.3424C106.708 30.6069 106.042 30.7342 105.372 30.7151C103.627 30.6406 101.978 29.8968 100.77 28.639C99.5617 27.3811 98.8872 25.7064 98.8872 23.9644C98.8872 22.2223 99.5617 20.5476 100.77 19.2897C101.978 18.0319 103.627 17.2881 105.372 17.2136C106.039 17.1956 106.704 17.3208 107.319 17.5808C107.934 17.8408 108.486 18.2295 108.938 18.7207H109.049V17.6213H111.811ZM109.198 23.9829C109.242 23.4732 109.182 22.9599 109.023 22.4736C108.863 21.9874 108.607 21.5383 108.269 21.1531C107.932 20.768 107.52 20.4547 107.058 20.232C106.596 20.0093 106.094 19.8818 105.582 19.8571C105.066 19.884 104.561 20.0121 104.095 20.2341C103.629 20.4561 103.211 20.7677 102.866 21.1509C102.521 21.5342 102.255 21.9817 102.084 22.4676C101.912 22.9536 101.839 23.4685 101.867 23.9829C101.842 24.4934 101.918 25.0038 102.092 25.4847C102.265 25.9656 102.532 26.4076 102.878 26.7853C103.223 27.163 103.639 27.4688 104.104 27.6854C104.568 27.9019 105.07 28.0247 105.582 28.0469C106.09 28.0269 106.589 27.9046 107.049 27.6875C107.509 27.4703 107.92 27.1627 108.258 26.7832C108.596 26.4037 108.853 25.96 109.014 25.4788C109.176 24.9976 109.238 24.4888 109.198 23.9829Z" fill="#5F6368"/>
<path d="M117.668 10.4585V30.3092H114.696V10.4585H117.668Z" fill="#5F6368"/>
<path d="M129.791 26.1941L132.095 27.6888C131.475 28.6146 130.635 29.3724 129.649 29.8942C128.664 30.4159 127.564 30.6853 126.448 30.6781C125.563 30.6897 124.685 30.5245 123.865 30.1922C123.046 29.8598 122.301 29.3671 121.676 28.7431C121.05 28.119 120.556 27.3763 120.223 26.5588C119.89 25.7412 119.724 24.8654 119.736 23.983C119.691 23.117 119.822 22.2508 120.121 21.4367C120.421 20.6226 120.882 19.8774 121.478 19.2461C122.074 18.6147 122.792 18.1102 123.589 17.7631C124.385 17.4159 125.244 17.2332 126.113 17.2261C127.404 17.2595 128.653 17.6889 129.69 18.456C130.727 19.223 131.502 20.2903 131.909 21.5124L132.218 22.2783L123.166 25.9841C123.444 26.6148 123.905 27.1476 124.49 27.5133C125.076 27.8789 125.758 28.0606 126.448 28.0347C127.117 28.0407 127.776 27.8745 128.362 27.552C128.947 27.2296 129.44 26.7619 129.791 26.1941ZM122.683 23.7236L128.739 21.253C128.508 20.8017 128.152 20.4264 127.712 20.1722C127.273 19.918 126.769 19.7958 126.262 19.8201C125.765 19.8373 125.277 19.9537 124.826 20.1625C124.375 20.3713 123.971 20.6682 123.637 21.0356C123.304 21.4031 123.047 21.8336 122.883 22.3016C122.719 22.7697 122.651 23.2658 122.683 23.7606V23.7236Z" fill="#5F6368"/>
<path fill-rule="evenodd" clip-rule="evenodd" d="M33.6628 22.5459C35.3153 22.5459 36.6551 21.2062 36.6551 19.5536C36.6551 17.9011 35.3153 16.5614 33.6628 16.5614C32.0103 16.5614 30.6706 17.9011 30.6706 19.5536C30.6706 21.2062 32.0103 22.5459 33.6628 22.5459ZM12.4648 21.6325L21.6443 12.453C22.3446 11.7528 23.317 11.325 24.3868 11.325H38.0016C38.5129 11.3232 39.0196 11.4226 39.4923 11.6174C39.9651 11.8123 40.3946 12.0987 40.7562 12.4603C41.1178 12.8219 41.4042 13.2514 41.5991 13.7241C41.794 14.1969 41.8934 14.7035 41.8916 15.2149V28.8297C41.8916 29.8994 41.4637 30.8719 40.744 31.5721L31.5785 40.7464L12.4648 21.6325Z" fill="#4285F4"/>
<path fill-rule="evenodd" clip-rule="evenodd" d="M31.5787 40.7465L20.2666 52.0692C19.5469 52.7694 18.5745 53.2168 17.5048 53.2168C16.4351 53.2168 15.4625 52.7694 14.7624 52.0692L1.14748 38.4545C0.427827 37.7542 0 36.7818 0 35.7121C0 34.6229 0.447315 33.6504 1.14748 32.9502L12.465 21.6326L31.5787 40.7465Z" fill="#34A853"/>
<path fill-rule="evenodd" clip-rule="evenodd" d="M7.75444 45.0613L1.14748 38.4543C0.427827 37.7543 0 36.7817 0 35.712C0 34.6229 0.447315 33.6504 1.14748 32.9502L12.465 21.6326L21.824 30.9918L7.75444 45.0613Z" fill="#FBBC05"/>
<path fill-rule="evenodd" clip-rule="evenodd" d="M40.5483 12.2672C39.8407 11.6563 38.9363 11.3217 38.0016 11.325H24.3868C23.317 11.325 22.3446 11.7528 21.6443 12.453L12.4648 21.6325L21.8238 30.9917L31.356 21.4595C30.912 20.9237 30.6695 20.2495 30.6706 19.5536C30.6706 17.9011 32.0103 16.5614 33.6628 16.5614C34.3586 16.5603 35.0329 16.8028 35.5687 17.2467L40.5483 12.2672Z" fill="#EA4335"/>
<path d="M21.8187 38.1306C25.1755 38.1306 27.8967 35.4094 27.8967 32.0526C27.8967 28.6958 25.1755 25.9746 21.8187 25.9746C18.4619 25.9746 15.7407 28.6958 15.7407 32.0526C15.7407 35.4094 18.4619 38.1306 21.8187 38.1306Z" fill="#4285F4"/>
<path fill-rule="evenodd" clip-rule="evenodd" d="M30.0994 30.2644H22.0156V33.7327H26.6687C26.2349 35.9361 24.4211 37.201 22.0156 37.201C19.1764 37.201 16.8893 34.8344 16.8893 31.8965C16.8893 28.9586 19.1764 26.592 22.0156 26.592C23.2381 26.592 24.3422 27.0409 25.2097 27.7754L27.7334 25.1639C26.1955 23.7766 24.2239 22.9197 22.0156 22.9197C17.2048 22.9197 13.3403 26.9185 13.3403 31.8965C13.3403 36.8745 17.2048 40.8733 22.0156 40.8733C26.3532 40.8733 30.2965 37.609 30.2965 31.8965C30.2965 31.3661 30.2177 30.7948 30.0994 30.2644Z" fill="white"/>
</svg>
