<svg width="158" height="67" viewBox="0 0 158 67" fill="none" xmlns="http://www.w3.org/2000/svg">
<path d="M120.555 16.4084H123.129V32.4464H120.555V16.4084Z" fill="#5F6368"/>
<path d="M126.709 31.7299C125.869 31.2666 125.177 30.5933 124.706 29.7822C124.221 28.9505 123.972 28.0118 123.982 27.0593C123.964 26.0845 124.21 25.1217 124.696 24.2651C125.145 23.4758 125.809 22.818 126.617 22.3618C127.426 21.9056 128.349 21.6682 129.288 21.6749C130.44 21.6253 131.566 22.0141 132.42 22.7562C133.163 23.403 133.739 24.2058 134.103 25.1015L134.359 25.7132L126.838 28.691C127.071 29.192 127.455 29.615 127.94 29.9057C128.426 30.1964 128.992 30.3416 129.564 30.3226C130.121 30.3241 130.669 30.1877 131.154 29.9269C131.639 29.666 132.046 29.2894 132.335 28.8337L134.252 30.0578C133.772 30.7201 133.156 31.282 132.441 31.7093C131.579 32.2205 130.578 32.476 129.564 32.4438C128.563 32.4561 127.577 32.2095 126.709 31.7299ZM131.461 24.8974C131.306 24.5433 131.027 24.2515 130.672 24.0716C130.276 23.8577 129.828 23.7486 129.373 23.7555C128.893 23.7656 128.424 23.8918 128.009 24.1223C127.53 24.3765 127.133 24.7502 126.858 25.2037C126.55 25.7174 126.402 26.305 126.433 26.8967L131.461 24.8974Z" fill="#5F6368"/>
<path d="M113.746 37.2615C112.477 37.2615 111.424 36.97 110.588 36.3869C109.764 35.8038 109.211 35.1122 108.927 34.3122L111.013 33.4375C111.229 33.9799 111.573 34.4139 112.045 34.7393C112.531 35.0783 113.098 35.2478 113.746 35.2478C114.691 35.2478 115.426 34.963 115.953 34.3935C116.493 33.8375 116.762 33.0511 116.762 32.034V31.078H116.641C116.304 31.5662 115.851 31.9527 115.285 32.2374C114.731 32.5086 114.09 32.6442 113.361 32.6442C112.497 32.6442 111.694 32.4205 110.952 31.973C110.21 31.5255 109.616 30.895 109.17 30.0814C108.738 29.2542 108.522 28.3117 108.522 27.254C108.522 26.1963 108.738 25.2607 109.17 24.4471C109.616 23.6199 110.21 22.9826 110.952 22.5351C111.694 22.074 112.497 21.8435 113.361 21.8435C114.077 21.8435 114.718 21.9859 115.285 22.2707C115.851 22.5554 116.304 22.9419 116.641 23.4301H116.762V22.169H118.888V31.973C118.888 33.0985 118.672 34.0545 118.24 34.841C117.809 35.6411 117.201 36.2445 116.418 36.6513C115.649 37.0581 114.758 37.2615 113.746 37.2615ZM113.766 30.6102C114.306 30.6102 114.805 30.4814 115.264 30.2237C115.723 29.9525 116.088 29.5661 116.358 29.0643C116.628 28.549 116.762 27.9456 116.762 27.254C116.762 26.1963 116.472 25.376 115.892 24.7929C115.325 24.1962 114.616 23.8979 113.766 23.8979C113.213 23.8979 112.707 24.0335 112.248 24.3047C111.789 24.5623 111.424 24.942 111.154 25.4438C110.884 25.9455 110.749 26.5489 110.749 27.254C110.749 27.9592 110.884 28.5626 111.154 29.0643C111.424 29.5661 111.789 29.9525 112.248 30.2237C112.707 30.4814 113.213 30.6102 113.766 30.6102Z" fill="#5F6368"/>
<path d="M102.001 32.4465C100.952 32.4465 100.012 32.2183 99.1809 31.7618C98.3498 31.2923 97.7026 30.6532 97.2393 29.8446C96.7761 29.0361 96.5444 28.1362 96.5444 27.145C96.5444 26.1538 96.7761 25.2539 97.2393 24.4453C97.7026 23.6368 98.3498 23.0042 99.1809 22.5478C100.012 22.0783 100.952 21.8435 102.001 21.8435C103.051 21.8435 103.991 22.0783 104.822 22.5478C105.653 23.0173 106.3 23.6563 106.763 24.4649C107.227 25.2735 107.458 26.1669 107.458 27.145C107.458 28.1362 107.227 29.0361 106.763 29.8446C106.3 30.6532 105.653 31.2923 104.822 31.7618C103.991 32.2183 103.051 32.4465 102.001 32.4465ZM102.001 30.4707C102.574 30.4707 103.105 30.3402 103.596 30.0794C104.086 29.8055 104.474 29.4208 104.76 28.9252C105.06 28.4166 105.21 27.8232 105.21 27.145C105.21 26.4668 105.06 25.8799 104.76 25.3844C104.474 24.8888 104.086 24.5106 103.596 24.2497C103.105 23.9758 102.574 23.8389 102.001 23.8389C101.429 23.8389 100.898 23.9758 100.407 24.2497C99.9167 24.5106 99.5216 24.8888 99.2218 25.3844C98.9357 25.8799 98.7926 26.4668 98.7926 27.145C98.7926 27.8232 98.9357 28.4166 99.2218 28.9252C99.5216 29.4208 99.9167 29.8055 100.407 30.0794C100.898 30.3402 101.429 30.4707 102.001 30.4707Z" fill="#5F6368"/>
<path d="M90.0663 32.4465C89.0172 32.4465 88.077 32.2183 87.2459 31.7618C86.4147 31.2923 85.7675 30.6532 85.3043 29.8446C84.841 29.0361 84.6094 28.1362 84.6094 27.145C84.6094 26.1538 84.841 25.2539 85.3043 24.4453C85.7675 23.6368 86.4147 23.0042 87.2459 22.5478C88.077 22.0783 89.0172 21.8435 90.0663 21.8435C91.1154 21.8435 92.0556 22.0783 92.8867 22.5478C93.7179 23.0173 94.3651 23.6563 94.8283 24.4649C95.2916 25.2735 95.5232 26.1669 95.5232 27.145C95.5232 28.1362 95.2916 29.0361 94.8283 29.8446C94.3651 30.6532 93.7179 31.2923 92.8867 31.7618C92.0556 32.2183 91.1154 32.4465 90.0663 32.4465ZM90.0663 30.4707C90.6386 30.4707 91.17 30.3402 91.6605 30.0794C92.151 29.8055 92.5393 29.4208 92.8254 28.9252C93.1252 28.4166 93.2751 27.8232 93.2751 27.145C93.2751 26.4668 93.1252 25.8799 92.8254 25.3844C92.5393 24.8888 92.151 24.5106 91.6605 24.2497C91.17 23.9758 90.6386 23.8389 90.0663 23.8389C89.494 23.8389 88.9627 23.9758 88.4721 24.2497C87.9816 24.5106 87.5865 24.8888 87.2867 25.3844C87.0006 25.8799 86.8575 26.4668 86.8575 27.145C86.8575 27.8232 87.0006 28.4166 87.2867 28.9252C87.5865 29.4208 87.9816 29.8055 88.4721 30.0794C88.9627 30.3402 89.494 30.4707 90.0663 30.4707Z" fill="#5F6368"/>
<path d="M75.8644 32.4466C74.2808 32.4466 72.8214 32.0826 71.4862 31.3544C70.151 30.6262 69.0875 29.6306 68.2957 28.3674C67.5195 27.0894 67.1313 25.6703 67.1313 24.1099C67.1313 22.5496 67.5195 21.1378 68.2957 19.8747C69.0875 18.5967 70.151 17.5936 71.4862 16.8654C72.8214 16.1373 74.2808 15.7732 75.8644 15.7732C77.1219 15.7732 78.2941 15.9886 79.3808 16.4196C80.4676 16.8506 81.3758 17.4524 82.1055 18.2252L80.2891 19.9638C79.7457 19.3843 79.0936 18.9385 78.3329 18.6264C77.5877 18.3143 76.7571 18.1583 75.8411 18.1583C74.7698 18.1583 73.7684 18.4035 72.8369 18.8939C71.9054 19.3843 71.1602 20.0827 70.6013 20.9892C70.0423 21.8957 69.7629 22.9359 69.7629 24.1099C69.7629 25.2839 70.0423 26.3241 70.6013 27.2306C71.1602 28.1371 71.9054 28.8355 72.8369 29.3259C73.7684 29.8163 74.7776 30.0615 75.8644 30.0615C76.858 30.0615 77.6886 29.9204 78.3562 29.638C79.0238 29.3557 79.6215 28.9767 80.1493 28.5012C80.4909 28.1742 80.7781 27.7656 81.011 27.2752C81.2594 26.7848 81.4224 26.2498 81.5 25.6703H75.8411V23.4412H83.9686C84.0462 23.8573 84.085 24.2882 84.085 24.734C84.085 25.7446 83.922 26.7179 83.596 27.6541C83.2699 28.5755 82.7498 29.3779 82.0357 30.0615C80.4676 31.6516 78.4105 32.4466 75.8644 32.4466Z" fill="#5F6368"/>
<path d="M72.2343 37.4431H74.1918L79.7381 51.8655H77.8417L76.3736 47.8974H70.0729L68.6048 51.8655H66.7085L72.2343 37.4431ZM75.7823 46.2859L73.8452 41.089L73.2539 39.538H73.1723L72.6014 41.089L70.6643 46.2859H75.7823Z" fill="#5F6368"/>
<path d="M80.9194 41.5923H82.571V43.103H82.6526C82.9381 42.5927 83.3935 42.163 84.0188 41.8138C84.6441 41.4513 85.3102 41.27 86.017 41.27C87.2677 41.27 88.2192 41.6326 88.8717 42.3577C89.5378 43.0694 89.8709 44.043 89.8709 45.2785V51.8652H88.1377V45.5403C88.1377 44.5869 87.9066 43.8953 87.4444 43.4656C86.9822 43.0359 86.3501 42.821 85.5481 42.821C84.9907 42.821 84.4878 42.9754 84.0392 43.2843C83.6042 43.5932 83.2643 44.0027 83.0196 44.513C82.7749 45.0099 82.6526 45.5336 82.6526 46.0842V51.8652H80.9194V41.5923Z" fill="#5F6368"/>
<path d="M95.166 52.1875C94.4047 52.1875 93.725 52.0398 93.1269 51.7444C92.5288 51.4489 92.0666 51.0461 91.7403 50.5358C91.4141 50.0121 91.251 49.4212 91.251 48.7632C91.251 47.6755 91.6656 46.8295 92.4948 46.2252C93.324 45.6075 94.3707 45.2986 95.6349 45.2986C96.2603 45.2986 96.838 45.3657 97.3681 45.5C97.9119 45.6343 98.3265 45.7887 98.612 45.9633V45.3389C98.612 44.5734 98.3401 43.9624 97.7963 43.5059C97.2526 43.0359 96.5661 42.8009 95.7369 42.8009C95.1524 42.8009 94.6154 42.9284 94.126 43.1836C93.6367 43.4253 93.2492 43.7677 92.9638 44.2109L91.6588 43.244C92.0666 42.6263 92.6239 42.1429 93.3308 41.7937C94.0513 41.4446 94.8465 41.27 95.7165 41.27C97.1302 41.27 98.2381 41.6393 99.0402 42.3779C99.8558 43.103 100.263 44.0967 100.263 45.359V51.8652H98.612V50.3948H98.5304C98.2313 50.8917 97.7827 51.3147 97.1846 51.6638C96.5865 52.0129 95.9136 52.1875 95.166 52.1875ZM95.3291 50.6768C95.9136 50.6768 96.4574 50.5291 96.9603 50.2336C97.4633 49.9382 97.8643 49.5421 98.1634 49.0452C98.4624 48.5483 98.612 48.0045 98.612 47.4136C98.2857 47.1988 97.8847 47.0242 97.4089 46.8899C96.9331 46.7556 96.4302 46.6885 95.9 46.6885C94.9485 46.6885 94.228 46.8832 93.7386 47.2726C93.2628 47.662 93.0249 48.1656 93.0249 48.7833C93.0249 49.3474 93.2424 49.8039 93.6774 50.1531C94.1124 50.5022 94.663 50.6768 95.3291 50.6768Z" fill="#5F6368"/>
<path d="M102.567 37.4429H104.301V51.8653H102.567V37.4429Z" fill="#5F6368"/>
<path d="M109.64 51.2209L105.338 41.5925H107.214L110.476 49.2267H110.517L113.657 41.5925H115.533L109.11 56.2163H107.316L109.64 51.2209Z" fill="#5F6368"/>
<path d="M120.93 52.0266C120.508 52.0266 120.114 51.9594 119.747 51.8251C119.394 51.6909 119.094 51.5096 118.85 51.2813C118.578 51.0261 118.374 50.7307 118.238 50.395C118.102 50.0593 118.034 49.6497 118.034 49.1663V43.1435H116.219V41.5925H118.034V38.6919H119.767V41.5925H122.296V43.1435H119.767V48.7433C119.767 49.3073 119.876 49.7236 120.094 49.9921C120.352 50.2876 120.726 50.4353 121.215 50.4353C121.609 50.4353 121.99 50.3211 122.357 50.0928V51.7647C122.153 51.8587 121.942 51.9259 121.725 51.9661C121.521 52.0064 121.256 52.0266 120.93 52.0266Z" fill="#5F6368"/>
<path d="M125.112 39.699C124.772 39.699 124.479 39.5782 124.235 39.3365C123.99 39.0947 123.868 38.806 123.868 38.4703C123.868 38.1346 123.99 37.8526 124.235 37.6243C124.479 37.3826 124.772 37.2617 125.112 37.2617C125.451 37.2617 125.744 37.3826 125.988 37.6243C126.233 37.8526 126.355 38.1346 126.355 38.4703C126.355 38.806 126.233 39.0947 125.988 39.3365C125.757 39.5782 125.465 39.699 125.112 39.699ZM124.255 41.5925H125.968V51.8654H124.255V41.5925Z" fill="#5F6368"/>
<path d="M132.895 52.1875C131.889 52.1875 130.985 51.9525 130.183 51.4825C129.381 50.9991 128.755 50.3478 128.307 49.5286C127.858 48.6961 127.634 47.7628 127.634 46.7288C127.634 45.6947 127.858 44.7614 128.307 43.9289C128.755 43.0963 129.381 42.445 130.183 41.975C130.985 41.505 131.889 41.27 132.895 41.27C134.023 41.27 134.968 41.5318 135.729 42.0556C136.504 42.5659 137.054 43.2507 137.381 44.1102L135.811 44.7547C135.552 44.1236 135.165 43.6469 134.648 43.3246C134.145 42.9889 133.534 42.821 132.813 42.821C132.201 42.821 131.631 42.9889 131.1 43.3246C130.57 43.6469 130.142 44.1034 129.816 44.6943C129.503 45.2852 129.347 45.9633 129.347 46.7288C129.347 47.4942 129.503 48.1723 129.816 48.7632C130.142 49.3541 130.57 49.8174 131.1 50.1531C131.631 50.4754 132.201 50.6365 132.813 50.6365C133.547 50.6365 134.179 50.4686 134.709 50.1329C135.24 49.7972 135.634 49.3205 135.892 48.7028L137.442 49.3474C137.088 50.1934 136.517 50.8782 135.729 51.4019C134.954 51.9257 134.009 52.1875 132.895 52.1875Z" fill="#5F6368"/>
<path d="M142.537 52.1875C141.423 52.1875 140.492 51.9324 139.744 51.4221C138.996 50.8984 138.466 50.2336 138.153 49.4279L139.703 48.7431C139.961 49.3608 140.342 49.8375 140.845 50.1732C141.362 50.5089 141.926 50.6768 142.537 50.6768C143.19 50.6768 143.747 50.5492 144.209 50.2941C144.672 50.0255 144.903 49.6495 144.903 49.1661C144.903 48.7363 144.719 48.3939 144.352 48.1388C143.985 47.8702 143.407 47.6419 142.619 47.4539L141.355 47.1316C140.526 46.9302 139.846 46.5878 139.316 46.1043C138.786 45.6209 138.52 44.9965 138.52 44.231C138.52 43.6402 138.697 43.1231 139.051 42.68C139.418 42.2234 139.9 41.8743 140.498 41.6326C141.096 41.3908 141.742 41.27 142.435 41.27C143.346 41.27 144.155 41.4647 144.862 41.8541C145.582 42.2436 146.092 42.7874 146.391 43.4857L144.882 44.1706C144.42 43.2574 143.598 42.8009 142.415 42.8009C141.844 42.8009 141.341 42.9351 140.906 43.2037C140.485 43.4589 140.274 43.7879 140.274 44.1907C140.274 44.5667 140.424 44.8756 140.723 45.1173C141.022 45.3456 141.47 45.5336 142.068 45.6813L143.577 46.064C144.597 46.3192 145.365 46.7019 145.881 47.2122C146.398 47.709 146.656 48.3201 146.656 49.0452C146.656 49.6764 146.473 50.2336 146.106 50.7171C145.739 51.1871 145.243 51.5497 144.617 51.8048C143.992 52.0599 143.299 52.1875 142.537 52.1875Z" fill="#5F6368"/>
<path d="M56.4955 12.4763V52.5735C56.4955 55.0859 54.4326 57.1226 51.8893 57.1225H39.5054L39.5055 23.5563V12.4763C39.5055 9.96384 41.5683 7.92725 44.1116 7.92725H51.8893C54.4326 7.92714 56.4955 9.96384 56.4955 12.4763Z" fill="url(#paint0_linear_162_12839)"/>
<path d="M39.5059 23.556V57.1223H11.3113C8.76679 57.1223 6.70508 55.0856 6.70508 52.572L6.70522 45.0554C6.70522 42.5418 8.7668 40.5051 11.3113 40.5051H22.5171V28.1062C22.5171 25.5926 24.5787 23.5559 27.1232 23.5559L39.5059 23.556Z" fill="#FFC720"/>
<path d="M56.4953 12.4767V40.3394L39.5059 23.5562V12.4767C39.5059 9.96414 41.5681 7.927 44.1115 7.927H51.8897C54.433 7.92689 56.4953 9.96425 56.4953 12.4767Z" fill="url(#paint1_linear_162_12839)"/>
<defs>
<linearGradient id="paint0_linear_162_12839" x1="39.5054" y1="32.5249" x2="56.4955" y2="32.5249" gradientUnits="userSpaceOnUse">
<stop stop-color="#E9710B"/>
<stop offset="1" stop-color="#F37900"/>
</linearGradient>
<linearGradient id="paint1_linear_162_12839" x1="39.5059" y1="18.1556" x2="56.4953" y2="18.1556" gradientUnits="userSpaceOnUse">
<stop stop-color="#F37F09"/>
<stop offset="1" stop-color="#F57C00"/>
</linearGradient>
</defs>
</svg>
