<svg width="157" height="67" viewBox="0 0 157 67" fill="none" xmlns="http://www.w3.org/2000/svg">
<g clip-path="url(#clip0_101_423)">
<rect width="61.8883" height="64" transform="translate(47.5 1.48047)" fill="white"/>
<path d="M109.243 16.0825C109.266 16.1673 109.278 16.2548 109.278 16.3426V29.9964C109.278 30.1717 109.232 30.3438 109.144 30.4955C109.056 30.6471 108.93 30.7729 108.778 30.8601L97.3205 37.458V50.5357C97.3205 50.8916 97.1314 51.2201 96.8228 51.3993L72.9061 65.1701C72.8513 65.2012 72.7916 65.2212 72.7319 65.2423C72.7095 65.2498 72.6883 65.2635 72.6647 65.2697C72.4975 65.3137 72.3218 65.3137 72.1546 65.2697C72.1272 65.2622 72.1023 65.2473 72.0762 65.2373C72.0214 65.2174 71.9642 65.2 71.912 65.1701L48.0002 51.3993C47.8483 51.312 47.722 51.1862 47.6342 51.0346C47.5464 50.883 47.5001 50.7109 47.5 50.5357V9.57417C47.5 9.48457 47.5124 9.39746 47.5348 9.31284C47.5423 9.28422 47.5597 9.25809 47.5697 9.22947C47.5883 9.1772 47.6058 9.12369 47.6331 9.07516C47.6518 9.0428 47.6792 9.01667 47.7016 8.9868C47.7302 8.94698 47.7563 8.90591 47.7899 8.87107C47.8185 8.84245 47.8558 8.82129 47.8882 8.79641C47.9243 8.76654 47.9566 8.73418 47.9977 8.71054H47.9989L59.9554 1.82513C60.1068 1.738 60.2784 1.69214 60.4531 1.69214C60.6278 1.69214 60.7994 1.738 60.9508 1.82513L72.9073 8.71054H72.9098C72.9496 8.73543 72.9832 8.76654 73.0193 8.79516C73.0516 8.82005 73.0877 8.84245 73.1163 8.86983C73.1512 8.90591 73.176 8.94698 73.2059 8.9868C73.227 9.01667 73.2557 9.0428 73.2731 9.07516C73.3017 9.12493 73.3179 9.1772 73.3378 9.22947C73.3477 9.25809 73.3652 9.28422 73.3726 9.31409C73.3955 9.39889 73.4072 9.48633 73.4075 9.57417V35.1583L83.3708 29.4203V16.3414C83.3708 16.2542 83.3832 16.1659 83.4056 16.0825C83.4144 16.0527 83.4305 16.0265 83.4405 15.9979C83.4604 15.9456 83.4778 15.8921 83.5052 15.8436C83.5238 15.8112 83.5512 15.7851 83.5724 15.7552C83.6022 15.7154 83.6271 15.6743 83.6619 15.6395C83.6906 15.6109 83.7266 15.5897 83.759 15.5648C83.7963 15.535 83.8287 15.5026 83.8685 15.479H83.8697L95.8275 8.59356C95.9788 8.50631 96.1505 8.46038 96.3252 8.46038C96.4999 8.46038 96.6715 8.50631 96.8228 8.59356L108.779 15.479C108.822 15.5039 108.854 15.535 108.891 15.5636C108.922 15.5885 108.959 15.6109 108.987 15.6383C109.022 15.6743 109.047 15.7154 109.077 15.7552C109.099 15.7851 109.126 15.8112 109.144 15.8436C109.173 15.8921 109.189 15.9456 109.209 15.9979C109.22 16.0265 109.236 16.0527 109.243 16.0825ZM107.285 29.4203V18.0661L103.101 20.4753L97.3205 23.8042V35.1583L107.286 29.4203H107.285ZM95.3286 49.9595V38.5979L89.6427 41.8459L73.4062 51.1143V62.583L95.3286 49.9595ZM49.4932 11.2977V49.9595L71.413 62.5817V51.1156L59.9617 44.6334L59.9579 44.6309L59.9529 44.6284C59.9144 44.606 59.882 44.5736 59.8459 44.5463C59.8148 44.5214 59.7788 44.5015 59.7514 44.4741L59.7489 44.4704C59.7166 44.4392 59.6942 44.4007 59.6668 44.3658C59.6419 44.3322 59.612 44.3036 59.5921 44.2688L59.5909 44.265C59.5685 44.2277 59.5548 44.1829 59.5386 44.1406C59.5225 44.1033 59.5013 44.0684 59.4914 44.0286V44.0273C59.4789 43.9801 59.4764 43.9303 59.4715 43.8817C59.4665 43.8444 59.4565 43.8071 59.4565 43.7697V17.0357L53.6773 13.7057L49.4932 11.2989V11.2977ZM60.4543 3.83861L50.4922 9.57417L60.4519 15.3097L70.4127 9.57293L60.4519 3.83861H60.4543ZM65.6351 39.6333L71.4143 36.3057V11.2977L67.2301 13.7069L61.4497 17.0357V42.0437L65.6351 39.6333ZM96.3252 10.607L86.3643 16.3426L96.3252 22.0782L106.285 16.3414L96.3252 10.607ZM95.3286 23.8042L89.5481 20.4753L85.364 18.0661V29.4203L91.1432 32.7479L95.3286 35.1583V23.8042ZM72.4084 49.3908L87.0187 41.0482L94.322 36.8794L84.3686 31.1475L72.9085 37.7467L62.4637 43.761L72.4084 49.3908Z" fill="#EA4335"/>
</g>
<defs>
<clipPath id="clip0_101_423">
<rect width="61.8883" height="64" fill="white" transform="translate(47.5 1.48047)"/>
</clipPath>
</defs>
</svg>
