<svg width="157" height="67" viewBox="0 0 157 67" fill="none" xmlns="http://www.w3.org/2000/svg">
<g clip-path="url(#clip0_113_167)">
<path d="M72.4162 30.3474H51.0236C51.0236 30.3474 49.8968 44.2986 62.1966 55.8423C73.4011 66.3508 86.8512 65.4568 86.8512 65.4568V44.7457C79.7834 44.7457 72.4162 38.8954 72.4162 30.3474Z" fill="#F4B500"/>
<path d="M84.7474 18.0352V1.48824C84.7474 1.48824 72.8968 0.845179 63.7567 10.4362C56.5943 17.847 55.9561 27.1949 55.9561 27.1949C55.9561 27.1949 69.225 29.6652 72.4082 30.3475C72.3216 23.3679 77.8135 18.0352 84.7474 18.0352Z" fill="#4481F6"/>
<path d="M55.964 27.1951C55.964 27.1951 55.6803 28.8968 55.8458 30.3476H72.4162L55.964 27.1951Z" fill="#3566C5"/>
<path d="M84.7476 18.0354L87.9387 6.60149C87.9387 6.60149 85.8743 6.33486 84.7476 6.46033V18.0354Z" fill="#AF362B"/>
<path d="M84.7476 18.0355C84.7476 18.0355 94.9829 17.8237 95.4556 28.7792H106.644C106.644 28.7792 107.653 10.8912 87.9387 6.60156C87.1508 9.44827 84.7476 18.0355 84.7476 18.0355Z" fill="#DB4533"/>
<path d="M86.8594 44.7458L90.7124 36.2213C90.7124 36.2213 95.2588 34.0726 95.4637 28.7712C96.9371 29.4143 100.483 30.8729 102.106 31.5866C101.751 34.3157 98.0875 44.4321 86.8594 44.7458Z" fill="#CCCCCC"/>
<path d="M90.7124 36.2213C90.7124 36.2213 89.0971 37.3192 86.8594 37.131V44.7458L90.7124 36.2213ZM95.4558 28.7712H102.492C102.492 28.7712 102.658 29.7907 102.098 31.5866C100.625 30.9514 95.4558 28.7712 95.4558 28.7712Z" fill="#B7B7B7"/>
</g>
<defs>
<clipPath id="clip0_113_167">
<rect width="55.6522" height="64" fill="white" transform="translate(51 1.48047)"/>
</clipPath>
</defs>
</svg>
