<svg width="158" height="67" viewBox="0 0 158 67" fill="none" xmlns="http://www.w3.org/2000/svg">
<g clip-path="url(#clip0_101_466)">
<rect width="64" height="64" transform="translate(46.5 1.48047)" fill="white"/>
<path d="M106.418 1.48047H50.5883C48.3296 1.48047 46.5 3.30989 46.5 5.56836V61.3926C46.5 63.6451 48.3296 65.4805 50.5883 65.4805H106.418C108.67 65.4805 110.506 63.651 110.506 61.3926V5.56241C110.5 3.30989 108.67 1.48047 106.418 1.48047ZM75.5589 37.5505C75.5589 39.3263 75.3921 40.8458 75.0524 42.0972C74.7127 43.3486 74.2002 44.3497 73.5208 45.1363C72.8354 45.911 71.9832 46.4831 70.9641 46.8406C69.945 47.2041 68.7591 47.3829 67.4062 47.3829C66.2143 47.3829 65.1416 47.1922 64.1761 46.8227C62.2869 46.1136 60.809 44.5941 60.1594 42.6872C59.778 41.6205 59.5932 40.5002 59.6111 39.368V38.5695H63.4431C63.4431 42.1389 64.7661 43.9267 67.4122 43.9267C68.0916 43.9267 68.6875 43.8492 69.2239 43.6883C69.7543 43.5214 70.2013 43.2235 70.5708 42.7706C70.9403 42.3237 71.2144 41.7039 71.4051 40.8995C71.5958 40.095 71.6912 39.0522 71.6912 37.7591V17.7844H75.5709L75.5589 37.5505ZM96.9598 43.3486C96.5546 44.165 95.9824 44.8861 95.2792 45.4641C94.4925 46.0957 93.5867 46.5784 92.6212 46.8764C91.5783 47.2101 90.4102 47.3769 89.117 47.3769C83.3898 47.3769 80.3683 45.1185 80.0584 40.5896H83.8249C83.8428 43.146 85.5949 44.4272 89.0753 44.4272C89.85 44.4272 90.5413 44.3438 91.1313 44.171C91.7273 44.0041 92.2219 43.7658 92.6153 43.4678C93.3841 42.9136 93.837 42.0257 93.831 41.0782C93.8489 40.6611 93.7655 40.2499 93.5986 39.8686C93.4437 39.5587 93.1397 39.2905 92.6928 39.0522C92.0968 38.7602 91.477 38.5278 90.8334 38.3609C89.8024 38.063 88.7654 37.7769 87.7225 37.5088C86.4769 37.1989 85.3982 36.889 84.4983 36.5792C83.6997 36.3289 82.9488 35.9535 82.2694 35.4589C81.7033 35.0358 81.2563 34.4756 80.9762 33.8321C80.6961 33.1825 80.559 32.3661 80.559 31.3829C80.559 30.5188 80.7438 29.7144 81.1073 28.9695C81.4768 28.2306 81.9953 27.587 82.6866 27.0388C83.366 26.4965 84.1944 26.0734 85.1598 25.7635C86.2087 25.4417 87.3053 25.2868 88.4019 25.2987C93.9383 25.2987 96.7572 27.2652 96.8406 31.2041H93.1338C93.0027 29.2376 91.5187 28.2484 88.682 28.2484C88.0502 28.2484 87.4722 28.314 86.9298 28.4391C86.3875 28.5643 85.9286 28.743 85.5293 28.9814C85.13 29.2138 84.8261 29.5058 84.5996 29.8514C84.3791 30.209 84.2599 30.6261 84.2719 31.0492C84.2719 31.4604 84.3255 31.8 84.4268 32.0622C84.5281 32.3304 84.7725 32.5747 85.1658 32.8011C85.5532 33.0276 86.1312 33.254 86.8941 33.4745C87.6569 33.695 88.6998 33.9691 90.0229 34.2909C91.2982 34.6008 92.4127 34.9166 93.3543 35.2503C94.2899 35.584 95.0706 35.9833 95.7023 36.454C96.3281 36.9188 96.787 37.4969 97.0909 38.1702C97.3889 38.8436 97.5439 39.6898 97.5439 40.7028C97.5558 41.6622 97.3532 42.5382 96.9598 43.3486Z" fill="#3A4393"/>
</g>
<defs>
<clipPath id="clip0_101_466">
<rect width="64" height="64" fill="white" transform="translate(46.5 1.48047)"/>
</clipPath>
</defs>
</svg>
