<svg width="157" height="67" viewBox="0 0 157 67" fill="none" xmlns="http://www.w3.org/2000/svg">
<g clip-path="url(#clip0_101_545)">
<rect width="65.7778" height="64" transform="translate(46 1.48047)" fill="white"/>
<path d="M57.6481 1.48047H100.13C106.57 1.48047 111.778 6.67705 111.778 13.1044V53.8565C111.778 60.2839 106.57 65.4805 100.13 65.4805H57.6481C51.2074 65.4805 46 60.2839 46 53.8565V13.1044C46 6.67705 51.2074 1.48047 57.6481 1.48047Z" fill="#00005B"/>
<path d="M72.4206 39.771H62.225L60.142 46.2257C60.0872 46.4718 59.868 46.6359 59.6213 46.6086H54.4687C54.1672 46.6086 54.085 46.4445 54.1672 46.1163L62.9924 20.8718C63.0746 20.5983 63.1569 20.3522 63.2665 20.0239C63.3761 19.4496 63.4309 18.8479 63.4309 18.2462C63.4035 18.1094 63.5132 17.9727 63.6502 17.9453H63.7324H70.7487C70.9406 17.9453 71.0776 18.0274 71.105 18.1641L81.1087 46.0616C81.1909 46.3624 81.1087 46.4992 80.8346 46.4992H75.1065C74.9146 46.5265 74.7228 46.3898 74.668 46.1983L72.4206 39.6342V39.771ZM63.8146 34.3282H70.7761C70.6117 33.7539 70.3924 33.0701 70.1458 32.359C69.8991 31.6205 69.6524 30.8274 69.4058 30.0069C69.1317 29.159 68.885 28.3385 68.6109 27.4906C68.3369 26.6427 68.0902 25.8496 67.8709 25.0564C67.6517 24.2906 67.4598 23.5795 67.268 22.9231H67.2132C66.9665 24.0992 66.665 25.2752 66.2813 26.4513C65.8702 27.7641 65.4591 29.1316 65.0206 30.4992C64.6643 31.894 64.2258 33.1795 63.8146 34.3282Z" fill="#9999FF"/>
<path d="M97.2518 37.3094H88.5637C88.6733 38.1573 88.9474 39.0051 89.4133 39.7436C89.9067 40.4821 90.5918 41.0564 91.4141 41.3846C92.5104 41.8496 93.7163 42.0957 94.9222 42.0684C95.8815 42.041 96.8407 41.959 97.7726 41.7675C98.6222 41.6581 99.4444 41.4393 100.212 41.1385C100.349 41.0291 100.431 41.0838 100.431 41.3573V45.5419C100.431 45.6513 100.404 45.7607 100.376 45.8701C100.321 45.9522 100.267 46.0069 100.184 46.0616C99.3074 46.4445 98.403 46.718 97.4437 46.8821C96.1556 47.1282 94.8674 47.2376 93.5518 47.2103C91.4689 47.2103 89.7148 46.8821 88.2896 46.253C86.9467 45.6787 85.7681 44.7761 84.8363 43.6547C83.9593 42.5881 83.3289 41.3846 82.9452 40.0718C82.5615 38.7863 82.3696 37.4462 82.3696 36.0787C82.3696 34.6017 82.5889 33.1522 83.0548 31.7299C83.4933 30.3624 84.1785 29.1043 85.1104 27.9829C86.0148 26.8889 87.1385 26.0137 88.4267 25.3846C89.7148 24.7556 91.2496 24.5368 93.0037 24.5368C94.4563 24.5094 95.9089 24.7829 97.2518 25.3846C98.3756 25.8769 99.3622 26.6154 100.13 27.5727C100.842 28.5026 101.418 29.5419 101.774 30.6906C102.13 31.7846 102.295 32.906 102.295 34.0274C102.295 34.6838 102.267 35.2581 102.24 35.7778C102.185 36.2975 102.158 36.6804 102.13 36.9265C102.103 37.118 101.939 37.2821 101.747 37.2821C101.582 37.2821 101.281 37.3094 100.842 37.3368C100.404 37.3915 99.883 37.4188 99.2526 37.4188C98.6222 37.4188 97.9644 37.3094 97.2518 37.3094ZM88.5637 33.3163H94.3467C95.0593 33.3163 95.58 33.3163 95.9089 33.2889C96.1281 33.2616 96.3474 33.2069 96.5393 33.0701V32.7966C96.5393 32.441 96.4844 32.1128 96.3748 31.7846C95.8815 30.253 94.4289 29.2137 92.8118 29.2684C91.3044 29.1863 89.8793 29.9795 89.1667 31.347C88.8378 31.9761 88.6459 32.6325 88.5637 33.3163Z" fill="#9999FF"/>
</g>
<defs>
<clipPath id="clip0_101_545">
<rect width="65.7778" height="64" fill="white" transform="translate(46 1.48047)"/>
</clipPath>
</defs>
</svg>
