<svg width="157" height="67" viewBox="0 0 157 67" fill="none" xmlns="http://www.w3.org/2000/svg">
<g clip-path="url(#clip0_101_520)">
<path d="M56.6366 1.48706H99.0758C105.51 1.48706 110.712 6.68257 110.712 13.1086V53.8524C110.712 60.2784 105.51 65.4739 99.0758 65.4739H56.6366C50.2022 65.4739 45 60.2784 45 53.8524V13.1086C45 6.68257 50.2022 1.48706 56.6366 1.48706Z" fill="#001E36"/>
<path d="M59.7852 46.36V18.2222C59.7852 18.0308 59.8673 17.9214 60.059 17.9214C60.5244 17.9214 60.9625 17.9214 61.5922 17.894C62.2494 17.8667 62.9339 17.8667 63.6731 17.8394C64.4124 17.812 65.2064 17.812 66.0552 17.7847C66.904 17.7573 67.7254 17.7573 68.5468 17.7573C70.792 17.7573 72.6538 18.0308 74.1871 18.605C75.5561 19.0699 76.8156 19.8355 77.8561 20.8473C78.7322 21.7223 79.4167 22.7888 79.8548 23.9646C80.2655 25.1131 80.4846 26.2889 80.4846 27.5194C80.4846 29.8711 79.937 31.8126 78.8418 33.3439C77.7465 34.8752 76.2133 36.0237 74.4335 36.6799C72.5717 37.3635 70.5182 37.6097 68.273 37.6097C67.6159 37.6097 67.1778 37.6096 66.904 37.5823C66.6302 37.555 66.2469 37.555 65.7267 37.555V46.3326C65.754 46.5241 65.6171 46.6881 65.4255 46.7155H60.1137C59.8947 46.7155 59.7852 46.6061 59.7852 46.36ZM65.754 23.1989V32.3868C66.1374 32.4141 66.4933 32.4415 66.8219 32.4415H68.273C69.3408 32.4415 70.4087 32.2774 71.4217 31.9493C72.2979 31.7032 73.0645 31.1836 73.6669 30.5C74.2419 29.8164 74.5157 28.8867 74.5157 27.6835C74.5431 26.8358 74.324 25.9881 73.8859 25.2498C73.4205 24.5388 72.7634 23.9919 71.9693 23.6911C70.9563 23.281 69.8611 23.1169 68.7385 23.1442C68.0266 23.1442 67.3968 23.1443 66.8766 23.1716C66.329 23.1443 65.9457 23.1716 65.754 23.1989ZM97.5698 30.7188C96.7484 30.2812 95.8722 29.9805 94.9413 29.789C93.9282 29.5703 92.9152 29.4336 91.8747 29.4336C91.3271 29.4062 90.7521 29.4882 90.2319 29.625C89.876 29.707 89.5748 29.8984 89.3831 30.1719C89.2462 30.3906 89.1641 30.6641 89.1641 30.9102C89.1641 31.1563 89.2736 31.4024 89.4379 31.6211C89.6843 31.9219 90.0129 32.168 90.3688 32.3594C90.9986 32.6876 91.6557 32.9884 92.3128 33.2618C93.7913 33.754 95.2151 34.4377 96.5294 35.258C97.4329 35.8322 98.1722 36.5979 98.6924 37.5276C99.1305 38.4027 99.3495 39.3597 99.3221 40.3441C99.3495 41.6293 98.9662 42.9145 98.2543 43.981C97.4877 45.0748 96.4198 45.9225 95.1877 46.4147C93.8461 46.9889 92.2033 47.2897 90.2319 47.2897C88.9724 47.2897 87.7403 47.1803 86.5082 46.9342C85.5499 46.7702 84.5916 46.4694 83.7154 46.0592C83.5238 45.9498 83.3869 45.7584 83.4142 45.5396V40.7816C83.4142 40.6996 83.4416 40.5902 83.5238 40.5355C83.6059 40.4809 83.688 40.5082 83.7702 40.5629C84.838 41.1918 85.9606 41.6293 87.1653 41.9028C88.2058 42.1762 89.301 42.313 90.3962 42.313C91.4366 42.313 92.1759 42.1762 92.6687 41.9301C93.1068 41.7387 93.408 41.2739 93.408 40.7816C93.408 40.3988 93.189 40.0433 92.7509 39.6879C92.3128 39.3324 91.4093 38.9222 90.0676 38.4026C88.6712 37.9104 87.3844 37.2542 86.1796 36.4338C85.3309 35.8322 84.619 35.0392 84.0988 34.1095C83.6607 33.2345 83.4416 32.2774 83.469 31.3203C83.469 30.1445 83.7976 29.0234 84.3999 28.0116C85.0844 26.9178 86.0975 26.0428 87.2748 25.4959C88.5617 24.8396 90.1772 24.5388 92.1211 24.5388C93.2437 24.5388 94.3937 24.6209 95.5163 24.7849C96.3377 24.8943 97.1317 25.1131 97.871 25.4139C97.9805 25.4412 98.09 25.5506 98.1448 25.66C98.1722 25.7694 98.1995 25.8787 98.1995 25.9881V30.4453C98.1995 30.5547 98.1448 30.6641 98.0626 30.7188C97.8162 30.7735 97.6793 30.7735 97.5698 30.7188Z" fill="#31A8FF"/>
</g>
<defs>
<clipPath id="clip0_101_520">
<rect width="140" height="64" fill="white" transform="translate(8 1.48047)"/>
</clipPath>
</defs>
</svg>
