<svg width="157" height="67" viewBox="0 0 157 67" fill="none" xmlns="http://www.w3.org/2000/svg">
<g clip-path="url(#clip0_101_481)">
<rect width="122.182" height="64" transform="translate(17.5 1.48047)" fill="white"/>
<path d="M78.5909 65.1073C112.33 65.1073 139.682 50.8639 139.682 33.2939C139.682 15.7238 112.33 1.48047 78.5909 1.48047C44.8513 1.48047 17.5 15.7238 17.5 33.2939C17.5 50.8639 44.8513 65.1073 78.5909 65.1073Z" fill="#F47D04"/>
<path fill-rule="evenodd" clip-rule="evenodd" d="M34.6558 52.1308L41.351 18.2242H56.8323C63.527 18.6429 66.8746 21.9914 66.8746 27.8522C66.8746 37.8986 58.9246 43.7589 51.8109 43.3402H44.28L42.6062 52.1308H34.6558ZM45.9533 37.0616L48.0457 24.5033H53.4851C56.4142 24.5033 58.5061 25.759 58.5061 28.2705C58.088 35.3871 54.7404 36.6428 50.9747 37.0616H45.9538H45.9533ZM65.3191 43.3402L72.0138 9.43408H79.9643L78.2905 18.2242H85.8218C92.517 18.6429 95.0275 21.9914 94.1908 26.1778L91.2618 43.3402H82.8933L85.8223 27.8522C86.2404 25.759 86.2404 24.5033 83.3119 24.5033H77.0352L73.2696 43.3402H65.3191ZM90.7258 52.1308L97.4205 18.2242H112.902C119.598 18.6429 122.945 21.9914 122.945 27.8522C122.945 37.8986 114.995 43.7589 107.881 43.3402H100.35L98.6758 52.1308H90.7258ZM102.023 37.0616L104.115 24.5033H109.555C112.484 24.5033 114.576 25.759 114.576 28.2705C114.158 35.3871 110.81 36.6428 107.045 37.0616H102.023H102.023Z" fill="white"/>
</g>
<defs>
<clipPath id="clip0_101_481">
<rect width="122.182" height="64" fill="white" transform="translate(17.5 1.48047)"/>
</clipPath>
</defs>
</svg>
