<svg width="157" height="67" viewBox="0 0 157 67" fill="none" xmlns="http://www.w3.org/2000/svg">
<g clip-path="url(#clip0_101_448)">
<rect width="157" height="32" transform="translate(-0.5 17.4805)" fill="white"/>
<path d="M15.0988 34.2334C15.0988 36.6808 14.4019 38.7422 13.0032 40.411C11.5435 42.1595 9.64677 43.0372 7.325 43.0372C4.9971 43.0372 3.10652 42.1595 1.64683 40.411C0.247519 38.7422 -0.45459 36.6808 -0.45459 34.2334C-0.45459 31.7793 0.247519 29.7185 1.64683 28.0558C3.12276 26.3236 5.01947 25.458 7.325 25.458C9.64677 25.458 11.5435 26.3236 13.0032 28.0558C14.4019 29.7185 15.0988 31.7793 15.0988 34.2334ZM10.4761 34.2334C10.4761 33.1249 10.222 32.1892 9.71327 31.4327C9.14417 30.5729 8.34767 30.1457 7.325 30.1457C6.30202 30.1457 5.50583 30.5729 4.93611 31.4327C4.42217 32.1892 4.1678 33.1249 4.1678 34.2334C4.1678 35.3358 4.42217 36.2827 4.93611 37.0619C5.50583 37.9217 6.30202 38.3496 7.325 38.3496C8.34767 38.3496 9.14417 37.9217 9.71327 37.0619C10.222 36.2827 10.4761 35.3358 10.4761 34.2334ZM31.813 34.2334C31.813 36.5195 31.1826 38.5169 29.9163 40.2257C28.5617 42.0961 26.8146 43.0372 24.6914 43.0372C23.1928 43.0372 21.9216 42.5812 20.882 41.6808C20.882 41.8881 20.9041 42.3905 20.9485 43.1937C20.9927 44.0011 21.0144 44.6593 21.0144 45.179C21.0144 48.0491 20.1962 49.4804 18.56 49.4804C17.8906 49.4804 17.3436 49.2321 16.9066 48.7412C16.4754 48.2452 16.2596 47.6494 16.2596 46.946V28.2811C16.2596 27.5998 16.4809 27.0107 16.9231 26.5147C17.3654 26.0238 17.913 25.7761 18.5655 25.7761C19.5492 25.7761 20.2682 26.2887 20.7218 27.3115C21.6893 26.0759 23.0107 25.458 24.6859 25.458C26.8146 25.458 28.5562 26.3812 29.9163 28.235C31.1771 29.9499 31.813 31.9473 31.813 34.2334ZM27.1903 34.2334C27.1903 33.1249 26.931 32.1892 26.4223 31.4327C25.8523 30.5729 25.0564 30.1457 24.0334 30.1457C23.0107 30.1457 22.2145 30.5729 21.6448 31.4327C21.1361 32.1892 20.882 33.1249 20.882 34.2334C20.882 35.3358 21.1361 36.2827 21.6448 37.0619C22.2145 37.9217 23.0107 38.3496 24.0334 38.3496C25.0564 38.3496 25.8523 37.9217 26.4223 37.0619C26.931 36.2827 27.1903 35.3358 27.1903 34.2334ZM48.632 33.7143C48.632 34.5217 48.4494 35.076 48.0844 35.3883C47.7197 35.6939 47.1503 35.8497 46.3817 35.8497H38.0382C38.0382 36.7736 38.4531 37.4833 39.2824 37.9793C39.9514 38.3668 40.7697 38.5636 41.7372 38.5636C42.4896 38.5636 43.3906 38.3028 44.4467 37.7899C45.5027 37.2699 46.1825 37.0155 46.4761 37.0155C47.0121 37.0155 47.4653 37.2177 47.8414 37.6334C48.2116 38.0436 48.4 38.54 48.4 39.1118C48.4 40.4331 47.4546 41.4619 45.5631 42.2004C44.1203 42.7544 42.6551 43.0372 41.1571 43.0372C38.7464 43.0372 36.8001 42.2004 35.3128 40.5323C33.8252 38.8635 33.0793 36.7678 33.0793 34.2334C33.0793 31.8196 33.8531 29.7588 35.4011 28.0391C36.9435 26.3179 38.8626 25.458 41.1513 25.458C43.2799 25.458 45.0602 26.2721 46.4871 27.8999C47.9131 29.5284 48.632 31.4679 48.632 33.7143ZM44.0099 32.5012C43.9876 31.762 43.6615 31.0926 43.0311 30.4859C42.4007 29.8801 41.732 29.5803 41.0241 29.5803C40.2944 29.5803 39.614 29.8801 38.9839 30.4859C38.3538 31.0926 38.0382 31.762 38.0382 32.5012H44.0099ZM64.163 40.1848C64.163 40.8897 63.9473 41.484 63.5164 41.9806C63.0794 42.4718 62.532 42.7201 61.863 42.7201C60.2485 42.7201 59.441 41.3806 59.441 38.7076C59.441 38.1937 59.4744 37.3857 59.5406 36.2715C59.6126 35.1627 59.646 34.3489 59.646 33.835C59.646 30.9998 58.7668 29.5803 57.0141 29.5803C55.2612 29.5803 54.3877 30.9998 54.3877 33.835C54.3877 34.3489 54.4153 35.1627 54.465 36.2715C54.5204 37.3857 54.548 38.1937 54.548 38.7076C54.548 41.3806 53.7518 42.7201 52.1597 42.7201C51.4904 42.7201 50.9434 42.4718 50.5119 41.9806C50.0752 41.484 49.8594 40.8897 49.8594 40.1848V28.2759C49.8594 27.5761 50.0752 26.9825 50.5119 26.5031C50.9434 26.018 51.4962 25.7761 52.1653 25.7761C53.271 25.7761 54.0393 26.2887 54.4705 27.3115C55.217 26.0759 56.5382 25.458 58.4294 25.458C60.182 25.458 61.5755 25.9425 62.5982 26.9067C63.6432 27.9409 64.163 29.3604 64.163 31.1678V40.1848ZM78.6649 39.6718C78.6649 40.7627 77.9864 41.6283 76.6254 42.2641C75.5477 42.7772 74.3765 43.0409 73.192 43.0372C70.8638 43.0372 68.9733 42.1595 67.5136 40.411C66.1149 38.7422 65.4128 36.6808 65.4128 34.2334C65.4128 31.7793 66.1259 29.7073 67.5577 28.0097C68.9898 26.307 70.8638 25.458 73.192 25.458C74.5356 25.458 75.6913 25.6657 76.6536 26.0759C77.9962 26.6302 78.6649 27.4958 78.6649 28.6737C78.6649 29.2679 78.489 29.7934 78.1344 30.2497C77.781 30.6999 77.3272 30.931 76.7746 30.931C76.398 30.931 75.8564 30.7982 75.1488 30.539C74.4415 30.2727 73.8779 30.1457 73.4633 30.1457C72.3628 30.1457 71.5056 30.5556 70.892 31.3751C70.322 32.1144 70.0349 33.0612 70.0349 34.2334C70.0349 35.3358 70.2892 36.2715 70.8038 37.0276C71.3726 37.9111 72.1746 38.3496 73.1973 38.3496C73.6511 38.3496 74.2699 38.211 75.0602 37.9275C75.8515 37.6513 76.4213 37.507 76.7746 37.507C77.2895 37.507 77.7308 37.7374 78.1074 38.188C78.4779 38.644 78.6649 39.1342 78.6649 39.6718ZM95.468 40.1848C95.468 40.8897 95.2528 41.484 94.821 41.9806C94.3846 42.4718 93.8321 42.7201 93.1618 42.7201C92.1557 42.7201 91.4377 42.2059 91.0062 41.1841C90.039 42.42 88.7172 43.0372 87.0421 43.0372C84.8974 43.0372 83.1389 42.0961 81.7779 40.2257C80.5395 38.5169 79.9159 36.5195 79.9159 34.2334C79.9159 31.9473 80.5395 29.9499 81.7779 28.235C83.161 26.3812 84.9134 25.458 87.0421 25.458C88.7172 25.458 90.039 26.0759 91.0062 27.3115C91.4377 26.2887 92.1557 25.7761 93.1618 25.7761C93.8149 25.7761 94.3626 26.0238 94.8054 26.5147C95.2467 27.0107 95.468 27.594 95.468 28.2759V40.1848ZM90.8459 34.2334C90.8459 33.1249 90.5918 32.1892 90.0831 31.4327C89.4913 30.5729 88.6951 30.1457 87.6948 30.1457C86.6716 30.1457 85.8757 30.5729 85.3056 31.4327C84.7923 32.1892 84.538 33.1249 84.538 34.2334C84.538 35.3358 84.7859 36.2827 85.2778 37.0619C85.8646 37.9217 86.6716 38.3496 87.6948 38.3496C88.7172 38.3496 89.5131 37.9217 90.0831 37.0619C90.5918 36.2827 90.8459 35.3358 90.8459 34.2334ZM107.262 27.9575C107.262 28.9908 106.781 29.7009 105.818 30.0875C104.929 30.3998 104.043 30.7179 103.159 31.0459C102.191 31.6238 101.71 32.6974 101.71 34.2564V40.1848C101.71 40.8897 101.489 41.484 101.059 41.9806C100.621 42.4718 100.068 42.7201 99.3993 42.7201C98.7254 42.7201 98.1716 42.4718 97.741 41.9806C97.3034 41.484 97.0883 40.8897 97.0883 40.1848V28.2759C97.0883 27.5761 97.3034 26.9825 97.7349 26.5031C98.1716 26.018 98.7254 25.7761 99.3944 25.7761C100.5 25.7761 101.268 26.2887 101.699 27.3115C102.689 26.0759 103.751 25.458 104.895 25.458C105.547 25.458 106.106 25.7057 106.571 26.1966C107.029 26.6932 107.262 27.282 107.262 27.9575ZM119.32 28.1771C119.32 29.2507 118.917 29.9262 118.116 30.2155C117.722 30.3595 116.898 30.4343 115.643 30.4343V40.1848C115.643 40.8897 115.422 41.484 114.992 41.9806C114.554 42.4718 114.001 42.7201 113.332 42.7201C112.681 42.7201 112.127 42.4718 111.684 41.9806C111.243 41.484 111.021 40.8897 111.021 40.1848V30.4343C110.07 30.4343 109.379 30.3073 108.943 30.0596C108.346 29.7131 108.051 29.0836 108.051 28.1771C108.051 27.2711 108.356 26.6532 108.97 26.3236C109.384 26.0811 110.07 25.9547 111.021 25.9547V23.8878C111.021 21.4574 111.789 20.2452 113.332 20.2452C114.87 20.2452 115.643 21.4574 115.643 23.8878V25.9547C116.898 25.9547 117.722 26.0295 118.116 26.1735C118.917 26.4622 119.32 27.1326 119.32 28.1771ZM156.455 25.2455C156.442 23.7636 153.82 23.091 147.031 23.091C131.103 23.091 127.062 22.3806 122.737 17.6289C124.556 20.482 125.551 25.8334 142.388 25.5671C159.954 25.2846 149.237 30.2964 146.119 35.9588C151.742 30.7185 156.438 27.2644 156.455 25.267V25.2455ZM134.072 40.4625C134.071 41.1285 133.818 41.7671 133.367 42.2379C132.916 42.7088 132.304 42.9734 131.667 42.9736C130.334 42.9736 129.256 41.8484 129.256 40.4625C129.256 40.1319 129.318 39.8045 129.439 39.499C129.56 39.1935 129.738 38.916 129.962 38.6822C130.186 38.4484 130.451 38.263 130.744 38.1366C131.036 38.0101 131.35 37.9452 131.667 37.9454C132.994 37.9454 134.072 39.0708 134.072 40.4625ZM145.041 40.4625C145.041 41.1285 144.787 41.7671 144.336 42.2379C143.885 42.7088 143.274 42.9734 142.636 42.9736C141.304 42.9736 140.226 41.8484 140.226 40.4625C140.226 40.1319 140.288 39.8046 140.409 39.4991C140.53 39.1936 140.707 38.9161 140.931 38.6823C141.155 38.4485 141.421 38.2631 141.713 38.1367C142.006 38.0102 142.319 37.9452 142.636 37.9454C143.964 37.9454 145.041 39.0708 145.041 40.4625Z" fill="#4285F4"/>
</g>
<defs>
<clipPath id="clip0_101_448">
<rect width="157" height="32" fill="white" transform="translate(-0.5 17.4805)"/>
</clipPath>
</defs>
</svg>
