<svg width="158" height="67" viewBox="0 0 158 67" fill="none" xmlns="http://www.w3.org/2000/svg">
<g clip-path="url(#clip0_101_530)">
<rect width="42.7196" height="64" transform="translate(58 1.48047)" fill="white"/>
<path d="M68.6822 65.4803C74.5763 65.4803 79.3599 60.7016 79.3599 54.8136V44.147H68.6822C62.788 44.147 58.0044 48.9256 58.0044 54.8136C58.0044 60.7016 62.788 65.4803 68.6822 65.4803Z" fill="#0ACF83"/>
<path d="M58.0044 33.4806C58.0044 27.5926 62.788 22.814 68.6822 22.814H79.3599V44.1473H68.6822C62.788 44.1473 58.0044 39.3686 58.0044 33.4806Z" fill="#A259FF"/>
<path d="M58.0044 12.1471C58.0044 6.25913 62.788 1.48047 68.6822 1.48047H79.3599V22.8138H68.6822C62.788 22.8138 58.0044 18.0351 58.0044 12.1471Z" fill="#F24E1E"/>
<path d="M79.3599 1.48047H90.0376C95.9318 1.48047 100.715 6.25913 100.715 12.1471C100.715 18.0351 95.9318 22.8138 90.0376 22.8138H79.3599V1.48047Z" fill="#FF7262"/>
<path d="M100.715 33.4804C100.715 39.3684 95.9318 44.147 90.0376 44.147C84.1435 44.147 79.3599 39.3684 79.3599 33.4804C79.3599 27.5924 84.1435 22.8137 90.0376 22.8137C95.9318 22.8137 100.715 27.5924 100.715 33.4804Z" fill="#1ABCFE"/>
</g>
<defs>
<clipPath id="clip0_101_530">
<rect width="42.7196" height="64" fill="white" transform="translate(58 1.48047)"/>
</clipPath>
</defs>
</svg>
