<svg width="157" height="66" viewBox="0 0 157 66" fill="none" xmlns="http://www.w3.org/2000/svg">
<path d="M60.2393 40.0049H63.6535C64.1317 40.0049 64.579 40.1156 64.9952 40.337C65.4203 40.5584 65.7569 40.864 66.0048 41.2537C66.2528 41.6434 66.3768 42.0817 66.3768 42.5688C66.3768 43.0294 66.2573 43.4323 66.0181 43.7777C65.7879 44.1231 65.4735 44.3888 65.0749 44.5748V44.628C65.5532 44.7874 65.9429 45.0619 66.244 45.4516C66.5451 45.8413 66.6957 46.2974 66.6957 46.8199C66.6957 47.3336 66.5628 47.7986 66.2971 48.2148C66.0403 48.6222 65.6904 48.941 65.2476 49.1713C64.8137 49.4016 64.3443 49.5167 63.8395 49.5167H60.2393V40.0049ZM63.6535 44.1231C63.9723 44.1231 64.2513 44.0479 64.4904 43.8973C64.7384 43.7468 64.9288 43.5563 65.0616 43.3261C65.1945 43.0869 65.2609 42.8434 65.2609 42.5954C65.2609 42.3563 65.1945 42.1216 65.0616 41.8913C64.9377 41.6522 64.7561 41.4574 64.517 41.3068C64.2867 41.1563 64.0166 41.081 63.7066 41.081H61.3552V44.1231H63.6535ZM63.9059 48.4406C64.2247 48.4406 64.5081 48.3609 64.7561 48.2015C65.0129 48.0421 65.2078 47.8384 65.3406 47.5904C65.4823 47.3336 65.5532 47.0723 65.5532 46.8066C65.5532 46.5409 65.4823 46.2841 65.3406 46.0361C65.1989 45.7793 64.9996 45.5756 64.7428 45.425C64.486 45.2656 64.1893 45.1859 63.8527 45.1859H61.3552V48.4406H63.9059ZM67.937 42.7415H69.0662V46.5542L69.0131 47.8296H69.0662L72.7195 42.7415H73.8354V49.5167H72.7195V45.704L72.7726 44.4287H72.7195L69.0662 49.5167H67.937V42.7415ZM74.9687 48.4938H75.6728C75.8854 48.2724 76.0625 47.865 76.2042 47.2716C76.3548 46.6694 76.4301 46.0317 76.4301 45.3586V42.7415H81.7705V48.4938H82.7801V51.536H81.704V49.5167H76.0448V51.536H74.9687V48.4938ZM80.6546 48.4938V43.7645H77.5327V45.4516C77.5327 46.0273 77.4707 46.5808 77.3467 47.1122C77.2316 47.6347 77.0677 48.0952 76.8552 48.4938H80.6546ZM86.9295 49.7293C86.2829 49.7293 85.7029 49.5743 85.1892 49.2643C84.6755 48.9543 84.2725 48.5292 83.9803 47.989C83.6969 47.4399 83.5552 46.8244 83.5552 46.1424C83.5552 45.487 83.688 44.8848 83.9537 44.3357C84.2283 43.7866 84.6135 43.3482 85.1095 43.0205C85.6054 42.6928 86.1811 42.529 86.8365 42.529C87.5007 42.529 88.0764 42.6796 88.5635 42.9807C89.0506 43.2729 89.4225 43.6803 89.6794 44.2029C89.9451 44.7254 90.0779 45.3232 90.0779 45.9963C90.0779 46.1291 90.0646 46.2443 90.0381 46.3417H84.6844C84.7109 46.8554 84.8349 47.2893 85.0563 47.6436C85.2777 47.9978 85.5567 48.2635 85.8933 48.4406C86.2387 48.6178 86.5974 48.7063 86.9693 48.7063C87.8372 48.7063 88.5059 48.2989 88.9753 47.4842L89.9318 47.9491C89.6395 48.4982 89.241 48.9322 88.7362 49.251C88.2402 49.5698 87.638 49.7293 86.9295 49.7293ZM88.8823 45.4118C88.8646 45.1284 88.7849 44.8449 88.6432 44.5615C88.5015 44.2781 88.2756 44.039 87.9657 43.8442C87.6645 43.6493 87.2837 43.5519 86.8232 43.5519C86.2918 43.5519 85.8401 43.7246 85.4682 44.07C85.105 44.4066 84.8659 44.8538 84.7508 45.4118H88.8823ZM94.4533 49.7293C93.7891 49.7293 93.1913 49.5698 92.6599 49.251C92.1285 48.9322 91.7123 48.4982 91.4112 47.9491C91.1189 47.4 90.9728 46.7934 90.9728 46.1291C90.9728 45.4649 91.1189 44.8582 91.4112 44.3091C91.7123 43.76 92.1285 43.3261 92.6599 43.0072C93.1913 42.6884 93.7891 42.529 94.4533 42.529C95.1176 42.529 95.7154 42.6884 96.2468 43.0072C96.7781 43.3261 97.19 43.76 97.4822 44.3091C97.7833 44.8582 97.9339 45.4649 97.9339 46.1291C97.9339 46.7934 97.7833 47.4 97.4822 47.9491C97.19 48.4982 96.7781 48.9322 96.2468 49.251C95.7154 49.5698 95.1176 49.7293 94.4533 49.7293ZM94.4533 48.7063C94.8696 48.7063 95.2548 48.6045 95.6091 48.4008C95.9722 48.1882 96.26 47.8871 96.4726 47.4974C96.694 47.1078 96.8047 46.6517 96.8047 46.1291C96.8047 45.6066 96.694 45.1505 96.4726 44.7608C96.26 44.3711 95.9722 44.0744 95.6091 43.8707C95.2548 43.6582 94.8696 43.5519 94.4533 43.5519C94.0371 43.5519 93.6474 43.6582 93.2843 43.8707C92.9212 44.0744 92.6289 44.3711 92.4075 44.7608C92.1949 45.1505 92.0887 45.6066 92.0887 46.1291C92.0887 46.6517 92.1949 47.1078 92.4075 47.4974C92.6289 47.8871 92.9212 48.1882 93.2843 48.4008C93.6474 48.6045 94.0371 48.7063 94.4533 48.7063ZM102.014 42.7415H103.09V43.7512H103.143C103.347 43.4058 103.653 43.1179 104.06 42.8877C104.476 42.6486 104.941 42.529 105.455 42.529C106.057 42.529 106.606 42.684 107.102 42.994C107.598 43.3039 107.988 43.7335 108.271 44.2826C108.555 44.8317 108.696 45.4472 108.696 46.1291C108.696 46.8199 108.555 47.4399 108.271 47.989C107.988 48.5292 107.598 48.9543 107.102 49.2643C106.606 49.5743 106.057 49.7293 105.455 49.7293C104.941 49.7293 104.476 49.6141 104.06 49.3839C103.653 49.1447 103.347 48.8569 103.143 48.5204H103.09L103.143 49.4503V52.3862H102.014V42.7415ZM105.322 48.7063C105.712 48.7063 106.079 48.6001 106.425 48.3875C106.77 48.175 107.045 47.8738 107.248 47.4842C107.461 47.0856 107.567 46.6339 107.567 46.1291C107.567 45.6243 107.461 45.1771 107.248 44.7874C107.045 44.3888 106.77 44.0833 106.425 43.8707C106.079 43.6582 105.712 43.5519 105.322 43.5519C104.932 43.5519 104.565 43.6582 104.219 43.8707C103.874 44.0833 103.599 44.3844 103.396 44.7741C103.192 45.1638 103.09 45.6155 103.09 46.1291C103.09 46.6428 103.192 47.0945 103.396 47.4842C103.599 47.8738 103.874 48.175 104.219 48.3875C104.565 48.6001 104.932 48.7063 105.322 48.7063ZM112.89 49.7293C112.243 49.7293 111.663 49.5743 111.149 49.2643C110.636 48.9543 110.233 48.5292 109.94 47.989C109.657 47.4399 109.515 46.8244 109.515 46.1424C109.515 45.487 109.648 44.8848 109.914 44.3357C110.188 43.7866 110.574 43.3482 111.07 43.0205C111.566 42.6928 112.141 42.529 112.797 42.529C113.461 42.529 114.037 42.6796 114.524 42.9807C115.011 43.2729 115.383 43.6803 115.64 44.2029C115.905 44.7254 116.038 45.3232 116.038 45.9963C116.038 46.1291 116.025 46.2443 115.998 46.3417H110.645C110.671 46.8554 110.795 47.2893 111.017 47.6436C111.238 47.9978 111.517 48.2635 111.853 48.4406C112.199 48.6178 112.558 48.7063 112.93 48.7063C113.797 48.7063 114.466 48.2989 114.936 47.4842L115.892 47.9491C115.6 48.4982 115.201 48.9322 114.696 49.251C114.2 49.5698 113.598 49.7293 112.89 49.7293ZM114.843 45.4118C114.825 45.1284 114.745 44.8449 114.603 44.5615C114.462 44.2781 114.236 44.039 113.926 43.8442C113.625 43.6493 113.244 43.5519 112.783 43.5519C112.252 43.5519 111.8 43.7246 111.428 44.07C111.065 44.4066 110.826 44.8538 110.711 45.4118H114.843ZM117.227 42.7415H118.356V45.8103H118.409L121.265 42.7415H122.687V42.7947L119.631 45.9564L122.82 49.4636V49.5167H121.438L118.409 46.1026H118.356V49.5167H117.227V42.7415ZM124.252 49.623C124.022 49.623 123.818 49.5876 123.641 49.5167L123.654 48.5071C123.796 48.5514 123.946 48.5735 124.106 48.5735C124.309 48.5735 124.464 48.5071 124.571 48.3742C124.677 48.2325 124.748 48.0067 124.783 47.6967C124.828 47.3779 124.85 46.9351 124.85 46.3682V42.7415H130.442V49.5167H129.327V43.7645H125.952V46.7269C125.952 47.772 125.797 48.5159 125.487 48.9587C125.177 49.4016 124.766 49.623 124.252 49.623ZM134.098 49.7293C133.602 49.7293 133.159 49.6318 132.769 49.437C132.379 49.2422 132.078 48.9765 131.866 48.6399C131.653 48.2945 131.547 47.9048 131.547 47.4709C131.547 46.7535 131.817 46.1955 132.357 45.797C132.898 45.3896 133.58 45.1859 134.403 45.1859C134.811 45.1859 135.187 45.2302 135.532 45.3188C135.887 45.4073 136.157 45.5092 136.343 45.6243V45.2125C136.343 44.7077 136.166 44.3047 135.811 44.0036C135.457 43.6936 135.01 43.5386 134.47 43.5386C134.089 43.5386 133.739 43.6228 133.42 43.791C133.101 43.9504 132.849 44.1763 132.663 44.4685L131.813 43.8309C132.078 43.4235 132.441 43.1047 132.902 42.8744C133.371 42.6441 133.889 42.529 134.456 42.529C135.377 42.529 136.099 42.7725 136.622 43.2596C137.153 43.7379 137.419 44.3933 137.419 45.2258V49.5167H136.343V48.5469H136.29C136.095 48.8746 135.802 49.1536 135.413 49.3839C135.023 49.6141 134.585 49.7293 134.098 49.7293ZM134.204 48.7329C134.585 48.7329 134.939 48.6355 135.267 48.4406C135.594 48.2458 135.856 47.9845 136.05 47.6569C136.245 47.3292 136.343 46.9705 136.343 46.5808C136.13 46.4391 135.869 46.324 135.559 46.2354C135.249 46.1468 134.921 46.1026 134.576 46.1026C133.956 46.1026 133.487 46.231 133.168 46.4878C132.858 46.7446 132.703 47.0768 132.703 47.4842C132.703 47.8561 132.844 48.1572 133.128 48.3875C133.411 48.6178 133.77 48.7329 134.204 48.7329ZM138.844 42.7415H140.185L142.577 47.2982H142.616L145.008 42.7415H146.363V49.5167H145.233V45.7837L145.287 44.5084H145.233L143.002 48.6665H142.205L139.959 44.5084H139.906L139.959 45.7837V49.5167H138.844V42.7415ZM149.997 49.7293C149.501 49.7293 149.058 49.6318 148.668 49.437C148.278 49.2422 147.977 48.9765 147.765 48.6399C147.552 48.2945 147.446 47.9048 147.446 47.4709C147.446 46.7535 147.716 46.1955 148.256 45.797C148.797 45.3896 149.479 45.1859 150.302 45.1859C150.71 45.1859 151.086 45.2302 151.431 45.3188C151.786 45.4073 152.056 45.5092 152.242 45.6243V45.2125C152.242 44.7077 152.065 44.3047 151.71 44.0036C151.356 43.6936 150.909 43.5386 150.369 43.5386C149.988 43.5386 149.638 43.6228 149.319 43.791C149 43.9504 148.748 44.1763 148.562 44.4685L147.712 43.8309C147.977 43.4235 148.34 43.1047 148.801 42.8744C149.27 42.6441 149.788 42.529 150.355 42.529C151.276 42.529 151.998 42.7725 152.521 43.2596C153.052 43.7379 153.318 44.3933 153.318 45.2258V49.5167H152.242V48.5469H152.189C151.994 48.8746 151.701 49.1536 151.312 49.3839C150.922 49.6141 150.484 49.7293 149.997 49.7293ZM150.103 48.7329C150.484 48.7329 150.838 48.6355 151.166 48.4406C151.493 48.2458 151.755 47.9845 151.949 47.6569C152.144 47.3292 152.242 46.9705 152.242 46.5808C152.029 46.4391 151.768 46.324 151.458 46.2354C151.148 46.1468 150.82 46.1026 150.475 46.1026C149.855 46.1026 149.386 46.231 149.067 46.4878C148.757 46.7446 148.602 47.0768 148.602 47.4842C148.602 47.8561 148.743 48.1572 149.027 48.3875C149.31 48.6178 149.669 48.7329 150.103 48.7329Z" fill="#5F6368"/>
<path d="M69.4025 34.3388C66.6087 34.3393 63.9263 33.2459 61.9323 31.2939C59.9384 29.3419 58.7922 26.6871 58.7402 23.9008C58.7664 21.0972 59.9012 18.4173 61.898 16.4441C63.8947 14.4708 66.5918 13.3638 69.4025 13.364C70.7362 13.3436 72.0605 13.5887 73.2981 14.085C74.5356 14.5814 75.6615 15.3189 76.6098 16.2545L74.5913 18.2803C73.1989 16.9434 71.335 16.2068 69.4025 16.2298C67.4277 16.3091 65.5602 17.1474 64.191 18.5692C62.8219 19.991 62.0573 21.8861 62.0573 23.8576C62.0573 25.829 62.8219 27.7241 64.191 29.1459C65.5602 30.5677 67.4277 31.406 69.4025 31.4853C70.3878 31.5243 71.3703 31.3576 72.2872 30.996C73.2042 30.6344 74.0353 30.0858 74.7275 29.3854C75.6381 28.3902 76.1913 27.1214 76.3002 25.7784H69.3778V22.8385H79.0742C79.184 23.4541 79.2379 24.0784 79.2352 24.7037C79.3173 27.1723 78.4284 29.5751 76.7584 31.3989C75.8129 32.3831 74.6675 33.1545 73.3989 33.6615C72.1303 34.1685 70.7678 34.3994 69.4025 34.3388Z" fill="#5F6368"/>
<path d="M94.541 27.6057C94.5459 28.9481 94.1514 30.2616 93.4073 31.3801C92.6633 32.4986 91.6032 33.3716 90.3613 33.8887C89.1195 34.4058 87.7517 34.5436 86.4313 34.2847C85.1109 34.0259 83.8972 33.3819 82.9439 32.4345C81.9906 31.4871 81.3406 30.2788 81.0763 28.9626C80.812 27.6464 80.9451 26.2816 81.459 25.041C81.9728 23.8004 82.8442 22.7398 83.9627 21.9935C85.0813 21.2472 86.3967 20.8488 87.7424 20.8488C88.6373 20.8339 89.526 20.9983 90.356 21.3322C91.186 21.6662 91.9403 22.1629 92.5743 22.793C93.2083 23.4231 93.7091 24.1738 94.0469 25.0005C94.3847 25.8272 94.5528 26.7131 94.541 27.6057ZM91.569 27.6057C91.6115 27.0787 91.5442 26.5485 91.3712 26.0487C91.1982 25.5489 90.9233 25.0902 90.5638 24.7016C90.2043 24.313 89.768 24.0028 89.2824 23.7907C88.7969 23.5786 88.2725 23.4691 87.7424 23.4691C87.2123 23.4691 86.688 23.5786 86.2024 23.7907C85.7168 24.0028 85.2805 24.313 84.9211 24.7016C84.5616 25.0902 84.2867 25.5489 84.1137 26.0487C83.9407 26.5485 83.8733 27.0787 83.9159 27.6057C83.8733 28.1328 83.9407 28.663 84.1137 29.1628C84.2867 29.6626 84.5616 30.1213 84.9211 30.5099C85.2805 30.8985 85.7168 31.2086 86.2024 31.4208C86.688 31.6329 87.2123 31.7424 87.7424 31.7424C88.2725 31.7424 88.7969 31.6329 89.2824 31.4208C89.768 31.2086 90.2043 30.8985 90.5638 30.5099C90.9233 30.1213 91.1982 29.6626 91.3712 29.1628C91.5442 28.663 91.6115 28.1328 91.569 27.6057Z" fill="#5F6368"/>
<path d="M109.96 27.6071C109.962 28.951 109.564 30.2653 108.816 31.3832C108.069 32.5011 107.005 33.3722 105.76 33.8859C104.515 34.3996 103.145 34.5327 101.824 34.2684C100.503 34.0041 99.2904 33.3543 98.3404 32.4014C97.3904 31.4485 96.7456 30.2356 96.4878 28.9165C96.2301 27.5974 96.3711 26.2317 96.8929 24.9927C97.4148 23.7537 98.2939 22.6973 99.4186 21.9575C100.543 21.2178 101.863 20.8281 103.21 20.8378C104.103 20.8278 104.988 20.9963 105.814 21.3334C106.64 21.6705 107.389 22.1694 108.018 22.8005C108.648 23.4316 109.144 24.1821 109.477 25.0077C109.81 25.8333 109.974 26.7172 109.96 27.6071ZM106.987 27.6071C107.017 27.0884 106.94 26.5692 106.762 26.0811C106.583 25.5931 106.306 25.1466 105.949 24.7689C105.591 24.3912 105.16 24.0904 104.682 23.8848C104.203 23.6791 103.688 23.5731 103.167 23.5731C102.646 23.5731 102.131 23.6791 101.653 23.8848C101.174 24.0904 100.743 24.3912 100.385 24.7689C100.028 25.1466 99.7512 25.5931 99.5726 26.0811C99.394 26.5692 99.3171 27.0884 99.3468 27.6071C99.3171 28.1258 99.394 28.6451 99.5726 29.1331C99.7512 29.6211 100.028 30.0676 100.385 30.4453C100.743 30.823 101.174 31.1238 101.653 31.3294C102.131 31.5351 102.646 31.6411 103.167 31.6411C103.688 31.6411 104.203 31.5351 104.682 31.3294C105.16 31.1238 105.591 30.823 105.949 30.4453C106.306 30.0676 106.583 29.6211 106.762 29.1331C106.94 28.6451 107.017 28.1258 106.987 27.6071Z" fill="#5F6368"/>
<path d="M124.659 21.2443V33.3746C124.659 38.3157 121.711 40.4033 118.232 40.4033C116.946 40.4092 115.688 40.0328 114.618 39.3221C113.549 38.6114 112.715 37.5987 112.225 36.4134L114.814 35.3387C115.075 36.0363 115.541 36.6392 116.15 37.0688C116.76 37.4985 117.485 37.735 118.232 37.7475C120.461 37.7475 121.848 36.364 121.848 33.7823V32.8064H121.786C121.339 33.3053 120.788 33.7009 120.172 33.9654C119.556 34.23 118.89 34.3572 118.219 34.3381C116.474 34.2637 114.826 33.5199 113.618 32.262C112.409 31.0042 111.735 29.3295 111.735 27.5874C111.735 25.8454 112.409 24.1707 113.618 22.9128C114.826 21.6549 116.474 20.9112 118.219 20.8367C118.887 20.8187 119.551 20.9439 120.166 21.2039C120.782 21.4638 121.334 21.8526 121.786 22.3437H121.897V21.2443H124.659ZM122.046 27.6059C122.09 27.0962 122.03 26.5829 121.87 26.0967C121.711 25.6105 121.455 25.1614 121.117 24.7762C120.779 24.391 120.367 24.0777 119.906 23.8551C119.444 23.6324 118.942 23.5049 118.43 23.4802C117.914 23.507 117.409 23.6351 116.942 23.8571C116.476 24.0792 116.059 24.3907 115.714 24.774C115.369 25.1573 115.103 25.6047 114.931 26.0907C114.76 26.5766 114.686 27.0915 114.715 27.6059C114.69 28.1164 114.766 28.6268 114.939 29.1077C115.113 29.5887 115.38 30.0307 115.725 30.4083C116.07 30.786 116.487 31.0919 116.951 31.3084C117.415 31.5249 117.918 31.6478 118.43 31.67C118.938 31.6499 119.437 31.5277 119.897 31.3105C120.357 31.0934 120.768 30.7858 121.106 30.4062C121.443 30.0267 121.701 29.583 121.862 29.1018C122.024 28.6206 122.086 28.1118 122.046 27.6059Z" fill="#5F6368"/>
<path d="M130.516 14.0815V33.9323H127.544V14.0815H130.516Z" fill="#5F6368"/>
<path d="M142.639 29.8172L144.943 31.3118C144.323 32.2376 143.483 32.9954 142.497 33.5172C141.512 34.039 140.412 34.3084 139.296 34.3012C138.411 34.3128 137.533 34.1476 136.714 33.8152C135.894 33.4829 135.149 32.9901 134.524 32.3661C133.898 31.7421 133.404 30.9994 133.071 30.1818C132.738 29.3643 132.572 28.4885 132.584 27.606C132.539 26.74 132.67 25.8739 132.969 25.0598C133.269 24.2457 133.73 23.5005 134.326 22.8691C134.922 22.2378 135.64 21.7333 136.437 21.3861C137.233 21.039 138.092 20.8563 138.961 20.8491C140.252 20.8825 141.501 21.312 142.538 22.079C143.575 22.846 144.35 23.9133 144.757 25.1355L145.067 25.9014L136.014 29.6072C136.292 30.2378 136.753 30.7706 137.339 31.1363C137.924 31.502 138.606 31.6837 139.296 31.6577C139.965 31.6637 140.624 31.4975 141.21 31.1751C141.795 30.8526 142.288 30.3849 142.639 29.8172ZM135.531 27.3466L141.587 24.8761C141.356 24.4247 141 24.0494 140.56 23.7953C140.121 23.5411 139.617 23.4188 139.11 23.4432C138.613 23.4603 138.125 23.5768 137.674 23.7856C137.223 23.9943 136.819 24.2912 136.485 24.6587C136.152 25.0261 135.895 25.4566 135.731 25.9247C135.568 26.3928 135.499 26.8889 135.531 27.3837V27.3466Z" fill="#5F6368"/>
<path d="M52.0568 20.2282C51.4583 18 49.7013 16.2489 47.4656 15.6525C43.413 14.5703 27.1729 14.5703 27.1729 14.5703C27.1729 14.5703 10.9328 14.5703 6.88451 15.6525C4.64877 16.2489 2.89181 18 2.29333 20.2282C1.20752 24.2628 1.20752 32.6857 1.20752 32.6857C1.20752 32.6857 1.20752 41.1086 2.29333 45.1432C2.89181 47.3715 4.64877 49.1225 6.88451 49.719C10.9328 50.8011 27.1729 50.8011 27.1729 50.8011C27.1729 50.8011 43.413 50.8011 47.4613 49.719C49.697 49.1225 51.454 47.3715 52.0525 45.1432C53.1383 41.1086 53.1383 32.6857 53.1383 32.6857C53.1383 32.6857 53.1383 24.2628 52.0568 20.2282Z" fill="#EA4335"/>
<path d="M21.979 40.4483L35.4747 32.6858L21.979 24.9233V40.4483Z" fill="white"/>
</svg>
