<svg width="158" height="67" viewBox="0 0 158 67" fill="none" xmlns="http://www.w3.org/2000/svg">
<path d="M60.9189 36.3242H67.0024C68.0121 36.3242 68.9461 36.5514 69.8043 37.0058C70.6626 37.4602 71.3441 38.0996 71.849 38.9242C72.3706 39.732 72.6315 40.6491 72.6315 41.6757C72.6315 42.7022 72.3706 43.6278 71.849 44.4524C71.3441 45.2601 70.6626 45.8912 69.8043 46.3456C68.9461 46.7999 68.0121 47.0271 67.0024 47.0271H63.0393V54.3979H60.9189V36.3242ZM67.0529 44.9825C67.726 44.9825 68.315 44.8226 68.8199 44.5028C69.3415 44.1831 69.7454 43.7708 70.0315 43.266C70.3176 42.7611 70.4606 42.231 70.4606 41.6757C70.4606 41.1203 70.3176 40.5902 70.0315 40.0854C69.7454 39.5805 69.3415 39.1682 68.8199 38.8485C68.315 38.5288 67.726 38.3689 67.0529 38.3689H63.0393V44.9825H67.0529ZM79.6241 54.8018C78.3956 54.8018 77.2933 54.5073 76.3173 53.9183C75.3413 53.3293 74.5756 52.5216 74.0202 51.4951C73.4817 50.4517 73.2125 49.2821 73.2125 47.9863C73.2125 46.741 73.4649 45.5967 73.9697 44.5533C74.4914 43.51 75.2235 42.677 76.1658 42.0543C77.1082 41.4317 78.2021 41.1203 79.4474 41.1203C80.7095 41.1203 81.8034 41.4064 82.7289 41.9786C83.6545 42.5339 84.3613 43.308 84.8493 44.3009C85.3542 45.2938 85.6066 46.4297 85.6066 47.7087C85.6066 47.9611 85.5813 48.1799 85.5309 48.365H75.3581C75.4086 49.341 75.6442 50.1656 76.0649 50.8387C76.4856 51.5119 77.0157 52.0167 77.6552 52.3533C78.3115 52.6899 78.993 52.8582 79.6998 52.8582C81.349 52.8582 82.6195 52.084 83.5114 50.5358L85.3289 51.4193C84.7736 52.4627 84.0163 53.2873 83.0571 53.8931C82.1147 54.4989 80.9704 54.8018 79.6241 54.8018ZM83.3347 46.598C83.3011 46.0595 83.1496 45.521 82.8804 44.9825C82.6111 44.444 82.182 43.9896 81.593 43.6194C81.0208 43.2491 80.2972 43.064 79.4221 43.064C78.4124 43.064 77.5542 43.3922 76.8474 44.0485C76.1574 44.688 75.7031 45.5378 75.4843 46.598H83.3347ZM87.8652 41.5242H90.0108V47.3553H90.1118L95.539 41.5242H98.2399V41.6252L92.4341 47.6329L98.4923 54.297V54.3979H95.8671L90.1118 47.9106H90.0108V54.3979H87.8652V41.5242ZM101.214 54.5999C100.776 54.5999 100.389 54.5326 100.053 54.3979L100.078 52.4795C100.347 52.5637 100.633 52.6057 100.936 52.6057C101.323 52.6057 101.618 52.4795 101.82 52.2271C102.021 51.9578 102.156 51.5287 102.223 50.9397C102.308 50.3339 102.35 49.4925 102.35 48.4155V41.5242H112.977V54.3979H110.856V43.4679H104.445V49.097C104.445 51.0828 104.15 52.4963 103.561 53.3378C102.972 54.1792 102.19 54.5999 101.214 54.5999ZM119.922 54.8018C118.98 54.8018 118.138 54.6167 117.398 54.2465C116.657 53.8763 116.085 53.3714 115.681 52.7319C115.277 52.0756 115.075 51.3352 115.075 50.5106C115.075 49.1475 115.589 48.0873 116.615 47.33C117.642 46.5559 118.938 46.1689 120.503 46.1689C121.277 46.1689 121.992 46.253 122.648 46.4213C123.321 46.5896 123.835 46.7831 124.188 47.0019V46.2193C124.188 45.2601 123.851 44.4944 123.178 43.9223C122.505 43.3333 121.655 43.0388 120.629 43.0388C119.905 43.0388 119.24 43.1986 118.635 43.5184C118.029 43.8213 117.549 44.2504 117.196 44.8058L115.58 43.5941C116.085 42.82 116.775 42.2142 117.65 41.7766C118.542 41.3391 119.527 41.1203 120.604 41.1203C122.354 41.1203 123.725 41.5831 124.718 42.5087C125.728 43.4174 126.233 44.6627 126.233 46.2446V54.3979H124.188V52.5552H124.087C123.717 53.1779 123.161 53.708 122.421 54.1455C121.681 54.5831 120.848 54.8018 119.922 54.8018ZM120.124 52.9086C120.848 52.9086 121.521 52.7235 122.143 52.3533C122.766 51.9831 123.262 51.4866 123.633 50.864C124.003 50.2413 124.188 49.5598 124.188 48.8193C123.784 48.5501 123.288 48.3313 122.699 48.163C122.11 47.9947 121.487 47.9106 120.831 47.9106C119.653 47.9106 118.761 48.1546 118.155 48.6426C117.566 49.1307 117.272 49.7617 117.272 50.5358C117.272 51.2426 117.541 51.8148 118.079 52.2523C118.618 52.6899 119.299 52.9086 120.124 52.9086ZM128.94 41.5242H131.489L136.033 50.1824H136.109L140.653 41.5242H143.227V54.3979H141.082V47.3048L141.183 44.8815H141.082L136.841 52.7824H135.326L131.06 44.8815H130.959L131.06 47.3048V54.3979H128.94V41.5242ZM150.132 54.8018C149.19 54.8018 148.348 54.6167 147.608 54.2465C146.868 53.8763 146.295 53.3714 145.892 52.7319C145.488 52.0756 145.286 51.3352 145.286 50.5106C145.286 49.1475 145.799 48.0873 146.825 47.33C147.852 46.5559 149.148 46.1689 150.713 46.1689C151.487 46.1689 152.202 46.253 152.858 46.4213C153.532 46.5896 154.045 46.7831 154.398 47.0019V46.2193C154.398 45.2601 154.062 44.4944 153.389 43.9223C152.715 43.3333 151.866 43.0388 150.839 43.0388C150.115 43.0388 149.451 43.1986 148.845 43.5184C148.239 43.8213 147.759 44.2504 147.406 44.8058L145.791 43.5941C146.295 42.82 146.985 42.2142 147.86 41.7766C148.752 41.3391 149.737 41.1203 150.814 41.1203C152.564 41.1203 153.935 41.5831 154.928 42.5087C155.938 43.4174 156.443 44.6627 156.443 46.2446V54.3979H154.398V52.5552H154.297C153.927 53.1779 153.372 53.708 152.631 54.1455C151.891 54.5831 151.058 54.8018 150.132 54.8018ZM150.334 52.9086C151.058 52.9086 151.731 52.7235 152.354 52.3533C152.976 51.9831 153.473 51.4866 153.843 50.864C154.213 50.2413 154.398 49.5598 154.398 48.8193C153.994 48.5501 153.498 48.3313 152.909 48.163C152.32 47.9947 151.697 47.9106 151.041 47.9106C149.863 47.9106 148.971 48.1546 148.365 48.6426C147.776 49.1307 147.482 49.7617 147.482 50.5358C147.482 51.2426 147.751 51.8148 148.29 52.2523C148.828 52.6899 149.51 52.9086 150.334 52.9086Z" fill="#5F6368"/>
<path d="M69.845 27.2646C67.0334 27.2651 64.3339 26.1648 62.3272 24.2003C60.3205 22.2359 59.167 19.5642 59.1147 16.7601C59.141 13.9387 60.2831 11.2417 62.2926 9.25592C64.3021 7.2701 67.0163 6.15609 69.845 6.15621C71.1871 6.1357 72.5199 6.3824 73.7653 6.88188C75.0107 7.38136 76.1438 8.1236 77.0982 9.06515L75.0668 11.1039C73.6655 9.75848 71.7898 9.0172 69.845 9.04028C67.8576 9.12008 65.9782 9.96373 64.6003 11.3946C63.2224 12.8255 62.4529 14.7326 62.4529 16.7166C62.4529 18.7007 63.2224 20.6078 64.6003 22.0387C65.9782 23.4695 67.8576 24.3132 69.845 24.393C70.8365 24.4322 71.8253 24.2644 72.748 23.9005C73.6708 23.5366 74.5073 22.9846 75.2039 22.2797C76.1202 21.2781 76.677 20.0012 76.7866 18.6497H69.82V15.691H79.5782C79.6887 16.3106 79.743 16.9389 79.7402 17.5682C79.8228 20.0525 78.9283 22.4706 77.2477 24.306C76.2962 25.2964 75.1434 26.0728 73.8668 26.583C72.5901 27.0932 71.2189 27.3256 69.845 27.2646Z" fill="#4285F4"/>
<path d="M95.1437 20.4887C95.1487 21.8395 94.7516 23.1615 94.0028 24.2871C93.254 25.4127 92.1872 26.2913 90.9374 26.8116C89.6877 27.332 88.3112 27.4707 86.9824 27.2102C85.6535 26.9497 84.4321 26.3016 83.4727 25.3482C82.5134 24.3947 81.8593 23.1787 81.5933 21.8541C81.3272 20.5296 81.4613 19.1561 81.9784 17.9075C82.4955 16.659 83.3724 15.5917 84.4981 14.8406C85.6238 14.0896 86.9476 13.6887 88.3018 13.6887C89.2024 13.6737 90.0968 13.8391 90.9321 14.1752C91.7673 14.5112 92.5265 15.0112 93.1645 15.6453C93.8026 16.2794 94.3065 17.0348 94.6465 17.8668C94.9864 18.6987 95.1555 19.5903 95.1437 20.4887ZM92.1527 20.4887C92.1956 19.9582 92.1278 19.4247 91.9537 18.9217C91.7796 18.4187 91.5029 17.9571 91.1412 17.566C90.7794 17.1749 90.3403 16.8628 89.8517 16.6493C89.363 16.4359 88.8353 16.3256 88.3018 16.3256C87.7684 16.3256 87.2407 16.4359 86.752 16.6493C86.2633 16.8628 85.8243 17.1749 85.4625 17.566C85.1007 17.9571 84.8241 18.4187 84.65 18.9217C84.4759 19.4247 84.4081 19.9582 84.4509 20.4887C84.4081 21.0191 84.4759 21.5526 84.65 22.0556C84.8241 22.5586 85.1007 23.0202 85.4625 23.4113C85.8243 23.8024 86.2633 24.1145 86.752 24.328C87.2407 24.5414 87.7684 24.6517 88.3018 24.6517C88.8353 24.6517 89.363 24.5414 89.8517 24.328C90.3403 24.1145 90.7794 23.8024 91.1412 23.4113C91.5029 23.0202 91.7796 22.5586 91.9537 22.0556C92.1278 21.5526 92.1956 21.0191 92.1527 20.4887Z" fill="#EA4335"/>
<path d="M110.659 20.49C110.662 21.8425 110.261 23.1652 109.509 24.2902C108.756 25.4152 107.686 26.2919 106.433 26.8088C105.18 27.3258 103.801 27.4598 102.472 27.1938C101.143 26.9278 99.9224 26.2738 98.9663 25.3149C98.0102 24.3559 97.3613 23.1353 97.1019 21.8078C96.8426 20.4803 96.9845 19.1059 97.5096 17.859C98.0347 16.6121 98.9194 15.5489 100.051 14.8045C101.183 14.06 102.512 13.6678 103.867 13.6777C104.765 13.6676 105.656 13.8372 106.487 14.1764C107.318 14.5157 108.073 15.0177 108.706 15.6528C109.339 16.2879 109.838 17.0432 110.174 17.8741C110.509 18.7049 110.674 19.5944 110.659 20.49ZM107.668 20.49C107.698 19.968 107.621 19.4455 107.441 18.9543C107.261 18.4632 106.983 18.0138 106.623 17.6338C106.263 17.2537 105.829 16.9509 105.348 16.744C104.867 16.5371 104.348 16.4303 103.824 16.4303C103.3 16.4303 102.781 16.5371 102.3 16.744C101.818 16.9509 101.384 17.2537 101.024 17.6338C100.664 18.0138 100.386 18.4632 100.206 18.9543C100.027 19.4455 99.9492 19.968 99.979 20.49C99.9492 21.012 100.027 21.5346 100.206 22.0257C100.386 22.5169 100.664 22.9662 101.024 23.3463C101.384 23.7264 101.818 24.0292 102.3 24.2361C102.781 24.443 103.3 24.5498 103.824 24.5498C104.348 24.5498 104.867 24.443 105.348 24.2361C105.829 24.0292 106.263 23.7264 106.623 23.3463C106.983 22.9662 107.261 22.5169 107.441 22.0257C107.621 21.5346 107.698 21.012 107.668 20.49Z" fill="#FBBC05"/>
<path d="M125.452 14.0868V26.2944C125.452 31.2669 122.486 33.3678 118.984 33.3678C117.691 33.3738 116.425 32.9949 115.348 32.2797C114.272 31.5645 113.433 30.5453 112.94 29.3525L115.545 28.2709C115.808 28.9729 116.276 29.5797 116.89 30.0121C117.503 30.4445 118.233 30.6825 118.984 30.695C121.228 30.695 122.623 29.3027 122.623 26.7046V25.7225H122.561C122.111 26.2246 121.557 26.6227 120.937 26.8889C120.317 27.1552 119.647 27.2832 118.972 27.264C117.216 27.1891 115.557 26.4405 114.341 25.1747C113.125 23.9088 112.446 22.2234 112.446 20.4703C112.446 18.7171 113.125 17.0317 114.341 15.7659C115.557 14.5 117.216 13.7515 118.972 13.6765C119.644 13.6584 120.312 13.7844 120.932 14.046C121.551 14.3077 122.106 14.6989 122.561 15.1932H122.673V14.0868H125.452ZM122.823 20.4889C122.867 19.9759 122.807 19.4594 122.646 18.97C122.486 18.4807 122.228 18.0288 121.888 17.6411C121.549 17.2535 121.134 16.9382 120.669 16.7141C120.205 16.49 119.699 16.3617 119.184 16.3368C118.665 16.3639 118.156 16.4928 117.687 16.7162C117.218 16.9397 116.798 17.2532 116.451 17.6389C116.103 18.0246 115.836 18.4749 115.663 18.964C115.491 19.453 115.416 19.9712 115.445 20.4889C115.42 21.0027 115.497 21.5163 115.671 22.0003C115.846 22.4843 116.115 22.9291 116.462 23.3092C116.809 23.6892 117.229 23.9971 117.696 24.215C118.163 24.4328 118.669 24.5565 119.184 24.5788C119.695 24.5587 120.198 24.4356 120.66 24.2171C121.123 23.9986 121.537 23.689 121.877 23.3071C122.216 22.9251 122.475 22.4786 122.638 21.9943C122.801 21.51 122.863 20.998 122.823 20.4889Z" fill="#4285F4"/>
<path d="M131.347 6.87842V26.8556H128.356V6.87842H131.347Z" fill="#34A853"/>
<path d="M143.548 22.7141L145.866 24.2183C145.242 25.15 144.397 25.9127 143.405 26.4377C142.413 26.9628 141.306 27.2339 140.183 27.2267C139.293 27.2384 138.409 27.0721 137.584 26.7376C136.759 26.4032 136.01 25.9073 135.38 25.2793C134.751 24.6513 134.254 23.9039 133.918 23.0811C133.583 22.2584 133.416 21.377 133.428 20.4889C133.383 19.6174 133.515 18.7457 133.816 17.9264C134.117 17.1072 134.582 16.3572 135.182 15.7218C135.781 15.0864 136.504 14.5788 137.306 14.2294C138.107 13.88 138.972 13.6962 139.846 13.689C141.145 13.7226 142.402 14.1548 143.446 14.9267C144.49 15.6986 145.269 16.7727 145.679 18.0026L145.99 18.7734L136.88 22.5028C137.16 23.1375 137.624 23.6737 138.213 24.0417C138.802 24.4097 139.488 24.5925 140.183 24.5664C140.856 24.5725 141.52 24.4052 142.109 24.0807C142.698 23.7562 143.194 23.2855 143.548 22.7141ZM136.394 20.2279L142.488 17.7416C142.256 17.2874 141.898 16.9097 141.455 16.6539C141.013 16.3981 140.506 16.275 139.996 16.2995C139.496 16.3168 139.005 16.434 138.551 16.6441C138.097 16.8542 137.69 17.153 137.355 17.5228C137.019 17.8926 136.761 18.3258 136.596 18.7969C136.431 19.2679 136.362 19.7672 136.394 20.2651V20.2279Z" fill="#EA4335"/>
<path d="M19.9374 13.6084L3.36914 42.3046L17.7185 50.5894L34.2867 21.8932L19.9374 13.6084Z" fill="#FBBC04"/>
<path d="M50.8557 42.3017L34.286 13.6049C31.9984 9.64256 26.9318 8.28412 22.9694 10.5717C19.0071 12.8593 17.6486 17.926 19.9362 21.8883L36.5059 50.5851C38.7935 54.5475 43.8601 55.9031 47.8225 53.6183C51.7848 51.3307 53.1405 46.2641 50.8557 42.3017Z" fill="#4285F4"/>
<path d="M10.5456 54.7284C15.1204 54.7284 18.829 51.0198 18.829 46.445C18.829 41.8702 15.1204 38.1616 10.5456 38.1616C5.97082 38.1616 2.26221 41.8702 2.26221 46.445C2.26221 51.0198 5.97082 54.7284 10.5456 54.7284Z" fill="#34A853"/>
</svg>
