<svg width="158" height="67" viewBox="0 0 158 67" fill="none" xmlns="http://www.w3.org/2000/svg">
<g clip-path="url(#clip0_101_505)">
<path d="M58.3333 1.48706H99.6667C105.933 1.48706 111 6.64652 111 13.028V53.489C111 59.8705 105.933 65.0299 99.6667 65.0299H58.3333C52.0667 65.0299 47 59.8705 47 53.489V13.028C47 6.64652 52.0667 1.48706 58.3333 1.48706Z" fill="#330000"/>
<path d="M78.945 39.7697H68.7007L66.6078 46.1958C66.5527 46.4419 66.3324 46.6059 66.0845 46.5786H60.9073C60.6044 46.5786 60.5218 46.4145 60.6044 46.0864L69.4718 20.7377C69.5544 20.4643 69.637 20.1635 69.7472 19.8354C69.8573 19.2611 69.9124 18.6595 69.9124 18.058C69.8849 17.9212 69.995 17.7845 70.1327 17.7572H77.2652C77.4855 17.7572 77.5956 17.8392 77.6232 17.9759L87.6747 46.1411C87.7573 46.4419 87.6747 46.5786 87.3993 46.5786H81.6438C81.451 46.6059 81.2583 46.4692 81.2032 46.2778L78.945 39.7697ZM70.2979 34.2187H77.2927C77.1275 33.6445 76.9072 32.9609 76.6593 32.2499C76.4115 31.5116 76.1636 30.7186 75.9158 29.8983C75.6404 29.0506 75.3926 28.2302 75.1172 27.3825C74.8418 26.5348 74.5939 25.7418 74.3736 24.9488C74.1533 24.1832 73.9606 23.4722 73.7678 22.816H73.7127C73.4649 23.9918 73.1619 25.1676 72.7764 26.3434C72.3633 27.656 71.9502 29.0232 71.5096 30.3905C71.1241 31.7851 70.711 33.0703 70.2979 34.2187ZM93.8158 22.5425C92.907 22.5698 92.0258 22.2144 91.3649 21.5854C90.7315 20.9018 90.401 19.9994 90.4286 19.0697C90.401 18.14 90.759 17.265 91.42 16.636C92.0809 16.0071 92.9621 15.679 93.8709 15.679C94.9449 15.679 95.771 16.0071 96.3769 16.636C96.9827 17.2923 97.3132 18.1673 97.2856 19.0697C97.3132 19.9994 96.9827 20.9018 96.3218 21.5854C95.6884 22.2417 94.7521 22.5972 93.8158 22.5425ZM90.7315 46.2778V25.2223C90.7315 24.9488 90.8416 24.8395 91.0895 24.8395H96.5421C96.79 24.8395 96.9001 24.9762 96.9001 25.2223V46.2778C96.9001 46.5786 96.79 46.7153 96.5421 46.7153H91.1446C90.8692 46.7153 90.7315 46.5513 90.7315 46.2778Z" fill="#FF9A00"/>
</g>
<defs>
<clipPath id="clip0_101_505">
<rect width="140" height="64" fill="white" transform="translate(9 1.48047)"/>
</clipPath>
</defs>
</svg>
