<svg width="158" height="67" viewBox="0 0 158 67" fill="none" xmlns="http://www.w3.org/2000/svg">
<g clip-path="url(#clip0_101_408)">
<rect width="64" height="64" transform="translate(46.5 1.48047)" fill="white"/>
<path d="M51.0488 33.4796C51.0488 44.3461 57.3635 53.7359 66.5203 58.1863L53.4255 22.3076C51.8558 25.8228 51.0459 29.6298 51.0488 33.4796ZM97.0324 32.0944C97.0324 28.7017 95.8138 26.3522 94.7686 24.5234C93.377 22.2622 92.0732 20.3472 92.0732 18.086C92.0732 15.5625 93.9866 13.2135 96.6824 13.2135C96.8042 13.2135 96.9196 13.2286 97.0387 13.2354C92.1542 8.76095 85.6473 6.02905 78.5005 6.02905C68.9101 6.02905 60.4726 10.9496 55.564 18.4025C56.2081 18.4218 56.8156 18.4349 57.3306 18.4349C60.202 18.4349 64.6467 18.0865 64.6467 18.0865C66.1265 17.9992 66.301 20.1727 64.8232 20.3477C64.8232 20.3477 63.3356 20.5227 61.6808 20.6094L71.6775 50.3443L77.6856 32.3268L73.4081 20.6089C71.9298 20.5222 70.5294 20.3472 70.5294 20.3472C69.0501 20.2605 69.2235 17.9987 70.7028 18.086C70.7028 18.086 75.2363 18.4344 77.9337 18.4344C80.8046 18.4344 85.2498 18.086 85.2498 18.086C86.7306 17.9987 86.9046 20.1722 85.4258 20.3472C85.4258 20.3472 83.9355 20.5222 82.2838 20.6089L92.2043 50.1186L94.942 40.9686C96.1293 37.1716 97.0324 34.4444 97.0324 32.0944Z" fill="#4285F4"/>
<path d="M78.982 35.8809L70.7456 59.8139C73.2637 60.556 75.8753 60.9328 78.5004 60.9328C81.6972 60.9328 84.7629 60.3797 87.6165 59.3767C87.54 59.2569 87.4746 59.1303 87.4211 58.9986L78.982 35.8809ZM102.588 20.3091C102.706 21.1835 102.773 22.1227 102.773 23.1319C102.773 25.9176 102.253 29.0491 100.686 32.9646L92.3004 57.2085C100.462 52.4493 105.951 43.6075 105.951 33.4796C105.958 28.8761 104.802 24.3455 102.588 20.3091Z" fill="#4285F4"/>
<path d="M78.5003 1.48047C60.8558 1.48047 46.5 15.8352 46.5 33.4797C46.5 51.1262 60.8553 65.481 78.5003 65.481C96.1443 65.481 110.502 51.1268 110.502 33.4797C110.502 15.8352 96.1443 1.48047 78.5003 1.48047ZM78.5003 64.0137C61.6649 64.0137 47.9673 50.3161 47.9673 33.4797C47.9673 16.6448 61.6644 2.94827 78.5003 2.94827C95.3351 2.94827 109.032 16.6448 109.032 33.4797C109.032 50.3161 95.3346 64.0137 78.5003 64.0137Z" fill="#4285F4"/>
</g>
<defs>
<clipPath id="clip0_101_408">
<rect width="64" height="64" fill="white" transform="translate(46.5 1.48047)"/>
</clipPath>
</defs>
</svg>
