<svg width="96" height="96" viewBox="0 0 96 96" fill="none" xmlns="http://www.w3.org/2000/svg">
<path d="M73.5 51C73.1022 51 72.7206 51.158 72.4393 51.4393C72.158 51.7206 72 52.1022 72 52.5V78H24V13.5H39.1252C39.479 15.5979 40.5644 17.5027 42.1891 18.8764C43.8137 20.25 45.8725 21.0037 48 21.0037C50.1275 21.0037 52.1863 20.25 53.8109 18.8764C55.4356 17.5027 56.521 15.5979 56.8747 13.5H72V43.5C72 43.8978 72.158 44.2794 72.4393 44.5607C72.7206 44.842 73.1022 45 73.5 45C73.8978 45 74.2794 44.842 74.5607 44.5607C74.842 44.2794 75 43.8978 75 43.5V9C74.9983 7.40921 74.3657 5.88406 73.2408 4.7592C72.1159 3.63434 70.5908 3.00167 69 3H27C25.4092 3.00179 23.8842 3.6345 22.7593 4.75933C21.6345 5.88416 21.0018 7.40925 21 9V87C21.0018 88.5908 21.6345 90.1158 22.7593 91.2407C23.8842 92.3655 25.4092 92.9982 27 93H69C70.5908 92.9983 72.1159 92.3657 73.2408 91.2408C74.3657 90.1159 74.9983 88.5908 75 87V52.5C75 52.1022 74.842 51.7206 74.5607 51.4393C74.2794 51.158 73.8978 51 73.5 51ZM27 6H69C69.7954 6.00091 70.5579 6.31728 71.1203 6.87969C71.6827 7.4421 71.9991 8.20463 72 9V10.5H55.5C55.1022 10.5 54.7206 10.658 54.4393 10.9393C54.158 11.2206 54 11.6022 54 12C54 13.5913 53.3679 15.1174 52.2426 16.2426C51.1174 17.3679 49.5913 18 48 18C46.4087 18 44.8826 17.3679 43.7574 16.2426C42.6321 15.1174 42 13.5913 42 12C42 11.6022 41.842 11.2206 41.5607 10.9393C41.2794 10.658 40.8978 10.5 40.5 10.5H24V9C24.0008 8.20459 24.3171 7.44199 24.8796 6.87956C25.442 6.31712 26.2046 6.00079 27 6ZM69 90H27C26.2046 89.9992 25.442 89.6829 24.8796 89.1204C24.3171 88.558 24.0008 87.7954 24 87V81H72V87C71.9991 87.7954 71.6827 88.5579 71.1203 89.1203C70.5579 89.6827 69.7954 89.9991 69 90Z" fill="#FF5C39"/>
<path d="M48 15C49.6569 15 51 13.6569 51 12C51 10.3431 49.6569 9 48 9C46.3431 9 45 10.3431 45 12C45 13.6569 46.3431 15 48 15Z" fill="#FF5C39"/>
<path d="M51 84H45C44.6022 84 44.2206 84.158 43.9393 84.4393C43.658 84.7206 43.5 85.1022 43.5 85.5C43.5 85.8978 43.658 86.2794 43.9393 86.5607C44.2206 86.842 44.6022 87 45 87H51C51.3978 87 51.7794 86.842 52.0607 86.5607C52.342 86.2794 52.5 85.8978 52.5 85.5C52.5 85.1022 52.342 84.7206 52.0607 84.4393C51.7794 84.158 51.3978 84 51 84Z" fill="#FF5C39"/>
<path d="M48 37.5C46.8133 37.5 45.6533 37.8519 44.6666 38.5112C43.6799 39.1705 42.9109 40.1075 42.4567 41.2039C42.0026 42.3003 41.8838 43.5067 42.1153 44.6705C42.3468 45.8344 42.9182 46.9035 43.7574 47.7426C44.5965 48.5818 45.6656 49.1532 46.8295 49.3847C47.9933 49.6162 49.1997 49.4974 50.2961 49.0433C51.3925 48.5891 52.3295 47.8201 52.9888 46.8334C53.6481 45.8467 54 44.6867 54 43.5C53.9982 41.9092 53.3655 40.3842 52.2407 39.2593C51.1158 38.1345 49.5908 37.5018 48 37.5ZM48 46.5C47.4067 46.5 46.8266 46.3241 46.3333 45.9944C45.8399 45.6648 45.4554 45.1962 45.2284 44.648C45.0013 44.0999 44.9419 43.4967 45.0576 42.9147C45.1734 42.3328 45.4591 41.7982 45.8787 41.3787C46.2982 40.9591 46.8328 40.6734 47.4147 40.5576C47.9967 40.4419 48.5999 40.5013 49.1481 40.7284C49.6962 40.9554 50.1648 41.3399 50.4944 41.8333C50.8241 42.3266 51 42.9067 51 43.5C50.9992 44.2954 50.6829 45.058 50.1204 45.6204C49.558 46.1829 48.7954 46.4992 48 46.5Z" fill="#FF5C39"/>
</svg>
