<svg width="224" height="67" viewBox="0 0 224 67" fill="none" xmlns="http://www.w3.org/2000/svg">
<g clip-path="url(#clip0_1880_313230)">
<rect width="224" height="67" fill="white"/>
<path d="M209 0.42041H0V67.4204H209V0.42041Z" fill="white"/>
<path d="M17.4851 0.927246H0V67.0507H17.4851V0.927246Z" fill="#FF5C39"/>
<path d="M29.3324 58.8125V54.5938H30.1506C30.3509 54.3849 30.5234 54.1591 30.6683 53.9162C30.8132 53.6733 30.9389 53.3857 31.0455 53.0533C31.1563 52.7166 31.25 52.3075 31.3267 51.826C31.4034 51.3402 31.4716 50.7543 31.5312 50.0682L31.8636 46.1818H38.1023V54.5938H39.6108V58.8125H38.1023V56H30.8409V58.8125H29.3324ZM31.8636 54.5938H36.5938V47.5881H33.2699L33.0142 50.0682C32.9077 51.0952 32.7756 51.9922 32.6179 52.7592C32.4602 53.5263 32.2088 54.1378 31.8636 54.5938ZM45.6017 56.2045C44.7154 56.2045 43.9377 55.9936 43.2686 55.5717C42.6039 55.1499 42.084 54.5597 41.709 53.8011C41.3382 53.0426 41.1529 52.1562 41.1529 51.142C41.1529 50.1193 41.3382 49.2266 41.709 48.4638C42.084 47.701 42.6039 47.1087 43.2686 46.6868C43.9377 46.2649 44.7154 46.054 45.6017 46.054C46.4881 46.054 47.2637 46.2649 47.9284 46.6868C48.5975 47.1087 49.1174 47.701 49.4881 48.4638C49.8631 49.2266 50.0506 50.1193 50.0506 51.142C50.0506 52.1562 49.8631 53.0426 49.4881 53.8011C49.1174 54.5597 48.5975 55.1499 47.9284 55.5717C47.2637 55.9936 46.4881 56.2045 45.6017 56.2045ZM45.6017 54.8494C46.275 54.8494 46.829 54.6768 47.2637 54.3317C47.6983 53.9865 48.0201 53.5327 48.2289 52.9702C48.4377 52.4077 48.5421 51.7983 48.5421 51.142C48.5421 50.4858 48.4377 49.8743 48.2289 49.3075C48.0201 48.7408 47.6983 48.2827 47.2637 47.9332C46.829 47.5838 46.275 47.4091 45.6017 47.4091C44.9284 47.4091 44.3745 47.5838 43.9398 47.9332C43.5051 48.2827 43.1834 48.7408 42.9746 49.3075C42.7658 49.8743 42.6614 50.4858 42.6614 51.142C42.6614 51.7983 42.7658 52.4077 42.9746 52.9702C43.1834 53.5327 43.5051 53.9865 43.9398 54.3317C44.3745 54.6768 44.9284 54.8494 45.6017 54.8494ZM52.3533 56V46.1818H56.3675C57.4244 46.1818 58.2638 46.4205 58.886 46.8977C59.5082 47.375 59.8192 48.0057 59.8192 48.7898C59.8192 49.3864 59.6424 49.8487 59.2887 50.1768C58.935 50.5007 58.4812 50.7202 57.9272 50.8352C58.2894 50.8864 58.641 51.0142 58.9819 51.2188C59.3271 51.4233 59.6126 51.7045 59.8384 52.0625C60.0643 52.4162 60.1772 52.8509 60.1772 53.3665C60.1772 53.8693 60.0494 54.3189 59.7937 54.7152C59.538 55.1115 59.1715 55.4247 58.6942 55.6548C58.217 55.8849 57.646 56 56.9812 56H52.3533ZM53.7852 54.6193H56.9812C57.5011 54.6193 57.908 54.4957 58.2021 54.2486C58.4961 54.0014 58.6431 53.6648 58.6431 53.2386C58.6431 52.7315 58.4961 52.3331 58.2021 52.0433C57.908 51.7493 57.5011 51.6023 56.9812 51.6023H53.7852V54.6193ZM53.7852 50.2983H56.3675C56.7724 50.2983 57.1197 50.2429 57.4094 50.1321C57.6992 50.017 57.9208 49.8551 58.0742 49.6463C58.2319 49.4332 58.3107 49.1818 58.3107 48.892C58.3107 48.4787 58.1381 48.1548 57.793 47.9205C57.4478 47.6818 56.9727 47.5625 56.3675 47.5625H53.7852V50.2983ZM66.4494 56.2045C65.563 56.2045 64.7853 55.9936 64.1163 55.5717C63.4515 55.1499 62.9316 54.5597 62.5566 53.8011C62.1859 53.0426 62.0005 52.1562 62.0005 51.142C62.0005 50.1193 62.1859 49.2266 62.5566 48.4638C62.9316 47.701 63.4515 47.1087 64.1163 46.6868C64.7853 46.2649 65.563 46.054 66.4494 46.054C67.3358 46.054 68.1113 46.2649 68.7761 46.6868C69.4451 47.1087 69.965 47.701 70.3358 48.4638C70.7108 49.2266 70.8983 50.1193 70.8983 51.142C70.8983 52.1562 70.7108 53.0426 70.3358 53.8011C69.965 54.5597 69.4451 55.1499 68.7761 55.5717C68.1113 55.9936 67.3358 56.2045 66.4494 56.2045ZM66.4494 54.8494C67.1227 54.8494 67.6767 54.6768 68.1113 54.3317C68.546 53.9865 68.8677 53.5327 69.0765 52.9702C69.2853 52.4077 69.3897 51.7983 69.3897 51.142C69.3897 50.4858 69.2853 49.8743 69.0765 49.3075C68.8677 48.7408 68.546 48.2827 68.1113 47.9332C67.6767 47.5838 67.1227 47.4091 66.4494 47.4091C65.7761 47.4091 65.2221 47.5838 64.7875 47.9332C64.3528 48.2827 64.0311 48.7408 63.8223 49.3075C63.6135 49.8743 63.5091 50.4858 63.5091 51.142C63.5091 51.7983 63.6135 52.4077 63.8223 52.9702C64.0311 53.5327 64.3528 53.9865 64.7875 54.3317C65.2221 54.6768 65.7761 54.8494 66.4494 54.8494ZM72.3317 56V54.5938H72.6896C72.9837 54.5938 73.2287 54.5362 73.4247 54.4212C73.6207 54.3018 73.7784 54.0952 73.8977 53.8011C74.0213 53.5028 74.1151 53.0895 74.179 52.5611C74.2472 52.0284 74.2962 51.3509 74.326 50.5284L74.505 46.1818H81.0504V56H79.5419V47.5881H75.9368L75.7834 51.0909C75.7493 51.8963 75.6768 52.6058 75.5661 53.2195C75.4595 53.8288 75.2955 54.3402 75.0739 54.7536C74.8565 55.1669 74.5668 55.478 74.2045 55.6868C73.8423 55.8956 73.3885 56 72.843 56H72.3317ZM85.1222 49.7358H87.9347C89.0852 49.7358 89.9652 50.0277 90.5746 50.6115C91.1839 51.1953 91.4886 51.9347 91.4886 52.8295C91.4886 53.4176 91.3523 53.9524 91.0795 54.4339C90.8068 54.9112 90.4063 55.2926 89.8778 55.5781C89.3494 55.8594 88.7017 56 87.9347 56H83.8182V46.1818H85.3267V54.5938H87.9347C88.5313 54.5938 89.0213 54.4361 89.4048 54.1207C89.7884 53.8054 89.9801 53.4006 89.9801 52.9062C89.9801 52.3864 89.7884 51.9624 89.4048 51.6342C89.0213 51.3061 88.5313 51.142 87.9347 51.142H85.1222V49.7358ZM100.356 50.4006V51.8068H94.9355V50.4006H100.356ZM95.2935 46.1818V56H93.785V46.1818H95.2935ZM101.507 46.1818V56H99.998V46.1818H101.507ZM105.566 49.7358H108.378C109.529 49.7358 110.409 50.0277 111.018 50.6115C111.627 51.1953 111.932 51.9347 111.932 52.8295C111.932 53.4176 111.796 53.9524 111.523 54.4339C111.25 54.9112 110.85 55.2926 110.321 55.5781C109.793 55.8594 109.145 56 108.378 56H104.262V46.1818H105.77V54.5938H108.378C108.975 54.5938 109.465 54.4361 109.848 54.1207C110.232 53.8054 110.423 53.4006 110.423 52.9062C110.423 52.3864 110.232 51.9624 109.848 51.6342C109.465 51.3061 108.975 51.142 108.378 51.142H105.566V49.7358ZM113.492 56V46.1818H115V56H113.492ZM118.887 46.1818L121.239 50.196L123.591 46.1818H125.33L122.159 51.0909L125.33 56H123.591L121.239 52.1903L118.887 56H117.148L120.267 51.0909L117.148 46.1818H118.887ZM132.545 56V46.1818H134.053V50.4517H135.05L138.579 46.1818H140.522L136.559 50.9119L140.573 56H138.63L135.408 51.858H134.053V56H132.545ZM141.343 56V54.5938H141.701C141.995 54.5938 142.24 54.5362 142.436 54.4212C142.632 54.3018 142.79 54.0952 142.909 53.8011C143.033 53.5028 143.127 53.0895 143.191 52.5611C143.259 52.0284 143.308 51.3509 143.338 50.5284L143.517 46.1818H150.062V56H148.554V47.5881H144.949L144.795 51.0909C144.761 51.8963 144.689 52.6058 144.578 53.2195C144.471 53.8288 144.307 54.3402 144.086 54.7536C143.868 55.1669 143.578 55.478 143.216 55.6868C142.854 55.8956 142.4 56 141.855 56H141.343ZM154.338 53.7756L159.069 46.1818H160.807V56H159.299V48.4062L154.594 56H152.83V46.1818H154.338V53.7756ZM167.687 56.2045C166.741 56.2045 165.925 55.9957 165.238 55.5781C164.557 55.1562 164.03 54.5682 163.66 53.8139C163.293 53.0554 163.11 52.1733 163.11 51.1676C163.11 50.1619 163.293 49.2756 163.66 48.5085C164.03 47.7372 164.546 47.1364 165.206 46.706C165.871 46.2713 166.647 46.054 167.533 46.054C168.045 46.054 168.55 46.1392 169.048 46.3097C169.547 46.4801 170.001 46.7571 170.41 47.1406C170.819 47.5199 171.145 48.0227 171.388 48.6491C171.631 49.2756 171.752 50.0469 171.752 50.9631V51.6023H164.184V50.2983H170.218C170.218 49.7443 170.107 49.25 169.885 48.8153C169.668 48.3807 169.357 48.0376 168.952 47.7862C168.552 47.5348 168.079 47.4091 167.533 47.4091C166.932 47.4091 166.412 47.5582 165.974 47.8565C165.539 48.1506 165.204 48.5341 164.97 49.0071C164.736 49.4801 164.618 49.9872 164.618 50.5284V51.3977C164.618 52.1392 164.746 52.7678 165.002 53.2834C165.262 53.7947 165.622 54.1847 166.082 54.4531C166.542 54.7173 167.077 54.8494 167.687 54.8494C168.083 54.8494 168.441 54.794 168.76 54.6832C169.084 54.5682 169.363 54.3977 169.598 54.1719C169.832 53.9418 170.013 53.6562 170.141 53.3153L171.599 53.7244C171.445 54.2188 171.187 54.6534 170.825 55.0284C170.463 55.3991 170.015 55.6889 169.483 55.8977C168.95 56.1023 168.351 56.2045 167.687 56.2045ZM180.618 50.4006V51.8068H175.197V50.4006H180.618ZM175.555 46.1818V56H174.047V46.1818H175.555ZM181.768 46.1818V56H180.26V46.1818H181.768ZM183.187 47.5881V46.1818H191.165V47.5881H187.943V56H186.434V47.5881H183.187ZM196.844 56.2045C195.958 56.2045 195.18 55.9936 194.511 55.5717C193.846 55.1499 193.326 54.5597 192.951 53.8011C192.58 53.0426 192.395 52.1562 192.395 51.142C192.395 50.1193 192.58 49.2266 192.951 48.4638C193.326 47.701 193.846 47.1087 194.511 46.6868C195.18 46.2649 195.958 46.054 196.844 46.054C197.73 46.054 198.506 46.2649 199.171 46.6868C199.84 47.1087 200.36 47.701 200.73 48.4638C201.105 49.2266 201.293 50.1193 201.293 51.142C201.293 52.1562 201.105 53.0426 200.73 53.8011C200.36 54.5597 199.84 55.1499 199.171 55.5717C198.506 55.9936 197.73 56.2045 196.844 56.2045ZM196.844 54.8494C197.517 54.8494 198.071 54.6768 198.506 54.3317C198.941 53.9865 199.262 53.5327 199.471 52.9702C199.68 52.4077 199.784 51.7983 199.784 51.142C199.784 50.4858 199.68 49.8743 199.471 49.3075C199.262 48.7408 198.941 48.2827 198.506 47.9332C198.071 47.5838 197.517 47.4091 196.844 47.4091C196.171 47.4091 195.617 47.5838 195.182 47.9332C194.747 48.2827 194.426 48.7408 194.217 49.3075C194.008 49.8743 193.904 50.4858 193.904 51.142C193.904 51.7983 194.008 52.4077 194.217 52.9702C194.426 53.5327 194.747 53.9865 195.182 54.3317C195.617 54.6768 196.171 54.8494 196.844 54.8494ZM203.596 56V46.1818H207.61C208.667 46.1818 209.506 46.4205 210.128 46.8977C210.75 47.375 211.061 48.0057 211.061 48.7898C211.061 49.3864 210.885 49.8487 210.531 50.1768C210.177 50.5007 209.723 50.7202 209.169 50.8352C209.532 50.8864 209.883 51.0142 210.224 51.2188C210.569 51.4233 210.855 51.7045 211.081 52.0625C211.306 52.4162 211.419 52.8509 211.419 53.3665C211.419 53.8693 211.292 54.3189 211.036 54.7152C210.78 55.1115 210.414 55.4247 209.936 55.6548C209.459 55.8849 208.888 56 208.223 56H203.596ZM205.027 54.6193H208.223C208.743 54.6193 209.15 54.4957 209.444 54.2486C209.738 54.0014 209.885 53.6648 209.885 53.2386C209.885 52.7315 209.738 52.3331 209.444 52.0433C209.15 51.7493 208.743 51.6023 208.223 51.6023H205.027V54.6193ZM205.027 50.2983H207.61C208.015 50.2983 208.362 50.2429 208.652 50.1321C208.941 50.017 209.163 49.8551 209.316 49.6463C209.474 49.4332 209.553 49.1818 209.553 48.892C209.553 48.4787 209.38 48.1548 209.035 47.9205C208.69 47.6818 208.215 47.5625 207.61 47.5625H205.027V50.2983Z" fill="#3B3B46"/>
<path d="M39.3068 10.2499C40.5038 10.2499 41.6553 10.4507 42.7614 10.8522C43.875 11.2537 44.8674 11.8939 45.7386 12.7726C46.6174 13.6514 47.3106 14.8181 47.8182 16.2726C48.3333 17.7196 48.5947 19.4961 48.6023 21.6022C48.6023 23.5795 48.3788 25.3446 47.9318 26.8976C47.4924 28.4431 46.8598 29.7575 46.0341 30.8408C45.2083 31.9242 44.2121 32.7499 43.0455 33.3181C41.8788 33.8787 40.5758 34.159 39.1364 34.159C37.5833 34.159 36.2121 33.8598 35.0227 33.2613C33.8333 32.6552 32.875 31.8332 32.1477 30.7954C31.428 29.7499 30.9924 28.5757 30.8409 27.2726H35.6932C35.8826 28.1211 36.2803 28.7802 36.8864 29.2499C37.4924 29.712 38.2424 29.9431 39.1364 29.9431C40.6515 29.9431 41.803 29.284 42.5909 27.9658C43.3788 26.6401 43.7765 24.8257 43.7841 22.5226H43.625C43.2765 23.2045 42.8068 23.7916 42.2159 24.284C41.625 24.7689 40.947 25.1439 40.1818 25.409C39.4242 25.6742 38.6174 25.8067 37.7614 25.8067C36.3902 25.8067 35.1667 25.4848 34.0909 24.8408C33.0152 24.1969 32.1667 23.3105 31.5455 22.1817C30.9242 21.0529 30.6136 19.7651 30.6136 18.3181C30.6061 16.7575 30.9659 15.3673 31.6932 14.1476C32.4205 12.9279 33.4356 11.9734 34.7386 11.284C36.0492 10.587 37.572 10.2423 39.3068 10.2499ZM39.3409 14.1135C38.5758 14.1135 37.8939 14.2954 37.2955 14.659C36.7045 15.0226 36.2348 15.5113 35.8864 16.1249C35.5455 16.7385 35.3788 17.4242 35.3864 18.1817C35.3864 18.9469 35.553 19.6363 35.8864 20.2499C36.2273 20.856 36.6894 21.3408 37.2727 21.7045C37.8636 22.0605 38.5379 22.2385 39.2955 22.2385C39.8636 22.2385 40.3902 22.1325 40.875 21.9204C41.3598 21.7082 41.7803 21.4166 42.1364 21.0454C42.5 20.6666 42.7841 20.231 42.9886 19.7385C43.1932 19.2461 43.2955 18.7234 43.2955 18.1704C43.2879 17.4355 43.1136 16.7613 42.7727 16.1476C42.4318 15.534 41.9621 15.0416 41.3636 14.6704C40.7652 14.2992 40.0909 14.1135 39.3409 14.1135ZM60.5114 34.159C58.9053 34.159 57.4735 33.8635 56.2159 33.2726C54.9659 32.6817 53.9735 31.8673 53.2386 30.8295C52.5038 29.7916 52.1212 28.6022 52.0909 27.2613H56.8636C56.9167 28.1628 57.2955 28.8939 58 29.4545C58.7045 30.0151 59.5417 30.2954 60.5114 30.2954C61.2841 30.2954 61.9659 30.1249 62.5568 29.784C63.1553 29.4355 63.6212 28.9545 63.9545 28.3408C64.2955 27.7196 64.4659 27.0075 64.4659 26.2045C64.4659 25.3863 64.2917 24.6666 63.9432 24.0454C63.6023 23.4242 63.1288 22.9393 62.5227 22.5908C61.9167 22.2423 61.2235 22.0643 60.4432 22.0567C59.7614 22.0567 59.0985 22.1969 58.4545 22.4772C57.8182 22.7575 57.322 23.1401 56.9659 23.6249L52.5909 22.8408L53.6932 10.5681H67.9205V14.5908H57.75L57.1477 20.4204H57.2841C57.6932 19.8446 58.3106 19.3673 59.1364 18.9885C59.9621 18.6098 60.8864 18.4204 61.9091 18.4204C63.3106 18.4204 64.5606 18.7499 65.6591 19.409C66.7576 20.0681 67.625 20.9734 68.2614 22.1249C68.8977 23.2689 69.2121 24.587 69.2045 26.0795C69.2121 27.6476 68.8485 29.0416 68.1136 30.2613C67.3864 31.4734 66.3674 32.4279 65.0568 33.1249C63.7538 33.8143 62.2386 34.159 60.5114 34.159ZM85.375 29.4772V28.2499C85.375 27.3181 85.572 26.462 85.9659 25.6817C86.3674 24.8939 86.947 24.2651 87.7045 23.7954C88.4697 23.3181 89.4015 23.0795 90.5 23.0795C91.6136 23.0795 92.5492 23.3143 93.3068 23.784C94.072 24.2537 94.6477 24.8825 95.0341 25.6704C95.428 26.4507 95.625 27.3105 95.625 28.2499V29.4772C95.625 30.409 95.428 31.2689 95.0341 32.0567C94.6402 32.837 94.0606 33.462 93.2955 33.9317C92.5303 34.409 91.5985 34.6476 90.5 34.6476C89.3864 34.6476 88.4508 34.409 87.6932 33.9317C86.9356 33.462 86.3598 32.837 85.9659 32.0567C85.572 31.2689 85.375 30.409 85.375 29.4772ZM88.6818 28.2499V29.4772C88.6818 30.0151 88.8106 30.5226 89.0682 30.9999C89.3333 31.4772 89.8106 31.7158 90.5 31.7158C91.1894 31.7158 91.6591 31.481 91.9091 31.0113C92.1667 30.5416 92.2955 30.0302 92.2955 29.4772V28.2499C92.2955 27.6969 92.1742 27.1817 91.9318 26.7045C91.6894 26.2272 91.2121 25.9885 90.5 25.9885C89.8182 25.9885 89.3447 26.2272 89.0795 26.7045C88.8144 27.1817 88.6818 27.6969 88.6818 28.2499ZM73.4318 16.159V14.9317C73.4318 13.9923 73.6326 13.1325 74.0341 12.3522C74.4356 11.5643 75.0152 10.9355 75.7727 10.4658C76.5379 9.99612 77.4621 9.76127 78.5455 9.76127C79.6667 9.76127 80.6061 9.99612 81.3636 10.4658C82.1212 10.9355 82.697 11.5643 83.0909 12.3522C83.4848 13.1325 83.6818 13.9923 83.6818 14.9317V16.159C83.6818 17.0984 83.4811 17.9582 83.0795 18.7385C82.6856 19.5189 82.1061 20.1439 81.3409 20.6135C80.5833 21.0757 79.6515 21.3067 78.5455 21.3067C77.4394 21.3067 76.5038 21.0719 75.7386 20.6022C74.9811 20.1249 74.4053 19.4999 74.0114 18.7272C73.625 17.9469 73.4318 17.0908 73.4318 16.159ZM76.7614 14.9317V16.159C76.7614 16.712 76.8902 17.2234 77.1477 17.6931C77.4129 18.1628 77.8788 18.3976 78.5455 18.3976C79.2424 18.3976 79.7159 18.1628 79.9659 17.6931C80.2235 17.2234 80.3523 16.712 80.3523 16.159V14.9317C80.3523 14.3787 80.2311 13.8635 79.9886 13.3863C79.7462 12.909 79.2652 12.6704 78.5455 12.6704C77.8712 12.6704 77.4053 12.9128 77.1477 13.3976C76.8902 13.8825 76.7614 14.3938 76.7614 14.9317ZM74.9318 33.8408L90.9318 10.5681H93.9091L77.9091 33.8408H74.9318Z" fill="#3B3B46"/>
</g>
<defs>
<clipPath id="clip0_1880_313230">
<rect width="224" height="67" fill="white"/>
</clipPath>
</defs>
</svg>
