<svg width="224" height="66" viewBox="0 0 224 66" fill="none" xmlns="http://www.w3.org/2000/svg">
<g clip-path="url(#clip0_1880_313202)">
<rect width="224" height="66" fill="white"/>
<path d="M192.249 0H0V66.1235H192.249V0Z" fill="white"/>
<path d="M17.4851 0.0864258H0V66.2099H17.4851V0.0864258Z" fill="#FF5C39"/>
<path d="M30.3807 58.6818V45.1818H31.8381V46.7415H32.017C32.1278 46.571 32.2813 46.3537 32.4773 46.0895C32.6776 45.821 32.9631 45.5824 33.3338 45.3736C33.7088 45.1605 34.2159 45.054 34.8551 45.054C35.6818 45.054 36.4105 45.2607 37.0412 45.674C37.6719 46.0874 38.1641 46.6733 38.5178 47.4318C38.8714 48.1903 39.0483 49.0852 39.0483 50.1165C39.0483 51.1562 38.8714 52.0575 38.5178 52.8203C38.1641 53.5788 37.674 54.1669 37.0476 54.5845C36.4212 54.9979 35.6989 55.2045 34.8807 55.2045C34.25 55.2045 33.745 55.1001 33.3658 54.8913C32.9865 54.6783 32.6946 54.4375 32.4901 54.169C32.2855 53.8963 32.1278 53.6705 32.017 53.4915H31.8892V58.6818H30.3807ZM31.8636 50.0909C31.8636 50.8324 31.9723 51.4865 32.1896 52.0533C32.407 52.6158 32.7244 53.0568 33.142 53.3764C33.5597 53.6918 34.071 53.8494 34.6761 53.8494C35.3068 53.8494 35.8331 53.6832 36.255 53.3509C36.6811 53.0142 37.0007 52.5625 37.2138 51.9957C37.4311 51.4247 37.5398 50.7898 37.5398 50.0909C37.5398 49.4006 37.4332 48.7784 37.2202 48.2244C37.0114 47.6662 36.6939 47.2251 36.2678 46.9013C35.8459 46.5732 35.3153 46.4091 34.6761 46.4091C34.0625 46.4091 33.5469 46.5646 33.1293 46.8757C32.7116 47.1825 32.3963 47.6129 32.1832 48.1669C31.9702 48.7166 31.8636 49.358 31.8636 50.0909ZM45.3381 55.2045C44.4517 55.2045 43.674 54.9936 43.005 54.5717C42.3402 54.1499 41.8203 53.5597 41.4453 52.8011C41.0746 52.0426 40.8892 51.1562 40.8892 50.142C40.8892 49.1193 41.0746 48.2266 41.4453 47.4638C41.8203 46.701 42.3402 46.1087 43.005 45.6868C43.674 45.2649 44.4517 45.054 45.3381 45.054C46.2244 45.054 47 45.2649 47.6648 45.6868C48.3338 46.1087 48.8537 46.701 49.2244 47.4638C49.5994 48.2266 49.7869 49.1193 49.7869 50.142C49.7869 51.1562 49.5994 52.0426 49.2244 52.8011C48.8537 53.5597 48.3338 54.1499 47.6648 54.5717C47 54.9936 46.2244 55.2045 45.3381 55.2045ZM45.3381 53.8494C46.0114 53.8494 46.5653 53.6768 47 53.3317C47.4347 52.9865 47.7564 52.5327 47.9652 51.9702C48.174 51.4077 48.2784 50.7983 48.2784 50.142C48.2784 49.4858 48.174 48.8743 47.9652 48.3075C47.7564 47.7408 47.4347 47.2827 47 46.9332C46.5653 46.5838 46.0114 46.4091 45.3381 46.4091C44.6648 46.4091 44.1108 46.5838 43.6761 46.9332C43.2415 47.2827 42.9197 47.7408 42.7109 48.3075C42.5021 48.8743 42.3977 49.4858 42.3977 50.142C42.3977 50.7983 42.5021 51.4077 42.7109 51.9702C42.9197 52.5327 43.2415 52.9865 43.6761 53.3317C44.1108 53.6768 44.6648 53.8494 45.3381 53.8494ZM52.0897 55V45.1818H53.5982V49.4517H54.5953L58.1238 45.1818H60.0669L56.1039 49.9119L60.1181 55H58.1749L54.9533 50.858H53.5982V55H52.0897ZM61.7576 55V45.1818H63.2662V55H61.7576ZM62.5247 43.5455C62.2306 43.5455 61.9771 43.4453 61.764 43.245C61.5552 43.0447 61.4508 42.804 61.4508 42.5227C61.4508 42.2415 61.5552 42.0007 61.764 41.8004C61.9771 41.6001 62.2306 41.5 62.5247 41.5C62.8187 41.5 63.0701 41.6001 63.2789 41.8004C63.492 42.0007 63.5985 42.2415 63.5985 42.5227C63.5985 42.804 63.492 43.0447 63.2789 43.245C63.0701 43.4453 62.8187 43.5455 62.5247 43.5455ZM66.0291 55V45.1818H70.0433C71.1001 45.1818 71.9396 45.4205 72.5618 45.8977C73.1839 46.375 73.495 47.0057 73.495 47.7898C73.495 48.3864 73.3182 48.8487 72.9645 49.1768C72.6108 49.5007 72.157 49.7202 71.603 49.8352C71.9652 49.8864 72.3168 50.0142 72.6577 50.2188C73.0028 50.4233 73.2884 50.7045 73.5142 51.0625C73.7401 51.4162 73.853 51.8509 73.853 52.3665C73.853 52.8693 73.7251 53.3189 73.4695 53.7152C73.2138 54.1115 72.8473 54.4247 72.37 54.6548C71.8928 54.8849 71.3217 55 70.657 55H66.0291ZM67.4609 53.6193H70.657C71.1768 53.6193 71.5838 53.4957 71.8778 53.2486C72.1719 53.0014 72.3189 52.6648 72.3189 52.2386C72.3189 51.7315 72.1719 51.3331 71.8778 51.0433C71.5838 50.7493 71.1768 50.6023 70.657 50.6023H67.4609V53.6193ZM67.4609 49.2983H70.0433C70.4482 49.2983 70.7955 49.2429 71.0852 49.1321C71.375 49.017 71.5966 48.8551 71.75 48.6463C71.9077 48.4332 71.9865 48.1818 71.9865 47.892C71.9865 47.4787 71.8139 47.1548 71.4688 46.9205C71.1236 46.6818 70.6484 46.5625 70.0433 46.5625H67.4609V49.2983ZM80.1507 57.8125V53.5938H80.9689C81.1692 53.3849 81.3418 53.1591 81.4867 52.9162C81.6316 52.6733 81.7573 52.3857 81.8638 52.0533C81.9746 51.7166 82.0684 51.3075 82.1451 50.826C82.2218 50.3402 82.29 49.7543 82.3496 49.0682L82.682 45.1818H88.9206V53.5938H90.4292V57.8125H88.9206V55H81.6593V57.8125H80.1507ZM82.682 53.5938H87.4121V46.5881H84.0882L83.8326 49.0682C83.726 50.0952 83.5939 50.9922 83.4363 51.7592C83.2786 52.5263 83.0272 53.1378 82.682 53.5938ZM96.4201 55.2045C95.5337 55.2045 94.756 54.9936 94.087 54.5717C93.4222 54.1499 92.9023 53.5597 92.5273 52.8011C92.1566 52.0426 91.9712 51.1562 91.9712 50.142C91.9712 49.1193 92.1566 48.2266 92.5273 47.4638C92.9023 46.701 93.4222 46.1087 94.087 45.6868C94.756 45.2649 95.5337 45.054 96.4201 45.054C97.3065 45.054 98.082 45.2649 98.7468 45.6868C99.4158 46.1087 99.9357 46.701 100.306 47.4638C100.681 48.2266 100.869 49.1193 100.869 50.142C100.869 51.1562 100.681 52.0426 100.306 52.8011C99.9357 53.5597 99.4158 54.1499 98.7468 54.5717C98.082 54.9936 97.3065 55.2045 96.4201 55.2045ZM96.4201 53.8494C97.0934 53.8494 97.6474 53.6768 98.082 53.3317C98.5167 52.9865 98.8384 52.5327 99.0472 51.9702C99.256 51.4077 99.3604 50.7983 99.3604 50.142C99.3604 49.4858 99.256 48.8743 99.0472 48.3075C98.8384 47.7408 98.5167 47.2827 98.082 46.9332C97.6474 46.5838 97.0934 46.4091 96.4201 46.4091C95.7468 46.4091 95.1928 46.5838 94.7582 46.9332C94.3235 47.2827 94.0018 47.7408 93.793 48.3075C93.5842 48.8743 93.4798 49.4858 93.4798 50.142C93.4798 50.7983 93.5842 51.4077 93.793 51.9702C94.0018 52.5327 94.3235 52.9865 94.7582 53.3317C95.1928 53.6768 95.7468 53.8494 96.4201 53.8494ZM107.16 55.2045C106.24 55.2045 105.447 54.9872 104.782 54.5526C104.118 54.1179 103.606 53.5192 103.248 52.7564C102.89 51.9936 102.711 51.1222 102.711 50.142C102.711 49.1449 102.895 48.2649 103.261 47.5021C103.632 46.7351 104.148 46.1364 104.808 45.706C105.473 45.2713 106.248 45.054 107.135 45.054C107.825 45.054 108.447 45.1818 109.001 45.4375C109.555 45.6932 110.009 46.0511 110.363 46.5114C110.716 46.9716 110.936 47.5085 111.021 48.1222H109.513C109.398 47.6747 109.142 47.2784 108.746 46.9332C108.354 46.5838 107.825 46.4091 107.16 46.4091C106.572 46.4091 106.057 46.5625 105.613 46.8693C105.175 47.1719 104.831 47.6001 104.584 48.1541C104.341 48.7038 104.22 49.3494 104.22 50.0909C104.22 50.8494 104.339 51.5099 104.578 52.0724C104.821 52.6349 105.162 53.0717 105.601 53.3828C106.044 53.6939 106.564 53.8494 107.16 53.8494C107.552 53.8494 107.908 53.7812 108.228 53.6449C108.547 53.5085 108.818 53.3125 109.04 53.0568C109.261 52.8011 109.419 52.4943 109.513 52.1364H111.021C110.936 52.7159 110.725 53.2379 110.388 53.7024C110.056 54.1626 109.615 54.5291 109.065 54.8018C108.52 55.0703 107.885 55.2045 107.16 55.2045ZM113.226 55V45.1818H117.241C118.297 45.1818 119.137 45.4205 119.759 45.8977C120.381 46.375 120.692 47.0057 120.692 47.7898C120.692 48.3864 120.515 48.8487 120.162 49.1768C119.808 49.5007 119.354 49.7202 118.8 49.8352C119.162 49.8864 119.514 50.0142 119.855 50.2188C120.2 50.4233 120.486 50.7045 120.711 51.0625C120.937 51.4162 121.05 51.8509 121.05 52.3665C121.05 52.8693 120.922 53.3189 120.667 53.7152C120.411 54.1115 120.045 54.4247 119.567 54.6548C119.09 54.8849 118.519 55 117.854 55H113.226ZM114.658 53.6193H117.854C118.374 53.6193 118.781 53.4957 119.075 53.2486C119.369 53.0014 119.516 52.6648 119.516 52.2386C119.516 51.7315 119.369 51.3331 119.075 51.0433C118.781 50.7493 118.374 50.6023 117.854 50.6023H114.658V53.6193ZM114.658 49.2983H117.241C117.645 49.2983 117.993 49.2429 118.282 49.1321C118.572 49.017 118.794 48.8551 118.947 48.6463C119.105 48.4332 119.184 48.1818 119.184 47.892C119.184 47.4787 119.011 47.1548 118.666 46.9205C118.321 46.6818 117.846 46.5625 117.241 46.5625H114.658V49.2983ZM123.334 55V45.1818H124.842V55H123.334ZM124.101 43.5455C123.807 43.5455 123.553 43.4453 123.34 43.245C123.131 43.0447 123.027 42.804 123.027 42.5227C123.027 42.2415 123.131 42.0007 123.34 41.8004C123.553 41.6001 123.807 41.5 124.101 41.5C124.395 41.5 124.646 41.6001 124.855 41.8004C125.068 42.0007 125.175 42.2415 125.175 42.5227C125.175 42.804 125.068 43.0447 124.855 43.245C124.646 43.4453 124.395 43.5455 124.101 43.5455ZM126.557 57.8125V53.5938H127.375C127.575 53.3849 127.748 53.1591 127.893 52.9162C128.038 52.6733 128.164 52.3857 128.27 52.0533C128.381 51.7166 128.475 51.3075 128.551 50.826C128.628 50.3402 128.696 49.7543 128.756 49.0682L129.088 45.1818H135.327V53.5938H136.835V57.8125H135.327V55H128.066V57.8125H126.557ZM129.088 53.5938H133.818V46.5881H130.494L130.239 49.0682C130.132 50.0952 130 50.9922 129.843 51.7592C129.685 52.5263 129.433 53.1378 129.088 53.5938ZM139.809 58.6818C139.554 58.6818 139.326 58.6605 139.125 58.6179C138.925 58.5795 138.787 58.5412 138.71 58.5028L139.093 57.1733C139.46 57.267 139.784 57.3011 140.065 57.2756C140.346 57.25 140.596 57.1243 140.813 56.8984C141.034 56.6768 141.237 56.3168 141.42 55.8182L141.701 55.0511L138.071 45.1818H139.707L142.417 53.0057H142.52L145.23 45.1818H146.866L142.699 56.4318C142.511 56.9389 142.279 57.3587 142.002 57.6911C141.725 58.0277 141.403 58.277 141.037 58.4389C140.674 58.6009 140.265 58.6818 139.809 58.6818Z" fill="#3B3B46"/>
<path d="M39.8182 33.3182C38.6212 33.3106 37.4659 33.1098 36.3523 32.7159C35.2462 32.322 34.2538 31.6818 33.375 30.7955C32.4962 29.9091 31.7992 28.7348 31.2841 27.2727C30.7765 25.8106 30.5227 24.0152 30.5227 21.8864C30.5303 19.9318 30.7538 18.1856 31.1932 16.6477C31.6402 15.1023 32.2765 13.7917 33.1023 12.7159C33.9356 11.6402 34.9318 10.822 36.0909 10.2614C37.25 9.69318 38.5492 9.40909 39.9886 9.40909C41.5417 9.40909 42.9129 9.71212 44.1023 10.3182C45.2917 10.9167 46.2462 11.7311 46.9659 12.7614C47.6932 13.7917 48.1326 14.947 48.2841 16.2273H43.4318C43.2424 15.4167 42.8447 14.7803 42.2386 14.3182C41.6326 13.8561 40.8826 13.625 39.9886 13.625C38.4735 13.625 37.322 14.2841 36.5341 15.6023C35.7538 16.9205 35.3561 18.7121 35.3409 20.9773H35.5C35.8485 20.2879 36.3182 19.7008 36.9091 19.2159C37.5076 18.7235 38.1856 18.3485 38.9432 18.0909C39.7083 17.8258 40.5152 17.6932 41.3636 17.6932C42.7424 17.6932 43.9697 18.0189 45.0455 18.6705C46.1212 19.3144 46.9697 20.2008 47.5909 21.3295C48.2121 22.4583 48.5227 23.75 48.5227 25.2045C48.5227 26.7803 48.1553 28.1818 47.4205 29.4091C46.6932 30.6364 45.6742 31.5985 44.3636 32.2955C43.0606 32.9848 41.5455 33.3258 39.8182 33.3182ZM39.7955 29.4545C40.553 29.4545 41.2311 29.2727 41.8295 28.9091C42.428 28.5455 42.8977 28.053 43.2386 27.4318C43.5795 26.8106 43.75 26.1136 43.75 25.3409C43.75 24.5682 43.5795 23.875 43.2386 23.2614C42.9053 22.6477 42.4432 22.1591 41.8523 21.7955C41.2614 21.4318 40.5871 21.25 39.8295 21.25C39.2614 21.25 38.7348 21.3561 38.25 21.5682C37.7727 21.7803 37.3523 22.0758 36.9886 22.4545C36.6326 22.8333 36.3523 23.2727 36.1477 23.7727C35.9432 24.2652 35.8409 24.7917 35.8409 25.3523C35.8409 26.1023 36.0114 26.7879 36.3523 27.4091C36.7008 28.0303 37.1705 28.5265 37.7614 28.8977C38.3598 29.2689 39.0379 29.4545 39.7955 29.4545ZM58.9659 29.4545V13.3636H63.0341V29.4545H58.9659ZM52.9545 23.4432V19.375H69.0455V23.4432H52.9545Z" fill="#3B3B46"/>
</g>
<defs>
<clipPath id="clip0_1880_313202">
<rect width="224" height="66" fill="white"/>
</clipPath>
</defs>
</svg>
