<svg width="224" height="66" viewBox="0 0 224 66" fill="none" xmlns="http://www.w3.org/2000/svg">
<g clip-path="url(#clip0_1880_313222)">
<rect width="224" height="66" fill="white"/>
<path d="M192.249 0.210449H0V66.3339H192.249V0.210449Z" fill="white"/>
<path d="M17.4851 0.296875H0V66.4204H17.4851V0.296875Z" fill="#FF5C39"/>
<path d="M34.3693 55.415C33.4489 55.415 32.6563 55.1977 31.9915 54.763C31.3267 54.3283 30.8153 53.7296 30.4574 52.9668C30.0994 52.2041 29.9205 51.3326 29.9205 50.3525C29.9205 49.3553 30.1037 48.4754 30.4702 47.7126C30.8409 46.9455 31.3565 46.3468 32.017 45.9164C32.6818 45.4818 33.4574 45.2644 34.3438 45.2644C35.0341 45.2644 35.6562 45.3923 36.2102 45.6479C36.7642 45.9036 37.218 46.2616 37.5717 46.7218C37.9254 47.182 38.1449 47.719 38.2301 48.3326H36.7216C36.6065 47.8852 36.3509 47.4889 35.9545 47.1437C35.5625 46.7943 35.0341 46.6195 34.3693 46.6195C33.7813 46.6195 33.2656 46.7729 32.8224 47.0798C32.3835 47.3823 32.0405 47.8106 31.7933 48.3646C31.5504 48.9143 31.429 49.5599 31.429 50.3014C31.429 51.0599 31.5483 51.7204 31.7869 52.2829C32.0298 52.8454 32.3707 53.2822 32.8097 53.5933C33.2528 53.9043 33.7727 54.0599 34.3693 54.0599C34.7614 54.0599 35.1172 53.9917 35.4368 53.8553C35.7564 53.719 36.027 53.5229 36.2486 53.2673C36.4702 53.0116 36.6278 52.7048 36.7216 52.3468H38.2301C38.1449 52.9264 37.9339 53.4484 37.5973 53.9129C37.2649 54.3731 36.8239 54.7396 36.2741 55.0123C35.7287 55.2808 35.0938 55.415 34.3693 55.415ZM39.6619 46.7985V45.3923H47.6392V46.7985H44.4176V55.2104H42.9091V46.7985H39.6619ZM49.8397 55.2104V45.3923H53.8539C54.9107 45.3923 55.7502 45.6309 56.3723 46.1082C56.9945 46.5854 57.3056 47.2161 57.3056 48.0002C57.3056 48.5968 57.1287 49.0592 56.775 49.3873C56.4213 49.7112 55.9675 49.9306 55.4135 50.0457C55.7757 50.0968 56.1273 50.2247 56.4682 50.4292C56.8134 50.6337 57.0989 50.915 57.3248 51.2729C57.5506 51.6266 57.6635 52.0613 57.6635 52.5769C57.6635 53.0798 57.5357 53.5293 57.28 53.9256C57.0243 54.322 56.6578 54.6352 56.1806 54.8653C55.7033 55.0954 55.1323 55.2104 54.4675 55.2104H49.8397ZM51.2715 53.8298H54.4675C54.9874 53.8298 55.3944 53.7062 55.6884 53.459C55.9824 53.2119 56.1294 52.8752 56.1294 52.4491C56.1294 51.942 55.9824 51.5435 55.6884 51.2538C55.3944 50.9597 54.9874 50.8127 54.4675 50.8127H51.2715V53.8298ZM51.2715 49.5087H53.8539C54.2587 49.5087 54.606 49.4533 54.8958 49.3426C55.1855 49.2275 55.4071 49.0656 55.5605 48.8568C55.7182 48.6437 55.7971 48.3923 55.7971 48.1025C55.7971 47.6891 55.6245 47.3653 55.2793 47.1309C54.9341 46.8923 54.459 46.7729 53.8539 46.7729H51.2715V49.5087ZM63.9357 55.415C63.0494 55.415 62.2717 55.2041 61.6026 54.7822C60.9379 54.3603 60.418 53.7701 60.043 53.0116C59.6722 52.2531 59.4869 51.3667 59.4869 50.3525C59.4869 49.3298 59.6722 48.437 60.043 47.6742C60.418 46.9114 60.9379 46.3191 61.6026 45.8972C62.2717 45.4754 63.0494 45.2644 63.9357 45.2644C64.8221 45.2644 65.5977 45.4754 66.2624 45.8972C66.9315 46.3191 67.4513 46.9114 67.8221 47.6742C68.1971 48.437 68.3846 49.3298 68.3846 50.3525C68.3846 51.3667 68.1971 52.2531 67.8221 53.0116C67.4513 53.7701 66.9315 54.3603 66.2624 54.7822C65.5977 55.2041 64.8221 55.415 63.9357 55.415ZM63.9357 54.0599C64.609 54.0599 65.163 53.8873 65.5977 53.5421C66.0323 53.197 66.354 52.7431 66.5629 52.1806C66.7717 51.6181 66.8761 51.0087 66.8761 50.3525C66.8761 49.6962 66.7717 49.0847 66.5629 48.518C66.354 47.9512 66.0323 47.4931 65.5977 47.1437C65.163 46.7943 64.609 46.6195 63.9357 46.6195C63.2624 46.6195 62.7085 46.7943 62.2738 47.1437C61.8391 47.4931 61.5174 47.9512 61.3086 48.518C61.0998 49.0847 60.9954 49.6962 60.9954 50.3525C60.9954 51.0087 61.0998 51.6181 61.3086 52.1806C61.5174 52.7431 61.8391 53.197 62.2738 53.5421C62.7085 53.8873 63.2624 54.0599 63.9357 54.0599ZM70.6873 58.8923V45.3923H72.1447V46.9519H72.3237C72.4345 46.7815 72.5879 46.5641 72.7839 46.2999C72.9842 46.0315 73.2697 45.7928 73.6404 45.584C74.0154 45.371 74.5225 45.2644 75.1618 45.2644C75.9885 45.2644 76.7172 45.4711 77.3478 45.8845C77.9785 46.2978 78.4707 46.8837 78.8244 47.6423C79.1781 48.4008 79.3549 49.2957 79.3549 50.3269C79.3549 51.3667 79.1781 52.268 78.8244 53.0308C78.4707 53.7893 77.9806 54.3774 77.3542 54.795C76.7278 55.2083 76.0055 55.415 75.1873 55.415C74.5566 55.415 74.0517 55.3106 73.6724 55.1018C73.2931 54.8887 73.0012 54.6479 72.7967 54.3795C72.5922 54.1068 72.4345 53.8809 72.3237 53.7019H72.1958V58.8923H70.6873ZM72.1703 50.3014C72.1703 51.0428 72.2789 51.697 72.4963 52.2637C72.7136 52.8262 73.0311 53.2673 73.4487 53.5869C73.8663 53.9022 74.3777 54.0599 74.9828 54.0599C75.6135 54.0599 76.1397 53.8937 76.5616 53.5613C76.9877 53.2247 77.3074 52.7729 77.5204 52.2062C77.7377 51.6352 77.8464 51.0002 77.8464 50.3014C77.8464 49.611 77.7399 48.9889 77.5268 48.4349C77.318 47.8766 77.0005 47.4356 76.5744 47.1117C76.1525 46.7836 75.622 46.6195 74.9828 46.6195C74.3691 46.6195 73.8535 46.7751 73.4359 47.0862C73.0183 47.393 72.7029 47.8234 72.4899 48.3774C72.2768 48.9271 72.1703 49.5684 72.1703 50.3014ZM85.7726 55.415C84.8265 55.415 84.0105 55.2062 83.3244 54.7886C82.6426 54.3667 82.1163 53.7786 81.7456 53.0244C81.3791 52.2658 81.1958 51.3837 81.1958 50.3781C81.1958 49.3724 81.3791 48.486 81.7456 47.719C82.1163 46.9477 82.6319 46.3468 83.2924 45.9164C83.9572 45.4818 84.7328 45.2644 85.6191 45.2644C86.1305 45.2644 86.6355 45.3497 87.1341 45.5201C87.6326 45.6906 88.0865 45.9676 88.4956 46.3511C88.9047 46.7303 89.2306 47.2332 89.4735 47.8596C89.7164 48.486 89.8379 49.2573 89.8379 50.1735V50.8127H82.2697V49.5087H88.3038C88.3038 48.9548 88.193 48.4604 87.9714 48.0258C87.7541 47.5911 87.443 47.2481 87.0382 46.9967C86.6376 46.7453 86.1646 46.6195 85.6191 46.6195C85.0183 46.6195 84.4984 46.7687 84.0595 47.067C83.6248 47.361 83.2903 47.7445 83.0559 48.2176C82.8216 48.6906 82.7044 49.1977 82.7044 49.7389V50.6082C82.7044 51.3497 82.8322 51.9782 83.0879 52.4938C83.3478 53.0052 83.7079 53.3951 84.1681 53.6636C84.6284 53.9278 85.1632 54.0599 85.7726 54.0599C86.1689 54.0599 86.5268 54.0045 86.8464 53.8937C87.1703 53.7786 87.4494 53.6082 87.6838 53.3823C87.9181 53.1522 88.0993 52.8667 88.2271 52.5258L89.6845 52.9349C89.5311 53.4292 89.2733 53.8639 88.911 54.2389C88.5488 54.6096 88.1014 54.8994 87.5687 55.1082C87.036 55.3127 86.4373 55.415 85.7726 55.415ZM98.7037 49.611V51.0173H93.2832V49.611H98.7037ZM93.6412 45.3923V55.2104H92.1326V45.3923H93.6412ZM99.8542 45.3923V55.2104H98.3457V45.3923H99.8542ZM104.118 52.986L108.848 45.3923H110.586V55.2104H109.078V47.6167L104.373 55.2104H102.609V45.3923H104.118V52.986ZM114.474 45.3923L116.827 49.4065L119.179 45.3923H120.918L117.747 50.3014L120.918 55.2104H119.179L116.827 51.4008L114.474 55.2104H112.736L115.855 50.3014L112.736 45.3923H114.474ZM132.121 55.415C131.201 55.415 130.408 55.1977 129.743 54.763C129.079 54.3283 128.567 53.7296 128.209 52.9668C127.851 52.2041 127.672 51.3326 127.672 50.3525C127.672 49.3553 127.856 48.4754 128.222 47.7126C128.593 46.9455 129.108 46.3468 129.769 45.9164C130.434 45.4818 131.209 45.2644 132.096 45.2644C132.786 45.2644 133.408 45.3923 133.962 45.6479C134.516 45.9036 134.97 46.2616 135.324 46.7218C135.677 47.182 135.897 47.719 135.982 48.3326H134.474C134.358 47.8852 134.103 47.4889 133.706 47.1437C133.314 46.7943 132.786 46.6195 132.121 46.6195C131.533 46.6195 131.018 46.7729 130.574 47.0798C130.135 47.3823 129.792 47.8106 129.545 48.3646C129.302 48.9143 129.181 49.5599 129.181 50.3014C129.181 51.0599 129.3 51.7204 129.539 52.2829C129.782 52.8454 130.123 53.2822 130.562 53.5933C131.005 53.9043 131.525 54.0599 132.121 54.0599C132.513 54.0599 132.869 53.9917 133.189 53.8553C133.508 53.719 133.779 53.5229 134.001 53.2673C134.222 53.0116 134.38 52.7048 134.474 52.3468H135.982C135.897 52.9264 135.686 53.4484 135.349 53.9129C135.017 54.3731 134.576 54.7396 134.026 55.0123C133.481 55.2808 132.846 55.415 132.121 55.415ZM141.077 55.4406C140.454 55.4406 139.89 55.3234 139.383 55.089C138.876 54.8504 138.473 54.5073 138.175 54.0599C137.876 53.6082 137.727 53.0627 137.727 52.4235C137.727 51.861 137.838 51.4051 138.059 51.0556C138.281 50.7019 138.577 50.4249 138.948 50.2247C139.319 50.0244 139.728 49.8752 140.175 49.7772C140.627 49.6749 141.081 49.594 141.537 49.5343C142.133 49.4576 142.617 49.4001 142.988 49.3617C143.363 49.3191 143.635 49.2488 143.806 49.1508C143.981 49.0528 144.068 48.8823 144.068 48.6394V48.5883C144.068 47.9576 143.895 47.4676 143.55 47.1181C143.209 46.7687 142.692 46.594 141.997 46.594C141.277 46.594 140.712 46.7516 140.303 47.067C139.894 47.3823 139.606 47.719 139.44 48.0769L138.008 47.5656C138.264 46.969 138.605 46.5045 139.031 46.1721C139.461 45.8354 139.93 45.6011 140.437 45.469C140.949 45.3326 141.452 45.2644 141.946 45.2644C142.261 45.2644 142.623 45.3028 143.032 45.3795C143.446 45.4519 143.844 45.6032 144.228 45.8333C144.616 46.0634 144.937 46.4107 145.193 46.8752C145.449 47.3397 145.577 47.9619 145.577 48.7417V55.2104H144.068V53.8809H143.991C143.889 54.094 143.719 54.322 143.48 54.5649C143.241 54.8078 142.924 55.0144 142.528 55.1849C142.131 55.3553 141.648 55.4406 141.077 55.4406ZM141.307 54.0854C141.903 54.0854 142.406 53.9683 142.815 53.7339C143.229 53.4995 143.54 53.197 143.748 52.8262C143.961 52.4555 144.068 52.0656 144.068 51.6565V50.2758C144.004 50.3525 143.863 50.4228 143.646 50.4867C143.433 50.5464 143.186 50.5997 142.905 50.6465C142.628 50.6891 142.357 50.7275 142.093 50.7616C141.833 50.7914 141.622 50.817 141.46 50.8383C141.068 50.8894 140.702 50.9725 140.361 51.0876C140.024 51.1984 139.751 51.3667 139.542 51.5926C139.338 51.8141 139.236 52.1167 139.236 52.5002C139.236 53.0244 139.43 53.4207 139.817 53.6891C140.209 53.9533 140.706 54.0854 141.307 54.0854ZM149.838 52.986L154.569 45.3923H156.307V55.2104H154.799V47.6167L150.094 55.2104H148.33V45.3923H149.838V52.986ZM153.571 42.1195H154.978C154.978 42.8099 154.739 43.3745 154.262 43.8134C153.784 44.2524 153.137 44.4718 152.319 44.4718C151.513 44.4718 150.872 44.2524 150.395 43.8134C149.922 43.3745 149.685 42.8099 149.685 42.1195H151.091C151.091 42.4519 151.183 42.7438 151.366 42.9952C151.554 43.2467 151.871 43.3724 152.319 43.3724C152.766 43.3724 153.086 43.2467 153.277 42.9952C153.473 42.7438 153.571 42.4519 153.571 42.1195ZM157.734 46.7985V45.3923H165.711V46.7985H162.49V55.2104H160.981V46.7985H157.734ZM167.912 55.2104V45.3923H169.42V55.2104H167.912ZM168.679 43.7559C168.385 43.7559 168.131 43.6558 167.918 43.4555C167.71 43.2552 167.605 43.0144 167.605 42.7332C167.605 42.4519 167.71 42.2112 167.918 42.0109C168.131 41.8106 168.385 41.7104 168.679 41.7104C168.973 41.7104 169.224 41.8106 169.433 42.0109C169.646 42.2112 169.753 42.4519 169.753 42.7332C169.753 43.0144 169.646 43.2552 169.433 43.4555C169.224 43.6558 168.973 43.7559 168.679 43.7559ZM172.183 55.2104V45.3923H176.198C177.254 45.3923 178.094 45.6309 178.716 46.1082C179.338 46.5854 179.649 47.2161 179.649 48.0002C179.649 48.5968 179.472 49.0592 179.119 49.3873C178.765 49.7112 178.311 49.9306 177.757 50.0457C178.119 50.0968 178.471 50.2247 178.812 50.4292C179.157 50.6337 179.443 50.915 179.669 51.2729C179.894 51.6266 180.007 52.0613 180.007 52.5769C180.007 53.0798 179.879 53.5293 179.624 53.9256C179.368 54.322 179.002 54.6352 178.524 54.8653C178.047 55.0954 177.476 55.2104 176.811 55.2104H172.183ZM173.615 53.8298H176.811C177.331 53.8298 177.738 53.7062 178.032 53.459C178.326 53.2119 178.473 52.8752 178.473 52.4491C178.473 51.942 178.326 51.5435 178.032 51.2538C177.738 50.9597 177.331 50.8127 176.811 50.8127H173.615V53.8298ZM173.615 49.5087H176.198C176.602 49.5087 176.95 49.4533 177.24 49.3426C177.529 49.2275 177.751 49.0656 177.904 48.8568C178.062 48.6437 178.141 48.3923 178.141 48.1025C178.141 47.6891 177.968 47.3653 177.623 47.1309C177.278 46.8923 176.803 46.7729 176.198 46.7729H173.615V49.5087Z" fill="#3B3B46"/>
<path d="M41.0114 9.93772V33.2104H36.0909V14.6082H35.9545L30.625 17.9491V13.5854L36.3864 9.93772H41.0114ZM55.6676 33.7218C53.7131 33.7142 52.0313 33.2332 50.6222 32.2786C49.2206 31.3241 48.1411 29.9415 47.3835 28.1309C46.6335 26.3203 46.2623 24.1423 46.2699 21.5968C46.2699 19.0589 46.6449 16.8961 47.3949 15.1082C48.1525 13.3203 49.232 11.9604 50.6335 11.0286C52.0426 10.0892 53.7206 9.61954 55.6676 9.61954C57.6146 9.61954 59.2888 10.0892 60.6903 11.0286C62.0994 11.968 63.1828 13.3317 63.9403 15.1195C64.6979 16.8998 65.0729 19.0589 65.0653 21.5968C65.0653 24.1498 64.6866 26.3317 63.929 28.1423C63.179 29.9529 62.1032 31.3354 60.7017 32.29C59.3002 33.2445 57.6222 33.7218 55.6676 33.7218ZM55.6676 29.6423C57.0009 29.6423 58.0653 28.9718 58.8608 27.6309C59.6563 26.29 60.0502 24.2786 60.0426 21.5968C60.0426 19.8317 59.8608 18.362 59.4972 17.1877C59.1411 16.0135 58.6335 15.1309 57.9744 14.54C57.3229 13.9491 56.554 13.6536 55.6676 13.6536C54.3419 13.6536 53.2813 14.3165 52.4858 15.6423C51.6903 16.968 51.2888 18.9529 51.2812 21.5968C51.2812 23.3847 51.4593 24.8771 51.8153 26.0741C52.179 27.2635 52.6903 28.1574 53.3494 28.7559C54.0085 29.3468 54.7812 29.6423 55.6676 29.6423ZM77.6989 33.7218C75.7443 33.7142 74.0625 33.2332 72.6534 32.2786C71.2519 31.3241 70.1723 29.9415 69.4148 28.1309C68.6648 26.3203 68.2936 24.1423 68.3011 21.5968C68.3011 19.0589 68.6761 16.8961 69.4261 15.1082C70.1837 13.3203 71.2633 11.9604 72.6648 11.0286C74.0739 10.0892 75.7519 9.61954 77.6989 9.61954C79.6458 9.61954 81.3201 10.0892 82.7216 11.0286C84.1307 11.968 85.214 13.3317 85.9716 15.1195C86.7292 16.8998 87.1042 19.0589 87.0966 21.5968C87.0966 24.1498 86.7178 26.3317 85.9602 28.1423C85.2102 29.9529 84.1345 31.3354 82.733 32.29C81.3314 33.2445 79.6534 33.7218 77.6989 33.7218ZM77.6989 29.6423C79.0322 29.6423 80.0966 28.9718 80.892 27.6309C81.6875 26.29 82.0814 24.2786 82.0739 21.5968C82.0739 19.8317 81.892 18.362 81.5284 17.1877C81.1723 16.0135 80.6648 15.1309 80.0057 14.54C79.3542 13.9491 78.5852 13.6536 77.6989 13.6536C76.3731 13.6536 75.3125 14.3165 74.517 15.6423C73.7216 16.968 73.3201 18.9529 73.3125 21.5968C73.3125 23.3847 73.4905 24.8771 73.8466 26.0741C74.2102 27.2635 74.7216 28.1574 75.3807 28.7559C76.0398 29.3468 76.8125 29.6423 77.6989 29.6423ZM97.5597 29.665V13.5741H101.628V29.665H97.5597ZM91.5483 23.6536V19.5854H107.639V23.6536H91.5483Z" fill="#3B3B46"/>
</g>
<defs>
<clipPath id="clip0_1880_313222">
<rect width="224" height="66" fill="white"/>
</clipPath>
</defs>
</svg>
