<svg width="165" height="66" viewBox="0 0 165 66" fill="none" xmlns="http://www.w3.org/2000/svg">
<path d="M165 0H0V66H165V0Z" fill="white"/>
<path d="M17.4624 0.0859375H0V65.9994H17.4624V0.0859375Z" fill="#4285F4"/>
<path d="M34.7125 57.1751H31.2949V30.5636H40.3189C42.4848 30.5287 44.5801 31.3349 46.1653 32.8133C46.9495 33.5337 47.5756 34.4096 48.0039 35.3852C48.4323 36.3608 48.6534 37.4149 48.6534 38.4807C48.6534 39.5465 48.4323 40.6006 48.0039 41.5762C47.5756 42.5518 46.9495 43.4277 46.1653 44.1481C44.5801 45.6265 42.4848 46.4328 40.3189 46.3978H34.7125V57.1751ZM34.7125 43.1291H40.4725C41.1194 43.1537 41.7638 43.0366 42.3608 42.7858C42.9577 42.5351 43.4928 42.1568 43.9285 41.6773C44.7595 40.8213 45.2244 39.6746 45.2244 38.4807C45.2244 37.2868 44.7595 36.1401 43.9285 35.2841C43.4944 34.8026 42.9597 34.4228 42.3623 34.1719C41.765 33.921 41.1197 33.805 40.4725 33.8323H34.7125V43.1291Z" fill="#757575"/>
<path d="M56.6402 57.7705C54.8898 57.8193 53.1821 57.2242 51.8402 56.0977C51.209 55.5523 50.7086 54.8715 50.3762 54.1059C50.0438 53.3403 49.8879 52.5095 49.9202 51.6752C49.8868 50.7661 50.0799 49.8629 50.4821 49.0472C50.8843 48.2315 51.483 47.5289 52.2242 47.0029C53.883 45.8405 55.8744 45.25 57.8978 45.3204C59.6121 45.2488 61.3147 45.6336 62.8322 46.4356V45.9069C62.8549 45.3014 62.7417 44.6986 62.5007 44.1428C62.2598 43.5871 61.8974 43.0926 61.4402 42.6958C60.5095 41.8813 59.306 41.4487 58.0706 41.4844C57.1237 41.4732 56.1915 41.719 55.373 42.1959C54.612 42.6201 54.0267 43.3017 53.7218 44.1187L50.6114 42.7823C51.1328 41.5548 51.996 40.5035 53.0978 39.7539C54.5315 38.7611 56.2529 38.271 57.9938 38.3599C60.1006 38.295 62.1553 39.0221 63.7538 40.3981C64.5347 41.1326 65.1449 42.03 65.5414 43.0268C65.9379 44.0235 66.1109 45.0953 66.0482 46.1664V57.1744H62.7842V54.646H62.6402C62.0051 55.6514 61.1152 56.4703 60.0612 57.0192C59.0072 57.5681 57.8268 57.8273 56.6402 57.7705V57.7705ZM57.197 54.646C58.6322 54.6366 60.0083 54.0716 61.037 53.0693C61.5787 52.6088 62.0139 52.0358 62.3123 51.39C62.6107 50.7442 62.7652 50.041 62.765 49.3294C61.4983 48.4445 59.966 48.0235 58.4258 48.1373C57.1027 48.05 55.7911 48.4311 54.7202 49.2141C54.3318 49.5121 54.0159 49.8945 53.7964 50.3325C53.5769 50.7704 53.4595 51.2526 53.453 51.7425C53.4452 52.1579 53.5435 52.5684 53.7383 52.9351C53.9332 53.3019 54.2183 53.6128 54.5666 53.8384C55.3403 54.3707 56.2583 54.6525 57.197 54.646V54.646Z" fill="#757575"/>
<path d="M73.1623 38.9658V41.9365H73.3063C73.709 40.8542 74.4948 39.9578 75.5143 39.4176C76.5952 38.8087 77.8165 38.4938 79.0567 38.5043C79.4673 38.5083 79.8775 38.534 80.2855 38.5812V41.9269C79.8294 41.8781 79.3713 41.8524 78.9127 41.85C77.4375 41.7861 75.9941 42.292 74.8807 43.2632C74.3501 43.7638 73.9346 44.3738 73.6627 45.0511C73.3909 45.7284 73.2693 46.4567 73.3063 47.1857V57.1746H69.8887V38.9658H73.1623ZM91.8631 57.4727C91.0741 57.564 90.2747 57.4761 89.5242 57.2157C88.7737 56.9553 88.0914 56.529 87.528 55.9684C86.9645 55.4078 86.5343 54.7274 86.2694 53.9775C86.0044 53.2277 85.9115 52.4277 85.9975 51.637V42.0807H82.8103V38.9658H85.9975V33.3896H89.4151V38.9658H93.8695V42.0807H89.4151V51.3774C89.4151 53.3579 90.2311 54.3481 91.8631 54.3481C92.3971 54.3656 92.9284 54.2638 93.4183 54.0501L94.6087 56.9824C93.737 57.3336 92.8022 57.5005 91.8631 57.4727Z" fill="#757575"/>
<path d="M100.578 38.9648V41.4837H100.722C101.293 40.5512 102.102 39.788 103.065 39.2725C104.104 38.6742 105.284 38.3624 106.482 38.3687C107.442 38.3069 108.403 38.4614 109.296 38.8208C110.188 39.1802 110.988 39.7353 111.638 40.4454C112.89 42.0246 113.521 44.008 113.414 46.0215V57.1737H110.006V46.5406C110.006 43.1757 108.508 41.4837 105.513 41.4837C104.845 41.47 104.184 41.6164 103.585 41.9108C102.985 42.2051 102.464 42.6388 102.066 43.1757C101.178 44.2877 100.703 45.6743 100.722 47.0982V57.1737H97.3145V38.9648H100.578Z" fill="#757575"/>
<path d="M125.665 57.7706C124.413 57.8178 123.166 57.5959 122.007 57.12C120.848 56.6441 119.804 55.9251 118.945 55.0114C117.214 53.1251 116.296 50.6305 116.392 48.0701C116.341 45.5547 117.236 43.112 118.897 41.2249C119.68 40.2969 120.661 39.5562 121.768 39.0572C122.874 38.5581 124.078 38.3133 125.291 38.3408C126.496 38.2873 127.7 38.4949 128.818 38.9495C129.936 39.4041 130.943 40.095 131.771 40.975C133.469 42.9348 134.34 45.479 134.2 48.0701V48.695H119.8C119.815 50.3336 120.478 51.8993 121.643 53.0501C122.696 54.0825 124.114 54.6561 125.588 54.6461C126.643 54.7335 127.698 54.4763 128.594 53.913C129.491 53.3497 130.181 52.5106 130.561 51.5215L133.604 52.7906C132.998 54.2218 132 55.4518 130.724 56.3381C129.23 57.3363 127.46 57.8375 125.665 57.7706V57.7706ZM130.561 45.8781C130.454 44.7478 129.951 43.692 129.14 42.8978C128.623 42.4005 128.007 42.0176 127.332 41.7742C126.657 41.5307 125.939 41.432 125.224 41.4845C124.013 41.4594 122.837 41.8841 121.921 42.6767C120.96 43.5142 120.288 44.6348 120.001 45.8781H130.561Z" fill="#757575"/>
<path d="M140.728 57.1751H137.281V38.9663H140.545V41.937H140.689C141.09 40.8913 141.849 40.0224 142.83 39.4854C143.767 38.8861 144.849 38.5537 145.96 38.524C146.836 38.4995 147.708 38.6532 148.523 38.9759L147.227 42.1677C146.639 41.9734 146.021 41.8855 145.403 41.9081C144.784 41.9119 144.172 42.0446 143.607 42.2978C143.042 42.551 142.535 42.9193 142.12 43.3791C141.637 43.8923 141.262 44.4968 141.017 45.1572C140.771 45.8176 140.66 46.5206 140.689 47.2247L140.728 57.1751Z" fill="#757575"/>
<path d="M39.0722 24.4675C36.9064 24.4679 34.827 23.617 33.2812 22.0977C31.7355 20.5785 30.8469 18.5123 30.8066 16.3437C30.8269 14.1617 31.7067 12.076 33.2546 10.5402C34.8025 9.00445 36.8933 8.14291 39.0722 8.143C40.1061 8.12714 41.1328 8.31793 42.0921 8.70421C43.0515 9.0905 43.9243 9.66451 44.6594 10.3927L43.0946 11.9694C42.0152 10.9289 40.5703 10.3556 39.0722 10.3734C37.5413 10.4352 36.0936 11.0876 35.0322 12.1942C33.9708 13.3008 33.378 14.7757 33.378 16.3101C33.378 17.8445 33.9708 19.3194 35.0322 20.426C36.0936 21.5326 37.5413 22.185 39.0722 22.2467C39.836 22.277 40.5977 22.1473 41.3085 21.8659C42.0193 21.5844 42.6636 21.1575 43.2002 20.6123C43.9061 19.8378 44.335 18.8503 44.4194 17.8051H39.053V15.5169H46.5698C46.655 15.9961 46.6968 16.482 46.6946 16.9686C46.7583 18.89 46.0692 20.76 44.7746 22.1794C44.0416 22.9454 43.1537 23.5458 42.1703 23.9404C41.1868 24.335 40.1306 24.5147 39.0722 24.4675V24.4675Z" fill="#4285F4"/>
<path d="M58.5583 19.2283C58.5621 20.273 58.2563 21.2954 57.6795 22.1659C57.1027 23.0364 56.2809 23.7159 55.3182 24.1183C54.3555 24.5208 53.2952 24.628 52.2716 24.4266C51.2479 24.2251 50.3071 23.7239 49.568 22.9865C48.829 22.2491 48.3252 21.3087 48.1203 20.2844C47.9153 19.26 48.0186 18.1978 48.4169 17.2322C48.8153 16.2666 49.4908 15.4412 50.3579 14.8603C51.225 14.2795 52.2447 13.9695 53.2879 13.9695C53.9816 13.9578 54.6706 14.0858 55.314 14.3457C55.9575 14.6056 56.5423 14.9922 57.0337 15.4826C57.5252 15.973 57.9134 16.5573 58.1753 17.2007C58.4372 17.8441 58.5674 18.5336 58.5583 19.2283V19.2283ZM56.2543 19.2283C56.2873 18.8181 56.2351 18.4055 56.101 18.0165C55.9669 17.6275 55.7538 17.2705 55.4751 16.9681C55.1964 16.6656 54.8582 16.4242 54.4818 16.2591C54.1054 16.094 53.6989 16.0088 53.2879 16.0088C52.877 16.0088 52.4705 16.094 52.0941 16.2591C51.7177 16.4242 51.3795 16.6656 51.1008 16.9681C50.8221 17.2705 50.609 17.6275 50.4749 18.0165C50.3408 18.4055 50.2886 18.8181 50.3215 19.2283C50.2886 19.6385 50.3408 20.0512 50.4749 20.4402C50.609 20.8292 50.8221 21.1861 51.1008 21.4886C51.3795 21.7911 51.7177 22.0324 52.0941 22.1975C52.4705 22.3626 52.877 22.4479 53.2879 22.4479C53.6989 22.4479 54.1054 22.3626 54.4818 22.1975C54.8582 22.0324 55.1964 21.7911 55.4751 21.4886C55.7538 21.1861 55.9669 20.8292 56.101 20.4402C56.2351 20.0512 56.2873 19.6385 56.2543 19.2283V19.2283Z" fill="#EA4335"/>
<path d="M70.5115 19.2278C70.5134 20.2737 70.2049 21.2966 69.6252 22.1667C69.0455 23.0367 68.2208 23.7147 67.2557 24.1145C66.2906 24.5143 65.2286 24.6179 64.2046 24.4122C63.1806 24.2065 62.2406 23.7008 61.5042 22.9592C60.7677 22.2175 60.2678 21.2735 60.068 20.2469C59.8682 19.2202 59.9775 18.1573 60.3821 17.193C60.7866 16.2287 61.4681 15.4065 62.34 14.8307C63.212 14.255 64.2351 13.9517 65.2795 13.9593C65.9712 13.9515 66.6574 14.0827 67.2976 14.345C67.9378 14.6074 68.5189 14.9956 69.0067 15.4868C69.4945 15.978 69.879 16.5621 70.1374 17.2047C70.3959 17.8472 70.5231 18.5351 70.5115 19.2278V19.2278ZM68.2075 19.2278C68.2305 18.8241 68.1709 18.4199 68.0324 18.0401C67.894 17.6603 67.6795 17.3128 67.4023 17.0188C67.125 16.7249 66.7907 16.4907 66.42 16.3307C66.0492 16.1707 65.6497 16.0881 65.2459 16.0881C64.8421 16.0881 64.4426 16.1707 64.0718 16.3307C63.701 16.4907 63.3668 16.7249 63.0895 17.0188C62.8123 17.3128 62.5978 17.6603 62.4594 18.0401C62.3209 18.4199 62.2613 18.8241 62.2843 19.2278C62.2613 19.6315 62.3209 20.0356 62.4594 20.4154C62.5978 20.7953 62.8123 21.1428 63.0895 21.4367C63.3668 21.7307 63.701 21.9648 64.0718 22.1248C64.4426 22.2849 64.8421 22.3674 65.2459 22.3674C65.6497 22.3674 66.0492 22.2849 66.42 22.1248C66.7907 21.9648 67.125 21.7307 67.4023 21.4367C67.6795 21.1428 67.894 20.7953 68.0324 20.4154C68.1709 20.0356 68.2305 19.6315 68.2075 19.2278V19.2278Z" fill="#FBBC05"/>
<path d="M81.9074 14.2766V23.7175C81.9074 27.5631 79.6226 29.1879 76.925 29.1879C75.9286 29.1925 74.9534 28.8995 74.1241 28.3464C73.2947 27.7933 72.6489 27.0051 72.269 26.0826L74.2754 25.2462C74.4779 25.7891 74.8389 26.2583 75.3115 26.5927C75.7841 26.9271 76.3464 27.1111 76.925 27.1209C78.653 27.1209 79.7282 26.0441 79.7282 24.0348V23.2753H79.6802C79.3338 23.6636 78.9069 23.9714 78.4293 24.1773C77.9518 24.3832 77.4351 24.4822 76.9154 24.4674C75.5628 24.4095 74.2848 23.8306 73.3482 22.8516C72.4115 21.8726 71.8887 20.5692 71.8887 19.2134C71.8887 17.8576 72.4115 16.5541 73.3482 15.5752C74.2848 14.5962 75.5628 14.0173 76.9154 13.9593C77.4332 13.9453 77.948 14.0428 78.425 14.2451C78.902 14.4474 79.33 14.75 79.6802 15.1322H79.7666V14.2766H81.9074ZM79.8818 19.2278C79.9158 18.8311 79.8696 18.4316 79.7459 18.0532C79.6222 17.6747 79.4236 17.3252 79.1619 17.0254C78.9002 16.7257 78.5808 16.4818 78.2229 16.3085C77.8649 16.1352 77.4757 16.036 77.0786 16.0167C76.6788 16.0376 76.287 16.1373 75.9257 16.3101C75.5644 16.4829 75.2407 16.7254 74.9732 17.0237C74.7056 17.322 74.4995 17.6702 74.3666 18.0485C74.2337 18.4267 74.1766 18.8274 74.1986 19.2278C74.1792 19.6251 74.2385 20.0223 74.3729 20.3966C74.5074 20.7709 74.7144 21.115 74.982 21.4089C75.2496 21.7028 75.5726 21.9409 75.9324 22.1094C76.2922 22.2779 76.6818 22.3735 77.0786 22.3908C77.4727 22.3752 77.8595 22.2801 78.216 22.111C78.5725 21.942 78.8911 21.7027 79.1529 21.4073C79.4147 21.1119 79.6142 20.7665 79.7395 20.392C79.8647 20.0175 79.9131 19.6215 79.8818 19.2278Z" fill="#4285F4"/>
<path d="M86.4485 8.69971V24.1494H84.1445V8.69971H86.4485Z" fill="#34A853"/>
<path d="M95.8449 20.949L97.6305 22.1123C97.1503 22.8328 96.4989 23.4226 95.7348 23.8287C94.9707 24.2348 94.1179 24.4445 93.2529 24.4389C92.5671 24.4479 91.8864 24.3193 91.2511 24.0606C90.6157 23.802 90.0385 23.4185 89.5536 22.9328C89.0686 22.4471 88.6857 21.8691 88.4274 21.2328C88.1691 20.5965 88.0407 19.9149 88.0497 19.2281C88.0147 18.5541 88.1163 17.88 88.3484 17.2464C88.5806 16.6128 88.9384 16.0328 89.4004 15.5414C89.8623 15.05 90.4189 14.6574 91.0364 14.3872C91.654 14.117 92.3198 13.9748 92.9937 13.9692C93.9942 13.9952 94.9624 14.3295 95.7664 14.9265C96.5703 15.5234 97.171 16.3541 97.4865 17.3053L97.7265 17.9014L90.7089 20.7856C90.9242 21.2764 91.2819 21.6911 91.7356 21.9757C92.1893 22.2603 92.7179 22.4017 93.2529 22.3815C93.7715 22.3862 94.2825 22.2568 94.7366 22.0058C95.1907 21.7549 95.5724 21.3909 95.8449 20.949V20.949ZM90.3345 19.0262L95.0289 17.1034C94.8501 16.7521 94.5737 16.46 94.2331 16.2622C93.8926 16.0644 93.5022 15.9692 93.1089 15.9882C92.7238 16.0015 92.3453 16.0921 91.9958 16.2546C91.6463 16.4171 91.333 16.6482 91.0743 16.9342C90.8156 17.2202 90.6168 17.5552 90.4897 17.9195C90.3627 18.2838 90.3099 18.6699 90.3345 19.055V19.0262Z" fill="#EA4335"/>
</svg>
