<svg width="165" height="66" viewBox="0 0 165 66" fill="none" xmlns="http://www.w3.org/2000/svg">
<rect width="165" height="66" fill="white"/>
<path d="M20.3827 24.7026C20.3827 26.2457 20.7228 27.4305 21.1672 28.1472C21.75 29.086 22.6192 29.4838 23.5054 29.4838C24.6483 29.4838 25.6939 29.2013 27.7089 26.4256C29.3231 24.2008 31.2252 21.078 32.505 19.1203L34.6724 15.8035C36.178 13.5 37.9206 10.9394 39.9187 9.20369C41.5498 7.78703 43.3095 7 45.0804 7C48.0532 7 50.8852 8.71601 53.0527 11.9344C55.4248 15.4592 56.5761 19.8989 56.5761 24.4805C56.5761 27.2042 56.0372 29.2055 55.1198 30.7866C54.2338 32.3157 52.5067 33.8434 49.6012 33.8434V29.4838C52.0888 29.4838 52.7098 27.207 52.7098 24.6014C52.7098 20.8883 51.8406 16.7676 49.9257 13.8233C48.5671 11.7348 46.8061 10.4587 44.8687 10.4587C42.7733 10.4587 41.087 12.0328 39.192 14.8394C38.1845 16.3305 37.1502 18.1477 35.9889 20.1982L34.7105 22.4539C32.1424 26.9892 31.4919 28.0222 30.2079 29.7269C27.9572 32.712 26.0354 33.8434 23.5054 33.8434C20.5041 33.8434 18.6062 32.549 17.4308 30.5983C16.4713 29.0087 16 26.9231 16 24.5466L20.3827 24.7026Z" fill="#0081FB"/>
<path d="M19.4551 12.2422C21.4644 9.15731 24.3641 7 27.6899 7C29.616 7 31.5308 7.56779 33.5303 9.19385C35.7174 10.9717 38.0485 13.8992 40.9566 18.724L41.9994 20.4554C44.5167 24.6323 45.9488 26.7812 46.7872 27.7945C47.865 29.0959 48.62 29.4838 49.6007 29.4838C52.0883 29.4838 52.7093 27.207 52.7093 24.6014L56.5756 24.4805C56.5756 27.2042 56.0364 29.2055 55.1193 30.7866C54.2333 32.3157 52.5062 33.8434 49.6007 33.8434C47.7946 33.8434 46.1943 33.4527 44.4251 31.7901C43.0648 30.5139 41.4745 28.247 40.2511 26.2092L36.612 20.1546C34.7861 17.1161 33.1112 14.8506 32.1418 13.8247C31.0991 12.7214 29.7585 11.3891 27.6194 11.3891C25.888 11.3891 24.4177 12.5992 23.1873 14.4501L19.4551 12.2422Z" fill="url(#paint0_linear_1129_267615)"/>
<path d="M27.62 11.3891C25.8886 11.3891 24.4183 12.5992 23.1879 14.4501C21.448 17.0656 20.3827 20.9614 20.3827 24.7026C20.3827 26.2457 20.7228 27.4305 21.1672 28.1472L17.4308 30.5983C16.4713 29.0087 16 26.9231 16 24.5466C16 20.2249 17.1909 15.7206 19.4557 12.2422C21.465 9.15731 24.3647 7 27.6905 7L27.62 11.3891Z" fill="url(#paint1_linear_1129_267615)"/>
<path d="M65.0957 7.84863H70.1657L78.7857 23.3812L87.4073 7.84863H92.3669V33.3709H88.2311V13.8104L80.6708 27.3558H76.7904L69.2315 13.8104V33.3709H65.0957V7.84863ZM105.326 17.3647C102.36 17.3647 100.574 19.588 100.146 22.3413H110.212C110.005 19.5051 108.363 17.3647 105.326 17.3647ZM96.0455 23.9097C96.0455 18.1166 99.8048 13.9003 105.398 13.9003C110.9 13.9003 114.185 18.0632 114.185 24.2189V25.3502H100.146C100.644 28.3452 102.639 30.3633 105.857 30.3633C108.423 30.3633 110.028 29.5833 111.549 28.1568L113.746 30.837C111.676 32.7329 109.043 33.8263 105.71 33.8263C99.655 33.8263 96.0455 29.4287 96.0455 23.9097ZM119.2 17.7301H115.393V14.3571H119.2V8.77902H123.19V14.3571H128.974V17.7301H123.19V26.2792C123.19 29.1983 124.127 30.2355 126.43 30.2355C127.481 30.2355 128.084 30.1455 128.974 29.9979V33.3344C127.865 33.6464 126.806 33.7897 125.661 33.7897C121.353 33.7897 119.2 31.4455 119.2 26.7528V17.7301ZM145.777 21.0103C144.975 18.995 143.187 17.5108 140.56 17.5108C137.145 17.5108 134.959 19.9239 134.959 23.8549C134.959 27.6874 136.972 30.2172 140.396 30.2172C143.089 30.2172 145.01 28.6572 145.777 26.7163V21.0103ZM149.767 33.3709H145.85V30.7091C144.755 32.2761 142.763 33.8263 139.536 33.8263C134.346 33.8263 130.877 29.499 130.877 23.8549C130.877 18.1573 134.429 13.9003 139.756 13.9003C142.389 13.9003 144.454 14.9488 145.85 16.7997V14.3571H149.767V33.3709Z" fill="#192830"/>
<path d="M23.6609 53.1017C24.2989 53.2787 24.8009 53.6013 25.167 54.0697C25.5331 54.5277 25.7161 55.1106 25.7161 55.8184C25.7161 56.7656 25.3553 57.4942 24.6336 58.0042C23.9224 58.5142 22.8817 58.7692 21.5115 58.7692H16.2715V47.8401H21.1978C22.4529 47.8401 23.4203 48.0899 24.1002 48.5896C24.7905 49.0892 25.1356 49.7814 25.1356 50.6661C25.1356 51.2386 24.9997 51.733 24.7277 52.1493C24.4662 52.5657 24.1106 52.8831 23.6609 53.1017ZM17.8404 49.1048V52.6021H21.0566C21.8619 52.6021 22.479 52.4564 22.9078 52.1649C23.3471 51.8631 23.5668 51.4259 23.5668 50.8534C23.5668 50.281 23.3471 49.849 22.9078 49.5576C22.479 49.2557 21.8619 49.1048 21.0566 49.1048H17.8404ZM21.4488 57.5046C22.3378 57.5046 23.0072 57.3589 23.4569 57.0674C23.9067 56.776 24.1316 56.318 24.1316 55.6935C24.1316 54.4757 23.2373 53.8668 21.4488 53.8668H17.8404V57.5046H21.4488ZM35.6759 50.4943V58.7692H34.2482V57.5202C33.9449 57.9469 33.5423 58.28 33.0402 58.5194C32.5486 58.7484 32.01 58.8629 31.4242 58.8629C30.3156 58.8629 29.4422 58.5611 28.8042 57.9573C28.1662 57.3432 27.8472 56.4429 27.8472 55.2563V50.4943H29.3533V55.0846C29.3533 55.886 29.5468 56.4949 29.9338 56.9113C30.3208 57.3172 30.8751 57.5202 31.5968 57.5202C32.3917 57.5202 33.0193 57.2808 33.4795 56.802C33.9397 56.3232 34.1698 55.6466 34.1698 54.7723V50.4943H35.6759ZM40.9278 58.8629C40.248 58.8629 39.5943 58.7744 38.9667 58.5975C38.3392 58.4101 37.8476 58.1759 37.492 57.8949L38.1195 56.7083C38.4856 56.9685 38.9301 57.1767 39.4531 57.3328C39.976 57.489 40.5042 57.567 41.0377 57.567C42.3556 57.567 43.0145 57.1923 43.0145 56.4429C43.0145 56.1931 42.9256 55.9953 42.7478 55.8496C42.57 55.7039 42.3451 55.5998 42.0731 55.5373C41.8116 55.4645 41.4351 55.3864 40.9435 55.3031C40.2741 55.1991 39.725 55.0794 39.2962 54.944C38.8778 54.8087 38.517 54.5797 38.2137 54.2571C37.9104 53.9344 37.7587 53.4816 37.7587 52.8987C37.7587 52.1493 38.0725 51.5508 38.7 51.1033C39.3276 50.6453 40.1695 50.4163 41.2259 50.4163C41.7803 50.4163 42.3346 50.4839 42.889 50.6192C43.4433 50.7546 43.8983 50.9367 44.2539 51.1657L43.6107 52.3523C42.9308 51.9151 42.1306 51.6965 41.2102 51.6965C40.5722 51.6965 40.0859 51.8006 39.7512 52.0088C39.4165 52.217 39.2491 52.4928 39.2491 52.8363C39.2491 53.1069 39.3433 53.3203 39.5315 53.4764C39.7198 53.6326 39.9499 53.747 40.2218 53.8199C40.5042 53.8928 40.8965 53.976 41.3985 54.0697C42.0679 54.1842 42.6066 54.3091 43.0145 54.4444C43.4329 54.5693 43.7885 54.7879 44.0813 55.1002C44.3742 55.4124 44.5206 55.8496 44.5206 56.4117C44.5206 57.1611 44.1964 57.7596 43.5479 58.2072C42.9099 58.6443 42.0365 58.8629 40.9278 58.8629ZM46.403 50.4943H47.9091V58.7692H46.403V50.4943ZM47.156 48.9018C46.8632 48.9018 46.6174 48.8081 46.4187 48.6208C46.2304 48.4334 46.1363 48.2044 46.1363 47.9338C46.1363 47.6632 46.2304 47.4342 46.4187 47.2468C46.6174 47.0491 46.8632 46.9502 47.156 46.9502C47.4489 46.9502 47.6895 47.0439 47.8777 47.2312C48.0765 47.4082 48.1758 47.632 48.1758 47.9026C48.1758 48.1836 48.0765 48.423 47.8777 48.6208C47.6895 48.8081 47.4489 48.9018 47.156 48.9018ZM55.2245 50.4163C56.2809 50.4163 57.1176 50.7233 57.7347 51.3374C58.3622 51.9411 58.676 52.8311 58.676 54.0073V58.7692H57.1699V54.179C57.1699 53.3775 56.9764 52.7738 56.5894 52.3679C56.2024 51.962 55.6481 51.759 54.9264 51.759C54.1106 51.759 53.4673 51.9984 52.9967 52.4772C52.526 52.9456 52.2907 53.6221 52.2907 54.5069V58.7692H50.7846V50.4943H52.2279V51.7434C52.5312 51.3166 52.9391 50.9888 53.4516 50.7598C53.9746 50.5308 54.5655 50.4163 55.2245 50.4163ZM69.0243 54.6786C69.0243 54.7931 69.0138 54.944 68.9929 55.1314H62.2467C62.3408 55.86 62.6599 56.4481 63.2037 56.8957C63.7581 57.3328 64.4431 57.5514 65.259 57.5514C66.2526 57.5514 67.0527 57.2183 67.6593 56.5522L68.4908 57.5202C68.1143 57.9574 67.6436 58.2904 67.0788 58.5194C66.5245 58.7484 65.9022 58.8629 65.2119 58.8629C64.3333 58.8629 63.5541 58.686 62.8743 58.3321C62.1944 57.9678 61.6662 57.4629 61.2897 56.8176C60.9236 56.1723 60.7406 55.4437 60.7406 54.6318C60.7406 53.8303 60.9184 53.1069 61.274 52.4616C61.6401 51.8162 62.1369 51.3166 62.7644 50.9627C63.4025 50.5984 64.1189 50.4163 64.9138 50.4163C65.7087 50.4163 66.4147 50.5984 67.0318 50.9627C67.6593 51.3166 68.1457 51.8162 68.4908 52.4616C68.8465 53.1069 69.0243 53.8459 69.0243 54.6786ZM64.9138 51.6809C64.1921 51.6809 63.5855 51.8995 63.0939 52.3367C62.6128 52.7738 62.3304 53.3463 62.2467 54.0541H67.5809C67.4972 53.3567 67.2096 52.7895 66.718 52.3523C66.2369 51.9047 65.6355 51.6809 64.9138 51.6809ZM73.5005 58.8629C72.8207 58.8629 72.167 58.7744 71.5394 58.5975C70.9119 58.4101 70.4203 58.1759 70.0647 57.8949L70.6922 56.7083C71.0583 56.9685 71.5028 57.1767 72.0258 57.3328C72.5487 57.489 73.0769 57.567 73.6103 57.567C74.9282 57.567 75.5871 57.1923 75.5871 56.4429C75.5871 56.1931 75.4982 55.9953 75.3204 55.8496C75.1426 55.7039 74.9177 55.5998 74.6458 55.5373C74.3843 55.4645 74.0078 55.3864 73.5162 55.3031C72.8468 55.1991 72.2977 55.0794 71.8689 54.944C71.4505 54.8087 71.0897 54.5797 70.7864 54.2571C70.483 53.9344 70.3314 53.4816 70.3314 52.8987C70.3314 52.1493 70.6452 51.5508 71.2727 51.1033C71.9003 50.6453 72.7422 50.4163 73.7986 50.4163C74.3529 50.4163 74.9073 50.4839 75.4616 50.6192C76.0159 50.7546 76.4709 50.9367 76.8265 51.1657L76.1833 52.3523C75.5034 51.9151 74.7033 51.6965 73.7829 51.6965C73.1449 51.6965 72.6585 51.8006 72.3239 52.0088C71.9892 52.217 71.8218 52.4928 71.8218 52.8363C71.8218 53.1069 71.9159 53.3203 72.1042 53.4764C72.2925 53.6326 72.5226 53.747 72.7945 53.8199C73.0769 53.8928 73.4691 53.976 73.9712 54.0697C74.6406 54.1842 75.1792 54.3091 75.5871 54.4444C76.0055 54.5693 76.3611 54.7879 76.6539 55.1002C76.9468 55.4124 77.0932 55.8496 77.0932 56.4117C77.0932 57.1611 76.769 57.7596 76.1205 58.2072C75.4825 58.6443 74.6092 58.8629 73.5005 58.8629ZM81.36 58.8629C80.6802 58.8629 80.0265 58.7744 79.3989 58.5975C78.7714 58.4101 78.2798 58.1759 77.9242 57.8949L78.5517 56.7083C78.9178 56.9685 79.3623 57.1767 79.8853 57.3328C80.4082 57.489 80.9364 57.567 81.4698 57.567C82.7877 57.567 83.4466 57.1923 83.4466 56.4429C83.4466 56.1931 83.3577 55.9953 83.1799 55.8496C83.0021 55.7039 82.7772 55.5998 82.5053 55.5373C82.2438 55.4645 81.8673 55.3864 81.3757 55.3031C80.7063 55.1991 80.1572 55.0794 79.7284 54.944C79.31 54.8087 78.9492 54.5797 78.6459 54.2571C78.3426 53.9344 78.1909 53.4816 78.1909 52.8987C78.1909 52.1493 78.5047 51.5508 79.1322 51.1033C79.7598 50.6453 80.6017 50.4163 81.6581 50.4163C82.2125 50.4163 82.7668 50.4839 83.3211 50.6192C83.8755 50.7546 84.3304 50.9367 84.686 51.1657L84.0428 52.3523C83.363 51.9151 82.5628 51.6965 81.6424 51.6965C81.0044 51.6965 80.5181 51.8006 80.1834 52.0088C79.8487 52.217 79.6813 52.4928 79.6813 52.8363C79.6813 53.1069 79.7755 53.3203 79.9637 53.4764C80.152 53.6326 80.3821 53.747 80.654 53.8199C80.9364 53.8928 81.3287 53.976 81.8307 54.0697C82.5001 54.1842 83.0387 54.3091 83.4466 54.4444C83.865 54.5693 84.2206 54.7879 84.5135 55.1002C84.8063 55.4124 84.9528 55.8496 84.9528 56.4117C84.9528 57.1611 84.6285 57.7596 83.98 58.2072C83.342 58.6443 82.4687 58.8629 81.36 58.8629ZM95.5512 47.8401C96.9737 47.8401 98.0928 48.1784 98.9086 48.855C99.7244 49.5315 100.132 50.4631 100.132 51.6497C100.132 52.8363 99.7244 53.7679 98.9086 54.4444C98.0928 55.121 96.9737 55.4593 95.5512 55.4593H92.8371V58.7692H91.2682V47.8401H95.5512ZM95.5041 54.1009C96.4978 54.1009 97.2561 53.8928 97.779 53.4764C98.302 53.0497 98.5634 52.4408 98.5634 51.6497C98.5634 50.8586 98.302 50.2549 97.779 49.8386C97.2561 49.4118 96.4978 49.1985 95.5041 49.1985H92.8371V54.1009H95.5041ZM105.169 50.4163C106.319 50.4163 107.198 50.6973 107.804 51.2594C108.422 51.8214 108.73 52.6593 108.73 53.7731V58.7692H107.302V57.6763C107.051 58.0614 106.69 58.3581 106.22 58.5663C105.76 58.764 105.211 58.8629 104.573 58.8629C103.642 58.8629 102.894 58.6391 102.329 58.1915C101.775 57.744 101.498 57.1559 101.498 56.4273C101.498 55.6987 101.764 55.1158 102.298 54.6786C102.831 54.2311 103.678 54.0073 104.839 54.0073H107.224V53.7106C107.224 53.0653 107.036 52.5709 106.659 52.2274C106.283 51.8839 105.728 51.7122 104.996 51.7122C104.505 51.7122 104.023 51.7954 103.553 51.962C103.082 52.1181 102.685 52.3315 102.36 52.6021L101.733 51.478C102.162 51.1345 102.674 50.8743 103.27 50.6973C103.867 50.51 104.499 50.4163 105.169 50.4163ZM104.824 57.7075C105.399 57.7075 105.896 57.5826 106.314 57.3328C106.732 57.0726 107.036 56.7083 107.224 56.2399V55.0846H104.902C103.626 55.0846 102.988 55.5113 102.988 56.3648C102.988 56.7812 103.15 57.109 103.474 57.3484C103.799 57.5878 104.248 57.7075 104.824 57.7075ZM112.961 51.8839C113.222 51.4051 113.609 51.0408 114.122 50.791C114.634 50.5412 115.257 50.4163 115.989 50.4163V51.8683C115.905 51.8579 115.79 51.8527 115.644 51.8527C114.828 51.8527 114.185 52.0973 113.714 52.5865C113.254 53.0653 113.024 53.7523 113.024 54.6474V58.7692H111.517V50.4943H112.961V51.8839ZM122.857 58.2852C122.638 58.4726 122.366 58.6183 122.042 58.7224C121.717 58.8161 121.383 58.8629 121.037 58.8629C120.201 58.8629 119.552 58.6391 119.092 58.1915C118.632 57.744 118.402 57.1038 118.402 56.2711V51.7278H116.99V50.4943H118.402V48.6832H119.908V50.4943H122.293V51.7278H119.908V56.2087C119.908 56.6563 120.018 56.9998 120.237 57.2392C120.467 57.4786 120.792 57.5983 121.21 57.5983C121.67 57.5983 122.062 57.4681 122.387 57.2079L122.857 58.2852ZM129.118 50.4163C130.174 50.4163 131.011 50.7233 131.628 51.3374C132.256 51.9411 132.57 52.8311 132.57 54.0073V58.7692H131.063V54.179C131.063 53.3775 130.87 52.7738 130.483 52.3679C130.096 51.962 129.542 51.759 128.82 51.759C128.004 51.759 127.361 51.9984 126.89 52.4772C126.42 52.9456 126.184 53.6221 126.184 54.5069V58.7692H124.678V50.4943H126.121V51.7434C126.425 51.3166 126.833 50.9888 127.345 50.7598C127.868 50.5308 128.459 50.4163 129.118 50.4163ZM142.918 54.6786C142.918 54.7931 142.907 54.944 142.886 55.1314H136.14C136.234 55.86 136.553 56.4481 137.097 56.8957C137.652 57.3328 138.337 57.5514 139.152 57.5514C140.146 57.5514 140.946 57.2183 141.553 56.5522L142.384 57.5202C142.008 57.9574 141.537 58.2904 140.972 58.5194C140.418 58.7484 139.796 58.8629 139.105 58.8629C138.227 58.8629 137.448 58.686 136.768 58.3321C136.088 57.9678 135.56 57.4629 135.183 56.8176C134.817 56.1723 134.634 55.4437 134.634 54.6318C134.634 53.8303 134.812 53.1069 135.168 52.4616C135.534 51.8162 136.03 51.3166 136.658 50.9627C137.296 50.5984 138.012 50.4163 138.807 50.4163C139.602 50.4163 140.308 50.5984 140.925 50.9627C141.553 51.3166 142.039 51.8162 142.384 52.4616C142.74 53.1069 142.918 53.8459 142.918 54.6786ZM138.807 51.6809C138.086 51.6809 137.479 51.8995 136.987 52.3367C136.506 52.7738 136.224 53.3463 136.14 54.0541H141.474C141.391 53.3567 141.103 52.7895 140.612 52.3523C140.13 51.9047 139.529 51.6809 138.807 51.6809ZM146.452 51.8839C146.714 51.4051 147.101 51.0408 147.613 50.791C148.126 50.5412 148.748 50.4163 149.48 50.4163V51.8683C149.397 51.8579 149.282 51.8527 149.135 51.8527C148.319 51.8527 147.676 52.0973 147.205 52.5865C146.745 53.0653 146.515 53.7523 146.515 54.6474V58.7692H145.009V50.4943H146.452V51.8839Z" fill="#192830"/>
<defs>
<linearGradient id="paint0_linear_1129_267615" x1="24.6068" y1="23.4433" x2="52.5451" y2="24.86" gradientUnits="userSpaceOnUse">
<stop stop-color="#0064E1"/>
<stop offset="0.4" stop-color="#0064E1"/>
<stop offset="0.83" stop-color="#0073EE"/>
<stop offset="1" stop-color="#0082FB"/>
</linearGradient>
<linearGradient id="paint1_linear_1129_267615" x1="22.3497" y1="26.5352" x2="22.3497" y2="16.2757" gradientUnits="userSpaceOnUse">
<stop stop-color="#0082FB"/>
<stop offset="1" stop-color="#0064E0"/>
</linearGradient>
</defs>
</svg>
