<svg width="165" height="66" viewBox="0 0 165 66" fill="none" xmlns="http://www.w3.org/2000/svg">
<rect width="165" height="66" fill="white"/>
<path d="M125.408 16.1636H127.95V31.9622H125.408V16.1636Z" fill="#5F6368"/>
<path d="M131.484 31.2563C130.655 30.7999 129.972 30.1366 129.507 29.3376C129.028 28.5183 128.782 27.5936 128.792 26.6554C128.774 25.6951 129.017 24.7467 129.497 23.9029C129.94 23.1254 130.596 22.4774 131.394 22.028C132.192 21.5786 133.104 21.3447 134.031 21.3513C135.168 21.3025 136.28 21.6855 137.123 22.4165C137.857 23.0536 138.425 23.8445 138.785 24.7268L139.038 25.3294L131.612 28.2627C131.842 28.7562 132.221 29.1729 132.7 29.4593C133.18 29.7456 133.739 29.8887 134.303 29.87C134.853 29.8714 135.394 29.7371 135.873 29.4802C136.352 29.2232 136.754 28.8522 137.039 28.4033L138.932 29.6091C138.458 30.2615 137.85 30.815 137.144 31.236C136.293 31.7395 135.304 31.9912 134.303 31.9595C133.315 31.9716 132.341 31.7287 131.484 31.2563ZM136.176 24.5257C136.023 24.1769 135.748 23.8895 135.397 23.7123C135.006 23.5015 134.564 23.3941 134.115 23.4009C133.641 23.4108 133.178 23.5351 132.768 23.7622C132.295 24.0126 131.903 24.3807 131.632 24.8275C131.327 25.3335 131.181 25.9123 131.212 26.4952L136.176 24.5257Z" fill="#5F6368"/>
<path d="M118.685 36.7055C117.432 36.7055 116.393 36.4183 115.567 35.8439C114.754 35.2695 114.208 34.5882 113.927 33.8002L115.987 32.9385C116.2 33.4728 116.54 33.9004 117.006 34.2209C117.486 34.5548 118.045 34.7218 118.685 34.7218C119.618 34.7218 120.344 34.4413 120.864 33.8803C121.397 33.3326 121.663 32.5579 121.663 31.556V30.6142H121.544C121.211 31.0952 120.764 31.4759 120.205 31.7563C119.658 32.0235 119.025 32.1571 118.305 32.1571C117.452 32.1571 116.659 31.9367 115.927 31.4959C115.194 31.0551 114.607 30.434 114.167 29.6325C113.741 28.8177 113.527 27.8892 113.527 26.8473C113.527 25.8054 113.741 24.8838 114.167 24.0823C114.607 23.2675 115.194 22.6397 115.927 22.1989C116.659 21.7446 117.452 21.5176 118.305 21.5176C119.012 21.5176 119.645 21.6579 120.205 21.9384C120.764 22.2189 121.211 22.5996 121.544 23.0805H121.663V21.8382H123.762V31.4959C123.762 32.6046 123.549 33.5463 123.122 34.3211C122.697 35.1092 122.096 35.7036 121.323 36.1044C120.564 36.5051 119.684 36.7055 118.685 36.7055ZM118.705 30.1534C119.238 30.1534 119.731 30.0266 120.184 29.7727C120.637 29.5055 120.998 29.1249 121.264 28.6306C121.531 28.123 121.663 27.5286 121.663 26.8473C121.663 25.8054 121.377 24.9974 120.804 24.423C120.244 23.8352 119.544 23.5413 118.705 23.5413C118.159 23.5413 117.659 23.6749 117.206 23.942C116.753 24.1958 116.393 24.5698 116.126 25.0641C115.859 25.5584 115.726 26.1527 115.726 26.8473C115.726 27.542 115.859 28.1364 116.126 28.6306C116.393 29.1249 116.753 29.5055 117.206 29.7727C117.659 30.0266 118.159 30.1534 118.705 30.1534Z" fill="#5F6368"/>
<path d="M107.089 31.9623C106.053 31.9623 105.125 31.7375 104.304 31.2878C103.484 30.8254 102.845 30.1958 102.387 29.3993C101.93 28.6028 101.701 27.7164 101.701 26.74C101.701 25.7635 101.93 24.8771 102.387 24.0805C102.845 23.2841 103.484 22.661 104.304 22.2114C105.125 21.7489 106.053 21.5176 107.089 21.5176C108.125 21.5176 109.054 21.7489 109.874 22.2114C110.694 22.6739 111.333 23.3033 111.79 24.0999C112.249 24.8964 112.477 25.7765 112.477 26.74C112.477 27.7164 112.249 28.6028 111.79 29.3993C111.333 30.1958 110.694 30.8254 109.874 31.2878C109.054 31.7375 108.125 31.9623 107.089 31.9623ZM107.089 30.016C107.654 30.016 108.179 29.8875 108.664 29.6306C109.147 29.3607 109.53 28.9818 109.813 28.4936C110.109 27.9926 110.257 27.408 110.257 26.74C110.257 26.0719 110.109 25.4937 109.813 25.0056C109.53 24.5174 109.147 24.1449 108.664 23.8879C108.179 23.6181 107.654 23.4832 107.089 23.4832C106.524 23.4832 106 23.6181 105.515 23.8879C105.031 24.1449 104.641 24.5174 104.345 25.0056C104.062 25.4937 103.921 26.0719 103.921 26.74C103.921 27.408 104.062 27.9926 104.345 28.4936C104.641 28.9818 105.031 29.3607 105.515 29.6306C106 29.8875 106.524 30.016 107.089 30.016Z" fill="#5F6368"/>
<path d="M95.3058 31.9623C94.27 31.9623 93.3417 31.7375 92.5211 31.2878C91.7004 30.8254 91.0614 30.1958 90.6041 29.3993C90.1466 28.6028 89.918 27.7164 89.918 26.74C89.918 25.7635 90.1466 24.8771 90.6041 24.0805C91.0614 23.2841 91.7004 22.661 92.5211 22.2114C93.3417 21.7489 94.27 21.5176 95.3058 21.5176C96.3416 21.5176 97.2699 21.7489 98.0905 22.2114C98.9112 22.6739 99.5502 23.3033 100.008 24.0999C100.465 24.8964 100.694 25.7765 100.694 26.74C100.694 27.7164 100.465 28.6028 100.008 29.3993C99.5502 30.1958 98.9112 30.8254 98.0905 31.2878C97.2699 31.7375 96.3416 31.9623 95.3058 31.9623ZM95.3058 30.016C95.8708 30.016 96.3955 29.8875 96.8798 29.6306C97.3641 29.3607 97.7475 28.9818 98.03 28.4936C98.326 27.9926 98.474 27.408 98.474 26.74C98.474 26.0719 98.326 25.4937 98.03 25.0056C97.7475 24.5174 97.3641 24.1449 96.8798 23.8879C96.3955 23.6181 95.8708 23.4832 95.3058 23.4832C94.7407 23.4832 94.2162 23.6181 93.7318 23.8879C93.2475 24.1449 92.8574 24.5174 92.5614 25.0056C92.2789 25.4937 92.1376 26.0719 92.1376 26.74C92.1376 27.408 92.2789 27.9926 92.5614 28.4936C92.8574 28.9818 93.2475 29.3607 93.7318 29.6306C94.2162 29.8875 94.7407 30.016 95.3058 30.016Z" fill="#5F6368"/>
<path d="M81.2827 31.9621C79.7192 31.9621 78.2782 31.6036 76.9599 30.8862C75.6416 30.1689 74.5916 29.1882 73.8098 27.9438C73.0434 26.6849 72.6602 25.287 72.6602 23.7499C72.6602 22.2129 73.0434 20.8221 73.8098 19.5779C74.5916 18.319 75.6416 17.3308 76.9599 16.6135C78.2782 15.8963 79.7192 15.5376 81.2827 15.5376C82.5243 15.5376 83.6816 15.7498 84.7546 16.1744C85.8276 16.5989 86.7243 17.1917 87.4448 17.953L85.6514 19.6657C85.1149 19.0948 84.471 18.6557 83.72 18.3482C82.9842 18.0408 82.1641 17.8871 81.2597 17.8871C80.202 17.8871 79.2132 18.1286 78.2935 18.6117C77.3738 19.0948 76.6381 19.7828 76.0862 20.6757C75.5343 21.5687 75.2584 22.5934 75.2584 23.7499C75.2584 24.9063 75.5343 25.931 76.0862 26.824C76.6381 27.717 77.3738 28.4049 78.2935 28.888C79.2132 29.3711 80.2097 29.6126 81.2827 29.6126C82.2637 29.6126 83.0838 29.4736 83.743 29.1955C84.4021 28.9174 84.9922 28.544 85.5134 28.0756C85.8506 27.7535 86.1342 27.351 86.3642 26.8679C86.6094 26.3848 86.7704 25.8578 86.847 25.287H81.2597V23.0911H89.2843C89.3609 23.501 89.3992 23.9255 89.3992 24.3647C89.3992 25.3602 89.2383 26.3189 88.9164 27.2412C88.5945 28.1488 88.0809 28.9392 87.3759 29.6126C85.8276 31.179 83.7966 31.9621 81.2827 31.9621Z" fill="#5F6368"/>
<path d="M77.698 36.8843H79.6308L85.1068 51.0914H83.2345L81.7849 47.1825H75.564L74.1145 51.0914H72.2422L77.698 36.8843ZM81.2011 45.5951L79.2885 40.4758L78.7047 38.9479H78.6242L78.0605 40.4758L76.1479 45.5951H81.2011Z" fill="#5F6368"/>
<path d="M86.2734 40.9713H87.9041V42.4595H87.9847C88.2666 41.9568 88.7162 41.5335 89.3336 41.1895C89.951 40.8324 90.6086 40.6538 91.3065 40.6538C92.5414 40.6538 93.4808 41.011 94.1251 41.7253C94.7827 42.4264 95.1116 43.3854 95.1116 44.6025V51.0909H93.4004V44.8604C93.4004 43.9212 93.1722 43.2399 92.7158 42.8166C92.2595 42.3934 91.6354 42.1817 90.8435 42.1817C90.2932 42.1817 89.7967 42.3338 89.3537 42.638C88.9242 42.9423 88.5886 43.3457 88.347 43.8484C88.1054 44.3379 87.9847 44.8538 87.9847 45.3962V51.0909H86.2734V40.9713Z" fill="#5F6368"/>
<path d="M100.34 51.4084C99.5884 51.4084 98.9173 51.2629 98.3268 50.9719C97.7362 50.6808 97.2799 50.284 96.9577 49.7813C96.6356 49.2654 96.4746 48.6834 96.4746 48.0352C96.4746 46.9637 96.884 46.1303 97.7027 45.535C98.5214 44.9266 99.5548 44.6223 100.803 44.6223C101.42 44.6223 101.991 44.6884 102.514 44.8207C103.051 44.953 103.461 45.1051 103.742 45.2771V44.662C103.742 43.9079 103.474 43.306 102.937 42.8563C102.4 42.3934 101.722 42.1619 100.904 42.1619C100.327 42.1619 99.7964 42.2875 99.3132 42.5388C98.8301 42.7769 98.4475 43.1142 98.1657 43.5508L96.8772 42.5983C97.2799 41.9899 97.8301 41.5137 98.5281 41.1697C99.2395 40.8258 100.025 40.6538 100.884 40.6538C102.279 40.6538 103.373 41.0176 104.165 41.7452C104.97 42.4595 105.373 43.4383 105.373 44.6818V51.0909H103.742V49.6424H103.662C103.367 50.1319 102.924 50.5486 102.333 50.8925C101.743 51.2364 101.078 51.4084 100.34 51.4084ZM100.501 49.9202C101.078 49.9202 101.615 49.7747 102.112 49.4836C102.608 49.1926 103.004 48.8024 103.3 48.313C103.595 47.8235 103.742 47.2878 103.742 46.7057C103.42 46.4941 103.024 46.3221 102.555 46.1898C102.085 46.0575 101.588 45.9914 101.065 45.9914C100.125 45.9914 99.4139 46.1832 98.9307 46.5668C98.4609 46.9504 98.2261 47.4465 98.2261 48.055C98.2261 48.6107 98.4408 49.0603 98.8703 49.4043C99.2998 49.7482 99.8434 49.9202 100.501 49.9202Z" fill="#5F6368"/>
<path d="M107.648 36.8838H109.36V51.0909H107.648V36.8838Z" fill="#5F6368"/>
<path d="M114.63 50.4564L110.383 40.9717H112.235L115.456 48.4919H115.496L118.597 40.9717H120.449L114.107 55.3772H112.336L114.63 50.4564Z" fill="#5F6368"/>
<path d="M125.778 51.2499C125.362 51.2499 124.973 51.1837 124.61 51.0514C124.262 50.9192 123.966 50.7406 123.725 50.5158C123.456 50.2644 123.255 49.9734 123.12 49.6427C122.986 49.312 122.919 48.9085 122.919 48.4323V42.4994H121.127V40.9716H122.919V38.1143H124.63V40.9716H127.127V42.4994H124.63V48.0156C124.63 48.5712 124.738 48.9813 124.953 49.2458C125.208 49.5369 125.577 49.6824 126.06 49.6824C126.449 49.6824 126.825 49.5699 127.187 49.345V50.9919C126.986 51.0845 126.778 51.1507 126.563 51.1903C126.362 51.23 126.1 51.2499 125.778 51.2499Z" fill="#5F6368"/>
<path d="M129.908 39.1065C129.572 39.1065 129.283 38.9875 129.042 38.7494C128.8 38.5112 128.68 38.2268 128.68 37.8961C128.68 37.5654 128.8 37.2876 129.042 37.0628C129.283 36.8247 129.572 36.7056 129.908 36.7056C130.243 36.7056 130.532 36.8247 130.773 37.0628C131.015 37.2876 131.135 37.5654 131.135 37.8961C131.135 38.2268 131.015 38.5112 130.773 38.7494C130.545 38.9875 130.256 39.1065 129.908 39.1065ZM129.062 40.9717H130.753V51.0913H129.062V40.9717Z" fill="#5F6368"/>
<path d="M137.591 51.4084C136.598 51.4084 135.705 51.1769 134.913 50.7139C134.121 50.2377 133.503 49.5961 133.061 48.7891C132.618 47.9691 132.396 47.0497 132.396 46.0311C132.396 45.0125 132.618 44.0931 133.061 43.273C133.503 42.4529 134.121 41.8113 134.913 41.3483C135.705 40.8853 136.598 40.6538 137.591 40.6538C138.705 40.6538 139.638 40.9117 140.389 41.4277C141.154 41.9304 141.697 42.6049 142.02 43.4516L140.47 44.0865C140.214 43.4648 139.832 42.9952 139.322 42.6777C138.825 42.3471 138.222 42.1817 137.51 42.1817C136.906 42.1817 136.343 42.3471 135.819 42.6777C135.295 42.9952 134.873 43.4449 134.551 44.027C134.242 44.6091 134.088 45.2771 134.088 46.0311C134.088 46.7851 134.242 47.4531 134.551 48.0352C134.873 48.6173 135.295 49.0736 135.819 49.4043C136.343 49.7218 136.906 49.8805 137.51 49.8805C138.235 49.8805 138.859 49.7151 139.382 49.3844C139.906 49.0537 140.295 48.5842 140.55 47.9757L142.08 48.6106C141.731 49.444 141.167 50.1186 140.389 50.6345C139.624 51.1505 138.691 51.4084 137.591 51.4084Z" fill="#5F6368"/>
<path d="M147.112 51.4084C146.012 51.4084 145.093 51.1571 144.354 50.6544C143.616 50.1385 143.092 49.4836 142.783 48.6899L144.314 48.0154C144.568 48.6239 144.944 49.0934 145.441 49.4241C145.952 49.7548 146.508 49.9202 147.112 49.9202C147.756 49.9202 148.306 49.7945 148.763 49.5432C149.22 49.2786 149.448 48.9082 149.448 48.4321C149.448 48.0087 149.266 47.6714 148.904 47.4201C148.541 47.1555 147.971 46.9306 147.193 46.7454L145.945 46.4279C145.126 46.2295 144.455 45.8922 143.931 45.416C143.408 44.9398 143.146 44.3247 143.146 43.5706C143.146 42.9886 143.32 42.4793 143.67 42.0428C144.032 41.593 144.508 41.2491 145.099 41.011C145.689 40.7728 146.327 40.6538 147.011 40.6538C147.91 40.6538 148.709 40.8456 149.407 41.2292C150.118 41.6129 150.622 42.1486 150.917 42.8364L149.427 43.5111C148.971 42.6115 148.159 42.1619 146.991 42.1619C146.427 42.1619 145.931 42.2941 145.501 42.5586C145.086 42.81 144.877 43.1341 144.877 43.5309C144.877 43.9013 145.025 44.2056 145.321 44.4437C145.616 44.6686 146.058 44.8538 146.649 44.9993L148.139 45.3763C149.146 45.6276 149.904 46.0046 150.413 46.5073C150.924 46.9967 151.179 47.5987 151.179 48.313C151.179 48.9347 150.998 49.4836 150.636 49.9599C150.273 50.4229 149.783 50.7801 149.165 51.0314C148.548 51.2827 147.864 51.4084 147.112 51.4084Z" fill="#5F6368"/>
<path d="M62.1598 12.2902V51.789C62.1598 54.2639 60.123 56.2702 57.6119 56.2701H45.3848L45.3849 23.2049V12.2902C45.3849 9.81528 47.4216 7.80908 49.9327 7.80908H57.6119C60.123 7.80897 62.1598 9.81528 62.1598 12.2902Z" fill="url(#paint0_linear_1129_267677)"/>
<path d="M45.3856 23.2047V56.27H17.5479C15.0356 56.27 13 54.2637 13 51.7876L13.0001 44.3832C13.0001 41.9071 15.0356 39.9008 17.5479 39.9008H28.6119V27.687C28.6119 25.2109 30.6474 23.2046 33.1597 23.2046L45.3856 23.2047Z" fill="#FFC720"/>
<path d="M62.1591 12.2904V39.7372L45.3848 23.2045V12.2904C45.3848 9.81533 47.4209 7.80859 49.9321 7.80859H57.6118C60.1229 7.80849 62.1591 9.81544 62.1591 12.2904Z" fill="url(#paint1_linear_1129_267677)"/>
<defs>
<linearGradient id="paint0_linear_1129_267677" x1="45.3848" y1="32.0396" x2="62.1598" y2="32.0396" gradientUnits="userSpaceOnUse">
<stop stop-color="#E9710B"/>
<stop offset="1" stop-color="#F37900"/>
</linearGradient>
<linearGradient id="paint1_linear_1129_267677" x1="45.3848" y1="17.8845" x2="62.1591" y2="17.8845" gradientUnits="userSpaceOnUse">
<stop stop-color="#F37F09"/>
<stop offset="1" stop-color="#F57C00"/>
</linearGradient>
</defs>
</svg>
