<svg width="107" height="107" viewBox="0 0 107 107" fill="none" xmlns="http://www.w3.org/2000/svg">
<g clip-path="url(#clip0_665_53101)">
<path d="M23.5548 43.7276C36.4784 43.7276 46.9978 54.2381 46.9978 67.1707C46.9978 80.1032 36.4873 90.6137 23.5548 90.6137C10.6312 90.6137 0.111719 80.1032 0.111719 67.1707L0 63.8861C0 37.9272 21.0344 17 46.8861 17V30.3616C37.9039 30.3616 29.5787 33.8651 23.2241 40.2152C22.0131 41.4262 20.9272 42.6238 19.8278 44.0493C21.0389 43.8304 22.3482 43.7231 23.5548 43.7231L23.5593 43.7187L23.5548 43.7276ZM83.8069 43.7276C96.7306 43.7276 107.25 54.2381 107.25 67.1707C107.25 80.1032 96.7395 90.6137 83.8069 90.6137C70.8833 90.6137 60.3639 80.1032 60.3639 67.1707L60.2522 63.8861C60.2522 37.9272 81.2866 17 107.138 17V30.3616C98.2678 30.3616 89.8308 33.8651 83.4762 40.2152C82.2652 41.4262 81.1793 42.6238 80.1917 44.0493C81.4027 43.8304 82.6004 43.7231 83.8114 43.7231L83.8069 43.7187V43.7276Z" fill="#EBEBED"/>
</g>
<defs>
<clipPath id="clip0_665_53101">
<rect width="107" height="107" fill="white"/>
</clipPath>
</defs>
</svg>
