<svg width="100" height="20" viewBox="0 0 100 20" fill="none" xmlns="http://www.w3.org/2000/svg">
<rect width="100" height="20" fill="white"/>
<path d="M9.06334 2.50494C9.38729 1.6386 10.6127 1.6386 10.9367 2.50494L12.2369 5.98221C12.3774 6.35806 12.729 6.6135 13.1299 6.63102L16.8388 6.79308C17.7628 6.83346 18.1415 7.99891 17.4177 8.57472L14.5124 10.8859C14.1984 11.1357 14.0641 11.549 14.1713 11.9356L15.1633 15.5131C15.4104 16.4044 14.419 17.1247 13.6477 16.6142L10.5519 14.5653C10.2173 14.3438 9.78271 14.3438 9.44809 14.5653L6.35229 16.6142C5.58099 17.1247 4.5896 16.4044 4.83674 15.5131L5.82872 11.9356C5.93594 11.549 5.80164 11.1357 5.48762 10.8859L2.58233 8.57472C1.8585 7.99891 2.23717 6.83346 3.16122 6.79308L6.8701 6.63102C7.27098 6.6135 7.62257 6.35806 7.7631 5.98221L9.06334 2.50494Z" fill=""/>
<path d="M29.0633 2.50494C29.3873 1.6386 30.6127 1.6386 30.9367 2.50494L32.2369 5.98221C32.3774 6.35806 32.729 6.6135 33.1299 6.63102L36.8388 6.79308C37.7628 6.83346 38.1415 7.99891 37.4177 8.57472L34.5124 10.8859C34.1984 11.1357 34.0641 11.549 34.1713 11.9356L35.1633 15.5131C35.4104 16.4044 34.419 17.1247 33.6477 16.6142L30.5519 14.5653C30.2173 14.3438 29.7827 14.3438 29.4481 14.5653L26.3523 16.6142C25.581 17.1247 24.5896 16.4044 24.8367 15.5131L25.8287 11.9356C25.9359 11.549 25.8016 11.1357 25.4876 10.8859L22.5823 8.57472C21.8585 7.99891 22.2372 6.83346 23.1612 6.79308L26.8701 6.63102C27.271 6.6135 27.6226 6.35806 27.7631 5.98221L29.0633 2.50494Z" fill=""/>
<path d="M49.0633 2.50494C49.3873 1.6386 50.6127 1.6386 50.9367 2.50494L52.2369 5.98221C52.3774 6.35806 52.729 6.6135 53.1299 6.63102L56.8388 6.79308C57.7628 6.83346 58.1415 7.99891 57.4177 8.57472L54.5124 10.8859C54.1984 11.1357 54.0641 11.549 54.1713 11.9356L55.1633 15.5131C55.4104 16.4044 54.419 17.1247 53.6477 16.6142L50.5519 14.5653C50.2173 14.3438 49.7827 14.3438 49.4481 14.5653L46.3523 16.6142C45.581 17.1247 44.5896 16.4044 44.8367 15.5131L45.8287 11.9356C45.9359 11.549 45.8016 11.1357 45.4876 10.8859L42.5823 8.57472C41.8585 7.99891 42.2372 6.83346 43.1612 6.79308L46.8701 6.63102C47.271 6.6135 47.6226 6.35806 47.7631 5.98221L49.0633 2.50494Z" fill=""/>
<path d="M69.0633 2.50494C69.3873 1.6386 70.6127 1.6386 70.9367 2.50494L72.2369 5.98221C72.3774 6.35806 72.729 6.6135 73.1299 6.63102L76.8388 6.79308C77.7628 6.83346 78.1415 7.99891 77.4177 8.57472L74.5124 10.8859C74.1984 11.1357 74.0641 11.549 74.1713 11.9356L75.1633 15.5131C75.4104 16.4044 74.419 17.1247 73.6477 16.6142L70.5519 14.5653C70.2173 14.3438 69.7827 14.3438 69.4481 14.5653L66.3523 16.6142C65.581 17.1247 64.5896 16.4044 64.8367 15.5131L65.8287 11.9356C65.9359 11.549 65.8016 11.1357 65.4876 10.8859L62.5823 8.57472C61.8585 7.99891 62.2372 6.83346 63.1612 6.79308L66.8701 6.63102C67.271 6.6135 67.6226 6.35806 67.7631 5.98221L69.0633 2.50494Z" fill=""/>
<path d="M89.0633 2.50494C89.3873 1.6386 90.6127 1.6386 90.9367 2.50494L92.2369 5.98221C92.3774 6.35806 92.729 6.6135 93.1299 6.63102L96.8388 6.79308C97.7628 6.83346 98.1415 7.99891 97.4177 8.57472L94.5124 10.8859C94.1984 11.1357 94.0641 11.549 94.1713 11.9356L95.1633 15.5131C95.4104 16.4044 94.419 17.1247 93.6477 16.6142L90.5519 14.5653C90.2173 14.3438 89.7827 14.3438 89.4481 14.5653L86.3523 16.6142C85.581 17.1247 84.5896 16.4044 84.8367 15.5131L85.8287 11.9356C85.9359 11.549 85.8016 11.1357 85.4876 10.8859L82.5823 8.57472C81.8585 7.99891 82.2372 6.83346 83.1612 6.79308L86.8701 6.63102C87.271 6.6135 87.6226 6.35806 87.7631 5.98221L89.0633 2.50494Z" fill=""/>
</svg>
