<svg width="96" height="96" viewBox="0 0 96 96" fill="none" xmlns="http://www.w3.org/2000/svg">
<path d="M88.5 5.94507H7.5C5.5116 5.94739 3.6053 6.73106 2.19929 8.12418C0.793271 9.51729 0.00234217 11.4061 0 13.3763L0 81.7432C0.00234217 83.7134 0.793271 85.6022 2.19929 86.9953C3.6053 88.3884 5.5116 89.1721 7.5 89.1744H88.5C90.4884 89.1721 92.3947 88.3884 93.8007 86.9953C95.2067 85.6022 95.9977 83.7134 96 81.7432V13.3763C95.9977 11.4061 95.2067 9.51729 93.8007 8.12418C92.3947 6.73106 90.4884 5.94739 88.5 5.94507ZM7.5 8.91755H88.5C89.6931 8.91884 90.8369 9.38902 91.6805 10.2249C92.5242 11.0608 92.9987 12.1941 93 13.3763V17.835H40.5C40.1022 17.835 39.7206 17.9916 39.4393 18.2703C39.158 18.549 39 18.927 39 19.3212C38.9977 21.2914 38.2067 23.1802 36.8007 24.5733C35.3947 25.9664 33.4884 26.7501 31.5 26.7524H3V13.3763C3.00131 12.1941 3.47584 11.0608 4.31947 10.2249C5.1631 9.38902 6.30693 8.91884 7.5 8.91755ZM88.5 86.202H7.5C6.30693 86.2006 5.1631 85.7305 4.31947 84.8946C3.47584 84.0587 3.00131 82.9254 3 81.7432V29.7249H31.5C34.0241 29.7217 36.4628 28.8191 38.3709 27.1819C40.279 25.5448 41.5291 23.2822 41.8931 20.8075H93V81.7432C92.9987 82.9254 92.5242 84.0587 91.6805 84.8946C90.8369 85.7305 89.6931 86.2006 88.5 86.202Z" fill="#FF5C39"/>
<path d="M10.5 23.78C11.39 23.78 12.26 23.5185 13.0001 23.0286C13.7401 22.5386 14.3169 21.8423 14.6575 21.0275C14.9981 20.2128 15.0872 19.3163 14.9135 18.4514C14.7399 17.5865 14.3113 16.792 13.682 16.1685C13.0526 15.5449 12.2508 15.1203 11.3779 14.9482C10.505 14.7762 9.60019 14.8645 8.77792 15.202C7.95566 15.5394 7.25285 16.1109 6.75839 16.8441C6.26392 17.5774 6 18.4394 6 19.3213C6.00131 20.5034 6.47584 21.6367 7.31947 22.4726C8.1631 23.3085 9.30693 23.7787 10.5 23.78ZM10.5 17.835C10.7967 17.835 11.0867 17.9222 11.3334 18.0855C11.58 18.2488 11.7723 18.4809 11.8858 18.7525C11.9994 19.0241 12.0291 19.3229 11.9712 19.6112C11.9133 19.8995 11.7704 20.1643 11.5607 20.3722C11.3509 20.5801 11.0836 20.7216 10.7926 20.7789C10.5017 20.8363 10.2001 20.8069 9.92598 20.6944C9.65189 20.5819 9.41762 20.3914 9.2528 20.147C9.08797 19.9026 9 19.6152 9 19.3213C9.00052 18.9272 9.15872 18.5495 9.43991 18.2709C9.7211 17.9923 10.1023 17.8355 10.5 17.835Z" fill="#FF5C39"/>
<path d="M21 23.78C21.89 23.78 22.76 23.5185 23.5001 23.0286C24.2401 22.5386 24.8169 21.8423 25.1575 21.0275C25.4981 20.2128 25.5872 19.3163 25.4135 18.4514C25.2399 17.5865 24.8113 16.792 24.182 16.1685C23.5526 15.5449 22.7508 15.1203 21.8779 14.9482C21.005 14.7762 20.1002 14.8645 19.2779 15.202C18.4557 15.5394 17.7529 16.1109 17.2584 16.8441C16.7639 17.5774 16.5 18.4394 16.5 19.3213C16.5013 20.5034 16.9758 21.6367 17.8195 22.4726C18.6631 23.3085 19.8069 23.7787 21 23.78ZM21 17.835C21.2967 17.835 21.5867 17.9222 21.8334 18.0855C22.08 18.2488 22.2723 18.4809 22.3858 18.7525C22.4994 19.0241 22.5291 19.3229 22.4712 19.6112C22.4133 19.8995 22.2704 20.1643 22.0607 20.3722C21.8509 20.5801 21.5836 20.7216 21.2926 20.7789C21.0017 20.8363 20.7001 20.8069 20.426 20.6944C20.1519 20.5819 19.9176 20.3914 19.7528 20.147C19.588 19.9026 19.5 19.6152 19.5 19.3213C19.5005 18.9272 19.6587 18.5495 19.9399 18.2709C20.2211 17.9923 20.6023 17.8355 21 17.835Z" fill="#FF5C39"/>
<path d="M31.5 23.78C32.39 23.78 33.26 23.5185 34.0001 23.0286C34.7401 22.5386 35.3169 21.8423 35.6575 21.0275C35.9981 20.2128 36.0872 19.3163 35.9135 18.4514C35.7399 17.5865 35.3113 16.792 34.682 16.1685C34.0526 15.5449 33.2508 15.1203 32.3779 14.9482C31.505 14.7762 30.6002 14.8645 29.7779 15.202C28.9557 15.5394 28.2529 16.1109 27.7584 16.8441C27.2639 17.5774 27 18.4394 27 19.3213C27.0013 20.5034 27.4758 21.6367 28.3195 22.4726C29.1631 23.3085 30.3069 23.7787 31.5 23.78ZM31.5 17.835C31.7967 17.835 32.0867 17.9222 32.3334 18.0855C32.58 18.2488 32.7723 18.4809 32.8858 18.7525C32.9994 19.0241 33.0291 19.3229 32.9712 19.6112C32.9133 19.8995 32.7704 20.1643 32.5607 20.3722C32.3509 20.5801 32.0836 20.7216 31.7926 20.7789C31.5017 20.8363 31.2001 20.8069 30.926 20.6944C30.6519 20.5819 30.4176 20.3914 30.2528 20.147C30.088 19.9026 30 19.6152 30 19.3213C30.0005 18.9272 30.1587 18.5495 30.4399 18.2709C30.7211 17.9923 31.1023 17.8355 31.5 17.835Z" fill="#FF5C39"/>
<path d="M55.5 14.8626H79.5C79.8978 14.8626 80.2794 14.706 80.5607 14.4273C80.842 14.1486 81 13.7706 81 13.3764C81 12.9822 80.842 12.6042 80.5607 12.3254C80.2794 12.0467 79.8978 11.8901 79.5 11.8901H55.5C55.1022 11.8901 54.7206 12.0467 54.4393 12.3254C54.158 12.6042 54 12.9822 54 13.3764C54 13.7706 54.158 14.1486 54.4393 14.4273C54.7206 14.706 55.1022 14.8626 55.5 14.8626Z" fill="#FF5C39"/>
<path d="M84 14.8626H87C87.3978 14.8626 87.7794 14.706 88.0607 14.4273C88.342 14.1486 88.5 13.7706 88.5 13.3764C88.5 12.9822 88.342 12.6042 88.0607 12.3254C87.7794 12.0467 87.3978 11.8901 87 11.8901H84C83.6022 11.8901 83.2206 12.0467 82.9393 12.3254C82.658 12.6042 82.5 12.9822 82.5 13.3764C82.5 13.7706 82.658 14.1486 82.9393 14.4273C83.2206 14.706 83.6022 14.8626 84 14.8626Z" fill="#FF5C39"/>
<path d="M45 41.6147H12C10.8069 41.616 9.6631 42.0862 8.81947 42.9221C7.97584 43.758 7.50131 44.8913 7.5 46.0735V69.8533C7.50131 71.0354 7.97584 72.1687 8.81947 73.0046C9.6631 73.8405 10.8069 74.3107 12 74.312H45C46.1931 74.3107 47.3369 73.8405 48.1805 73.0046C49.0242 72.1687 49.4987 71.0354 49.5 69.8533V46.0735C49.4987 44.8913 49.0242 43.758 48.1805 42.9221C47.3369 42.0862 46.1931 41.616 45 41.6147ZM12 44.5872H45C45.3977 44.5877 45.7789 44.7445 46.0601 45.0231C46.3413 45.3017 46.4995 45.6794 46.5 46.0735V58.8342L38.5605 50.9676C38.4213 50.8296 38.256 50.72 38.074 50.6453C37.892 50.5706 37.697 50.5321 37.5 50.5321C37.303 50.5321 37.108 50.5706 36.926 50.6453C36.744 50.72 36.5787 50.8296 36.4395 50.9676L25.5 61.8066L20.5605 56.9126C20.4213 56.7745 20.256 56.665 20.074 56.5903C19.892 56.5155 19.697 56.4771 19.5 56.4771C19.303 56.4771 19.108 56.5155 18.926 56.5903C18.744 56.665 18.5787 56.7745 18.4395 56.9126L10.5 64.7791V46.0735C10.5005 45.6794 10.6587 45.3017 10.9399 45.0231C11.2211 44.7445 11.6023 44.5877 12 44.5872ZM45 71.3395H12C11.6023 71.339 11.2211 71.1823 10.9399 70.9036C10.6587 70.625 10.5005 70.2473 10.5 69.8533V68.9825L19.5 60.0651L28.9395 69.4178C29.2224 69.6885 29.6013 69.8383 29.9946 69.835C30.3879 69.8316 30.7641 69.6753 31.0422 69.3997C31.3203 69.1241 31.4781 68.7514 31.4815 68.3617C31.4849 67.972 31.3337 67.5966 31.0605 67.3163L27.6212 63.9083L37.5 54.1201L46.5 63.0375V69.8533C46.4995 70.2473 46.3413 70.625 46.0601 70.9036C45.7789 71.1823 45.3977 71.339 45 71.3395Z" fill="#FF5C39"/>
<path d="M78 56.4773H55.5C55.1022 56.4773 54.7206 56.6339 54.4393 56.9126C54.158 57.1913 54 57.5694 54 57.9635C54 58.3577 54.158 58.7357 54.4393 59.0145C54.7206 59.2932 55.1022 59.4498 55.5 59.4498H78C78.3978 59.4498 78.7794 59.2932 79.0607 59.0145C79.342 58.7357 79.5 58.3577 79.5 57.9635C79.5 57.5694 79.342 57.1913 79.0607 56.9126C78.7794 56.6339 78.3978 56.4773 78 56.4773Z" fill="#FF5C39"/>
<path d="M78 63.9084H55.5C55.1022 63.9084 54.7206 64.065 54.4393 64.3438C54.158 64.6225 54 65.0005 54 65.3947C54 65.7889 54.158 66.1669 54.4393 66.4456C54.7206 66.7243 55.1022 66.8809 55.5 66.8809H78C78.3978 66.8809 78.7794 66.7243 79.0607 66.4456C79.342 66.1669 79.5 65.7889 79.5 65.3947C79.5 65.0005 79.342 64.6225 79.0607 64.3438C78.7794 64.065 78.3978 63.9084 78 63.9084Z" fill="#FF5C39"/>
<path d="M78 71.3396H55.5C55.1022 71.3396 54.7206 71.4962 54.4393 71.7749C54.158 72.0536 54 72.4317 54 72.8258C54 73.22 54.158 73.598 54.4393 73.8768C54.7206 74.1555 55.1022 74.3121 55.5 74.3121H78C78.3978 74.3121 78.7794 74.1555 79.0607 73.8768C79.342 73.598 79.5 73.22 79.5 72.8258C79.5 72.4317 79.342 72.0536 79.0607 71.7749C78.7794 71.4962 78.3978 71.3396 78 71.3396Z" fill="#FF5C39"/>
<path d="M78 49.0459H55.5C55.1022 49.0459 54.7206 49.2025 54.4393 49.4812C54.158 49.7599 54 50.138 54 50.5321C54 50.9263 54.158 51.3043 54.4393 51.5831C54.7206 51.8618 55.1022 52.0184 55.5 52.0184H78C78.3978 52.0184 78.7794 51.8618 79.0607 51.5831C79.342 51.3043 79.5 50.9263 79.5 50.5321C79.5 50.138 79.342 49.7599 79.0607 49.4812C78.7794 49.2025 78.3978 49.0459 78 49.0459Z" fill="#FF5C39"/>
<path d="M87 41.6147H55.5C55.1022 41.6147 54.7206 41.7713 54.4393 42.0501C54.158 42.3288 54 42.7068 54 43.101C54 43.4952 54.158 43.8732 54.4393 44.1519C54.7206 44.4306 55.1022 44.5872 55.5 44.5872H87C87.3978 44.5872 87.7794 44.4306 88.0607 44.1519C88.342 43.8732 88.5 43.4952 88.5 43.101C88.5 42.7068 88.342 42.3288 88.0607 42.0501C87.7794 41.7713 87.3978 41.6147 87 41.6147Z" fill="#FF5C39"/>
<path d="M25.5 56.4772C26.39 56.4772 27.26 56.2157 28.0001 55.7258C28.7401 55.2359 29.3169 54.5395 29.6575 53.7248C29.9981 52.9101 30.0872 52.0136 29.9135 51.1487C29.7399 50.2838 29.3113 49.4893 28.682 48.8657C28.0526 48.2422 27.2508 47.8175 26.3779 47.6455C25.505 47.4734 24.6002 47.5617 23.7779 47.8992C22.9557 48.2367 22.2529 48.8082 21.7584 49.5414C21.2639 50.2746 21 51.1367 21 52.0185C21.0013 53.2007 21.4758 54.334 22.3195 55.1699C23.1631 56.0058 24.3069 56.476 25.5 56.4772ZM25.5 50.5323C25.7967 50.5323 26.0867 50.6195 26.3334 50.7828C26.58 50.9461 26.7723 51.1782 26.8858 51.4498C26.9994 51.7213 27.0291 52.0202 26.9712 52.3085C26.9133 52.5968 26.7704 52.8616 26.5607 53.0695C26.3509 53.2773 26.0836 53.4189 25.7926 53.4762C25.5017 53.5336 25.2001 53.5041 24.926 53.3916C24.6519 53.2791 24.4176 53.0887 24.2528 52.8442C24.088 52.5998 24 52.3125 24 52.0185C24.0005 51.6245 24.1587 51.2468 24.4399 50.9682C24.7211 50.6896 25.1023 50.5328 25.5 50.5323Z" fill="#FF5C39"/>
<path d="M87 49.0459H82.5C82.1022 49.0459 81.7206 49.2025 81.4393 49.4812C81.158 49.7599 81 50.138 81 50.5321C81 50.9263 81.158 51.3043 81.4393 51.5831C81.7206 51.8618 82.1022 52.0184 82.5 52.0184H87C87.3978 52.0184 87.7794 51.8618 88.0607 51.5831C88.342 51.3043 88.5 50.9263 88.5 50.5321C88.5 50.138 88.342 49.7599 88.0607 49.4812C87.7794 49.2025 87.3978 49.0459 87 49.0459Z" fill="#FF5C39"/>
<path d="M87 56.4773H82.5C82.1022 56.4773 81.7206 56.6339 81.4393 56.9126C81.158 57.1913 81 57.5694 81 57.9635C81 58.3577 81.158 58.7357 81.4393 59.0145C81.7206 59.2932 82.1022 59.4498 82.5 59.4498H87C87.3978 59.4498 87.7794 59.2932 88.0607 59.0145C88.342 58.7357 88.5 58.3577 88.5 57.9635C88.5 57.5694 88.342 57.1913 88.0607 56.9126C87.7794 56.6339 87.3978 56.4773 87 56.4773Z" fill="#FF5C39"/>
<path d="M87 63.9084H82.5C82.1022 63.9084 81.7206 64.065 81.4393 64.3438C81.158 64.6225 81 65.0005 81 65.3947C81 65.7889 81.158 66.1669 81.4393 66.4456C81.7206 66.7243 82.1022 66.8809 82.5 66.8809H87C87.3978 66.8809 87.7794 66.7243 88.0607 66.4456C88.342 66.1669 88.5 65.7889 88.5 65.3947C88.5 65.0005 88.342 64.6225 88.0607 64.3438C87.7794 64.065 87.3978 63.9084 87 63.9084Z" fill="#FF5C39"/>
<path d="M87 71.3396H82.5C82.1022 71.3396 81.7206 71.4962 81.4393 71.7749C81.158 72.0536 81 72.4317 81 72.8258C81 73.22 81.158 73.598 81.4393 73.8768C81.7206 74.1555 82.1022 74.3121 82.5 74.3121H87C87.3978 74.3121 87.7794 74.1555 88.0607 73.8768C88.342 73.598 88.5 73.22 88.5 72.8258C88.5 72.4317 88.342 72.0536 88.0607 71.7749C87.7794 71.4962 87.3978 71.3396 87 71.3396Z" fill="#FF5C39"/>
</svg>
