<svg width="96" height="96" viewBox="0 0 96 96" fill="none" xmlns="http://www.w3.org/2000/svg">
<path d="M48 13.376C41.1766 13.376 34.5063 15.3808 28.8328 19.1369C23.1593 22.8931 18.7374 28.2318 16.1262 34.478C13.5149 40.7242 12.8317 47.5974 14.1629 54.2283C15.4941 60.8593 18.7799 66.9502 23.6048 71.7308C28.4297 76.5115 34.5771 79.7671 41.2694 81.0861C47.9617 82.4051 54.8985 81.7281 61.2026 79.1409C67.5066 76.5536 72.8948 72.1722 76.6857 66.5508C80.4766 60.9293 82.5 54.3203 82.5 47.5595C82.4897 38.4966 78.8516 29.8078 72.3838 23.3993C65.9161 16.9909 57.1468 13.3862 48 13.376ZM48 78.7705C41.7699 78.7705 35.6797 76.94 30.4996 73.5105C25.3194 70.081 21.282 65.2065 18.8978 59.5034C16.5136 53.8003 15.8898 47.5248 17.1053 41.4705C18.3207 35.4162 21.3208 29.8549 25.7262 25.4899C30.1315 21.125 35.7443 18.1524 41.8547 16.9482C47.9651 15.7439 54.2987 16.362 60.0545 18.7242C65.8104 21.0865 70.73 25.0869 74.1913 30.2196C77.6526 35.3522 79.5 41.3865 79.5 47.5595C79.4905 55.8343 76.1687 63.7674 70.2634 69.6186C64.3581 75.4698 56.3514 78.7611 48 78.7705Z" fill="#FF5C39"/>
<path d="M89.91 27.5912C89.8242 27.4155 89.7043 27.2582 89.5572 27.1284C89.4101 26.9985 89.2386 26.8987 89.0525 26.8345C88.8664 26.7704 88.6694 26.7432 88.4727 26.7544C88.276 26.7657 88.0835 26.8153 87.9061 26.9003C87.7288 26.9853 87.5701 27.104 87.439 27.2498C87.308 27.3956 87.2072 27.5655 87.1425 27.7499C87.0777 27.9343 87.0502 28.1295 87.0616 28.3244C87.073 28.5192 87.123 28.71 87.2088 28.8857C90.0534 34.7062 91.521 41.0927 91.5 47.5596C91.503 56.0495 88.9746 64.351 84.2321 71.4219C79.4896 78.4928 72.7445 84.0179 64.8437 87.3035C56.9428 90.5891 48.2384 91.4887 39.8233 89.8894C31.4083 88.2901 23.6576 84.2631 17.5444 78.3142C16.2494 77.0594 15.0382 75.7225 13.9183 74.3119H19.5C19.8978 74.3119 20.2794 74.1553 20.5607 73.8766C20.842 73.5978 21 73.2198 21 72.8256C21 72.4314 20.842 72.0534 20.5607 71.7747C20.2794 71.496 19.8978 71.3394 19.5 71.3394H10.5C10.1022 71.3394 9.72064 71.496 9.43934 71.7747C9.15804 72.0534 9 72.4314 9 72.8256V81.7431C9 82.1372 9.15804 82.5153 9.43934 82.794C9.72064 83.0727 10.1022 83.2293 10.5 83.2293C10.8978 83.2293 11.2794 83.0727 11.5607 82.794C11.842 82.5153 12 82.1372 12 81.7431V76.6939C13.0764 78.0076 14.2283 79.2588 15.45 80.4411C21.9856 86.7982 30.2708 91.1008 39.2656 92.8088C48.2604 94.5169 57.564 93.5541 66.0086 90.0415C74.4531 86.529 81.6623 80.623 86.7312 73.0651C91.8001 65.5072 94.5028 56.6341 94.5 47.5596C94.5215 40.6443 92.9517 33.8152 89.91 27.5912Z" fill="#FF5C39"/>
<path d="M4.50022 47.5596C4.4972 39.0697 7.02566 30.7681 11.7681 23.6972C16.5106 16.6263 23.2557 11.1012 31.1565 7.81561C39.0574 4.53003 47.7618 3.63042 56.1769 5.22974C64.592 6.82905 72.3426 10.856 78.4558 16.805C79.7508 18.0597 80.9621 19.3967 82.0819 20.8073H76.5002C76.1024 20.8073 75.7209 20.9639 75.4396 21.2426C75.1583 21.5213 75.0002 21.8993 75.0002 22.2935C75.0002 22.6877 75.1583 23.0657 75.4396 23.3444C75.7209 23.6232 76.1024 23.7798 76.5002 23.7798H85.5002C85.898 23.7798 86.2796 23.6232 86.5609 23.3444C86.8422 23.0657 87.0002 22.6877 87.0002 22.2935V13.3761C87.0002 12.9819 86.8422 12.6039 86.5609 12.3252C86.2796 12.0464 85.898 11.8898 85.5002 11.8898C85.1024 11.8898 84.7209 12.0464 84.4396 12.3252C84.1583 12.6039 84.0002 12.9819 84.0002 13.3761V18.4253C82.9239 17.1115 81.772 15.8604 80.5502 14.678C74.0147 8.32091 65.7295 4.0183 56.7346 2.31029C47.7398 0.602291 38.4362 1.56501 29.9916 5.0776C21.5471 8.59019 14.3379 14.4961 9.269 22.054C4.20012 29.612 1.49744 38.4851 1.50022 47.5596C1.4787 54.4748 3.04846 61.304 6.09022 67.5279C6.26347 67.8829 6.57192 68.155 6.94772 68.2846C7.32351 68.4142 7.73587 68.3905 8.09407 68.2189C8.45227 68.0472 8.72698 67.7416 8.85775 67.3693C8.98853 66.9969 8.96467 66.5883 8.79142 66.2334C5.94679 60.413 4.47919 54.0265 4.50022 47.5596Z" fill="#FF5C39"/>
<path d="M64.7117 29.8901C65.8479 29.2748 66.9485 28.597 68.0084 27.8598C68.3236 27.6281 68.5346 27.2832 68.5962 26.8991C68.6577 26.515 68.5648 26.1223 68.3374 25.8052C68.1101 25.4882 67.7664 25.2721 67.3801 25.2033C66.9937 25.1345 66.5956 25.2185 66.271 25.4372C65.4169 26.039 64.5311 26.5785 63.6311 27.0889C62.6821 24.7903 61.474 22.6052 60.03 20.5753C59.915 20.4159 59.7693 20.2806 59.6014 20.1773C59.4334 20.0739 59.2465 20.0044 59.0513 19.9729C58.8562 19.9413 58.6567 19.9483 58.4643 19.9934C58.2718 20.0386 58.0903 20.1209 57.9302 20.2358C57.77 20.3507 57.6344 20.4958 57.531 20.6629C57.4277 20.8299 57.3587 21.0155 57.328 21.209C57.2973 21.4026 57.3055 21.6002 57.3522 21.7906C57.3989 21.981 57.4831 22.1603 57.6 22.3183C58.9488 24.2257 60.0686 26.2824 60.9368 28.4467C57.3314 30.057 53.4506 30.9757 49.5 31.1542V19.3212C49.5 18.927 49.342 18.549 49.0607 18.2703C48.7794 17.9915 48.3978 17.835 48 17.835C47.6022 17.835 47.2206 17.9915 46.9393 18.2703C46.658 18.549 46.5 18.927 46.5 19.3212V31.1542C42.5494 30.9757 38.6686 30.057 35.0632 28.4467C35.9314 26.2824 37.0512 24.2257 38.4 22.3183C38.522 22.1608 38.611 21.9805 38.6615 21.7883C38.7121 21.5961 38.7232 21.3958 38.6943 21.1993C38.6654 21.0027 38.597 20.8139 38.4932 20.6439C38.3894 20.474 38.2523 20.3264 38.0899 20.2099C37.9276 20.0934 37.7433 20.0103 37.548 19.9655C37.3527 19.9208 37.1503 19.9153 36.9528 19.9493C36.7553 19.9834 36.5667 20.0563 36.3981 20.1638C36.2295 20.2714 36.0844 20.4113 35.9713 20.5753C34.527 22.6052 33.3187 24.7903 32.3694 27.089C31.4694 26.5786 30.5844 26.0391 29.7294 25.4374C29.4049 25.2186 29.0067 25.1347 28.6204 25.2035C28.2341 25.2723 27.8904 25.4884 27.663 25.8054C27.4356 26.1224 27.3428 26.5151 27.4043 26.8992C27.4658 27.2833 27.6769 27.6282 27.9921 27.8599C29.0519 28.5971 30.1525 29.275 31.2888 29.8903C29.561 35.1179 28.6369 40.5734 28.5476 46.0735H19.5C19.1022 46.0735 18.7206 46.2301 18.4393 46.5088C18.158 46.7875 18 47.1656 18 47.5597C18 47.9539 18.158 48.3319 18.4393 48.6107C18.7206 48.8894 19.1022 49.046 19.5 49.046H28.5476C28.6367 54.5461 29.5607 60.0016 31.2884 65.2293C30.1521 65.8447 29.0515 66.5225 27.9917 67.2597C27.6764 67.4914 27.4654 67.8363 27.4038 68.2204C27.3423 68.6045 27.4352 68.9972 27.6625 69.3142C27.8899 69.6312 28.2336 69.8473 28.6199 69.9161C29.0063 69.985 29.4044 69.901 29.7289 69.6822C30.583 69.0805 31.469 68.541 32.3689 68.0306C33.3182 70.3293 34.5266 72.5145 35.9709 74.5445C36.0847 74.7069 36.23 74.8451 36.3984 74.9512C36.5667 75.0573 36.7548 75.129 36.9515 75.1622C37.1482 75.1953 37.3496 75.1893 37.5439 75.1444C37.7382 75.0995 37.9215 75.0166 38.0831 74.9006C38.2446 74.7847 38.3812 74.6379 38.4849 74.469C38.5885 74.3001 38.6571 74.1123 38.6866 73.9168C38.7161 73.7213 38.706 73.5219 38.6568 73.3304C38.6076 73.1388 38.5203 72.9589 38.4 72.8011C37.0515 70.8937 35.9319 68.8371 35.064 66.6729C38.6691 65.0626 42.5496 64.1439 46.5 63.9653V75.7983C46.5 76.1924 46.658 76.5705 46.9393 76.8492C47.2206 77.1279 47.6022 77.2845 48 77.2845C48.3978 77.2845 48.7794 77.1279 49.0607 76.8492C49.342 76.5705 49.5 76.1924 49.5 75.7983V63.9653C53.4506 64.1438 57.3314 65.0625 60.9368 66.6728C60.0686 68.8371 58.9488 70.8937 57.6 72.8011C57.4845 72.9592 57.4015 73.1383 57.3559 73.3282C57.3102 73.518 57.3027 73.7149 57.3338 73.9077C57.365 74.1004 57.4341 74.2851 57.5373 74.4514C57.6405 74.6176 57.7758 74.7621 57.9353 74.8766C58.0949 74.991 58.2756 75.0732 58.4672 75.1185C58.6589 75.1637 58.8576 75.1711 59.0521 75.1403C59.2466 75.1094 59.4331 75.0409 59.6009 74.9387C59.7687 74.8364 59.9145 74.7024 60.03 74.5443C61.4743 72.5143 62.6826 70.3292 63.632 68.0304C64.5319 68.5408 65.4177 69.0803 66.2719 69.6821C66.5965 69.9008 66.9946 69.9848 67.381 69.916C67.7673 69.8472 68.111 69.6311 68.3383 69.3141C68.5657 68.997 68.6586 68.6043 68.5971 68.2202C68.5355 67.8361 68.3245 67.4912 68.0093 67.2595C66.9494 66.5223 65.8488 65.8445 64.7126 65.2292C66.4399 60.0015 67.3635 54.546 67.4524 49.046H76.5C76.8978 49.046 77.2794 48.8894 77.5607 48.6107C77.842 48.3319 78 47.9539 78 47.5597C78 47.1656 77.842 46.7875 77.5607 46.5088C77.2794 46.2301 76.8978 46.0735 76.5 46.0735H67.4524C67.3633 40.5734 66.4393 35.1178 64.7117 29.8901ZM61.9784 31.2405C63.5154 36.042 64.3484 41.0373 64.4519 46.0735H49.5V34.1267C53.8055 33.9503 58.0389 32.9713 61.9784 31.2408V31.2405ZM34.0217 31.2405C37.9611 32.9711 42.1944 33.9502 46.5 34.1267V46.0735H31.5482C31.6516 41.0374 32.4846 36.0422 34.0217 31.2408V31.2405ZM34.0217 63.8783C32.4846 59.0771 31.6516 54.0819 31.5482 49.046H46.5V60.9928C42.1945 61.1691 37.9611 62.1482 34.0217 63.8786V63.8783ZM61.9784 63.8783C58.0389 62.148 53.8055 61.169 49.5 60.9928V49.046H64.4519C64.3484 54.082 63.5154 59.0773 61.9784 63.8786V63.8783Z" fill="#FF5C39"/>
</svg>
