<svg width="96" height="96" viewBox="0 0 96 96" fill="none" xmlns="http://www.w3.org/2000/svg">
<g clip-path="url(#clip0_65_44061)">
<path d="M19.5 60.091V69.8532H15V31.211H22.5C22.8978 31.211 23.2794 31.0544 23.5607 30.7757C23.842 30.497 24 30.119 24 29.7248C24 29.3306 23.842 28.9526 23.5607 28.6739C23.2794 28.3951 22.8978 28.2386 22.5 28.2386H13.5C13.1022 28.2386 12.7206 28.3951 12.4393 28.6739C12.158 28.9526 12 29.3306 12 29.7248V71.3395C12 71.7336 12.158 72.1117 12.4393 72.3904C12.7206 72.6691 13.1022 72.8257 13.5 72.8257H82.5C82.8978 72.8257 83.2794 72.6691 83.5607 72.3904C83.842 72.1117 84 71.7336 84 71.3395V29.7248C84 29.3306 83.842 28.9526 83.5607 28.6739C83.2794 28.3951 82.8978 28.2386 82.5 28.2386H73.5C73.1022 28.2386 72.7206 28.3951 72.4393 28.6739C72.158 28.9526 72 29.3306 72 29.7248C72 30.119 72.158 30.497 72.4393 30.7757C72.7206 31.0544 73.1022 31.211 73.5 31.211H81V69.8532H76.5V60.091C76.5085 57.8642 75.7919 55.694 74.4566 53.9028C73.1213 52.1115 71.2385 50.7948 69.0879 50.1481L69 50.1207V25.2661C69 19.7476 66.7875 14.4552 62.8492 10.5531C58.911 6.65094 53.5695 4.45874 48 4.45874C42.4305 4.45874 37.089 6.65094 33.1508 10.5531C29.2125 14.4552 27 19.7476 27 25.2661V50.1207L26.9121 50.1475C24.7614 50.7942 22.8785 52.111 21.5432 53.9024C20.2079 55.6937 19.4914 57.8641 19.5 60.091ZM73.5 60.091V69.8532H67.4294C67.1771 67.4216 66.1512 65.1324 64.5 63.3162V60.9358C64.5 60.5416 64.342 60.1636 64.0607 59.8849C63.7794 59.6061 63.3978 59.4496 63 59.4496C62.6022 59.4496 62.2206 59.6061 61.9393 59.8849C61.658 60.1636 61.5 60.5416 61.5 60.9358V63.9083C61.5001 64.3024 61.6582 64.6804 61.9395 64.959C63.2764 66.2812 64.1412 67.9996 64.4023 69.8532H31.5973C31.8585 67.9996 32.7233 66.2812 34.0602 64.959C34.1996 64.8211 34.3101 64.6573 34.3856 64.477C34.461 64.2967 34.4999 64.1035 34.5 63.9083V60.9358C34.5 60.5416 34.342 60.1636 34.0607 59.8849C33.7794 59.6061 33.3978 59.4496 33 59.4496C32.6022 59.4496 32.2206 59.6061 31.9393 59.8849C31.658 60.1636 31.5 60.5416 31.5 60.9358V63.3162C29.8488 65.1324 28.8229 67.4216 28.5707 69.8532H22.5V60.091C22.494 58.5003 23.0058 56.9501 23.9595 55.6706C24.9131 54.3909 26.2578 53.4502 27.794 52.9878L39.8577 49.3101C40.7918 50.5826 42.0163 51.6181 43.4314 52.3321C44.8465 53.046 46.412 53.4182 48 53.4182C49.588 53.4182 51.1535 53.046 52.5686 52.3321C53.9837 51.6181 55.2082 50.5826 56.1423 49.3101L68.206 52.9878C69.7422 53.4502 71.0869 54.3909 72.0405 55.6706C72.9942 56.9501 73.506 58.5003 73.5 60.091ZM42 42.9783C43.8208 44.0319 45.8914 44.5872 48 44.5872C50.1086 44.5872 52.1792 44.0319 54 42.9783V47.1286C53.3685 48.1428 52.4857 48.98 51.4355 49.5607C50.3853 50.1414 49.2027 50.4462 48 50.4462C46.7973 50.4462 45.6147 50.1414 44.5645 49.5607C43.5143 48.98 42.6315 48.1428 42 47.1286V42.9783ZM57 32.5207C55.8018 33.0282 54.5247 33.3288 53.2241 33.4093C52.8691 32.5476 52.2222 31.8354 51.3946 31.3951C50.567 30.9548 49.6105 30.8141 48.6895 30.9971C47.7685 31.1801 46.9406 31.6753 46.3483 32.3977C45.756 33.12 45.4362 34.0243 45.444 34.955C45.4519 35.8857 45.7868 36.7846 46.3911 37.4971C46.9955 38.2096 47.8316 38.6911 48.7555 38.8589C49.6795 39.0266 50.6336 38.8701 51.4537 38.4163C52.2737 37.9624 52.9086 37.2396 53.2489 36.3721C54.3152 36.3189 55.3724 36.1499 56.4015 35.8683C55.6541 37.8172 54.2407 39.4447 52.4073 40.4678C50.574 41.4908 48.4366 41.8445 46.3671 41.4674C44.2977 41.0903 42.4272 40.0062 41.0812 38.4038C39.7351 36.8014 38.9987 34.7821 39 32.6973V23.3647C41.6221 24.6189 44.4966 25.2689 47.4082 25.2661H55.5C55.8977 25.2666 56.2789 25.4233 56.5601 25.702C56.8413 25.9806 56.9995 26.3583 57 26.7523V32.5207ZM50.5312 34.9302C50.5312 35.1323 50.4708 35.3298 50.3575 35.4979C50.2441 35.6659 50.0831 35.7969 49.8946 35.8742C49.7062 35.9515 49.4989 35.9718 49.2988 35.9323C49.0988 35.8929 48.915 35.7956 48.7708 35.6527C48.6266 35.5098 48.5284 35.3277 48.4886 35.1295C48.4488 34.9313 48.4692 34.7259 48.5472 34.5392C48.6253 34.3525 48.7575 34.1929 48.9271 34.0806C49.0967 33.9683 49.296 33.9084 49.5 33.9084C49.7734 33.9088 50.0355 34.0166 50.2288 34.2081C50.4221 34.3997 50.5309 34.6593 50.5312 34.9302ZM30 25.2661C30 20.536 31.8964 15.9996 35.2721 12.6549C38.6477 9.31024 43.2261 7.43122 48 7.43122C52.7739 7.43122 57.3523 9.31024 60.7279 12.6549C64.1036 15.9996 66 20.536 66 25.2661V49.206L57 46.4616V40.5352C58.7665 38.5511 59.8103 36.0372 59.9643 33.3958V33.3927C59.9781 33.1616 60 32.9321 60 32.6973V26.7523C59.9987 25.5702 59.5242 24.4369 58.6805 23.601C57.8369 22.7651 56.6931 22.2949 55.5 22.2936H47.4082C44.1774 22.2968 41.0185 21.3491 38.3321 19.5708C38.1062 19.4216 37.8436 19.3359 37.5724 19.3229C37.3013 19.3099 37.0316 19.3701 36.7922 19.497C36.5529 19.624 36.3528 19.8129 36.2132 20.0436C36.0737 20.2744 36 20.5384 36 20.8074V32.6973C36.0006 35.5852 37.0677 38.3731 39 40.5352V46.4616L30 49.206V25.2661Z" fill="#FF5C39"/>
<path d="M94.5 75.7983H90V23.7799C90 23.3858 89.842 23.0077 89.5607 22.729C89.2794 22.4503 88.8978 22.2937 88.5 22.2937H73.5C73.1022 22.2937 72.7206 22.4503 72.4393 22.729C72.158 23.0077 72 23.3858 72 23.7799C72 24.1741 72.158 24.5521 72.4393 24.8309C72.7206 25.1096 73.1022 25.2662 73.5 25.2662H87V75.7983H9V25.2662H22.5C22.8978 25.2662 23.2794 25.1096 23.5607 24.8309C23.842 24.5521 24 24.1741 24 23.7799C24 23.3858 23.842 23.0077 23.5607 22.729C23.2794 22.4503 22.8978 22.2937 22.5 22.2937H7.5C7.10218 22.2937 6.72064 22.4503 6.43934 22.729C6.15804 23.0077 6 23.3858 6 23.7799V75.7983H1.5C1.10218 75.7983 0.720644 75.9549 0.43934 76.2336C0.158035 76.5123 0 76.8903 0 77.2845L0 86.202C0.00131022 87.3841 0.475837 88.5174 1.31947 89.3533C2.1631 90.1892 3.30693 90.6594 4.5 90.6607H91.5C92.6931 90.6594 93.8369 90.1892 94.6805 89.3533C95.5242 88.5174 95.9987 87.3841 96 86.202V77.2845C96 76.8903 95.842 76.5123 95.5607 76.2336C95.2794 75.9549 94.8978 75.7983 94.5 75.7983ZM75.5727 78.7708L74.0727 81.7432H21.9273L20.4273 78.7708H75.5727ZM91.5 87.6882H4.5C4.10233 87.6877 3.7211 87.5309 3.43991 87.2523C3.15872 86.9737 3.00052 86.596 3 86.202V84.7157H10.5C10.8978 84.7157 11.2794 84.5591 11.5607 84.2804C11.842 84.0017 12 83.6236 12 83.2295C12 82.8353 11.842 82.4573 11.5607 82.1785C11.2794 81.8998 10.8978 81.7432 10.5 81.7432H3V78.7708H17.0727L19.6583 83.8943C19.7829 84.1411 19.9744 84.3487 20.2114 84.4938C20.4483 84.6389 20.7214 84.7157 21 84.7157H75C75.2786 84.7157 75.5517 84.6389 75.7886 84.4938C76.0256 84.3487 76.2171 84.1411 76.3418 83.8943L78.9273 78.7708H93V81.7432H85.5C85.1022 81.7432 84.7206 81.8998 84.4393 82.1785C84.158 82.4573 84 82.8353 84 83.2295C84 83.6236 84.158 84.0017 84.4393 84.2804C84.7206 84.5591 85.1022 84.7157 85.5 84.7157H93V86.202C92.9995 86.596 92.8413 86.9737 92.5601 87.2523C92.2789 87.5309 91.8977 87.6877 91.5 87.6882Z" fill="#FF5C39"/>
</g>
<defs>
<clipPath id="clip0_65_44061">
<rect width="96" height="95.1193" fill="white"/>
</clipPath>
</defs>
</svg>
