<svg width="96" height="96" viewBox="0 0 96 96" fill="none" xmlns="http://www.w3.org/2000/svg">
<path d="M94.5 9C94.8978 9 95.2794 8.84196 95.5607 8.56066C95.842 8.27936 96 7.89782 96 7.5V1.5C96 1.10218 95.842 0.720644 95.5607 0.43934C95.2794 0.158035 94.8978 0 94.5 0L1.5 0C1.10218 0 0.720644 0.158035 0.43934 0.43934C0.158035 0.720644 0 1.10218 0 1.5L0 7.5C0 7.89782 0.158035 8.27936 0.43934 8.56066C0.720644 8.84196 1.10218 9 1.5 9H6V63H1.5C1.10218 63 0.720644 63.158 0.43934 63.4393C0.158035 63.7206 0 64.1022 0 64.5L0 70.5C0 70.8978 0.158035 71.2794 0.43934 71.5607C0.720644 71.842 1.10218 72 1.5 72H26.0727L15.5727 93H7.5C7.10218 93 6.72064 93.158 6.43934 93.4393C6.15804 93.7206 6 94.1022 6 94.5C6 94.8978 6.15804 95.2794 6.43934 95.5607C6.72064 95.842 7.10218 96 7.5 96H88.5C88.8978 96 89.2794 95.842 89.5607 95.5607C89.842 95.2794 90 94.8978 90 94.5C90 94.1022 89.842 93.7206 89.5607 93.4393C89.2794 93.158 88.8978 93 88.5 93H80.4273L69.9273 72H94.5C94.8978 72 95.2794 71.842 95.5607 71.5607C95.842 71.2794 96 70.8978 96 70.5V64.5C96 64.1022 95.842 63.7206 95.5607 63.4393C95.2794 63.158 94.8978 63 94.5 63H90V9H94.5ZM3 3H93V6H3V3ZM18.9273 93L29.4273 72H33.5727L23.0727 93H18.9273ZM46.5 72V78.2765C45.4992 78.6303 44.6557 79.3266 44.1186 80.2422C43.5814 81.1578 43.3853 82.2338 43.5648 83.2801C43.7443 84.3263 44.2879 85.2754 45.0995 85.9596C45.9111 86.6438 46.9385 87.0191 48 87.0191C49.0615 87.0191 50.0889 86.6438 50.9005 85.9596C51.7121 85.2754 52.2557 84.3263 52.4352 83.2801C52.6147 82.2338 52.4186 81.1578 51.8814 80.2422C51.3443 79.3266 50.5008 78.6303 49.5 78.2765V72H59.0727L69.5727 93H26.4273L36.9273 72H46.5ZM48 81C48.2967 81 48.5867 81.088 48.8334 81.2528C49.08 81.4176 49.2723 81.6519 49.3858 81.926C49.4993 82.2001 49.5291 82.5017 49.4712 82.7926C49.4133 83.0836 49.2704 83.3509 49.0607 83.5607C48.8509 83.7704 48.5836 83.9133 48.2926 83.9712C48.0017 84.0291 47.7001 83.9994 47.426 83.8858C47.1519 83.7723 46.9176 83.58 46.7528 83.3334C46.588 83.0867 46.5 82.7967 46.5 82.5C46.5004 82.1023 46.6585 81.721 46.9397 81.4397C47.221 81.1585 47.6023 81.0004 48 81ZM77.0727 93H72.9273L62.4273 72H66.5727L77.0727 93ZM93 69H3V66H93V69ZM87 63H9V9H87V63Z" fill="#FF5C39"/>
<path d="M50.5606 32.5605L57.0001 26.1211L63.4396 32.5605C63.5789 32.6998 63.7442 32.8104 63.9261 32.8858C64.1081 32.9612 64.3032 33 64.5001 33C64.6971 33 64.8921 32.9612 65.0741 32.8858C65.2561 32.8104 65.4214 32.6998 65.5606 32.5605L78.0001 20.1211V22.5C78.0001 22.8978 78.1582 23.2794 78.4395 23.5607C78.7208 23.842 79.1023 24 79.5001 24C79.8979 24 80.2795 23.842 80.5608 23.5607C80.8421 23.2794 81.0001 22.8978 81.0001 22.5V16.5C80.9986 16.1026 80.8401 15.722 80.5591 15.441C80.2781 15.16 79.8975 15.0015 79.5001 15H73.5001C73.1023 15 72.7208 15.158 72.4395 15.4393C72.1582 15.7206 72.0001 16.1022 72.0001 16.5C72.0001 16.8978 72.1582 17.2794 72.4395 17.5607C72.7208 17.842 73.1023 18 73.5001 18H75.879L64.5001 29.3788L58.0606 22.9395C57.9214 22.8002 57.7561 22.6896 57.5741 22.6142C57.3921 22.5388 57.1971 22.4999 57.0001 22.4999C56.8031 22.4999 56.6081 22.5388 56.4261 22.6142C56.2442 22.6896 56.0788 22.8002 55.9396 22.9395L48.4396 30.4395C48.1664 30.7224 48.0152 31.1013 48.0186 31.4946C48.022 31.8879 48.1798 32.2641 48.4579 32.5422C48.736 32.8203 49.1122 32.9781 49.5055 32.9815C49.8988 32.9849 50.2777 32.8337 50.5606 32.5605Z" fill="#FF5C39"/>
<path d="M46.5 57H82.5C82.8978 57 83.2794 56.842 83.5607 56.5607C83.842 56.2794 84 55.8978 84 55.5C84 55.1022 83.842 54.7206 83.5607 54.4393C83.2794 54.158 82.8978 54 82.5 54H81V28.5C81 28.1022 80.842 27.7206 80.5607 27.4393C80.2794 27.158 79.8978 27 79.5 27C79.1022 27 78.7206 27.158 78.4393 27.4393C78.158 27.7206 78 28.1022 78 28.5V54H73.5V33C73.5 32.6022 73.342 32.2206 73.0607 31.9393C72.7794 31.658 72.3978 31.5 72 31.5C71.6022 31.5 71.2206 31.658 70.9393 31.9393C70.658 32.2206 70.5 32.6022 70.5 33V54H66V39C66 38.6022 65.842 38.2206 65.5607 37.9393C65.2794 37.658 64.8978 37.5 64.5 37.5C64.1022 37.5 63.7206 37.658 63.4393 37.9393C63.158 38.2206 63 38.6022 63 39V54H58.5V34.5C58.5 34.1022 58.342 33.7206 58.0607 33.4393C57.7794 33.158 57.3978 33 57 33C56.6022 33 56.2206 33.158 55.9393 33.4393C55.658 33.7206 55.5 34.1022 55.5 34.5V54H51V39C51 38.6022 50.842 38.2206 50.5607 37.9393C50.2794 37.658 49.8978 37.5 49.5 37.5C49.1022 37.5 48.7206 37.658 48.4393 37.9393C48.158 38.2206 48 38.6022 48 39V54H46.5C46.1022 54 45.7206 54.158 45.4393 54.4393C45.158 54.7206 45 55.1022 45 55.5C45 55.8978 45.158 56.2794 45.4393 56.5607C45.7206 56.842 46.1022 57 46.5 57Z" fill="#FF5C39"/>
<path d="M42 48H15C14.6022 48 14.2206 48.158 13.9393 48.4393C13.658 48.7206 13.5 49.1022 13.5 49.5C13.5 49.8978 13.658 50.2794 13.9393 50.5607C14.2206 50.842 14.6022 51 15 51H42C42.3978 51 42.7794 50.842 43.0607 50.5607C43.342 50.2794 43.5 49.8978 43.5 49.5C43.5 49.1022 43.342 48.7206 43.0607 48.4393C42.7794 48.158 42.3978 48 42 48Z" fill="#FF5C39"/>
<path d="M27 54H15C14.6022 54 14.2206 54.158 13.9393 54.4393C13.658 54.7206 13.5 55.1022 13.5 55.5C13.5 55.8978 13.658 56.2794 13.9393 56.5607C14.2206 56.842 14.6022 57 15 57H27C27.3978 57 27.7794 56.842 28.0607 56.5607C28.342 56.2794 28.5 55.8978 28.5 55.5C28.5 55.1022 28.342 54.7206 28.0607 54.4393C27.7794 54.158 27.3978 54 27 54Z" fill="#FF5C39"/>
<path d="M17.6534 32.679C18.2467 32.679 18.8085 32.7734 19.3388 32.9624C19.8691 33.148 20.3381 33.4413 20.7457 33.8423C21.1567 34.2434 21.4782 34.767 21.7102 35.4134C21.9455 36.0563 22.0649 36.8352 22.0682 37.75C22.0715 38.5852 21.9671 39.3359 21.755 40.0021C21.5462 40.665 21.2462 41.2301 20.8551 41.6974C20.4673 42.1648 20 42.5227 19.4531 42.7713C18.9096 43.0166 18.303 43.1392 17.6335 43.1392C16.8812 43.1392 16.2199 42.995 15.6499 42.7067C15.0798 42.4183 14.6257 42.0305 14.2876 41.5433C13.9496 41.0561 13.7524 40.5142 13.696 39.9176H16.4205C16.4867 40.2259 16.6326 40.4496 16.858 40.5888C17.0833 40.7247 17.3419 40.7926 17.6335 40.7926C18.2169 40.7926 18.6428 40.5407 18.9112 40.0369C19.183 39.5298 19.3205 38.8537 19.3239 38.0085H19.2642C19.1349 38.3201 18.9394 38.5869 18.6776 38.8089C18.4157 39.031 18.1108 39.2017 17.7628 39.321C17.4148 39.4403 17.0469 39.5 16.6591 39.5C16.0459 39.5 15.509 39.3625 15.0483 39.0874C14.5876 38.8089 14.228 38.4295 13.9695 37.9489C13.7109 37.465 13.58 36.9148 13.5767 36.2983C13.5734 35.5758 13.7441 34.9427 14.0888 34.3991C14.4335 33.8556 14.9124 33.433 15.5256 33.1314C16.1387 32.8298 16.848 32.679 17.6534 32.679ZM17.6733 34.767C17.3982 34.767 17.1529 34.83 16.9375 34.956C16.7254 35.0819 16.558 35.2526 16.4354 35.468C16.3161 35.6835 16.258 35.9271 16.2614 36.1989C16.2647 36.4706 16.326 36.7143 16.4453 36.9297C16.5679 37.1451 16.7337 37.3158 16.9425 37.4418C17.1546 37.5677 17.3982 37.6307 17.6733 37.6307C17.8755 37.6307 18.0627 37.5959 18.2351 37.5263C18.4074 37.4534 18.5566 37.3523 18.6825 37.223C18.8118 37.0904 18.9112 36.938 18.9808 36.7656C19.0537 36.59 19.0885 36.401 19.0852 36.1989C19.0819 35.9271 19.0189 35.6835 18.8963 35.468C18.7737 35.2526 18.6063 35.0819 18.3942 34.956C18.1821 34.83 17.9418 34.767 17.6733 34.767ZM27.6948 43.2784C26.7701 43.2751 25.9713 43.0613 25.2985 42.6371C24.6257 42.2128 24.1069 41.6013 23.7424 40.8026C23.3778 40.0038 23.1971 39.0459 23.2005 37.929C23.2038 36.8087 23.3861 35.8575 23.7473 35.0753C24.1119 34.2931 24.629 33.6982 25.2985 33.2905C25.9713 32.8828 26.7701 32.679 27.6948 32.679C28.6195 32.679 29.4183 32.8845 30.0911 33.2955C30.7639 33.7031 31.2826 34.2981 31.6472 35.0803C32.0118 35.8625 32.1924 36.812 32.1891 37.929C32.1891 39.0526 32.0068 40.0137 31.6422 40.8125C31.2776 41.6113 30.7589 42.2228 30.0861 42.647C29.4166 43.0679 28.6195 43.2784 27.6948 43.2784ZM27.6948 41.0312C28.1721 41.0312 28.5632 40.7827 28.8681 40.2855C29.1763 39.785 29.3288 38.9995 29.3255 37.929C29.3255 37.2296 29.2559 36.6579 29.1167 36.2138C28.9775 35.7696 28.7852 35.4415 28.54 35.2294C28.2947 35.014 28.013 34.9062 27.6948 34.9062C27.2175 34.9062 26.8281 35.1482 26.5265 35.6321C26.2248 36.116 26.0707 36.8816 26.0641 37.929C26.0608 38.6416 26.1287 39.2282 26.2679 39.6889C26.4071 40.1463 26.5994 40.4844 26.8446 40.7031C27.0932 40.9219 27.3766 41.0312 27.6948 41.0312ZM39.3134 41.0909V40.554C39.3134 40.1231 39.4062 39.7254 39.5918 39.3608C39.7807 38.9962 40.0542 38.7029 40.4121 38.4808C40.7701 38.2588 41.2059 38.1477 41.7196 38.1477C42.2466 38.1477 42.6891 38.2571 43.0471 38.4759C43.4083 38.6946 43.6818 38.9863 43.8674 39.3509C44.053 39.7154 44.1458 40.1165 44.1458 40.554V41.0909C44.1458 41.5218 44.0513 41.9195 43.8624 42.2841C43.6768 42.6487 43.4033 42.942 43.0421 43.1641C42.6808 43.3861 42.24 43.4972 41.7196 43.4972C41.1993 43.4972 40.7601 43.3861 40.4022 43.1641C40.0442 42.942 39.7724 42.6487 39.5868 42.2841C39.4045 41.9195 39.3134 41.5218 39.3134 41.0909ZM41.0435 40.554V41.0909C41.0435 41.2798 41.0899 41.4671 41.1827 41.6527C41.2788 41.835 41.4578 41.9261 41.7196 41.9261C41.9947 41.9261 42.1754 41.8366 42.2615 41.6577C42.351 41.4787 42.3958 41.2898 42.3958 41.0909V40.554C42.3958 40.3551 42.3543 40.1629 42.2715 39.9773C42.1886 39.7917 42.0047 39.6989 41.7196 39.6989C41.4578 39.6989 41.2788 39.7917 41.1827 39.9773C41.0899 40.1629 41.0435 40.3551 41.0435 40.554ZM33.9838 35.2642V34.7273C33.9838 34.2898 34.0783 33.8887 34.2672 33.5241C34.4595 33.1596 34.7346 32.8679 35.0925 32.6491C35.4505 32.4304 35.883 32.321 36.3901 32.321C36.9171 32.321 37.3596 32.4304 37.7175 32.6491C38.0788 32.8679 38.3522 33.1596 38.5378 33.5241C38.7234 33.8887 38.8162 34.2898 38.8162 34.7273V35.2642C38.8162 35.7017 38.7218 36.1011 38.5328 36.4624C38.3472 36.8236 38.0738 37.112 37.7125 37.3274C37.3513 37.5429 36.9105 37.6506 36.3901 37.6506C35.8697 37.6506 35.4306 37.5412 35.0726 37.3224C34.7147 37.1037 34.4429 36.8137 34.2573 36.4524C34.075 36.0911 33.9838 35.6951 33.9838 35.2642ZM35.7338 34.7273V35.2642C35.7338 35.4631 35.7802 35.652 35.873 35.831C35.9658 36.0099 36.1382 36.0994 36.3901 36.0994C36.6652 36.0994 36.8458 36.0099 36.932 35.831C37.0215 35.652 37.0662 35.4631 37.0662 35.2642V34.7273C37.0662 34.5284 37.0248 34.3362 36.9419 34.1506C36.8591 33.965 36.6751 33.8722 36.3901 33.8722C36.1283 33.8722 35.9526 33.9683 35.8631 34.1605C35.7769 34.3494 35.7338 34.5384 35.7338 34.7273ZM34.829 43L41.829 32.8182H43.2409L36.2409 43H34.829Z" fill="#FF5C39"/>
</svg>
