<svg width="96" height="96" viewBox="0 0 96 96" fill="none" xmlns="http://www.w3.org/2000/svg">
<path d="M85.5 7.5H70.5V5.25C70.5 3.85761 69.9469 2.52226 68.9623 1.53769C67.9777 0.553123 66.6424 0 65.25 0C63.8576 0 62.5223 0.553123 61.5377 1.53769C60.5531 2.52226 60 3.85761 60 5.25V7.5H49.5V5.25C49.5 3.85761 48.9469 2.52226 47.9623 1.53769C46.9777 0.553123 45.6424 0 44.25 0C42.8576 0 41.5223 0.553123 40.5377 1.53769C39.5531 2.52226 39 3.85761 39 5.25V7.5H28.5V5.25C28.5 3.85761 27.9469 2.52226 26.9623 1.53769C25.9777 0.553124 24.6424 1.10635e-07 23.25 1.10635e-07C21.8576 1.10635e-07 20.5223 0.553124 19.5377 1.53769C18.5531 2.52226 18 3.85761 18 5.25V7.5H10.5C8.5116 7.50234 6.6053 8.29327 5.19929 9.69929C3.79327 11.1053 3.00234 13.0116 3 15V82.5C3 82.8978 3.15804 83.2794 3.43934 83.5607C3.72064 83.842 4.10218 84 4.5 84H79.5C79.8978 84 80.2794 83.842 80.5607 83.5607C80.842 83.2794 81 82.8978 81 82.5V15C81 13.8065 81.4741 12.6619 82.318 11.818C83.1619 10.9741 84.3065 10.5 85.5 10.5C86.6935 10.5 87.8381 10.9741 88.682 11.818C89.5259 12.6619 90 13.8065 90 15V93H12C11.6022 93 11.2206 93.158 10.9393 93.4393C10.658 93.7206 10.5 94.1022 10.5 94.5C10.5 94.8978 10.658 95.2794 10.9393 95.5607C11.2206 95.842 11.6022 96 12 96H91.5C91.8978 96 92.2794 95.842 92.5607 95.5607C92.842 95.2794 93 94.8978 93 94.5V15C92.9977 13.0116 92.2067 11.1053 90.8007 9.69929C89.3947 8.29327 87.4884 7.50234 85.5 7.5V7.5ZM63 5.25C63 4.65326 63.2371 4.08097 63.659 3.65901C64.081 3.23705 64.6533 3 65.25 3C65.8467 3 66.419 3.23705 66.841 3.65901C67.2629 4.08097 67.5 4.65326 67.5 5.25V7.5H63V5.25ZM42 5.25C42 4.65326 42.2371 4.08097 42.659 3.65901C43.081 3.23705 43.6533 3 44.25 3C44.8467 3 45.419 3.23705 45.841 3.65901C46.2629 4.08097 46.5 4.65326 46.5 5.25V7.5H42V5.25ZM21 5.25C21 4.65326 21.2371 4.08097 21.659 3.65901C22.081 3.23705 22.6533 3 23.25 3C23.8467 3 24.419 3.23705 24.841 3.65901C25.2629 4.08097 25.5 4.65326 25.5 5.25V7.5H21V5.25ZM10.5 10.5H18V15.75C18 17.1424 18.5531 18.4777 19.5377 19.4623C20.5223 20.4469 21.8576 21 23.25 21C24.6424 21 25.9777 20.4469 26.9623 19.4623C27.9469 18.4777 28.5 17.1424 28.5 15.75V15C28.5 14.6022 28.342 14.2206 28.0607 13.9393C27.7794 13.658 27.3978 13.5 27 13.5C26.6022 13.5 26.2206 13.658 25.9393 13.9393C25.658 14.2206 25.5 14.6022 25.5 15V15.75C25.5 16.3467 25.2629 16.919 24.841 17.341C24.419 17.7629 23.8467 18 23.25 18C22.6533 18 22.081 17.7629 21.659 17.341C21.2371 16.919 21 16.3467 21 15.75V10.5H39V15.75C39 17.1424 39.5531 18.4777 40.5377 19.4623C41.5223 20.4469 42.8576 21 44.25 21C45.6424 21 46.9777 20.4469 47.9623 19.4623C48.9469 18.4777 49.5 17.1424 49.5 15.75V15C49.5 14.6022 49.342 14.2206 49.0607 13.9393C48.7794 13.658 48.3978 13.5 48 13.5C47.6022 13.5 47.2206 13.658 46.9393 13.9393C46.658 14.2206 46.5 14.6022 46.5 15V15.75C46.5 16.3467 46.2629 16.919 45.841 17.341C45.419 17.7629 44.8467 18 44.25 18C43.6533 18 43.081 17.7629 42.659 17.341C42.2371 16.919 42 16.3467 42 15.75V10.5H60V15.75C60 17.1424 60.5531 18.4777 61.5377 19.4623C62.5223 20.4469 63.8576 21 65.25 21C66.6424 21 67.9777 20.4469 68.9623 19.4623C69.9469 18.4777 70.5 17.1424 70.5 15.75V15C70.5 14.6022 70.342 14.2206 70.0607 13.9393C69.7794 13.658 69.3978 13.5 69 13.5C68.6022 13.5 68.2206 13.658 67.9393 13.9393C67.658 14.2206 67.5 14.6022 67.5 15V15.75C67.5 16.3467 67.2629 16.919 66.841 17.341C66.419 17.7629 65.8467 18 65.25 18C64.6533 18 64.081 17.7629 63.659 17.341C63.2371 16.919 63 16.3467 63 15.75V10.5H79.5036C78.5528 11.8103 78.0279 13.3813 78 15V24H6V15C6.00131 13.8069 6.47584 12.6631 7.31947 11.8195C8.1631 10.9758 9.30693 10.5013 10.5 10.5V10.5ZM6 81V27H78V81H6Z" fill="#FF5C39"/>
<path d="M12 90H85.5C85.8978 90 86.2794 89.842 86.5607 89.5607C86.842 89.2794 87 88.8978 87 88.5V15C87 14.6022 86.842 14.2206 86.5607 13.9393C86.2794 13.658 85.8978 13.5 85.5 13.5C85.1022 13.5 84.7206 13.658 84.4393 13.9393C84.158 14.2206 84 14.6022 84 15V87H12C11.6022 87 11.2206 87.158 10.9393 87.4393C10.658 87.7206 10.5 88.1022 10.5 88.5C10.5 88.8978 10.658 89.2794 10.9393 89.5607C11.2206 89.842 11.6022 90 12 90Z" fill="#FF5C39"/>
<path d="M50.8602 46.5299C51.0186 46.8947 51.3153 47.1817 51.6851 47.328C52.055 47.4742 52.4677 47.4677 52.8327 47.3099L58.6352 44.7992C59.0004 44.6413 59.2879 44.3448 59.4344 43.9749C59.581 43.605 59.5746 43.192 59.4167 42.8268C59.2588 42.4617 58.9622 42.1742 58.5924 42.0276C58.2225 41.881 57.8095 41.8874 57.4443 42.0453L51.6413 44.556C51.276 44.7143 50.9886 45.0112 50.8421 45.3813C50.6957 45.7514 50.7022 46.1646 50.8602 46.5299Z" fill="#FF5C39"/>
<path d="M51.3633 41.9707L54.9441 36.9771C55.059 36.817 55.1412 36.6359 55.186 36.4441C55.2309 36.2523 55.2375 36.0535 55.2055 35.8592C55.1736 35.6648 55.1036 35.4786 54.9997 35.3113C54.8958 35.1439 54.7599 34.9987 54.5999 34.8838C54.4398 34.769 54.2587 34.6868 54.0669 34.6419C53.8751 34.5971 53.6763 34.5905 53.482 34.6224C53.2876 34.6544 53.1014 34.7243 52.9341 34.8282C52.7667 34.9322 52.6215 35.068 52.5066 35.2281L48.9258 40.2217C48.6939 40.545 48.5999 40.9471 48.6644 41.3396C48.729 41.7322 48.9468 42.083 49.2701 42.315C49.5933 42.5469 49.9954 42.6409 50.388 42.5764C50.7806 42.5118 51.1314 42.294 51.3633 41.9707V41.9707Z" fill="#FF5C39"/>
<path d="M60.6176 50.0905L54.5261 49.2818C54.3293 49.2524 54.1285 49.2625 53.9356 49.3115C53.7426 49.3605 53.5614 49.4474 53.4024 49.5671C53.2434 49.6869 53.1098 49.8371 53.0094 50.009C52.909 50.1808 52.8438 50.371 52.8177 50.5683C52.7915 50.7657 52.8049 50.9662 52.8571 51.1583C52.9092 51.3504 52.9991 51.5302 53.1214 51.6873C53.2438 51.8443 53.3961 51.9754 53.5696 52.0729C53.7432 52.1705 53.9343 52.2325 54.1321 52.2554L60.2236 53.0641C60.4205 53.0935 60.6212 53.0834 60.8142 53.0344C61.0071 52.9854 61.1883 52.8985 61.3474 52.7788C61.5064 52.659 61.64 52.5088 61.7403 52.3369C61.8407 52.165 61.9059 51.9749 61.932 51.7776C61.9582 51.5802 61.9448 51.3797 61.8926 51.1876C61.8405 50.9955 61.7506 50.8156 61.6283 50.6586C61.506 50.5016 61.3536 50.3705 61.1801 50.2729C61.0066 50.1754 60.8154 50.1134 60.6176 50.0905Z" fill="#FF5C39"/>
<path d="M37.5909 68.3182C36.4773 68.3106 35.3902 68.1174 34.3295 67.7386C33.2689 67.3523 32.3144 66.7273 31.4659 65.8636C30.6174 64.9924 29.9432 63.8371 29.4432 62.3977C28.9432 60.9508 28.697 59.1591 28.7045 57.0227C28.7045 55.0303 28.9167 53.2538 29.3409 51.6932C29.7652 50.1326 30.375 48.8144 31.1705 47.7386C31.9659 46.6553 32.9242 45.8295 34.0455 45.2614C35.1742 44.6932 36.4356 44.4091 37.8295 44.4091C39.2917 44.4091 40.5871 44.697 41.7159 45.2727C42.8523 45.8485 43.7689 46.6364 44.4659 47.6364C45.1629 48.6288 45.5947 49.75 45.7614 51H41.6136C41.4015 50.1061 40.9659 49.3939 40.3068 48.8636C39.6553 48.3258 38.8295 48.0568 37.8295 48.0568C36.2159 48.0568 34.9735 48.7576 34.1023 50.1591C33.2386 51.5606 32.803 53.4848 32.7955 55.9318H32.9545C33.3258 55.2652 33.8068 54.6932 34.3977 54.2159C34.9886 53.7386 35.6553 53.3712 36.3977 53.1136C37.1477 52.8485 37.9394 52.7159 38.7727 52.7159C40.1364 52.7159 41.3598 53.0417 42.4432 53.6932C43.5341 54.3447 44.3977 55.2424 45.0341 56.3864C45.6705 57.5227 45.9848 58.8258 45.9773 60.2955C45.9848 61.8258 45.6364 63.2008 44.9318 64.4205C44.2273 65.6326 43.2462 66.5871 41.9886 67.2841C40.7311 67.9811 39.2652 68.3258 37.5909 68.3182ZM37.5682 64.9091C38.3939 64.9091 39.1326 64.7083 39.7841 64.3068C40.4356 63.9053 40.9508 63.3636 41.3295 62.6818C41.7083 62 41.8939 61.2348 41.8864 60.3864C41.8939 59.553 41.7121 58.7992 41.3409 58.125C40.9773 57.4508 40.4735 56.9167 39.8295 56.5227C39.1856 56.1288 38.4508 55.9318 37.625 55.9318C37.0114 55.9318 36.4394 56.0492 35.9091 56.2841C35.3788 56.5189 34.9167 56.8447 34.5227 57.2614C34.1288 57.6705 33.8182 58.1477 33.5909 58.6932C33.3712 59.2311 33.2576 59.8068 33.25 60.4205C33.2576 61.2311 33.447 61.9773 33.8182 62.6591C34.1894 63.3409 34.7008 63.8864 35.3523 64.2955C36.0038 64.7045 36.7424 64.9091 37.5682 64.9091Z" fill="#FF5C39"/>
</svg>
