<svg width="96" height="96" viewBox="0 0 96 96" fill="none" xmlns="http://www.w3.org/2000/svg">
<g clip-path="url(#clip0_328_56950)">
<path d="M48 12C48.3978 12 48.7794 11.842 49.0607 11.5607C49.342 11.2794 49.5 10.8978 49.5 10.5V1.5C49.5 1.10218 49.342 0.720644 49.0607 0.43934C48.7794 0.158035 48.3978 0 48 0C47.6022 0 47.2206 0.158035 46.9393 0.43934C46.658 0.720644 46.5 1.10218 46.5 1.5V10.5C46.5 10.8978 46.658 11.2794 46.9393 11.5607C47.2206 11.842 47.6022 12 48 12Z" fill="#FF5C39"/>
<path d="M22.5442 21.6651C22.8267 21.9405 23.2063 22.0935 23.6008 22.091C23.9953 22.0885 24.373 21.9307 24.652 21.6517C24.9309 21.3727 25.0888 20.9951 25.0913 20.6006C25.0938 20.206 24.9407 19.8264 24.6653 19.5439L18.302 13.1806C18.0195 12.9052 17.6399 12.7522 17.2454 12.7547C16.8509 12.7572 16.4732 12.915 16.1942 13.194C15.9152 13.473 15.7574 13.8506 15.7549 14.2451C15.7524 14.6397 15.9054 15.0193 16.1809 15.3018L22.5442 21.6651Z" fill="#FF5C39"/>
<path d="M13.5 43.5H4.5C4.10218 43.5 3.72064 43.658 3.43934 43.9393C3.15804 44.2206 3 44.6022 3 45C3 45.3978 3.15804 45.7794 3.43934 46.0607C3.72064 46.342 4.10218 46.5 4.5 46.5H13.5C13.8978 46.5 14.2794 46.342 14.5607 46.0607C14.842 45.7794 15 45.3978 15 45C15 44.6022 14.842 44.2206 14.5607 43.9393C14.2794 43.658 13.8978 43.5 13.5 43.5Z" fill="#FF5C39"/>
<path d="M22.5442 68.3349L16.1809 74.6982C15.9054 74.9807 15.7524 75.3604 15.7549 75.7549C15.7574 76.1494 15.9152 76.5271 16.1942 76.806C16.4732 77.085 16.8509 77.2428 17.2454 77.2453C17.6399 77.2478 18.0195 77.0948 18.302 76.8194L24.6653 70.4561C24.8075 70.3175 24.9208 70.152 24.9985 69.9693C25.0762 69.7865 25.1169 69.5902 25.1182 69.3916C25.1194 69.193 25.0812 68.9962 25.0058 68.8125C24.9304 68.6287 24.8193 68.4618 24.6788 68.3214C24.5384 68.181 24.3715 68.0699 24.1878 67.9945C24.0041 67.919 23.8073 67.8809 23.6087 67.8821C23.4101 67.8834 23.2137 67.924 23.031 68.0018C22.8483 68.0795 22.6828 68.1928 22.5442 68.3349Z" fill="#FF5C39"/>
<path d="M77.698 13.1806L71.3347 19.5439C71.1925 19.6825 71.0793 19.848 71.0015 20.0308C70.9238 20.2135 70.8831 20.4099 70.8819 20.6084C70.8806 20.807 70.9188 21.0039 70.9942 21.1876C71.0696 21.3713 71.1808 21.5382 71.3212 21.6786C71.4616 21.819 71.6285 21.9302 71.8122 22.0056C71.9959 22.081 72.1928 22.1192 72.3913 22.1179C72.5899 22.1166 72.7863 22.076 72.969 21.9982C73.1517 21.9205 73.3172 21.8073 73.4559 21.6651L79.8191 15.3018C80.0946 15.0193 80.2476 14.6397 80.2451 14.2451C80.2426 13.8506 80.0848 13.473 79.8058 13.194C79.5268 12.915 79.1492 12.7572 78.7546 12.7547C78.3601 12.7522 77.9805 12.9052 77.698 13.1806Z" fill="#FF5C39"/>
<path d="M91.5 43.5H82.5C82.1022 43.5 81.7206 43.658 81.4393 43.9393C81.158 44.2206 81 44.6022 81 45C81 45.3978 81.158 45.7794 81.4393 46.0607C81.7206 46.342 82.1022 46.5 82.5 46.5H91.5C91.8978 46.5 92.2794 46.342 92.5607 46.0607C92.842 45.7794 93 45.3978 93 45C93 44.6022 92.842 44.2206 92.5607 43.9393C92.2794 43.658 91.8978 43.5 91.5 43.5Z" fill="#FF5C39"/>
<path d="M73.4559 68.3349C73.3172 68.1928 73.1517 68.0795 72.969 68.0018C72.7863 67.924 72.5899 67.8834 72.3913 67.8821C72.1928 67.8809 71.9959 67.919 71.8122 67.9945C71.6285 68.0699 71.4616 68.181 71.3212 68.3214C71.1808 68.4618 71.0696 68.6287 70.9942 68.8125C70.9188 68.9962 70.8806 69.193 70.8819 69.3916C70.8831 69.5902 70.9238 69.7865 71.0015 69.9693C71.0793 70.152 71.1925 70.3175 71.3347 70.4561L77.698 76.8194C77.9805 77.0948 78.3601 77.2478 78.7546 77.2453C79.1492 77.2428 79.5268 77.085 79.8058 76.806C80.0848 76.5271 80.2426 76.1494 80.2451 75.7549C80.2476 75.3604 80.0946 74.9807 79.8191 74.6982L73.4559 68.3349Z" fill="#FF5C39"/>
<path d="M48.0001 15C40.0464 15.009 32.421 18.1726 26.7968 23.7967C21.1727 29.4209 18.0091 37.0463 18.0001 45C17.9881 49.0246 18.7941 53.0097 20.3692 56.7133C21.9443 60.4169 24.2555 63.7618 27.1627 66.5449C28.5188 67.8165 29.6025 69.3503 30.3481 71.0532C31.0936 72.7561 31.4856 74.5928 31.5001 76.4517V85.5C31.5001 85.8978 31.6582 86.2794 31.9395 86.5607C32.2208 86.842 32.6023 87 33.0001 87H37.6201C37.9779 89.498 39.2244 91.7832 41.1311 93.4363C43.0378 95.0894 45.4766 95.9994 48.0001 95.9994C50.5236 95.9994 52.9625 95.0894 54.8691 93.4363C56.7758 91.7832 58.0224 89.498 58.3801 87H63.0001C63.398 87 63.7795 86.842 64.0608 86.5607C64.3421 86.2794 64.5001 85.8978 64.5001 85.5V76.4517C64.5147 74.5928 64.9066 72.7561 65.6522 71.0532C66.3978 69.3503 67.4815 67.8165 68.8375 66.5449C71.7447 63.7618 74.056 60.4169 75.6311 56.7133C77.2062 53.0097 78.0121 49.0246 78.0001 45C77.9912 37.0463 74.8276 29.4209 69.2034 23.7967C63.5793 18.1726 55.9539 15.009 48.0001 15ZM48.0001 93C46.2719 92.9978 44.5973 92.3998 43.2586 91.3068C41.9199 90.2139 40.999 88.6928 40.651 87H55.3492C55.0013 88.6928 54.0803 90.2139 52.7416 91.3068C51.4029 92.3998 49.7283 92.9978 48.0001 93ZM34.5001 84V79.5H61.5001V84H34.5001ZM66.7545 64.3857C65.1072 65.9362 63.792 67.8052 62.8888 69.8794C61.9856 71.9535 61.5131 74.1895 61.5001 76.4517V76.5H34.5001V76.4517C34.4871 74.1895 34.0147 71.9535 33.1115 69.8794C32.2083 67.8052 30.8931 65.9362 29.2458 64.3857C26.6295 61.8817 24.5495 58.8721 23.1321 55.5397C21.7146 52.2072 20.9893 48.6214 21.0001 45C21.0001 37.8392 23.8448 30.9716 28.9082 25.9081C33.9717 20.8446 40.8393 18 48.0001 18C55.161 18 62.0285 20.8446 67.092 25.9081C72.1555 30.9716 75.0001 37.8392 75.0001 45C75.011 48.6214 74.2857 52.2072 72.8682 55.5397C71.4507 58.8721 69.3707 61.8817 66.7545 64.3857Z" fill="#FF5C39"/>
<path d="M50.5271 33.3322H50.2V31.7383C50.2 31.2772 50.0209 30.8351 49.7021 30.5091C49.3833 30.1831 48.9509 30 48.5 30C48.0491 30 47.6167 30.1831 47.2979 30.5091C46.9791 30.8351 46.8 31.2772 46.8 31.7383V33.3322H46.4729C44.8932 33.3321 43.368 33.9228 42.1847 34.9929C41.0014 36.063 40.2416 37.5386 40.0487 39.1418C39.8557 40.7449 40.2427 42.3649 41.1369 43.6965C42.0311 45.028 43.3707 45.9792 44.9033 46.3709L46.8 46.8558V54.1913H46.4729C45.6583 54.1902 44.8773 53.8588 44.3012 53.2698C43.7252 52.6807 43.4011 51.8822 43.4 51.0492V50.7148C43.4 50.2537 43.2209 49.8116 42.9021 49.4856C42.5833 49.1596 42.1509 48.9765 41.7 48.9765C41.2491 48.9765 40.8167 49.1596 40.4979 49.4856C40.1791 49.8116 40 50.2537 40 50.7148V51.0492C40.0019 52.804 40.6845 54.4863 41.898 55.7271C43.1115 56.9679 44.7568 57.6658 46.4729 57.6678H46.8V59.2617C46.8 59.7228 46.9791 60.1649 47.2979 60.4909C47.6167 60.8169 48.0491 61 48.5 61C48.9509 61 49.3833 60.8169 49.7021 60.4909C50.0209 60.1649 50.2 59.7228 50.2 59.2617V57.6678H50.5271C52.1068 57.6679 53.632 57.0772 54.8153 56.0071C55.9986 54.937 56.7584 53.4614 56.9513 51.8582C57.1443 50.2551 56.7573 48.6351 55.8631 47.3035C54.9689 45.972 53.6293 45.0208 52.0967 44.6291L50.2 44.1442V36.8087H50.5271C51.3417 36.8098 52.1227 37.1412 52.6988 37.7302C53.2748 38.3193 53.5989 39.1178 53.6 39.9508V40.2852C53.6 40.7463 53.7791 41.1884 54.0979 41.5144C54.4167 41.8404 54.8491 42.0235 55.3 42.0235C55.7509 42.0235 56.1833 41.8404 56.5021 41.5144C56.8209 41.1884 57 40.7463 57 40.2852V39.9508C56.9981 38.196 56.3155 36.5137 55.102 35.2729C53.8885 34.0321 52.2432 33.3342 50.5271 33.3322ZM51.2717 48.0005C51.9994 48.1864 52.6354 48.6379 53.06 49.2701C53.4847 49.9023 53.6685 50.6714 53.577 51.4326C53.4854 52.1937 53.1248 52.8944 52.563 53.4025C52.0012 53.9107 51.2771 54.1912 50.5271 54.1913H50.2V47.7262L51.2717 48.0005ZM46.8 43.2738L45.729 42.9995C45.0014 42.8137 44.3654 42.3621 43.9407 41.7301C43.5161 41.0979 43.3322 40.3289 43.4237 39.5678C43.5151 38.8066 43.8757 38.106 44.4373 37.5978C44.9989 37.0896 45.7229 36.809 46.4729 36.8087H46.8V43.2738Z" fill="#FF5C39"/>
<circle cx="48.5" cy="45.5" r="20" stroke="#FF5C39" stroke-width="3"/>
</g>
<defs>
<clipPath id="clip0_328_56950">
<rect width="96" height="96" fill="white"/>
</clipPath>
</defs>
</svg>
