<svg width="97" height="96" viewBox="0 0 97 96" fill="none" xmlns="http://www.w3.org/2000/svg">
<path fill-rule="evenodd" clip-rule="evenodd" d="M62.6782 0H84.7797C90.9736 0.00944267 95.9924 5.03245 96.0018 11.2316V26.4928C95.9924 32.6919 90.9736 37.7149 84.7797 37.7243H62.6782C56.4843 37.7149 51.4655 32.6919 51.4561 26.4928V11.2316C51.4655 5.03245 56.4843 0.00944267 62.6782 0ZM62.6778 34.2938H84.7794C89.0847 34.2938 92.5749 30.8007 92.5749 26.4917V11.2305C92.5749 6.92157 89.0847 3.42847 84.7794 3.42847H62.6778C58.3725 3.42847 54.8823 6.92157 54.8823 11.2305V26.4917C54.8823 28.561 55.7036 30.5455 57.1656 32.0086C58.6275 33.4718 60.6103 34.2938 62.6778 34.2938Z" fill="#FF5C39"/>
<path fill-rule="evenodd" clip-rule="evenodd" d="M67.5082 10.2889L81.4887 17.3193C82.054 17.6042 82.4164 18.1779 82.431 18.8112C82.4291 19.4569 82.0649 20.0467 81.4887 20.3373L67.5082 27.3334C67.2683 27.4524 67.005 27.5168 66.7372 27.5221C65.791 27.5221 65.0239 26.7543 65.0239 25.8073V11.815C65.0257 11.2207 65.3349 10.6697 65.841 10.3588C66.3471 10.0479 66.9779 10.0215 67.5082 10.2889ZM76.8787 18.8611L68.4493 14.6429V23.0794L76.8787 18.8611Z" fill="#FF5C39"/>
<path d="M83.4082 66.1549C80.3264 67.4619 78.3092 70.4701 78.2683 73.8198H77.1547C76.2085 73.8198 75.4414 74.5875 75.4414 75.5345C75.4414 76.4815 76.2085 77.2492 77.1547 77.2492H78.354V84.1082C78.354 85.0552 79.1211 85.823 80.0673 85.823C81.0135 85.823 81.7806 85.0552 81.7806 84.1082V77.2492H83.0485C83.9947 77.2492 84.7618 76.4815 84.7618 75.5345C84.7618 74.5875 83.9947 73.8198 83.0485 73.8198H81.7806C81.8245 71.8477 83.0173 70.0837 84.8303 69.31C85.6631 68.9179 86.0377 67.9372 85.6784 67.0891C85.3192 66.241 84.3546 65.8285 83.4939 66.1549H83.4082Z" fill="#FF5C39"/>
<path fill-rule="evenodd" clip-rule="evenodd" d="M74.5157 60.5134H86.6459C91.8084 60.5229 95.9911 64.7091 96.0005 69.8759V82.0163C95.9911 87.1831 91.8084 91.3693 86.6459 91.3788H74.5157C69.3532 91.3693 65.1706 87.1831 65.1611 82.0163V69.8759C65.1706 64.7091 69.3532 60.5229 74.5157 60.5134ZM86.6456 87.9483C89.9195 87.9483 92.5736 85.292 92.5736 82.0153V69.8749C92.5736 68.3014 91.949 66.7923 90.8373 65.6796C89.7256 64.567 88.2178 63.9419 86.6456 63.9419H74.5154C72.9432 63.9419 71.4354 64.567 70.3237 65.6796C69.212 66.7923 68.5874 68.3014 68.5874 69.8749V82.0153C68.5874 85.292 71.2415 87.9483 74.5154 87.9483H86.6456Z" fill="#FF5C39"/>
<path fill-rule="evenodd" clip-rule="evenodd" d="M23.2034 44.1373H11.2103C6.00326 44.1373 1.77947 39.9177 1.77002 34.7062V22.703C1.77947 17.4916 6.00326 13.272 11.2103 13.272H23.2034C28.4076 13.272 32.6265 17.4944 32.6265 22.703V34.7062C32.6265 39.9149 28.4076 44.1373 23.2034 44.1373ZM11.2091 16.7173C7.89448 16.7173 5.20483 19.4015 5.19539 22.7189V34.7221C5.20483 38.0394 7.89448 40.7237 11.2091 40.7237H23.2022C26.514 40.7237 29.1987 38.0367 29.1987 34.7221V22.7189C29.1987 19.4043 26.514 16.7173 23.2022 16.7173H11.2091Z" fill="#FF5C39"/>
<path fill-rule="evenodd" clip-rule="evenodd" d="M24.0423 28.7052C24.0423 32.4933 20.974 35.5641 17.1891 35.5641C13.4042 35.5641 10.3359 32.4933 10.3359 28.7052C10.3359 24.9171 13.4042 21.8462 17.1891 21.8462C20.974 21.8462 24.0423 24.9171 24.0423 28.7052ZM20.6155 28.7041C20.6155 26.81 19.0813 25.2746 17.1889 25.2746C15.2964 25.2746 13.7623 26.81 13.7623 28.7041C13.7623 30.5981 15.2964 32.1336 17.1889 32.1336C19.0813 32.1336 20.6155 30.5981 20.6155 28.7041Z" fill="#FF5C39"/>
<ellipse cx="24.7441" cy="21.1425" rx="1.7133" ry="1.71429" fill="#FF5C39"/>
<path d="M58.924 56.8094C58.5244 56.0088 57.5769 55.6504 56.7481 55.9863L48.9012 59.553C48.3051 60.0442 48.111 60.8739 48.4272 61.5789C48.7434 62.284 49.4918 62.6902 50.2547 62.5709L58.1016 59.0043C58.9106 58.6037 59.2703 57.6436 58.924 56.8094Z" fill="#FF5C39"/>
<path d="M47.4962 48.8704L45.3546 54.5805C45.0691 55.4313 45.4875 56.3585 46.3141 56.7067C47.1693 57.003 48.1073 56.5824 48.4557 55.7465L50.5973 50.0364C50.6756 49.2622 50.2231 48.5323 49.4953 48.2586C48.7674 47.9849 47.9467 48.2361 47.4962 48.8704Z" fill="#FF5C39"/>
<path d="M58.5307 67.5429L52.8597 65.4172C52.0096 65.1315 51.0832 65.5502 50.7352 66.3772C50.4392 67.2329 50.8594 68.1714 51.6947 68.52L57.3657 70.6458C57.7677 70.8035 58.2144 70.8035 58.6164 70.6458C59.0223 70.4703 59.3383 70.1355 59.4902 69.72C59.8077 68.8542 59.3838 67.8922 58.5307 67.5429Z" fill="#FF5C39"/>
<path fill-rule="evenodd" clip-rule="evenodd" d="M45.338 69.2749C47.3848 67.576 48.0319 64.7107 46.9142 62.2959C45.8247 59.8786 43.2647 58.4785 40.6436 58.8664L36.7715 50.2927C36.5113 49.7892 36.0193 49.447 35.4571 49.3784C34.8949 49.3097 34.3352 49.5236 33.9617 49.9498L30.5351 54.2195C27.1041 58.5127 22.7068 61.9325 17.7025 64.1993L6.05206 69.4807C3.56595 70.6033 1.62752 72.6688 0.663513 75.2223C-0.300494 77.7759 -0.211045 80.6082 0.912168 83.0957C2.02743 85.5837 4.09592 87.518 6.65172 88.4628C9.19834 89.4195 12.02 89.327 14.4986 88.2056L17.257 86.9539L24.2816 94.5159C25.6198 95.9714 27.7385 96.4065 29.5414 95.5962L33.4991 93.7957C33.9772 93.5518 34.3136 93.0978 34.4078 92.569C34.502 92.0402 34.3433 91.4978 33.9788 91.1035L25.755 83.1129L26.2519 82.8899C31.1799 80.6838 36.5517 79.6508 41.9457 79.872L47.531 80.1464C47.7901 80.1464 48.0466 80.0939 48.2849 79.992C48.564 79.8668 48.8017 79.6645 48.9702 79.409C49.2822 78.9284 49.3336 78.3236 49.1073 77.7972L45.338 69.2749ZM43.9001 63.6681C44.1745 64.3144 44.1745 65.0445 43.9001 65.6909L43.7801 65.9481L42.0658 62.1938C42.8734 62.3729 43.5515 62.9179 43.9001 63.6681ZM7.88005 85.4583C9.6166 86.1044 11.5405 86.0193 13.2134 85.2224L14.8753 84.5022C12.6212 83.5976 10.68 82.054 9.2899 80.061C7.86448 77.9032 7.0966 75.3772 7.07975 72.7905C3.83609 74.504 2.48499 78.448 3.99581 81.7929C4.74231 83.4899 6.14351 84.8122 7.88005 85.4583ZM30.038 91.807L28.3247 92.5957C27.8116 92.8315 27.2055 92.7143 26.817 92.3042L20.5635 85.5481L22.6708 84.5879L30.038 91.807ZM25.1887 79.8024C30.5325 77.4209 36.3586 76.3228 42.2018 76.5959L45.0801 76.7159L41.7563 69.3597L38.1927 61.5061L34.8689 54.1499L33.1556 56.3105C29.3962 61.011 24.5832 64.759 19.1065 67.2505L10.4372 71.1773C10.1589 73.6305 10.7271 76.1052 12.0477 78.1906C13.8586 80.5375 16.5401 82.0525 19.4835 82.3917L22.3275 81.0885L24.9831 79.8882L25.1887 79.8024Z" fill="#FF5C39"/>
<path d="M81.2489 55.4037C81.3626 55.4199 81.4779 55.4199 81.5916 55.4037C82.4187 55.4204 83.1396 54.8432 83.3049 54.0319C83.7916 51.6448 84.0384 49.2149 84.0416 46.7785C84.0356 45.2941 83.9441 43.8112 83.7675 42.3374C83.6539 41.3903 82.7948 40.7147 81.8486 40.8284C80.9024 40.942 80.2273 41.8019 80.3409 42.7489C80.5118 44.0853 80.5976 45.4312 80.5979 46.7785C80.5997 48.9848 80.3758 51.1854 79.9297 53.346C79.8281 53.7943 79.9105 54.2646 80.1585 54.6515C80.4066 55.0384 80.7994 55.3094 81.2489 55.4037Z" fill="#FF5C39"/>
<path d="M36.532 16.2198C36.7307 16.2196 36.9278 16.1848 37.1145 16.117C39.4127 15.2801 41.7978 14.705 44.2247 14.4027C45.4868 14.2511 46.757 14.1767 48.0282 14.1798C48.9745 14.1798 49.7415 13.4123 49.7415 12.4655C49.7415 11.5187 48.9745 10.7512 48.0282 10.7512C46.6257 10.7538 45.2244 10.8339 43.8306 10.9912C41.1477 11.299 38.509 11.9145 35.9666 12.8255C35.188 13.1081 34.7229 13.9075 34.8618 14.7245C35.0007 15.5415 35.7038 16.1421 36.532 16.1512V16.2198Z" fill="#FF5C39"/>
<path d="M13.7619 47.6356C13.3071 47.6663 12.8833 47.8772 12.5842 48.2216C12.2852 48.5659 12.1356 49.0153 12.1685 49.4704C12.4202 52.8902 13.1587 56.2565 14.3616 59.4673C14.6125 60.1395 15.2551 60.5842 15.9721 60.5819C16.1763 60.5813 16.379 60.5465 16.5717 60.479C16.9997 60.321 17.3471 59.9987 17.5369 59.5834C17.7266 59.1682 17.7431 58.6944 17.5826 58.267C16.4854 55.3673 15.8159 52.3231 15.5951 49.2303C15.5644 48.7751 15.3537 48.3509 15.0097 48.0516C14.6656 47.7523 14.2166 47.6026 13.7619 47.6356Z" fill="#FF5C39"/>
</svg>
