<svg width="96" height="97" viewBox="0 0 96 97" fill="none" xmlns="http://www.w3.org/2000/svg">
<path d="M83.7005 59.6363C83.7098 53.0807 80.3612 46.9712 74.8143 43.4232C74.0092 42.9041 72.933 43.1319 72.4106 43.9321C71.8882 44.7322 72.1174 45.8017 72.9226 46.3209C78.7883 50.0482 81.5145 57.1469 79.6392 63.8102C78.2612 65.2624 76.4231 66.2001 74.4325 66.4664C73.2012 66.464 72.0285 65.944 71.2043 65.0348C70.8784 64.7083 70.4348 64.5247 69.9721 64.5247C69.5093 64.5247 69.0657 64.7083 68.7398 65.0348C68.0669 65.7076 68.0669 66.7941 68.7398 67.4668C70.1825 69.015 72.2051 69.9015 74.3284 69.916H74.5366C76.7683 69.7506 78.8949 68.9077 80.6285 67.5013C81.3289 69.2942 81.6879 71.2008 81.6872 73.1241C81.6784 81.084 75.7428 87.8084 67.8026 88.8542C70.3587 85.511 71.7425 81.4278 71.7424 77.2291C71.7424 76.2765 70.9653 75.5043 70.0068 75.5043C69.0483 75.5043 68.2712 76.2765 68.2712 77.2291C68.2719 81.9569 66.1534 86.4394 62.4917 89.4578L62.3008 89.5958C61.9884 89.8545 61.6413 90.096 61.2942 90.3375L60.9991 90.5272C60.6995 90.737 60.3865 90.9271 60.0619 91.0964L59.6107 91.3379L58.7776 91.7346L58.1702 91.9933L57.4586 92.252L56.7123 92.4762L56.0875 92.6487L55.237 92.8384H54.699L53.7444 92.9764H53.3626C53.0155 92.9764 52.651 92.9764 52.2866 92.9764C47.385 92.982 42.7525 90.7501 39.721 86.9224C39.3102 86.4017 38.6359 86.1605 37.9854 86.3015C35.1294 86.9166 32.1585 86.7436 29.3943 85.8013C31.9161 84.351 34.0523 82.3227 35.625 79.8853C36.062 79.0948 35.8125 78.1033 35.0525 77.6104C34.2926 77.1175 33.2788 77.2896 32.7266 78.0052C30.857 80.8835 28.0516 83.0383 24.7777 84.111H24.5694C19.6883 85.7697 14.3017 84.9856 10.1045 82.0052C5.90725 79.0248 3.41532 74.2146 3.41276 69.0881C3.39502 63.1853 6.697 57.7672 11.9691 55.0483C12.6051 54.7177 12.9708 54.0322 12.889 53.3235C12.8185 52.7513 12.7837 52.1753 12.7849 51.5987C12.7575 46.7139 15.0078 42.0919 18.879 39.0816C22.7502 36.0714 27.8059 35.0124 32.5704 36.2136C33.6812 37.6107 35.7292 40.7843 35.2432 43.1128C35.1515 43.5636 35.2447 44.0321 35.5021 44.4143C35.7596 44.7964 36.16 45.0606 36.6143 45.148H36.9441C37.7819 45.1648 38.5122 44.5842 38.6797 43.7682C39.3739 40.3186 37.4127 36.8691 36.0416 34.9373C40.194 32.285 45.3338 31.6504 50.013 33.2125C50.389 33.3454 50.7997 33.3454 51.1758 33.2125C52.8475 32.6218 54.6083 32.3185 56.3825 32.3156C57.3411 32.3156 58.1181 31.5434 58.1181 30.5908C58.1181 29.6383 57.3411 28.866 56.3825 28.866C54.3864 28.8606 52.4016 29.1631 50.4989 29.7629C44.591 28.0553 38.2203 29.1635 33.2473 32.7641C27.4439 31.4359 21.348 32.8174 16.6978 36.5145C12.0475 40.2116 9.35322 45.8186 9.38314 51.7367C9.38314 52.1162 9.38314 52.4611 9.38314 52.8061C1.92877 57.2899 -1.61668 66.1525 0.705013 74.4988C3.02671 82.8451 10.6493 88.6395 19.3627 88.6817H19.6925C21.4848 88.6542 23.2652 88.3874 24.986 87.8883C28.826 90.0208 33.2774 90.8047 37.6209 90.1133C41.3021 94.273 46.6082 96.655 52.1824 96.6502H52.9634C53.2932 96.6502 53.6056 96.6502 53.918 96.6502L54.8899 96.5295L55.6883 96.4087C56.0181 96.4087 56.3305 96.288 56.6255 96.2018C56.907 96.1491 57.1852 96.0799 57.4586 95.9948L58.309 95.7361L59.2462 95.3911C59.4718 95.3049 59.6975 95.2359 59.9057 95.1324C60.4295 94.9226 60.9395 94.6807 61.433 94.408C62.4154 93.8857 63.3503 93.2797 64.2273 92.597C64.6786 92.597 65.1472 92.597 65.6158 92.597C76.357 92.5874 85.062 83.9365 85.0716 73.2621C85.082 70.2652 84.374 67.309 83.0062 64.6381C83.4561 63.008 83.6895 61.3265 83.7005 59.6363Z" fill="#FF5C39"/>
<path d="M26.7391 46.0967C25.8572 45.726 24.8399 46.135 24.4655 47.0108C23.4464 49.388 22.9267 51.947 22.9382 54.5309C22.935 57.9067 23.8206 61.2247 25.5068 64.1552C25.8169 64.6913 26.3911 65.0223 27.0133 65.0236C27.6355 65.0248 28.2111 64.696 28.5233 64.1612C28.8354 63.6263 28.8368 62.9665 28.5267 62.4304C26.0486 58.1291 25.7278 52.926 27.6589 48.3562C28.032 47.4798 27.6204 46.4687 26.7391 46.0967Z" fill="#FF5C39"/>
<path fill-rule="evenodd" clip-rule="evenodd" d="M92.4477 17.2233C93.2302 17.1853 93.9413 17.6729 94.1833 18.4134C94.4641 19.1618 94.1912 20.0038 93.5237 20.4487L49.6137 51.4949C49.3207 51.7057 48.9688 51.8203 48.607 51.8226C47.9019 51.8267 47.2644 51.4064 46.9941 50.7592C46.7237 50.112 46.8741 49.3666 47.3748 48.8732L69.3125 27.0719H59.6106C58.9141 27.0713 58.2855 26.6571 58.0139 26.0197C57.7465 25.374 57.8972 24.6318 58.3957 24.1397L82.0169 0.49288C82.6247 -0.0990502 83.5748 -0.16566 84.2602 0.335596C84.9457 0.836851 85.1643 1.75808 84.7764 2.51088L77.1399 17.2233H92.4477ZM74.7111 26.4855L64.4886 36.6445L87.0511 20.673H74.3466C73.7401 20.6742 73.1768 20.3607 72.8611 19.8459C72.5454 19.3312 72.523 18.69 72.802 18.1548L76.6376 10.7727L63.7943 23.5361H73.4789C74.1858 23.5326 74.8243 23.9556 75.0929 24.6055C75.3603 25.2512 75.2096 25.9934 74.7111 26.4855Z" fill="#FF5C39"/>
<path d="M49.5107 73.1928C49.5203 64.3759 56.7101 57.2308 65.5821 57.2213C66.5407 57.2213 67.3177 56.4491 67.3177 55.4965C67.3177 54.5439 66.5407 53.7717 65.5821 53.7717C54.793 53.7812 46.0491 62.4708 46.0396 73.1928C46.0396 74.1454 46.8166 74.9176 47.7751 74.9176C48.7337 74.9176 49.5107 74.1454 49.5107 73.1928Z" fill="#FF5C39"/>
</svg>
