<svg width="96" height="96" viewBox="0 0 96 96" fill="none" xmlns="http://www.w3.org/2000/svg">
<g clip-path="url(#clip0_324_3472)">
<path d="M93 12H81C80.6022 12 80.2206 12.158 79.9393 12.4393C79.658 12.7206 79.5 13.1022 79.5 13.5C79.5 13.8978 79.658 14.2794 79.9393 14.5607C80.2206 14.842 80.6022 15 81 15H91.5V60H76.5V1.5C76.5 1.10218 76.342 0.720644 76.0607 0.43934C75.7794 0.158035 75.3978 0 75 0L21 0C20.6022 0 20.2206 0.158035 19.9393 0.43934C19.658 0.720644 19.5 1.10218 19.5 1.5V60H4.5V15H15C15.3978 15 15.7794 14.842 16.0607 14.5607C16.342 14.2794 16.5 13.8978 16.5 13.5C16.5 13.1022 16.342 12.7206 16.0607 12.4393C15.7794 12.158 15.3978 12 15 12H3C2.60218 12 2.22064 12.158 1.93934 12.4393C1.65804 12.7206 1.5 13.1022 1.5 13.5V73.5C1.5 73.8978 1.65804 74.2794 1.93934 74.5607C2.22064 74.842 2.60218 75 3 75H37.5V81H21C20.7214 81 20.4483 81.0775 20.2114 81.2239C19.9744 81.3704 19.7829 81.5799 19.6583 81.829L13.6583 93.829C13.5439 94.0578 13.4899 94.3119 13.5013 94.5674C13.5128 94.8228 13.5894 95.0711 13.7239 95.2886C13.8583 95.5061 14.0461 95.6857 14.2695 95.8102C14.4928 95.9347 14.7443 96 15 96H81C81.2557 96 81.5072 95.9347 81.7305 95.8102C81.9539 95.6857 82.1417 95.5061 82.2761 95.2886C82.4106 95.0711 82.4872 94.8228 82.4987 94.5674C82.5101 94.3119 82.4561 94.0578 82.3418 93.829L76.3418 81.829C76.2171 81.5799 76.0256 81.3704 75.7886 81.2239C75.5517 81.0775 75.2786 81 75 81H58.5V75H93C93.3978 75 93.7794 74.842 94.0607 74.5607C94.342 74.2794 94.5 73.8978 94.5 73.5V13.5C94.5 13.1022 94.342 12.7206 94.0607 12.4393C93.7794 12.158 93.3978 12 93 12ZM22.5 3H73.5V60H69V25.5C69 25.1022 68.842 24.7206 68.5607 24.4393C68.2794 24.158 67.8978 24 67.5 24H58.5C58.1022 24 57.7206 24.158 57.4393 24.4393C57.158 24.7206 57 25.1022 57 25.5V60H54V36C54 35.6022 53.842 35.2206 53.5607 34.9393C53.2794 34.658 52.8978 34.5 52.5 34.5H43.5C43.1022 34.5 42.7206 34.658 42.4393 34.9393C42.158 35.2206 42 35.6022 42 36V60H39V45C39 44.6022 38.842 44.2206 38.5607 43.9393C38.2794 43.658 37.8978 43.5 37.5 43.5H28.5C28.1022 43.5 27.7206 43.658 27.4393 43.9393C27.158 44.2206 27 44.6022 27 45V60H22.5V3ZM66 60H60V27H66V60ZM51 60H45V37.5H51V60ZM36 60H30V46.5H36V60ZM78.5727 93H17.4273L21.9273 84H37.2235C36.9154 84.8749 36.344 85.633 35.5878 86.1701C34.8315 86.7073 33.9276 86.9972 33 87C32.6022 87 32.2206 87.158 31.9393 87.4393C31.658 87.7206 31.5 88.1022 31.5 88.5C31.5 88.8978 31.658 89.2794 31.9393 89.5607C32.2206 89.842 32.6022 90 33 90H63C63.3978 90 63.7794 89.842 64.0607 89.5607C64.342 89.2794 64.5 88.8978 64.5 88.5C64.5 88.1022 64.342 87.7206 64.0607 87.4393C63.7794 87.158 63.3978 87 63 87C62.0724 86.9972 61.1685 86.7073 60.4122 86.1701C59.656 85.633 59.0846 84.8749 58.7765 84H74.0727L78.5727 93ZM55.5 82.5C55.4982 84.1236 56.0261 85.7036 57.0036 87H38.9964C39.9739 85.7036 40.5018 84.1236 40.5 82.5V75H55.5V82.5ZM91.5 72H4.5V63H91.5V72Z" fill="#FF5C39"/>
<path d="M51 66H45C44.6022 66 44.2206 66.158 43.9393 66.4393C43.658 66.7206 43.5 67.1022 43.5 67.5C43.5 67.8978 43.658 68.2794 43.9393 68.5607C44.2206 68.842 44.6022 69 45 69H51C51.3978 69 51.7794 68.842 52.0607 68.5607C52.342 68.2794 52.5 67.8978 52.5 67.5C52.5 67.1022 52.342 66.7206 52.0607 66.4393C51.7794 66.158 51.3978 66 51 66Z" fill="#FF5C39"/>
<path d="M39.0001 31.5C41.2457 31.5038 43.4471 30.8763 45.3533 29.6891C47.2595 28.502 48.7936 26.803 49.7807 24.7859C50.7677 22.7689 51.168 20.515 50.9358 18.2814C50.7036 16.0478 49.8483 13.9245 48.4675 12.1536L51.6212 9H54.0001C54.3979 9 54.7794 8.84196 55.0607 8.56066C55.342 8.27936 55.5001 7.89782 55.5001 7.5C55.5001 7.10218 55.342 6.72064 55.0607 6.43934C54.7794 6.15804 54.3979 6 54.0001 6H51.0001C50.6023 6.00008 50.2208 6.15818 49.9396 6.4395L46.3465 10.0326C44.8384 8.86213 43.0727 8.06857 41.1962 7.71789C39.3197 7.36721 37.3866 7.46955 35.5576 8.0164C33.7286 8.56325 32.0566 9.5388 30.6805 10.862C29.3044 12.1851 28.2641 13.8176 27.646 15.6238C27.0279 17.43 26.8499 19.3576 27.1268 21.2464C27.4037 23.1352 28.1275 24.9306 29.238 26.4834C30.3484 28.0362 31.8135 29.3014 33.5115 30.174C35.2094 31.0465 37.0911 31.5011 39.0001 31.5ZM43.9396 14.5605C44.0788 14.6998 44.2441 14.8104 44.4261 14.8858C44.6081 14.9612 44.8031 15 45.0001 15C45.197 15 45.3921 14.9612 45.5741 14.8858C45.756 14.8104 45.9213 14.6998 46.0606 14.5605L46.3277 14.2934C47.1144 15.3964 47.6401 16.6639 47.8651 18H44.7871C44.5184 16.9687 43.9795 16.0277 43.2259 15.2741C42.4724 14.5206 41.5314 13.9816 40.5001 13.713V10.635C41.8361 10.8598 43.1036 11.3854 44.2067 12.1719L43.9396 12.439C43.8002 12.5783 43.6896 12.7436 43.6141 12.9256C43.5386 13.1076 43.4998 13.3027 43.4998 13.4998C43.4998 13.6968 43.5386 13.8919 43.6141 14.0739C43.6896 14.2559 43.8002 14.4213 43.9396 14.5605ZM39.0001 16.5C39.5934 16.5 40.1734 16.6759 40.6668 17.0056C41.1601 17.3352 41.5446 17.8038 41.7717 18.3519C41.9988 18.9001 42.0582 19.5033 41.9424 20.0853C41.8267 20.6672 41.5409 21.2018 41.1214 21.6213C40.7018 22.0409 40.1673 22.3266 39.5853 22.4424C39.0034 22.5581 38.4002 22.4987 37.852 22.2716C37.3038 22.0446 36.8353 21.6601 36.5057 21.1667C36.176 20.6734 36.0001 20.0933 36.0001 19.5C36.001 18.7046 36.3173 17.9421 36.8798 17.3797C37.4422 16.8173 38.2047 16.5009 39.0001 16.5ZM37.5001 10.635V13.713C36.4767 13.9754 35.541 14.504 34.7879 15.2449C34.0349 15.9859 33.4913 16.913 33.2124 17.932C32.9334 18.951 32.9291 20.0256 33.1998 21.0468C33.4705 22.068 34.0066 22.9994 34.7536 23.7465C35.5006 24.4935 36.432 25.0296 37.4533 25.3003C38.4745 25.571 39.5491 25.5666 40.5681 25.2877C41.5871 25.0088 42.5141 24.4652 43.2551 23.7121C43.9961 22.9591 44.5246 22.0234 44.7871 21H47.8651C47.5905 22.6283 46.8731 24.1495 45.7914 25.3971C44.7096 26.6446 43.3054 27.5704 41.7324 28.0728C40.1595 28.5752 38.4786 28.635 36.874 28.2455C35.2693 27.8561 33.8029 27.0324 32.6353 25.8648C31.4677 24.6972 30.644 23.2307 30.2545 21.6261C29.8651 20.0215 29.9248 18.3406 30.4273 16.7676C30.9297 15.1947 31.8554 13.7904 33.103 12.7087C34.3506 11.627 35.8718 10.9095 37.5001 10.635Z" fill="#FF5C39"/>
<path d="M67.5 12H55.5C55.1022 12 54.7206 12.158 54.4393 12.4393C54.158 12.7206 54 13.1022 54 13.5C54 13.8978 54.158 14.2794 54.4393 14.5607C54.7206 14.842 55.1022 15 55.5 15H67.5C67.8978 15 68.2794 14.842 68.5607 14.5607C68.842 14.2794 69 13.8978 69 13.5C69 13.1022 68.842 12.7206 68.5607 12.4393C68.2794 12.158 67.8978 12 67.5 12Z" fill="#FF5C39"/>
<path d="M58.5 9H67.5C67.8978 9 68.2794 8.84196 68.5607 8.56066C68.842 8.27936 69 7.89782 69 7.5C69 7.10218 68.842 6.72064 68.5607 6.43934C68.2794 6.15804 67.8978 6 67.5 6H58.5C58.1022 6 57.7206 6.15804 57.4393 6.43934C57.158 6.72064 57 7.10218 57 7.5C57 7.89782 57.158 8.27936 57.4393 8.56066C57.7206 8.84196 58.1022 9 58.5 9Z" fill="#FF5C39"/>
<path d="M67.5 18H55.5C55.1022 18 54.7206 18.158 54.4393 18.4393C54.158 18.7206 54 19.1022 54 19.5C54 19.8978 54.158 20.2794 54.4393 20.5607C54.7206 20.842 55.1022 21 55.5 21H67.5C67.8978 21 68.2794 20.842 68.5607 20.5607C68.842 20.2794 69 19.8978 69 19.5C69 19.1022 68.842 18.7206 68.5607 18.4393C68.2794 18.158 67.8978 18 67.5 18Z" fill="#FF5C39"/>
</g>
<defs>
<clipPath id="clip0_324_3472">
<rect width="96" height="96" fill="white"/>
</clipPath>
</defs>
</svg>
