<svg width="96" height="96" viewBox="0 0 96 96" fill="none" xmlns="http://www.w3.org/2000/svg">
<path d="M13.0695 23.22C12.1261 23.22 11.3613 23.9851 11.3613 24.9289C11.3613 25.8728 12.1261 26.6379 13.0695 26.6379H18.8259C19.7692 26.6379 20.534 25.8728 20.534 24.9289C20.534 23.9851 19.7692 23.22 18.8259 23.22H13.0695Z" fill="#FF5C39"/>
<path d="M39.8529 24.9289C39.8529 23.9851 39.0881 23.22 38.1447 23.22H32.3883C31.4449 23.22 30.6802 23.9851 30.6802 24.9289C30.6802 25.8728 31.4449 26.6379 32.3883 26.6379H38.1447C39.0881 26.6379 39.8529 25.8728 39.8529 24.9289Z" fill="#FF5C39"/>
<path d="M50.152 23.22C49.2086 23.22 48.4438 23.9851 48.4438 24.9289C48.4438 25.8728 49.2086 26.6379 50.152 26.6379H68.1899C69.1333 26.6379 69.898 25.8728 69.898 24.9289C69.898 23.9851 69.1333 23.22 68.1899 23.22H50.152Z" fill="#FF5C39"/>
<path fill-rule="evenodd" clip-rule="evenodd" d="M6.69744 62.7656H56.2333H56.3017C57.245 62.7656 58.0098 63.5308 58.0098 64.4746C58.0098 65.4184 57.245 66.1836 56.3017 66.1836H54.5935C51.1148 66.3616 48.3855 69.2354 48.3855 72.7204C48.3855 76.2054 51.1148 79.0792 54.5935 79.2572C55.5369 79.2572 56.3017 80.0224 56.3017 80.9662C56.3017 81.91 55.5369 82.6752 54.5935 82.6752H28.237C27.2936 82.6752 26.5289 81.91 26.5289 80.9662C26.5289 80.0224 27.2936 79.2572 28.237 79.2572C31.7157 79.0792 34.445 76.2054 34.445 72.7204C34.445 69.2354 31.7157 66.3616 28.237 66.1836H6.7316C3.11569 66.1836 0.18178 63.2559 0.172363 59.6382V19.8874C0.18175 16.267 3.11293 13.3343 6.7316 13.325H76.0989C79.7176 13.3343 82.6488 16.267 82.6582 19.8874V32.6193C82.6582 33.5631 81.8934 34.3283 80.95 34.3283C80.0066 34.3283 79.2419 33.5631 79.2419 32.6193V19.8874C79.2326 18.1546 77.8309 16.7522 76.0989 16.7429H6.7316C5.89803 16.7429 5.09861 17.0742 4.50918 17.6639C3.91976 18.2536 3.58863 19.0534 3.58863 19.8874V59.6382C3.58861 61.3588 4.97773 62.7562 6.69744 62.7656ZM35.394 79.2573H47.351C44.2142 75.4644 44.2142 69.9765 47.351 66.1836H35.394C38.5309 69.9765 38.5309 75.4644 35.394 79.2573Z" fill="#FF5C39"/>
<path d="M32.8325 38.1902C32.2307 37.4734 31.1645 37.3743 30.4411 37.9681L25.4875 42.0867C25.0971 42.412 24.8717 42.8943 24.8726 43.4026C24.8717 43.9109 25.0971 44.3932 25.4875 44.7185L30.4411 48.8372C30.7484 49.0919 31.1352 49.231 31.5343 49.2302C32.0364 49.226 32.5111 49.001 32.8325 48.615C33.3856 47.9069 33.296 46.8911 32.6275 46.2908L29.2112 43.471L32.6275 40.6683C32.9951 40.3747 33.2255 39.9425 33.2643 39.4735C33.3031 39.0045 33.1469 38.5403 32.8325 38.1902Z" fill="#FF5C39"/>
<path d="M52.389 37.9682C51.6626 37.3642 50.5843 37.4637 49.9805 38.1904C49.3767 38.9172 49.4762 39.996 50.2026 40.6001L53.6188 43.4028L50.2026 46.2226C49.6613 46.6856 49.464 47.436 49.7073 48.1055C49.9507 48.7751 50.5837 49.2234 51.2958 49.2304C51.6949 49.2312 52.0817 49.0921 52.389 48.8373L57.3255 44.7187C57.7159 44.3934 57.9412 43.9111 57.9404 43.4028C57.9412 42.8945 57.7159 42.4122 57.3255 42.0869L52.389 37.9682Z" fill="#FF5C39"/>
<path d="M38.7763 51.2811C38.9578 51.3046 39.1415 51.3046 39.3229 51.2811C40.0884 51.3211 40.7868 50.846 41.0311 50.119L45.1135 37.746C45.3711 37.153 45.272 36.4654 44.8577 35.9692C44.4433 35.473 43.7845 35.2533 43.1554 35.4015C42.5264 35.5497 42.0347 36.0404 41.8851 36.6694L37.7515 49.1107C37.4423 49.9929 37.8989 50.9599 38.7763 51.2811Z" fill="#FF5C39"/>
<path fill-rule="evenodd" clip-rule="evenodd" d="M90.9594 50.683C91.0932 51.0124 91.4072 51.2329 91.7622 51.247C94.0407 51.3993 95.8148 53.2861 95.8276 55.5707V56.8183C95.8148 59.1028 94.0407 60.9897 91.7622 61.142C91.4072 61.156 91.0932 61.3766 90.9594 61.7059C90.8138 62.0353 90.8813 62.42 91.1302 62.68C92.6299 64.4008 92.5479 66.9879 90.9423 68.6102L90.0712 69.4818C88.4511 71.107 85.8463 71.1894 84.1269 69.6698C83.8593 69.4462 83.49 69.3893 83.1676 69.522C82.8452 69.6546 82.6226 69.9549 82.5896 70.3021C82.4542 72.5922 80.561 74.3815 78.268 74.3865H77.0381C74.7419 74.3821 72.8435 72.5949 72.6995 70.3021C72.6787 69.9482 72.4571 69.6375 72.1294 69.5027C71.8017 69.3679 71.4257 69.4328 71.1621 69.6698C69.4483 71.1872 66.8492 71.1048 65.2349 69.4818L64.3638 68.6102C62.7416 66.9951 62.6592 64.3947 64.1759 62.68C64.4127 62.4164 64.4776 62.0402 64.3429 61.7123C64.2082 61.3844 63.8976 61.1628 63.5439 61.142C61.2587 60.9983 59.4749 59.109 59.4614 56.8183V55.5707C59.4749 53.28 61.2587 51.3907 63.5439 51.247C63.8976 51.2262 64.2082 51.0045 64.3429 50.6766C64.4776 50.3487 64.4127 49.9726 64.1759 49.7089C62.6592 47.9943 62.7416 45.3939 64.3638 43.7788L65.2349 42.8901C66.8564 41.2838 69.4422 41.2018 71.1621 42.7021C71.4221 42.9512 71.8066 43.0187 72.1358 42.873C72.4649 42.7392 72.6854 42.425 72.6995 42.0698C72.8521 39.7837 74.7481 38.0063 77.0381 38.0024H78.268C80.5548 38.0069 82.4455 39.7864 82.5896 42.0698C82.602 42.4307 82.8316 42.7482 83.1703 42.873C83.4915 43.0156 83.8665 42.9553 84.1269 42.7192C85.8463 41.1996 88.4511 41.282 90.0712 42.9072L90.9423 43.7617C92.5502 45.3897 92.6321 47.9825 91.1302 49.7089C90.8813 49.969 90.8138 50.3537 90.9594 50.683ZM91.5409 57.7242C92.0275 57.7058 92.4124 57.3056 92.4121 56.8184L92.395 55.5709C92.3953 55.0837 92.0104 54.6835 91.5238 54.6651C89.873 54.5535 88.428 53.5156 87.7942 51.9865C87.1604 50.4574 87.4472 48.701 88.5346 47.4533C88.8687 47.098 88.8687 46.5439 88.5346 46.1886L87.6635 45.317C87.3083 44.9828 86.7546 44.9828 86.3994 45.317C85.156 46.4084 83.4004 46.6974 81.873 46.0622C80.3455 45.4269 79.312 43.978 79.2082 42.3263C79.1729 41.8406 78.7725 41.4623 78.2858 41.4548H77.0559C76.5659 41.454 76.1608 41.8368 76.1336 42.3263C76.0348 43.9848 74.9985 45.4414 73.4645 46.0778C71.9306 46.7143 70.1681 46.4189 68.9252 45.317C68.5701 44.9828 68.0163 44.9828 67.6612 45.317L66.7901 46.1886C66.456 46.5439 66.456 47.098 66.7901 47.4533C67.8816 48.7081 68.1639 50.4751 67.5177 52.0078C66.8715 53.5405 65.4096 54.5715 63.7496 54.6651C63.2668 54.6919 62.8866 55.0872 62.8784 55.5709V56.8184C62.8866 57.3021 63.2668 57.6974 63.7496 57.7242C65.4004 57.8359 66.8454 58.8737 67.4792 60.4028C68.1131 61.932 67.8262 63.6883 66.7388 64.9361C66.4048 65.2914 66.4048 65.8454 66.7388 66.2007L67.61 67.0723C67.9651 67.4065 68.5189 67.4065 68.874 67.0723C69.667 66.3747 70.6878 65.9917 71.7437 65.9956C72.3289 65.9898 72.9095 66.1001 73.4518 66.3203C74.9813 66.9567 76.0152 68.4088 76.1165 70.063C76.1518 70.5487 76.5521 70.927 77.0389 70.9346H78.32C78.8067 70.927 79.207 70.5487 79.2424 70.063C79.3462 68.4113 80.3797 66.9624 81.9071 66.3272C83.4346 65.6919 85.1901 65.9809 86.4336 67.0723C86.7887 67.4065 87.3425 67.4065 87.6976 67.0723L88.5688 66.2007C88.8946 65.8422 88.8946 65.2946 88.5688 64.9361C87.4689 63.6949 87.1721 61.9351 87.8041 60.4016C88.4361 58.8681 89.8863 57.8291 91.5409 57.7242Z" fill="#FF5C39"/>
<path fill-rule="evenodd" clip-rule="evenodd" d="M70.7273 53.3305C71.8897 50.5318 74.6241 48.7106 77.6532 48.7175C81.7719 48.7269 85.1084 52.0651 85.1177 56.1858C85.1247 59.2164 83.3044 61.9521 80.5071 63.1151C77.7099 64.2781 74.4878 63.6387 72.3458 61.4958C70.2039 59.3528 69.5649 56.1291 70.7273 53.3305ZM73.8858 57.7541C74.5204 59.2734 76.008 60.26 77.6538 60.2531C79.8885 60.2344 81.6928 58.4215 81.7021 56.1857C81.7021 54.5391 80.7098 53.0549 79.1885 52.4263C77.6673 51.7978 75.9174 52.1489 74.7561 53.3157C73.5947 54.4825 73.2512 56.2348 73.8858 57.7541Z" fill="#FF5C39"/>
</svg>
