<svg width="141" height="56" viewBox="0 0 141 56" fill="none" xmlns="http://www.w3.org/2000/svg">
<g clip-path="url(#clip0_1075_267465)">
<rect width="140" height="55.6456" transform="translate(0.602539 0.177246)" fill="white"/>
<path d="M6.55638 18.5257C6.55638 20.1252 6.90795 21.3531 7.36744 22.0961C7.96993 23.0691 8.86854 23.4814 9.78466 23.4814C10.9663 23.4814 12.0472 23.1886 14.1304 20.3116C15.7992 18.0057 17.7657 14.7689 19.0888 12.7397L21.3295 9.30196C22.886 6.91445 24.6876 4.26035 26.7532 2.46134C28.4396 0.992993 30.2587 0.177246 32.0895 0.177246C35.163 0.177246 38.0908 1.95587 40.3316 5.2917C42.7839 8.94506 43.9742 13.5467 43.9742 18.2956C43.9742 21.1186 43.417 23.193 42.4686 24.8317C41.5526 26.4166 39.7671 28 36.7633 28V23.4814C39.3351 23.4814 39.9771 21.1215 39.9771 18.4208C39.9771 14.5723 39.0784 10.3012 37.0988 7.24949C35.6943 5.08484 33.8737 3.76216 31.8707 3.76216C29.7044 3.76216 27.9611 5.39365 26.002 8.30266C24.9604 9.84822 23.8911 11.7317 22.6905 13.857L21.3689 16.195C18.7139 20.8957 18.0414 21.9664 16.7139 23.7334C14.3871 26.8274 12.4003 28 9.78466 28C6.68184 28 4.71976 26.6584 3.50461 24.6365C2.51262 22.989 2.02539 20.8273 2.02539 18.364L6.55638 18.5257Z" fill="#0081FB"/>
<path d="M5.59766 5.6107C7.67495 2.41327 10.6728 0.177246 14.1111 0.177246C16.1024 0.177246 18.0819 0.765749 20.149 2.45114C22.4101 4.29385 24.8201 7.32813 27.8266 12.329L28.9046 14.1236C31.5071 18.4529 32.9877 20.6802 33.8544 21.7304C34.9687 23.0793 35.7492 23.4814 36.7631 23.4814C39.3349 23.4814 39.9768 21.1215 39.9768 18.4208L43.974 18.2956C43.974 21.1186 43.4165 23.193 42.4684 24.8317C41.5524 26.4166 39.7668 28 36.7631 28C34.8959 28 33.2415 27.5951 31.4124 25.8718C30.0061 24.5491 28.362 22.1995 27.0972 20.0873L23.335 13.8119C21.4473 10.6625 19.7158 8.31433 18.7136 7.25093C17.6356 6.10745 16.2497 4.7265 14.0382 4.7265C12.2483 4.7265 10.7282 5.98071 9.45614 7.89915L5.59766 5.6107Z" fill="url(#paint0_linear_1075_267465)"/>
<path d="M14.0385 4.7265C12.2486 4.7265 10.7285 5.98071 9.45643 7.89915C7.65774 10.6101 6.55638 14.648 6.55638 18.5257C6.55638 20.1252 6.90795 21.3531 7.36744 22.0961L3.50461 24.6365C2.51262 22.989 2.02539 20.8273 2.02539 18.364C2.02539 13.8847 3.25661 9.21602 5.59795 5.6107C7.67527 2.41327 10.6731 0.177246 14.1114 0.177246L14.0385 4.7265Z" fill="url(#paint1_linear_1075_267465)"/>
<path d="M52.7822 1.05713H58.0237L66.9353 17.1565L75.8487 1.05713H80.976V27.5106H76.7003V7.23642L68.8842 21.276H64.8726L57.0579 7.23642V27.5106H52.7822V1.05713ZM94.3736 10.9204C91.3073 10.9204 89.4605 13.2248 89.0183 16.0785H99.4253C99.211 13.1389 97.5128 10.9204 94.3736 10.9204ZM84.7791 17.7042C84.7791 11.6997 88.6655 7.32963 94.4479 7.32963C100.136 7.32963 103.532 11.6443 103.532 18.0246V19.1973H89.0183C89.5334 22.3015 91.5961 24.3933 94.9222 24.3933C97.5757 24.3933 99.2343 23.5848 100.807 22.1063L103.078 24.8842C100.938 26.8493 98.2159 27.9826 94.7703 27.9826C88.5107 27.9826 84.7791 23.4246 84.7791 17.7042ZM108.716 11.2991H104.781V7.80307H108.716V2.02146H112.842V7.80307H118.821V11.2991H112.842V20.1602C112.842 23.1857 113.811 24.2608 116.191 24.2608C117.278 24.2608 117.901 24.1675 118.821 24.0146V27.4728C117.675 27.7961 116.581 27.9447 115.396 27.9447C110.943 27.9447 108.716 25.515 108.716 20.6511V11.2991ZM136.193 14.699C135.364 12.6101 133.516 11.0719 130.8 11.0719C127.269 11.0719 125.009 13.573 125.009 17.6474C125.009 21.6198 127.09 24.2418 130.63 24.2418C133.414 24.2418 135.4 22.6249 136.193 20.6132V14.699ZM140.318 27.5106H136.268V24.7517C135.136 26.3759 133.076 27.9826 129.74 27.9826C124.375 27.9826 120.789 23.4974 120.789 17.6474C120.789 11.742 124.461 7.32963 129.968 7.32963C132.69 7.32963 134.826 8.41633 136.268 10.3348V7.80307H140.318V27.5106Z" fill="#192830"/>
<path d="M9.94505 47.9614C10.6046 48.1448 11.1237 48.4793 11.5021 48.9647C11.8806 49.4394 12.0698 50.0436 12.0698 50.7772C12.0698 51.7589 11.6968 52.5141 10.9507 53.0428C10.2154 53.5714 9.13948 53.8357 7.72298 53.8357H2.30566V42.5079H7.39859C8.69615 42.5079 9.69635 42.7668 10.3992 43.2846C11.1129 43.8025 11.4697 44.5199 11.4697 45.4369C11.4697 46.0303 11.3291 46.5427 11.048 46.9743C10.7777 47.4058 10.41 47.7349 9.94505 47.9614ZM3.92762 43.8187V47.4436H7.25261C8.08522 47.4436 8.72318 47.2925 9.16652 46.9905C9.62066 46.6776 9.84774 46.2245 9.84774 45.6311C9.84774 45.0377 9.62066 44.59 9.16652 44.2879C8.72318 43.9751 8.08522 43.8187 7.25261 43.8187H3.92762ZM7.6581 52.5249C8.57721 52.5249 9.26924 52.3739 9.7342 52.0718C10.1992 51.7697 10.4316 51.295 10.4316 50.6477C10.4316 49.3855 9.50713 48.7544 7.6581 48.7544H3.92762V52.5249H7.6581ZM22.3666 45.2589V53.8357H20.8905V52.5411C20.577 52.9834 20.1607 53.3287 19.6416 53.5768C19.1334 53.8141 18.5766 53.9328 17.971 53.9328C16.8249 53.9328 15.922 53.6199 15.2624 52.9942C14.6028 52.3577 14.273 51.4245 14.273 50.1946V45.2589H15.8301V50.0166C15.8301 50.8473 16.0301 51.4784 16.4302 51.91C16.8303 52.3307 17.4034 52.5411 18.1495 52.5411C18.9712 52.5411 19.62 52.293 20.0958 51.7967C20.5716 51.3004 20.8095 50.5992 20.8095 49.693V45.2589H22.3666ZM27.7961 53.9328C27.0933 53.9328 26.4175 53.8411 25.7687 53.6577C25.1199 53.4635 24.6117 53.2208 24.2441 52.9295L24.8928 51.6996C25.2713 51.9693 25.7308 52.1851 26.2715 52.3469C26.8121 52.5087 27.3582 52.5896 27.9097 52.5896C29.2722 52.5896 29.9534 52.2013 29.9534 51.4245C29.9534 51.1656 29.8615 50.9606 29.6777 50.8096C29.4938 50.6585 29.2614 50.5506 28.9802 50.4859C28.7098 50.4104 28.3206 50.3295 27.8124 50.2432C27.1203 50.1353 26.5526 50.0112 26.1093 49.871C25.6768 49.7307 25.3037 49.4934 24.9902 49.1589C24.6766 48.8245 24.5198 48.3552 24.5198 47.751C24.5198 46.9743 24.8442 46.3539 25.493 45.89C26.1417 45.4153 27.0122 45.178 28.1043 45.178C28.6774 45.178 29.2505 45.2481 29.8236 45.3884C30.3967 45.5286 30.8671 45.7174 31.2347 45.9548L30.5697 47.1846C29.8669 46.7315 29.0396 46.505 28.0881 46.505C27.4285 46.505 26.9257 46.6129 26.5797 46.8286C26.2337 47.0444 26.0606 47.3303 26.0606 47.6863C26.0606 47.9668 26.158 48.188 26.3526 48.3498C26.5472 48.5116 26.7851 48.6303 27.0663 48.7058C27.3582 48.7813 27.7637 48.8676 28.2827 48.9647C28.9748 49.0834 29.5317 49.2129 29.9534 49.3531C30.3859 49.4826 30.7535 49.7091 31.0563 50.0328C31.3591 50.3564 31.5105 50.8096 31.5105 51.3921C31.5105 52.1689 31.1753 52.7892 30.5048 53.2531C29.8453 53.7062 28.9423 53.9328 27.7961 53.9328ZM33.4565 45.2589H35.0136V53.8357H33.4565V45.2589ZM34.2351 43.6083C33.9323 43.6083 33.6782 43.5112 33.4727 43.317C33.2781 43.1228 33.1808 42.8855 33.1808 42.605C33.1808 42.3245 33.2781 42.0871 33.4727 41.8929C33.6782 41.6879 33.9323 41.5854 34.2351 41.5854C34.5378 41.5854 34.7865 41.6825 34.9811 41.8767C35.1866 42.0601 35.2893 42.2921 35.2893 42.5726C35.2893 42.8639 35.1866 43.112 34.9811 43.317C34.7865 43.5112 34.5378 43.6083 34.2351 43.6083ZM42.5764 45.178C43.6685 45.178 44.5336 45.4963 45.1716 46.1328C45.8203 46.7585 46.1447 47.6809 46.1447 48.9V53.8357H44.5877V49.078C44.5877 48.2473 44.3876 47.6216 43.9875 47.2008C43.5874 46.7801 43.0144 46.5697 42.2683 46.5697C41.4248 46.5697 40.7598 46.8178 40.2733 47.3141C39.7867 47.7996 39.5434 48.5008 39.5434 49.4178V53.8357H37.9863V45.2589H39.4785V46.5535C39.7921 46.1112 40.2138 45.7714 40.7436 45.534C41.2843 45.2967 41.8952 45.178 42.5764 45.178ZM56.8431 49.5959C56.8431 49.7145 56.8322 49.871 56.8106 50.0652H49.8362C49.9335 50.8203 50.2633 51.4299 50.8256 51.8938C51.3987 52.3469 52.107 52.5735 52.9504 52.5735C53.9776 52.5735 54.8048 52.2282 55.432 51.5378L56.2916 52.5411C55.9023 52.9942 55.4157 53.3394 54.8318 53.5768C54.2587 53.8141 53.6154 53.9328 52.9017 53.9328C51.9934 53.9328 51.1879 53.7494 50.485 53.3826C49.7822 53.005 49.2361 52.4818 48.8468 51.8129C48.4684 51.144 48.2792 50.3888 48.2792 49.5473C48.2792 48.7166 48.463 47.9668 48.8306 47.2979C49.2091 46.629 49.7227 46.1112 50.3715 45.7444C51.0311 45.3668 51.7718 45.178 52.5935 45.178C53.4153 45.178 54.1452 45.3668 54.7832 45.7444C55.432 46.1112 55.9348 46.629 56.2916 47.2979C56.6592 47.9668 56.8431 48.7328 56.8431 49.5959ZM52.5935 46.4888C51.8474 46.4888 51.2203 46.7153 50.7121 47.1685C50.2147 47.6216 49.9227 48.2149 49.8362 48.9486H55.3509C55.2644 48.2257 54.967 47.6378 54.4588 47.1846C53.9614 46.7207 53.3396 46.4888 52.5935 46.4888ZM61.4707 53.9328C60.7679 53.9328 60.0921 53.8411 59.4433 53.6577C58.7945 53.4635 58.2863 53.2208 57.9187 52.9295L58.5674 51.6996C58.9459 51.9693 59.4055 52.1851 59.9461 52.3469C60.4868 52.5087 61.0328 52.5896 61.5843 52.5896C62.9467 52.5896 63.6279 52.2013 63.6279 51.4245C63.6279 51.1656 63.536 50.9606 63.3522 50.8096C63.1684 50.6585 62.9359 50.5506 62.6548 50.4859C62.3844 50.4104 61.9952 50.3295 61.487 50.2432C60.7949 50.1353 60.2272 50.0112 59.7839 49.871C59.3514 49.7307 58.9783 49.4934 58.6648 49.1589C58.3512 48.8245 58.1944 48.3552 58.1944 47.751C58.1944 46.9743 58.5188 46.3539 59.1676 45.89C59.8163 45.4153 60.6868 45.178 61.7789 45.178C62.352 45.178 62.9251 45.2481 63.4982 45.3884C64.0713 45.5286 64.5416 45.7174 64.9093 45.9548L64.2443 47.1846C63.5414 46.7315 62.7142 46.505 61.7627 46.505C61.1031 46.505 60.6003 46.6129 60.2543 46.8286C59.9083 47.0444 59.7353 47.3303 59.7353 47.6863C59.7353 47.9668 59.8326 48.188 60.0272 48.3498C60.2218 48.5116 60.4597 48.6303 60.7409 48.7058C61.0328 48.7813 61.4383 48.8676 61.9573 48.9647C62.6494 49.0834 63.2062 49.2129 63.6279 49.3531C64.0605 49.4826 64.4281 49.7091 64.7309 50.0328C65.0336 50.3564 65.185 50.8096 65.185 51.3921C65.185 52.1689 64.8498 52.7892 64.1794 53.2531C63.5198 53.7062 62.6169 53.9328 61.4707 53.9328ZM69.5961 53.9328C68.8933 53.9328 68.2175 53.8411 67.5687 53.6577C66.9199 53.4635 66.4117 53.2208 66.0441 52.9295L66.6928 51.6996C67.0713 51.9693 67.5309 52.1851 68.0715 52.3469C68.6122 52.5087 69.1582 52.5896 69.7097 52.5896C71.0721 52.5896 71.7533 52.2013 71.7533 51.4245C71.7533 51.1656 71.6614 50.9606 71.4776 50.8096C71.2938 50.6585 71.0613 50.5506 70.7802 50.4859C70.5098 50.4104 70.1206 50.3295 69.6124 50.2432C68.9203 50.1353 68.3527 50.0112 67.9093 49.871C67.4768 49.7307 67.1037 49.4934 66.7902 49.1589C66.4766 48.8245 66.3198 48.3552 66.3198 47.751C66.3198 46.9743 66.6442 46.3539 67.293 45.89C67.9418 45.4153 68.8122 45.178 69.9043 45.178C70.4774 45.178 71.0505 45.2481 71.6236 45.3884C72.1967 45.5286 72.667 45.7174 73.0347 45.9548L72.3697 47.1846C71.6668 46.7315 70.8396 46.505 69.8881 46.505C69.2285 46.505 68.7257 46.6129 68.3797 46.8286C68.0337 47.0444 67.8607 47.3303 67.8607 47.6863C67.8607 47.9668 67.958 48.188 68.1526 48.3498C68.3472 48.5116 68.5851 48.6303 68.8663 48.7058C69.1582 48.7813 69.5637 48.8676 70.0827 48.9647C70.7748 49.0834 71.3316 49.2129 71.7533 49.3531C72.1859 49.4826 72.5535 49.7091 72.8563 50.0328C73.159 50.3564 73.3104 50.8096 73.3104 51.3921C73.3104 52.1689 72.9752 52.7892 72.3048 53.2531C71.6452 53.7062 70.7423 53.9328 69.5961 53.9328ZM84.2674 42.5079C85.738 42.5079 86.895 42.8585 87.7384 43.5597C88.5818 44.261 89.0035 45.2265 89.0035 46.4564C89.0035 47.6863 88.5818 48.6519 87.7384 49.3531C86.895 50.0544 85.738 50.405 84.2674 50.405H81.4614V53.8357H79.8395V42.5079H84.2674ZM84.2188 48.9971C85.246 48.9971 86.0299 48.7813 86.5706 48.3498C87.1112 47.9075 87.3816 47.2763 87.3816 46.4564C87.3816 45.6365 87.1112 45.0108 86.5706 44.5792C86.0299 44.1369 85.246 43.9158 84.2188 43.9158H81.4614V48.9971H84.2188ZM94.2103 45.178C95.3997 45.178 96.308 45.4693 96.9351 46.0519C97.5731 46.6344 97.8921 47.5029 97.8921 48.6573V53.8357H96.4161V52.7029C96.1566 53.1021 95.7835 53.4096 95.297 53.6253C94.8212 53.8303 94.2535 53.9328 93.5939 53.9328C92.6316 53.9328 91.8584 53.7009 91.2745 53.237C90.7014 52.7731 90.4149 52.1635 90.4149 51.4083C90.4149 50.6531 90.6906 50.049 91.2421 49.5959C91.7935 49.132 92.6694 48.9 93.8696 48.9H96.335V48.5925C96.335 47.9237 96.1404 47.4112 95.7511 47.0552C95.3618 46.6992 94.7887 46.5212 94.0318 46.5212C93.5236 46.5212 93.0262 46.6075 92.5396 46.7801C92.053 46.9419 91.6422 47.1631 91.307 47.4436L90.6582 46.2784C91.1015 45.9224 91.6313 45.6527 92.2477 45.4693C92.864 45.2751 93.5182 45.178 94.2103 45.178ZM93.8534 52.7353C94.4481 52.7353 94.9618 52.6058 95.3943 52.3469C95.8268 52.0772 96.1404 51.6996 96.335 51.2141V50.0166H93.9345C92.6153 50.0166 91.9557 50.4589 91.9557 51.3436C91.9557 51.7751 92.1233 52.115 92.4585 52.3631C92.7938 52.6112 93.2587 52.7353 93.8534 52.7353ZM102.266 46.6992C102.536 46.2029 102.936 45.8253 103.466 45.5664C103.996 45.3075 104.639 45.178 105.396 45.178V46.683C105.31 46.6722 105.191 46.6668 105.039 46.6668C104.196 46.6668 103.531 46.9203 103.044 47.4274C102.569 47.9236 102.331 48.6357 102.331 49.5635V53.8357H100.774V45.2589H102.266V46.6992ZM112.497 53.334C112.27 53.5282 111.989 53.6793 111.654 53.7872C111.319 53.8843 110.973 53.9328 110.616 53.9328C109.751 53.9328 109.08 53.7009 108.605 53.237C108.129 52.7731 107.891 52.1096 107.891 51.2465V46.5373H106.431V45.2589H107.891V43.3817H109.448V45.2589H111.913V46.5373H109.448V51.1818C109.448 51.6457 109.562 52.0017 109.789 52.2498C110.027 52.4979 110.362 52.622 110.794 52.622C111.27 52.622 111.676 52.4872 112.011 52.2174L112.497 53.334ZM118.97 45.178C120.062 45.178 120.927 45.4963 121.565 46.1328C122.214 46.7585 122.538 47.6809 122.538 48.9V53.8357H120.981V49.078C120.981 48.2473 120.781 47.6216 120.381 47.2008C119.981 46.7801 119.408 46.5697 118.662 46.5697C117.818 46.5697 117.153 46.8178 116.667 47.3141C116.18 47.7996 115.937 48.5008 115.937 49.4178V53.8357H114.38V45.2589H115.872V46.5535C116.185 46.1112 116.607 45.7714 117.137 45.534C117.678 45.2967 118.289 45.178 118.97 45.178ZM133.236 49.5959C133.236 49.7145 133.226 49.871 133.204 50.0652H126.23C126.327 50.8203 126.657 51.4299 127.219 51.8938C127.792 52.3469 128.5 52.5735 129.344 52.5735C130.371 52.5735 131.198 52.2282 131.825 51.5378L132.685 52.5411C132.296 52.9942 131.809 53.3394 131.225 53.5768C130.652 53.8141 130.009 53.9328 129.295 53.9328C128.387 53.9328 127.581 53.7494 126.878 53.3826C126.175 53.005 125.629 52.4818 125.24 51.8129C124.862 51.144 124.672 50.3888 124.672 49.5473C124.672 48.7166 124.856 47.9668 125.224 47.2979C125.602 46.629 126.116 46.1112 126.765 45.7444C127.424 45.3668 128.165 45.178 128.987 45.178C129.809 45.178 130.539 45.3668 131.176 45.7444C131.825 46.1112 132.328 46.629 132.685 47.2979C133.053 47.9668 133.236 48.7328 133.236 49.5959ZM128.987 46.4888C128.241 46.4888 127.614 46.7153 127.105 47.1685C126.608 47.6216 126.316 48.2149 126.23 48.9486H131.744C131.658 48.2257 131.36 47.6378 130.852 47.1846C130.355 46.7207 129.733 46.4888 128.987 46.4888ZM136.891 46.6992C137.161 46.2029 137.561 45.8253 138.091 45.5664C138.621 45.3075 139.264 45.178 140.021 45.178V46.683C139.934 46.6722 139.816 46.6668 139.664 46.6668C138.821 46.6668 138.156 46.9203 137.669 47.4274C137.193 47.9236 136.955 48.6357 136.955 49.5635V53.8357H135.398V45.2589H136.891V46.6992Z" fill="#192830"/>
</g>
<defs>
<linearGradient id="paint0_linear_1075_267465" x1="10.9237" y1="17.2205" x2="39.8075" y2="18.6814" gradientUnits="userSpaceOnUse">
<stop stop-color="#0064E1"/>
<stop offset="0.4" stop-color="#0064E1"/>
<stop offset="0.83" stop-color="#0073EE"/>
<stop offset="1" stop-color="#0082FB"/>
</linearGradient>
<linearGradient id="paint1_linear_1075_267465" x1="8.58991" y1="20.4252" x2="8.58991" y2="9.79141" gradientUnits="userSpaceOnUse">
<stop stop-color="#0082FB"/>
<stop offset="1" stop-color="#0064E0"/>
</linearGradient>
<clipPath id="clip0_1075_267465">
<rect width="140" height="55.6456" fill="white" transform="translate(0.602539 0.177246)"/>
</clipPath>
</defs>
</svg>
