<svg width="56" height="34" viewBox="0 0 56 34" fill="none" xmlns="http://www.w3.org/2000/svg">
<g clip-path="url(#clip0_63_43230)">
<path d="M16.9148 0C18.5367 0 20.0154 0.14272 21.3512 0.4287C22.6869 0.71441 23.8318 1.18311 24.7857 1.83319C25.7397 2.48408 26.4792 3.34932 27.0039 4.42891C27.5287 5.5085 27.7911 6.84163 27.7911 8.42884C27.7911 10.1434 27.4014 11.5719 26.6224 12.7145C25.8428 13.8573 24.6904 14.7937 23.164 15.524C25.2628 16.1273 26.829 17.1834 27.8628 18.6906C28.8956 20.1989 29.4136 22.0167 29.4136 24.1432C29.4136 25.8574 29.0797 27.3419 28.4114 28.5961C27.7439 29.8506 26.845 30.8742 25.7166 31.6668C24.5875 32.4609 23.2994 33.0477 21.8527 33.4294C20.3968 33.8111 18.8976 34.003 17.3924 34.0003H0.886719V0H16.9148ZM15.9608 13.7625C17.2966 13.7625 18.3935 13.4451 19.2524 12.8099C20.111 12.1752 20.5402 11.1432 20.5402 9.71467C20.5402 8.92134 20.3972 8.27018 20.111 7.76228C19.8248 7.25465 19.4433 6.85703 18.9662 6.57187C18.4891 6.28589 17.9405 6.08829 17.3204 5.97639C16.6826 5.86396 16.0361 5.80823 15.3884 5.80988H8.37612V13.7627H15.9608V13.7625ZM16.39 28.1907C17.1211 28.1907 17.8211 28.119 18.4888 27.9763C19.1565 27.8333 19.7447 27.5952 20.254 27.2616C20.7623 26.9289 21.1679 26.4761 21.4703 25.9044C21.7722 25.3333 21.9233 24.6032 21.9233 23.7139C21.9233 21.9686 21.43 20.7225 20.4446 19.9762C19.4585 19.2301 18.1547 18.8568 16.533 18.8568H8.37612V28.1901L16.39 28.1907ZM38.8385 27.4765C39.856 28.4615 41.3191 28.9526 43.2272 28.9526C44.5941 28.9526 45.7712 28.6121 46.7568 27.929C47.7427 27.2473 48.3471 26.5245 48.5696 25.7623H54.5324C53.5787 28.7145 52.1152 30.8261 50.1439 32.0955C48.1716 33.3656 45.7863 34.0003 42.9881 34.0003C41.0483 34.0003 39.2988 33.6908 37.7407 33.0715C36.1822 32.4528 34.8621 31.5716 33.7817 30.4288C32.7002 29.2862 31.8654 27.922 31.277 26.334C30.6884 24.747 30.3948 23.0006 30.3948 21.0958C30.3948 19.255 30.6962 17.5407 31.3011 15.9533C31.9047 14.3663 32.7631 12.9932 33.8773 11.8338C34.9897 10.6756 36.3178 9.76279 37.8604 9.09595C39.4025 8.42911 41.1119 8.0961 42.9884 8.0961C45.0874 8.0961 46.9157 8.50074 48.4746 9.3103C50.0324 10.1196 51.3126 11.2081 52.3147 12.572C53.3163 13.9373 54.0393 15.4932 54.4856 17.2385C54.9307 18.985 55.0891 20.8101 54.9627 22.7149H37.1694C37.2644 24.9049 37.8201 26.4929 38.8385 27.4765ZM46.4947 14.5242C45.684 13.6357 44.4511 13.1908 42.798 13.1908C41.7166 13.1908 40.8184 13.3738 40.103 13.7384C39.3873 14.1041 38.8146 14.5555 38.3852 15.0956C37.9563 15.6356 37.6536 16.2073 37.4792 16.8098C37.304 17.4132 37.2005 17.953 37.1689 18.429H48.1881C47.8702 16.7144 47.3059 15.4132 46.4947 14.5242ZM36.0121 1.72642H49.78V5.53715H36.0121V1.72642Z" fill="#1769FF"/>
</g>
<defs>
<clipPath id="clip0_63_43230">
<rect width="54.1316" height="34" fill="white" transform="translate(0.879395)"/>
</clipPath>
</defs>
</svg>
