<svg width="163" height="56" viewBox="0 0 163 56" fill="none" xmlns="http://www.w3.org/2000/svg">
<g clip-path="url(#clip0_63_43175)">
<rect width="162.602" height="56" fill="white"/>
<path d="M162.602 0H0V55.9266H162.602V0Z" fill="white"/>
<path d="M14.7887 0.0732422H0V55.9998H14.7887V0.0732422Z" fill="#4285F4"/>
<path d="M29.3982 48.512H26.5039V25.9326H34.1462C35.9805 25.9029 37.7549 26.587 39.0975 27.8414C39.7616 28.4527 40.2918 29.1958 40.6546 30.0236C41.0173 30.8514 41.2046 31.7458 41.2046 32.6501C41.2046 33.5544 41.0173 34.4488 40.6546 35.2766C40.2918 36.1044 39.7616 36.8475 39.0975 37.4589C37.7549 38.7132 35.9805 39.3973 34.1462 39.3677H29.3982V48.512ZM29.3982 36.5942H34.2763C34.8241 36.6151 35.3699 36.5157 35.8754 36.3029C36.381 36.0902 36.8341 35.7692 37.2031 35.3624C37.9069 34.6361 38.3006 33.6631 38.3006 32.6501C38.3006 31.6371 37.9069 30.6641 37.2031 29.9378C36.8355 29.5293 36.3826 29.2071 35.8767 28.9942C35.3709 28.7813 34.8244 28.6829 34.2763 28.7061H29.3982V36.5942Z" fill="#757575"/>
<path d="M47.9671 49.0174C46.4847 49.0588 45.0385 48.5539 43.902 47.598C43.3674 47.1353 42.9437 46.5577 42.6622 45.908C42.3807 45.2584 42.2487 44.5535 42.276 43.8457C42.2477 43.0743 42.4112 42.308 42.7519 41.6158C43.0925 40.9237 43.5996 40.3276 44.2272 39.8812C45.6321 38.895 47.3185 38.3939 49.0321 38.4537C50.4839 38.3929 51.9259 38.7194 53.211 39.3999V38.9513C53.2303 38.4376 53.1343 37.9261 52.9303 37.4545C52.7263 36.983 52.4193 36.5634 52.0321 36.2267C51.2439 35.5357 50.2248 35.1686 49.1785 35.1989C48.3766 35.1894 47.5871 35.398 46.8939 35.8026C46.2495 36.1625 45.7538 36.7408 45.4955 37.434L42.8613 36.3001C43.303 35.2586 44.034 34.3666 44.9671 33.7306C46.1813 32.8882 47.6391 32.4723 49.1134 32.5478C50.8976 32.4927 52.6378 33.1096 53.9915 34.2771C54.6528 34.9004 55.1696 35.6618 55.5054 36.5076C55.8412 37.3533 55.9877 38.2627 55.9346 39.1715V48.5117H53.1703V46.3663H53.0484C52.5106 47.2194 51.7569 47.9142 50.8643 48.3799C49.9717 48.8456 48.972 49.0656 47.9671 49.0174ZM48.4386 46.3663C49.6541 46.3583 50.8195 45.879 51.6907 45.0285C52.1495 44.6378 52.518 44.1516 52.7707 43.6036C53.0235 43.0557 53.1543 42.4591 53.1541 41.8553C52.0814 41.1044 50.7837 40.7472 49.4793 40.8438C48.3588 40.7697 47.248 41.0931 46.341 41.7574C46.0121 42.0103 45.7446 42.3347 45.5587 42.7063C45.3729 43.0779 45.2734 43.487 45.2679 43.9028C45.2613 44.2552 45.3445 44.6035 45.5095 44.9146C45.6746 45.2258 45.916 45.4896 46.211 45.6811C46.8662 46.1327 47.6437 46.3718 48.4386 46.3663Z" fill="#757575"/>
<path d="M61.9599 33.0618V35.5824H62.0818C62.4229 34.6641 63.0884 33.9035 63.9517 33.4452C64.8672 32.9286 65.9015 32.6614 66.9518 32.6703C67.2995 32.6737 67.6469 32.6955 67.9924 32.7355V35.5743C67.6062 35.5329 67.2182 35.5111 66.8298 35.509C65.5805 35.4548 64.3581 35.8841 63.4152 36.7081C62.9659 37.1328 62.6139 37.6504 62.3837 38.2251C62.1535 38.7998 62.0505 39.4178 62.0818 40.0363V48.5118H59.1875V33.0618H61.9599ZM77.7973 48.7647C77.1291 48.8421 76.4521 48.7676 75.8166 48.5466C75.181 48.3257 74.6032 47.964 74.126 47.4883C73.6488 47.0127 73.2845 46.4353 73.0601 45.7991C72.8357 45.1628 72.757 44.4841 72.8298 43.8132V35.7048H70.1306V33.0618H72.8298V28.3306H75.7242V33.0618H79.4965V35.7048H75.7242V43.5929C75.7242 45.2733 76.4152 46.1135 77.7973 46.1135C78.2496 46.1283 78.6995 46.042 79.1144 45.8606L80.1226 48.3486C79.3843 48.6466 78.5927 48.7883 77.7973 48.7647Z" fill="#757575"/>
<path d="M85.1793 33.061V35.1982H85.3012C85.7845 34.407 86.4693 33.7594 87.285 33.322C88.1653 32.8144 89.164 32.5498 90.1793 32.5552C90.992 32.5028 91.8061 32.6338 92.5617 32.9388C93.3172 33.2437 93.995 33.7147 94.5452 34.3172C95.6054 35.6572 96.1404 37.34 96.0492 39.0484V48.5109H93.1631V39.4889C93.1631 36.6339 91.8948 35.1982 89.3582 35.1982C88.7928 35.1866 88.2329 35.3108 87.7251 35.5606C87.2174 35.8103 86.7765 36.1783 86.4394 36.6339C85.687 37.5774 85.2847 38.7538 85.3012 39.9621V48.5109H82.415V33.061H85.1793Z" fill="#757575"/>
<path d="M106.423 49.0173C105.363 49.0574 104.307 48.8691 103.325 48.4653C102.343 48.0615 101.459 47.4514 100.732 46.6762C99.266 45.0757 98.4887 42.9591 98.5697 40.7866C98.5273 38.6523 99.2845 36.5797 100.692 34.9786C101.355 34.1912 102.186 33.5627 103.123 33.1393C104.059 32.7158 105.079 32.5081 106.106 32.5314C107.127 32.486 108.146 32.6622 109.093 33.0479C110.04 33.4337 110.893 34.0198 111.594 34.7665C113.032 36.4294 113.77 38.5881 113.651 40.7866V41.3168H101.456C101.469 42.7071 102.03 44.0357 103.017 45.0121C103.909 45.888 105.11 46.3747 106.358 46.3662C107.252 46.4404 108.145 46.2221 108.904 45.7442C109.663 45.2662 110.248 44.5543 110.57 43.7151L113.147 44.7918C112.634 46.0062 111.788 47.0498 110.708 47.8019C109.443 48.6488 107.943 49.0741 106.423 49.0173ZM110.57 38.9267C110.479 37.9677 110.053 37.0719 109.367 36.398C108.928 35.976 108.406 35.6512 107.835 35.4446C107.264 35.238 106.655 35.1543 106.049 35.1988C105.025 35.1776 104.028 35.5379 103.253 36.2103C102.439 36.921 101.869 37.8718 101.627 38.9267H110.57Z" fill="#757575"/>
<path d="M119.179 48.5119H116.261V33.062H119.025V35.5826H119.147C119.486 34.6954 120.129 33.9581 120.96 33.5025C121.753 32.9939 122.669 32.7119 123.61 32.6867C124.352 32.6659 125.091 32.7963 125.781 33.0701L124.684 35.7783C124.186 35.6135 123.663 35.5389 123.139 35.5581C122.614 35.5613 122.096 35.6739 121.618 35.8887C121.139 36.1036 120.71 36.416 120.358 36.8062C119.95 37.2416 119.632 37.7546 119.424 38.3149C119.216 38.8752 119.122 39.4717 119.147 40.0691L119.179 48.5119Z" fill="#757575"/>
<path d="M33.0894 20.7601C31.2552 20.7604 29.4941 20.0384 28.185 18.7493C26.876 17.4603 26.1234 15.7072 26.0894 13.8672C26.1065 12.0158 26.8516 10.246 28.1625 8.94297C29.4734 7.6399 31.2441 6.9089 33.0894 6.90898C33.965 6.89552 34.8344 7.0574 35.6469 7.38516C36.4594 7.71291 37.1985 8.19996 37.8211 8.81779L36.4959 10.1556C35.5818 9.27275 34.3581 8.78633 33.0894 8.80148C31.7929 8.85384 30.5668 9.40743 29.6679 10.3464C28.769 11.2853 28.267 12.5367 28.267 13.8386C28.267 15.1405 28.769 16.392 29.6679 17.3309C30.5668 18.2698 31.7929 18.8234 33.0894 18.8758C33.7362 18.9015 34.3813 18.7914 34.9832 18.5526C35.5852 18.3138 36.1309 17.9516 36.5853 17.489C37.1832 16.8318 37.5464 15.9939 37.6179 15.1071H33.0731V13.1656H39.439C39.5111 13.5722 39.5465 13.9845 39.5447 14.3974C39.5986 16.0276 39.0151 17.6143 37.9187 18.8187C37.2979 19.4686 36.5459 19.978 35.7131 20.3128C34.8802 20.6476 33.9857 20.8001 33.0894 20.7601Z" fill="#4285F4"/>
<path d="M49.5934 16.3147C49.5966 17.2011 49.3375 18.0686 48.849 18.8072C48.3606 19.5458 47.6646 20.1224 46.8493 20.4638C46.034 20.8053 45.136 20.8963 44.2692 20.7253C43.4023 20.5544 42.6054 20.1292 41.9796 19.5035C41.3537 18.8778 40.927 18.0799 40.7535 17.2107C40.5799 16.3416 40.6674 15.4403 41.0047 14.621C41.342 13.8018 41.9141 13.1014 42.6485 12.6086C43.3828 12.1157 44.2464 11.8527 45.1299 11.8527C45.7174 11.8428 46.3009 11.9513 46.8458 12.1719C47.3907 12.3924 47.8859 12.7205 48.3022 13.1366C48.7184 13.5527 49.0472 14.0484 49.2689 14.5943C49.4907 15.1402 49.601 15.7252 49.5934 16.3147ZM47.6421 16.3147C47.6701 15.9667 47.6258 15.6166 47.5123 15.2865C47.3987 14.9564 47.2182 14.6535 46.9822 14.3969C46.7462 14.1403 46.4598 13.9355 46.141 13.7954C45.8222 13.6553 45.4779 13.583 45.1299 13.583C44.7819 13.583 44.4376 13.6553 44.1189 13.7954C43.8001 13.9355 43.5136 14.1403 43.2776 14.3969C43.0416 14.6535 42.8611 14.9564 42.7476 15.2865C42.634 15.6166 42.5898 15.9667 42.6177 16.3147C42.5898 16.6628 42.634 17.0129 42.7476 17.3429C42.8611 17.673 43.0416 17.9759 43.2776 18.2325C43.5136 18.4892 43.8001 18.694 44.1189 18.834C44.4376 18.9741 44.7819 19.0464 45.1299 19.0464C45.4779 19.0464 45.8222 18.9741 46.141 18.834C46.4598 18.694 46.7462 18.4892 46.9822 18.2325C47.2182 17.9759 47.3987 17.673 47.5123 17.3429C47.6258 17.0129 47.6701 16.6628 47.6421 16.3147Z" fill="#EA4335"/>
<path d="M59.7154 16.3142C59.717 17.2017 59.4558 18.0696 58.9649 18.8079C58.4739 19.5461 57.7755 20.1213 56.9581 20.4606C56.1408 20.7998 55.2414 20.8877 54.3742 20.7132C53.507 20.5386 52.711 20.1095 52.0872 19.4803C51.4635 18.851 51.0402 18.05 50.871 17.1789C50.7018 16.3078 50.7944 15.406 51.137 14.5878C51.4795 13.7696 52.0567 13.0719 52.7951 12.5834C53.5336 12.0949 54.4 11.8376 55.2845 11.844C55.8703 11.8374 56.4515 11.9487 56.9936 12.1713C57.5358 12.3939 58.028 12.7233 58.4411 13.1401C58.8541 13.5568 59.1798 14.0525 59.3987 14.5977C59.6175 15.1429 59.7253 15.7266 59.7154 16.3142ZM57.7642 16.3142C57.7837 15.9717 57.7332 15.6288 57.6159 15.3065C57.4987 14.9842 57.3171 14.6894 57.0823 14.44C56.8475 14.1906 56.5644 13.9919 56.2504 13.8561C55.9364 13.7203 55.598 13.6503 55.2561 13.6503C54.9141 13.6503 54.5758 13.7203 54.2618 13.8561C53.9478 13.9919 53.6647 14.1906 53.4299 14.44C53.195 14.6894 53.0135 14.9842 52.8962 15.3065C52.7789 15.6288 52.7285 15.9717 52.7479 16.3142C52.7285 16.6568 52.7789 16.9997 52.8962 17.3219C53.0135 17.6442 53.195 17.9391 53.4299 18.1885C53.6647 18.4379 53.9478 18.6366 54.2618 18.7724C54.5758 18.9081 54.9141 18.9782 55.2561 18.9782C55.598 18.9782 55.9364 18.9081 56.2504 18.7724C56.5644 18.6366 56.8475 18.4379 57.0823 18.1885C57.3171 17.9391 57.4987 17.6442 57.6159 17.3219C57.7332 16.9997 57.7837 16.6568 57.7642 16.3142Z" fill="#FBBC05"/>
<path d="M69.3666 12.1136V20.1241C69.3666 23.387 67.4316 24.7656 65.147 24.7656C64.3032 24.7695 63.4773 24.5209 62.775 24.0516C62.0726 23.5823 61.5256 22.9135 61.2039 22.1308L62.9031 21.4211C63.0746 21.8817 63.3804 22.2799 63.7806 22.5636C64.1809 22.8473 64.657 23.0035 65.147 23.0118C66.6105 23.0118 67.521 22.0981 67.521 20.3933V19.7488H67.4804C67.187 20.0783 66.8255 20.3395 66.421 20.5142C66.0166 20.6889 65.579 20.7729 65.1389 20.7603C63.9934 20.7112 62.9111 20.22 62.1179 19.3893C61.3247 18.5587 60.8818 17.4528 60.8818 16.3024C60.8818 15.152 61.3247 14.046 62.1179 13.2154C62.9111 12.3847 63.9934 11.8936 65.1389 11.8444C65.5774 11.8325 66.0134 11.9152 66.4174 12.0869C66.8213 12.2585 67.1838 12.5152 67.4804 12.8396H67.5535V12.1136H69.3666ZM67.6511 16.3146C67.6799 15.978 67.6408 15.639 67.536 15.3179C67.4313 14.9969 67.2631 14.7003 67.0414 14.4459C66.8198 14.1916 66.5493 13.9847 66.2462 13.8376C65.943 13.6906 65.6134 13.6064 65.2771 13.5901C64.9385 13.6078 64.6067 13.6924 64.3007 13.839C63.9948 13.9856 63.7206 14.1914 63.4941 14.4445C63.2675 14.6976 63.0929 14.993 62.9803 15.3139C62.8678 15.6349 62.8194 15.9749 62.8381 16.3146C62.8217 16.6517 62.8719 16.9888 62.9857 17.3063C63.0996 17.6239 63.2749 17.9158 63.5015 18.1652C63.7282 18.4146 64.0017 18.6166 64.3065 18.7596C64.6112 18.9026 64.941 18.9837 65.2771 18.9984C65.6109 18.9851 65.9385 18.9044 66.2404 18.761C66.5422 18.6176 66.8121 18.4145 67.0339 18.1638C67.2556 17.9132 67.4245 17.6202 67.5306 17.3024C67.6367 16.9847 67.6776 16.6487 67.6511 16.3146Z" fill="#4285F4"/>
<path d="M73.2115 7.38184V20.4907H71.2603V7.38184H73.2115Z" fill="#34A853"/>
<path d="M81.1713 17.7748L82.6835 18.7618C82.2769 19.3732 81.7252 19.8736 81.0781 20.2182C80.431 20.5627 79.7088 20.7406 78.9762 20.7359C78.3954 20.7435 77.819 20.6344 77.2809 20.4149C76.7428 20.1955 76.254 19.8701 75.8433 19.458C75.4326 19.0459 75.1083 18.5555 74.8895 18.0156C74.6708 17.4757 74.562 16.8973 74.5697 16.3146C74.54 15.7427 74.6261 15.1707 74.8227 14.6331C75.0193 14.0955 75.3223 13.6034 75.7135 13.1865C76.1048 12.7696 76.5761 12.4364 77.0991 12.2072C77.6221 11.9779 78.186 11.8573 78.7567 11.8525C79.604 11.8746 80.4239 12.1582 81.1048 12.6647C81.7857 13.1712 82.2944 13.876 82.5616 14.6831L82.7648 15.1889L76.8217 17.6361C77.004 18.0526 77.307 18.4044 77.6912 18.6459C78.0754 18.8874 78.5231 19.0073 78.9762 18.9902C79.4154 18.9942 79.8482 18.8844 80.2327 18.6715C80.6173 18.4586 80.9405 18.1497 81.1713 17.7748ZM76.5046 16.1433L80.4803 14.5118C80.3288 14.2138 80.0948 13.9659 79.8064 13.7981C79.5179 13.6302 79.1873 13.5495 78.8542 13.5656C78.5281 13.5769 78.2076 13.6538 77.9116 13.7917C77.6156 13.9295 77.3502 14.1256 77.1311 14.3683C76.912 14.6109 76.7437 14.8952 76.6361 15.2043C76.5285 15.5134 76.4838 15.841 76.5046 16.1678V16.1433Z" fill="#EA4335"/>
</g>
<defs>
<clipPath id="clip0_63_43175">
<rect width="162.602" height="56" fill="white"/>
</clipPath>
</defs>
</svg>
