<svg width="121" height="34" viewBox="0 0 121 34" fill="none" xmlns="http://www.w3.org/2000/svg">
<g clip-path="url(#clip0_63_43217)">
<path d="M31.3857 -0.0200195H36.9366V34.06H31.3857V-0.0200195Z" fill="#5A5A6A"/>
<path d="M56.2441 23.26C56.2441 28.54 51.9 29.02 50.4519 29.02C47.0731 29.02 46.5904 25.9 46.5904 24.22V11.02H41.0396V23.98C41.0396 27.1 42.0049 29.98 43.9357 31.66C45.6251 33.34 47.7971 34.06 50.4519 34.06C52.3826 34.06 54.7961 33.58 56.2441 32.14V34.06H61.795V11.02H56.2441V23.26Z" fill="#5A5A6A"/>
<path d="M72.6552 2.62012H67.1043V11.0201H63.0015V16.3001H67.1043V34.0601H72.6552V16.3001H76.758V11.0201H72.6552V2.62012Z" fill="#5A5A6A"/>
<path d="M94.1349 27.1C92.9282 28.06 91.2388 28.78 89.5494 28.78C85.6879 28.78 83.0332 25.9 83.0332 22.06C83.0332 18.22 85.6879 15.58 89.5494 15.58C91.2388 15.58 92.9282 16.06 94.1349 17.26L94.8589 17.98L98.7204 14.38L97.7551 13.66C95.583 11.74 92.6869 10.54 89.5494 10.54C82.7918 10.54 77.7236 15.58 77.7236 22.3C77.7236 29.02 82.7918 34.06 89.5494 34.06C92.6869 34.06 95.583 32.86 97.7551 30.94L98.7204 30.22L94.8589 26.38L94.1349 27.1Z" fill="#5A5A6A"/>
<path d="M118.269 12.94C116.58 11.26 114.89 10.54 112.235 10.54C110.305 10.54 108.374 11.02 106.926 12.46V-0.0200195H101.375V34.06H106.926V21.34C106.926 16.06 110.546 15.58 111.994 15.58C115.373 15.58 115.132 18.7 115.132 20.38V33.82H120.682V20.62C120.682 17.5 119.958 14.62 118.269 12.94Z" fill="#5A5A6A"/>
<path d="M89.3078 26.14C91.4404 26.14 93.1692 24.4207 93.1692 22.3C93.1692 20.1792 91.4404 18.46 89.3078 18.46C87.1751 18.46 85.4463 20.1792 85.4463 22.3C85.4463 24.4207 87.1751 26.14 89.3078 26.14Z" fill="#EF4335"/>
<path d="M23.6628 25.6601C21.7321 27.5801 18.8359 28.7801 15.6985 28.7801C9.66493 28.7801 5.32077 23.9801 5.32077 17.5001C5.32077 11.0201 9.66493 6.22015 15.9398 6.22015C18.8359 6.22015 21.7321 7.42015 23.9041 9.58015L24.6282 10.3001L28.2483 6.70015L27.5243 5.98015C24.3868 2.86015 20.284 1.18015 15.9398 1.18015C6.76882 0.940145 0.0112305 8.14015 0.0112305 17.5001C0.0112305 26.8601 6.76882 34.0601 15.6985 34.0601C20.0427 34.0601 24.3868 32.3801 27.2829 29.2601L28.007 28.5402L24.3868 24.9402L23.6628 25.6601Z" fill="#5A5A6A"/>
</g>
<defs>
<clipPath id="clip0_63_43217">
<rect width="120.619" height="34" fill="white" transform="translate(0.0112305)"/>
</clipPath>
</defs>
</svg>
