<svg width="114" height="34" viewBox="0 0 114 34" fill="none" xmlns="http://www.w3.org/2000/svg">
<g clip-path="url(#clip0_63_43227)">
<path d="M31.1654 21.4729C29.3148 21.4729 27.5807 20.69 26.0052 19.4156L26.3889 17.6165L26.4056 17.5498C26.7472 15.6342 27.8309 12.4189 31.1654 12.4189C33.666 12.4189 35.7001 14.4514 35.7001 16.95C35.6916 19.4405 33.6578 21.4729 31.1654 21.4729ZM31.1654 7.82957C26.9055 7.82957 23.6047 10.5949 22.2627 15.1427C20.2119 12.0691 18.6614 8.37935 17.7529 5.27246H13.1681V17.1916C13.1681 19.5405 11.2508 21.456 8.90001 21.456C6.54924 21.456 4.63215 19.5405 4.63215 17.1916V5.27246H0.0469273V17.1916C0.0302473 22.0727 4.00654 26.0789 8.89133 26.0789C13.7763 26.0789 17.7526 22.0727 17.7526 17.1916V15.1927C18.6445 17.05 19.7364 18.924 21.062 20.59L18.2526 33.7834H22.9459L24.9797 24.2131C26.7636 25.3542 28.8144 26.0707 31.1651 26.0707C36.1916 26.0707 40.2847 21.956 40.2847 16.9334C40.2847 11.9191 36.1916 7.82957 31.1651 7.82957H31.1654Z" fill="#6FDA44"/>
<path d="M54.2807 8.34587L57.2399 20.265L60.4994 8.34587H64.3839L59.3741 25.5708H55.4894L52.4136 13.5765L49.3458 25.5623H45.4614L40.4512 8.33765H44.3358L47.5951 20.2568L50.5544 8.33765H54.2805V8.34609L54.2807 8.34587ZM73.6784 7.82943C68.6353 7.82943 64.5507 11.919 64.5507 16.9499C64.5507 21.9892 68.6435 26.0705 73.6784 26.0705C78.7218 26.0705 82.8146 21.9892 82.8146 16.9499C82.8146 11.9108 78.7218 7.82943 73.6784 7.82943ZM73.6784 22.3223C70.7109 22.3223 68.3101 19.9234 68.3101 16.9583C68.3101 13.993 70.7191 11.5943 73.6784 11.5943C76.6461 11.5943 79.0467 13.993 79.0467 16.9583C79.0467 19.9152 76.6461 22.3223 73.6784 22.3223ZM93.9097 12.2023C91.3007 12.2023 89.1917 14.3179 89.1917 16.9165V25.5623H85.2819V8.34587H89.1917V10.9945C89.1917 10.9945 90.8588 8.33743 94.2849 8.33743H95.4852V12.2023H93.9097ZM107.031 16.2837C109.806 14.7177 111.69 11.7441 111.69 8.33743H107.781C107.781 11.211 105.447 13.5432 102.571 13.5432H102.046V0.0332031H98.1362V25.5621H102.046V17.4497H102.513C102.896 17.4497 103.396 17.6997 103.621 18.0077L109.173 25.5623H113.858L107.031 16.2837Z" fill="#5A5A6A"/>
</g>
<defs>
<clipPath id="clip0_63_43227">
<rect width="113.88" height="34" fill="white"/>
</clipPath>
</defs>
</svg>
