<svg width="22" height="24" viewBox="0 0 22 24" fill="none" xmlns="http://www.w3.org/2000/svg">
<path d="M11.0002 1.41176L11.7073 0.704657C11.5198 0.517121 11.2654 0.411765 11.0002 0.411765C10.735 0.411765 10.4806 0.517121 10.2931 0.704657L11.0002 1.41176ZM19.4696 11.2953C19.8601 11.6859 20.4933 11.6859 20.8838 11.2953C21.2743 10.9048 21.2743 10.2717 20.8838 9.88113L19.4696 11.2953ZM1.11662 9.88113C0.7261 10.2717 0.7261 10.9048 1.11662 11.2953C1.50715 11.6859 2.14031 11.6859 2.53084 11.2953L1.11662 9.88113ZM12.0002 24L12.0002 1.41176L10.0002 1.41176L10.0002 24L12.0002 24ZM10.2931 2.11887L19.4696 11.2953L20.8838 9.88113L11.7073 0.704657L10.2931 2.11887ZM10.2931 0.704657L1.11662 9.88113L2.53084 11.2953L11.7073 2.11887L10.2931 0.704657Z" fill="#21AF1E"/>
</svg>
