<svg width="54" height="54" viewBox="0 0 54 54" fill="none" xmlns="http://www.w3.org/2000/svg">
<circle cx="27" cy="27" r="26" stroke="#3B3B46" stroke-width="2"/>
<path d="M22.648 22.7006C23.8389 21.5097 25.275 20.9142 26.9562 20.9142C28.6375 20.9142 30.056 21.5097 31.2119 22.7006C32.4027 23.8564 32.9982 25.275 32.9982 26.9562C32.9982 28.6375 32.4027 30.0735 31.2119 31.2644C30.056 32.4203 28.6375 32.9982 26.9562 32.9982C25.275 32.9982 23.8389 32.4203 22.648 31.2644C21.4922 30.0735 20.9142 28.6375 20.9142 26.9562C20.9142 25.275 21.4922 23.8564 22.648 22.7006ZM24.1716 29.7408C24.9422 30.5113 25.8704 30.8966 26.9562 30.8966C28.042 30.8966 28.9702 30.5113 29.7408 29.7408C30.5113 28.9702 30.8966 28.042 30.8966 26.9562C30.8966 25.8704 30.5113 24.9422 29.7408 24.1716C28.9702 23.4011 28.042 23.0158 26.9562 23.0158C25.8704 23.0158 24.9422 23.4011 24.1716 24.1716C23.4011 24.9422 23.0158 25.8704 23.0158 26.9562C23.0158 28.042 23.4011 28.9702 24.1716 29.7408ZM34.2066 19.7058C34.4868 19.951 34.6269 20.2663 34.6269 20.6515C34.6269 21.0368 34.4868 21.3696 34.2066 21.6498C33.9614 21.93 33.6462 22.0701 33.2609 22.0701C32.8756 22.0701 32.5428 21.93 32.2626 21.6498C31.9824 21.3696 31.8423 21.0368 31.8423 20.6515C31.8423 20.2663 31.9824 19.951 32.2626 19.7058C32.5428 19.4256 32.8756 19.2855 33.2609 19.2855C33.6462 19.2855 33.9614 19.4256 34.2066 19.7058ZM38.6724 22.1226C38.7074 23.0683 38.7249 24.6795 38.7249 26.9562C38.7249 29.2329 38.7074 30.8441 38.6724 31.7898C38.5673 33.9264 37.9193 35.5901 36.7284 36.781C35.5726 37.9368 33.9264 38.5498 31.7898 38.6198C30.8441 38.6899 29.2329 38.7249 26.9562 38.7249C24.6795 38.7249 23.0683 38.6899 22.1226 38.6198C19.9861 38.5148 18.3398 37.8843 17.184 36.7284C16.7286 36.3081 16.3609 35.8178 16.0807 35.2574C15.8005 34.6969 15.5903 34.154 15.4502 33.6286C15.3451 33.1033 15.2926 32.4903 15.2926 31.7898C15.2225 30.8441 15.1875 29.2329 15.1875 26.9562C15.1875 24.6795 15.2225 23.0508 15.2926 22.0701C15.3977 19.9685 16.0281 18.3398 17.184 17.184C18.3398 15.9931 19.9861 15.3451 22.1226 15.24C23.0683 15.205 24.6795 15.1875 26.9562 15.1875C29.2329 15.1875 30.8441 15.205 31.7898 15.24C33.9264 15.3451 35.5726 15.9931 36.7284 17.184C37.9193 18.3398 38.5673 19.9861 38.6724 22.1226ZM36.1505 33.8913C36.2556 33.6111 36.3432 33.2609 36.4132 32.8406C36.4833 32.3852 36.5358 31.8598 36.5708 31.2644C36.6059 30.6339 36.6234 30.1261 36.6234 29.7408C36.6234 29.3555 36.6234 28.8126 36.6234 28.1121C36.6234 27.4115 36.6234 27.0263 36.6234 26.9562C36.6234 26.8511 36.6234 26.4658 36.6234 25.8004C36.6234 25.0998 36.6234 24.5569 36.6234 24.1716C36.6234 23.7864 36.6059 23.296 36.5708 22.7006C36.5358 22.0701 36.4833 21.5447 36.4132 21.1244C36.3432 20.6691 36.2556 20.3013 36.1505 20.0211C35.7302 18.9353 34.9771 18.1822 33.8913 17.7619C33.6111 17.6568 33.2434 17.5693 32.788 17.4992C32.3677 17.4292 31.8423 17.3766 31.2119 17.3416C30.6164 17.3066 30.1261 17.2891 29.7408 17.2891C29.3905 17.2891 28.8476 17.2891 28.1121 17.2891C27.4115 17.2891 27.0263 17.2891 26.9562 17.2891C26.8862 17.2891 26.5009 17.2891 25.8004 17.2891C25.0998 17.2891 24.5569 17.2891 24.1716 17.2891C23.7864 17.2891 23.2785 17.3066 22.648 17.3416C22.0526 17.3766 21.5272 17.4292 21.0719 17.4992C20.6515 17.5693 20.3013 17.6568 20.0211 17.7619C18.9353 18.1822 18.1822 18.9353 17.7619 20.0211C17.6568 20.3013 17.5693 20.6691 17.4992 21.1244C17.4292 21.5447 17.3766 22.0701 17.3416 22.7006C17.3066 23.296 17.2891 23.7864 17.2891 24.1716C17.2891 24.5219 17.2891 25.0648 17.2891 25.8004C17.2891 26.5009 17.2891 26.8862 17.2891 26.9562C17.2891 27.0963 17.2891 27.4291 17.2891 27.9544C17.2891 28.4448 17.2891 28.8651 17.2891 29.2154C17.2891 29.5306 17.2891 29.9509 17.2891 30.4763C17.3241 31.0017 17.3591 31.457 17.3941 31.8423C17.4292 32.1926 17.4817 32.5604 17.5517 32.9456C17.6218 33.3309 17.6919 33.6462 17.7619 33.8913C18.2172 34.9771 18.9703 35.7302 20.0211 36.1505C20.3013 36.2556 20.6515 36.3432 21.0719 36.4132C21.5272 36.4833 22.0526 36.5358 22.648 36.5708C23.2785 36.6059 23.7689 36.6234 24.1191 36.6234C24.5044 36.6234 25.0473 36.6234 25.7478 36.6234C26.4834 36.6234 26.8862 36.6234 26.9562 36.6234C27.0613 36.6234 27.4466 36.6234 28.1121 36.6234C28.8126 36.6234 29.3555 36.6234 29.7408 36.6234C30.1261 36.6234 30.6164 36.6059 31.2119 36.5708C31.8423 36.5358 32.3677 36.4833 32.788 36.4132C33.2434 36.3432 33.6111 36.2556 33.8913 36.1505C34.9771 35.6952 35.7302 34.9421 36.1505 33.8913Z" fill="#3B3B46"/>
</svg>
