<svg width="54" height="54" viewBox="0 0 54 54" fill="none" xmlns="http://www.w3.org/2000/svg">
<path d="M40.4912 19.9186C40.5952 20.3244 40.6819 20.8317 40.7513 21.4404C40.8554 22.0492 40.9247 22.6579 40.9594 23.2666C40.9941 23.8415 41.0115 24.3826 41.0115 24.8899C41.0461 25.3972 41.0635 25.8199 41.0635 26.1581V26.6146C41.0635 29.6583 40.8727 31.9072 40.4912 33.3613C40.3177 33.9362 40.0056 34.4435 39.5547 34.8832C39.1038 35.3228 38.5661 35.6272 37.9418 35.7962C37.2828 35.9653 36.0341 36.1006 34.1958 36.2021C32.3575 36.2697 30.6752 36.3204 29.1491 36.3542H26.8599C20.9287 36.3542 17.2347 36.1682 15.7779 35.7962C14.4252 35.4242 13.5754 34.6126 13.2286 33.3613C13.0551 32.7188 12.9164 31.8395 12.8123 30.7235C12.743 29.5737 12.6909 28.6099 12.6562 27.8321V26.6146C12.6562 23.6048 12.847 21.3728 13.2286 19.9186C13.402 19.3099 13.7142 18.7857 14.1651 18.3461C14.616 17.9065 15.1536 17.6021 15.7779 17.433C16.4369 17.2639 17.6856 17.1455 19.5239 17.0779C21.3623 16.9765 23.0445 16.9088 24.5706 16.875H26.8599C32.791 16.875 36.485 17.061 37.9418 17.433C38.5661 17.6021 39.1038 17.9065 39.5547 18.3461C40.0056 18.7857 40.3177 19.3099 40.4912 19.9186ZM23.9463 30.7743L31.3863 26.6146L23.9463 22.5057V30.7743Z" fill="#3B3B46"/>
<circle cx="27" cy="27" r="26" stroke="#3B3B46" stroke-width="2"/>
</svg>
