<svg width="54" height="54" viewBox="0 0 54 54" fill="none" xmlns="http://www.w3.org/2000/svg">
<path d="M20.4414 38.7249H15.5553V23.0158H20.4414V38.7249ZM18.0246 20.8617C17.254 20.8617 16.5885 20.5815 16.0281 20.0211C15.4677 19.4607 15.1875 18.7952 15.1875 18.0246C15.1875 17.254 15.4677 16.5885 16.0281 16.0281C16.5885 15.4677 17.254 15.1875 18.0246 15.1875C18.515 15.1875 18.9703 15.3101 19.3906 15.5553C19.8459 15.8005 20.1962 16.1507 20.4414 16.6061C20.7216 17.0264 20.8617 17.4992 20.8617 18.0246C20.8617 18.515 20.7216 18.9878 20.4414 19.4432C20.1962 19.8635 19.8459 20.2137 19.3906 20.4939C18.9703 20.7391 18.515 20.8617 18.0246 20.8617ZM38.7249 38.7249H33.8388V31.0542C33.8388 30.4588 33.8213 29.986 33.7863 29.6357C33.7512 29.2504 33.6637 28.8301 33.5236 28.3748C33.3835 27.8844 33.1208 27.5166 32.7355 27.2714C32.3852 27.0263 31.9124 26.9037 31.3169 26.9037C30.1611 26.9037 29.373 27.2714 28.9527 28.007C28.5674 28.7425 28.3748 29.7233 28.3748 30.9492V38.7249H23.4886V23.0158H28.2171V25.1699H28.2697C28.6199 24.4694 29.1979 23.8739 30.0035 23.3836C30.8091 22.8582 31.7723 22.5955 32.8931 22.5955C34.084 22.5955 35.0647 22.7881 35.8353 23.1734C36.6409 23.5237 37.2363 24.0666 37.6216 24.8021C38.0419 25.5026 38.3221 26.2732 38.4622 27.1138C38.6374 27.9545 38.7249 28.9527 38.7249 30.1085V38.7249Z" fill="#3B3B46"/>
<circle cx="27" cy="27" r="26" stroke="#3B3B46" stroke-width="2"/>
</svg>
