<svg width="54" height="54" viewBox="0 0 54 54" fill="none" xmlns="http://www.w3.org/2000/svg">
<path d="M24.548 25.9751C27.0785 26.6399 28.3438 28.3019 28.3438 30.9612C28.3438 32.8449 27.643 34.2669 26.2415 35.2271C24.84 36.1874 23.1075 36.6676 21.0442 36.6676H11V17H20.7522C25.1514 17 27.351 18.6251 27.351 21.8753C27.351 23.759 26.4167 25.1256 24.548 25.9751ZM15.5549 20.3795V24.9778H20.1682C21.998 24.9778 22.9129 24.1837 22.9129 22.5956C22.9129 21.1182 21.8812 20.3795 19.8179 20.3795H15.5549ZM20.4018 33.3435C22.6598 33.3435 23.7888 32.4755 23.7888 30.7396C23.7888 28.856 22.6988 27.9141 20.5186 27.9141H15.5549V33.3435H20.4018ZM41.3662 19.9917H32.9571V18.0526H41.3662V19.9917ZM44.6364 29.7424C44.6364 29.9271 44.6169 30.1671 44.578 30.4626H33.7746C33.7746 31.6445 34.0861 32.5494 34.709 33.1773C35.3708 33.8052 36.2857 34.1191 37.4536 34.1191C37.8818 34.1191 38.3101 34.0452 38.7383 33.8975C39.2055 33.7498 39.6143 33.5466 39.9646 33.2881C40.354 32.9926 40.607 32.6417 40.7238 32.2355H44.3444C43.2543 35.4118 40.9185 37 37.3368 37C35.0009 37 33.1323 36.3167 31.7307 34.9501C30.3682 33.5836 29.6869 31.7922 29.6869 29.5762C29.6869 27.397 30.3876 25.6057 31.7891 24.2022C33.2296 22.7618 35.0788 22.0416 37.3368 22.0416C39.5948 22.0416 41.3662 22.7802 42.6509 24.2576C43.9745 25.735 44.6364 27.5633 44.6364 29.7424ZM33.7746 28.0249H40.4902C40.2956 25.9935 39.2055 24.9778 37.22 24.9778C36.2467 24.9778 35.4487 25.2548 34.8258 25.8089C34.2029 26.3629 33.8525 27.1016 33.7746 28.0249Z" fill="#3B3B46"/>
<circle cx="27" cy="27" r="26" stroke="#3B3B46" stroke-width="2"/>
</svg>
