<svg width="54" height="54" viewBox="0 0 54 54" fill="none" xmlns="http://www.w3.org/2000/svg">
<path d="M33.1414 28.4273H29.3646V38.7249H24.3289V28.4273H20.25V24.1519H24.3289V20.9339C24.3289 19.708 24.5807 18.666 25.0843 17.8079C25.5878 16.9497 26.2928 16.3061 27.1993 15.8771C28.1393 15.4174 29.2135 15.1875 30.4221 15.1875C30.9592 15.1875 31.53 15.2181 32.1342 15.2794C32.7385 15.3101 33.2085 15.3561 33.5442 15.4174L34.0478 15.4633V19.0951H32.0335C31.0935 19.0951 30.4053 19.3249 29.9689 19.7847C29.566 20.2137 29.3646 20.7501 29.3646 21.3937V24.1519H33.8464L33.1414 28.4273Z" fill="#3B3B46"/>
<circle cx="27" cy="27" r="26" stroke="#3B3B46" stroke-width="2"/>
</svg>
