<svg width="41" height="40" viewBox="0 0 41 40" fill="none" xmlns="http://www.w3.org/2000/svg">
<path d="M20.5 0C9.45161 0 0.5 8.95161 0.5 20C0.5 31.0484 9.45161 40 20.5 40C31.5484 40 40.5 31.0484 40.5 20C40.5 8.95161 31.5484 0 20.5 0ZM30.2581 13.7097L27.0323 29.1935C26.7903 30.3226 26.1452 30.5645 25.1774 30.0806L20.1774 26.371L17.7581 28.7097C17.5161 28.9516 17.2742 29.1935 16.7903 29.1935L17.1129 24.1129L26.3871 15.7258C26.7903 15.4032 26.3064 15.1613 25.7419 15.4839L14.2903 22.7419L9.37097 21.2097C8.32258 20.8871 8.32258 20.0806 9.6129 19.5968L28.8871 12.1774C29.7742 11.8548 30.5806 12.4194 30.2581 13.7097Z" fill="url(#paint0_linear_544_126717)"/>
<defs>
<linearGradient id="paint0_linear_544_126717" x1="14.8943" y1="-18.5171" x2="-12.4418" y2="25.6801" gradientUnits="userSpaceOnUse">
<stop stop-color="#34B0DF"/>
<stop offset="1" stop-color="#1E88D3"/>
</linearGradient>
</defs>
</svg>
