<svg width="321" height="222" viewBox="0 0 321 222" fill="none" xmlns="http://www.w3.org/2000/svg">
<g clip-path="url(#clip0_92_5928)">
<path d="M83.8467 112.253C80.7348 110.463 75.2758 109.491 69.9862 108.549C65.3388 107.72 60.9483 106.943 59.0216 105.168C57.3284 103.607 57.3868 101.136 59.1617 99.663C61.065 98.0771 65.3154 97.1511 70.2547 97.2483C74.6511 97.3353 78.3935 98.2459 80.2619 99.6937C82.0251 101.055 82.3053 103.111 82.6323 105.495L86.1472 105.127C85.785 102.492 85.3763 99.5096 82.5972 97.366C80.0809 95.422 75.6086 94.2504 70.3248 94.1481C61.5379 93.9742 57.6787 96.6037 56.7095 97.4172C53.5276 100.072 53.405 104.508 56.4468 107.311C59.1442 109.798 64.066 110.672 69.2797 111.598C74.003 112.437 79.3569 113.389 81.8966 114.852C83.654 115.86 84.1853 117.19 83.619 119.154C83.076 121.037 81.7974 122.342 79.5963 123.257C77.0157 124.332 72.7886 124.987 69.0929 124.884C65.0293 124.777 62.367 123.789 60.8548 122.986C59.1617 122.086 57.9765 120.914 57.235 119.4C56.5285 117.973 56.2775 116.377 56.0089 114.688L52.5 115.118C52.7861 116.934 53.0897 118.817 53.983 120.633C55.0164 122.725 56.7095 124.413 59.0157 125.641C61.7073 127.074 65.1519 127.887 68.982 127.989C69.2681 128 69.5541 128 69.8461 128C73.8921 128 78.2301 127.263 81.1143 126.061C84.2612 124.756 86.2581 122.684 87.0577 119.912C87.9803 116.694 86.8417 113.977 83.8467 112.253Z" fill="#3B3B46"/>
<path d="M145.296 95.0184L127.36 125.826L130.519 127.238L146.843 99.193L162.876 127.115L166.04 125.719L148.408 95.0184H145.296Z" fill="#3B3B46"/>
<path d="M247.406 94C235.863 94 226.475 101.607 226.475 110.959C226.475 120.311 235.863 127.918 247.406 127.918C258.949 127.918 268.337 120.311 268.337 110.959C268.337 101.607 258.949 94 247.406 94ZM247.406 124.813C237.819 124.813 230.019 118.597 230.019 110.959C230.019 103.321 237.819 97.1053 247.406 97.1053C256.993 97.1053 264.793 103.321 264.793 110.959C264.793 118.597 256.993 124.813 247.406 124.813Z" fill="#3B3B46"/>
<path d="M123.075 96.1653C120.477 94.6971 117.435 94.5436 113.091 94.472C108.794 94.4003 102.763 94.4361 96.9128 94.472L95.1554 94.4822V94.7277H95.103V127.449H98.7521V112.843C103.849 112.879 108.952 112.904 112.84 112.863C117.382 112.812 120.553 112.654 123.18 111.012C125.895 109.313 127.705 106.218 127.676 103.317C127.641 100.534 125.837 97.7256 123.075 96.1653ZM121.113 108.489C119.321 109.61 116.77 109.717 112.782 109.763C108.923 109.809 103.826 109.779 98.7404 109.743V97.5619C103.972 97.5312 109.203 97.5108 113.021 97.5722C117.301 97.6387 119.49 97.828 121.154 98.7693C122.941 99.7771 124.108 101.573 124.126 103.343C124.143 105.225 122.876 107.389 121.113 108.489Z" fill="#3B3B46"/>
<path d="M215.405 94.7319H215.387V95.3662L215.375 95.7602L215.387 100.257V105.782H215.405V107.46V127.453H219.054V105.782V94.7319H215.405Z" fill="#3B3B46"/>
<path d="M191.934 124.255H176.1L191.555 108.984H191.561L203.623 97.0897L203.617 94.7211H173.8H171.517H170.548V97.8315H173.8V97.8213H198.146L186.825 108.984L170.63 124.986L170.635 127.36H191.934H192.174H203.681V124.255H192.174H191.934Z" fill="#3B3B46"/>
</g>
<defs>
<clipPath id="clip0_92_5928">
<rect width="216" height="34" fill="white" transform="translate(52.5 94)"/>
</clipPath>
</defs>
</svg>
