<svg width="321" height="222" viewBox="0 0 321 222" fill="none" xmlns="http://www.w3.org/2000/svg">
<path d="M33.7608 120.035L39.08 100.647H43.4819L35.9619 126.435H31.56L26.2409 106.671L20.9219 126.435H16.52L9 100.459H13.4019L18.7209 119.847L24.04 100.459H28.4419L33.7608 120.035ZM70.4437 113.447C70.4437 120.976 64.9413 127 57.7881 127C50.635 127 45.1325 120.976 45.1325 113.447C45.1325 105.918 50.635 99.7059 57.7881 99.7059C65.1248 99.8941 70.4437 106.106 70.4437 113.447ZM66.4086 113.447C66.4086 107.988 62.5569 103.659 57.9715 103.659C53.2027 103.847 49.3511 108.176 49.3511 113.447C49.3511 118.718 53.2027 123.047 57.7881 123.047C62.5569 123.047 66.4086 118.906 66.4086 113.447ZM108.961 126.435H104.742V109.682C104.742 106.294 102.725 103.847 99.2398 103.847C95.9383 103.847 93.7373 106.294 93.7373 109.682V126.435H89.7021V109.682C89.7021 106.294 87.5012 103.847 84.1998 103.847C80.8983 103.847 78.6973 106.294 78.6973 109.682V126.435H74.4788V109.871C74.4788 104.224 78.5139 99.8941 84.1998 99.8941C87.6846 99.8941 90.2525 101.588 91.7198 104.224C93.1871 101.588 95.7548 99.8941 99.2398 99.8941C104.926 99.8941 108.961 104.224 108.961 109.871V126.435ZM138.124 118.341C136.289 123.8 132.071 127 126.202 127C119.048 127 113.363 121.165 113.363 113.447C113.363 105.918 119.048 99.8941 126.018 99.8941C132.438 99.8941 138.857 105.353 138.674 114.576H117.581C118.131 120.035 122.166 123.047 126.385 123.047C129.87 123.047 132.438 121.353 133.905 118.341H138.124ZM134.088 110.812C132.988 106.671 129.686 103.847 126.018 103.847C122.533 103.847 118.865 106.482 117.765 110.812H134.088ZM147.294 126.435H143.259V110.624C143.259 104.035 147.844 99.8941 153.714 99.8941C159.766 99.8941 164.168 104.224 164.168 110.624V126.435H160.133V110.435C160.133 106.482 157.565 103.847 153.714 103.847C149.862 103.847 147.294 106.671 147.294 110.435V126.435ZM188.379 127C182.327 127 177.741 123.612 177.191 118.153H181.409C181.96 121.165 184.894 123.047 188.379 123.047C192.231 123.047 194.615 121.165 194.615 118.906C194.615 117.024 193.881 115.706 187.829 114.953C181.775 114.012 177.925 112.506 177.925 107.612C177.925 103.847 181.042 99.8941 187.829 99.8941C193.698 99.8941 197.55 102.906 198.1 107.988H193.881C193.331 105.165 190.946 103.847 187.829 103.847C184.527 103.847 182.144 105.541 182.144 107.424C182.144 109.306 183.61 109.871 188.562 110.812C194.065 111.753 198.833 112.882 198.833 118.718C198.65 123.8 194.431 127 188.379 127ZM227.263 118.341C225.429 123.8 221.21 127 215.341 127C208.188 127 202.502 121.165 202.502 113.447C202.502 105.918 208.188 99.8941 215.158 99.8941C221.76 99.8941 227.996 105.353 227.813 114.576H206.721C207.271 120.035 211.306 123.047 215.525 123.047C219.009 123.047 221.577 121.353 223.044 118.341H227.263ZM223.227 110.812C222.127 106.671 218.825 103.847 215.158 103.847C211.673 103.847 208.004 106.482 206.904 110.812H223.227ZM243.954 127C236.983 127 231.298 120.976 231.298 113.447C231.298 105.918 236.983 99.8941 243.954 99.8941C249.639 99.8941 254.042 103.282 255.692 108.553H251.29C249.823 105.729 247.254 103.847 243.954 103.847C239.369 103.847 235.517 108.176 235.517 113.635C235.517 118.906 239.369 123.235 243.954 123.235C247.254 123.235 249.823 121.353 251.29 118.529H255.692C254.042 123.612 249.639 127 243.954 127ZM271.098 100.082V104.035C266.329 103.659 263.212 105.918 263.212 111V126.435H259.177V111C258.994 103.094 264.496 99.1412 271.098 100.082ZM296.594 118.341C294.759 123.8 290.54 127 284.671 127C277.519 127 271.833 121.165 271.833 113.447C271.833 105.918 277.519 99.8941 284.488 99.8941C290.908 99.8941 297.327 105.353 297.144 114.576H275.867C276.417 120.035 280.452 123.047 284.671 123.047C288.156 123.047 290.723 121.353 292.192 118.341H296.594ZM292.742 110.812C291.642 106.671 288.34 103.847 284.671 103.847C281.186 103.847 277.519 106.482 276.417 110.812H292.742ZM312 126.435C306.131 127.188 302.096 123.612 302.096 117.024V95H306.131V100.459H311.817V104.6H306.131V117.024C306.131 121.541 308.881 122.671 312 122.482V126.435ZM168.754 104.6V95H172.789V104.6H168.754Z" fill="#3B3B46"/>
</svg>
