<svg width="321" height="222" viewBox="0 0 321 222" fill="none" xmlns="http://www.w3.org/2000/svg">
<path fill-rule="evenodd" clip-rule="evenodd" d="M278.309 104.713L278.599 107.512L278.306 107.512L278.309 104.713ZM275.509 88.6263L271.482 88.6198L271.486 88.6053L261.703 88.6153C261.504 89.5629 261.287 90.5154 261.119 91.467C260.533 95.0415 260.008 98.6213 259.208 102.159L259.173 88.6382L249.745 88.6302L249.796 107.58L249.382 107.587L248.421 110.19L247.401 109.268L245.876 108.387C244.403 107.807 242.982 107.601 241.412 107.515L241.376 88.6205L233.516 88.6328V88.6205L226.979 88.6477C225.986 88.7396 224.989 88.7848 224.013 88.9912C223.015 89.2167 222.134 89.5391 221.217 89.9809L220.33 90.5544L219.513 91.312L218.836 92.1525L218.274 93.0523L217.797 94.0048C217.409 94.9614 217.087 95.8889 216.817 96.8796C216.557 95.6735 216.143 94.5085 215.605 93.3877C215.262 92.7774 214.913 92.2553 214.471 91.7011L213.685 90.9252C213.204 90.5452 212.745 90.2309 212.205 89.9235C211.338 89.5097 210.505 89.2467 209.564 89.0684C208.785 88.9254 208.004 88.8615 207.209 88.813L197.731 88.6127L197.87 107.634L197.458 107.642L197.219 108.299L197.095 88.6275L187.663 88.6357L187.706 95.4038C187.488 94.7231 187.243 94.1026 186.934 93.4501C186.595 92.8369 186.249 92.3134 185.809 91.7558L184.999 90.9483L184.091 90.2758L183.023 89.7101C182.147 89.3637 181.295 89.1489 180.365 89.0056C178.867 88.783 177.362 88.8034 175.848 88.8013L171.589 88.5V88.6261L156.233 88.6348L156.234 92.0165C155.454 90.9703 154.278 90.164 153.055 89.6354C151.444 88.9436 149.717 88.7176 147.964 88.6443L139.594 88.6189L139.584 92.2661L138.249 88.6178L122.31 88.6344L122.315 93.0732L120.718 88.6369L104.78 88.5649L104.69 107.449L103.752 107.446L100.319 116.53L104.647 116.549L104.572 131.675L113.214 131.697C114.738 131.633 116.201 131.432 117.629 130.91C118.494 130.586 119.237 130.161 119.986 129.633C120.939 128.82 121.757 127.937 122.351 126.851L122.356 131.738L139.48 131.725V131.726L148.909 131.745L148.954 116.5C150.046 116.466 151.16 116.297 152.213 116.038L151.996 116.623L156.248 116.618L156.254 131.742C162.035 131.739 167.819 131.733 173.597 131.749C176.047 131.749 178.601 131.875 181.005 131.439C181.936 131.263 182.763 130.977 183.602 130.571C184.141 130.257 184.597 129.94 185.076 129.554L185.839 128.785L186.263 128.26L186.911 127.267C187.273 126.54 187.67 125.788 187.893 125.012L187.935 131.741L197.366 131.73L197.272 116.713L197.936 116.711L198.043 131.837C201.188 131.776 204.33 131.757 207.472 131.735L207.47 131.607C209.021 131.542 210.539 131.27 211.968 130.693C212.516 130.424 212.986 130.147 213.48 129.804L213.962 129.414L214.726 128.64C215.69 127.432 216.395 126.111 216.822 124.649L217.084 125.592L217.815 127.319L218.493 128.395L219.225 129.238C219.676 129.656 220.108 130.004 220.619 130.351L221.661 130.899C222.469 131.215 223.27 131.432 224.123 131.568C224.991 131.706 225.862 131.76 226.737 131.789L233.672 131.776V131.74L240.669 131.714C241.887 131.655 243.078 131.516 244.244 131.179C244.792 131.01 245.308 130.815 245.828 130.589L246.785 130.064L247.996 129.113C248.73 128.359 249.363 127.588 249.848 126.667L249.861 131.713L259.286 131.729L259.261 122.207L259.273 122.218L259.27 121.415C259.892 124.012 260.329 126.649 260.791 129.279L261.222 131.728L268.847 131.71V131.731H278.282L278.296 116.611L279.538 116.612L281.102 131.715L290.778 131.722L287.526 100.571C287.186 98.1869 286.66 95.84 285.636 93.6289C285.306 92.9322 284.897 92.3154 284.434 91.6921C283.953 91.1471 283.503 90.7254 282.92 90.2801C282.109 89.7949 281.299 89.4417 280.393 89.177C279.12 88.8229 277.88 88.6871 276.559 88.6328L275.509 88.6263ZM268.879 101.73L268.871 107.505L267.64 107.505L265.892 112.18L265.754 111.924C266.224 111.029 266.586 110.103 266.914 109.158C267.737 106.723 268.349 104.234 268.879 101.73ZM267.616 116.6L268.864 116.601L268.859 121.358C268.501 119.767 268.098 118.159 267.616 116.6ZM177.374 122.619L176.563 122.653L172.782 122.641L172.086 122.531L165.888 122.535L165.884 116.613L176.979 116.705C177.39 116.756 177.9 116.746 178.238 117.001C179.017 117.859 179.082 119.287 179.038 120.366C178.953 121.021 178.84 121.878 178.342 122.385C178.087 122.556 177.677 122.582 177.374 122.619ZM165.77 107.415L165.763 97.831L175.532 97.8245L175.525 97.8059L178.158 97.9874C178.501 98.4303 178.654 99.1548 178.77 99.7053L178.938 104.299C178.868 105 178.719 105.668 178.518 106.345C178.434 106.615 178.276 107.059 178.077 107.276C177.718 107.415 177.37 107.441 176.983 107.479L165.77 107.415ZM187.826 114.471C187.522 113.576 187.134 112.714 186.62 111.91C187.112 110.951 187.518 109.965 187.791 108.933L187.826 114.471ZM215.563 111.53L215.575 112.105L215.405 111.844L215.563 111.53ZM232.013 122.773L227.721 122.782C227.357 122.755 227.021 122.738 226.666 122.654C226.097 121.334 225.912 119.926 225.674 118.528L225.193 112.3L225.225 106.829L226.416 98.4924L226.632 97.9979C227.021 97.8563 227.573 97.8595 227.959 97.8406L231.96 97.8276L231.981 107.514L231.045 107.514L227.671 116.625L232.001 116.619L232.013 122.773ZM207.684 101.001C207.864 102.731 207.779 104.572 207.293 106.249L207.24 98.7967C207.496 99.4954 207.605 100.27 207.684 101.001ZM207.894 119.782C207.875 120.336 207.822 120.817 207.699 121.363C207.627 121.577 207.544 121.902 207.406 122.088L207.373 117.428C207.747 118.203 207.85 118.933 207.894 119.782ZM241.536 121.481L241.441 121.685L241.431 117.118C242.087 118.45 241.995 120.105 241.536 121.481ZM114.074 117.102C114.723 118.441 114.62 120.095 114.151 121.471L114.052 121.678L114.074 117.102ZM139.57 97.8168L139.544 107.484L138.059 107.399L131.859 107.406L131.847 97.8242L139.57 97.8168ZM122.321 97.8409L122.331 107.517L121.468 107.52L120.642 109.747C119.673 108.834 118.357 108.21 117.044 107.903C116.095 107.688 115.103 107.535 114.124 107.5L114.17 97.8077L122.321 97.8409ZM139.505 122.52L131.986 122.53L131.98 116.606L139.521 116.601L139.505 122.52ZM148.982 106.531L149 98.9518C149.105 99.2531 149.144 99.627 149.193 99.9391C149.287 100.68 149.325 101.41 149.335 102.152C149.337 103.62 149.312 105.092 148.982 106.531Z" fill="#3B3B46"/>
<path fill-rule="evenodd" clip-rule="evenodd" d="M277.255 96.0482L277.829 96.2196C278.047 96.3152 278.253 96.4001 278.43 96.5623C278.595 96.7483 278.709 96.9413 278.829 97.1623C279.044 97.6155 279.202 98.0688 279.347 98.5505C279.815 100.262 280.054 102.023 280.253 103.782L280.837 109.44L276.307 109.435L276.322 95.9235C276.641 95.9455 276.945 95.9906 277.255 96.0482ZM275.52 90.5524L270.933 90.5448L270.91 109.429L269.088 109.43L267.129 114.674L270.907 114.676L270.89 129.805H276.287L276.301 114.682L281.378 114.688L282.94 129.791L288.556 129.794L285.551 100.924C285.519 100.692 285.485 100.462 285.45 100.234C285.286 99.153 285.052 98.093 284.777 97.0364L284.399 95.829C284.191 95.2763 283.97 94.7493 283.711 94.2152L283.445 93.7357L283.159 93.2886L282.85 92.8728L282.516 92.4933L282.155 92.1521L281.764 91.8536L281.357 91.6095L280.52 91.2419C279.907 91.023 279.305 90.8684 278.665 90.7519C277.949 90.6399 277.252 90.5814 276.528 90.5583L275.52 90.5524ZM257.281 117.725L257.27 114.74L257.857 114.778L258.227 114.876L258.555 115.029L258.856 115.24L259.137 115.512L259.401 115.843L259.646 116.228C259.82 116.56 259.976 116.883 260.122 117.228C260.869 119.124 261.329 121.119 261.743 123.105C262.195 125.327 262.567 127.565 262.96 129.798L268.541 129.785C268.386 128.967 268.232 128.151 268.076 127.334C267.434 123.993 266.742 120.665 265.79 117.394C265.504 116.452 265.195 115.528 264.842 114.609L264.429 113.649C264.146 113.071 263.853 112.478 263.446 111.97C264.382 110.57 264.918 108.948 265.42 107.372C265.807 106.072 266.148 104.772 266.464 103.459C267.069 100.845 267.58 98.2209 268.061 95.588C268.291 94.3221 268.512 93.0552 268.765 91.7912L269.037 90.534L263.387 90.5398C263.301 90.9521 263.214 91.364 263.143 91.7749C262.783 93.9787 262.451 96.1806 262.058 98.3796C261.599 100.894 261.095 103.405 260.341 105.859C260.178 106.353 260.003 106.838 259.81 107.326L259.569 107.847L259.305 108.304L259.017 108.683L258.701 108.978L258.349 109.19L257.932 109.328L257.256 109.388L257.251 107.21L257.245 107.21L257.202 90.5625L251.813 90.558L251.863 109.473L250.865 109.49L248.931 114.731L251.878 114.734L251.918 129.791L257.306 129.8L257.273 117.718L257.281 117.725ZM178.922 115.088L179.364 115.299L179.765 115.603L180.118 115.991L180.433 116.474L180.702 117.039L180.917 117.672L181.075 118.354L181.171 119.068L181.206 119.796L181.177 120.522L181.085 121.227L180.931 121.894L180.721 122.505L180.456 123.044L180.146 123.494L179.8 123.847L179.398 124.117C179.157 124.23 178.929 124.308 178.667 124.382C178.314 124.457 177.971 124.508 177.608 124.545L176.733 124.579L172.749 124.567L172.06 126.422L172.058 124.457L164.021 124.463L164.014 114.689L170.362 114.684V109.336L163.902 109.342L163.893 95.9067L172.83 95.9006L170.877 90.5524L158.403 90.5592L158.413 109.44L156.961 109.441L155.01 114.694L158.416 114.691L158.423 129.815L170.801 129.808L170.799 129.812C173.038 129.824 175.276 129.828 177.51 129.821L179.694 129.712C180.171 129.651 180.633 129.576 181.099 129.479L181.943 129.239L182.353 129.077L182.746 128.887L183.121 128.668L183.478 128.422L183.816 128.15L184.43 127.53L184.729 127.16L185.262 126.341L185.713 125.436L186.083 124.46L186.375 123.423L186.667 121.788C186.727 121.22 186.766 120.662 186.785 120.094C186.786 119.517 186.766 118.955 186.726 118.382L186.586 117.254C186.483 116.696 186.363 116.159 186.217 115.614L185.863 114.573L185.418 113.591L185.158 113.126L184.874 112.682L184.343 111.997L184.605 111.62L184.91 111.108L185.188 110.565L185.441 109.994L185.875 108.777L186.22 107.476L186.478 106.113C186.578 105.403 186.655 104.701 186.712 103.99C186.75 103.269 186.768 102.556 186.766 101.838C186.745 101.129 186.705 100.429 186.646 99.7248L186.47 98.3726C186.356 97.7305 186.223 97.1073 186.063 96.4768L185.696 95.3304L185.482 94.7982L185.245 94.2976L184.986 93.8291L184.702 93.3958L184.395 93.0058L183.771 92.3834L183.075 91.8673L182.699 91.6506L182.308 91.4619L181.901 91.3008L181.052 91.0616C180.586 90.9669 180.125 90.8937 179.649 90.834L178.6 90.7535C177.705 90.7227 176.804 90.7277 175.906 90.7274L173.743 90.574L173.748 95.8811L176.695 95.8799C177.248 95.8898 177.77 95.9232 178.312 96.0052L178.919 96.1541C179.155 96.2392 179.339 96.3146 179.547 96.4472L179.714 96.5939L180.058 97.0357L180.383 97.6654L180.665 98.4514C180.791 98.9168 180.892 99.3761 180.979 99.852C181.055 100.374 181.111 100.894 181.151 101.423C181.176 101.97 181.185 102.514 181.176 103.065C181.151 103.606 181.111 104.14 181.052 104.682L180.889 105.697C180.789 106.155 180.675 106.597 180.531 107.048L180.226 107.791L179.885 108.366L179.539 108.747L179.157 108.987L178.64 109.186L178.003 109.327L177.243 109.403L173.764 109.486L173.773 114.758L177.248 114.78L178.344 114.916L178.922 115.088ZM231.578 90.5547L227.156 90.5733L225.02 90.7714C224.591 90.8509 224.175 90.9469 223.753 91.067C223.251 91.2271 222.792 91.4123 222.321 91.6449L221.688 92.0542L221.104 92.5968L220.589 93.2372L220.135 93.9631L219.732 94.7688L219.377 95.6477L219.062 96.5946L218.786 97.6034L218.545 98.6699L218.337 99.7863L218.159 100.948L217.89 103.379L217.724 105.912C217.677 107.201 217.648 108.49 217.641 109.782C217.65 111.046 217.678 112.311 217.72 113.578C217.775 114.757 217.842 115.935 217.924 117.114C218.055 118.726 218.216 120.328 218.433 121.935C218.536 122.593 218.647 123.246 218.784 123.901L219.092 125.008L219.474 125.994L219.695 126.443L219.937 126.862L220.202 127.252L220.788 127.928L221.109 128.225L221.448 128.496L221.807 128.74L222.182 128.956L222.575 129.144L222.985 129.305L223.83 129.542C224.301 129.636 224.763 129.709 225.237 129.766C225.775 129.815 226.308 129.845 226.845 129.863L231.72 129.854L231.703 124.7L227.718 124.708L226.913 124.647C226.422 124.572 225.978 124.482 225.525 124.274L225.355 124.147L225.159 123.907L224.933 123.514L224.704 122.983L224.483 122.332L224.275 121.577L224.084 120.727L223.755 118.789L223.502 116.597L223.328 114.225C223.271 112.976 223.235 111.731 223.219 110.485C223.221 109.233 223.246 107.987 223.29 106.738L223.441 104.352L223.673 102.138L223.985 100.17L224.169 99.3033L224.372 98.5274L224.59 97.8543L224.818 97.2992L225.047 96.8764L225.255 96.6031L225.447 96.4436C225.679 96.3157 225.894 96.2291 226.142 96.1443C226.481 96.0565 226.8 95.9998 227.145 95.9562L227.978 95.915L231.6 95.9033L231.578 90.5547ZM205.81 95.8795C206.205 95.8993 206.582 95.9334 206.969 95.9899L207.574 96.1358C207.81 96.221 207.995 96.2982 208.203 96.4292L208.372 96.5746L208.719 97.0144L209.049 97.6427L209.335 98.4265C209.464 98.8921 209.569 99.3502 209.659 99.8259C209.738 100.348 209.797 100.867 209.841 101.395C209.869 101.942 209.881 102.486 209.875 103.037C209.854 103.578 209.817 104.111 209.762 104.653L209.604 105.67C209.506 106.128 209.395 106.571 209.254 107.024L208.953 107.769L208.615 108.346L208.272 108.729C207.452 109.328 206.399 109.387 205.4 109.409L205.302 95.8741L205.81 95.8795ZM206.018 114.77C206.396 114.794 206.746 114.833 207.115 114.899C207.408 114.974 207.665 115.055 207.94 115.172L208.138 115.277L208.541 115.579L208.896 115.965L209.215 116.447L209.487 117.011L209.705 117.643L209.867 118.324L209.968 119.037L210.006 119.765L209.981 120.491L209.893 121.196L209.743 121.864L209.535 122.476L209.273 123.017L208.966 123.47L208.621 123.825L208.221 124.097C207.388 124.494 206.43 124.565 205.508 124.571L205.438 114.763L206.018 114.77ZM205.542 129.824L205.542 129.722C206.199 129.717 206.852 129.71 207.506 129.682C208.024 129.647 208.532 129.598 209.043 129.531C209.501 129.453 209.939 129.361 210.384 129.246L210.8 129.111L211.206 128.947L211.596 128.755L211.971 128.535L212.326 128.288L212.663 128.014L213.278 127.391L213.575 127.019L214.104 126.199L214.549 125.296L214.913 124.323C215.069 123.801 215.199 123.288 215.312 122.759C215.407 122.207 215.482 121.663 215.536 121.11C215.572 120.54 215.588 119.981 215.586 119.414C215.562 118.845 215.518 118.286 215.455 117.721C215.371 117.161 215.267 116.62 215.139 116.069L214.823 115.012L214.416 114.007L213.917 113.067L213.629 112.625L213.095 111.946L213.354 111.568L213.655 111.054L213.931 110.509L214.405 109.34L214.786 108.076L215.079 106.74L215.287 105.351C215.361 104.634 215.414 103.926 215.447 103.21C215.461 102.492 215.455 101.781 215.43 101.064C215.386 100.363 215.323 99.6758 215.239 98.9803C215.14 98.3213 215.021 97.6773 214.879 97.0284L214.543 95.8335L214.128 94.7443L213.888 94.2447L213.627 93.7779L213.34 93.3469L213.031 92.9587L212.406 92.3416L212.066 92.0728L211.707 91.8292L211.33 91.6144L210.937 91.4268L210.11 91.1383C209.663 91.0284 209.223 90.9419 208.764 90.8706C208.251 90.8091 207.744 90.7667 207.224 90.7378L206.101 90.7189L199.867 90.5831L200.006 109.519L199.009 109.539L197.097 114.788L200.044 114.779L200.15 129.872C201.948 129.831 203.747 129.835 205.542 129.824ZM239.471 114.56C240.385 114.56 241.322 114.631 242.152 115.013L242.551 115.281L242.898 115.635L243.21 116.089L243.477 116.633L243.69 117.252L243.846 117.928L243.941 118.643L243.973 119.377L243.941 120.116L243.847 120.839L243.692 121.53L243.479 122.168L243.212 122.74L242.9 123.225L242.55 123.614L242.15 123.916C241.915 124.043 241.691 124.135 241.433 124.224C241.098 124.31 240.778 124.369 240.43 124.413C240.119 124.436 239.807 124.453 239.493 124.453L239.471 114.56ZM234.068 109.438L232.54 109.439L230.596 114.695L234.079 114.689L234.111 129.813L240.412 129.798C241.019 129.778 241.614 129.733 242.212 129.656C242.655 129.586 243.082 129.501 243.511 129.395C244.017 129.252 244.486 129.086 244.96 128.874L245.728 128.452L246.197 128.116L246.632 127.74L247.034 127.327L247.401 126.883L247.737 126.409L248.041 125.91L248.315 125.386L248.56 124.842L248.964 123.701L249.262 122.503L249.455 121.266L249.548 120.009L249.544 118.748L249.442 117.502L249.247 116.288L248.957 115.122L248.573 114.022L248.344 113.503L248.09 113.007L247.812 112.535L247.506 112.092L247.177 111.682L246.558 111.063L246.219 110.792L245.861 110.547L245.484 110.329L245.092 110.14L244.684 109.979L243.835 109.741C243.369 109.647 242.907 109.574 242.432 109.514C241.896 109.465 241.364 109.433 240.824 109.414L239.46 109.408L239.425 90.5493L234.027 90.558L234.068 109.438ZM112.751 114.551C113.145 114.575 113.52 114.612 113.907 114.673C114.208 114.738 114.479 114.813 114.764 114.918L114.958 115.008L115.354 115.277L115.699 115.633L116.007 116.089L116.27 116.635L116.479 117.255L116.631 117.931L116.72 118.646L116.748 119.381L116.71 120.119L116.612 120.842L116.452 121.532L116.235 122.17L115.963 122.74L115.647 123.224L115.295 123.611L114.893 123.91C114.658 124.036 114.434 124.125 114.174 124.212L113.534 124.351C113.1 124.403 112.672 124.432 112.23 124.431L112.277 114.54L112.751 114.551ZM106.909 109.382L105.38 109.376L103.401 114.616L106.884 114.632L106.81 129.757L113.115 129.779C113.721 129.763 114.315 129.722 114.915 129.649C115.464 129.566 115.99 129.458 116.522 129.312C116.918 129.188 117.292 129.05 117.667 128.887L118.439 128.47L118.911 128.136L119.349 127.763L119.754 127.352L120.124 126.91L120.463 126.438L120.771 125.94L121.049 125.419L121.297 124.876L121.709 123.737L122.015 122.541L122.216 121.305L122.318 120.048L122.321 118.788L122.228 117.541L122.041 116.325L121.759 115.157L121.611 114.689L124.545 114.688L124.562 129.811L138.201 129.8L138.196 124.448L130.158 124.459L130.147 114.682L138.185 114.675V114.672L141.714 114.68L141.673 129.804L147.065 129.815L147.109 114.597C147.752 114.599 148.391 114.598 149.03 114.576C149.547 114.544 150.056 114.499 150.568 114.435C151.026 114.361 151.464 114.274 151.911 114.163L152.329 114.032L152.737 113.872L153.129 113.683L153.506 113.466L153.864 113.222L154.204 112.951L154.825 112.331L155.11 111.975L155.374 111.584L155.616 111.166L156.037 110.238C156.262 109.604 156.45 108.978 156.589 108.325C156.767 107.409 156.879 106.499 156.954 105.573C157.106 103.393 157.113 101.2 156.88 99.0278C156.808 98.4451 156.717 97.8754 156.603 97.3017C156.46 96.6655 156.29 96.0671 156.068 95.453L155.796 94.8179L155.49 94.222L155.149 93.6696L154.771 93.1616L154.356 92.7009L153.904 92.2889L153.416 91.9286L152.903 91.6274C152.63 91.4946 152.356 91.3725 152.07 91.2588C151.46 91.0405 150.859 90.8858 150.217 90.7669C149.506 90.6545 148.806 90.5937 148.082 90.5701L141.777 90.5509L141.728 109.432L139.973 109.427L138.184 114.196L138.177 109.325L130.032 109.334L130.014 95.9002L138.951 95.8916L136.996 90.5452L124.52 90.5583L124.541 109.437L123.088 109.442L121.38 114.052L121.156 113.534L120.905 113.036L120.629 112.562L120.326 112.118L120 111.706L119.704 111.383L119.387 111.083L119.05 110.81L118.693 110.562L117.929 110.153L117.106 109.855C116.659 109.741 116.221 109.65 115.763 109.573C115.251 109.506 114.743 109.458 114.225 109.423C113.587 109.398 112.948 109.391 112.305 109.387L112.369 95.8741L121.401 95.9105L119.475 90.5563L106.998 90.5001L106.909 109.382ZM147.125 109.444L147.159 95.9136C147.601 95.9152 148.029 95.9452 148.464 95.9998C148.785 96.0599 149.067 96.1302 149.373 96.2338L149.83 96.4577C150.041 96.6027 150.195 96.7367 150.37 96.9224L150.68 97.3705C150.866 97.7327 151.004 98.0838 151.116 98.4747C151.523 100.06 151.532 101.739 151.503 103.364C151.464 104.606 151.393 105.853 151.084 107.068C151.002 107.352 150.897 107.623 150.778 107.898L150.485 108.394L150.167 108.747L149.819 108.985C148.98 109.374 148.051 109.444 147.125 109.444ZM189.808 90.5592L190.056 129.813L195.449 129.807L195.203 90.5547L189.808 90.5592Z" fill="#3B3B46"/>
<path fill-rule="evenodd" clip-rule="evenodd" d="M275.5 110.205L275.516 95.1291L275.728 95.131C277.009 95.1321 278.007 95.3517 278.721 95.7958C279.534 96.2782 280.153 97.9867 280.579 100.355C280.817 101.648 280.969 102.886 281.105 104.184L281.725 110.211L275.5 110.205ZM275.519 91.3227L272.912 91.3216L271.737 91.3178L271.714 110.199L269.655 110.2L268.271 113.905L271.713 113.907L271.695 129.035H275.481L275.495 113.911L282.107 113.918L283.669 129.021L287.666 129.023L284.777 101.199C284.714 100.741 284.647 100.286 284.572 99.8432C283.933 96.1405 282.805 93.2353 280.959 92.2811C279.723 91.6483 278.122 91.3261 276.142 91.3239L275.519 91.3227ZM251.437 110.251L250.068 113.962L252.681 113.965L252.721 129.041L252.735 129.041L252.759 129.04L252.764 129.04L256.497 129.032L256.462 115.854L256.468 115.859L256.461 113.97H257.425C259.04 113.966 259.971 115.012 260.602 116.336C262.07 119.408 263.024 125.51 263.64 129.026L267.576 129.017C266.614 123.922 264.785 114.229 262.423 112.003C265.324 108.757 267.315 94.5619 268.047 91.3032L264.27 91.2994L264.048 91.3019C263.739 92.6843 262.537 102.305 260.79 107.022C260.192 108.63 259.413 110.149 257.413 110.155L256.452 110.171L256.447 108.03L256.44 108.03L256.398 91.3322L252.619 91.329L252.669 110.231L251.437 110.251ZM174.576 113.991L176.821 113.999C178.097 113.999 179.093 114.224 179.813 114.657C182.712 116.409 182.777 123.227 179.809 124.782C179.087 125.161 178.062 125.346 176.739 125.349L175.913 125.347L173.316 125.339L171.937 129.048C173.805 129.057 175.641 129.052 177.504 129.05C179.036 129.052 180.301 128.91 181.295 128.632C182.296 128.355 183.137 127.821 183.807 127.04C186.733 123.671 186.845 115.396 183.298 112.037C186.838 108.086 186.703 96.8573 183.771 93.4947C183.094 92.7128 182.248 92.1832 181.254 91.9075C180.257 91.6328 178.993 91.4957 177.46 91.4989L175.874 91.4977L174.548 91.4037L174.552 95.1107L175.877 95.1098L176.702 95.1094C178.025 95.109 179.048 95.2936 179.775 95.6679C182.741 97.2179 182.705 107.762 179.807 109.518C179.088 109.957 178.094 110.181 176.817 110.182L174.57 110.236L174.576 113.991ZM230.775 91.3274L227.544 91.3375C225.564 91.346 223.964 91.6676 222.732 92.3084C216.804 95.3802 218.377 118.525 219.57 123.734C219.916 125.211 220.424 126.335 221.108 127.113C221.786 127.894 222.63 128.422 223.628 128.694C224.628 128.97 225.888 129.102 227.424 129.096L230.911 129.086L230.899 125.473L228.171 125.486C226.846 125.489 225.825 125.306 225.097 124.933C221.615 123.123 221.461 97.9308 224.976 95.8137C225.691 95.3702 226.69 95.1496 227.964 95.1444L230.791 95.1356L230.775 91.3274ZM204.49 95.1107L204.529 95.1103L205.355 95.1033C206.678 95.0948 207.703 95.2739 208.426 95.6479C211.407 97.182 211.431 107.724 208.545 109.498C207.828 109.939 206.838 110.17 205.559 110.176L204.6 110.198L204.49 95.1107ZM204.627 113.998L205.586 113.992C206.864 113.982 207.859 114.203 208.584 114.633C211.495 116.371 211.597 123.187 208.635 124.76C207.92 125.142 206.896 125.331 205.575 125.341L204.749 125.349L204.707 125.348L204.627 113.998ZM199.584 110.298L198.231 114.014L200.843 114.006L200.949 129.084L200.966 129.083L200.989 129.082L200.993 129.082L204.733 129.058L204.732 128.959L204.772 128.958L206.36 128.945C207.892 128.936 209.155 128.791 210.148 128.508C211.141 128.224 211.983 127.688 212.654 126.903C215.557 123.519 215.621 115.335 212.05 111.992C215.564 108.024 215.363 96.7947 212.41 93.4514C211.73 92.6751 210.884 92.1482 209.885 91.8785C208.886 91.6059 207.621 91.4786 206.089 91.4892L200.677 91.3712L200.816 110.273L199.584 110.298ZM238.663 113.793L239.491 113.79C240.814 113.788 241.838 113.972 242.56 114.347C245.528 115.889 245.495 122.815 242.601 124.557C241.881 124.992 240.886 125.221 239.609 125.223L238.688 125.225L238.663 113.793ZM234.833 91.327L234.874 110.208L233.108 110.209L231.735 113.923L234.882 113.918L234.914 129.041L240.027 129.032C242.005 129.028 243.604 128.707 244.841 128.066C249.627 125.591 249.802 115.887 246.555 112.174C245.88 111.392 245.035 110.86 244.037 110.588C243.037 110.312 241.778 110.177 240.24 110.178L238.656 110.18L238.627 95.1287L238.62 91.3207L234.833 91.327ZM111.475 113.763L112.305 113.77C113.624 113.773 114.649 113.965 115.37 114.343C118.326 115.904 118.245 122.826 115.339 124.555C114.614 124.983 113.622 125.205 112.342 125.201L111.42 125.197L111.475 113.763ZM107.799 91.2738L107.71 110.155L105.943 110.149L104.546 113.851L107.693 113.865L107.618 128.99L112.735 129.011C114.711 129.02 116.314 128.707 117.555 128.077C122.359 125.631 122.6 115.928 119.375 112.193C118.708 111.407 117.865 110.874 116.872 110.593C115.875 110.311 114.615 110.167 113.08 110.162L111.495 110.152L111.566 95.1007L120.269 95.1356L118.898 91.3239L107.799 91.2738ZM146.316 110.212L147.14 110.215C148.46 110.219 149.486 110.034 150.208 109.66C150.927 109.288 151.457 108.563 151.802 107.471C152.135 106.389 152.312 104.756 152.318 102.597C152.324 100.647 152.164 99.1476 151.835 98.0742C151.515 97.0041 150.987 96.243 150.264 95.809C149.548 95.3672 148.554 95.1464 147.274 95.1438L146.354 95.1392L146.316 110.212ZM146.261 129.043L142.48 129.036L142.521 113.911L139.149 113.904L140.538 110.199L142.53 110.205L142.579 91.3234L147.695 91.3344C149.673 91.3422 151.271 91.6629 152.508 92.3001C153.743 92.9387 154.678 94.0844 155.313 95.7253C155.946 97.3671 156.264 99.6568 156.255 102.601C156.249 105.029 156.073 106.986 155.738 108.459C155.393 109.932 154.887 111.058 154.203 111.839C153.526 112.621 152.68 113.149 151.683 113.423C150.686 113.696 149.423 113.833 147.888 113.83L146.305 113.823L146.261 129.043ZM125.325 91.3277L136.424 91.3164L137.816 95.1226L129.207 95.1307L129.226 110.105L137.372 110.096L137.378 113.906L129.34 113.912L129.353 125.23L137.391 125.219L137.394 129.03L125.366 129.04L125.349 113.918L122.283 113.918L123.657 110.21L125.346 110.206L125.325 91.3277ZM190.618 91.329L194.402 91.3259L194.638 129.037L190.856 129.041L190.618 91.329ZM159.208 91.3294L170.304 91.3234L171.695 95.131L163.086 95.1368L163.096 110.113L169.556 110.107V113.914L163.207 113.92L163.215 125.234L171.252 125.228L171.256 129.037L159.227 129.044L159.22 113.919L156.15 113.922L157.529 110.211L159.218 110.21L159.208 91.3294Z" fill="white"/>
<path fill-rule="evenodd" clip-rule="evenodd" d="M274.293 110.75L274.311 93.9624C275.128 93.9696 275.941 93.9659 276.76 94.0232L277.712 94.1712C278.168 94.2897 278.565 94.4239 278.996 94.6126L279.228 94.7547C279.121 94.6353 279.008 94.5209 278.879 94.4031L278.225 94.0025C277.795 93.8138 277.397 93.6797 276.941 93.5611L275.989 93.4131C275.17 93.3558 274.357 93.3595 273.54 93.3523L273.521 110.749L274.293 110.75ZM270.214 112.141L269.986 112.75L272.152 112.751L272.152 112.142L270.214 112.141ZM272.907 127.269L272.906 127.88H274.276L274.29 112.755L282.495 112.763L282.432 112.153L273.519 112.144L273.505 127.269H272.907ZM284.701 127.256L284.764 127.866L286.333 127.867L283.556 101.184C283.265 99.0944 282.839 96.9969 281.907 95.0717C281.708 94.7127 281.504 94.3853 281.258 94.0533C281.048 93.8149 280.853 93.6218 280.598 93.427C280.514 93.3769 280.428 93.33 280.342 93.2849C280.39 93.3361 280.439 93.3877 280.487 93.4432C280.733 93.7752 280.938 94.1026 281.136 94.4616C282.068 96.387 282.494 98.4841 282.786 100.574L285.562 127.257L284.701 127.256ZM264.56 127.257C264.596 127.46 264.63 127.665 264.665 127.868L266.13 127.865C265.419 124.149 264.666 120.417 263.505 116.804C263.08 115.55 262.631 114.282 261.874 113.173L260.852 112.066L261.703 111.004C262.554 109.73 263.031 108.266 263.488 106.828C264.803 102.411 265.606 97.8741 266.423 93.3511L266.588 92.4572L265.705 92.4563L265.652 92.741C264.835 97.264 264.032 101.801 262.717 106.218C262.26 107.656 261.783 109.12 260.932 110.394L260.081 111.456L261.103 112.563C261.86 113.672 262.31 114.94 262.734 116.194C263.896 119.807 264.648 123.539 265.36 127.255L264.56 127.257ZM255.246 110.724L255.243 109.26L255.237 109.26L255.194 92.4864L254.425 92.4861L254.466 108.65L254.472 108.65L254.477 110.737L255.246 110.724ZM252.001 112.199L251.776 112.808L253.118 112.81L253.116 112.201L252.001 112.199ZM253.925 127.27L253.927 127.882L255.287 127.879L255.248 113.057L255.251 113.06L255.25 112.815H257.477L258.213 112.874L258.944 113.067L259.602 113.376L259.666 113.421L259.404 113.167L258.832 112.766L258.174 112.457L257.442 112.264L256.706 112.205H254.479L254.48 112.449L254.477 112.447L254.516 127.269L253.925 127.27ZM173.875 127.287L173.648 127.898C174.933 127.898 176.215 127.899 177.496 127.895C178.44 127.886 179.342 127.834 180.269 127.681C180.604 127.611 180.921 127.533 181.244 127.432C181.717 127.245 182.072 127.037 182.46 126.724C182.697 126.503 182.893 126.283 183.092 126.036C183.485 125.473 183.76 124.925 184.015 124.298C184.168 123.863 184.297 123.437 184.412 122.995C184.589 122.179 184.697 121.394 184.754 120.566C184.772 120.056 184.773 119.556 184.754 119.048C184.696 118.206 184.585 117.414 184.401 116.592C184.278 116.134 184.142 115.697 183.979 115.253C183.752 114.714 183.506 114.233 183.19 113.738L182.708 113.125L181.711 112.103L182.64 110.969L183.356 109.765L183.944 108.231C184.173 107.432 184.346 106.648 184.487 105.828C184.61 104.951 184.691 104.087 184.737 103.201C184.761 102.314 184.746 101.44 184.696 100.552C184.625 99.7165 184.522 98.904 184.375 98.0751C184.222 97.3593 184.042 96.6779 183.8 95.9794C183.634 95.5678 183.459 95.1862 183.241 94.7921C183.056 94.5088 182.873 94.2675 182.637 94.0144C182.399 93.7934 182.173 93.6157 181.906 93.447C182.123 93.6852 182.296 93.9146 182.47 94.182C182.688 94.5763 182.863 94.9579 183.029 95.3693C183.271 96.0677 183.452 96.7492 183.604 97.4648C183.752 98.2939 183.854 99.1063 183.925 99.9415C183.976 100.83 183.99 101.704 183.967 102.591C183.92 103.477 183.839 104.341 183.716 105.218C183.575 106.038 183.402 106.822 183.173 107.621L182.585 109.155L181.869 110.359L180.94 111.493L181.937 112.514L182.419 113.128C182.735 113.622 182.981 114.104 183.209 114.643C183.371 115.087 183.507 115.524 183.63 115.982C183.814 116.804 183.925 117.596 183.984 118.438C184.002 118.946 184.001 119.446 183.984 119.956C183.926 120.783 183.819 121.569 183.641 122.385C183.527 122.827 183.397 123.253 183.244 123.688C182.989 124.315 182.714 124.863 182.322 125.426C182.122 125.673 181.926 125.892 181.689 126.114C181.301 126.427 180.946 126.634 180.473 126.822C180.15 126.923 179.834 127.001 179.498 127.071C178.571 127.224 177.669 127.276 176.726 127.285C175.776 127.288 174.827 127.288 173.875 127.287ZM175.759 93.3469L175.76 93.9543C176.252 93.9543 176.745 93.9547 177.233 93.9635C177.889 94.0012 178.494 94.0714 179.133 94.2078L179.964 94.4731L180.376 94.6611L180.457 94.7127L180.401 94.649L180.022 94.3175L179.605 94.0512L179.193 93.863L178.363 93.5977C177.724 93.4613 177.119 93.3911 176.462 93.3534C176.228 93.3491 175.995 93.348 175.759 93.3469ZM175.783 112.233L175.784 112.84C176.478 112.842 177.161 112.843 177.85 112.892L178.801 113.04C179.255 113.157 179.649 113.288 180.076 113.473L180.477 113.688L180.391 113.594L179.718 113.084L179.305 112.863C178.878 112.678 178.485 112.547 178.03 112.429L177.08 112.282C176.646 112.251 176.216 112.238 175.783 112.233ZM229.573 92.487L228.805 92.4908L228.808 93.374L227.175 93.3788C226.669 93.3924 226.185 93.427 225.68 93.4918C225.211 93.58 224.792 93.687 224.339 93.8419L223.502 94.2581L222.991 94.6826L222.559 95.2512L222.212 95.8916L221.918 96.606L221.661 97.3986C221.416 98.3396 221.224 99.2646 221.058 100.219L220.773 102.417C220.659 103.628 220.573 104.834 220.508 106.045C220.463 107.327 220.438 108.605 220.435 109.885C220.451 111.163 220.489 112.437 220.547 113.717C220.624 114.921 220.722 116.118 220.847 117.321C220.982 118.382 221.141 119.433 221.338 120.488L221.78 122.267L222.044 123.039L222.344 123.736L222.7 124.358L223.149 124.909L223.687 125.31L223.787 125.356L223.471 124.968L223.115 124.346L222.814 123.649L222.551 122.876L222.108 121.098C221.912 120.044 221.753 118.992 221.618 117.932C221.493 116.728 221.395 115.531 221.318 114.327C221.259 113.047 221.222 111.773 221.205 110.495C221.208 109.216 221.233 107.937 221.279 106.655C221.344 105.444 221.43 104.239 221.543 103.027L221.829 100.829C221.995 99.8748 222.187 98.9497 222.432 98.0087L222.689 97.2162L222.983 96.5017L223.33 95.8613L223.762 95.2927L224.273 94.8682L225.11 94.452C225.563 94.2971 225.982 94.1901 226.451 94.1019C226.956 94.0371 227.44 94.0025 227.946 93.989L229.579 93.9841L229.573 92.487ZM222.222 126.557C222.361 126.698 222.51 126.835 222.679 126.969C222.919 127.132 223.147 127.264 223.409 127.39C224.67 127.884 226.085 127.931 227.428 127.941L229.701 127.934L229.696 126.634C229.439 126.635 229.184 126.637 228.927 126.638L228.93 127.324L226.657 127.331C225.314 127.321 223.9 127.274 222.639 126.78C222.492 126.709 222.356 126.636 222.222 126.557ZM203.275 93.9675C204.144 93.9585 205.013 93.9435 205.878 93.9543C206.699 93.9958 207.422 94.0891 208.21 94.307L209.023 94.6395L209.121 94.7008L209.05 94.6214L208.668 94.2913L208.252 94.0294L207.439 93.6969C206.651 93.4788 205.928 93.3857 205.107 93.344C204.242 93.3334 203.373 93.3484 202.504 93.3574L202.631 110.771L203.397 110.753L203.275 93.9675ZM203.412 112.85C204.479 112.843 205.545 112.81 206.608 112.877L207.56 113.02C208.016 113.135 208.411 113.264 208.84 113.446L209.254 113.666L209.257 113.668L209.16 113.563L208.484 113.056L208.069 112.836C207.64 112.654 207.245 112.525 206.789 112.41L205.837 112.267C204.774 112.199 203.709 112.233 202.641 112.24L202.737 125.883C202.993 125.885 203.249 125.887 203.504 125.889L203.412 112.85ZM204.75 127.802L206.885 127.781C208.067 127.732 209.256 127.644 210.352 127.201C210.618 127.071 210.844 126.938 211.082 126.772C211.52 126.417 211.823 126.062 212.137 125.607C212.422 125.134 212.642 124.675 212.845 124.168C212.995 123.735 213.122 123.311 213.233 122.872C213.406 122.062 213.509 121.283 213.561 120.462C213.575 119.956 213.573 119.46 213.551 118.957C213.488 118.122 213.37 117.337 213.183 116.523C213.057 116.069 212.919 115.638 212.753 115.197C212.521 114.662 212.273 114.184 211.953 113.693L211.467 113.084L210.462 112.066L211.386 110.927C211.657 110.532 211.878 110.148 212.093 109.72C212.314 109.211 212.501 108.711 212.672 108.184C212.896 107.383 213.065 106.598 213.2 105.777C213.318 104.9 213.394 104.035 213.435 103.149C213.452 102.263 213.433 101.389 213.378 100.501C213.302 99.6673 213.194 98.8543 213.041 98.0268C212.885 97.3111 212.7 96.6316 212.453 95.9347C212.286 95.5239 212.108 95.1444 211.888 94.7513C211.7 94.4693 211.516 94.2282 211.28 93.9774C211.045 93.7611 210.823 93.5876 210.561 93.4232C210.773 93.6543 210.943 93.88 211.117 94.1412C211.337 94.5345 211.515 94.9137 211.683 95.3246C211.929 96.0215 212.114 96.701 212.27 97.4165C212.423 98.244 212.532 99.0574 212.607 99.8906C212.663 100.779 212.681 101.653 212.664 102.539C212.623 103.425 212.548 104.29 212.429 105.167C212.294 105.987 212.125 106.773 211.901 107.574C211.73 108.101 211.544 108.601 211.323 109.11C211.107 109.538 210.886 109.922 210.615 110.317L209.691 111.456L210.696 112.473L211.183 113.083C211.502 113.574 211.75 114.052 211.982 114.588C212.148 115.028 212.287 115.459 212.412 115.913C212.6 116.727 212.717 117.512 212.78 118.347C212.802 118.85 212.805 119.346 212.79 119.852C212.738 120.673 212.635 121.452 212.462 122.262C212.351 122.701 212.225 123.125 212.075 123.557C211.871 124.065 211.652 124.524 211.366 124.997C211.052 125.452 210.749 125.806 210.311 126.162C210.074 126.327 209.847 126.461 209.582 126.591C208.486 127.034 207.296 127.121 206.114 127.171L203.98 127.192L202.75 127.228V127.3L202.146 127.304L202.15 127.919L203.521 127.91V127.838L204.75 127.802ZM200.157 112.24L199.934 112.854L201.278 112.85L201.273 112.237L200.157 112.24ZM237.454 112.641C238.48 112.638 239.505 112.616 240.527 112.672C241.165 112.737 241.733 112.834 242.347 113.005L243.175 113.346L243.373 113.479L243.108 113.21L242.404 112.736L241.576 112.395C240.962 112.224 240.395 112.127 239.756 112.062C238.734 112.005 237.709 112.028 236.683 112.03L236.713 125.772C236.969 125.772 237.226 125.772 237.483 125.773L237.454 112.641ZM233.672 112.153L233.446 112.764L235.32 112.762L235.318 112.15L233.672 112.153ZM236.119 127.272L236.121 127.884L240.366 127.873C241.347 127.841 242.272 127.737 243.211 127.471C243.509 127.376 243.792 127.27 244.073 127.145L244.599 126.855C244.941 126.61 245.217 126.368 245.505 126.072C245.796 125.719 246.035 125.378 246.269 124.992C246.502 124.55 246.692 124.122 246.869 123.661C247.035 123.151 247.169 122.657 247.285 122.14C247.415 121.402 247.497 120.689 247.536 119.946C247.545 119.381 247.532 118.831 247.497 118.271C247.424 117.545 247.315 116.855 247.155 116.143C247.023 115.657 246.875 115.195 246.697 114.724C246.515 114.31 246.324 113.93 246.093 113.541C245.882 113.235 245.675 112.965 245.421 112.692C245.181 112.468 244.954 112.288 244.686 112.12C244.925 112.379 245.121 112.639 245.323 112.931C245.553 113.32 245.744 113.699 245.926 114.113C246.104 114.584 246.252 115.047 246.385 115.533C246.544 116.245 246.653 116.935 246.727 117.661C246.761 118.221 246.774 118.771 246.765 119.335C246.726 120.078 246.645 120.792 246.514 121.53C246.398 122.047 246.264 122.541 246.098 123.05C245.921 123.512 245.731 123.94 245.499 124.382C245.264 124.768 245.026 125.109 244.734 125.462C244.446 125.757 244.17 125.999 243.828 126.245L243.302 126.535C243.021 126.66 242.738 126.766 242.441 126.861C241.502 127.127 240.576 127.23 239.596 127.262L236.119 127.272ZM237.45 110.724L237.415 92.4783L236.645 92.4796L236.68 110.727C236.937 110.726 237.194 110.725 237.45 110.724ZM110.273 112.598C111.299 112.606 112.325 112.594 113.346 112.657C113.984 112.725 114.552 112.826 115.165 113.001L115.99 113.346L116.161 113.462L115.921 113.214L115.22 112.736L114.394 112.39C113.781 112.216 113.213 112.115 112.575 112.047C111.554 111.984 110.529 111.996 109.502 111.988L109.437 125.738L110.21 125.741L110.273 112.598ZM106.493 112.098L106.265 112.703L108.134 112.711L108.137 112.105L106.493 112.098ZM108.836 127.232L108.833 127.839L113.081 127.853C114.146 127.825 115.149 127.715 116.161 127.399C116.379 127.322 116.588 127.241 116.795 127.15C117.104 127.001 117.367 126.833 117.641 126.64C117.969 126.36 118.235 126.086 118.507 125.761C118.782 125.377 119.009 125.006 119.228 124.595C119.441 124.128 119.616 123.676 119.777 123.195C119.924 122.67 120.041 122.159 120.139 121.629C120.217 121.074 120.272 120.528 120.306 119.972L120.309 118.853C120.249 117.754 120.102 116.737 119.818 115.673C119.672 115.207 119.511 114.768 119.317 114.32L118.904 113.558C118.636 113.164 118.375 112.834 118.026 112.504C117.842 112.355 117.666 112.229 117.476 112.114C117.721 112.373 117.925 112.641 118.134 112.947L118.546 113.71C118.74 114.158 118.901 114.597 119.048 115.063C119.332 116.127 119.478 117.144 119.538 118.243L119.535 119.362C119.502 119.918 119.447 120.463 119.368 121.019C119.27 121.549 119.153 122.06 119.006 122.585C118.846 123.066 118.67 123.518 118.457 123.985C118.238 124.396 118.012 124.767 117.736 125.151C117.464 125.475 117.198 125.75 116.87 126.03C116.596 126.223 116.333 126.391 116.025 126.54C115.818 126.631 115.608 126.712 115.39 126.789C114.378 127.105 113.376 127.215 112.31 127.243L108.836 127.232ZM110.286 110.694L110.364 93.9401L118.575 93.9733L118.036 92.4758L117.484 92.4733L117.804 93.363L109.593 93.33L109.512 110.689L110.286 110.694ZM145.108 110.759L145.15 93.9774C146.205 93.9825 147.258 93.9617 148.306 94.0375L149.257 94.1861C149.716 94.3052 150.109 94.438 150.537 94.6258L150.95 94.8794L150.854 94.7672L150.513 94.4744L149.766 94.0156C149.338 93.8279 148.945 93.6951 148.486 93.5762L147.535 93.4274C146.487 93.3516 145.434 93.3724 144.38 93.3673L144.336 110.753C144.594 110.753 144.852 110.757 145.108 110.759ZM145.058 127.885L145.102 112.662L148.425 112.669C149.521 112.632 150.589 112.551 151.632 112.224C152.109 112.037 152.465 111.831 152.856 111.519C153.084 111.307 153.271 111.104 153.464 110.864C154.608 109.177 154.833 107.029 154.972 105.063C155.019 104.243 155.041 103.423 155.048 102.599C155.037 100.515 154.933 98.4096 154.281 96.4027L153.959 95.6075C153.727 95.1549 153.492 94.765 153.185 94.3505L152.591 93.7521C152.423 93.6282 152.26 93.5149 152.086 93.4101L152.414 93.7405C152.721 94.1549 152.956 94.5448 153.188 94.9974L153.51 95.7924C154.162 97.7995 154.266 99.9047 154.277 101.989C154.271 102.813 154.248 103.633 154.201 104.453C154.063 106.419 153.837 108.567 152.693 110.254C152.5 110.494 152.313 110.697 152.086 110.909C151.694 111.22 151.338 111.427 150.862 111.614C149.818 111.941 148.75 112.022 147.654 112.059L144.331 112.052L144.287 127.275L143.694 127.274L143.692 127.882L145.058 127.885ZM141.093 112.144L140.865 112.752L142.961 112.757L142.963 112.148L141.093 112.144ZM124.22 112.153L123.994 112.763H125.787L125.786 112.153H124.22ZM126.573 127.272L126.574 127.883L136.186 127.876L136.185 126.376L135.415 126.378L135.415 127.266L126.573 127.272ZM128.146 125.776L128.132 112.758L136.169 112.751L136.167 111.253L135.397 111.254L135.398 112.141L127.361 112.148L127.376 125.777L128.146 125.776ZM128.02 110.651L127.998 93.9763L136.115 93.9684L135.568 92.4723L135.021 92.4733L135.344 93.3583L127.228 93.3662L127.25 110.652L128.02 110.651ZM192.054 127.274L192.058 127.885L193.423 127.883L193.202 92.4825L192.435 92.4828L192.653 127.273L192.054 127.274ZM158.09 112.154L157.863 112.765L159.659 112.763L159.658 112.153L158.09 112.154ZM160.435 127.277L160.436 127.887L170.048 127.882L170.047 126.384L169.277 126.385L169.277 127.272L160.435 127.277ZM162.009 125.779L161.999 112.765L168.349 112.759V111.264L167.578 111.264V112.149L161.229 112.155L161.238 125.78L162.009 125.779ZM161.89 110.659L161.878 93.9821L169.995 93.9767L169.448 92.479L168.9 92.4796L169.224 93.3666L161.107 93.372L161.12 110.659L161.89 110.659Z" fill="#3B3B46"/>
<path fill-rule="evenodd" clip-rule="evenodd" d="M83.5328 95.1336L84.8106 96.6099L85.9576 98.3333L86.8962 100.171L87.3325 101.217L88.0327 103.301L88.5548 105.47L88.9007 107.706L89.0732 109.981L89.0729 112.268L88.8989 114.541L88.5534 116.775L88.0316 118.946L87.311 121.087L86.4615 122.986L85.4049 124.796L84.1244 126.485L82.6849 127.884L81.5607 128.7L80.4288 129.38L79.1936 130.003L77.8645 130.573L76.4446 131.092L74.9436 131.558L71.6988 132.347L68.3418 132.917L64.7004 133.308L61.0039 133.5L57.2743 133.498L53.5792 133.301L49.9399 132.907L46.5888 132.335L44.9146 131.96L43.3437 131.543L41.8489 131.076L40.4338 130.561L39.1053 129.992L37.8757 129.369L36.7478 128.693L35.7325 127.957L34.7835 127.11L33.5049 125.634L32.359 123.91L31.4209 122.079L30.6089 119.99L30.0007 117.865L29.5665 115.661L29.3069 113.401L29.2217 111.118L29.3083 108.833L29.5684 106.575L30.0031 104.37L30.6121 102.245L31.4244 100.159L32.3617 98.3293L33.5054 96.6085L34.7824 95.1341L35.7368 94.2811L36.7551 93.5435L37.8865 92.8623L39.1233 92.2382L40.4515 91.6697L41.8704 91.1509L43.4287 90.6672L46.5612 89.905L49.9744 89.3254L53.6162 88.9341L57.3123 88.7422L61.041 88.7443L64.7366 88.9411L68.3746 89.3359L71.7838 89.9165L74.9144 90.6809L76.4666 91.1643L77.8825 91.6808L79.211 92.2503L80.4416 92.8722L81.5703 93.5505L82.5843 94.287L83.5328 95.1336Z" fill="#3B3B46"/>
<path fill-rule="evenodd" clip-rule="evenodd" d="M81.4667 96.8754L82.5649 98.1421L83.563 99.6398L84.3967 101.27L84.7718 102.168L85.4051 104.049L85.8757 106.002L86.1889 108.023L86.3455 110.086L86.3452 112.162L86.1871 114.223L85.8741 116.244L85.4041 118.197L84.7576 120.115L84.006 121.792L83.0803 123.376L81.9774 124.829L80.7584 126.011L79.8226 126.689L78.8415 127.278L77.7492 127.829L76.5559 128.339L75.2676 128.809L73.8937 129.235L72.4457 129.617L70.9054 129.961L67.7675 130.493L64.3591 130.858L60.8918 131.038L57.3907 131.036L53.9246 130.852L50.518 130.483L47.385 129.949L45.845 129.605L44.3977 129.222L43.0282 128.795L41.7433 128.327L40.5518 127.818L39.4643 127.268L38.4863 126.682L37.6292 126.062L36.8503 125.368L35.7518 124.102L34.7542 122.603L33.9295 120.996L33.2042 119.133L32.6576 117.226L32.2651 115.237L32.0297 113.19L31.9521 111.119L32.031 109.045L32.2669 106.999L32.6597 105.01L33.207 103.103L33.9326 101.243L34.7568 99.6361L35.7523 98.1406L36.8495 96.8757L37.6335 96.1763L38.4943 95.5536L39.4751 94.9639L40.5682 94.413L41.7608 93.9034L43.0486 93.4333L44.4629 92.995L47.3719 92.2881L50.55 91.7494L53.9583 91.3836L57.4254 91.2039L60.9255 91.206L64.3921 91.3903L67.7976 91.7591L70.9719 92.2989L73.8788 93.0078L75.2882 93.4459L76.5734 93.9142L77.7654 94.4244L78.8537 94.9734L79.8314 95.5601L80.688 96.1815L81.4667 96.8754ZM80.5477 97.7807L81.5383 98.9234L82.4501 100.292L83.2274 101.811L83.5658 102.621L84.1665 104.405L84.6113 106.251L84.9085 108.17L85.0577 110.135L85.0574 112.112L84.9067 114.075L84.6095 115.994L84.1655 117.84L83.5568 119.645L82.8591 121.203L82.0076 122.66L81.0105 123.973L79.9277 125.024L79.1117 125.615L78.2193 126.15L77.2052 126.661L76.0815 127.142L74.8557 127.589L73.5383 127.998L72.1407 128.366L70.6571 128.698L67.5911 129.218L64.2571 129.575L60.8588 129.751L57.4252 129.749L54.0281 129.569L50.6957 129.208L47.6341 128.686L46.1507 128.355L44.7547 127.985L43.4404 127.575L42.2172 127.13L41.0963 126.651L40.0866 126.141L39.1965 125.607L38.4374 125.058L37.769 124.463L36.7787 123.321L35.8669 121.951L35.1055 120.468L34.4258 118.722L33.9107 116.924L33.5385 115.038L33.3147 113.093L33.241 111.119L33.316 109.143L33.5403 107.198L33.9125 105.312L34.4284 103.515L35.1086 101.771L35.8695 100.288L36.7792 98.9218L37.7685 97.781L38.442 97.1802L39.2052 96.6283L40.0979 96.0916L41.112 95.5804L42.2352 95.1003L43.4605 94.6532L44.806 94.2362L47.632 93.5494L50.7267 93.0248L54.0606 92.667L57.4584 92.491L60.891 92.493L64.2885 92.6737L67.6202 93.0346L70.711 93.56L73.5347 94.2488L74.8761 94.6658L76.099 95.1111L77.2212 95.5915L78.2311 96.1011L79.1202 96.6348L79.8793 97.1851L80.5477 97.7807Z" fill="white"/>
<path fill-rule="evenodd" clip-rule="evenodd" d="M64.4997 120.278L64.5942 120.049L64.6295 119.841L64.6377 119.573L64.6202 119.211L64.7977 119.227L64.9801 119.004L65.1361 118.747L65.2012 118.514L65.1212 118.267L64.7969 118.238L65.0386 118.078L65.2543 117.769L65.3496 117.539L65.3606 117.149L65.55 116.776L65.7344 116.524L65.6872 116.16L65.394 116.073L65.4307 115.838L65.5045 115.364L65.457 114.972L65.6725 114.691L65.6773 114.512L65.6233 114.356L65.4811 114.194L65.2752 114.145L65.3445 113.853L65.2908 113.637L65.0618 113.437L64.768 113.352L65.0423 113.077L65.2014 112.73L65.1794 112.428L65.7584 111.912L65.8534 111.651L65.8293 111.469L65.6006 111.269L65.8093 111.167L65.9659 110.852L66.008 110.496L66.016 110.197L65.9679 109.863L65.5336 109.554C65.4188 109.609 65.3072 109.662 65.1986 109.713L65.202 109.714L62.3833 119.871L62.2267 120.717L62.223 121.474L61.7133 121.366L61.3028 122.894L60.8456 122.756L60.3754 123.418L60.0842 123.331L59.7122 123.395L59.1592 124.212L59.0125 123.898L58.5137 123.747L58.0088 123.995L57.4134 124.62L57.0377 124.328L56.7468 124.239L56.4592 124.511L56.2217 124.751L55.9517 124.579L55.6512 124.532L55.3821 124.54L55.0208 124.744L54.7971 124.006L54.3595 123.784L53.9428 123.657L53.4358 123.548L52.9286 123.618L52.692 123.859L52.5232 123.451L52.2838 123.333L51.8812 123.346L50.9016 123.897L50.4953 123.73L49.946 123.787L49.4413 124.035L49.4577 123.595L49.2886 123.185L49.0181 123.013L48.5821 122.971L48.611 122.666L48.4532 122.396L48.2644 122.25L48.0147 122.173L47.5301 122.338L47.0105 122.092L46.3249 121.974L45.9828 121.914L46.0004 121.473L45.5206 121.239L45.0866 121.375L44.4878 121.462L43.9461 121.297L43.5845 121.324L43.0567 121.476L42.7276 121.734L42.8376 121.273L42.5354 121.05L42.1834 121.032L41.759 121.126L41.3666 121.276L41.3064 121.526L40.8181 121.333L40.4444 121.219L40.143 121.173L39.7803 121.197L40.0336 120.945L40.1894 120.691L40.3409 120.341L40.5037 119.853L40.7404 119.97L41.1102 119.774L41.4571 119.521L41.6711 119.247L41.6881 118.878L41.253 118.665L41.6702 118.585L42.1299 118.293L42.3816 118.04L42.6001 117.532L43.0544 117.143L43.442 116.909L43.5656 116.403L43.2045 116.13L43.3796 115.839L43.7262 115.255L43.8661 114.707L44.3108 114.456L44.4109 114.222L44.4157 113.989L44.3038 113.696L44.0456 113.521L44.2924 113.17L44.3312 112.858L44.1183 112.47L43.759 112.198L44.2803 111.983L44.6798 111.612L44.807 111.203L45.8745 110.833L46.1434 110.54L46.2042 110.287L45.9893 109.898L46.3328 109.877L46.7139 109.547L46.9557 109.1L47.1244 108.709L47.2288 108.242L46.7908 107.6L47.1841 107.463L47.3625 107.269L47.5203 107.016L47.5595 106.704L47.9011 106.684L48.3003 106.644L48.4176 106.372L48.4286 105.903L49.3036 105.865L49.8261 105.649L50.0274 105.182L49.8767 104.871L50.8747 104.985L51.1662 104.751L51.2841 104.479L52.1085 104.555L52.2925 104.127L53.7649 104.805L54.005 104.357L54.6069 104.844L55.3753 105.27L64.7564 109.513C65.1017 109.34 65.4663 109.164 65.846 108.987L65.8466 108.984L65.7946 108.769L66.0035 108.669L66.2424 108.54L66.2503 108.331L66.1423 108.021L66.6809 107.77L66.9551 107.496L66.9642 107.137L66.794 106.973L67.4476 106.79L67.5737 106.564L67.5794 106.353L68.1151 106.192L68.1267 105.864L69.2175 105.933L69.2556 105.576L69.7538 105.74L70.3421 105.823L72.6581 105.95C74.0443 105.231 76.172 103.975 77.7968 102.964C78.4553 102.555 79.015 102.177 79.4292 101.9C76.1195 102.599 72.4484 102.958 69.1979 102.531L66.07 106.268L65.8378 106.601L65.6925 106.928L65.4839 106.782L65.0066 107.359L64.8254 107.209L64.4864 107.403L64.3719 107.307L64.191 107.262L63.7856 107.505L63.7774 107.341L63.5809 107.178L63.3038 107.187L62.9174 107.339L62.8015 107.139L62.6861 107.044L62.5043 107.103L62.3516 107.16L62.2612 107.034L62.1339 106.955L62.0104 106.906L61.8077 106.922L61.8464 106.559L61.6898 106.378L61.5261 106.242L61.3152 106.095L61.0726 106.026L60.92 106.082V105.873L60.8346 105.777L60.6491 105.703L60.0995 105.748L59.9474 105.595L59.6887 105.512L59.4114 105.52L59.503 105.334L59.5035 105.124L59.4142 104.996L59.2242 104.893L59.2946 104.767L59.2745 104.618L59.2171 104.518L59.1185 104.437L58.8674 104.413L58.678 104.205L58.3893 104.019L58.2457 103.928L58.3373 103.74L58.164 103.545L57.9415 103.518L57.6529 103.438L57.4394 103.26L57.2712 103.2L57.0023 103.162L56.8047 103.209L56.9407 103.033L56.8463 102.877L56.6911 102.799L56.4802 102.758L56.2743 102.744L56.1994 102.839L56.0134 102.662L55.8655 102.538L55.7383 102.459L55.5689 102.398L55.7321 102.339L55.8508 102.261L55.9865 102.14L56.1522 101.961L56.2379 102.058L56.442 102.047L56.6475 102.005L56.7954 101.93L56.874 101.773L56.7185 101.596L56.9212 101.644L57.1853 101.608L57.3475 101.55L57.5415 101.372L57.8225 101.294L58.0413 101.27L58.1937 101.076L58.0829 100.887L58.2166 100.795L58.4849 100.611L58.6517 100.404L58.9011 100.382L58.9896 100.301L59.0368 100.202L59.0413 100.055L58.9579 99.9277L59.1357 99.8247L59.2126 99.6987L59.1903 99.4878L59.0789 99.3011L59.3557 99.3111L59.6059 99.2287L59.7416 99.0786L60.2949 99.127L60.4719 99.054L60.549 98.9583L60.5253 98.7476L60.6845 98.8062L60.92 98.7381L61.1156 98.5933L61.2652 98.4578L61.4011 98.2776L61.3237 97.9134L61.5278 97.9326L61.6465 97.8839L61.765 97.8061L61.8425 97.6787L62.0005 97.7363L62.1896 97.7983L62.2948 97.7048L62.3884 97.5054L62.7921 97.6585L63.07 97.6691L63.2496 97.5076L63.2399 97.3431L63.67 97.5889L63.8472 97.5454L63.9532 97.451L64.3123 97.6461L64.4771 97.4983L65.0157 98.0798L65.2077 97.9331L65.3897 98.2608L65.6578 98.596L69.1439 102.307C72.2728 102.712 76.4788 102.329 80.4043 101.303L80.4168 101.341L80.447 101.434L80.4575 101.466L80.5024 101.659C80.4385 101.674 80.3743 101.689 80.3102 101.704C79.7764 102.216 77.7725 103.481 75.0409 104.875C74.3451 105.23 73.6205 105.596 72.8883 105.963L77.269 106.202C78.2345 105.039 79.535 103.597 80.6712 102.381L80.7888 102.885C80.6294 103.046 80.4645 103.214 80.2929 103.389C79.3362 104.364 78.3382 105.423 77.5955 106.22L77.6049 106.221L78.3495 113.611L78.4592 114.206L78.6444 114.705L78.2986 114.764L78.4188 115.873L78.0979 115.898L77.9667 116.455L77.7606 116.471L77.5446 116.609L77.4004 117.286L77.2308 117.12L76.88 117.147L76.6241 117.441L76.4056 118.003L76.0974 117.908L75.8936 117.923L75.7808 118.175L75.6911 118.394L75.4797 118.351L75.2792 118.398L75.113 118.472L74.9357 118.698L74.6137 118.271L74.2838 118.237L73.992 118.261L73.6459 118.319L73.3454 118.496L73.2572 118.715L73.0497 118.49L72.8702 118.474L72.6185 118.585L72.1416 119.198L71.8465 119.193L71.516 119.37L71.2618 119.663L71.1617 119.37L70.9547 119.144L70.7419 119.102L70.458 119.185L70.4003 118.978L70.235 118.841L70.0809 118.793L69.9059 118.807L69.6427 119.041L69.2545 119.011L68.7962 119.11L68.5678 119.16L68.4674 118.865L68.1103 118.833L67.8717 119.035L67.5166 119.245L67.1378 119.276L66.9164 119.385L66.6221 119.621L66.481 119.875L66.4355 119.545L66.1904 119.475L65.9653 119.554L65.7219 119.725L65.5133 119.922L65.5376 120.102L65.1828 120.101L64.9193 120.123L64.7191 120.169L64.4997 120.278Z" fill="white"/>
<path fill-rule="evenodd" clip-rule="evenodd" d="M47.8599 108.122L47.6549 107.821L47.8334 107.627L48.063 107.259L48.7042 107.195L49.0042 106.499L49.0046 106.467L49.434 106.448L50.2713 106.1L50.5157 105.536L51.0512 105.596L51.6488 105.12L51.6553 105.104L52.482 105.181L52.5961 104.914L54.0227 105.572L54.1887 105.262L54.2768 105.333L55.1114 105.796L63.7613 109.708L63.573 109.792L64.4864 110.097L61.8088 119.739L61.6382 120.661L61.6377 120.747L61.2895 120.672L60.8917 122.155L60.6094 122.07L60.1411 122.732L60.122 122.726L59.364 122.858L59.0659 123.299L58.4631 123.116L57.655 123.513L57.3545 123.829L57.3142 123.797L56.5918 123.577L56.13 124.011L55.6886 123.942L55.3965 123.951L55.289 123.596L54.58 123.234L54.0918 123.088L53.4599 122.951L52.9777 123.018L52.4115 122.74L51.7193 122.762L50.8611 123.244L50.581 123.13L49.931 123.197L49.7622 122.789L49.2151 122.441L49.1604 122.436L48.9036 122L48.5401 121.718L48.0059 121.555L47.5669 121.704L47.1894 121.527L46.5913 121.423L46.6034 121.111L45.5671 120.607L44.9551 120.801L44.535 120.861L44.0144 120.702L43.4807 120.742L43.2132 120.818L42.7421 120.471L42.1352 120.441L41.589 120.561L41.0201 120.779L40.8193 120.718L40.888 120.559L41.4239 120.274L41.8704 119.947L42.2516 119.463L42.2775 118.895L42.5015 118.753L42.8784 118.376L43.0875 117.89L43.4005 117.622L43.9569 117.287L44.229 116.166L43.9805 115.979L44.2759 115.482L44.3741 115.097L44.7747 114.871L44.9978 114.347L45.007 113.887L44.8313 113.427L44.8587 113.388L44.9394 112.742L44.7326 112.366L45.1948 111.937L45.2806 111.663L46.2088 111.34L46.6817 110.825L46.8232 110.231L47.1802 109.921L47.4871 109.357L47.6888 108.892L47.8599 108.122ZM66.979 118.699L66.5993 118.884L66.5116 118.955L66.1722 118.858L65.6942 119.025L65.627 119.072L65.6812 118.983L65.8157 118.5L65.7035 118.154L65.774 118.052L65.9344 117.664L65.946 117.297L66.0535 117.085L66.3493 116.681L66.2232 115.703L66.0554 115.654L66.0985 115.374L66.0707 115.139L66.2571 114.897L66.2682 114.422L66.143 114.055L65.946 113.831L65.8171 113.315L65.6488 113.168L65.7999 112.838L65.7879 112.674L66.2617 112.252L66.4564 111.718L66.4027 111.297L66.5385 111.024L66.5969 110.54L66.6076 110.162L66.5153 109.53L66.3322 109.4L66.3507 109.389L66.4217 109.113L66.8176 108.9L66.8403 108.345L67.0244 108.259L67.5372 107.746L67.547 107.373L67.8423 107.29L68.1122 106.808L68.688 106.635L68.6936 106.489L69.7442 106.555L69.7674 106.336L70.2844 106.409L70.9098 106.443L70.9084 106.444L77.0699 106.781L77.7658 113.694L77.8674 114.241L77.655 114.278L77.7686 115.333L77.623 115.344L77.4797 115.952L77.0212 116.245L76.9554 116.551L76.5951 116.58L76.1115 117.132L76.0387 117.322L75.5004 117.363L75.3113 117.787L75.0906 117.838L75.0414 117.86L74.9292 117.712L74.2907 117.646L73.9203 117.677L73.44 117.756L73.1803 117.91L72.7705 117.874L72.2461 118.108L71.8594 118.604L71.7031 118.602L71.4041 118.762L71.2589 118.604L70.7517 118.504L70.5199 118.312L70.1462 118.198L69.6626 118.237L69.4391 118.435L69.2147 118.418L68.956 118.473L68.9013 118.313L67.9183 118.226L67.5289 118.553L67.3332 118.671L66.979 118.699ZM59.6213 100.343L59.6283 100.15L59.8174 99.8353L59.8119 99.7801L59.9408 99.738L59.9834 99.6902L60.3854 99.7245L60.8389 99.5406L61.0104 99.3242L61.1871 99.2732L61.4884 99.0499L61.7017 98.8562L62.0318 98.4197L62.0198 98.3622L62.329 98.4632L62.6058 98.2167L62.6745 98.2422L63.286 98.2668L63.4353 98.1324L63.5827 98.2167L63.9588 98.1236L64.3983 98.3622L64.4405 98.3242L64.9491 98.8719L65.0585 98.7885L65.2134 98.9822L68.4858 102.465L65.6024 105.911L65.493 106.068L65.3775 105.987L64.9292 106.53L64.8875 106.495L64.4818 106.728L64.096 106.632L63.9509 106.72L63.7849 106.582L63.184 106.603L63.1126 106.631L62.8089 106.381L62.4969 106.487L62.4491 106.457L62.4589 106.366L62.1042 105.957L61.8839 105.774L61.571 105.555L61.3771 105.5L61.1824 105.284L60.7424 105.105L60.3233 105.139L60.263 105.079L60.0947 105.025L60.0956 104.939L59.8684 104.617L59.8429 104.426L59.6742 104.131L59.3529 103.87L59.1507 103.85L59.0635 103.754L59.0051 103.716L59.0399 103.645L58.4589 102.989L58.0579 102.938L57.9318 102.904L57.7366 102.741L57.4129 102.626L57.3796 102.621L57.2613 102.428L57.189 102.391L57.2363 102.368L57.3286 102.182L57.6582 102.064L57.8363 101.901L57.9355 101.873L58.3528 101.828L58.9031 101.122L58.8679 101.062L58.8892 101.047L58.9536 100.968L59.1526 100.95L59.472 100.658L59.6213 100.343Z" fill="#3B3B46"/>
<path fill-rule="evenodd" clip-rule="evenodd" d="M45.3546 99.823C45.6922 99.7513 45.8207 99.526 45.7401 99.1469L45.6884 98.9033C45.6226 98.595 45.4192 98.4775 45.0774 98.5501L44.7836 98.6123L45.0546 99.8866L45.3546 99.823ZM46.7513 100.923C46.8116 101.206 46.78 101.462 46.6567 101.691C46.5332 101.919 46.2883 102.073 45.9216 102.15L44.9967 102.347L44.124 98.2434L45.0238 98.0524C45.6865 97.9116 46.0758 98.116 46.1929 98.6657L46.2712 99.0341C46.3544 99.4253 46.2278 99.7309 45.8912 99.9504C46.3344 99.987 46.6007 100.215 46.6902 100.636L46.7513 100.923ZM46.1729 100.968L46.1278 100.755C46.0437 100.36 45.8245 100.199 45.4705 100.275L45.1518 100.343L45.4425 101.71L45.7862 101.637C45.953 101.602 46.0703 101.534 46.1387 101.435C46.2066 101.336 46.218 101.18 46.1729 100.968ZM47.299 101.847L46.6423 97.7036L47.1722 97.6198L47.632 100.521L48.2577 97.448L48.7878 97.3642L49.4446 101.508L48.9144 101.592L48.4569 98.7051L47.8223 101.762L47.299 101.847ZM50.3719 98.9814C50.6092 98.9565 50.7768 98.8908 50.8747 98.7842C50.9726 98.6776 51.0084 98.4972 50.9816 98.2432C50.9536 97.9766 50.8842 97.804 50.773 97.7259C50.7177 97.6887 50.6455 97.6621 50.5557 97.6457C50.4662 97.6298 50.3602 97.6279 50.2372 97.641L50.0085 97.6649L50.1493 99.005L50.3719 98.9814ZM50.4379 99.4883L50.2027 99.5129L50.3959 101.348L49.8303 101.408L49.3916 97.2353L50.2049 97.1498C51.0139 97.0648 51.46 97.4162 51.5428 98.2035C51.6239 98.9741 51.2557 99.4023 50.4379 99.4883ZM52.9711 96.8381C53.4464 96.7966 53.7827 96.9542 53.9808 97.3108C54.1789 97.6673 54.3076 98.1872 54.3675 98.8699C54.4243 99.5186 54.3722 100.046 54.211 100.451C54.0497 100.856 53.7611 101.077 53.3452 101.113C52.9421 101.148 52.6248 100.977 52.393 100.6C52.1611 100.223 52.0172 99.7164 51.9616 99.0802C51.9407 98.8428 51.9291 98.6353 51.9262 98.4583C51.9236 98.2812 51.9322 98.1105 51.9519 97.9465C51.9892 97.6398 52.0901 97.3853 52.254 97.1828C52.4179 96.9806 52.6571 96.8654 52.9711 96.8381ZM53.015 97.3409C52.7604 97.363 52.6017 97.5178 52.5395 97.8052C52.477 98.0929 52.4687 98.4996 52.5148 99.0254C52.6098 100.111 52.8716 100.635 53.3001 100.598C53.7371 100.559 53.9084 99.9974 53.8133 98.9119C53.7673 98.3859 53.6884 97.9871 53.5768 97.7145C53.4654 97.4423 53.2782 97.3179 53.015 97.3409ZM56.3093 99.7617L56.3002 99.4999C56.2938 99.3171 56.2368 99.1797 56.1292 99.0873C56.0216 98.9954 55.8442 98.9537 55.5974 98.9622L55.4121 98.9686L55.4611 100.366L55.6779 100.359C56.1121 100.344 56.3228 100.145 56.3093 99.7617ZM56.5142 96.6622L56.5316 97.1598L55.3504 97.2011L55.396 98.5031L55.581 98.4965C56.4197 98.4673 56.8499 98.7654 56.8717 99.3907L56.8867 99.8182C56.8957 100.078 56.8199 100.317 56.6594 100.535C56.4986 100.754 56.1798 100.872 55.7029 100.888L54.9112 100.916L54.7649 96.7232L56.5142 96.6622ZM59.4094 96.6005V100.796H58.8472V97.1242H58.0869V99.7359C58.0869 100.17 58.0218 100.465 57.8919 100.62C57.7619 100.776 57.5076 100.853 57.1285 100.853V100.355C57.286 100.355 57.3957 100.316 57.4574 100.237C57.5192 100.158 57.5501 99.9955 57.5501 99.7484V96.6005H59.4094ZM61.3362 98.7885L61.3006 100.825L61.8692 100.835L61.9424 96.6404L61.1246 96.6262C60.7498 96.6198 60.4674 96.6998 60.2769 96.8669C60.0866 97.0337 59.9878 97.3196 59.9807 97.7238C59.9755 98.026 60.0351 98.2643 60.16 98.4393C60.2847 98.6137 60.4809 98.7182 60.7488 98.7526L59.7225 100.798L60.3296 100.808L61.3362 98.7885ZM61.3419 98.4564L61.131 98.4528C60.935 98.4495 60.789 98.3958 60.693 98.2921C60.5966 98.1881 60.551 97.9977 60.556 97.721C60.5595 97.5083 60.6049 97.3537 60.6918 97.2574C60.7787 97.1607 60.9222 97.1145 61.1222 97.1178L61.3652 97.1221L61.3419 98.4564ZM64.3936 97.3722C64.2359 97.2704 64.0278 97.2127 63.7694 97.1992C63.5333 97.1869 63.3611 97.2778 63.2516 97.4724C63.1856 97.5754 63.1333 97.6953 63.0932 97.8318C63.054 97.9681 63.0298 98.1259 63.0205 98.3044L63.8307 98.3469L63.8029 98.876L62.9927 98.8336C62.9367 99.9008 63.1236 100.445 63.5533 100.468C63.8255 100.482 64.0516 100.436 64.2321 100.331L64.2036 100.873C64.0283 100.962 63.8027 100.999 63.5262 100.984C63.1176 100.963 62.826 100.751 62.6509 100.347C62.4759 99.9435 62.4053 99.4211 62.439 98.7792C62.4614 98.3498 62.5127 97.9792 62.593 97.668C62.6732 97.3568 62.8067 97.1135 62.9929 96.9378C63.1792 96.7619 63.4319 96.6824 63.7509 96.6993C64.0613 96.7154 64.2846 96.7679 64.4207 96.856L64.3936 97.3722ZM65.1824 101.06L65.5026 97.4026L64.7323 97.3352L64.7779 96.8137L66.8912 96.9984L66.8456 97.5201L66.0753 97.4527L65.7551 101.11L65.1824 101.06ZM68.2757 100.253L68.3033 99.9927C68.3223 99.8106 68.285 99.6665 68.1912 99.5604C68.0976 99.4543 67.9278 99.3883 67.6822 99.3624L67.4978 99.343L67.3515 100.734L67.5674 100.757C67.9995 100.802 68.2358 100.634 68.2757 100.253ZM67.7349 97.0888L67.5465 98.8796L67.7308 98.8991C68.5655 98.9867 68.9498 99.3416 68.8845 99.964L68.8396 100.389C68.8201 100.576 68.7631 100.741 68.6686 100.885C68.5743 101.029 68.4406 101.14 68.2674 101.219C68.0945 101.297 67.9019 101.325 67.69 101.302L66.7306 101.202L67.1693 97.0292L67.7349 97.0888ZM70.9453 101.718C70.7574 101.788 70.5291 101.801 70.2598 101.758C69.8643 101.696 69.5983 101.455 69.4619 101.037C69.3959 100.828 69.3579 100.592 69.3479 100.327C69.3379 100.063 69.3586 99.771 69.4092 99.4515C69.4439 99.2328 69.4812 99.0382 69.5208 98.868C69.561 98.6975 69.6109 98.533 69.6702 98.3742C69.7821 98.0775 69.9412 97.8484 70.1481 97.687C70.3548 97.5258 70.6158 97.47 70.9315 97.5201C71.2426 97.5693 71.4595 97.6448 71.5811 97.7459L71.5004 98.2565C71.3509 98.1383 71.1521 98.0595 70.9039 98.0201C70.6263 97.9761 70.4201 98.0868 70.2852 98.3519C70.1505 98.6173 70.0417 99.0107 69.9591 99.5322C69.7885 100.608 69.9158 101.18 70.3408 101.247C70.6101 101.29 70.8398 101.268 71.0301 101.182L70.9453 101.718ZM73.1823 100.239L72.7585 102.232L73.3146 102.35L74.1875 98.2465L73.3873 98.0763C73.0207 97.9985 72.7281 98.0234 72.5094 98.1511C72.2906 98.2786 72.1391 98.5404 72.055 98.9356C71.992 99.2314 72.0053 99.4769 72.0944 99.6722C72.1835 99.8673 72.3561 100.007 72.6124 100.092L71.2146 101.904L71.8084 102.03L73.1823 100.239ZM73.2514 99.9146L73.045 99.8707C72.8533 99.8301 72.72 99.7496 72.6457 99.6293C72.5709 99.5089 72.5626 99.3133 72.62 99.0427C72.6645 98.8345 72.7383 98.6914 72.8421 98.6135C72.9459 98.5352 73.0956 98.5171 73.2913 98.5587L73.5291 98.6092L73.2514 99.9146Z" fill="white"/>
<path fill-rule="evenodd" clip-rule="evenodd" d="M58.8986 102.695C58.7411 102.695 58.5558 102.736 58.3428 102.816V102.28C58.5601 102.212 58.7475 102.178 58.905 102.178C59.6546 102.178 60.0297 102.529 60.0297 103.232C60.0297 103.461 59.9731 103.665 59.8603 103.841C59.7475 104.018 59.5971 104.141 59.4097 104.209C59.8869 104.357 60.1254 104.694 60.1254 105.218C60.1254 105.55 60.0275 105.841 59.8316 106.092C59.6356 106.343 59.3437 106.469 58.9561 106.469C58.709 106.469 58.5045 106.422 58.3428 106.328V105.773C58.4748 105.871 58.6516 105.92 58.8732 105.92C59.3247 105.92 59.5503 105.664 59.5503 105.154C59.5503 104.949 59.495 104.79 59.3843 104.675C59.2819 104.551 59.1138 104.489 58.8796 104.489V104.023C59.0242 104.023 59.1596 103.963 59.2853 103.841C59.4109 103.72 59.4736 103.547 59.4736 103.321C59.4736 102.904 59.2819 102.695 58.8986 102.695Z" fill="white"/>
<path fill-rule="evenodd" clip-rule="evenodd" d="M50.0578 118.206V108.889H48.749V107.597H51.3986V118.206H50.0578ZM56.1811 112.457C56.6011 112.619 56.9082 112.944 57.102 113.434C57.2959 113.924 57.3928 114.551 57.3928 115.315C57.3928 115.993 57.312 116.553 57.1505 116.995C56.989 117.436 56.7358 117.775 56.3911 118.012C56.0465 118.227 55.6156 118.335 55.0985 118.335C53.5798 118.335 52.8207 117.328 52.8207 115.315C52.8207 114.508 52.9095 113.873 53.0872 113.41C53.2648 112.947 53.5852 112.63 54.0484 112.457C53.2945 112.048 52.9176 111.262 52.9176 110.1C52.9176 108.356 53.6499 107.484 55.1147 107.484C56.5797 107.484 57.312 108.356 57.312 110.1C57.312 110.606 57.2151 111.077 57.0213 111.513C56.8275 111.949 56.5474 112.264 56.1811 112.457ZM55.1311 108.647C54.5061 108.647 54.1938 109.185 54.1938 110.261C54.1938 110.789 54.2665 111.19 54.4121 111.464C54.5574 111.739 54.7971 111.876 55.1311 111.876C55.7341 111.876 56.0358 111.338 56.0358 110.261C56.0358 109.185 55.7341 108.647 55.1311 108.647ZM55.1311 113.135C54.4631 113.135 54.1292 113.846 54.1292 115.267C54.1292 116.02 54.2019 116.559 54.3446 116.882C54.4874 117.205 54.7377 117.366 55.0985 117.366C55.4486 117.366 55.6911 117.188 55.8284 116.833C55.9657 116.478 56.0358 115.934 56.0358 115.202C56.0358 114.46 55.9683 113.929 55.8365 113.612C55.7044 113.294 55.4702 113.135 55.1311 113.135ZM60.7535 112.845C60.0316 112.845 59.6709 113.555 59.6709 114.976C59.6709 116.408 60.0155 117.124 60.7048 117.124C61.0927 117.124 61.3753 116.965 61.5532 116.647C61.7309 116.33 61.8197 115.767 61.8197 114.96C61.8197 113.55 61.4642 112.845 60.7535 112.845ZM61.1411 111.666C61.7228 111.666 62.1967 111.914 62.563 112.409C62.9292 112.904 63.1124 113.684 63.1124 114.75C63.1124 117.161 62.3368 118.367 60.7858 118.367C59.1592 118.367 58.3459 117.188 58.3459 114.831C58.3459 114.379 58.354 114.064 58.3702 113.886C58.3863 113.709 58.4215 113.472 58.4754 113.176C58.5291 112.88 58.6018 112.576 58.6934 112.264C58.7849 111.951 58.9276 111.553 59.1215 111.069C59.4987 110.132 60.0426 108.986 60.7535 107.629H62.3045C61.1411 109.546 60.344 111.074 59.9131 112.215C60.3763 111.849 60.7858 111.666 61.1411 111.666ZM63.4677 118.206L66.2952 112.587C66.7906 111.564 67.0384 110.67 67.0384 109.906C67.0384 109.475 66.9709 109.166 66.8365 108.978C66.7018 108.789 66.4621 108.695 66.1175 108.695C65.8588 108.695 65.6569 108.776 65.5116 108.937C65.3662 109.099 65.2503 109.363 65.1641 109.729C65.0995 110.084 65.0672 110.525 65.0672 111.053H63.7261C63.7261 109.782 63.8986 108.865 64.2432 108.3C64.5879 107.734 65.2073 107.452 66.1014 107.452C67.7061 107.452 68.5087 108.254 68.5087 109.858C68.5087 110.88 68.1479 112.064 67.426 113.41L65.5439 116.865H68.3146V118.206H63.4677Z" fill="white"/>
<path fill-rule="evenodd" clip-rule="evenodd" d="M53.1312 122.687C53.3697 122.687 53.5434 122.639 53.6519 122.544C53.7605 122.448 53.8148 122.272 53.8148 122.017C53.8148 121.749 53.7638 121.57 53.6614 121.481C53.6103 121.438 53.5412 121.404 53.4538 121.378C53.3664 121.353 53.2612 121.34 53.1374 121.34H52.9075V122.687H53.1312ZM53.1438 123.198H52.9075V125.044H52.3389V120.848H53.1567C53.9702 120.848 54.3771 121.244 54.3771 122.036C54.3771 122.811 53.9661 123.198 53.1438 123.198ZM57.2119 120.804C57.6891 120.804 58.0105 120.99 58.1767 121.362C58.3428 121.735 58.4259 122.264 58.4259 122.949C58.4259 123.601 58.328 124.121 58.1321 124.51C57.9361 124.9 57.6292 125.095 57.2119 125.095C56.8072 125.095 56.506 124.897 56.3079 124.501C56.1098 124.105 56.0107 123.588 56.0107 122.949C56.0107 122.711 56.0172 122.503 56.0297 122.327C56.0426 122.15 56.0661 121.981 56.1001 121.819C56.164 121.517 56.2865 121.272 56.4675 121.085C56.6485 120.897 56.8967 120.804 57.2119 120.804ZM57.2119 121.308C56.9563 121.308 56.7848 121.448 56.6977 121.73C56.6103 122.011 56.5666 122.415 56.5666 122.943C56.5666 124.033 56.7818 124.577 57.2119 124.577C57.6506 124.577 57.8701 124.033 57.8701 122.943C57.8701 122.415 57.8264 122.011 57.739 121.73C57.6518 121.448 57.476 121.308 57.2119 121.308ZM60.1363 125.044V120.848H60.7049V122.832L61.6888 120.848H62.2831L61.28 122.841L62.2831 125.044L61.6719 125.046L60.7049 122.891V125.044H60.1363ZM65.5588 120.848H66.1274L65.169 124.137C65.0922 124.388 65.0177 124.579 64.9455 124.708C64.873 124.838 64.7749 124.935 64.6514 124.999C64.5279 125.054 64.3704 125.082 64.1787 125.082V124.571C64.2851 124.571 64.365 124.564 64.4182 124.549C64.4716 124.534 64.5205 124.493 64.5652 124.427C64.6098 124.361 64.6514 124.241 64.6899 124.067L63.8654 120.848H64.4343L64.9709 123.254L65.5588 120.848Z" fill="white"/>
</svg>
