<svg width="321" height="222" viewBox="0 0 321 222" fill="none" xmlns="http://www.w3.org/2000/svg">
<g clip-path="url(#clip0_92_5641)">
<path d="M101.003 134.089H107.421V149.038C107.421 150.413 108.236 150.968 109.611 150.968H120.544C121.917 150.968 122.734 150.413 122.734 149.038V134.089H129.149V150.019C129.149 153.4 126.159 155.962 122.732 155.962H107.42C104.007 155.962 101.001 153.386 101.001 150.019V134.089H101.003Z" fill="#3B3B46"/>
<path d="M70.5736 149.214H76.9605C77.0657 150.459 77.8207 150.97 79.09 150.97H90.8249C91.9122 150.97 92.5152 150.064 92.5152 149.081C92.5152 147.765 91.5197 147.075 90.2353 147.075H77.4432C73.2293 147.075 70.3599 145.084 70.3599 140.78C70.3599 138.54 71.2668 136.168 73.3211 134.967C74.6039 134.204 76.1739 134.087 77.6553 134.087H92.7256C95.9892 134.087 98.6148 136.327 98.5847 139.547V140.704H91.9874C91.9273 139.708 91.3227 139.065 90.237 139.065H79.1067C77.9743 139.065 77.0223 139.62 77.0223 140.836C77.0223 142.038 77.9894 142.491 79.0917 142.491H92.729C97.1383 142.491 99.4198 145.348 99.4198 149.506C99.4198 153.487 97.5158 155.96 93.2568 155.96H76.9622C73.246 155.96 70.6187 154.512 70.5887 150.676L70.5736 149.214Z" fill="#3B3B46"/>
<path d="M222.479 134.089H228.913V149.038C228.913 150.413 229.729 150.968 231.102 150.968H242.034C243.407 150.968 244.223 150.413 244.223 149.038V134.089H250.64V150.019C250.64 153.384 247.636 155.962 244.223 155.962H228.909C225.482 155.962 222.476 153.4 222.476 150.019L222.479 134.089Z" fill="#3B3B46"/>
<path d="M168.34 151.643L165.818 155.96H158.691L170.939 134.089H179.32L191.569 155.96H184.439L181.917 151.643H168.34ZM175.121 139.624L171.074 146.915H179.184L175.121 139.624Z" fill="#3B3B46"/>
<path d="M131.6 134.089H151.383C155.626 134.089 158.767 135.524 158.767 140.135C158.767 142.127 157.954 143.869 156.142 144.851C158.133 145.876 159.267 147.777 159.267 149.972C159.267 153.062 157.226 155.96 153.8 155.96H131.6V134.089ZM138.169 150.968H150.371C151.562 150.968 152.666 150.34 152.666 149.08C152.666 147.835 151.549 147.192 150.371 147.192H138.169V150.968ZM138.169 142.669H150.371C151.472 142.669 152.168 141.923 152.168 140.883C152.168 139.844 151.488 139.07 150.371 139.07H138.169V142.669Z" fill="#3B3B46"/>
<path d="M192.79 134.089H214.294C218.584 134.089 220.654 137.486 220.654 141.279C220.654 143.737 219.734 146.036 217.407 147.21C219.673 148.277 220.714 149.961 220.714 152.422V155.963H214.294V152.424C214.294 150.345 213.103 149.598 211.032 149.598H199.407V155.963H192.791L192.79 134.089ZM199.405 144.616H211.441C212.994 144.616 214.038 143.269 214.038 141.848C214.038 140.033 212.648 139.067 210.851 139.067H199.405V144.616Z" fill="#3B3B46"/>
<path d="M79.4071 174.999V172.699H70.3599V162.379H71.6116V171.638H77.9494V162.379H79.2011V171.638H80.643L80.4529 174.999H79.4071Z" fill="#3B3B46"/>
<path d="M88.0685 172.699V162.379H96.0859V163.441H89.3203V166.964H95.3729V168.026H89.3203V171.638H96.1651V172.699H88.0685Z" fill="#3B3B46"/>
<path d="M104.276 172.699V162.379H105.528V166.964H111.929V162.379H113.181V172.699H111.929V168.055H105.528V172.699H104.276Z" fill="#3B3B46"/>
<path d="M124.839 172.699V163.441H121.115V162.379H129.83V163.441H126.106V172.699H124.839Z" fill="#3B3B46"/>
<path d="M137.775 172.699V162.379H141.926C143.194 162.379 144.203 162.674 144.953 163.264C145.703 163.854 146.078 164.66 146.078 165.682C146.078 166.753 145.66 167.584 144.826 168.173C144.002 168.763 142.967 169.058 141.72 169.058H139.027V172.699H137.775ZM139.027 167.996H141.768C142.687 167.996 143.421 167.79 143.97 167.377C144.53 166.954 144.81 166.394 144.81 165.696C144.81 164.979 144.541 164.429 144.002 164.045C143.474 163.652 142.75 163.456 141.831 163.456H139.027V167.996Z" fill="#3B3B46"/>
<path d="M164.106 172.821L169.361 162.639H170.58L175.835 172.821H174.435L173.084 170.149H166.808L165.44 172.821H164.106ZM167.318 169.124H172.573L169.954 163.968L167.318 169.124Z" fill="#3B3B46"/>
<path d="M183.71 172.936C183.194 172.936 182.694 172.854 182.211 172.691L182.475 171.766C182.716 171.863 183.057 171.911 183.496 171.911C183.716 171.911 183.913 171.882 184.089 171.824C184.265 171.757 184.474 171.584 184.715 171.304C184.957 171.016 185.154 170.626 185.308 170.135C185.462 169.634 185.594 168.907 185.704 167.954C185.824 166.991 185.885 165.855 185.885 164.546V162.712H193.347V172.821H192.046V163.751H187.137V164.849C187.137 166.216 187.071 167.4 186.939 168.402C186.818 169.403 186.654 170.192 186.445 170.77C186.247 171.338 185.989 171.791 185.671 172.128C185.363 172.464 185.056 172.686 184.748 172.792C184.452 172.888 184.106 172.936 183.71 172.936Z" fill="#3B3B46"/>
<path d="M202.417 172.821V162.712H203.718V166.625H206.634C207.963 166.625 209.039 166.871 209.863 167.362C210.697 167.853 211.115 168.599 211.115 169.6C211.115 170.592 210.725 171.377 209.945 171.954C209.176 172.532 208.138 172.821 206.832 172.821H202.417ZM203.718 171.781H206.799C207.743 171.781 208.479 171.598 209.006 171.232C209.544 170.866 209.813 170.332 209.813 169.629C209.813 168.984 209.539 168.493 208.99 168.156C208.451 167.819 207.694 167.651 206.716 167.651H203.718V171.781Z" fill="#3B3B46"/>
<path d="M224.407 173.196V172.084C222.573 172.084 221.14 171.689 220.107 170.9C219.086 170.111 218.575 169.051 218.575 167.723C218.575 166.394 219.086 165.34 220.107 164.56C221.14 163.771 222.573 163.376 224.407 163.376V162.379H225.708V163.376C227.542 163.376 228.97 163.771 229.991 164.56C231.024 165.34 231.54 166.394 231.54 167.723C231.54 169.051 231.024 170.111 229.991 170.9C228.97 171.689 227.542 172.084 225.708 172.084V173.196H224.407ZM224.407 171.044V164.416C222.979 164.416 221.875 164.705 221.096 165.282C220.316 165.85 219.926 166.669 219.926 167.737C219.926 168.806 220.316 169.624 221.096 170.192C221.875 170.76 222.979 171.044 224.407 171.044ZM225.708 171.044C227.136 171.044 228.24 170.76 229.019 170.192C229.799 169.624 230.189 168.806 230.189 167.737C230.189 166.669 229.799 165.85 229.019 165.282C228.24 164.705 227.136 164.416 225.708 164.416V171.044Z" fill="#3B3B46"/>
<path d="M238.911 172.821L244.166 162.639H245.385L250.64 172.821H249.24L247.889 170.149H241.613L240.246 172.821H238.911ZM242.124 169.124H247.379L244.759 163.968L242.124 169.124Z" fill="#3B3B46"/>
<path d="M161.404 47C179.227 47 198.335 50.0668 213.542 58.2142C223.418 63.5492 232.612 71.633 232.612 82.1688C232.612 94.4712 220.167 103.417 208.244 108.653C194.058 114.854 177.293 117.309 161.4 117.309C143.581 117.309 124.51 114.278 109.299 106.099C99.4226 100.764 90.1909 92.6799 90.1909 82.1688C90.1909 69.8099 102.603 60.8958 114.559 55.6562C128.787 49.4591 145.514 47 161.404 47ZM161.253 50.7381C144.681 50.7381 126.821 53.3561 112.442 60.6697C103.398 65.238 94.4678 72.4279 94.4678 81.978C94.4678 93.1957 106.574 101.046 117.396 105.555C130.792 111.077 146.456 113.225 161.253 113.225C177.858 113.225 195.723 110.6 210.102 103.286C219.108 98.6862 228.076 91.5316 228.076 81.9815C228.076 70.7391 216.003 62.8779 205.147 58.4085C191.748 52.8756 176.084 50.7381 161.253 50.7381ZM98.707 74.2157L125.988 70.2869L134.198 55.2393L142.375 70.2869L169.652 74.2157L142.375 78.1799L134.198 93.2593L125.988 78.1799L98.707 74.2157ZM158.679 85.6807L170.711 83.8965L174.305 77.0917L177.9 83.8965L189.936 85.6807L177.9 87.4367L174.305 94.245L170.711 87.4367L158.679 85.6807ZM183.579 67.5381L195.61 65.7821L199.205 58.949L202.8 65.7821L214.831 67.5381L202.8 69.3259L199.205 76.1342L195.606 69.3259L183.579 67.5381ZM170.711 99.7426L182.704 97.9866L186.299 91.15L189.932 97.9866L201.963 99.7426L189.932 101.53L186.299 108.339L182.704 101.53L170.711 99.7426ZM133.746 102.202L145.778 100.446L149.41 93.602L153.001 100.446L165.036 102.202L153.001 103.989L149.41 110.798L145.778 103.989L133.746 102.202ZM194.25 85.4016L206.244 83.6103L209.839 76.8055L213.471 83.6103L225.502 85.4016L213.471 87.1576L209.834 93.9553L206.24 87.154L194.25 85.4016Z" fill="#3B3B46"/>
</g>
<defs>
<clipPath id="clip0_92_5641">
<rect width="320" height="222" fill="white" transform="translate(0.5)"/>
</clipPath>
</defs>
</svg>
