<svg width="321" height="222" viewBox="0 0 321 222" fill="none" xmlns="http://www.w3.org/2000/svg">
<g clip-path="url(#clip0_92_5945)">
<path d="M69.5254 89.7741C69.7134 91.5579 68.4911 93.2477 66.6106 93.4354L28.4385 98.1293C26.6522 98.3172 24.9598 97.0967 24.7717 95.2191L24.6777 94.3742C24.4897 92.5905 25.7119 90.9007 27.5923 90.7129L65.7645 86.019C67.5509 85.8312 69.2432 87.0517 69.4312 88.9293L69.5254 89.7741Z" fill="#3B3B46"/>
<path d="M61.5333 100.007C61.7213 101.79 60.499 103.48 58.6186 103.668L36.0538 106.39C34.2674 106.578 32.575 105.358 32.387 103.48L32.293 102.635C32.1049 100.852 33.3272 99.1618 35.2076 98.974L57.7724 96.2515C59.5588 96.0638 61.2511 97.2842 61.4391 99.1618L61.5333 100.007Z" fill="#3B3B46"/>
<path d="M61.4389 109.301C61.6271 111.084 60.4048 112.774 58.5243 112.962L35.9596 115.684C34.1731 115.872 32.4808 114.652 32.2927 112.774L32.1987 111.929C32.0107 110.146 33.2329 108.456 35.1133 108.268L57.6782 105.546C59.4646 105.358 61.1569 106.578 61.3449 108.456L61.4389 109.301Z" fill="#3B3B46"/>
<path d="M61.251 118.595C61.439 120.379 60.2168 122.068 58.3364 122.256L35.7715 124.979C33.9851 125.167 32.2928 123.946 32.1047 122.068L32.0107 121.224C31.8227 119.44 33.0449 117.75 34.9254 117.562L57.4902 114.84C59.2765 114.652 60.9689 115.873 61.157 117.75L61.251 118.595Z" fill="#3B3B46"/>
<path d="M68.8666 126.95C69.0547 128.734 67.8324 130.424 65.952 130.611L27.7798 135.305C25.9935 135.493 24.3011 134.273 24.1131 132.395L24.019 131.55C23.831 129.767 25.0533 128.077 26.9337 127.889L65.1058 123.195C66.8922 123.007 68.5846 124.228 68.7726 126.105L68.8666 126.95Z" fill="#3B3B46"/>
<path d="M116.11 122.787C116.11 125.029 114.286 126.711 111.9 126.711H83.9754C81.5898 126.711 79.7656 125.309 79.7656 122.787V95.605C79.7656 93.3632 81.4495 92.2422 83.1334 92.2422C84.677 92.2422 86.5013 93.0829 86.5013 95.605V121.106H94.6402V95.605C94.6402 93.3632 96.3241 92.2422 98.0081 92.2422C99.8323 92.2422 101.376 93.3632 101.376 95.605V121.106H109.515V95.605C109.515 93.3632 111.199 92.2422 112.883 92.2422C114.707 92.2422 116.25 93.3632 116.25 95.605V122.787H116.11Z" fill="#3B3B46"/>
<path d="M141.93 92.2422C144.456 92.2422 146.139 93.7835 146.139 96.1655V123.628C146.139 125.45 144.596 126.711 142.772 126.711C141.089 126.711 139.404 125.59 139.404 123.348V97.987H127.055V123.628C127.055 125.45 125.512 126.711 123.688 126.711C121.863 126.711 120.32 125.59 120.32 123.348V96.1655C120.32 93.7835 122.004 92.2422 124.53 92.2422H141.93Z" fill="#3B3B46"/>
<path d="M168.312 95.1847C168.451 94.6242 168.873 92.2422 171.679 92.2422C172.802 92.2422 175.188 92.9428 175.188 95.3248C175.188 98.4073 173.643 112.139 160.734 126.43C160.032 127.131 159.471 127.831 157.928 127.831C155.542 127.831 154.419 126.15 154.419 124.749C154.419 123.628 154.98 122.927 155.401 122.367C156.524 120.966 157.086 120.686 159.05 118.164C150.49 110.597 147.964 99.5282 147.964 95.3248C147.964 92.9428 149.929 92.2422 151.191 92.2422C154.139 92.2422 154.7 94.344 154.98 95.7451C155.542 99.248 156.804 107.094 162.559 112.559C166.768 106.534 167.609 98.9677 168.312 95.1847Z" fill="#3B3B46"/>
<path d="M189.921 92.2422C194.692 92.2422 197.078 96.3056 199.323 101.49C201.568 106.674 204.656 118.444 204.656 123.068C204.656 126.29 202.41 126.851 201.147 126.851C198.482 126.851 197.919 124.609 197.779 123.768C197.078 119.845 197.218 114.38 193.149 103.872C191.324 99.1079 190.482 97.987 189.36 97.987H188.939C187.254 97.987 185.992 101.63 185.15 103.872C181.501 113.82 180.94 120.966 180.519 123.768C180.379 124.609 179.817 126.851 177.152 126.851C175.327 126.851 173.643 125.73 173.643 123.068C173.643 119.144 176.17 108.636 178.976 101.49C182.625 92.3824 185.851 92.2422 188.518 92.2422H189.921Z" fill="#3B3B46"/>
<path d="M213.638 101.49C227.67 102.611 234.125 109.757 234.125 116.062C234.125 120.125 231.599 126.711 222.338 126.711H211.111C209.287 126.711 206.901 126.15 206.901 122.787V95.605C206.901 93.3632 208.446 92.2422 210.27 92.2422C212.094 92.2422 213.638 93.3632 213.638 95.605V101.49ZM221.496 121.106C225.145 121.106 226.968 118.864 226.968 116.482C226.968 112.279 221.496 107.935 213.498 107.515V121.106H221.496Z" fill="#3B3B46"/>
<path d="M242.965 100.929C244.368 101.069 245.912 101.35 247.456 101.91C252.086 100.229 253.35 96.7259 254.472 94.4841C255.174 93.0829 255.875 92.2422 257.699 92.2422C259.664 92.2422 261.067 93.3632 261.067 95.3248C261.067 98.5474 257.419 103.451 253.63 105.273C260.226 109.897 263.312 118.444 263.312 123.208C263.312 125.45 262.33 126.991 259.945 126.991C257.138 126.991 256.717 124.749 256.577 123.908C255.314 117.883 252.929 107.935 243.106 106.674V123.488C243.106 125.73 241.562 126.851 239.738 126.851C238.615 126.851 236.37 126.29 236.37 123.208V95.605C236.37 93.3632 238.054 92.2422 239.738 92.2422C241.562 92.2422 243.106 93.3632 243.106 95.4649V100.929H242.965Z" fill="#3B3B46"/>
<path d="M288.712 122.087C287.589 115.922 281.836 111.298 274.258 111.298C272.294 115.922 272.013 119.144 271.031 123.768C270.891 124.469 270.47 126.711 267.663 126.711C265.979 126.711 264.294 125.73 264.294 123.628C264.294 118.444 270.189 101.07 275.662 93.9237C276.504 92.9429 277.345 91.6818 279.731 91.6818C281.836 91.6818 282.818 92.6626 283.8 93.7836C287.73 98.5475 294.044 112.699 295.588 120.826C296.429 125.59 294.185 126.711 292.36 126.711C291.378 126.711 289.554 126.43 288.992 123.908L288.712 122.087ZM275.941 106.394C276.925 106.394 281.414 106.674 285.484 109.757C284.361 106.674 282.678 102.891 279.731 98.8277C278.889 100.089 277.345 102.611 275.941 106.394Z" fill="#3B3B46"/>
</g>
<defs>
<clipPath id="clip0_92_5945">
<rect width="272" height="50" fill="white" transform="translate(24 86)"/>
</clipPath>
</defs>
</svg>
