<svg width="321" height="222" viewBox="0 0 321 222" fill="none" xmlns="http://www.w3.org/2000/svg">
<path fill-rule="evenodd" clip-rule="evenodd" d="M49.4505 133.632L49.4615 133.641L49.4725 133.65C52.2423 135.971 55.3012 137.69 58.6462 138.717C61.8731 139.707 65.4291 140.163 69.2539 140.163C73.0906 140.163 76.7478 139.486 80.177 138.099L80.2073 138.087L80.2374 138.074C83.715 136.611 86.6259 134.49 88.824 131.674C90.2024 129.917 91.1689 127.996 91.7324 125.946V130.896C91.7324 133.146 92.5457 135.25 94.2106 136.933L94.3009 137.024L94.3965 137.11C96.1941 138.731 98.4381 139.477 100.791 139.477C103.145 139.477 105.286 138.673 107.022 137.19L107.071 137.149L107.118 137.106C108.939 135.459 109.921 133.301 109.921 130.896V119.301H123.643V130.896C123.643 133.223 124.538 135.356 126.284 137.023L126.331 137.067L126.379 137.11C128.105 138.667 130.269 139.477 132.629 139.477C134.98 139.477 137.265 138.761 139.095 137.11L139.143 137.067L139.19 137.023C140.936 135.356 141.831 133.223 141.831 130.896V91.2321C141.831 88.9881 141.049 86.8118 139.261 85.1054C137.442 83.3677 135.118 82.6517 132.773 82.6517C130.36 82.6517 128.206 83.5186 126.492 85.0491C124.617 86.6745 123.643 88.8417 123.643 91.2321V102.621H109.921V91.2321C109.921 88.9222 109.034 86.7781 107.233 85.1304C105.532 83.5274 103.356 82.6517 100.934 82.6517C98.527 82.6517 96.2295 83.4268 94.4206 85.1299C92.6191 86.7777 91.7324 88.922 91.7324 91.2321V116.265C91.3179 114.63 90.6685 113.096 89.7289 111.71C87.9266 109.006 85.3097 107.033 82.1614 105.694C79.2148 104.377 75.5137 103.407 71.2174 102.69C67.7922 102.086 65.7867 101.389 64.7821 100.811C64.6637 100.738 64.5996 100.682 64.5685 100.651C64.5375 100.621 64.5258 100.602 64.5198 100.591C64.5148 100.583 64.4413 100.455 64.4413 100.084C64.4413 99.9795 64.4533 99.9235 64.4585 99.9035C64.4632 99.8853 64.4668 99.879 64.4699 99.8736C64.4736 99.8673 64.4918 99.8371 64.5447 99.7841C64.5994 99.7293 64.6972 99.6442 64.8612 99.5383L64.8733 99.5305L64.8853 99.5227C65.5075 99.1153 66.811 98.6459 69.3258 98.6459C70.3678 98.6459 71.7756 98.8922 73.6139 99.579L73.6695 99.5998L73.7256 99.6192C75.711 100.305 76.9426 100.971 77.6457 101.513L77.71 101.563L77.7761 101.61C79.1477 102.592 80.7635 103.106 82.478 103.106C84.8609 103.106 86.9731 102.213 88.6072 100.653L88.6537 100.608L88.6988 100.563C90.2526 98.9919 91.177 96.9968 91.177 94.7319C91.177 91.7298 89.5815 89.3595 87.401 87.6906C85.1174 85.8744 82.377 84.5052 79.2971 83.5062C76.1436 82.4676 72.809 81.9655 69.3258 81.9655C65.4268 81.9655 61.7546 82.6306 58.3808 84.0382C54.9378 85.4282 52.0855 87.5441 49.9767 90.4045C47.7811 93.3351 46.7559 96.7426 46.7559 100.428C46.7559 105.382 48.4554 109.753 52.1562 113.044C55.7176 116.212 60.6754 117.971 66.4238 118.774C70.3955 119.341 72.6425 120.12 73.7171 120.787L73.7514 120.809L73.7861 120.829C74.2097 121.082 74.343 121.271 74.3855 121.342C74.4205 121.4 74.4898 121.536 74.4971 121.851C74.4278 121.933 74.2278 122.135 73.7574 122.409L73.7358 122.422L73.7142 122.435C72.6563 123.066 71.2379 123.482 69.2539 123.482C67.1897 123.482 65.6334 123.196 64.4754 122.76C63.2055 122.281 61.7483 121.455 60.1086 120.164L60.0818 120.143L60.0548 120.122C58.5298 118.957 56.704 118.336 54.7361 118.336C52.2979 118.336 50.1362 119.26 48.4888 120.902C46.8834 122.456 45.9653 124.457 45.9653 126.71C45.9653 129.59 47.4345 131.921 49.4505 133.632ZM47.806 126.71C47.806 128.969 48.9462 130.852 50.6733 132.318L50.6865 132.329C53.2875 134.508 56.129 136.098 59.2092 137.043C62.2187 137.967 65.5788 138.405 69.2536 138.405C72.8589 138.405 76.2702 137.77 79.4585 136.48L79.4767 136.473L79.4947 136.466C82.7117 135.112 85.3589 133.172 87.3485 130.622C89.4489 127.947 90.4857 124.847 90.4857 121.426C90.4857 118.055 89.8056 115.055 88.1794 112.659C86.5993 110.286 84.2813 108.517 81.3965 107.293C78.6502 106.064 75.1163 105.125 70.8912 104.42C67.3742 103.801 65.0989 103.052 63.8095 102.304C62.9846 101.805 62.6001 101.183 62.6001 100.084C62.6001 99.3012 62.8877 98.6907 63.8295 98.0824L63.8439 98.073C64.888 97.3894 66.6092 96.8881 69.3255 96.8881C70.6599 96.8881 72.2999 97.2006 74.2845 97.9421L74.3178 97.9545L74.3515 97.9661C76.4435 98.6886 77.882 99.4359 78.8022 100.146L78.8407 100.175L78.8804 100.204C79.9334 100.958 81.1616 101.349 82.4778 101.349C84.3483 101.349 85.9989 100.657 87.3052 99.4098L87.3331 99.3832L87.3601 99.3558C88.6182 98.0839 89.3358 96.5117 89.3358 94.7319C89.3358 92.3802 88.099 90.4728 86.236 89.0518C84.1564 87.3947 81.6209 86.116 78.7007 85.1692C75.7544 84.1983 72.6229 83.7232 69.3255 83.7232C65.6447 83.7232 62.2244 84.3509 59.1075 85.653C55.9496 86.9261 53.3756 88.8453 51.4777 91.4217C49.5279 94.0219 48.5966 97.0638 48.5966 100.428C48.5966 104.974 50.1409 108.85 53.4107 111.758C56.5969 114.592 61.1457 116.26 66.6932 117.035C70.7437 117.613 73.3088 118.438 74.7201 119.314L74.7407 119.326L74.7615 119.339C75.9178 120.029 76.3384 120.809 76.3384 121.907C76.3384 122.406 76.1365 123.083 74.7156 123.91L74.7026 123.918L74.6896 123.925C73.2883 124.762 71.5173 125.24 69.2536 125.24C67.0185 125.24 65.2223 124.931 63.7992 124.395C62.309 123.833 60.6872 122.899 58.9368 121.52L58.9207 121.507L58.9045 121.495C57.702 120.576 56.2807 120.093 54.7359 120.093C52.8128 120.093 51.1225 120.813 49.8088 122.128C48.5201 123.371 47.806 124.937 47.806 126.71ZM137.831 135.832L137.86 135.807L137.888 135.78C139.28 134.45 139.99 132.768 139.99 130.896V91.2321C139.99 89.3916 139.358 87.6832 137.959 86.3483C136.542 84.9946 134.716 84.4095 132.773 84.4095C130.846 84.4095 129.131 85.0945 127.74 86.3417C126.25 87.6278 125.483 89.322 125.483 91.2321V104.379H108.08V91.2321C108.08 89.3706 107.375 87.6902 105.95 86.3906C104.584 85.0997 102.866 84.4095 100.934 84.4095C98.9536 84.4095 97.1338 85.039 95.7035 86.3904C94.2776 87.69 93.5731 89.3705 93.5731 91.2321V130.896C93.5731 132.722 94.224 134.387 95.5487 135.726L95.6029 135.781L95.6603 135.832C97.0838 137.116 98.8614 137.719 100.79 137.719C102.682 137.719 104.388 137.081 105.794 135.88L105.823 135.855L105.852 135.83C107.309 134.512 108.08 132.815 108.08 130.896V117.544H125.483V130.896C125.483 132.768 126.193 134.45 127.586 135.78L127.614 135.807L127.642 135.832C129.023 137.077 130.734 137.719 132.629 137.719C134.576 137.719 136.388 137.134 137.831 135.832Z" fill="#3B3B46"/>
<path fill-rule="evenodd" clip-rule="evenodd" d="M244.954 113.78L247.927 107.068L250.961 113.78H244.954ZM247.732 112.022L247.945 111.542L248.162 112.022H247.732Z" fill="#3B3B46"/>
<path fill-rule="evenodd" clip-rule="evenodd" d="M187.942 85.13C186.738 86.2316 185.943 87.5552 185.548 89.0018C185.164 87.5082 184.35 86.1359 183.069 85.0155C181.332 83.4043 179.134 82.6517 176.82 82.6517H152.744C150.307 82.6517 148.073 83.5069 146.327 85.174C144.575 86.8472 143.757 88.982 143.757 91.2321V130.896C143.757 133.146 144.571 135.25 146.235 136.933L146.326 137.024L146.421 137.11C148.184 138.7 150.388 139.477 152.744 139.477H176.82C179.073 139.477 181.257 138.786 183.017 137.227C184.316 136.108 185.165 134.725 185.556 133.197C185.929 134.569 186.651 135.84 187.732 136.933L187.823 137.024L187.918 137.11C189.681 138.7 191.885 139.477 194.241 139.477H217.599C219.726 139.477 221.791 138.861 223.496 137.48L223.53 137.514L223.59 137.572C225.369 139.271 227.65 139.82 229.719 139.82C231.505 139.82 233.181 139.298 234.622 138.315L234.646 138.299L234.669 138.283C236.144 137.25 237.176 135.873 237.8 134.317L240.307 128.703H255.651L258.178 134.317L258.186 134.335C258.825 135.775 259.788 137.098 261.158 138.126L261.218 138.171L261.28 138.214C262.759 139.25 264.497 139.82 266.373 139.82C268.676 139.82 270.719 138.975 272.33 137.527L272.381 137.482L272.43 137.435C274.182 135.762 275 133.627 275 131.377C275 130.212 274.725 129.122 274.334 128.152L274.309 128.09L256.635 87.8911C255.987 86.2734 254.875 84.8766 253.29 83.8889C251.902 82.9539 250.295 82.4236 248.565 82.3802C246.645 82.2428 244.772 82.6962 243.139 83.7681C241.553 84.8088 240.446 86.2361 239.762 87.8514L223.635 124.832C221.933 123.352 219.819 122.659 217.599 122.659H203.443V91.2321C203.443 88.9223 202.556 86.7782 200.755 85.1305C199.054 83.5274 196.878 82.6517 194.456 82.6517C192.049 82.6517 189.751 83.4268 187.942 85.13ZM182.572 110.652C182.572 108.361 181.696 106.201 179.835 104.573C178.098 102.962 175.9 102.209 173.586 102.209H161.946V99.3322H176.82C179.01 99.3322 181.217 98.7287 183.028 97.2035L183.083 97.1568L183.137 97.1084C184.116 96.2287 184.817 95.202 185.254 94.0871V128.295C184.801 127.172 184.085 126.169 183.165 125.317C181.445 123.628 179.218 122.796 176.82 122.796H161.946V118.89H173.586C175.776 118.89 177.983 118.286 179.793 116.761L179.849 116.714L179.903 116.666C181.712 115.04 182.572 112.912 182.572 110.652ZM147.574 135.726L147.628 135.781L147.685 135.832C149.088 137.097 150.832 137.719 152.743 137.719H176.82C178.67 137.719 180.392 137.158 181.774 135.93C183.232 134.679 183.965 133.022 183.965 131.171C183.965 129.359 183.196 127.786 181.863 126.56C180.506 125.217 178.756 124.554 176.82 124.554H160.105V117.132H173.586C175.417 117.132 177.163 116.633 178.575 115.443L178.608 115.415L178.641 115.386C180.052 114.118 180.731 112.465 180.731 110.652C180.731 108.803 180.033 107.121 178.571 105.852C177.203 104.574 175.472 103.967 173.586 103.967H160.105V97.5744H176.82C178.651 97.5744 180.397 97.075 181.809 95.8854L181.842 95.8574L181.875 95.8284C183.286 94.56 183.965 92.908 183.965 91.0948C183.965 89.2451 183.267 87.5637 181.806 86.2941C180.437 85.0162 178.706 84.4095 176.82 84.4095H152.743C150.783 84.4095 149.021 85.0873 147.629 86.4169C146.251 87.7319 145.598 89.4062 145.598 91.2321V130.896C145.598 132.722 146.249 134.387 147.574 135.726ZM189.071 135.726L189.125 135.781L189.182 135.832C190.585 137.097 192.329 137.719 194.24 137.719H217.598C219.461 137.719 221.195 137.15 222.581 135.904L222.585 135.901C223.023 135.506 223.396 135.075 223.703 134.614C223.966 135.202 224.332 135.757 224.821 136.259L224.855 136.294L224.891 136.329C226.227 137.604 227.979 138.062 229.719 138.062C231.116 138.062 232.419 137.657 233.552 136.885L233.566 136.875L233.58 136.865C234.754 136.043 235.585 134.941 236.093 133.659L239.09 126.945H256.864L259.875 133.635L259.879 133.644C260.415 134.856 261.204 135.925 262.295 136.744L262.331 136.771L262.368 136.797C263.543 137.62 264.902 138.062 266.373 138.062C268.176 138.062 269.776 137.409 271.068 136.247L271.099 136.22L271.128 136.192C272.505 134.877 273.159 133.202 273.159 131.376C273.159 130.476 272.946 129.603 272.615 128.783L272.6 128.746L254.925 88.5443C254.403 87.2265 253.515 86.1203 252.256 85.3436C251.137 84.5823 249.855 84.1626 248.472 84.1363C246.938 84.0174 245.468 84.3718 244.182 85.2165C242.923 86.0427 242.028 87.1834 241.465 88.5188L224.122 128.289C223.766 127.555 223.256 126.885 222.584 126.301C221.216 125.023 219.484 124.417 217.598 124.417H201.602V91.2321C201.602 89.3706 200.897 87.6902 199.471 86.3906C198.106 85.0997 196.388 84.4095 194.456 84.4095C192.475 84.4095 190.656 85.039 189.225 86.3904C187.799 87.69 187.095 89.3705 187.095 91.2321V130.896C187.095 132.722 187.746 134.387 189.071 135.726Z" fill="#3B3B46"/>
<path fill-rule="evenodd" clip-rule="evenodd" d="M51.9008 131.008L51.8964 131.004C50.4583 129.783 49.647 128.347 49.647 126.71C49.647 125.417 50.1567 124.285 51.1291 123.353C52.1098 122.365 53.3282 121.851 54.7359 121.851C55.8578 121.851 56.8746 122.195 57.7545 122.867L57.7653 122.875C59.6265 124.341 61.4128 125.385 63.1233 126.03C64.8115 126.666 66.8476 126.998 69.2537 126.998C71.797 126.998 73.9206 126.457 75.6654 125.416L75.674 125.411C77.4573 124.372 78.1794 123.201 78.1794 121.906C78.1794 120.168 77.4004 118.841 75.7372 117.848L75.7234 117.84C73.9753 116.755 71.0921 115.885 66.963 115.296C61.6161 114.55 57.4765 112.972 54.6655 110.472C51.8268 107.947 50.4375 104.566 50.4375 100.427C50.4375 97.3848 51.275 94.7086 52.9791 92.4389C54.6658 90.1466 56.9613 88.4242 59.8346 87.2679C62.6943 86.0714 65.8627 85.4809 69.3256 85.4809C72.437 85.4809 75.3655 85.929 78.1044 86.8321C80.8663 87.7271 83.1967 88.9157 85.0719 90.4136C86.6187 91.5882 87.4949 93.0323 87.4949 94.7318C87.4949 96.0265 86.9842 97.1758 86.0218 98.1488L86.0128 98.1579L86.0035 98.1668C85.025 99.101 83.836 99.5908 82.4778 99.5908C81.5599 99.5908 80.7193 99.3232 79.985 98.7974L79.9718 98.7879L79.9589 98.778C78.8217 97.901 77.1763 97.0724 74.9777 96.3131L74.9552 96.3053C72.8244 95.5092 70.9522 95.1303 69.3256 95.1303C66.4078 95.1303 64.2688 95.6634 62.8028 96.6232L62.798 96.6263C61.3981 97.5306 60.7592 98.6643 60.7592 100.084C60.7592 101.762 61.4462 102.96 62.8391 103.798C64.4182 104.718 66.9652 105.517 70.5662 106.15C74.7212 106.842 78.0873 107.75 80.632 108.892C83.2543 110.001 85.273 111.567 86.6303 113.609C88.003 115.627 88.6448 118.259 88.6448 121.426C88.6448 124.487 87.7245 127.213 85.8748 129.569C84.0935 131.852 81.7096 133.613 78.7524 134.857L78.7403 134.862C75.793 136.054 72.6275 136.647 69.2537 136.647C65.7289 136.647 62.5645 136.227 59.7726 135.37C56.9571 134.506 54.333 133.046 51.9008 131.008ZM136.577 134.546L136.567 134.554C135.511 135.507 134.172 135.961 132.629 135.961C131.199 135.961 129.942 135.488 128.907 134.554L128.897 134.546L128.888 134.537C127.849 133.545 127.324 132.313 127.324 130.896V115.786H106.239V130.896C106.239 132.329 105.678 133.565 104.586 134.553L104.576 134.562L104.567 134.57C103.491 135.489 102.22 135.961 100.79 135.961C99.285 135.961 97.9738 135.501 96.9243 134.554L96.9052 134.537L96.8871 134.519C95.9025 133.523 95.4141 132.298 95.4141 130.896V91.232C95.4141 89.8186 95.9363 88.6025 96.9866 87.6509C98.0384 86.6514 99.3799 86.1671 100.934 86.1671C102.377 86.1671 103.636 86.6718 104.666 87.651C105.717 88.6026 106.239 89.8187 106.239 91.232V106.136H127.324V91.232C127.324 89.8024 127.883 88.5817 128.987 87.6347C130.057 86.6701 131.332 86.1671 132.773 86.1671C134.315 86.1671 135.642 86.6214 136.658 87.5911C137.667 88.5546 138.149 89.795 138.149 91.232V130.896C138.149 132.313 137.625 133.545 136.586 134.537L136.577 134.546ZM148.93 134.537L148.912 134.519C147.927 133.523 147.439 132.298 147.439 130.896V91.232C147.439 89.8304 147.928 88.6166 148.93 87.6598C149.969 86.6675 151.259 86.1671 152.743 86.1671H176.82C178.279 86.1671 179.543 86.6284 180.542 87.5729C181.604 88.484 182.125 89.6856 182.125 91.0948C182.125 92.4616 181.627 93.6375 180.613 94.5483L180.602 94.558L180.591 94.5673C179.578 95.4213 178.293 95.8165 176.82 95.8165H158.264V105.725H173.586C175.044 105.725 176.309 106.186 177.308 107.13C178.37 108.042 178.89 109.243 178.89 110.652C178.89 112.019 178.392 113.195 177.379 114.106L177.368 114.116L177.357 114.125C176.343 114.979 175.059 115.374 173.586 115.374H158.264V126.312H176.82C178.296 126.312 179.566 126.807 180.561 127.804C181.58 128.73 182.125 129.865 182.125 131.171C182.125 132.55 181.592 133.728 180.532 134.633C179.528 135.53 178.267 135.961 176.82 135.961H152.743C151.276 135.961 149.992 135.495 148.949 134.554L148.93 134.537ZM221.32 134.624C220.314 135.527 219.05 135.961 217.598 135.961H194.24C192.773 135.961 191.489 135.495 190.446 134.554L190.427 134.537L190.409 134.519C189.424 133.523 188.936 132.298 188.936 130.896V91.232C188.936 89.8186 189.458 88.6024 190.509 87.6508C191.56 86.6513 192.902 86.1671 194.456 86.1671C195.899 86.1671 197.158 86.6718 198.188 87.6508C199.238 88.6024 199.761 89.8186 199.761 91.232V126.174H217.598C219.057 126.174 220.321 126.636 221.32 127.58C222.383 128.491 222.903 129.693 222.903 131.102C222.903 132.485 222.368 133.678 221.32 134.624ZM270.892 129.402L270.897 129.414C271.167 130.084 271.318 130.741 271.318 131.376C271.318 132.778 270.829 133.992 269.827 134.949L269.817 134.958L269.807 134.967C268.833 135.842 267.677 136.304 266.373 136.304C265.308 136.304 264.328 135.989 263.457 135.379L263.444 135.37L263.432 135.361C262.621 134.753 262.007 133.939 261.573 132.956L261.572 132.953L258.076 125.187H237.874L234.383 133.005C233.991 134.012 233.363 134.838 232.491 135.448L232.482 135.454C231.657 136.017 230.728 136.304 229.719 136.304C228.308 136.304 227.086 135.938 226.193 135.086L226.181 135.074L226.17 135.062C225.351 134.221 224.989 133.117 224.989 131.857C224.989 131.347 225.078 130.827 225.244 130.3L225.257 130.257L243.166 89.19L243.169 89.1842C243.612 88.1291 244.294 87.2759 245.225 86.6649C246.165 86.0476 247.23 85.7923 248.379 85.8928C249.416 85.9017 250.37 86.2099 251.222 86.7986C252.154 87.363 252.817 88.1752 253.214 89.1936L270.892 129.402ZM247.911 102.595L242.176 115.538H253.761L247.911 102.595Z" fill="#3B3B46"/>
</svg>
