<svg width="321" height="222" viewBox="0 0 321 222" fill="none" xmlns="http://www.w3.org/2000/svg">
<g clip-path="url(#clip0_92_5654)">
<path d="M116.788 151.475V140.854L112.339 148.461L107.819 140.854V151.475H104.5V136.404H108.808L112.339 142.576L115.728 136.404H120.107V151.475H116.788Z" fill="#3B3B46"/>
<path d="M126.25 136.405H122.931V151.475H126.25V136.405Z" fill="#3B3B46"/>
<path d="M127.733 136.405H139.103V139.562H135.078V151.475H131.688V139.562H127.733V136.405Z" fill="#3B3B46"/>
<path d="M140.303 151.332V148.174C141.01 148.317 142.634 148.605 144.682 148.605C146.377 148.605 147.224 148.389 147.224 147.384C147.224 146.308 146.518 146.165 144.117 145.016C141.786 143.94 140.021 143.007 140.021 140.423C140.021 137.266 141.928 136.189 145.6 136.189C147.507 136.189 148.848 136.333 149.766 136.476V139.634C148.919 139.562 147.436 139.347 145.741 139.347C143.764 139.347 143.34 139.562 143.34 140.423C143.34 141.284 144.399 141.715 146.024 142.433C148.495 143.581 150.472 144.514 150.472 147.384C150.472 150.399 148.636 151.762 144.682 151.762C143.128 151.69 141.716 151.547 140.303 151.332Z" fill="#3B3B46"/>
<path d="M152.52 146.38V136.405H155.839V146.236C155.839 147.959 156.828 148.533 158.452 148.533C160.006 148.533 161.065 147.959 161.065 146.236V136.405H164.384V146.38C164.384 150.04 162.053 151.691 158.452 151.691C154.85 151.691 152.52 150.04 152.52 146.38Z" fill="#3B3B46"/>
<path d="M167.209 136.405H173.706C176.742 136.405 178.437 137.553 178.437 140.28C178.437 142.433 177.237 143.151 176.107 143.581C177.449 144.012 178.861 144.729 178.861 147.241C178.861 149.896 177.307 151.475 173.988 151.475H167.28V136.405H167.209ZM173.212 142.505C174.553 142.505 175.048 141.787 175.048 140.782C175.048 139.562 174.483 139.275 173.212 139.275H170.528V142.505H173.212ZM173.423 148.676C174.765 148.676 175.33 148.174 175.33 146.882C175.33 145.734 174.836 145.232 173.565 145.232H170.528V148.676H173.423Z" fill="#3B3B46"/>
<path d="M184.087 136.405H180.768V151.475H184.087V136.405Z" fill="#3B3B46"/>
<path d="M186.487 151.332V148.174C187.193 148.317 188.817 148.605 190.865 148.605C192.56 148.605 193.408 148.389 193.408 147.384C193.408 146.308 192.701 146.165 190.3 145.016C187.97 143.94 186.205 143.007 186.205 140.423C186.205 137.266 188.111 136.189 191.783 136.189C193.69 136.189 195.032 136.333 195.95 136.476V139.634C195.102 139.562 193.619 139.347 191.925 139.347C189.947 139.347 189.524 139.562 189.524 140.423C189.524 141.284 190.583 141.715 192.207 142.433C194.679 143.581 196.656 144.514 196.656 147.384C196.656 150.399 194.82 151.762 190.865 151.762C189.382 151.69 187.899 151.547 186.487 151.332Z" fill="#3B3B46"/>
<path d="M207.108 151.475V145.519H201.812V151.475H198.493V136.405H201.812V142.361H207.108V136.405H210.427V151.475H207.108Z" fill="#3B3B46"/>
<path d="M216.5 136.405H213.181V151.475H216.5V136.405Z" fill="#3B3B46"/>
<path d="M132.324 171.784V161.163L127.875 168.77L123.426 161.163V171.784H120.036V156.714H124.344L127.875 162.814L131.335 156.714H135.713V171.784H132.324Z" fill="#3B3B46"/>
<path d="M137.973 164.249C137.973 158.867 140.021 156.498 144.399 156.498C148.778 156.498 150.826 158.867 150.826 164.249C150.826 169.631 148.778 171.999 144.399 171.999C140.021 171.999 137.973 169.631 137.973 164.249ZM147.295 164.249C147.295 161.163 146.8 159.584 144.329 159.584C141.928 159.584 141.363 161.163 141.363 164.249C141.363 167.335 141.857 168.914 144.329 168.914C146.8 168.914 147.295 167.335 147.295 164.249Z" fill="#3B3B46"/>
<path d="M151.32 156.714H162.69V159.871H158.665V171.784H155.346V159.871H151.32V156.714Z" fill="#3B3B46"/>
<path d="M163.254 164.249C163.254 158.867 165.302 156.498 169.68 156.498C174.058 156.498 176.106 158.867 176.106 164.249C176.106 169.631 174.058 171.999 169.68 171.999C165.302 171.999 163.254 169.631 163.254 164.249ZM172.575 164.249C172.575 161.163 172.081 159.584 169.61 159.584C167.138 159.584 166.644 161.163 166.644 164.249C166.644 167.335 167.138 168.914 169.61 168.914C172.081 168.914 172.575 167.335 172.575 164.249Z" fill="#3B3B46"/>
<path d="M178.295 156.714H184.298C187.476 156.714 189.524 157.934 189.524 161.522C189.524 163.89 188.394 165.397 186.487 165.828L190.159 171.784H186.275L183.168 166.402H181.685V171.784H178.366V156.714H178.295ZM184.157 163.46C185.64 163.46 186.134 162.67 186.134 161.522C186.134 160.374 185.64 159.584 184.157 159.584H181.685V163.46H184.157Z" fill="#3B3B46"/>
<path d="M191.502 171.569V168.412C192.208 168.555 193.832 168.842 195.88 168.842C197.575 168.842 198.422 168.627 198.422 167.622C198.422 166.546 197.716 166.402 195.315 165.254C192.985 164.178 191.219 163.245 191.219 160.661C191.219 157.504 193.126 156.427 196.798 156.427C198.705 156.427 200.046 156.571 200.964 156.714V159.872C200.117 159.8 198.634 159.585 196.939 159.585C194.962 159.585 194.538 159.8 194.538 160.589C194.538 161.451 195.598 161.881 197.222 162.599C199.693 163.747 201.671 164.68 201.671 167.551C201.671 170.565 199.835 171.928 195.88 171.928C194.397 172 192.914 171.857 191.502 171.569Z" fill="#3B3B46"/>
<path d="M174.553 74.9741L160.288 50L146.094 74.9741L160.288 100.02L174.553 74.9741Z" fill="#3B3B46"/>
<path d="M174.553 124.994H202.942L188.748 100.02H160.289L174.553 124.994Z" fill="#3B3B46"/>
<path d="M146.094 124.994H117.706L131.9 100.02H160.288L146.094 124.994Z" fill="#3B3B46"/>
</g>
<defs>
<clipPath id="clip0_92_5654">
<rect width="112" height="122" fill="white" transform="translate(104.5 50)"/>
</clipPath>
</defs>
</svg>
