<svg width="321" height="222" viewBox="0 0 321 222" fill="none" xmlns="http://www.w3.org/2000/svg">
<g clip-path="url(#clip0_92_5948)">
<path d="M83.7442 141.091C85.6788 141.091 86.6461 142.15 86.7429 144.076L87.7102 168.341H79.9717L79.1011 147.446H78.5207L75.8123 161.312C75.5221 163.045 74.3613 163.912 72.5234 163.912H68.0738C66.2359 163.912 65.0751 163.045 64.7849 161.312L62.1732 147.446H61.5928L60.9157 168.245H53.1772L54.1446 143.98C54.2413 142.054 55.2086 140.995 57.1432 140.995H64.5915C66.3326 140.995 67.4934 141.861 67.8803 143.594L69.815 154.379C70.0084 155.727 70.1051 157.075 70.2986 158.423H70.6855C70.879 157.075 70.9757 155.727 71.1692 154.379L73.0071 143.594C73.2973 141.861 74.458 140.995 76.2959 140.995H83.7442V141.091Z" fill="#3B3B46"/>
<path d="M111.796 167.86C107.83 168.438 102.316 168.438 97.5766 168.438C93.8041 168.438 91.1924 165.934 91.1924 162.275V147.061C91.1924 143.402 93.8041 140.898 97.5766 140.898C102.316 140.898 107.83 140.898 111.796 141.38L111.409 147.446H101.349C100.382 147.446 99.7047 148.024 99.7047 148.891V151.49H109.958V157.172H99.7047V160.445C99.7047 161.312 100.382 161.89 101.349 161.89H111.409L111.796 167.86Z" fill="#3B3B46"/>
<path d="M129.498 147.446V168.244H120.889V147.446H113.247V141.091H137.14V147.446H129.498Z" fill="#3B3B46"/>
<path d="M145.071 162.371L143.717 168.245H135.011L142.073 143.209C142.46 141.861 143.62 140.995 144.975 140.995H152.81C154.164 140.995 155.325 141.861 155.712 143.209L162.773 168.245H154.067L152.713 162.371H145.071ZM149.811 150.527C149.618 149.564 149.424 148.409 149.327 147.446H148.263C148.167 148.409 147.973 149.564 147.78 150.527L146.425 156.401H151.165L149.811 150.527Z" fill="#3B3B46"/>
<path d="M172.93 160.06C172.93 160.926 173.607 161.504 174.574 161.504H183.764L184.151 167.859C180.088 168.437 175.251 168.437 170.802 168.437C166.836 168.437 164.321 165.934 164.321 162.274V141.091H172.93V160.06Z" fill="#3B3B46"/>
<path d="M194.985 160.06C194.985 160.926 195.662 161.504 196.629 161.504H205.819L206.206 167.859C202.143 168.437 197.307 168.437 192.857 168.437C188.891 168.437 186.376 165.934 186.376 162.274V141.091H194.985V160.06Z" fill="#3B3B46"/>
<path d="M208.527 168.244V141.091H217.039V168.244H208.527Z" fill="#3B3B46"/>
<path d="M226.422 156.69C221.973 154.764 220.328 152.453 220.328 148.505C220.328 142.343 223.327 140.513 231.549 140.513C234.354 140.513 238.223 140.706 241.512 141.861L241.029 147.35C238.61 147.35 234.838 147.253 231.452 147.253C229.518 147.253 228.937 147.446 228.937 148.313C228.937 149.083 229.421 149.468 231.355 150.142L236.289 152.164C240.835 154.09 242.383 156.497 242.383 160.445C242.383 166.511 239.771 168.726 231.259 168.726C229.421 168.726 225.455 168.63 220.715 167.378L221.199 161.408C225.939 161.504 229.711 161.601 231.162 161.601C233.387 161.601 233.87 161.408 233.87 160.638C233.87 159.867 233.484 159.579 232.033 159.001L226.422 156.69Z" fill="#3B3B46"/>
<path d="M259.988 147.446V168.244H251.379V147.446H243.737V141.091H267.63V147.446H259.988Z" fill="#3B3B46"/>
</g>
<g clip-path="url(#clip1_92_5948)">
<path d="M161.902 66.6571C168.77 70.7013 175.057 74.6492 182.215 78.6934V86.4929L200.981 96.8923C201.174 95.3516 201.271 93.0407 201.271 91.4037C201.271 68.9681 183.086 50.7692 160.547 50.7692C138.009 50.7692 119.824 68.9681 119.824 91.3074C119.824 99.781 122.435 107.677 126.982 114.225C126.982 111.143 126.982 108.158 126.982 105.077C126.982 103.921 127.272 103.247 128.336 102.67C131.238 101.129 134.043 99.3958 136.848 97.8552C137.622 97.3737 137.912 96.8923 137.912 96.0257C137.912 90.6334 137.912 85.3374 137.912 79.9452C137.912 78.886 138.203 78.3082 139.073 77.8268C145.651 74.1677 152.229 70.4124 158.71 66.5608C159.87 65.8868 160.741 65.9831 161.902 66.6571Z" fill="#3B3B46"/>
<path d="M130.948 104.981C131.045 105.174 131.142 105.366 131.335 105.559C133.947 104.115 136.462 102.767 138.977 101.13C138.88 100.937 138.783 100.744 138.687 100.648C136.075 101.996 133.56 103.441 130.948 104.981Z" fill="#3B3B46"/>
<path d="M173.607 79.0796C174.864 79.85 175.542 79.4648 176.412 78.5982C171.092 75.6132 165.965 72.6282 160.742 69.6432C160.258 69.3543 159.387 69.3543 158.904 69.6432C153.68 72.5319 148.554 75.5169 143.233 78.5982C144.297 79.7537 145.168 79.5611 146.329 78.8871C150.391 76.4798 154.551 74.1688 158.614 71.7616C159.484 71.2801 160.065 71.2801 160.935 71.7616C165.191 74.2651 169.447 76.6724 173.607 79.0796Z" fill="#3B3B46"/>
<path d="M152.23 113.42L145.362 108.702V100.132L152.23 104.946V113.42Z" fill="#3B3B46"/>
<path d="M152.23 101.288L145.362 96.5695V87.9997L152.23 92.7179V101.288Z" fill="#3B3B46"/>
<path d="M145.362 112.457V119.679V121.027V128.249L152.23 133.063V125.745V124.493V117.271L145.362 112.457Z" fill="#3B3B46"/>
<path d="M198.853 95.6412L198.563 95.4487C193.34 98.4337 187.633 101.611 182.216 104.693C182.216 99.6854 182.216 94.9672 182.216 89.8638C185.505 91.6933 188.6 93.5229 191.695 95.2561C192.276 95.6412 193.146 95.545 193.823 95.7375C193.92 95.545 193.92 95.3524 194.017 95.1598C190.631 93.234 187.246 91.2119 183.763 89.2861C182.022 88.3232 182.022 88.3232 182.216 85.7233V79.0793C178.637 81.1014 175.154 83.1235 171.769 85.0493C168.383 86.9751 164.998 88.9009 161.612 90.8267C160.548 91.4045 160.258 92.0785 160.258 93.234C160.258 106.137 160.258 118.944 160.258 131.846C160.355 131.846 160.355 131.846 160.451 131.846C162.87 131.846 165.288 131.654 167.706 131.172V127.899V126.647V119.329L174.671 114.514V121.736V122.988V129.15C176.315 128.573 177.863 127.802 179.411 127.032C179.411 127.032 180.088 126.647 181.248 125.973C181.635 125.78 182.022 125.491 182.409 125.299L182.506 125.202C183.086 124.817 183.57 124.528 184.15 124.143C184.15 124.143 184.15 124.143 184.15 124.047C184.827 123.565 185.505 123.084 186.182 122.506V122.603C188.116 121.062 189.857 119.329 191.502 117.403C193.436 115.188 195.274 112.588 196.725 109.603C196.822 109.411 196.919 109.218 197.016 108.929C197.112 108.737 197.209 108.448 197.402 108.255C199.144 104.596 200.401 100.648 200.981 96.6041L198.853 95.6412ZM174.671 110.855L167.706 115.67V107.1L174.671 102.285V110.855ZM174.671 98.6262L167.706 103.441V94.8709L174.671 90.0564V98.6262Z" fill="#3B3B46"/>
</g>
<defs>
<clipPath id="clip0_92_5948">
<rect width="216" height="29.5612" fill="white" transform="translate(52.5 142.439)"/>
</clipPath>
<clipPath id="clip1_92_5948">
<rect width="82.5114" height="83.7727" fill="white" transform="translate(119.244 49.9998)"/>
</clipPath>
</defs>
</svg>
