<svg width="80" height="24" viewBox="0 0 80 24" fill="none" xmlns="http://www.w3.org/2000/svg">
<rect width="80" height="24" fill="white"/>
<path d="M21.8933 15.1574C20.5933 15.1574 19.3751 14.6047 18.2684 13.7051L18.5379 12.4352L18.5496 12.3881C18.7896 11.0359 19.5509 8.76629 21.8933 8.76629C23.6501 8.76629 25.079 10.201 25.079 11.9647C25.073 13.7227 23.6443 15.1574 21.8933 15.1574ZM21.8933 5.52676C18.9008 5.52676 16.582 7.47876 15.6392 10.689C14.1986 8.51939 13.1093 5.91484 12.4711 3.72174H9.25032V12.1352C9.25032 13.7933 7.90342 15.1454 6.25201 15.1454C4.6006 15.1454 3.25385 13.7933 3.25385 12.1352V3.72174H0.0327516V12.1352C0.0210339 15.5807 2.81436 18.4086 6.24592 18.4086C9.67762 18.4086 12.471 15.5807 12.471 12.1352V10.7243C13.0975 12.0353 13.8646 13.3581 14.7957 14.5341L12.8222 23.8471H16.1192L17.548 17.0916C18.8011 17.8971 20.2418 18.4028 21.8932 18.4028C25.4243 18.4028 28.2996 15.4984 28.2996 11.953C28.2996 8.41351 25.4243 5.52676 21.8932 5.52676H21.8933Z" fill="#6FDA44"/>
<path d="M38.1317 5.8912L40.2105 14.3047L42.5003 5.8912H45.2291L41.7098 18.05H38.9808L36.8201 9.58344L34.665 18.044H31.9362L28.4165 5.8854H31.1455L33.4351 14.2989L35.514 5.8854H38.1315V5.89136L38.1317 5.8912ZM51.7585 5.52666C48.2157 5.52666 45.3463 8.4134 45.3463 11.9646C45.3463 15.5218 48.2215 18.4027 51.7585 18.4027C55.3015 18.4027 58.1767 15.5218 58.1767 11.9646C58.1767 8.4076 55.3015 5.52666 51.7585 5.52666ZM51.7585 15.7569C49.6739 15.7569 47.9873 14.0636 47.9873 11.9706C47.9873 9.8774 49.6797 8.18422 51.7585 8.18422C53.8433 8.18422 55.5297 9.8774 55.5297 11.9706C55.5297 14.0578 53.8433 15.7569 51.7585 15.7569ZM65.9709 8.6134C64.1381 8.6134 62.6566 10.1067 62.6566 11.9411V18.044H59.9099V5.8912H62.6566V7.76085C62.6566 7.76085 63.8277 5.88524 66.2345 5.88524H67.0777V8.6134H65.9709ZM75.1883 11.4943C77.1382 10.3889 78.4618 8.28995 78.4618 5.88524H75.7152C75.7152 7.91364 74.0756 9.55991 72.0554 9.55991H71.6863V0.0234375H68.94V18.0438H71.6863V12.3174H72.0144C72.2838 12.3174 72.6352 12.4939 72.7933 12.7113L76.6932 18.044H79.9843L75.1883 11.4943Z" fill="#3B3B46"/>
</svg>
