<svg width="40" height="40" viewBox="0 0 40 40" fill="none" xmlns="http://www.w3.org/2000/svg">
<circle cx="20" cy="20" r="20" fill="#7360F2"/>
<path d="M29.7126 10.4856C29.0429 9.91303 26.3643 7.93496 20.4918 7.93496C20.4918 7.93496 13.5376 7.51853 10.1378 10.6418C8.23184 12.5678 7.56218 15.3267 7.51067 18.8143C7.45915 22.2499 7.35613 28.7567 13.5376 30.5266V33.1814C13.5376 33.1814 13.4861 34.2745 14.2073 34.5348C15.083 34.795 15.5466 33.9622 16.3708 33.0772C16.8344 32.5567 17.4526 31.88 17.9162 31.3074C22.1402 31.6718 25.3855 30.8389 25.7976 30.7348C26.6218 30.4225 31.464 29.7978 32.2367 23.3431C33.0609 16.628 31.8761 12.4116 29.7126 10.4856ZM30.3823 22.8225C29.7641 28.2362 25.7976 28.6006 25.0765 28.8608C24.7674 28.9129 21.9342 29.6417 18.3283 29.4334C18.3283 29.4334 15.6497 32.6608 14.8255 33.5457C14.5679 33.806 14.2588 33.806 14.2588 33.2334C14.2588 32.869 14.2588 28.7567 14.2588 28.7567C9.05604 27.2992 9.36512 21.7814 9.41663 18.9184C9.46815 16.0034 9.98327 13.6609 11.5802 12.0473C14.4649 9.39248 20.3888 9.80892 20.3888 9.80892C25.3855 9.80892 27.7551 11.3706 28.3218 11.839C30.1762 13.4527 31.1034 17.2527 30.3823 22.8225ZM23.222 18.6582C23.1705 17.1486 22.3978 16.3157 20.9555 16.2116C20.4918 16.2116 20.4403 16.8883 20.9039 16.8883C21.9857 16.9924 22.5008 17.513 22.6039 18.6582C22.6039 19.1267 23.2735 19.0746 23.222 18.6582ZM24.3038 19.2308C24.3038 19.6472 24.9734 19.6993 24.9734 19.2308C25.025 16.7322 23.4281 14.65 20.4403 14.4418C19.9767 14.3897 19.9252 15.0664 20.3888 15.1185C22.9644 15.2746 24.3553 17.0445 24.3038 19.2308ZM26.7249 19.9075C26.6734 15.3787 23.6341 12.724 19.8222 12.6719C19.4101 12.6719 19.4101 13.3486 19.8222 13.3486C23.222 13.4007 26.0037 15.6911 26.0552 19.9075C26.0552 20.376 26.7249 20.376 26.7249 19.9075ZM26.1067 25.0088C26.3643 24.5403 26.3128 24.1239 25.9522 23.8116C25.2825 23.1869 24.3553 22.5102 23.5826 22.0938C23.016 21.7814 22.4493 21.9897 22.1918 22.302L21.7281 22.9266C21.4706 23.239 21.007 23.1869 21.007 23.1869C17.5556 22.302 16.6284 18.8143 16.6284 18.8143C16.6284 18.8143 16.6284 18.3458 16.9375 18.0856L17.5556 17.565C17.8647 17.3048 18.0192 16.7322 17.7102 16.1596C17.5556 15.8472 17.195 15.2746 16.9375 14.9623C16.6799 14.5459 16.0102 13.8171 16.0102 13.8171C15.7527 13.4007 15.2891 13.3486 14.8255 13.6089H14.7739C13.7952 14.1294 12.7134 15.2226 13.074 16.2637C13.074 16.2637 13.3316 17.2006 14.4134 19.1787C14.9285 20.1677 15.4951 20.9486 16.0102 21.6253C16.5769 22.354 17.3496 23.1349 18.1738 23.8116C19.8222 25.1129 22.3463 26.4663 23.4281 26.7787H23.4796C24.5098 27.143 25.5916 26.0499 26.1067 25.0609V25.0088Z" fill="white"/>
</svg>
