<svg width="120" height="120" viewBox="0 0 120 120" fill="none" xmlns="http://www.w3.org/2000/svg">
<rect width="120" height="120" rx="60" fill="white"/>
<path d="M50.8957 91.1999H43.692C43.1536 91.1999 42.717 90.7634 42.717 90.2249V78.1958C42.717 77.6573 43.1536 77.2208 43.692 77.2208H50.8957C51.4341 77.2208 51.8707 77.6573 51.8707 78.1958V90.2249C51.8707 90.7634 51.4341 91.1999 50.8957 91.1999ZM44.667 89.2499H49.9207V79.1708H44.667V89.2499Z" fill="#FF5C39"/>
<path d="M87.8138 91.1999H80.6102C80.0717 91.1999 79.6352 90.7634 79.6352 90.2249V78.0171C79.6352 77.4786 80.0717 77.0421 80.6102 77.0421H87.8138C88.3523 77.0421 88.7888 77.4786 88.7888 78.0171V90.2249C88.7888 90.7634 88.3523 91.1999 87.8138 91.1999ZM81.5852 89.2499H86.8388V78.9921H81.5852V89.2499Z" fill="#FF5C39"/>
<path d="M75.5076 91.1999H68.304C67.7656 91.1999 67.329 90.7634 67.329 90.2249V79.8432C67.329 79.3047 67.7656 78.8682 68.304 78.8682H75.5076C76.0461 78.8682 76.4826 79.3047 76.4826 79.8432V90.2249C76.4826 90.7634 76.0461 91.1999 75.5076 91.1999ZM69.279 89.2499H74.5326V80.8182H69.279V89.2499Z" fill="#FF5C39"/>
<path d="M63.2018 91.2002H55.9982C55.4597 91.2002 55.0232 90.7637 55.0232 90.2252V72.8511C55.0232 72.3126 55.4597 71.8761 55.9982 71.8761H63.2018C63.7403 71.8761 64.1768 72.3126 64.1768 72.8511V90.2252C64.1768 90.7637 63.7403 91.2002 63.2018 91.2002ZM56.9732 89.2502H62.2268V73.8261H56.9732V89.2502Z" fill="#FF5C39"/>
<path d="M38.5899 91.1999H31.3863C30.8478 91.1999 30.4113 90.7634 30.4113 90.2249V72.3048C30.4113 71.7663 30.8478 71.3298 31.3863 71.3298H38.5899C39.1284 71.3298 39.5649 71.7663 39.5649 72.3048V90.2249C39.5649 90.7634 39.1284 91.1999 38.5899 91.1999ZM32.3613 89.2499H37.6149V73.2798H32.3613V89.2499Z" fill="#FF5C39"/>
<path d="M70.5545 73.3541C70.3929 73.3541 70.2291 73.3139 70.0781 73.2292L60.4732 67.8378C60.0036 67.5742 59.8366 66.9799 60.1002 66.5104C60.3637 66.0407 60.9581 65.8739 61.4276 66.1373L71.0326 71.5287C71.5022 71.7923 71.6691 72.3866 71.4056 72.8561C71.2268 73.1748 70.8956 73.3541 70.5545 73.3541Z" fill="#FF5C39"/>
<path d="M46.0414 71.9272C45.8607 71.9272 45.6779 71.8771 45.5147 71.772L35.7119 65.4646C35.2591 65.1732 35.1282 64.57 35.4195 64.1171C35.7109 63.6643 36.3142 63.5333 36.767 63.8248L46.5698 70.1322C47.0227 70.4236 47.1536 71.0269 46.8622 71.4797C46.6759 71.7693 46.3619 71.9272 46.0414 71.9272Z" fill="#FF5C39"/>
<path d="M48.7188 72.1131C48.3462 72.1131 47.9906 71.8984 47.8284 71.5364C47.6083 71.045 47.8282 70.4682 48.3196 70.248L57.7768 66.012C58.2681 65.792 58.845 66.0119 59.0652 66.5033C59.2853 66.9947 59.0653 67.5715 58.5739 67.7917L49.1168 72.0277C48.9873 72.0856 48.852 72.1131 48.7188 72.1131Z" fill="#FF5C39"/>
<path d="M73.5865 73.8611C73.2102 73.8611 72.8518 73.642 72.692 73.275C72.4771 72.7812 72.7031 72.2068 73.1969 71.9919L82.1429 68.098C82.6366 67.8831 83.2111 68.109 83.426 68.6028C83.641 69.0966 83.4149 69.671 82.9212 69.8859L73.9751 73.7798C73.8484 73.835 73.7164 73.8611 73.5865 73.8611Z" fill="#FF5C39"/>
<path d="M84.2118 71.0679C82.664 71.0679 81.4047 69.8086 81.4047 68.2607C81.4047 66.7128 82.664 65.4535 84.2118 65.4535C85.7597 65.4535 87.019 66.7128 87.019 68.2607C87.019 69.8086 85.7597 71.0679 84.2118 71.0679ZM84.2118 67.4035C83.7392 67.4035 83.3547 67.788 83.3547 68.2607C83.3547 68.7334 83.7392 69.1179 84.2118 69.1179C84.6845 69.1179 85.069 68.7334 85.069 68.2607C85.069 67.788 84.6845 67.4035 84.2118 67.4035Z" fill="#FF5C39"/>
<path d="M71.9061 76.4239C70.3582 76.4239 69.0989 75.1646 69.0989 73.6166C69.0989 72.0687 70.3582 70.8094 71.9061 70.8094C73.454 70.8094 74.7133 72.0687 74.7133 73.6166C74.7133 75.1646 73.454 76.4239 71.9061 76.4239ZM71.9061 72.7595C71.4335 72.7595 71.0489 73.144 71.0489 73.6167C71.0489 74.0893 71.4335 74.4739 71.9061 74.4739C72.3788 74.4739 72.7633 74.0893 72.7633 73.6167C72.7633 73.144 72.3788 72.7595 71.9061 72.7595Z" fill="#FF5C39"/>
<path d="M59.6 68.5569C58.0521 68.5569 56.7928 67.2976 56.7928 65.7497C56.7928 64.2018 58.0521 62.9425 59.6 62.9425C61.1479 62.9425 62.4072 64.2018 62.4072 65.7497C62.4072 67.2976 61.1479 68.5569 59.6 68.5569ZM59.6 64.8925C59.1274 64.8925 58.7429 65.2771 58.7429 65.7498C58.7429 66.2224 59.1274 66.607 59.6 66.607C60.0727 66.607 60.4572 66.2224 60.4572 65.7498C60.4572 65.2771 60.0727 64.8925 59.6 64.8925Z" fill="#FF5C39"/>
<path d="M47.2935 75.0974C45.7456 75.0974 44.4863 73.8382 44.4863 72.2903C44.4863 70.7423 45.7456 69.483 47.2935 69.483C48.8414 69.483 50.1007 70.7423 50.1007 72.2903C50.1007 73.8382 48.8414 75.0974 47.2935 75.0974ZM47.2935 71.4331C46.8209 71.4331 46.4363 71.8176 46.4363 72.2903C46.4363 72.763 46.8208 73.1475 47.2935 73.1475C47.7662 73.1475 48.1507 72.763 48.1507 72.2903C48.1507 71.8176 47.7662 71.4331 47.2935 71.4331Z" fill="#FF5C39"/>
<path d="M34.9882 66.1137C33.4403 66.1137 32.181 64.8544 32.181 63.3065C32.181 61.7586 33.4403 60.4993 34.9882 60.4993C36.5361 60.4993 37.7954 61.7586 37.7954 63.3065C37.7954 64.8544 36.5361 66.1137 34.9882 66.1137ZM34.9882 62.4493C34.5155 62.4493 34.131 62.8338 34.131 63.3065C34.131 63.7792 34.5155 64.1637 34.9882 64.1637C35.4609 64.1637 35.8454 63.7792 35.8454 63.3065C35.8454 62.8338 35.4609 62.4493 34.9882 62.4493Z" fill="#FF5C39"/>
<path d="M59.6 49.1532C59.0615 49.1532 58.625 48.7166 58.625 48.1782V47.7926C58.625 47.2541 59.0615 46.8176 59.6 46.8176C60.1385 46.8176 60.575 47.2541 60.575 47.7926V48.1782C60.575 48.7166 60.1385 49.1532 59.6 49.1532Z" fill="#FF5C39"/>
<path d="M59.6 41.8183C59.0615 41.8183 58.625 41.3818 58.625 40.8433V40.459C58.625 39.9205 59.0615 39.484 59.6 39.484C60.1385 39.484 60.575 39.9205 60.575 40.459V40.8433C60.575 41.3818 60.1385 41.8183 59.6 41.8183Z" fill="#FF5C39"/>
<path d="M62.2833 44.5544L62.2796 44.5487C62.0513 44.2136 61.7052 43.9373 61.2502 43.7273C60.9626 43.5965 60.4466 43.4466 59.7166 43.2812C58.7985 43.0736 58.6185 42.9221 58.6165 42.9205C58.5458 42.8571 58.5157 42.7864 58.5157 42.6832C58.5157 42.5565 58.575 42.4501 58.7026 42.3477C58.809 42.2624 59.0443 42.1608 59.5594 42.1608C59.9449 42.1608 60.2382 42.2343 60.4072 42.3733C60.5177 42.4639 60.5986 42.5931 60.6469 42.756C60.7586 43.1334 61.0954 43.3869 61.485 43.3869C61.5066 43.3869 61.5293 43.3861 61.5557 43.384L61.5626 43.3836C61.8279 43.3633 62.0668 43.2272 62.2187 43.0099C62.3698 42.7933 62.4153 42.5244 62.3438 42.2713C62.2776 42.0373 62.1761 41.8155 62.042 41.6116C61.793 41.2325 61.4371 40.9433 60.9833 40.7523C60.5584 40.5732 60.0672 40.4822 59.5241 40.4822C59.026 40.4822 58.5637 40.5687 58.1501 40.7397C57.7053 40.9234 57.3591 41.2012 57.1215 41.5656C56.8855 41.9268 56.766 42.3225 56.766 42.7409C56.766 43.1277 56.8672 43.4836 57.0662 43.7988C57.2616 44.1084 57.5546 44.3671 57.9381 44.5682L57.9441 44.5711C58.22 44.7157 58.6782 44.8652 59.3059 45.0159C59.8746 45.1524 60.2577 45.2568 60.4146 45.3178C60.6538 45.4092 60.7578 45.4973 60.8029 45.5554C60.8582 45.6265 60.885 45.7102 60.885 45.8114C60.885 45.9158 60.8529 46.0108 60.7867 46.1026C60.7168 46.1997 60.5966 46.2818 60.4288 46.3468C60.2301 46.424 59.9916 46.463 59.7207 46.463C59.4144 46.463 59.1381 46.4106 58.9005 46.307C58.686 46.214 58.5312 46.0982 58.4402 45.9629C58.3809 45.8743 58.3329 45.7659 58.2984 45.6395C58.1932 45.256 57.8434 44.9879 57.4473 44.9879C57.4205 44.9879 57.3941 44.9891 57.3709 44.9911C57.1158 45.0135 56.8834 45.1451 56.7335 45.3523C56.5828 45.5607 56.5304 45.824 56.5893 46.0742C56.6596 46.3728 56.7811 46.6547 56.9501 46.9119C57.2267 47.3328 57.6106 47.6517 58.092 47.8589C58.5474 48.0551 59.1089 48.1546 59.7601 48.1546C60.2906 48.1546 60.7781 48.0547 61.2092 47.8572C61.6605 47.6513 62.0148 47.3535 62.2618 46.972C62.5088 46.5906 62.6339 46.1762 62.6339 45.7403C62.6339 45.2991 62.5161 44.8997 62.2833 44.5544Z" fill="#FF5C39"/>
<path d="M61.4582 60.3241H57.741C56.9263 60.3241 56.2635 59.6613 56.2635 58.8466V56.33C55.2862 56.0595 54.35 55.6714 53.466 55.1701L51.6859 56.9502C51.4068 57.2293 51.0358 57.383 50.641 57.383C50.2462 57.383 49.8751 57.2293 49.5961 56.9502L46.9676 54.3218C46.3915 53.7456 46.3915 52.8082 46.9676 52.232L48.7478 50.4518C48.2467 49.5677 47.8584 48.6315 47.5879 47.6544H45.0713C44.2565 47.6544 43.5938 46.9916 43.5938 46.1769V42.4597C43.5938 41.645 44.2565 40.9822 45.0713 40.9822H47.5879C47.8584 40.0049 48.2466 39.0686 48.7478 38.1847L46.9677 36.4046C46.6886 36.1256 46.5349 35.7545 46.5349 35.3597C46.5349 34.9649 46.6886 34.5938 46.9677 34.3148L49.5961 31.6863C49.8751 31.4073 50.2462 31.2536 50.641 31.2536C51.0358 31.2536 51.4069 31.4073 51.6859 31.6863L53.4661 33.4666C54.3502 32.9654 55.2864 32.5771 56.2635 32.3066V29.79C56.2635 28.9753 56.9263 28.3125 57.741 28.3125H61.4582C62.2729 28.3125 62.9357 28.9753 62.9357 29.79V32.3067C63.913 32.5771 64.8493 32.9654 65.7332 33.4666L67.5133 31.6864C68.0894 31.1103 69.0269 31.1103 69.6031 31.6864L72.2315 34.3148C72.5105 34.5939 72.6642 34.965 72.6642 35.3598C72.6642 35.7545 72.5106 36.1256 72.2315 36.4047L70.4513 38.1849C70.9526 39.069 71.3407 40.0052 71.6112 40.9823H74.1279C74.9426 40.9823 75.6054 41.6451 75.6054 42.4598V46.177C75.6054 46.9917 74.9426 47.6545 74.1279 47.6545H71.6113C71.3408 48.6318 70.9526 49.568 70.4514 50.4519L72.2315 52.2321C72.8077 52.8083 72.8077 53.7457 72.2315 54.3219L69.6031 56.9503C69.0269 57.5265 68.0894 57.5265 67.5133 56.9503L65.7331 55.1701C64.849 55.6713 63.9128 56.0595 62.9358 56.33V58.8467C62.9357 59.6614 62.2729 60.3241 61.4582 60.3241ZM58.2135 58.3742H60.9857V55.5637C60.9857 55.1022 61.3094 54.7038 61.7612 54.6094C63.0413 54.3418 64.2477 53.8417 65.347 53.1228C65.7332 52.8701 66.2436 52.923 66.57 53.2493L68.5582 55.2375L70.5187 53.277L68.5306 51.2888C68.2042 50.9624 68.1514 50.4519 68.4041 50.0656C69.1229 48.9669 69.623 47.7605 69.8906 46.48C69.9851 46.0282 70.3834 45.7045 70.845 45.7045H73.6554V42.9322H70.845C70.3834 42.9322 69.9851 42.6085 69.8906 42.1567C69.623 40.8766 69.1229 39.6702 68.404 38.571C68.1514 38.1847 68.2042 37.6742 68.5306 37.3479L70.5187 35.3598L68.5582 33.3992L66.57 35.3874C66.2437 35.7138 65.733 35.7666 65.3468 35.5139C64.2482 34.7951 63.0418 34.295 61.7612 34.0274C61.3094 33.9329 60.9857 33.5346 60.9857 33.073V30.2625H58.2135V33.0729C58.2135 33.5345 57.8898 33.9328 57.438 34.0273C56.1578 34.2949 54.9514 34.7951 53.8522 35.5139C53.4659 35.7665 52.9555 35.7137 52.6291 35.3874L50.641 33.3992L48.6804 35.3597L50.6686 37.3479C50.995 37.6743 51.0477 38.1848 50.7951 38.5711C50.0763 39.6697 49.5762 40.8761 49.3086 42.1566C49.2141 42.6085 48.8158 42.9322 48.3541 42.9322H45.5438V45.7045H48.3542C48.8158 45.7045 49.2141 46.0281 49.3086 46.48C49.5761 47.7602 50.0763 48.9666 50.7952 50.0657C51.0478 50.452 50.995 50.9625 50.6686 51.2888L48.6804 53.277L50.641 55.2375L52.6291 53.2493C52.9555 52.9229 53.4661 52.8701 53.8523 53.1228C54.9511 53.8417 56.1574 54.3418 57.4379 54.6093C57.8898 54.7038 58.2135 55.1021 58.2135 55.5637V58.3742ZM57.2385 33.0729H57.2389H57.2385Z" fill="#FF5C39"/>
<path d="M59.6 52.2719C55.2144 52.2719 51.6464 48.7039 51.6464 44.3183C51.6464 39.9327 55.2144 36.3647 59.6 36.3647C63.9856 36.3647 67.5536 39.9327 67.5536 44.3183C67.5536 48.7039 63.9856 52.2719 59.6 52.2719ZM59.6 38.3147C56.2896 38.3147 53.5964 41.0079 53.5964 44.3183C53.5964 47.6287 56.2896 50.3219 59.6 50.3219C62.9104 50.3219 65.6036 47.6287 65.6036 44.3183C65.6036 41.0079 62.9104 38.3147 59.6 38.3147Z" fill="#FF5C39"/>
</svg>
