<svg width="120" height="120" viewBox="0 0 120 120" fill="none" xmlns="http://www.w3.org/2000/svg">
<rect width="120" height="120" rx="60" fill="white"/>
<g clip-path="url(#clip0_682_77603)">
<path d="M65 40C62.0333 40 59.1332 40.8797 56.6665 42.528C54.1997 44.1762 52.2771 46.5189 51.1418 49.2597C50.0065 52.0006 49.7094 55.0166 50.2882 57.9264C50.867 60.8361 52.2956 63.5088 54.3934 65.6066C56.4912 67.7044 59.1639 69.133 62.0737 69.7118C64.9834 70.2906 67.9994 69.9935 70.7403 68.8582C73.4811 67.7229 75.8238 65.8003 77.4721 63.3336C79.1203 60.8668 80 57.9667 80 55C79.9956 51.0231 78.4138 47.2104 75.6017 44.3983C72.7896 41.5862 68.9769 40.0044 65 40ZM65 68C62.4289 68 59.9154 67.2376 57.7776 65.8091C55.6398 64.3806 53.9735 62.3503 52.9896 59.9749C52.0056 57.5994 51.7482 54.9856 52.2498 52.4638C52.7514 49.9421 53.9895 47.6257 55.8076 45.8076C57.6257 43.9895 59.9421 42.7514 62.4638 42.2498C64.9856 41.7482 67.5995 42.0056 69.9749 42.9896C72.3503 43.9735 74.3807 45.6397 75.8091 47.7776C77.2376 49.9154 78 52.4288 78 55C77.9961 58.4466 76.6252 61.751 74.1881 64.1881C71.751 66.6252 68.4466 67.9961 65 68Z" fill="#FF5C39"/>
<path d="M66.1924 48H66V47.083C66 46.8178 65.8946 46.5634 65.7071 46.3759C65.5196 46.1884 65.2652 46.083 65 46.083C64.7348 46.083 64.4804 46.1884 64.2929 46.3759C64.1054 46.5634 64 46.8178 64 47.083V48H63.8076C62.8784 48 61.9812 48.3398 61.2851 48.9554C60.589 49.571 60.1421 50.4199 60.0286 51.3422C59.9151 52.2645 60.1428 53.1964 60.6688 53.9625C61.1948 54.7285 61.9828 55.2757 62.8843 55.501L64 55.78V60H63.8076C63.3284 59.9994 62.869 59.8087 62.5301 59.4699C62.1913 59.131 62.0006 58.6716 62 58.1924V58C62 57.7348 61.8946 57.4804 61.7071 57.2929C61.5196 57.1054 61.2652 57 61 57C60.7348 57 60.4804 57.1054 60.2929 57.2929C60.1054 57.4804 60 57.7348 60 58V58.1924C60.0011 59.2019 60.4026 60.1697 61.1164 60.8836C61.8303 61.5974 62.7981 61.9989 63.8076 62H64V62.917C64 63.1822 64.1054 63.4366 64.2929 63.6241C64.4804 63.8117 64.7348 63.917 65 63.917C65.2652 63.917 65.5196 63.8117 65.7071 63.6241C65.8946 63.4366 66 63.1822 66 62.917V62H66.1924C67.1216 62.0001 68.0188 61.6603 68.7149 61.0447C69.411 60.429 69.8579 59.5801 69.9714 58.6578C70.0849 57.7356 69.8572 56.8036 69.3312 56.0376C68.8052 55.2715 68.0172 54.7243 67.1157 54.499L66 54.22V50H66.1924C66.6716 50.0006 67.131 50.1913 67.4699 50.5301C67.8087 50.869 67.9994 51.3284 68 51.8076V52C68 52.2652 68.1054 52.5196 68.2929 52.7071C68.4804 52.8947 68.7348 53 69 53C69.2652 53 69.5196 52.8947 69.7071 52.7071C69.8946 52.5196 70 52.2652 70 52V51.8076C69.9989 50.7981 69.5974 49.8303 68.8836 49.1165C68.1697 48.4026 67.2019 48.0011 66.1924 48ZM66.6304 56.4385C67.0584 56.5454 67.4326 56.8052 67.6824 57.1689C67.9321 57.5326 68.0403 57.9751 67.9864 58.413C67.9326 58.8509 67.7205 59.2539 67.39 59.5463C67.0595 59.8386 66.6336 60 66.1924 60H66V56.2807L66.6304 56.4385ZM64 53.7193L63.37 53.5615C62.942 53.4546 62.5679 53.1948 62.3181 52.8312C62.0683 52.4676 61.9601 52.0251 62.0139 51.5873C62.0677 51.1494 62.2798 50.7463 62.6102 50.4539C62.9406 50.1616 63.3664 50.0001 63.8076 50H64V53.7193Z" fill="#FF5C39"/>
<path d="M87 72C86.0201 72 85.0622 72.2899 84.2468 72.8332L79.1021 67.688C82.254 64.2138 83.9999 59.6909 83.9999 55.0001C83.9999 50.3092 82.254 45.7863 79.1021 42.3122L84.2467 37.1668C85.2833 37.8531 86.5379 38.1299 87.7671 37.9436C88.9964 37.7573 90.1126 37.1212 90.8993 36.1585C91.686 35.1958 92.0872 33.9753 92.025 32.7336C91.9627 31.4919 91.4416 30.3175 90.5626 29.4383C89.6835 28.5591 88.5093 28.0377 87.2676 27.9752C86.0259 27.9127 84.8053 28.3136 83.8425 29.1001C82.8796 29.8867 82.2432 31.0028 82.0566 32.2319C81.8701 33.4611 82.1467 34.7158 82.8328 35.7526L77.6881 40.8981C74.2139 37.7461 69.6909 36 65 36C60.309 36 55.786 37.7461 52.3119 40.8981L47.1671 35.7526C47.853 34.716 48.1295 33.4616 47.9429 32.2327C47.7563 31.0038 47.12 29.888 46.1574 29.1017C45.1948 28.3154 43.9744 27.9146 42.733 27.9771C41.4916 28.0396 40.3177 28.5609 39.4389 29.4399C38.5601 30.3189 38.039 31.4929 37.9768 32.7344C37.9146 33.9758 38.3156 35.196 39.1021 36.1585C39.8886 37.121 41.0046 37.757 42.2335 37.9433C43.4624 38.1296 44.7167 37.8529 45.7532 37.1668L50.8979 42.312C48.2434 45.2394 46.5735 48.9255 46.1233 52.8516C45.673 56.7776 46.465 60.746 48.3879 64.1985L45 67.5859L42.707 65.293C42.6142 65.2001 42.5039 65.1264 42.3826 65.0761C42.2613 65.0258 42.1313 64.9999 42 64.9999C41.8687 64.9999 41.7386 65.0258 41.6173 65.0761C41.496 65.1264 41.3858 65.2001 41.293 65.293L38.293 68.293C38.2001 68.3858 38.1264 68.496 38.0761 68.6173C38.0258 68.7386 37.9999 68.8686 37.9999 69C37.9999 69.1313 38.0258 69.2613 38.0761 69.3826C38.1264 69.5039 38.2001 69.6141 38.293 69.707L39.5859 71L29.95 80.6357C29.3275 81.2528 28.833 81.9869 28.4949 82.7956C28.1568 83.6044 27.9818 84.472 27.9799 85.3486C27.978 86.2251 28.1492 87.0935 28.4838 87.9037C28.8183 88.7139 29.3096 89.4501 29.9295 90.07C30.5493 90.6898 31.2854 91.1812 32.0957 91.5158C32.9059 91.8504 33.7742 92.0217 34.6508 92.0198C35.5274 92.018 36.395 91.843 37.2037 91.5049C38.0125 91.1669 38.7466 90.6724 39.3638 90.05L49 80.4141L50.293 81.707C50.3858 81.7999 50.496 81.8736 50.6173 81.9238C50.7386 81.9741 50.8687 82 51 82C51.1313 82 51.2613 81.9741 51.3826 81.9238C51.504 81.8736 51.6142 81.7999 51.707 81.707L54.707 78.707C54.7999 78.6141 54.8736 78.5039 54.9239 78.3826C54.9741 78.2613 55 78.1313 55 78C55 77.8686 54.9741 77.7386 54.9239 77.6173C54.8736 77.496 54.7999 77.3858 54.707 77.293L52.4141 75L55.8015 71.6125C59.2539 73.5353 63.2223 74.3273 67.1484 73.8771C71.0744 73.4268 74.7605 71.757 77.688 69.1025L82.8329 74.2478C82.221 75.1768 81.9368 76.2835 82.0252 77.3924C82.1136 78.5014 82.5697 79.549 83.321 80.3694C84.0724 81.1897 85.0761 81.7358 86.173 81.921C87.2699 82.1063 88.3973 81.92 89.3763 81.3919C90.3554 80.8638 91.1302 80.0239 91.5779 79.0056C92.0255 77.9872 92.1204 76.8485 91.8476 75.77C91.5747 74.6916 90.9496 73.7351 90.0715 73.0521C89.1934 72.3692 88.1124 71.9989 87 72ZM87 30C87.5933 30 88.1733 30.1759 88.6667 30.5055C89.16 30.8352 89.5446 31.3037 89.7716 31.8519C89.9987 32.4001 90.0581 33.0033 89.9423 33.5852C89.8266 34.1672 89.5409 34.7017 89.1213 35.1213C88.7017 35.5408 88.1672 35.8266 87.5852 35.9423C87.0033 36.0581 86.4001 35.9987 85.8519 35.7716C85.3037 35.5445 84.8352 35.16 84.5056 34.6667C84.1759 34.1733 84 33.5933 84 33C84.0009 32.2046 84.3172 31.442 84.8796 30.8796C85.442 30.3172 86.2046 30.0008 87 30ZM40 33C40 32.4066 40.1759 31.8266 40.5056 31.3332C40.8352 30.8399 41.3037 30.4554 41.8519 30.2283C42.4001 30.0013 43.0033 29.9418 43.5852 30.0576C44.1672 30.1734 44.7017 30.4591 45.1213 30.8786C45.5409 31.2982 45.8266 31.8327 45.9423 32.4147C46.0581 32.9966 45.9987 33.5998 45.7716 34.148C45.5446 34.6962 45.16 35.1647 44.6667 35.4944C44.1733 35.824 43.5933 36 43 36C42.2046 35.9991 41.442 35.6827 40.8796 35.1203C40.3172 34.5579 40.0008 33.7953 40 33ZM37.95 88.6357C37.0767 89.509 35.8922 89.9997 34.6571 89.9998C33.4219 89.9998 32.2374 89.5092 31.364 88.6359C30.4906 87.7626 30 86.5781 29.9999 85.343C29.9999 84.1079 30.4905 82.9233 31.3638 82.05L41 72.4141L47.5859 79L37.95 88.6357ZM51 79.5859L40.4141 69L42 67.4141L52.5859 78L51 79.5859ZM51 73.5859L46.4141 69L49.4683 65.9463C50.7235 67.7257 52.2744 69.2767 54.0537 70.5322L51 73.5859ZM48 55C48 51.6377 48.997 48.3509 50.865 45.5553C52.733 42.7596 55.388 40.5807 58.4944 39.294C61.6007 38.0073 65.0188 37.6707 68.3165 38.3266C71.6142 38.9826 74.6433 40.6017 77.0208 42.9791C79.3983 45.3566 81.0174 48.3857 81.6733 51.6834C82.3293 54.9811 81.9926 58.3992 80.7059 61.5056C79.4192 64.6119 77.2403 67.267 74.4447 69.1349C71.649 71.0029 68.3623 72 65 72C60.4928 71.9949 56.1717 70.2023 52.9847 67.0152C49.7977 63.8282 48.005 59.5071 48 55ZM87 80C86.4066 80 85.8266 79.824 85.3333 79.4944C84.8399 79.1647 84.4554 78.6962 84.2283 78.148C84.0013 77.5998 83.9419 76.9966 84.0576 76.4147C84.1734 75.8327 84.4591 75.2982 84.8787 74.8786C85.2982 74.4591 85.8328 74.1734 86.4147 74.0576C86.9967 73.9418 87.5998 74.0013 88.148 74.2283C88.6962 74.4554 89.1647 74.8399 89.4944 75.3332C89.824 75.8266 90 76.4066 90 77C89.9991 77.7953 89.6828 78.5579 89.1203 79.1203C88.5579 79.6827 87.7954 79.9991 87 80Z" fill="#FF5C39"/>
</g>
<defs>
<clipPath id="clip0_682_77603">
<rect width="64" height="64" fill="white" transform="translate(28 28)"/>
</clipPath>
</defs>
</svg>
