<svg width="120" height="120" viewBox="0 0 120 120" fill="none" xmlns="http://www.w3.org/2000/svg">
<rect width="120" height="120" rx="60" fill="white"/>
<g clip-path="url(#clip0_682_77593)">
<path d="M91 81.25H88V46.7361C88 46.4746 87.8946 46.2238 87.7071 46.0388C87.5196 45.8539 87.2652 45.75 87 45.75H73C72.7348 45.75 72.4804 45.8539 72.2929 46.0388C72.1054 46.2238 72 46.4746 72 46.7361C72 46.9976 72.1054 47.2485 72.2929 47.4334C72.4804 47.6183 72.7348 47.7222 73 47.7222H86V81.25H34V47.7222H47C47.2652 47.7222 47.5196 47.6183 47.7071 47.4334C47.8946 47.2485 48 46.9976 48 46.7361C48 46.4746 47.8946 46.2238 47.7071 46.0388C47.5196 45.8539 47.2652 45.75 47 45.75H33C32.7348 45.75 32.4804 45.8539 32.2929 46.0388C32.1054 46.2238 32 46.4746 32 46.7361V81.25H29C28.7348 81.25 28.4804 81.3539 28.2929 81.5388C28.1054 81.7238 28 81.9746 28 82.2361V88.1528C28.0009 88.9371 28.3172 89.6891 28.8796 90.2437C29.4421 90.7983 30.2046 91.1103 31 91.1111H89C89.7954 91.1103 90.5579 90.7983 91.1204 90.2437C91.6828 89.6891 91.9991 88.9371 92 88.1528V82.2361C92 81.9746 91.8946 81.7238 91.7071 81.5388C91.5196 81.3539 91.2652 81.25 91 81.25ZM78.3818 83.2222L77.3818 85.1945H42.6182L41.6182 83.2222H78.3818ZM89 89.1389H31C30.7349 89.1386 30.4807 89.0346 30.2933 88.8497C30.1058 88.6648 30.0003 88.4142 30 88.1528V87.1667H35C35.2652 87.1667 35.5196 87.0628 35.7071 86.8778C35.8946 86.6929 36 86.4421 36 86.1806C36 85.919 35.8946 85.6682 35.7071 85.4833C35.5196 85.2983 35.2652 85.1945 35 85.1945H30V83.2222H39.3818L41.1055 86.6217C41.1886 86.7854 41.3163 86.9232 41.4742 87.0195C41.6322 87.1157 41.8143 87.1667 42 87.1667H78C78.1857 87.1667 78.3678 87.1157 78.5258 87.0195C78.6837 86.9232 78.8114 86.7854 78.8945 86.6217L80.6182 83.2222H90V85.1945H85C84.7348 85.1945 84.4804 85.2983 84.2929 85.4833C84.1054 85.6682 84 85.919 84 86.1806C84 86.4421 84.1054 86.6929 84.2929 86.8778C84.4804 87.0628 84.7348 87.1667 85 87.1667H90V88.1528C89.9997 88.4142 89.8942 88.6648 89.7067 88.8497C89.5193 89.0346 89.2651 89.1386 89 89.1389Z" fill="#FF5C39"/>
<path d="M44 51.6666C44.2652 51.6666 44.5196 51.5627 44.7071 51.3778C44.8946 51.1929 45 50.942 45 50.6805C45 50.419 44.8946 50.1682 44.7071 49.9832C44.5196 49.7983 44.2652 49.6944 44 49.6944H37C36.7348 49.6944 36.4804 49.7983 36.2929 49.9832C36.1054 50.1682 36 50.419 36 50.6805V78.2916C36 78.5532 36.1054 78.804 36.2929 78.9889C36.4804 79.1738 36.7348 79.2777 37 79.2777H83C83.2652 79.2777 83.5196 79.1738 83.7071 78.9889C83.8946 78.804 84 78.5532 84 78.2916V50.6805C84 50.419 83.8946 50.1682 83.7071 49.9832C83.5196 49.7983 83.2652 49.6944 83 49.6944H76C75.7348 49.6944 75.4804 49.7983 75.2929 49.9832C75.1054 50.1682 75 50.419 75 50.6805C75 50.942 75.1054 51.1929 75.2929 51.3778C75.4804 51.5627 75.7348 51.6666 76 51.6666H82V77.3055H38V51.6666H44Z" fill="#FF5C39"/>
<path d="M60.7441 75.006C61.2881 74.4084 64 71.3311 64 69.4167C64 68.3705 63.5786 67.3673 62.8284 66.6275C62.0783 65.8878 61.0609 65.4722 60 65.4722C58.9391 65.4722 57.9217 65.8878 57.1716 66.6275C56.4214 67.3673 56 68.3705 56 69.4167C56 71.3311 58.7119 74.4084 59.2559 75.006C59.3497 75.109 59.4644 75.1913 59.5926 75.2477C59.7208 75.3041 59.8596 75.3333 60 75.3333C60.1404 75.3333 60.2792 75.3041 60.4074 75.2477C60.5356 75.1913 60.6503 75.109 60.7441 75.006ZM58 69.4167C58 68.8936 58.2107 68.392 58.5858 68.0221C58.9609 67.6522 59.4696 67.4445 60 67.4445C60.5304 67.4445 61.0391 67.6522 61.4142 68.0221C61.7893 68.392 62 68.8936 62 69.4167C62 70.045 61.06 71.5127 60.0005 72.8199C58.9375 71.5059 58 70.0281 58 69.4167Z" fill="#FF5C39"/>
<path d="M60 50.6805C60.7911 50.6805 61.5645 50.4492 62.2223 50.0158C62.8801 49.5823 63.3928 48.9663 63.6955 48.2455C63.9983 47.5248 64.0775 46.7317 63.9231 45.9665C63.7688 45.2014 63.3878 44.4986 62.8284 43.9469C62.269 43.3953 61.5563 43.0196 60.7804 42.8674C60.0044 42.7152 59.2002 42.7933 58.4693 43.0919C57.7384 43.3904 57.1136 43.896 56.6741 44.5447C56.2346 45.1933 56 45.9559 56 46.7361C56.0012 47.7818 56.423 48.7844 57.1729 49.5239C57.9228 50.2634 58.9395 50.6793 60 50.6805ZM60 44.7639C60.3956 44.7639 60.7822 44.8795 61.1111 45.0962C61.44 45.3129 61.6964 45.621 61.8478 45.9813C61.9991 46.3417 62.0387 46.7383 61.9616 47.1208C61.8844 47.5034 61.6939 47.8548 61.4142 48.1306C61.1345 48.4065 60.7781 48.5943 60.3902 48.6704C60.0022 48.7465 59.6001 48.7074 59.2346 48.5582C58.8692 48.4089 58.5568 48.1561 58.3371 47.8318C58.1173 47.5075 58 47.1261 58 46.7361C58.0005 46.2132 58.2114 45.7118 58.5864 45.3421C58.9613 44.9723 59.4697 44.7644 60 44.7639Z" fill="#FF5C39"/>
<path d="M47.353 50.1822C45.459 52.5898 44.4184 55.5436 44.3908 58.5906C44.3631 61.6376 45.35 64.6093 47.2 67.05C47.2922 67.1713 47.4115 67.2699 47.5487 67.3383C47.6859 67.4068 47.8373 67.4431 47.991 67.4444H48C48.1524 67.4445 48.3028 67.4102 48.4397 67.3442C48.5766 67.2782 48.6964 67.1822 48.79 67.0636L53.1117 61.5795C53.4514 62.1162 53.8213 62.6337 54.2196 63.1297C54.3132 63.2451 54.4319 63.3384 54.567 63.4025C54.7021 63.4666 54.8501 63.4999 55 63.5H65C65.1499 63.4999 65.298 63.4666 65.4332 63.4025C65.5683 63.3385 65.6871 63.2452 65.7808 63.1297C66.179 62.6337 66.5489 62.1162 66.8887 61.5795L71.21 67.0636C71.3035 67.1822 71.4234 67.2782 71.5603 67.3442C71.6972 67.4102 71.8476 67.4445 72 67.4444H72.0088C72.1625 67.4431 72.3138 67.4068 72.451 67.3383C72.5882 67.2699 72.7075 67.1713 72.7998 67.05C74.6498 64.6093 75.6367 61.6376 75.6091 58.5906C75.5815 55.5436 74.5409 52.5897 72.647 50.1821L69.9157 46.7217C69.4237 39.5807 66.0797 32.9235 60.6172 28.2104C60.4411 28.0742 60.2238 28.0002 60 28.0002C59.7762 28.0002 59.5589 28.0742 59.3828 28.2104C53.9202 32.9236 50.5762 39.5807 50.0843 46.7218L47.353 50.1822ZM48.061 64.774C46.8324 62.7137 46.2586 60.3374 46.4137 57.9522C46.5688 55.5669 47.4456 53.2823 48.931 51.3936L50.01 50.0272C50.0136 52.7167 50.4566 55.3879 51.3222 57.9383C51.3275 57.9515 51.3298 57.9654 51.3356 57.9783C51.5419 58.5497 51.7863 59.1241 52.0613 59.6979L48.061 64.774ZM54.9958 36.875H65.0137C66.9816 40.5169 68.0074 44.5816 68 48.7083C68.0876 51.3715 67.7601 54.0321 67.0289 56.5972H52.9712C52.2399 54.0321 51.9124 51.3715 52 48.7083C51.9948 44.5807 53.0239 40.5158 54.9958 36.875ZM64.51 61.5278H55.49C54.7936 60.6088 54.2026 59.6166 53.7277 58.5694H66.2726C65.7976 59.6167 65.2065 60.6088 64.51 61.5278ZM71.9387 64.774L67.9387 59.6977C68.2141 59.1229 68.4587 58.5476 68.6653 57.9753C68.6696 57.9654 68.6714 57.9556 68.6753 57.9457C69.5426 55.3931 69.9866 52.7193 69.9903 50.0272L71.0687 51.3936C72.5541 53.2823 73.431 55.5669 73.5861 57.9521C73.7413 60.3373 73.1675 62.7137 71.939 64.774H71.9387ZM60.0015 30.3001C61.464 31.6777 62.7541 33.2229 63.8445 34.9028H56.166C57.2556 33.2245 58.5431 31.6795 60.0015 30.3001Z" fill="#FF5C39"/>
</g>
<defs>
<clipPath id="clip0_682_77593">
<rect width="64" height="63.1111" fill="white" transform="translate(28 28)"/>
</clipPath>
</defs>
</svg>
