<svg width="120" height="120" viewBox="0 0 120 120" fill="none" xmlns="http://www.w3.org/2000/svg">
<rect width="120" height="120" rx="60" fill="white"/>
<g clip-path="url(#clip0_682_77612)">
<path d="M90.902 38.4692H29.0982C28.5476 38.4692 28.1013 38.0272 28.1013 37.4819V32.8879C28.1013 32.3426 28.5476 31.9005 29.0982 31.9005H90.902C91.4525 31.9005 91.8988 32.3426 91.8988 32.8879V37.4819C91.8988 38.0272 91.4525 38.4692 90.902 38.4692ZM30.095 36.4945H89.9051V33.8752H30.095V36.4945Z" fill="#FF5C39"/>
<path d="M86.9569 77.6091H33.0431C32.4926 77.6091 32.0463 77.1671 32.0463 76.6218V37.4815C32.0463 36.9362 32.4926 36.4941 33.0431 36.4941H86.9569C87.5075 36.4941 87.9538 36.9362 87.9538 37.4815V76.6218C87.9538 77.167 87.5074 77.6091 86.9569 77.6091ZM34.0399 75.6344H85.9601V38.4688H34.0399V75.6344Z" fill="#FF5C39"/>
<path d="M50.0838 90.3892C49.9965 90.3892 49.9079 90.3778 49.8197 90.3539C49.2888 90.2097 48.9763 89.6666 49.1218 89.1407L52.6581 76.3608C52.8036 75.8349 53.352 75.5254 53.8829 75.6695C54.4139 75.8137 54.7264 76.3568 54.5809 76.8827L51.0446 89.6626C50.9233 90.1011 50.5217 90.3892 50.0838 90.3892Z" fill="#FF5C39"/>
<path d="M69.9164 90.3892C69.4784 90.3892 69.0769 90.1012 68.9555 89.6626L65.4193 76.8827C65.2737 76.3568 65.5862 75.8137 66.1172 75.6695C66.6482 75.5253 67.1965 75.835 67.342 76.3608L70.8783 89.1407C71.0238 89.6666 70.7113 90.2098 70.1804 90.3539C70.0922 90.3778 70.0036 90.3892 69.9164 90.3892Z" fill="#FF5C39"/>
<path d="M60.0001 33.8752C59.4495 33.8752 59.0032 33.4332 59.0032 32.8879V30.1678C59.0032 29.6225 59.4495 29.1804 60.0001 29.1804C60.5506 29.1804 60.9969 29.6225 60.9969 30.1678V32.8879C60.9969 33.4332 60.5506 33.8752 60.0001 33.8752Z" fill="#FF5C39"/>
<path d="M40.5573 57.5375C40.446 57.5375 40.333 57.519 40.2223 57.4799C39.7038 57.2966 39.4334 56.7317 39.6184 56.2182C40.6838 53.2606 43.5305 51.2734 46.7019 51.2734H47.2095C50.3811 51.2734 53.2277 53.2606 54.293 56.2182C54.478 56.7318 54.2076 57.2967 53.6891 57.4799C53.1706 57.6631 52.6002 57.3953 52.4153 56.8817C51.6324 54.7084 49.5404 53.2481 47.2095 53.2481H46.7019C44.3711 53.2481 42.2791 54.7084 41.4961 56.8818C41.3506 57.2856 40.9668 57.5375 40.5573 57.5375Z" fill="#FF5C39"/>
<path d="M46.9557 53.2481C44.4264 53.2481 42.3686 51.2099 42.3686 48.7047C42.3686 46.1994 44.4264 44.1613 46.9557 44.1613C49.485 44.1613 51.5428 46.1994 51.5428 48.7047C51.5428 51.2099 49.485 53.2481 46.9557 53.2481ZM46.9557 46.1359C45.5257 46.1359 44.3623 47.2882 44.3623 48.7047C44.3623 50.1211 45.5257 51.2734 46.9557 51.2734C48.3857 51.2734 49.5491 50.1211 49.5491 48.7047C49.5491 47.2882 48.3857 46.1359 46.9557 46.1359Z" fill="#FF5C39"/>
<path d="M46.9557 60.3006C44.3572 60.3006 41.9144 59.2984 40.077 57.4785C38.2397 55.6586 37.2278 53.239 37.2278 50.6654C37.2278 48.0917 38.2397 45.6721 40.077 43.8523C41.9144 42.0324 44.3572 41.0302 46.9557 41.0302C49.5541 41.0302 51.9969 42.0324 53.8343 43.8523C55.6716 45.6721 56.6835 48.0917 56.6835 50.6654C56.6835 53.239 55.6716 55.6587 53.8343 57.4785C51.9969 59.2983 49.5541 60.3006 46.9557 60.3006ZM46.9557 43.0048C42.691 43.0048 39.2215 46.4413 39.2215 50.6654C39.2215 54.8894 42.691 58.3259 46.9557 58.3259C51.2203 58.3259 54.6898 54.8894 54.6898 50.6654C54.6898 46.4413 51.2203 43.0048 46.9557 43.0048Z" fill="#FF5C39"/>
<path d="M81.7755 46.7374H61.5896C61.0391 46.7374 60.5928 46.2953 60.5928 45.75C60.5928 45.2047 61.0391 44.7627 61.5896 44.7627H81.7755C82.3261 44.7627 82.7723 45.2047 82.7723 45.75C82.7723 46.2953 82.326 46.7374 81.7755 46.7374Z" fill="#FF5C39"/>
<path d="M81.7755 51.7058H61.5896C61.0391 51.7058 60.5928 51.2637 60.5928 50.7184C60.5928 50.1731 61.0391 49.7311 61.5896 49.7311H81.7755C82.3261 49.7311 82.7724 50.1731 82.7724 50.7184C82.7724 51.2637 82.326 51.7058 81.7755 51.7058Z" fill="#FF5C39"/>
<path d="M81.7755 56.5684H61.5896C61.0391 56.5684 60.5928 56.1264 60.5928 55.5811C60.5928 55.0358 61.0391 54.5938 61.5896 54.5938H81.7755C82.3261 54.5938 82.7724 55.0358 82.7724 55.5811C82.7724 56.1264 82.326 56.5684 81.7755 56.5684Z" fill="#FF5C39"/>
<path d="M81.6398 73.0735H61.5897C61.0391 73.0735 60.5928 72.6314 60.5928 72.0861V60.5573C60.5928 60.012 61.0391 59.5699 61.5897 59.5699C62.1402 59.5699 62.5865 60.012 62.5865 60.5573V71.0988H81.6398C82.1903 71.0988 82.6366 71.5408 82.6366 72.0861C82.6366 72.6314 82.1903 73.0735 81.6398 73.0735Z" fill="#FF5C39"/>
<path d="M61.5891 73.0735C61.3628 73.0735 61.1353 72.9976 60.9485 72.8422C60.5269 72.4915 60.4721 71.8687 60.8262 71.4512L66.2498 65.0545C66.5332 64.7203 67.0044 64.61 67.409 64.7832L69.9966 65.8918L72.7959 62.1263C73.0903 61.7303 73.6343 61.6093 74.0713 61.8426L77.0921 63.4543L80.0961 60.4102C80.481 60.0203 81.1121 60.0131 81.5058 60.3943C81.8995 60.7755 81.9066 61.4006 81.5219 61.7905L77.9931 65.3663C77.6823 65.6812 77.1987 65.7542 76.8075 65.5454L73.888 63.9877L71.1316 67.6954C70.8563 68.0658 70.3593 68.1988 69.9332 68.0162L67.299 66.8876L62.353 72.7211C62.1558 72.9536 61.8734 73.0735 61.5891 73.0735Z" fill="#FF5C39"/>
<path d="M53.6195 65.889H40.2914C39.7408 65.889 39.2946 65.4469 39.2946 64.9016C39.2946 64.3563 39.7408 63.9143 40.2914 63.9143H53.6195C54.17 63.9143 54.6163 64.3563 54.6163 64.9016C54.6163 65.4469 54.17 65.889 53.6195 65.889Z" fill="#FF5C39"/>
<path d="M53.6195 71.2165H40.2914C39.7408 71.2165 39.2946 70.7745 39.2946 70.2292C39.2946 69.6839 39.7408 69.2418 40.2914 69.2418H53.6195C54.17 69.2418 54.6163 69.6839 54.6163 70.2292C54.6163 70.7745 54.17 71.2165 53.6195 71.2165Z" fill="#FF5C39"/>
</g>
<defs>
<clipPath id="clip0_682_77612">
<rect width="64" height="61.5696" fill="white" transform="translate(28 29)"/>
</clipPath>
</defs>
</svg>
