<svg width="120" height="120" viewBox="0 0 120 120" fill="none" xmlns="http://www.w3.org/2000/svg">
<rect width="120" height="120" rx="60" fill="white"/>
<g clip-path="url(#clip0_682_77595)">
<path d="M89.5625 79.2941H78.8309C78.2743 79.2941 77.8231 78.8429 77.8231 78.2863C77.8231 77.7297 78.2743 77.2785 78.8309 77.2785H89.5625C89.933 77.2785 90.2344 76.977 90.2344 76.6066V39.137C90.2344 38.7665 89.933 38.4651 89.5625 38.4651H30.4375C30.067 38.4651 29.7656 38.7665 29.7656 39.137V76.6066C29.7656 76.977 30.067 77.2785 30.4375 77.2785H41.169C41.7256 77.2785 42.1768 77.7297 42.1768 78.2863C42.1768 78.8429 41.7256 79.2941 41.169 79.2941H30.4375C28.9556 79.2941 27.75 78.0885 27.75 76.6066V39.137C27.75 37.6551 28.9556 36.4495 30.4375 36.4495H89.5625C91.0444 36.4495 92.25 37.6551 92.25 39.137V76.6066C92.25 78.0885 91.0444 79.2941 89.5625 79.2941Z" fill="#FF5C39"/>
<path d="M68.854 38.4651H51.1464C50.5898 38.4651 50.1385 38.0139 50.1385 37.4573V32.0966C50.1385 30.6147 51.3441 29.4091 52.826 29.4091H67.1739C68.6554 29.4091 69.8612 30.6145 69.8619 32.0961V37.4573C69.8619 38.0139 69.4106 38.4651 68.854 38.4651ZM52.1542 36.4495H67.8462V32.0966C67.846 31.7263 67.5444 31.4247 67.1739 31.4247H52.826C52.4556 31.4247 52.1542 31.7261 52.1542 32.0966V36.4495Z" fill="#FF5C39"/>
<path d="M77.0342 90.5908H42.9659C41.4194 90.5908 40.1613 89.3327 40.1613 87.7862V44.829C40.1613 43.2825 41.4194 42.0244 42.9659 42.0244H77.0338C78.5802 42.0244 79.8384 43.2825 79.8384 44.829V87.7571C79.8387 87.7668 79.8388 87.7765 79.8388 87.7862C79.8388 89.3327 78.5807 90.5908 77.0342 90.5908ZM42.9659 44.04C42.5308 44.04 42.1769 44.3939 42.1769 44.829V87.7862C42.1769 88.2212 42.5308 88.5752 42.9659 88.5752H77.0342C77.4628 88.5752 77.8127 88.2316 77.8229 87.8054C77.8228 87.799 77.8228 87.7926 77.8228 87.7862V44.829C77.8228 44.394 77.4688 44.04 77.0337 44.04H42.9659Z" fill="#FF5C39"/>
<path d="M47.0001 68.262H46.5239C45.9673 68.262 45.5161 67.8108 45.5161 67.2542C45.5161 66.6975 45.9673 66.2463 46.5239 66.2463H47.0001C47.5567 66.2463 48.0079 66.6975 48.0079 67.2542C48.0079 67.8108 47.5567 68.262 47.0001 68.262Z" fill="#FF5C39"/>
<path d="M47.0001 73.87H46.5239C45.9673 73.87 45.5161 73.4188 45.5161 72.8622C45.5161 72.3056 45.9673 71.8544 46.5239 71.8544H47.0001C47.5567 71.8544 48.0079 72.3056 48.0079 72.8622C48.0079 73.4188 47.5567 73.87 47.0001 73.87Z" fill="#FF5C39"/>
<path d="M47.0001 79.4785H46.5239C45.9673 79.4785 45.5161 79.0273 45.5161 78.4707C45.5161 77.9141 45.9673 77.4629 46.5239 77.4629H47.0001C47.5567 77.4629 48.0079 77.9141 48.0079 78.4707C48.0079 79.0273 47.5567 79.4785 47.0001 79.4785Z" fill="#FF5C39"/>
<path d="M47.0001 85.0865H46.5239C45.9673 85.0865 45.5161 84.6353 45.5161 84.0787C45.5161 83.5221 45.9673 83.0709 46.5239 83.0709H47.0001C47.5567 83.0709 48.0079 83.5221 48.0079 84.0787C48.0079 84.6353 47.5567 85.0865 47.0001 85.0865Z" fill="#FF5C39"/>
<path d="M73.4762 68.262H51.6659C51.1093 68.262 50.6581 67.8108 50.6581 67.2542C50.6581 66.6975 51.1093 66.2463 51.6659 66.2463H73.4762C74.0328 66.2463 74.484 66.6975 74.484 67.2542C74.484 67.8108 74.0328 68.262 73.4762 68.262Z" fill="#FF5C39"/>
<path d="M73.4762 73.87H51.6659C51.1093 73.87 50.6581 73.4188 50.6581 72.8622C50.6581 72.3056 51.1093 71.8544 51.6659 71.8544H73.4762C74.0328 71.8544 74.484 72.3056 74.484 72.8622C74.484 73.4188 74.0328 73.87 73.4762 73.87Z" fill="#FF5C39"/>
<path d="M73.4762 79.4785H51.6659C51.1093 79.4785 50.6581 79.0273 50.6581 78.4707C50.6581 77.9141 51.1093 77.4629 51.6659 77.4629H73.4762C74.0328 77.4629 74.484 77.9141 74.484 78.4707C74.484 79.0273 74.0328 79.4785 73.4762 79.4785Z" fill="#FF5C39"/>
<path d="M73.4762 85.0865H51.6659C51.1093 85.0865 50.6581 84.6353 50.6581 84.0787C50.6581 83.5221 51.1093 83.0709 51.6659 83.0709H73.4762C74.0328 83.0709 74.484 83.5221 74.484 84.0787C74.484 84.6353 74.0328 85.0865 73.4762 85.0865Z" fill="#FF5C39"/>
<path d="M48.7778 61.4769C48.5617 61.4769 48.3441 61.4078 48.1602 61.2649C47.7207 60.9235 47.6411 60.2903 47.9826 59.8508C49.3379 58.1061 51.3814 57.1055 53.5892 57.1055H54.0633C56.2698 57.1055 58.3132 58.1059 59.6695 59.85C60.0112 60.2894 59.9319 60.9226 59.4925 61.2643C59.0532 61.6059 58.42 61.5268 58.0783 61.0873C57.1066 59.8378 55.6432 59.1212 54.0633 59.1212H53.5892C52.0084 59.1212 50.5451 59.8378 49.5744 61.0873C49.3757 61.343 49.0784 61.4769 48.7778 61.4769Z" fill="#FF5C39"/>
<path d="M53.826 59.1215C51.4219 59.1215 49.4659 57.1656 49.4659 54.7615C49.4659 52.3573 51.4219 50.4014 53.826 50.4014C56.2301 50.4014 58.186 52.3573 58.186 54.7615C58.186 57.1656 56.2301 59.1215 53.826 59.1215ZM53.826 52.4171C52.5333 52.4171 51.4816 53.4687 51.4816 54.7615C51.4816 56.0542 52.5333 57.1059 53.826 57.1059C55.1187 57.1059 56.1704 56.0542 56.1704 54.7615C56.1704 53.4687 55.1187 52.4171 53.826 52.4171Z" fill="#FF5C39"/>
<path d="M53.8259 63.5026C49.2439 63.5026 45.5161 59.7748 45.5161 55.1927V54.9899C45.5161 50.4078 49.2439 46.6801 53.8259 46.6801C58.408 46.6801 62.1358 50.4078 62.1358 54.9899V55.1927C62.1353 59.7748 58.4075 63.5026 53.8259 63.5026ZM53.8259 48.6957C50.3553 48.6957 47.5317 51.5192 47.5317 54.9899V55.1927C47.5317 58.6634 50.3553 61.4869 53.8259 61.4869C57.2962 61.4869 60.1198 58.6633 60.1202 55.1926V54.9899C60.1202 51.5192 57.2966 48.6957 53.8259 48.6957Z" fill="#FF5C39"/>
<path d="M73.4761 53.2951H64.8862C64.3296 53.2951 63.8784 52.8439 63.8784 52.2873C63.8784 51.7307 64.3296 51.2795 64.8862 51.2795H73.4761C74.0328 51.2795 74.484 51.7307 74.484 52.2873C74.484 52.8439 74.0328 53.2951 73.4761 53.2951Z" fill="#FF5C39"/>
<path d="M73.4761 58.9031H64.8862C64.3296 58.9031 63.8784 58.4519 63.8784 57.8953C63.8784 57.3387 64.3296 56.8875 64.8862 56.8875H73.4761C74.0328 56.8875 74.484 57.3387 74.484 57.8953C74.484 58.4519 74.0328 58.9031 73.4761 58.9031Z" fill="#FF5C39"/>
</g>
<defs>
<clipPath id="clip0_682_77595">
<rect width="64" height="62" fill="white" transform="translate(28 29)"/>
</clipPath>
</defs>
</svg>
