<svg width="92" height="92" viewBox="0 0 92 92" fill="none" xmlns="http://www.w3.org/2000/svg">
<path d="M61.9895 38.6073C62.1129 39.0882 62.2156 39.6894 62.2979 40.4109C62.4212 41.1324 62.5034 41.8538 62.5445 42.5753C62.5856 43.2566 62.6062 43.8979 62.6062 44.4991C62.6473 45.1003 62.6678 45.6014 62.6678 46.0022V46.5433C62.6678 50.1505 62.4417 52.8159 61.9895 54.5394C61.784 55.2207 61.414 55.8219 60.8796 56.343C60.3452 56.864 59.708 57.2248 58.9681 57.4252C58.187 57.6256 56.7071 57.7859 54.5284 57.9061C52.3496 57.9863 50.3558 58.0464 48.5471 58.0865H45.8339C38.8044 58.0865 34.4263 57.8661 32.6998 57.4252C31.0965 56.9843 30.0894 56.0224 29.6783 54.5394C29.4727 53.7778 29.3083 52.7357 29.185 51.4131C29.1028 50.0503 29.0411 48.908 29 47.9862V46.5433C29 42.9761 29.2261 40.3307 29.6783 38.6073C29.8838 37.8858 30.2538 37.2646 30.7882 36.7435C31.3226 36.2225 31.9598 35.8617 32.6998 35.6613C33.4808 35.4609 34.9607 35.3206 37.1395 35.2405C39.3182 35.1202 41.312 35.0401 43.1208 35H45.8339C52.8635 35 57.2415 35.2204 58.9681 35.6613C59.708 35.8617 60.3452 36.2225 60.8796 36.7435C61.414 37.2646 61.784 37.8858 61.9895 38.6073ZM42.3808 51.4732L51.1986 46.5433L42.3808 41.6734V51.4732Z" fill="white"/>
<circle cx="46" cy="46" r="45.5" stroke="white"/>
</svg>
